<svg viewBox="0 0 330 200" xmlns="http://www.w3.org/2000/svg"><g><g><g><g><g><line x1="39.109375" y1="166.91501069310627" x2="34.109375" y2="166.91501069310627" style="visibility: inherit;" fill="rgb(0, 0, 0)" stroke="rgb(204, 204, 204)" stroke-width="1px"></line><line x1="39.109375" y1="149.0928479032484" x2="34.109375" y2="149.0928479032484" style="visibility: inherit;" fill="rgb(0, 0, 0)" stroke="rgb(204, 204, 204)" stroke-width="1px"></line><line x1="39.109375" y1="131.27068511339058" x2="34.109375" y2="131.27068511339058" style="visibility: inherit;" fill="rgb(0, 0, 0)" stroke="rgb(204, 204, 204)" stroke-width="1px"></line><line x1="39.109375" y1="113.44852232353276" x2="34.109375" y2="113.44852232353276" style="visibility: inherit;" fill="rgb(0, 0, 0)" stroke="rgb(204, 204, 204)" stroke-width="1px"></line><line x1="39.109375" y1="95.62635953367493" x2="34.109375" y2="95.62635953367493" style="visibility: inherit;" fill="rgb(0, 0, 0)" stroke="rgb(204, 204, 204)" stroke-width="1px"></line><line x1="39.109375" y1="77.8041967438171" x2="34.109375" y2="77.8041967438171" style="visibility: inherit;" fill="rgb(0, 0, 0)" stroke="rgb(204, 204, 204)" stroke-width="1px"></line><line x1="39.109375" y1="59.98203395395926" x2="34.109375" y2="59.98203395395926" style="visibility: inherit;" fill="rgb(0, 0, 0)" stroke="rgb(204, 204, 204)" stroke-width="1px"></line><line x1="39.109375" y1="42.15987116410142" x2="34.109375" y2="42.15987116410142" style="visibility: inherit;" fill="rgb(0, 0, 0)" stroke="rgb(204, 204, 204)" stroke-width="1px"></line><line x1="39.109375" y1="24.33770837424359" x2="34.109375" y2="24.33770837424359" style="visibility: inherit;" fill="rgb(0, 0, 0)" stroke="rgb(204, 204, 204)" stroke-width="1px"></line><line x1="39.109375" y1="6.515545584385762" x2="34.109375" y2="6.515545584385762" style="visibility: inherit;" fill="rgb(0, 0, 0)" stroke="rgb(204, 204, 204)" stroke-width="1px"></line></g><g transform="translate(29.109375, 0)"><text x="0" y="166.91501069310627" dx="0em" dy="0.3em" style="text-anchor: end; visibility: inherit; font-family: &quot;Helvetica Neue&quot;, sans-serif; font-size: 12px; font-weight: 200;" fill="rgb(50, 49, 63)" stroke="none" stroke-width="1px">30</text><text x="0" y="149.0928479032484" dx="0em" dy="0.3em" style="text-anchor: end; visibility: hidden; font-family: &quot;Helvetica Neue&quot;, sans-serif; font-size: 12px; font-weight: 200;" fill="rgb(50, 49, 63)" stroke="none" stroke-width="1px">40</text><text x="0" y="131.27068511339058" dx="0em" dy="0.3em" style="text-anchor: end; visibility: inherit; font-family: &quot;Helvetica Neue&quot;, sans-serif; font-size: 12px; font-weight: 200;" fill="rgb(50, 49, 63)" stroke="none" stroke-width="1px">50</text><text x="0" y="113.44852232353276" dx="0em" dy="0.3em" style="text-anchor: end; visibility: hidden; font-family: &quot;Helvetica Neue&quot;, sans-serif; font-size: 12px; font-weight: 200;" fill="rgb(50, 49, 63)" stroke="none" stroke-width="1px">60</text><text x="0" y="95.62635953367493" dx="0em" dy="0.3em" style="text-anchor: end; visibility: inherit; font-family: &quot;Helvetica Neue&quot;, sans-serif; font-size: 12px; font-weight: 200;" fill="rgb(50, 49, 63)" stroke="none" stroke-width="1px">70</text><text x="0" y="77.8041967438171" dx="0em" dy="0.3em" style="text-anchor: end; visibility: hidden; font-family: &quot;Helvetica Neue&quot;, sans-serif; font-size: 12px; font-weight: 200;" fill="rgb(50, 49, 63)" stroke="none" stroke-width="1px">80</text><text x="0" y="59.98203395395926" dx="0em" dy="0.3em" style="text-anchor: end; visibility: inherit; font-family: &quot;Helvetica Neue&quot;, sans-serif; font-size: 12px; font-weight: 200;" fill="rgb(50, 49, 63)" stroke="none" stroke-width="1px">90</text><text x="0" y="42.15987116410142" dx="0em" dy="0.3em" style="text-anchor: end; visibility: hidden; font-family: &quot;Helvetica Neue&quot;, sans-serif; font-size: 12px; font-weight: 200;" fill="rgb(50, 49, 63)" stroke="none" stroke-width="1px">100</text><text x="0" y="24.33770837424359" dx="0em" dy="0.3em" style="text-anchor: end; visibility: inherit; font-family: &quot;Helvetica Neue&quot;, sans-serif; font-size: 12px; font-weight: 200;" fill="rgb(50, 49, 63)" stroke="none" stroke-width="1px">110</text><text x="0" y="6.515545584385762" dx="0em" dy="0.3em" style="text-anchor: end; visibility: hidden; font-family: &quot;Helvetica Neue&quot;, sans-serif; font-size: 12px; font-weight: 200;" fill="rgb(50, 49, 63)" stroke="none" stroke-width="1px">120</text></g><line x1="39.109375" y1="0" x2="39.109375" y2="177" fill="rgb(0, 0, 0)" stroke="rgb(204, 204, 204)" stroke-width="1px"></line></g></g><g transform="translate(39, 0)" clip-path="url(#clip_0)"><clipPath id="clip_0"><rect width="290" height="177"></rect></clipPath><g><g><g><line x1="4.311612886809205" y1="0" x2="4.311612886809205" y2="177" fill="rgb(0, 0, 0)" stroke="rgb(60, 60, 60)" stroke-width="1px" opacity="0.25"></line><line x1="41.12444465280286" y1="0" x2="41.12444465280286" y2="177" fill="rgb(0, 0, 0)" stroke="rgb(60, 60, 60)" stroke-width="1px" opacity="0.25"></line><line x1="77.93727641879651" y1="0" x2="77.93727641879651" y2="177" fill="rgb(0, 0, 0)" stroke="rgb(60, 60, 60)" stroke-width="1px" opacity="0.25"></line><line x1="114.75010818479016" y1="0" x2="114.75010818479016" y2="177" fill="rgb(0, 0, 0)" stroke="rgb(60, 60, 60)" stroke-width="1px" opacity="0.25"></line><line x1="151.56293995078383" y1="0" x2="151.56293995078383" y2="177" fill="rgb(0, 0, 0)" stroke="rgb(60, 60, 60)" stroke-width="1px" opacity="0.25"></line><line x1="188.37577171677748" y1="0" x2="188.37577171677748" y2="177" fill="rgb(0, 0, 0)" stroke="rgb(60, 60, 60)" stroke-width="1px" opacity="0.25"></line><line x1="225.18860348277116" y1="0" x2="225.18860348277116" y2="177" fill="rgb(0, 0, 0)" stroke="rgb(60, 60, 60)" stroke-width="1px" opacity="0.25"></line><line x1="262.0014352487648" y1="0" x2="262.0014352487648" y2="177" fill="rgb(0, 0, 0)" stroke="rgb(60, 60, 60)" stroke-width="1px" opacity="0.25"></line></g><g><line x1="0" y1="166.91501069310627" x2="290.890625" y2="166.91501069310627" fill="rgb(0, 0, 0)" stroke="rgb(60, 60, 60)" stroke-width="1px" opacity="0.25"></line><line x1="0" y1="149.0928479032484" x2="290.890625" y2="149.0928479032484" fill="rgb(0, 0, 0)" stroke="rgb(60, 60, 60)" stroke-width="1px" opacity="0.25"></line><line x1="0" y1="131.27068511339058" x2="290.890625" y2="131.27068511339058" fill="rgb(0, 0, 0)" stroke="rgb(60, 60, 60)" stroke-width="1px" opacity="0.25"></line><line x1="0" y1="113.44852232353276" x2="290.890625" y2="113.44852232353276" fill="rgb(0, 0, 0)" stroke="rgb(60, 60, 60)" stroke-width="1px" opacity="0.25"></line><line x1="0" y1="95.62635953367493" x2="290.890625" y2="95.62635953367493" fill="rgb(0, 0, 0)" stroke="rgb(60, 60, 60)" stroke-width="1px" opacity="0.25"></line><line x1="0" y1="77.8041967438171" x2="290.890625" y2="77.8041967438171" fill="rgb(0, 0, 0)" stroke="rgb(60, 60, 60)" stroke-width="1px" opacity="0.25"></line><line x1="0" y1="59.98203395395926" x2="290.890625" y2="59.98203395395926" fill="rgb(0, 0, 0)" stroke="rgb(60, 60, 60)" stroke-width="1px" opacity="0.25"></line><line x1="0" y1="42.15987116410142" x2="290.890625" y2="42.15987116410142" fill="rgb(0, 0, 0)" stroke="rgb(60, 60, 60)" stroke-width="1px" opacity="0.25"></line><line x1="0" y1="24.33770837424359" x2="290.890625" y2="24.33770837424359" fill="rgb(0, 0, 0)" stroke="rgb(60, 60, 60)" stroke-width="1px" opacity="0.25"></line><line x1="0" y1="6.515545584385762" x2="290.890625" y2="6.515545584385762" fill="rgb(0, 0, 0)" stroke="rgb(60, 60, 60)" stroke-width="1px" opacity="0.25"></line></g></g></g><g><g><line x1="0" y1="220.38149906267975" x2="290.890625" y2="220.38149906267975" fill="rgb(0, 0, 0)" stroke="rgb(153, 153, 153)" stroke-width="1.5px"></line></g></g><g><g><line x1="77.93727641879651" y1="0" x2="77.93727641879651" y2="177" fill="rgb(0, 0, 0)" stroke="rgb(153, 153, 153)" stroke-width="1.5px"></line></g></g><g><g><g><g><g><path stroke="rgb(51, 187, 238)" stroke-width="2px" d="M77.93727641879651,141.9639827873053L78.05442303010518,141.9639827873053L78.16641584496661,141.9639827873053L78.22413018454642,141.9639827873053L78.28060720394741,141.9639827873053L78.33864876869845,141.9639827873053L78.39409298365268,141.9639827873053L78.45187890373869,141.9639827873053L78.5084275036459,141.9639827873053L78.56467955574165,141.9639827873053L78.62311992617019,141.9639827873053L78.67864594741722,141.9639827873053L78.7345400969819,141.9639827873053L78.79054673019924,141.9639827873053L78.84276982237394,141.9639827873053L78.90038190408771,141.9639827873053L78.9574008901786,141.9639827873053L79.0150538750388,141.9639827873053L79.06704177412166,141.9639827873053L79.12806926856038,141.9639827873053L79.18995572907367,141.9639827873053L79.24678042521911,141.9639827873053L79.29865584064936,141.9639827873053L79.40937043218558,141.9639827873053L79.5808466477089,141.9639827873053L79.63292657887119,141.9639827873053L79.68903546995452,141.9639827873053L79.74158578730048,141.9639827873053L79.7908945302937,141.9639827873053L79.90215108851982,141.9639827873053L80.0162197380614,141.9639827873053L80.07045731019663,141.9639827873053L80.12751719943391,141.9639827873053L80.2415960747621,141.9639827873053L80.29790948157745,141.9639827873053L80.35301624557383,141.9639827873053L80.4080616548506,141.9639827873053L80.4598143608416,141.9639827873053L80.51408261033666,141.9639827873053L80.62229188415546,141.9639827873053L80.6789018387823,141.9639827873053L80.79428961479547,141.9639827873053L80.85061324739745,141.9639827873053L80.88945078491057,141.9639827873053L80.94262487523922,141.9639827873053L80.99978702234253,141.9639827873053L81.05595726814549,141.9639827873053L81.17331862097278,141.9639827873053L81.22513268168342,141.9639827873053L81.28285724704982,141.9639827873053L81.34136919798455,141.9639827873053L81.39583173742501,141.9639827873053L81.45505949342186,141.9639827873053L81.51265112356243,141.9639827873053L81.5658354396777,141.9639827873053L81.61855959539588,141.9639827873053L81.6764375475613,141.9639827873053L81.731125054307,141.9639827873053L81.8447846723845,141.9639827873053L81.89957443699622,141.9639827873053L81.9547323299256,141.9639827873053L82.01092302730176,141.9639827873053L82.11899936589475,141.9639827873053L82.17229616566263,141.9639827873053L82.22839483095937,141.9639827873053L82.2851786239584,141.9639827873053L82.3962306664525,141.9639827873053L82.45282016950611,141.9639827873053L82.5670217542735,141.9639827873053L82.62477699699971,141.9639827873053L82.67959743897124,141.9639827873053L82.73211707895737,141.9639827873053L82.78963712859174,141.9639827873053L82.84734124238494,141.9639827873053L82.95535622625833,141.9639827873053L83.01162872992728,141.9639827873053L83.06410746676703,141.9639827873053L83.11874384457971,141.9639827873053L83.23417252373932,141.9639827873053L83.29225499163678,141.9639827873053L83.40409441969918,141.9639827873053L83.46323014361661,141.9639827873053L83.51862322963783,141.9639827873053L83.57369931627441,141.9639827873053L83.62843795195312,141.9639827873053L83.68390261848056,141.9639827873053L83.73880486674487,141.9639827873053L83.79387072759484,141.9639827873053L83.90577151037687,141.9639827873053L83.9624734970831,141.9639827873053L84.01853125923344,141.9639827873053L84.07646034033186,141.9639827873053L84.18450600156505,141.9639827873053L84.2376187371741,141.9639827873053L84.29093598851517,141.9639827873053L84.34729029847695,141.9639827873053L84.40415589776882,141.9639827873053L84.45950808064362,141.9639827873053L84.51916531967774,141.9639827873053L84.57490608244342,141.9639827873053L84.63240568050458,141.9639827873053L84.74475639789705,141.9639827873053L84.80507831306028,141.9639827873053L84.86285400735969,141.9639827873053L84.91543500206546,141.9639827873053L84.97170750573443,141.9639827873053L85.0871055075342,141.9639827873053L85.14024892050307,141.9639827873053L85.30528289046732,141.9639827873053L85.36062484755554,141.9639827873053L85.47243359825814,141.9639827873053L85.53041380828958,141.9639827873053L85.64448245783115,141.9639827873053L85.7546755342507,141.9639827873053L85.81106052157229,141.9639827873053L85.86315067852117,141.9639827873053L85.91649860722204,141.9639827873053L85.96882395726277,141.9639827873053L86.02501465463891,141.9639827873053L86.13524863420486,141.9639827873053L86.19245168445457,141.9639827873053L86.24620864461951,141.9639827873053L86.30270611559372,141.9639827873053L86.41134487244982,141.9639827873053L86.46810821387565,141.9639827873053L86.52498403895412,141.9639827873053L86.63375573103602,141.9639827873053L86.688923849752,141.9639827873053L86.74961389323289,141.9639827873053L86.86017509797009,141.9639827873053L86.91150854671044,141.9639827873053L87.02280600808297,141.9639827873053L87.07830135197021,141.9639827873053L87.1883717189505,141.9639827873053L87.24609628431692,141.9639827873053L87.30281872259637,141.9639827873053L87.41640676016765,141.9639827873053L87.47145216944442,141.9639827873053L87.52990276565954,141.9639827873053L87.63324456505595,141.9639827873053L87.68444507857049,141.9639827873053L87.74300815843823,141.9639827873053L87.79840124445944,141.9639827873053L87.91472979283999,141.9639827873053L87.97165674685144,141.9639827873053L88.02868595872894,141.9639827873053L88.08762739270094,141.9639827873053L88.1438487674369,141.9639827873053L88.1992214018849,141.9639827873053L88.25905247929126,141.9639827873053L88.31276853630979,141.9639827873053L88.3699306834131,141.9639827873053L88.47751618424921,141.9639827873053L88.52837924680588,141.9639827873053L88.70397645432969,141.9639827873053L88.92451599396779,141.9639827873053L88.98074759449035,141.9639827873053L89.09028622056738,141.9639827873053L89.1419775718388,141.9639827873053L89.20017252338889,141.9639827873053L89.256312091832,141.9639827873053L89.46300591641146,-285.7679241692827L89.51930909744023,141.9639827873053L89.57597018100006,141.9639827873053L89.63351068220763,141.9639827873053L89.8015612592194,141.9639827873053L89.85418315707155,141.9639827873053L89.91174410985232,141.9639827873053L89.96540903793787,141.9639827873053L90.07600092003487,141.9639827873053L90.13269268095449,141.9639827873053L90.18894473305025,141.9639827873053L90.24730329718597,141.9639827873053L90.2997104535195,141.9639827873053L90.35556369993779,141.9639827873053L90.410956785959,141.9639827873053L90.52289847188743,141.9639827873053L90.58333287070326,141.9639827873053L90.64042343730036,141.9639827873053L90.74893948471723,141.9639827873053L90.80607095446072,141.9639827873053L90.86122884739012,141.9639827873053L90.91380984209586,141.9639827873053L90.97103334391878,141.9639827873053L91.03300161072488,141.9639827873053L91.08559283121724,141.9639827873053L91.20587875901265,141.9639827873053L91.25822456062654,141.9639827873053L91.36627022185975,141.9639827873053L91.42445494762322,141.9639827873053L91.4764632982793,141.9639827873053L91.58702450301648,141.9639827873053L91.65762333371438,141.9639827873053L91.72303769060524,141.9639827873053L91.79470000310968,141.9639827873053L91.86940960002146,141.9639827873053L91.93927217408404,141.9639827873053L91.99446074437323,141.9639827873053L92.049608411516,141.9639827873053L92.12054469317175,141.9639827873053L92.18983462318462,141.9639827873053L92.25557620524674,141.9639827873053L92.33107318772683,141.9639827873053L92.41148877356231,141.9639827873053L92.56396547757974,141.9639827873053L92.62862312626207,141.9639827873053L92.68027357438707,141.9639827873053L92.75153708121408,141.9639827873053L92.89028055382548,141.9639827873053L92.95651297364446,141.9639827873053L93.01987194742837,141.9639827873053L93.15653958535962,141.9639827873053L93.28259285679835,141.9639827873053L93.42013991237735,141.9639827873053L93.4838056597593,141.9639827873053L93.54360605980585,141.9639827873053L93.60886702989767,141.9639827873053L93.6783819272158,141.9639827873053L93.80299336274366,141.9639827873053L93.89087377279837,141.9639827873053L93.96033754118349,141.9639827873053L94.02890144034767,141.9639827873053L94.10324290894175,141.9639827873053L94.17567215544135,141.9639827873053L94.25283594113752,141.9639827873053L94.33068485453599,141.9639827873053L94.69222776562445,141.9639827873053L94.83451958618663,141.9639827873053L94.90289942119195,141.9639827873053L95.0567770579738,141.9639827873053L95.14474950010793,141.9639827873053L95.2152256213666,141.9639827873053L95.27441247421704,141.9639827873053L95.33954050908305,141.9639827873053L95.4031244501722,141.9639827873053L95.46591077990644,141.9639827873053L95.53668344897655,141.9639827873053L95.59986858438823,141.9639827873053L95.65698982834513,141.9639827873053L95.71589035917071,141.9639827873053L95.93261568040641,141.9639827873053L96.00336789790333,141.9639827873053L96.0866876071337,141.9639827873053L96.15425960499749,141.9639827873053L96.2138759408852,141.9639827873053L96.38120048704825,141.9639827873053L96.46453042206522,141.9639827873053L96.54600948970729,141.9639827873053L96.63004500399975,141.9639827873053L96.70936643066887,141.9639827873053L96.78612118490096,141.9639827873053L96.85844817353455,141.9639827873053L96.9232592090159,141.9639827873053L96.99994238274178,141.9639827873053L97.07503033375782,141.9639827873053L97.14101733469835,141.9639827873053L97.24073920563778,141.9639827873053L97.32091959838145,141.9639827873053L97.39878896335313,141.9639827873053L97.47005247018014,141.9639827873053L97.55255411648237,141.9639827873053L97.7039264355468,141.9639827873053L97.77730668020035,141.9639827873053L97.93730956315659,141.9639827873053L98.08512330848366,141.9639827873053L98.26569024829587,141.9639827873053L98.44110339166083,141.9639827873053L98.53814610651062,141.9639827873053L98.62121017107594,141.9639827873053L98.71770069344927,141.9639827873053L98.79478267285262,141.9639827873053L98.88420717668417,141.9639827873053L98.96531811600858,141.9639827873053L99.05415975000383,141.9639827873053L99.14463750985537,141.9639827873053L99.2454739915344,141.9639827873053L99.33312943428386,141.9639827873053L99.4169604328443,141.9639827873053L99.5188603963299,141.9639827873053L99.60079962436905,141.9639827873053L99.68941629105906,141.9639827873053L99.78330946363555,141.9639827873053L99.88348126918547,141.9639827873053L99.97371361015855,141.9639827873053L100.05579599921013,141.9639827873053L100.12215112846832,141.9639827873053L100.1846613619643,141.9639827873053L100.2448298903285,141.9639827873053L100.30916031383958,141.9639827873053L100.38341997614087,141.9639827873053L100.43518290791849,141.9639827873053L100.50624189901346,141.9639827873053L100.56636952423126,141.9639827873053L100.6367945165569,141.9639827873053L100.71426507585113,141.9639827873053L100.78362658637022,141.9639827873053L100.91843313113998,141.9639827873053L100.99812268612673,141.9639827873053L101.17051922244421,141.9639827873053L101.2553216707318,141.9639827873053L101.3184147740641,141.9639827873053L101.40417844629225,141.9639827873053L101.49264172618325,141.9639827873053L101.54882219777281,141.9639827873053L101.62964681507236,141.9639827873053L101.77758326983864,141.9639827873053L101.85313138125176,141.9639827873053L102.0224090526557,141.9639827873053L102.08777228061355,141.9639827873053L102.16627564435453,141.9639827873053L102.23944114748944,141.9639827873053L102.32159511704721,141.9639827873053L102.48211951512017,141.9639827873053L102.55389431127726,141.9639827873053L102.62925835853152,141.9639827873053L102.71015455633729,141.9639827873053L102.9565244329312,141.9639827873053L103.12250940104941,141.9639827873053L103.21887721398352,141.9639827873053L103.39037388108002,141.9639827873053L103.48514647130429,141.9639827873053L103.57067495044059,141.9639827873053L103.7304630918782,141.9639827873053L103.80806658639824,141.9639827873053L104.01362534866492,141.9639827873053L104.25074088838431,141.9639827873053L104.25095562990295,141.9639827873053L104.5024895287307,-285.7679241692827L104.70740406644148,141.9639827873053L104.78823890952764,141.9639827873053L104.87284706786981,141.9639827873053L105.07040926501398,141.9639827873053L105.1454767644568,141.9639827873053L105.210625250896,141.9639827873053L105.27665315498295,141.9639827873053L105.35396010169154,141.9639827873053L105.43686055367122,141.9639827873053L105.59729291966477,141.9639827873053L105.76340059722219,141.9639827873053L105.92837321246685,141.9639827873053L106.11334746630438,141.9639827873053L106.39768568855027,141.9639827873053L106.499043685346,141.9639827873053L106.66458894464033,141.9639827873053L106.74576123868434,141.9639827873053L106.84201656796581,141.9639827873053L106.9395194432127,141.9639827873053L107.05275980403952,141.9639827873053L107.24811323127773,141.9639827873053L107.3628363311618,141.9639827873053L107.45409125079507,141.9639827873053L107.56450929451985,141.9639827873053L107.66111230054578,141.9639827873053L107.71307974805545,141.9639827873053L107.80309734750989,141.9639827873053L107.89888229060769,141.9639827873053L108.00351253911592,141.9639827873053L108.11351132559003,141.9639827873053L108.21024726684178,141.9639827873053L108.32550210762915,141.9639827873053L108.53058025792554,141.9639827873053L108.61497367474908,141.9639827873053L108.73540276355689,141.9639827873053L108.83543140809437,141.9639827873053L108.92815884099828,141.9639827873053L109.03146996303491,141.9639827873053L109.13381986113095,141.9639827873053L109.25232650205764,141.9639827873053L109.37032185365426,141.9639827873053L109.49023965313198,141.9639827873053L109.59880682948184,141.9639827873053L109.68592030554143,141.9639827873053L109.79836305501334,141.9639827873053L109.91830130606428,141.9639827873053L110.02834099568481,141.9639827873053L110.15381139728721,141.9639827873053L110.28620465641897,141.9639827873053L110.40035511225337,141.9639827873053L110.52209310174618,141.9639827873053L110.74262241559768,141.9639827873053L110.85205878380872,141.9639827873053L111.29154264037507,141.9639827873053L111.50169278082589,141.9639827873053L111.61459569069486,141.9639827873053L111.72552502374971,141.9639827873053L111.83157665659559,141.9639827873053L111.94133002419126,141.9639827873053L112.03585719553705,141.9639827873053L112.25090548777005,141.9639827873053L112.35876708484442,141.9639827873053L112.47419576400402,141.9639827873053L112.82442895511105,141.9639827873053L112.94432630301556,141.9639827873053L113.1668700968276,141.9639827873053L113.4942895580263,141.9639827873053L113.61413577699781,141.9639827873053L113.73397177018273,141.9639827873053L113.8406471760113,141.9639827873053L113.96591306188168,141.9639827873053L114.08559566826756,141.9639827873053L114.19750667683618,141.9639827873053L114.31821186188225,141.9639827873053L114.4463102906413,141.9639827873053L114.55178927943749,141.9639827873053L114.66053029415957,141.9639827873053L114.90053973148726,141.9639827873053L115.01882140510871,141.9639827873053L115.12775670977625,141.9639827873053L115.25328846609828,141.9639827873053L115.38700085170164,141.9639827873053L115.53008005783214,141.9639827873053L115.64534512440612,141.9639827873053L115.90084662843532,141.9639827873053L116.02420029221122,141.9639827873053L116.14048793744533,141.9639827873053L116.25851396640175,141.9639827873053L117.01665378504919,141.9639827873053L117.25889244385601,141.9639827873053L117.3650054314215,141.9639827873053L117.49135525067167,141.9639827873053L117.59783636655482,141.9639827873053L117.70693528380797,141.9639827873053L117.84299960032972,141.9639827873053L117.97020838565444,141.9639827873053L118.10121093780836,141.9639827873053L118.2310682018629,141.9639827873053L118.35970859731187,141.9639827873053L118.50204132102043,141.9639827873053L118.62203070100436,141.9639827873053L118.73573122222828,141.9639827873053L118.85490253928408,141.9639827873053L118.96903254354527,141.9639827873053L119.0976933905674,141.9639827873053L119.23141600195737,141.9639827873053L119.49056811180337,141.9639827873053L119.6153942888499,141.9639827873053L119.73962737027355,141.9639827873053L119.98712208339363,141.9639827873053L120.13248163993629,141.9639827873053L120.27153188614574,141.9639827873053L120.41562344514979,141.9639827873053L120.55555310900696,141.9639827873053L120.68883601157306,141.9639827873053L120.82021691783126,141.9639827873053L121.13862746103392,141.9639827873053L121.29749528167737,141.9639827873053L121.425399420491,141.9639827873053L121.57866351007675,141.9639827873053L121.71878746387935,141.9639827873053L121.86206095995529,141.9639827873053L121.98406481989976,141.9639827873053L122.10415645774971,141.9639827873053L122.2551708742831,141.9639827873053L122.40309710326277,141.9639827873053L122.56516559511256,141.9639827873053L122.72629331459498,141.9639827873053L122.99072193032745,141.9639827873053L123.12889275888915,141.9639827873053L123.24826859167698,141.9639827873053L123.3810708822728,141.9639827873053L123.52400692739089,141.9639827873053L123.67129915760127,141.9639827873053L123.79169756904925,141.9639827873053L123.90959066277986,141.9639827873053L124.03596093360322,141.9639827873053L124.14811736105031,141.9639827873053L124.27949826730848,141.9639827873053L124.41614545366654,141.9639827873053L124.55928601451663,141.9639827873053L124.6935199152367,141.9639827873053L124.94280414101208,141.9639827873053L125.01395516418646,141.9639827873053L125.13347415798673,141.9639827873053L125.39531564970895,141.9639827873053L125.51889428079008,141.9639827873053L125.63823943621811,141.9639827873053L125.77982567750477,141.9639827873053L126.07277401206926,141.9639827873053L126.20538201271965,141.9639827873053L126.33623117807456,141.9639827873053L126.4613539029325,141.9639827873053L126.59098619968184,141.9639827873053L126.70686481345189,141.9639827873053L126.8530628844959,141.9639827873053L127.08863433043845,141.9639827873053L127.35697942243934,141.9639827873053L127.46828710959846,141.9639827873053L127.59534250812416,141.9639827873053L127.95622074308352,141.9639827873053L128.4949049554726,141.9639827873053L128.62868892158218,141.9639827873053L128.76213543673393,141.9639827873053L128.88267700919434,141.9639827873053L129.0125547248221,141.9639827873053L129.11494552606456,141.9639827873053L129.24369840516613,141.9639827873053L129.39494801479137,141.9639827873053L129.8232959897485,141.9639827873053L129.95348047897429,141.9639827873053L130.09213191950624,141.9639827873053L130.24727755382673,141.9639827873053L130.51108239657648,141.9639827873053L130.6514313176843,141.9639827873053L130.79684200316,141.9639827873053L131.05088121970516,141.9639827873053L131.1928969440291,141.9639827873053L131.35237831186865,141.9639827873053L131.5025542139007,141.9639827873053L131.64896702646334,141.9639827873053L131.80188343930465,141.9639827873053L131.91644292660308,141.9639827873053L132.05920513334894,141.9639827873053L132.17707777550632,141.9639827873053L132.31542244244025,141.9639827873053L132.4489507638848,141.9639827873053L132.5878476232952,141.9639827873053L132.66987888341376,141.9639827873053L132.81468624747993,141.9639827873053L132.93506420735474,141.9639827873053L133.06685414507697,141.9639827873053L133.48444459252917,141.9639827873053L133.6287815704117,141.9639827873053L133.90672867603155,141.9639827873053L134.0464640499433,141.9639827873053L134.20706002852245,141.9639827873053L134.3408337688454,141.9639827873053L134.48495600520928,141.9639827873053L134.66607513749798,141.9639827873053L134.80529922207964,141.9639827873053L134.9790864653749,141.9639827873053L135.1440284032598,141.9639827873053L135.29559501226967,141.9639827873053L135.45834863182176,141.9639827873053L135.76633909847732,141.9639827873053L135.904509927039,141.9639827873053L135.9996813229407,141.9639827873053L136.1513092866702,141.9639827873053L136.30649582413704,141.9639827873053L136.4706810538134,141.9639827873053L136.62386333710631,141.9639827873053L136.7980493860791,141.9639827873053L136.93728369644734,141.9639827873053L137.09826825491734,141.9639827873053L137.2766264248236,141.9639827873053L137.43183341386367,141.9639827873053L137.59012859045745,141.9639827873053L137.7218878508199,141.9639827873053L137.8545572061899,141.9639827873053L137.99975315014694,141.9639827873053L138.12372036111893,141.9639827873053L138.29640321946124,141.9639827873053L138.43762133243024,141.9639827873053L138.6032790753772,141.9639827873053L138.91054351118404,141.9639827873053L139.23386243195546,141.9639827873053L139.54463431256667,141.9639827873053L140.00571503043574,141.9639827873053L140.14643207986126,141.9639827873053L140.31663007205935,141.9639827873053L140.4464259813943,141.9639827873053L140.5877974811623,141.9639827873053L140.74822984715584,141.9639827873053L140.89654465602638,141.9639827873053L141.040544182951,141.9639827873053L141.19530123738062,141.9639827873053L141.3353638364636,141.9639827873053L141.5015839976737,141.9639827873053L141.65734317919024,141.9639827873053L141.80899159449294,141.9639827873053L142.32259195234818,141.9639827873053L142.47501752743258,141.9639827873053L142.63864033884582,141.9639827873053L142.94837941501024,141.9639827873053L143.09359581054048,141.9639827873053L143.23460940777747,141.9639827873053L143.36683905432358,141.9639827873053L143.5157776361768,141.9639827873053L143.66451170229806,141.9639827873053L143.82980131692736,141.9639827873053L143.96912765937503,141.9639827873053L144.13555233631712,141.9639827873053L144.48745233064022,141.9639827873053L144.6524249458849,141.9639827873053L144.8145956956007,141.9639827873053L144.97067187650188,141.9639827873053L145.11670633496027,141.9639827873053L145.4265067658443,141.9639827873053L145.59428124661784,141.9639827873053L145.7551737730084,141.9639827873053L145.92054519393054,141.9639827873053L146.1130660782801,141.9639827873053L146.29066753997782,141.9639827873053L146.49423227385714,141.9639827873053L146.68236629575458,141.9639827873053L146.861849302187,141.9639827873053L147.01044020729583,141.9639827873053L147.17457430803913,141.9639827873053L147.35461973273462,141.9639827873053L147.51785396425703,141.9639827873053L147.67727397737698,141.9639827873053L148.02734355589837,141.9639827873053L148.20861607498605,141.9639827873053L148.36738163776354,141.9639827873053L148.53013525731564,141.9639827873053L148.70609036737048,141.9639827873053L148.8819227679861,141.9639827873053L149.04071900812335,141.9639827873053L149.2216643020398,141.9639827873053L149.75956112886058,141.9639827873053L149.9267425140112,141.9639827873053L150.24633924845966,141.9639827873053L150.4333995627639,141.9639827873053L150.6112464433401,141.9639827873053L150.7760656717857,141.9639827873053L150.95321719887292,141.9639827873053L151.14182160695404,141.9639827873053L151.53663922764432,141.9639827873053L151.7145065597937,141.9639827873053L151.8928647296999,141.9639827873053L152.04832736340506,141.9639827873053L152.18963750845344,141.9639827873053L152.33741035063412,141.9639827873053L152.48427309780726,141.9639827873053L152.6308904261019,141.9639827873053L152.87694330331112,141.9639827873053L153.02993129665867,141.9639827873053L153.1824693553957,141.9639827873053L153.33092732527868,141.9639827873053L153.4878829238276,141.9639827873053L153.60945730073482,141.9639827873053L153.74830303121223,141.9639827873053L153.8924763965091,141.9639827873053L154.0540949537484,141.9639827873053L154.2080543968231,141.9639827873053L154.58629601743206,141.9639827873053L154.68480101976593,141.9639827873053L154.85268798419202,141.9639827873053L154.99705563943434,141.9639827873053L155.15852080987466,141.9639827873053L155.31116112647766,141.9639827873053L155.45715468178966,141.9639827873053L155.58971155350704,141.9639827873053L155.7257247410958,141.9639827873053L155.86060286637175,141.9639827873053L156.03063724598425,141.9639827873053L156.1813448889196,141.9639827873053L156.4995509163902,141.9639827873053L156.8859629404939,141.9639827873053L157.05302161620526,141.9639827873053L157.20175568232648,141.9639827873053L157.3553265455103,141.9639827873053L157.49504146784884,141.9639827873053L157.65120968082945,141.9639827873053L157.9442807248332,141.9639827873053L158.0728393139893,141.9639827873053L158.23637009332313,141.9639827873053L158.4002178720416,141.9639827873053L158.56505755206044,141.9639827873053L158.73685076696844,141.9639827873053L159.02821410460965,141.9639827873053L159.41455454820718,141.9639827873053L159.5793533250796,141.9639827873053L159.8312451264384,141.9639827873053L160.19860651010325,-285.7679241692827L160.3414505231419,141.9639827873053L160.8329222787911,141.9639827873053L161.01681259924885,141.9639827873053L161.18766504178947,141.9639827873053L161.36607434062873,141.9639827873053L161.55363571847644,141.9639827873053L161.75920470652972,141.9639827873053L161.93727655441108,141.9639827873053L162.17152887388207,141.9639827873053L162.3801962752756,141.9639827873053L162.54502572950784,141.9639827873053L162.74083931714313,141.9639827873053L162.92019961413632,141.9639827873053L163.11430549540916,141.9639827873053L163.4666042954097,141.9639827873053L163.64507494896856,141.9639827873053L163.97679946632655,141.9639827873053L164.1250631462641,141.9639827873053L164.26234433139143,141.9639827873053L164.41663099963742,141.9639827873053L164.75848927151765,141.9639827873053L164.93732805339417,141.9639827873053L165.12206711413987,141.9639827873053L165.2895245955287,141.9639827873053L165.66508706004805,141.9639827873053L166.0252290383721,141.9639827873053L166.32288123477338,141.9639827873053L166.45501884924005,141.9639827873053L166.63066718569686,141.9639827873053L166.79641696072323,141.9639827873053L166.9777303829574,141.9639827873053L167.63982961384195,141.9639827873053L167.80270594283328,141.9639827873053L167.9568289984936,141.9639827873053L168.11987916585713,141.9639827873053L168.28436094334492,141.9639827873053L168.6111259542011,141.9639827873053L168.78084333442897,141.9639827873053L168.93147939685807,141.9639827873053L169.09478520888666,141.9639827873053L169.24632114053674,141.9639827873053L169.38591335343605,141.9639827873053L169.55652037709822,141.9639827873053L169.67304321542417,141.9639827873053L169.85437708923152,141.9639827873053L170.0206483793746,141.9639827873053L170.34522507189806,141.9639827873053L170.51656835219552,141.9639827873053L170.69310633208667,141.9639827873053L170.85513392079005,141.9639827873053L171.0193396020396,141.9639827873053L171.1928814264564,141.9639827873053L171.36581992946378,141.9639827873053L171.57845493605882,141.9639827873053L171.79805370332957,141.9639827873053L172.02402313565318,141.9639827873053L172.2311157659101,141.9639827873053L172.43598940047448,141.9639827873053L172.61031861045967,141.9639827873053L172.82542825741226,141.9639827873053L173.03023031147038,141.9639827873053L173.22557351292198,141.9639827873053L173.4165809808545,141.9639827873053L173.80454732452165,141.9639827873053L174.0085210898651,141.9639827873053L174.18655203460008,141.9639827873053L174.36219014527026,141.9639827873053L174.54937316901373,141.9639827873053L174.75851095659098,141.9639827873053L174.95428364107985,141.9639827873053L175.10959288798594,141.9639827873053L175.29668387965003,141.9639827873053L175.48141271460906,141.9639827873053L175.6478271657646,141.9639827873053L175.8373416688532,141.9639827873053L176.18402651200947,141.9639827873053L176.36091216864506,141.9639827873053L176.5607240388416,141.9639827873053L176.72725097364975,141.9639827873053L177.13988191460012,141.9639827873053L177.31210461254534,141.9639827873053L177.53873872099805,141.9639827873053L177.74959444072437,141.9639827873053L177.93357679326152,141.9639827873053L178.16327863769473,141.9639827873053L178.55471152301985,141.9639827873053L178.77946408673785,141.9639827873053L179.19221773712746,141.9639827873053L179.3915285437805,141.9639827873053L179.6002675256803,141.9639827873053L179.83487774768227,141.9639827873053L180.01536288120167,141.9639827873053L180.19695239967402,141.9639827873053L180.54471095042348,141.9639827873053L180.8756889853596,141.9639827873053L181.4359189301184,141.9639827873053L181.63015774661696,141.9639827873053L181.83644253973236,141.9639827873053L182.0417354315474,141.9639827873053L182.43562250565697,141.9639827873053L182.64644754802345,141.9639827873053L182.85649543060825,141.9639827873053L183.28067128463192,141.9639827873053L183.48522791981165,141.9639827873053L183.7142037333961,141.9639827873053L183.96063496470964,141.9639827873053L184.40411710383725,141.9639827873053L184.58090050260682,141.9639827873053L184.7929117362191,141.9639827873053L185.00740783597567,141.9639827873053L185.22769173094872,141.9639827873053L185.44936633289961,141.9639827873053L185.66000731110728,141.9639827873053L185.86322436824221,141.9639827873053L186.10332583764927,141.9639827873053L186.31348620388673,141.9639827873053L186.52395334372218,141.9639827873053L186.7221086364892,141.9639827873053L187.15881107909993,141.9639827873053L187.57352808051706,141.9639827873053L187.78957849983706,141.9639827873053L188.20284343955672,141.9639827873053L188.44886563940614,141.9639827873053L188.6695585658433,141.9639827873053L188.89542574030088,141.9639827873053L189.11198744895097,141.9639827873053L189.30939625929608,141.9639827873053L189.5456017040079,141.9639827873053L189.7469678937679,141.9639827873053L189.98495262534848,141.9639827873053L190.21134131492272,141.9639827873053L190.40089672115778,141.9639827873053L190.63463775129867,141.9639827873053L191.02753292410785,141.9639827873053L191.21960387384686,141.9639827873053L191.4293143054738,141.9639827873053L191.64668385126544,141.9639827873053L191.8866319338735,141.9639827873053L192.14748152429533,141.9639827873053L192.6267334649556,141.9639827873053L193.09222149684996,141.9639827873053L193.31574696617577,141.9639827873053L193.74426877950512,141.9639827873053L193.95933752331135,141.9639827873053L194.4140475761276,141.9639827873053L194.6087874561697,141.9639827873053L194.84512583610734,141.9639827873053L195.0313783132701,141.9639827873053L195.52938434655778,141.9639827873053L195.7175592716016,141.9639827873053L195.96787630182376,141.9639827873053L196.37403431985533,141.9639827873053L196.58587171509535,141.9639827873053L196.80528641820732,141.9639827873053L197.04847607516814,141.9639827873053L197.4316056217727,141.9639827873053L197.63185720079312,141.9639827873053L197.97756036843558,141.9639827873053L198.41631819415323,141.9639827873053L198.63711337845638,141.9639827873053L198.87350288732702,141.9639827873053L199.11089452328468,141.9639827873053L199.3148478370549,141.9639827873053L199.51861708666627,141.9639827873053L199.7282252604272,141.9639827873053L199.90653230140046,141.9639827873053L200.52439477944623,141.9639827873053L200.73440175888464,141.9639827873053L200.90271820634803,141.9639827873053L201.1058227798303,141.9639827873053L201.30288391343097,141.9639827873053L201.51316698910762,141.9639827873053L201.7513153332738,141.9639827873053L201.97492260889237,141.9639827873053L202.19574847055534,141.9639827873053L202.42355854446723,141.9639827873053L202.9353693896672,141.9639827873053L203.17397789423046,141.9639827873053L203.43334474559504,141.9639827873053L203.69160721200672,141.9639827873053L204.39843403348698,141.9639827873053L204.61948486245518,141.9639827873053L204.8377747290409,141.9639827873053L205.11387096728586,141.9639827873053L205.37303330291843,141.9639827873053L205.87825874154692,141.9639827873053L206.0039132073082,141.9639827873053L206.232674279374,141.9639827873053L206.47607867785345,141.9639827873053L206.75998741706206,141.9639827873053L208.01075450524476,141.9639827873053L208.24121305788643,141.9639827873053L208.49686794871465,141.9639827873053L208.74189824726375,141.9639827873053L208.96289794729896,141.9639827873053L209.22851275427718,141.9639827873053L209.4883704433987,141.9639827873053L209.7098916585506,141.9639827873053L209.94565739443854,141.9639827873053L210.21350142289594,141.9639827873053L210.4404423049467,141.9639827873053L210.70882830009398,141.9639827873053L210.94274316860708,141.9639827873053L211.31684334564238,141.9639827873053L211.58939123593657,141.9639827873053L211.79023591057987,141.9639827873053L212.01721769577705,141.9639827873053L212.22489319587024,141.9639827873053L212.46364486144594,141.9639827873053L212.7164774351721,141.9639827873053L212.96293934384542,141.9639827873053L213.2542106494072,141.9639827873053L213.48152988556225,141.9639827873053L213.74521201887276,141.9639827873053L214.23426026309738,141.9639827873053L214.687753447308,141.9639827873053L214.94779520058836,141.9639827873053L215.24550875170925,141.9639827873053L215.54204633737092,141.9639827873053L215.77675881723894,141.9639827873053L216.29825348235065,141.9639827873053L216.87048850057982,141.9639827873053L217.18905243058148,141.9639827873053L217.457663393034,141.9639827873053L217.74774850735008,141.9639827873053L218.31270276551882,141.9639827873053L218.56051447802358,141.9639827873053L218.80523800297462,141.9639827873053L219.0313199189508,141.9639827873053L219.27529696147994,141.9639827873053L219.98583574349666,141.9639827873053L220.2188814201486,141.9639827873053L220.9866539297748,141.9639827873053L221.21028165696663,141.9639827873053L221.4921350130683,141.9639827873053L222.3220087247264,141.9639827873053L222.56244764509134,141.9639827873053L223.13377256831296,141.9639827873053L223.40828380963467,141.9639827873053L223.62944712225547,141.9639827873053L223.97541616034957,141.9639827873053L224.30072910950838,141.9639827873053L224.6278008939626,141.9639827873053L224.91814165294372,141.9639827873053L225.22570263656198,141.9639827873053L225.58968951064824,141.9639827873053L225.76966335483752,141.9639827873053L226.38279129368678,141.9639827873053L226.66612738884567,141.9639827873053L226.9320285178488,141.9639827873053L227.41837715441056,141.9639827873053L227.69908522241283,141.9639827873053L227.97277840080645,141.9639827873053L228.2822107033728,141.9639827873053L228.61116403256182,141.9639827873053L228.93755068931372,141.9639827873053L229.25773029359846,141.9639827873053L229.5270570611131,141.9639827873053L229.98246246741826,141.9639827873053L230.26446921031894,141.9639827873053L230.55312271451072,141.9639827873053L231.19931062144315,141.9639827873053L231.48862880176404,141.9639827873053L231.77245573467988,141.9639827873053L232.0466397508303,141.9639827873053L232.4337675799961,141.9639827873053L232.72039637844082,141.9639827873053L233.03917504996113,141.9639827873053L233.25582879069054,141.9639827873053L233.54131230103587,141.9639827873053L233.81348183722577,141.9639827873053L234.1729898167805,141.9639827873053L234.61121590159487,141.9639827873053L234.9203516563498,141.9639827873053L235.20299239801977,141.9639827873053L235.80635471066446,141.9639827873053L236.17977998578408,141.9639827873053L236.507271027489,141.9639827873053L236.82344212342582,141.9639827873053L237.1554222854489,141.9639827873053L237.49686130007848,141.9639827873053L237.8039109943667,141.9639827873053L238.91266235822536,141.9639827873053L239.55117069941997,141.9639827873053L239.94792099377796,141.9639827873053L240.56467908687077,141.9639827873053L240.87393755106493,141.9639827873053L241.24259760962812,141.9639827873053L241.5505062699909,141.9639827873053L241.86428453186295,141.9639827873053L242.44572275803358,141.9639827873053L242.7288236601007,141.9639827873053L243.00523689773033,141.9639827873053L243.36512323138936,141.9639827873053L243.67965820146995,141.9639827873053L244.07119334466105,141.9639827873053L244.34852690308486,141.9639827873053L244.61713786553742,141.9639827873053L244.98415157245773,141.9639827873053L245.33609246992725,141.9639827873053L245.5113726780664,141.9639827873053L245.85601236390227,141.9639827873053L246.18746078502204,141.9639827873053L246.65555639249985,141.9639827873053L246.95328016940735,141.9639827873053L247.1889640990025,141.9639827873053L249.97174831005995,141.9639827873053L250.27029014989554,141.9639827873053L250.5535239871885,141.9639827873053L250.8546734026075,141.9639827873053L251.56553940979546,141.9639827873053L252.2331401138718,141.9639827873053L252.70189017169213,141.9639827873053L253.62305970612982,141.9639827873053L254.36272152838808,141.9639827873053L254.9887646357152,141.9639827873053L255.19616403957022,141.9639827873053L255.7418733673546,141.9639827873053L256.3014181844111,141.9639827873053L259.35494032153434,141.9639827873053L260.04736923547944,141.9639827873053L260.66701100039387,141.9639827873053L260.955991729757,141.9639827873053L261.52175382506726,141.9639827873053L262.0669518635217,141.9639827873053L262.44066346066603,141.9639827873053L262.82963193142024,141.9639827873053L263.38822575032276,141.9639827873053L263.9124711520304,141.9639827873053L264.5876184866186,141.9639827873053L264.8287323088993,141.9639827873053L265.1515297145541,141.9639827873053L265.4334546511619,141.9639827873053L265.43380232790645,141.9639827873053L265.9501329707843,-285.7679241692827L266.2626330093311,141.9639827873053" style="fill: none;" fill="none"></path></g></g></g></g></g></g><g transform="translate(39, 177)" clip-path="url(#clip_1)"><clipPath id="clip_1"><rect width="290" height="23"></rect></clipPath><g><g><line x1="4.311612886809205" y1="0" x2="4.311612886809205" y2="5" style="visibility: inherit;" fill="rgb(0, 0, 0)" stroke="rgb(204, 204, 204)" stroke-width="1px"></line><line x1="41.12444465280286" y1="0" x2="41.12444465280286" y2="5" style="visibility: inherit;" fill="rgb(0, 0, 0)" stroke="rgb(204, 204, 204)" stroke-width="1px"></line><line x1="77.93727641879651" y1="0" x2="77.93727641879651" y2="5" style="visibility: inherit;" fill="rgb(0, 0, 0)" stroke="rgb(204, 204, 204)" stroke-width="1px"></line><line x1="114.75010818479016" y1="0" x2="114.75010818479016" y2="5" style="visibility: inherit;" fill="rgb(0, 0, 0)" stroke="rgb(204, 204, 204)" stroke-width="1px"></line><line x1="151.56293995078383" y1="0" x2="151.56293995078383" y2="5" style="visibility: inherit;" fill="rgb(0, 0, 0)" stroke="rgb(204, 204, 204)" stroke-width="1px"></line><line x1="188.37577171677748" y1="0" x2="188.37577171677748" y2="5" style="visibility: inherit;" fill="rgb(0, 0, 0)" stroke="rgb(204, 204, 204)" stroke-width="1px"></line><line x1="225.18860348277116" y1="0" x2="225.18860348277116" y2="5" style="visibility: inherit;" fill="rgb(0, 0, 0)" stroke="rgb(204, 204, 204)" stroke-width="1px"></line><line x1="262.0014352487648" y1="0" x2="262.0014352487648" y2="5" style="visibility: inherit;" fill="rgb(0, 0, 0)" stroke="rgb(204, 204, 204)" stroke-width="1px"></line></g><g transform="translate(0, 8)"><text x="4.311612886809205" y="0" dx="0em" dy="0.95em" style="text-anchor: middle; visibility: hidden; font-family: &quot;Helvetica Neue&quot;, sans-serif; font-size: 12px; font-weight: 200;" fill="rgb(50, 49, 63)" stroke="none" stroke-width="1px">-2</text><text x="41.12444465280286" y="0" dx="0em" dy="0.95em" style="text-anchor: middle; visibility: inherit; font-family: &quot;Helvetica Neue&quot;, sans-serif; font-size: 12px; font-weight: 200;" fill="rgb(50, 49, 63)" stroke="none" stroke-width="1px">-1</text><text x="77.93727641879651" y="0" dx="0em" dy="0.95em" style="text-anchor: middle; visibility: inherit; font-family: &quot;Helvetica Neue&quot;, sans-serif; font-size: 12px; font-weight: 200;" fill="rgb(50, 49, 63)" stroke="none" stroke-width="1px">0</text><text x="114.75010818479016" y="0" dx="0em" dy="0.95em" style="text-anchor: middle; visibility: inherit; font-family: &quot;Helvetica Neue&quot;, sans-serif; font-size: 12px; font-weight: 200;" fill="rgb(50, 49, 63)" stroke="none" stroke-width="1px">1</text><text x="151.56293995078383" y="0" dx="0em" dy="0.95em" style="text-anchor: middle; visibility: inherit; font-family: &quot;Helvetica Neue&quot;, sans-serif; font-size: 12px; font-weight: 200;" fill="rgb(50, 49, 63)" stroke="none" stroke-width="1px">2</text><text x="188.37577171677748" y="0" dx="0em" dy="0.95em" style="text-anchor: middle; visibility: inherit; font-family: &quot;Helvetica Neue&quot;, sans-serif; font-size: 12px; font-weight: 200;" fill="rgb(50, 49, 63)" stroke="none" stroke-width="1px">3</text><text x="225.18860348277116" y="0" dx="0em" dy="0.95em" style="text-anchor: middle; visibility: inherit; font-family: &quot;Helvetica Neue&quot;, sans-serif; font-size: 12px; font-weight: 200;" fill="rgb(50, 49, 63)" stroke="none" stroke-width="1px">4</text><text x="262.0014352487648" y="0" dx="0em" dy="0.95em" style="text-anchor: middle; visibility: inherit; font-family: &quot;Helvetica Neue&quot;, sans-serif; font-size: 12px; font-weight: 200;" fill="rgb(50, 49, 63)" stroke="none" stroke-width="1px">5</text></g><line x1="0" y1="0" x2="290.890625" y2="0" fill="rgb(0, 0, 0)" stroke="rgb(204, 204, 204)" stroke-width="1px"></line></g></g></g></g></svg>