<svg viewBox="0 0 330 200" xmlns="http://www.w3.org/2000/svg"><g><g><g><g><g><line x1="39.109375" y1="177" x2="34.109375" y2="177" style="visibility: inherit;" fill="rgb(0, 0, 0)" stroke="rgb(204, 204, 204)" stroke-width="1px"></line><line x1="39.109375" y1="157.33333333333334" x2="34.109375" y2="157.33333333333334" style="visibility: inherit;" fill="rgb(0, 0, 0)" stroke="rgb(204, 204, 204)" stroke-width="1px"></line><line x1="39.109375" y1="137.66666666666669" x2="34.109375" y2="137.66666666666669" style="visibility: inherit;" fill="rgb(0, 0, 0)" stroke="rgb(204, 204, 204)" stroke-width="1px"></line><line x1="39.109375" y1="118" x2="34.109375" y2="118" style="visibility: inherit;" fill="rgb(0, 0, 0)" stroke="rgb(204, 204, 204)" stroke-width="1px"></line><line x1="39.109375" y1="98.33333333333334" x2="34.109375" y2="98.33333333333334" style="visibility: inherit;" fill="rgb(0, 0, 0)" stroke="rgb(204, 204, 204)" stroke-width="1px"></line><line x1="39.109375" y1="78.66666666666666" x2="34.109375" y2="78.66666666666666" style="visibility: inherit;" fill="rgb(0, 0, 0)" stroke="rgb(204, 204, 204)" stroke-width="1px"></line><line x1="39.109375" y1="59" x2="34.109375" y2="59" style="visibility: inherit;" fill="rgb(0, 0, 0)" stroke="rgb(204, 204, 204)" stroke-width="1px"></line><line x1="39.109375" y1="39.33333333333334" x2="34.109375" y2="39.33333333333334" style="visibility: inherit;" fill="rgb(0, 0, 0)" stroke="rgb(204, 204, 204)" stroke-width="1px"></line><line x1="39.109375" y1="19.666666666666686" x2="34.109375" y2="19.666666666666686" style="visibility: inherit;" fill="rgb(0, 0, 0)" stroke="rgb(204, 204, 204)" stroke-width="1px"></line><line x1="39.109375" y1="0" x2="34.109375" y2="0" style="visibility: inherit;" fill="rgb(0, 0, 0)" stroke="rgb(204, 204, 204)" stroke-width="1px"></line></g><g transform="translate(29.109375, 0)"><text x="0" y="177" dx="0em" dy="0.3em" style="text-anchor: end; visibility: hidden; font-family: &quot;Helvetica Neue&quot;, sans-serif; font-size: 12px; font-weight: 200;" fill="rgb(50, 49, 63)" stroke="none" stroke-width="1px">127</text><text x="0" y="157.33333333333334" dx="0em" dy="0.3em" style="text-anchor: end; visibility: inherit; font-family: &quot;Helvetica Neue&quot;, sans-serif; font-size: 12px; font-weight: 200;" fill="rgb(50, 49, 63)" stroke="none" stroke-width="1px">128</text><text x="0" y="137.66666666666669" dx="0em" dy="0.3em" style="text-anchor: end; visibility: hidden; font-family: &quot;Helvetica Neue&quot;, sans-serif; font-size: 12px; font-weight: 200;" fill="rgb(50, 49, 63)" stroke="none" stroke-width="1px">128</text><text x="0" y="118" dx="0em" dy="0.3em" style="text-anchor: end; visibility: inherit; font-family: &quot;Helvetica Neue&quot;, sans-serif; font-size: 12px; font-weight: 200;" fill="rgb(50, 49, 63)" stroke="none" stroke-width="1px">129</text><text x="0" y="98.33333333333334" dx="0em" dy="0.3em" style="text-anchor: end; visibility: hidden; font-family: &quot;Helvetica Neue&quot;, sans-serif; font-size: 12px; font-weight: 200;" fill="rgb(50, 49, 63)" stroke="none" stroke-width="1px">129</text><text x="0" y="78.66666666666666" dx="0em" dy="0.3em" style="text-anchor: end; visibility: inherit; font-family: &quot;Helvetica Neue&quot;, sans-serif; font-size: 12px; font-weight: 200;" fill="rgb(50, 49, 63)" stroke="none" stroke-width="1px">130</text><text x="0" y="59" dx="0em" dy="0.3em" style="text-anchor: end; visibility: hidden; font-family: &quot;Helvetica Neue&quot;, sans-serif; font-size: 12px; font-weight: 200;" fill="rgb(50, 49, 63)" stroke="none" stroke-width="1px">130</text><text x="0" y="39.33333333333334" dx="0em" dy="0.3em" style="text-anchor: end; visibility: inherit; font-family: &quot;Helvetica Neue&quot;, sans-serif; font-size: 12px; font-weight: 200;" fill="rgb(50, 49, 63)" stroke="none" stroke-width="1px">131</text><text x="0" y="19.666666666666686" dx="0em" dy="0.3em" style="text-anchor: end; visibility: hidden; font-family: &quot;Helvetica Neue&quot;, sans-serif; font-size: 12px; font-weight: 200;" fill="rgb(50, 49, 63)" stroke="none" stroke-width="1px">131</text><text x="0" y="0" dx="0em" dy="0.3em" style="text-anchor: end; visibility: hidden; font-family: &quot;Helvetica Neue&quot;, sans-serif; font-size: 12px; font-weight: 200;" fill="rgb(50, 49, 63)" stroke="none" stroke-width="1px">132</text></g><line x1="39.109375" y1="0" x2="39.109375" y2="177" fill="rgb(0, 0, 0)" stroke="rgb(204, 204, 204)" stroke-width="1px"></line></g></g><g transform="translate(39, 0)" clip-path="url(#clip_0)"><clipPath id="clip_0"><rect width="290" height="177"></rect></clipPath><g><g><g><line x1="0" y1="0" x2="0" y2="177" fill="rgb(0, 0, 0)" stroke="rgb(60, 60, 60)" stroke-width="1px" opacity="0.25"></line><line x1="32.32118055555556" y1="0" x2="32.32118055555556" y2="177" fill="rgb(0, 0, 0)" stroke="rgb(60, 60, 60)" stroke-width="1px" opacity="0.25"></line><line x1="64.64236111111111" y1="0" x2="64.64236111111111" y2="177" fill="rgb(0, 0, 0)" stroke="rgb(60, 60, 60)" stroke-width="1px" opacity="0.25"></line><line x1="96.96354166666666" y1="0" x2="96.96354166666666" y2="177" fill="rgb(0, 0, 0)" stroke="rgb(60, 60, 60)" stroke-width="1px" opacity="0.25"></line><line x1="129.28472222222223" y1="0" x2="129.28472222222223" y2="177" fill="rgb(0, 0, 0)" stroke="rgb(60, 60, 60)" stroke-width="1px" opacity="0.25"></line><line x1="161.60590277777777" y1="0" x2="161.60590277777777" y2="177" fill="rgb(0, 0, 0)" stroke="rgb(60, 60, 60)" stroke-width="1px" opacity="0.25"></line><line x1="193.92708333333331" y1="0" x2="193.92708333333331" y2="177" fill="rgb(0, 0, 0)" stroke="rgb(60, 60, 60)" stroke-width="1px" opacity="0.25"></line><line x1="226.24826388888889" y1="0" x2="226.24826388888889" y2="177" fill="rgb(0, 0, 0)" stroke="rgb(60, 60, 60)" stroke-width="1px" opacity="0.25"></line><line x1="258.56944444444446" y1="0" x2="258.56944444444446" y2="177" fill="rgb(0, 0, 0)" stroke="rgb(60, 60, 60)" stroke-width="1px" opacity="0.25"></line><line x1="290.890625" y1="0" x2="290.890625" y2="177" fill="rgb(0, 0, 0)" stroke="rgb(60, 60, 60)" stroke-width="1px" opacity="0.25"></line></g><g><line x1="0" y1="177" x2="290.890625" y2="177" fill="rgb(0, 0, 0)" stroke="rgb(60, 60, 60)" stroke-width="1px" opacity="0.25"></line><line x1="0" y1="157.33333333333334" x2="290.890625" y2="157.33333333333334" fill="rgb(0, 0, 0)" stroke="rgb(60, 60, 60)" stroke-width="1px" opacity="0.25"></line><line x1="0" y1="137.66666666666669" x2="290.890625" y2="137.66666666666669" fill="rgb(0, 0, 0)" stroke="rgb(60, 60, 60)" stroke-width="1px" opacity="0.25"></line><line x1="0" y1="118" x2="290.890625" y2="118" fill="rgb(0, 0, 0)" stroke="rgb(60, 60, 60)" stroke-width="1px" opacity="0.25"></line><line x1="0" y1="98.33333333333334" x2="290.890625" y2="98.33333333333334" fill="rgb(0, 0, 0)" stroke="rgb(60, 60, 60)" stroke-width="1px" opacity="0.25"></line><line x1="0" y1="78.66666666666666" x2="290.890625" y2="78.66666666666666" fill="rgb(0, 0, 0)" stroke="rgb(60, 60, 60)" stroke-width="1px" opacity="0.25"></line><line x1="0" y1="59" x2="290.890625" y2="59" fill="rgb(0, 0, 0)" stroke="rgb(60, 60, 60)" stroke-width="1px" opacity="0.25"></line><line x1="0" y1="39.33333333333334" x2="290.890625" y2="39.33333333333334" fill="rgb(0, 0, 0)" stroke="rgb(60, 60, 60)" stroke-width="1px" opacity="0.25"></line><line x1="0" y1="19.666666666666686" x2="290.890625" y2="19.666666666666686" fill="rgb(0, 0, 0)" stroke="rgb(60, 60, 60)" stroke-width="1px" opacity="0.25"></line><line x1="0" y1="0" x2="290.890625" y2="0" fill="rgb(0, 0, 0)" stroke="rgb(60, 60, 60)" stroke-width="1px" opacity="0.25"></line></g></g></g><g><g><line x1="0" y1="5172.333333333333" x2="290.890625" y2="5172.333333333333" fill="rgb(0, 0, 0)" stroke="rgb(153, 153, 153)" stroke-width="1.5px"></line></g></g><g><g><line x1="32.32118055555556" y1="0" x2="32.32118055555556" y2="177" fill="rgb(0, 0, 0)" stroke="rgb(153, 153, 153)" stroke-width="1.5px"></line></g></g><g><g><g><g><g><path stroke="rgb(255, 112, 67)" stroke-width="2px" d="M32.32118055555556,137.66666666666669L32.59082898244599,137.66666666666669L33.1564316859568,137.66666666666669L33.36823417775849,137.66666666666669L33.574380462962964,137.66666666666669L33.777267695794755,137.66666666666669L33.999646396122685,137.66666666666669L34.202569541377315,137.66666666666669L34.39671209924769,137.66666666666669L34.59968911313658,137.66666666666669L34.807487369791666,137.66666666666669L35.01208942081404,137.66666666666669L35.21806512201003,137.66666666666669L35.417944689429014,137.66666666666669L35.607625128761576,137.66666666666669L35.801282868923614,137.66666666666669L36.002563020833335,137.66666666666669L36.19869871817129,137.66666666666669L36.399862154706796,137.66666666666669L36.598071794463735,137.66666666666669L36.78894632185571,137.66666666666669L36.97809705295139,137.66666666666669L37.158521065297066,137.66666666666669L37.375405164930555,137.66666666666669L37.576730207368826,137.66666666666669L37.775702986111106,137.66666666666669L37.974783502121916,137.66666666666669L38.347904597318674,137.66666666666669L38.54188554928627,137.66666666666669L38.73313715711805,137.66666666666669L38.930727307581016,137.66666666666669L39.13918096595293,137.66666666666669L39.333503085937494,137.66666666666669L39.72317980806327,137.66666666666669L39.921075214120364,137.66666666666669L40.10952565297068,137.66666666666669L40.296144558256174,137.66666666666669L40.506797852527,137.66666666666669L40.891716178626545,137.66666666666669L41.10489232060185,137.66666666666669L41.302401668113426,137.66666666666669L41.500386855227624,137.66666666666669L41.68992364486883,137.66666666666669L41.881803720100315,137.66666666666669L42.25457466917439,137.66666666666669L42.452631681134264,137.66666666666669L42.8286527044753,137.66666666666669L43.02574905912422,137.66666666666669L43.2248026408179,137.66666666666669L43.41250789689429,137.66666666666669L43.62607009741513,137.66666666666669L43.82113740017361,137.66666666666669L44.209467406442904,137.66666666666669L44.39453309944058,137.66666666666669L44.59014806664737,137.66666666666669L44.799957418981485,137.66666666666669L45.00834823061343,137.66666666666669L45.08994125530479,-98.33333333333331L45.29065578655478,137.66666666666669L45.492851705246906,137.66666666666669L45.68931959249614,137.66666666666669L45.8623636019483,137.66666666666669L46.090165078125004,-98.33333333333331L46.48619829909336,137.66666666666669L46.678491367187505,137.66666666666669L46.87934057002315,137.66666666666669L47.085980651041666,137.66666666666669L47.281056931905866,137.66666666666669L47.464704084201394,137.66666666666669L47.657517882426696,137.66666666666669L47.84286189670139,137.66666666666669L48.0356756949267,137.66666666666669L48.44768096595293,137.66666666666669L48.64758746768904,137.66666666666669L49.03691404369213,137.66666666666669L49.24522405237268,137.66666666666669L49.440165661651235,137.66666666666669L49.632081649305555,137.66666666666669L49.834017202932095,137.66666666666669L50.04433830729166,137.66666666666669L50.24877875241127,137.66666666666669L50.445237661554785,137.66666666666669L50.64046657021605,137.66666666666669L50.82649292052469,137.66666666666669L51.0287606640625,137.66666666666669L51.219276067226076,137.66666666666669L51.42224410300926,137.66666666666669L51.620794910783175,137.66666666666669L52.027350471643516,137.66666666666669L52.21963456163195,137.66666666666669L52.40018426745756,137.66666666666669L52.59952514853395,137.66666666666669L52.7885591642554,137.66666666666669L52.99481318672839,137.66666666666669L53.1914426798804,137.66666666666669L53.388449253472224,137.66666666666669L53.578210495756174,137.66666666666669L53.77005465856481,137.66666666666669L53.95304640914351,137.66666666666669L54.16375357204861,137.66666666666669L54.35214116415895,137.66666666666669L54.549874964313275,137.66666666666669L54.73714927131558,137.66666666666669L54.94510015576775,137.66666666666669L55.14493483265818,137.66666666666669L55.33407658564815,137.66666666666669L55.53321994839892,137.66666666666669L55.717118487654325,137.66666666666669L55.91539995225695,137.66666666666669L56.108016232156636,137.66666666666669L56.3015213445216,137.66666666666669L56.501059743923605,137.66666666666669L56.708920847318666,137.66666666666669L56.89928362268518,137.66666666666669L57.109326405767746,137.66666666666669L57.30292129918981,137.66666666666669L57.496327652391976,137.66666666666669L57.88860802517362,137.66666666666669L58.08938540316358,137.66666666666669L58.27950576967592,137.66666666666669L58.66823979070216,137.66666666666669L58.860667530381946,137.66666666666669L59.255901699942136,-98.33333333333331L59.43594863184799,137.66666666666669L59.824476156442906,137.66666666666669L60.033208136091815,137.66666666666669L60.2238133203125,137.66666666666669L60.4039769675926,137.66666666666669L60.60206989197531,137.66666666666669L60.7865968986304,137.66666666666669L60.99092062837577,137.66666666666669L61.18825939187886,137.66666666666669L61.58370005787037,137.66666666666669L61.77855188609182,137.66666666666669L61.96845677806713,137.66666666666669L62.175114815297064,137.66666666666669L62.55905452787423,137.66666666666669L62.76271387779706,137.66666666666669L62.950544827353404,137.66666666666669L63.1349102281057,137.66666666666669L63.32593738329475,137.66666666666669L63.51596796875,137.66666666666669L63.714366148726846,137.66666666666669L64.11624411651235,137.66666666666669L64.31339433979554,137.66666666666669L64.68141587094908,137.66666666666669L64.86726265914352,137.66666666666669L65.26518128231095,137.66666666666669L65.47327581645447,137.66666666666669L65.66686173177084,137.66666666666669L66.04848509307485,137.66666666666669L66.24230443913966,137.66666666666669L66.44046021026234,137.66666666666669L66.8142187509645,137.66666666666669L67.00300137972609,137.66666666666669L67.19820335407022,137.66666666666669L67.40309270447531,137.66666666666669L67.74494305748456,-9931.666666666668L67.93710145399305,137.66666666666669L68.1359395611497,137.66666666666669L68.32890598717206,137.66666666666669L68.53922709153164,137.66666666666669L68.74601082224152,137.66666666666669L68.9447052797068,137.66666666666669L69.13715995370369,137.66666666666669L69.3350553597608,137.66666666666669L69.53009572820214,137.66666666666669L69.72183215374228,137.66666666666669L69.9202842023534,137.66666666666669L70.50782939621914,137.66666666666669L71.31067854311343,137.66666666666669L71.49987416473765,137.66666666666669L71.70264468219521,137.66666666666669L71.89600614486884,137.66666666666669L72.08707819058642,137.66666666666669L72.30727521122685,-98.33333333333331L72.69609901331017,137.66666666666669L72.88399280960648,137.66666666666669L73.06553010706018,137.66666666666669L73.26503259403935,137.66666666666669L73.45143602478781,137.66666666666669L74.05415421730322,137.66666666666669L74.26039028356482,137.66666666666669L74.46244255256559,137.66666666666669L74.66035591483411,137.66666666666669L74.84872555073302,137.66666666666669L75.02938299382716,137.66666666666669L75.24101490162039,137.66666666666669L75.42689760223764,137.66666666666669L75.61068840422453,137.66666666666669L75.81131315441743,137.66666666666669L76.0060752015818,137.66666666666669L76.20682564525463,137.66666666666669L76.59958185763891,137.66666666666669L76.79396682436344,137.66666666666669L77.004009607446,137.66666666666669L77.38779669222608,137.66666666666669L77.60143071759258,137.66666666666669L77.81164408468365,137.66666666666669L77.99309160108024,137.66666666666669L78.1913820437886,137.66666666666669L78.38654810570988,137.66666666666669L78.57187416377315,137.66666666666669L78.97919286361883,137.66666666666669L79.16700585696374,137.66666666666669L79.56266199749228,137.66666666666669L79.76191309751157,137.66666666666669L79.94088265673224,137.66666666666669L80.12215958912037,137.66666666666669L80.31122053915895,137.66666666666669L80.51615478009259,137.66666666666669L80.70808872395833,137.66666666666669L80.91062581066744,137.66666666666669L81.11555107349537,137.66666666666669L81.31805224778164,137.66666666666669L81.50855867283951,137.66666666666669L81.70047466049381,137.66666666666669L81.88858393132716,137.66666666666669L82.06749064380786,137.66666666666669L82.25198173804013,137.66666666666669L82.42963151572145,137.66666666666669L82.61563093171297,137.66666666666669L82.9974518113426,137.66666666666669L83.18477998697917,137.66666666666669L83.36900173804013,137.66666666666669L83.55211918209876,137.66666666666669L83.94263984616127,137.66666666666669L84.15037525607639,137.66666666666669L84.33097883053628,137.66666666666669L84.72884358506943,137.66666666666669L85.10925490210263,137.66666666666669L85.4928534466628,137.66666666666669L85.68880958188659,137.66666666666669L85.87297746431328,137.66666666666669L86.0664466642554,137.66666666666669L86.24321658757717,137.66666666666669L86.63664615788966,137.66666666666669L86.81970075520833,137.66666666666669L87.01948156346451,137.66666666666669L87.20249127025464,137.66666666666669L87.4024606187307,137.66666666666669L87.59204229890045,137.66666666666669L87.78125587673611,137.66666666666669L87.97536252218364,137.66666666666669L88.56651691454475,137.66666666666669L88.9556280160108,137.66666666666669L89.33358831018518,137.66666666666669L89.52352911458334,137.66666666666669L89.92080131413967,137.66666666666669L90.10687255497685,137.66666666666669L90.30493854504245,137.66666666666669L90.5095316179591,137.66666666666669L90.70481439525462,137.66666666666669L90.88491519579476,137.66666666666669L91.07565505160107,137.66666666666669L91.26651162278164,137.66666666666669L91.45735023775077,137.66666666666669L91.63894140383874,137.66666666666669L91.82750855806326,137.66666666666669L92.39736688368055,137.66666666666669L92.56312067129629,137.66666666666669L92.76140213589892,137.66666666666669L92.94499541956019,137.66666666666669L93.1273676808449,137.66666666666669L93.5176908265818,137.66666666666669L93.72497733121142,137.66666666666669L93.91928149498456,137.66666666666669L94.11345996527778,137.66666666666669L94.32545099729938,137.66666666666669L94.50338807436341,137.66666666666669L94.70860063657408,137.66666666666669L94.90022034673999,137.66666666666669L95.0930521011767,137.66666666666669L95.29175553674769,137.66666666666669L95.47226035204474,137.66666666666669L95.67899021412038,137.66666666666669L95.87948029272762,137.66666666666669L96.06304664207175,137.66666666666669L96.24982715326003,137.66666666666669L96.4506853342014,137.66666666666669L96.63740299864969,137.66666666666669L96.80789722608024,137.66666666666669L96.88956207561729,-98.33333333333331L97.26715426745756,137.66666666666669L97.6431573345872,137.66666666666669L97.83274799286266,137.66666666666669L98.02346091435184,137.66666666666669L98.21339274064428,137.66666666666669L98.40362084442515,137.66666666666669L98.58031894290123,137.66666666666669L98.76961332368828,137.66666666666669L98.9516174826389,137.66666666666669L99.14220471064816,137.66666666666669L99.33521602719907,137.66666666666669L99.53136070264274,137.66666666666669L99.73381698640046,137.66666666666669L99.9428272873264,137.66666666666669L100.12791093653549,137.66666666666669L100.31775298177084,137.66666666666669L100.49432538676697,137.66666666666669L100.69715875096449,137.66666666666669L100.87709794560186,137.66666666666669L101.05442451147763,137.66666666666669L101.2617469285301,137.66666666666669L101.47244511332947,-98.33333333333331L101.6601862818287,137.66666666666669L101.85054905719522,137.66666666666669L102.03978059124229,137.66666666666669L102.03998708767361,137.66666666666669L102.36996838493441,-9931.666666666668L102.56218962818288,137.66666666666669L102.77228627989967,137.66666666666669L102.96034168209876,137.66666666666669L103.14188795765817,137.66666666666669L103.34434424141588,137.66666666666669L103.53444665171682,137.66666666666669L103.71694460648149,137.66666666666669L103.9271310392554,137.66666666666669L104.3064739617091,137.66666666666669L104.50524024402006,137.66666666666669L104.70450032214507,137.66666666666669L104.911158359375,137.66666666666669L105.11174719714506,137.66666666666669L105.29858157696759,137.66666666666669L105.48204916714892,137.66666666666669L105.6775653751929,137.66666666666669L105.87329705777391,137.66666666666669L106.06707151331018,137.66666666666669L106.2539866960841,137.66666666666669L106.46258400414737,137.66666666666669L106.62793377700616,137.66666666666669L107.03421101658951,137.66666666666669L107.2278328443287,137.66666666666669L107.41738759018132,137.66666666666669L107.60087313657408,137.66666666666669L107.79581474585261,137.66666666666669L107.98758708381558,137.66666666666669L108.16963613329476,137.66666666666669L108.35213408805942,137.66666666666669L108.54568409095293,137.66666666666669L108.73397292390047,137.66666666666669L109.12563380738811,137.66666666666669L109.31091497492284,137.66666666666669L109.49820723813657,137.66666666666669L109.68806723958333,137.66666666666669L109.88599855806326,137.66666666666669L110.2769052806713,137.66666666666669L110.46629842062114,137.66666666666669L110.66019856963733,137.66666666666669L110.85196192949459,137.66666666666669L111.05195821228781,137.66666666666669L111.24237485628858,137.66666666666669L111.62508456838349,137.66666666666669L111.99901369309413,137.66666666666669L112.18433975115741,137.66666666666669L112.36993515239197,137.66666666666669L112.76900297309028,137.66666666666669L112.95451757137344,137.66666666666669L113.14185472511573,137.66666666666669L113.52330750241127,137.66666666666669L113.71298794174383,137.66666666666669L113.90291976803627,137.66666666666669L114.09163057195215,137.66666666666669L114.2874699918017,137.66666666666669L114.4654788937114,137.66666666666669L114.65182845582562,137.66666666666669L114.84756013840664,137.66666666666669L115.04374072627314,137.66666666666669L115.41147495804398,137.66666666666669L115.61725314091434,137.66666666666669L115.80434788580247,137.66666666666669L116.16967598524306,137.66666666666669L116.71275262152778,137.66666666666669L116.90336678385417,137.66666666666669L117.27047254822531,137.66666666666669L117.45200984567902,137.66666666666669L117.65674656828703,137.66666666666669L117.86102540750386,137.66666666666669L118.04878453221451,137.66666666666669L118.4215824156057,137.66666666666669L118.62915621961807,137.66666666666669L118.82210468942901,137.66666666666669L119.0118210411844,137.66666666666669L119.2063496576003,137.66666666666669L119.403050975598,137.66666666666669L119.58164345437886,137.66666666666669L119.77135082802855,137.66666666666669L119.95816725163965,137.66666666666669L120.14604309172454,137.66666666666669L120.3223641097608,137.66666666666669L120.52411112316744,137.66666666666669L120.89431433400848,137.66666666666669L121.08375236448688,137.66666666666669L121.26481382233796,137.66666666666669L121.45839075954862,137.66666666666669L121.6345591497878,137.66666666666669L121.83373842496141,137.66666666666669L122.02319441165123,137.66666666666669L122.20959784239969,137.66666666666669L122.37966112075617,137.66666666666669L122.56239250626928,137.66666666666669L122.76056623360338,137.66666666666669L122.95539112750771,137.66666666666669L123.1504404740548,137.66666666666669L123.35850807388115,137.66666666666669L123.5548861800733,137.66666666666669L123.73280530092593,137.66666666666669L123.9159586574074,137.66666666666669L124.10060237943674,137.66666666666669L124.303103553723,137.66666666666669L124.6709096103395,137.66666666666669L124.86474691261574,137.66666666666669L125.06232808497299,137.66666666666669L125.43904042245369,137.66666666666669L125.52022045428241,-98.33333333333331L125.70687527199074,137.66666666666669L125.89528979841822,137.66666666666669L126.09537586226853,137.66666666666669L126.28985061005015,137.66666666666669L126.49957018132716,137.66666666666669L126.67289251205632,137.66666666666669L126.85213141444831,137.66666666666669L127.03656864004628,137.66666666666669L127.2340241189236,137.66666666666669L127.41734805941358,137.66666666666669L127.59620988136574,137.66666666666669L128.16780995949074,137.66666666666669L128.36260791907793,137.66666666666669L128.7422920095486,137.66666666666669L129.31396391251928,137.66666666666669L129.50315953414355,137.66666666666669L129.68870106674382,137.66666666666669L129.87936011959877,137.66666666666669L130.08660173369987,137.66666666666669L130.2831773582176,137.66666666666669L130.47364787085263,137.66666666666669L130.68529773485724,-98.33333333333331L130.8616097747878,137.66666666666669L131.05997204234183,137.66666666666669L131.2396778062307,137.66666666666669L131.61278094521606,137.66666666666669L131.8071569338349,137.66666666666669L131.99650518325615,137.66666666666669L132.2032170891204,137.66666666666669L132.43066841917437,-98.33333333333331L132.61775418595678,137.66666666666669L132.81234564911264,137.66666666666669L133.1927120756173,137.66666666666669L133.38142287953318,137.66666666666669L133.58282872492282,137.66666666666669L133.78549150511188,137.66666666666669L134.88522865162037,137.66666666666669L135.25131091194058,137.66666666666669L135.44012945312502,137.66666666666669L135.62591339457947,137.66666666666669L135.8163031042631,137.66666666666669L136.0149077806713,137.66666666666669L136.1987165388696,137.66666666666669L136.19894996961804,137.66666666666669L136.52982907744982,-9931.666666666668L136.70619498601468,137.66666666666669L136.90562564814815,137.66666666666669L137.11394463493443,137.66666666666669L137.30387646122685,137.66666666666669L137.51074997299384,137.66666666666669L137.69423551938655,137.66666666666669L137.8905777131559,137.66666666666669L138.07342581404322,137.66666666666669L138.26830457658178,137.66666666666669L138.6304634047068,137.66666666666669L138.82123019483024,137.66666666666669L139.01194311631946,137.66666666666669L139.404133708044,137.66666666666669L139.59737845534335,137.66666666666669L139.7760068465471,137.66666666666669L139.95341421537424,137.66666666666669L140.16041342062115,137.66666666666669L140.35493305893135,137.66666666666669L140.54666948447147,137.66666666666669L140.72929313271604,137.66666666666669L140.91280561342595,137.66666666666669L141.10230649064428,137.66666666666669L141.29310919319062,137.66666666666669L141.49127394241899,137.66666666666669L141.67813525655865,137.66666666666669L141.88096862075616,137.66666666666669L142.07177132330247,137.66666666666669L142.2595124918017,137.66666666666669L142.42942314236112,137.66666666666669L142.62056701292437,137.66666666666669L142.8191088425926,137.66666666666669L143.02432140480326,137.66666666666669L143.41394425829478,137.66666666666669L143.59869571759262,137.66666666666669L143.79499302083335,137.66666666666669L143.97679966145836,137.66666666666669L144.1634903915895,137.66666666666669L144.35714813175153,137.66666666666669L144.55675835599925,137.66666666666669L144.73549448447147,137.66666666666669L144.93816624276621,137.66666666666669L145.12475821373457,137.66666666666669L145.30209375771602,137.66666666666669L145.50359836226852,137.66666666666669L145.6947332547261,137.66666666666669L145.88075062692903,137.66666666666669L146.249687924865,137.66666666666669L146.43910799913198,137.66666666666669L146.62325792534725,137.66666666666669L146.81719398678626,137.66666666666669L147.01281793209876,137.66666666666669L147.20759793547455,137.66666666666669L147.38965596305943,137.66666666666669L147.59078348717208,137.66666666666669L147.7689180825617,137.66666666666669L147.95589611207564,137.66666666666669L148.15048757523147,137.66666666666669L148.32666494357642,137.66666666666669L148.51859888744215,137.66666666666669L148.70334136863426,137.66666666666669L148.9031850236304,137.66666666666669L149.0969235667438,137.66666666666669L149.49222058304397,137.66666666666669L149.67469160349154,137.66666666666669L149.84858853298613,137.66666666666669L150.03712875289352,137.66666666666669L150.23452138503086,137.66666666666669L150.4214365678048,137.66666666666669L150.80991022376543,137.66666666666669L151.5655435127315,137.66666666666669L151.74685635754244,137.66666666666669L151.93019825424383,137.66666666666669L152.12331730806326,137.66666666666669L152.31299774739583,137.66666666666669L152.39122398244598,-98.33333333333331L152.58093135609568,137.66666666666669L152.77575625,137.66666666666669L152.96495187162424,137.66666666666669L153.35214165846835,137.66666666666669L153.55225465663582,137.66666666666669L153.72947348524306,137.66666666666669L153.92734195698304,137.66666666666669L154.3143791160301,137.66666666666669L154.50836904610338,137.66666666666669L154.6960204335455,137.66666666666669L155.08153131462194,137.66666666666669L155.26691124131943,137.66666666666669L155.45344036554783,137.66666666666669L155.6295728433642,137.66666666666669L155.81349831693674,137.66666666666669L155.99879744068286,137.66666666666669L156.20337255738812,137.66666666666669L156.3934570114776,137.66666666666669L156.58388263358412,137.66666666666669L156.77125569974925,137.66666666666669L156.95691394772376,137.66666666666669L157.13608102527007,137.66666666666669L157.3258602237654,137.66666666666669L157.51523540750384,137.66666666666669L157.6964405150463,137.66666666666669L157.8845138734568,137.66666666666669L158.45373475356865,137.66666666666669L158.63588256221064,137.66666666666669L158.82050832802855,137.66666666666669L159.01536015625,137.66666666666669L159.20592044994214,137.66666666666669L159.39522380883486,137.66666666666669L159.60517681086034,137.66666666666669L159.78261111400465,137.66666666666669L159.9678384129051,137.66666666666669L160.16724214072144,137.66666666666669L160.3464810431134,137.66666666666669L160.53186994791668,137.66666666666669L160.73261141348377,137.66666666666669L160.91721922309029,137.66666666666669L161.2912919974923,137.66666666666669L161.45421768180938,137.66666666666669L161.64238082127702,137.66666666666669L161.85063696132332,137.66666666666669L162.0329733101852,137.66666666666669L162.2250239694252,137.66666666666669L162.40837484423224,137.66666666666669L162.60563280478394,137.66666666666669L162.80288178722995,137.66666666666669L163.00182763165512,137.66666666666669L163.17186397569444,137.66666666666669L163.35940762586804,137.66666666666669L163.54213003327547,137.66666666666669L163.73155010754246,137.66666666666669L163.9093345568094,137.66666666666669L164.11768047791284,137.66666666666669L164.3044879234182,137.66666666666669L164.49262412856868,137.66666666666669L164.68032938464506,137.66666666666669L164.89945801070604,-98.33333333333331L165.0778978616898,137.66666666666669L165.28617195794754,137.66666666666669L165.6695101374421,137.66666666666669L166.05561357349538,137.66666666666669L166.62518459972995,137.66666666666669L166.81497277633102,137.66666666666669L166.99465160590276,137.66666666666669L167.19134394579476,137.66666666666669L167.38099745081018,137.66666666666669L167.56538080777392,137.66666666666669L167.75430708622687,137.66666666666669L167.94117737847225,137.66666666666669L168.12271467592592,137.66666666666669L168.31081496865357,137.66666666666669L168.50536154128085,137.66666666666669L168.68890993441357,137.66666666666669L168.87481059124227,137.66666666666669L169.0591670138889,137.66666666666669L169.4559633738426,137.66666666666669L169.64527571084105,137.66666666666669L169.8343187046682,137.66666666666669L170.21149790364584,137.66666666666669L170.2117223562886,137.66666666666669L170.53956686439045,-9931.666666666668L170.72563810522763,137.66666666666669L170.909258323206,137.66666666666669L171.0971521195023,137.66666666666669L171.28444438271603,137.66666666666669L171.48960307629244,137.66666666666669L171.68540658371913,137.66666666666669L172.05205446469904,137.66666666666669L172.25616271990742,137.66666666666669L172.43377658516587,137.66666666666669L172.63135775752318,137.66666666666669L172.83006119309414,137.66666666666669L173.21130747395836,137.66666666666669L173.40930163917824,137.66666666666669L173.59890127555943,137.66666666666669L173.78637310088735,137.66666666666669L173.96023411795912,137.66666666666669L174.1563967496142,137.66666666666669L174.36102573495373,137.66666666666669L174.55093062692902,137.66666666666669L174.74068289110724,137.66666666666669L174.95973071421682,-98.33333333333331L175.15345130111885,137.66666666666669L175.3404742211613,137.66666666666669L175.52317867235726,137.66666666666669L175.71238327208718,137.66666666666669L176.07903115306712,137.66666666666669L176.2574171354167,137.66666666666669L176.44224939766588,137.66666666666669L176.6299546537423,137.66666666666669L176.81673516493055,137.66666666666669L177.02478480854552,137.66666666666669L177.21545283950618,137.66666666666669L177.39948605034724,137.66666666666669L177.6045639409722,137.66666666666669L177.99275029755015,137.66666666666669L178.16627014660494,137.66666666666669L178.53491116705248,137.66666666666669L178.72377459876546,137.66666666666669L178.91857255835262,137.66666666666669L179.11867657841438,137.66666666666669L179.30540322096837,137.66666666666669L179.4938805941358,137.66666666666669L179.6871343195409,137.66666666666669L179.87247833381562,137.66666666666669L180.06365811680172,137.66666666666669L180.25833038290895,137.66666666666669L180.447068121142,137.66666666666669L180.624511402392,137.66666666666669L180.81496395881558,137.66666666666669L181.0137571754437,137.66666666666669L181.19799688271607,137.66666666666669L181.57908155767745,137.66666666666669L181.76728958767362,137.66666666666669L181.95814615885416,137.66666666666669L182.13983608410493,137.66666666666669L182.32501849247686,137.66666666666669L182.5060709722222,137.66666666666669L182.68239199025848,137.66666666666669L182.8780428698881,137.66666666666669L183.06359338059414,137.66666666666669L183.25804119405862,137.66666666666669L183.4662703997878,137.66666666666669L183.64554521460263,137.66666666666669L183.83435477768134,137.66666666666669L184.0238825892168,137.66666666666669L184.20277134548613,137.66666666666669L184.38854630883486,137.66666666666669L184.57573981288581,137.66666666666669L184.76593200424384,137.66666666666669L184.95543288146217,137.66666666666669L185.1425276263503,137.66666666666669L185.33163346691745,137.66666666666669L185.52378288532023,137.66666666666669L185.71159587866512,137.66666666666669L186.07261448736497,137.66666666666669L186.15084970052084,-98.33333333333331L186.34079050491897,137.66666666666669L186.5267091179591,137.66666666666669L186.71395649064428,137.66666666666669L186.90227225790895,137.66666666666669L187.10154131413967,137.66666666666669L187.29044963638114,137.66666666666669L187.6937192105517,137.66666666666669L187.87946723958333,137.66666666666669L188.0737085566165,137.66666666666669L188.2758595847801,137.66666666666669L188.47524535638505,137.66666666666669L188.664665430652,137.66666666666669L188.85933769675927,137.66666666666669L189.05031098331406,137.66666666666669L189.23468536217206,137.66666666666669L189.42402463348765,137.66666666666669L189.6211479224537,137.66666666666669L189.7984834664352,137.66666666666669L189.98749054783949,137.66666666666669L190.1780957320602,137.66666666666669L190.36894332513504,137.66666666666669L190.5641004089506,137.66666666666669L190.96093268132717,137.66666666666669L191.16777925877702,137.66666666666669L191.34978341772762,137.66666666666669L191.53976013454863,137.66666666666669L191.7260827623457,137.66666666666669L191.90222421826775,137.66666666666669L192.10376473524306,137.66666666666669L192.29536648919753,137.66666666666669L192.48563948350696,137.66666666666669L192.68636299286266,137.66666666666669L192.88082876253858,137.66666666666669L193.08297979070215,137.66666666666669L193.2804891382137,137.66666666666669L193.6577042496142,137.66666666666669L193.8481657841435,137.66666666666669L194.2212509669174,137.66666666666669L194.4083726461227,137.66666666666669L194.59505439814816,137.66666666666669L194.79108235821758,137.66666666666669L195.1667891478588,137.66666666666669L195.35646958719138,137.66666666666669L195.54481228877313,137.66666666666669L195.73359491753473,137.66666666666669L195.92789010320215,137.66666666666669L196.1019217042824,137.66666666666669L196.4806990060764,137.66666666666669L196.86408207609955,137.66666666666669L197.0413906857639,137.66666666666669L197.231735504919,137.66666666666669L197.42387594521605,137.66666666666669L197.60277367959105,137.66666666666669L197.9571395119599,137.66666666666669L198.1366926480517,137.66666666666669L198.3041343195409,137.66666666666669L198.49086994020064,137.66666666666669L198.66451548273534,137.66666666666669L198.8491951171875,137.66666666666669L199.04938891830636,137.66666666666669L199.43955045814042,137.66666666666669L199.6302005328897,137.66666666666669L199.82711732542435,137.66666666666669L200.0218614163773,137.66666666666669L200.21103908179015,137.66666666666669L200.3911129480131,137.66666666666669L200.5876167476852,137.66666666666669L200.76565258391204,137.66666666666669L200.95256776668595,137.66666666666669L201.1591450009645,137.66666666666669L201.36754479070217,137.66666666666669L201.55042880401234,137.66666666666669L201.738681724537,137.66666666666669L201.93550873601467,137.66666666666669L202.12585355516975,137.66666666666669L202.30845924720293,137.66666666666669L202.50362530912423,137.66666666666669L202.70206837962962,137.66666666666669L202.88928881799768,137.66666666666669L203.0595585927855,137.66666666666669L203.24105997781635,137.66666666666669L203.44477319637343,-98.33333333333331L203.62807020254633,137.66666666666669L203.81039757330248,137.66666666666669L203.9965226827739,137.66666666666669L204.16998866319446,137.66666666666669L204.1701951596258,137.66666666666669L204.48389017312886,-9931.666666666668L204.87564981577935,137.66666666666669L205.06272660445603,137.66666666666669L205.25591748312112,137.66666666666669L205.4524302608989,137.66666666666669L205.6482068340085,137.66666666666669L205.83895566792052,137.66666666666669L206.0262030406057,137.66666666666669L206.2152819468557,137.66666666666669L206.40428902826005,137.66666666666669L206.5898215827546,137.66666666666669L206.7776704885224,137.66666666666669L206.95993501253858,137.66666666666669L207.32911471932871,137.66666666666669L207.5113702652392,137.66666666666669L207.71656487123843,137.66666666666669L207.88992311439043,137.66666666666669L208.26053033998843,137.66666666666669L208.43417588252314,137.66666666666669L208.61816420283563,137.66666666666669L208.81579924382714,137.66666666666669L209.00268749228397,137.66666666666669L209.2071548717207,137.66666666666669L209.40396392698688,137.66666666666669L209.6076951017554,-98.33333333333331L209.68482600790895,-98.33333333333331L210.06397141203703,137.66666666666669L210.25353513599535,137.66666666666669L210.4618810570988,137.66666666666669L210.64184718605324,137.66666666666669L210.82784660204476,137.66666666666669L211.0123646305941,137.66666666666669L211.40506697434415,137.66666666666669L211.61009997444057,137.66666666666669L211.81223304639275,137.66666666666669L212.18222078269676,137.66666666666669L212.37627355951003,137.66666666666669L212.56643881655094,137.66666666666669L212.75283326919364,137.66666666666669L212.95300013599538,137.66666666666669L213.33096940827545,137.66666666666669L213.5165378751929,137.66666666666669L213.701064881848,137.66666666666669L214.06045845341436,137.66666666666669L214.25753685185185,137.66666666666669L214.4658378824267,137.66666666666669L214.65567094955634,137.66666666666669L214.84237963589894,137.66666666666669L215.02177116608794,137.66666666666669L215.22015138985338,137.66666666666669L215.40720124421296,137.66666666666669L215.58617080343362,137.66666666666669L215.78517051649308,137.66666666666669L215.97478810908567,137.66666666666669L216.16367847511572,137.66666666666669L216.36034388069058,137.66666666666669L216.547923443287,137.66666666666669L216.72129066454474,137.66666666666669L216.89165919849538,137.66666666666669L217.08017248408567,137.66666666666669L217.45244963734567,137.66666666666669L217.84339227237655,137.66666666666669L218.02975081259646,137.66666666666669L218.4050266531636,137.66666666666669L218.59579344328702,137.66666666666669L218.76982504436728,137.66666666666669L218.95886803819445,137.66666666666669L219.14598971739971,137.66666666666669L219.35256695167826,137.66666666666669L219.5301628607253,137.66666666666669L219.71363942901232,137.66666666666669L219.89936950183258,137.66666666666669L220.09146505160106,137.66666666666669L220.28497016396602,137.66666666666669L220.49205017216434,137.66666666666669L220.66839812451775,137.66666666666669L220.86237009837964,137.66666666666669L221.04472440345296,137.66666666666669L221.2123097246335,137.66666666666669L221.3897709620949,137.66666666666669L221.5751149763696,137.66666666666669L221.7647146127508,137.66666666666669L222.12593971788195,137.66666666666669L222.5151585566165,137.66666666666669L222.70955250144678,137.66666666666669L223.08590571469907,137.66666666666669L223.28453732542437,137.66666666666669L223.4721887128665,137.66666666666669L223.6823482113233,137.66666666666669L223.8706101099537,137.66666666666669L224.07645113956403,137.66666666666669L224.28761618586034,137.66666666666669L224.70123751591436,137.66666666666669L224.89212999951775,137.66666666666669L225.07742912326387,137.66666666666669L225.45348605902777,137.66666666666669L225.69100184558258,137.66666666666669L225.9263898210841,137.66666666666669L226.1594614453125,137.66666666666669L226.57692540461034,137.66666666666669L226.7609586154514,137.66666666666669L226.9513932156636,137.66666666666669L227.1452215398341,137.66666666666669L227.33551249035492,137.66666666666669L227.56431053626542,137.66666666666669L227.84945517361112,137.66666666666669L228.0887216907793,137.66666666666669L228.37056238522376,137.66666666666669L228.633935116223,137.66666666666669L228.84518994357637,137.66666666666669L229.13829816068673,137.66666666666669L229.38795234616126,137.66666666666669L229.64792237509644,137.66666666666669L229.94864402584875,137.66666666666669L230.2515563343943,137.66666666666669L230.69256986496916,137.66666666666669L231.06833052324458,137.66666666666669L231.65633360050154,137.66666666666669L232.14505678481868,137.66666666666669L232.5272367886767,137.66666666666669L232.7883201027199,137.66666666666669L233.0125123804012,137.66666666666669L233.26884627652393,137.66666666666669L233.519443163098,137.66666666666669L233.80866386043596,137.66666666666669L234.14190421006947,137.66666666666669L234.44124323254243,137.66666666666669L234.68488208719137,137.66666666666669L234.93411430169752,137.66666666666669L235.5177719757909,137.66666666666669L235.80088756124613,137.66666666666669L236.0755547492284,137.66666666666669L236.4629061419753,137.66666666666669L236.77945619309415,137.66666666666669L237.10953624951773,137.66666666666669L237.69264625916284,137.66666666666669L238.0147986482446,137.66666666666669L238.3486854214892,137.66666666666669L238.6607553978588,137.66666666666669L238.9263906114969,137.66666666666669L239.89183325279708,137.66666666666669L240.13769867766206,-98.33333333333331L240.44223602334105,137.66666666666669L240.7112829171489,137.66666666666669L241.0736931322338,137.66666666666669L241.43272757957175,137.66666666666669L241.79534429108796,137.66666666666669L242.13314551842205,137.66666666666669L242.41798490017362,137.66666666666669L242.75518459442517,137.66666666666669L243.0752091724537,137.66666666666669L243.26113676359955,137.66666666666669L243.50422795380018,137.66666666666669L243.75547126398533,137.66666666666669L244.00029522858796,137.66666666666669L244.31534593605323,137.66666666666669L244.75357625385803,137.66666666666669L245.0083569376929,137.66666666666669L245.00859036844136,137.66666666666669L245.62157053578318,-9931.666666666668L246.03815464072147,137.66666666666669L246.35158928915897,137.66666666666669L246.57790937789352,137.66666666666669L247.00732319589122,137.66666666666669L247.36235340808256,137.66666666666669L247.68180338734567,137.66666666666669L248.31281159095292,137.66666666666669L248.984364919946,137.66666666666669L249.3085553390239,137.66666666666669L249.57517814429013,137.66666666666669L249.921311053723,137.66666666666669L250.26362826822918,137.66666666666669L250.9567739414545,137.66666666666669L251.80547427420908,137.66666666666669L252.18288690393518,137.66666666666669L252.56512077642745,137.66666666666669L252.98122006365742,137.66666666666669L253.44470579282407,137.66666666666669L253.88349275318288,137.66666666666669L254.31822160976077,137.66666666666669L254.7090026388889,137.66666666666669L255.13357725790894,137.66666666666669L255.58234787181712,137.66666666666669L256.0193751234568,137.66666666666669L256.26084127652393,137.66666666666669L256.67634800877704,137.66666666666669L257.07779502748843,137.66666666666669L257.5028724204283,137.66666666666669L258.5004925925926,137.66666666666669L258.97069394483026,137.66666666666669L259.38009556520063,137.66666666666669L260.21237494261186,137.66666666666669L260.59936721113036,137.66666666666669L261.05276154947916,137.66666666666669L261.3921339453125,137.66666666666669L261.68856406153554,137.66666666666669L262.0503637654321,137.66666666666669L262.3976638286073,137.66666666666669L262.51874256221066,-98.33333333333331L262.94612732831786,137.66666666666669L263.3523237649498,137.66666666666669L263.7508349430941,137.66666666666669L264.147254222608,137.66666666666669L264.54558583863815,137.66666666666669L264.96092198688274,137.66666666666669L265.31377051938665,137.66666666666669L265.7234863734568,137.66666666666669L266.12939551070605,137.66666666666669L266.40149496045524,-98.33333333333331L267.3012986709105,137.66666666666669L267.76120213589894,137.66666666666669L268.14310381848,137.66666666666669L268.6815657084298,137.66666666666669L269.0483841734182,137.66666666666669L269.4935994574653,137.66666666666669L270.03499718798224,137.66666666666669L273.79677858989197,137.66666666666669L280.31767552613815,137.66666666666669" style="fill: none;" fill="none"></path></g></g></g></g></g></g><g transform="translate(39, 177)" clip-path="url(#clip_1)"><clipPath id="clip_1"><rect width="290" height="23"></rect></clipPath><g><g><line x1="0" y1="0" x2="0" y2="5" style="visibility: inherit;" fill="rgb(0, 0, 0)" stroke="rgb(204, 204, 204)" stroke-width="1px"></line><line x1="32.32118055555556" y1="0" x2="32.32118055555556" y2="5" style="visibility: inherit;" fill="rgb(0, 0, 0)" stroke="rgb(204, 204, 204)" stroke-width="1px"></line><line x1="64.64236111111111" y1="0" x2="64.64236111111111" y2="5" style="visibility: inherit;" fill="rgb(0, 0, 0)" stroke="rgb(204, 204, 204)" stroke-width="1px"></line><line x1="96.96354166666666" y1="0" x2="96.96354166666666" y2="5" style="visibility: inherit;" fill="rgb(0, 0, 0)" stroke="rgb(204, 204, 204)" stroke-width="1px"></line><line x1="129.28472222222223" y1="0" x2="129.28472222222223" y2="5" style="visibility: inherit;" fill="rgb(0, 0, 0)" stroke="rgb(204, 204, 204)" stroke-width="1px"></line><line x1="161.60590277777777" y1="0" x2="161.60590277777777" y2="5" style="visibility: inherit;" fill="rgb(0, 0, 0)" stroke="rgb(204, 204, 204)" stroke-width="1px"></line><line x1="193.92708333333331" y1="0" x2="193.92708333333331" y2="5" style="visibility: inherit;" fill="rgb(0, 0, 0)" stroke="rgb(204, 204, 204)" stroke-width="1px"></line><line x1="226.24826388888889" y1="0" x2="226.24826388888889" y2="5" style="visibility: inherit;" fill="rgb(0, 0, 0)" stroke="rgb(204, 204, 204)" stroke-width="1px"></line><line x1="258.56944444444446" y1="0" x2="258.56944444444446" y2="5" style="visibility: inherit;" fill="rgb(0, 0, 0)" stroke="rgb(204, 204, 204)" stroke-width="1px"></line><line x1="290.890625" y1="0" x2="290.890625" y2="5" style="visibility: inherit;" fill="rgb(0, 0, 0)" stroke="rgb(204, 204, 204)" stroke-width="1px"></line></g><g transform="translate(0, 8)"><text x="0" y="0" dx="0em" dy="0.95em" style="text-anchor: middle; visibility: hidden; font-family: &quot;Helvetica Neue&quot;, sans-serif; font-size: 12px; font-weight: 200;" fill="rgb(50, 49, 63)" stroke="none" stroke-width="1px">-1</text><text x="32.32118055555556" y="0" dx="0em" dy="0.95em" style="text-anchor: middle; visibility: inherit; font-family: &quot;Helvetica Neue&quot;, sans-serif; font-size: 12px; font-weight: 200;" fill="rgb(50, 49, 63)" stroke="none" stroke-width="1px">0</text><text x="64.64236111111111" y="0" dx="0em" dy="0.95em" style="text-anchor: middle; visibility: inherit; font-family: &quot;Helvetica Neue&quot;, sans-serif; font-size: 12px; font-weight: 200;" fill="rgb(50, 49, 63)" stroke="none" stroke-width="1px">1</text><text x="96.96354166666666" y="0" dx="0em" dy="0.95em" style="text-anchor: middle; visibility: inherit; font-family: &quot;Helvetica Neue&quot;, sans-serif; font-size: 12px; font-weight: 200;" fill="rgb(50, 49, 63)" stroke="none" stroke-width="1px">2</text><text x="129.28472222222223" y="0" dx="0em" dy="0.95em" style="text-anchor: middle; visibility: inherit; font-family: &quot;Helvetica Neue&quot;, sans-serif; font-size: 12px; font-weight: 200;" fill="rgb(50, 49, 63)" stroke="none" stroke-width="1px">3</text><text x="161.60590277777777" y="0" dx="0em" dy="0.95em" style="text-anchor: middle; visibility: inherit; font-family: &quot;Helvetica Neue&quot;, sans-serif; font-size: 12px; font-weight: 200;" fill="rgb(50, 49, 63)" stroke="none" stroke-width="1px">4</text><text x="193.92708333333331" y="0" dx="0em" dy="0.95em" style="text-anchor: middle; visibility: inherit; font-family: &quot;Helvetica Neue&quot;, sans-serif; font-size: 12px; font-weight: 200;" fill="rgb(50, 49, 63)" stroke="none" stroke-width="1px">5</text><text x="226.24826388888889" y="0" dx="0em" dy="0.95em" style="text-anchor: middle; visibility: inherit; font-family: &quot;Helvetica Neue&quot;, sans-serif; font-size: 12px; font-weight: 200;" fill="rgb(50, 49, 63)" stroke="none" stroke-width="1px">6</text><text x="258.56944444444446" y="0" dx="0em" dy="0.95em" style="text-anchor: middle; visibility: inherit; font-family: &quot;Helvetica Neue&quot;, sans-serif; font-size: 12px; font-weight: 200;" fill="rgb(50, 49, 63)" stroke="none" stroke-width="1px">7</text><text x="290.890625" y="0" dx="0em" dy="0.95em" style="text-anchor: middle; visibility: hidden; font-family: &quot;Helvetica Neue&quot;, sans-serif; font-size: 12px; font-weight: 200;" fill="rgb(50, 49, 63)" stroke="none" stroke-width="1px">8</text></g><line x1="0" y1="0" x2="290.890625" y2="0" fill="rgb(0, 0, 0)" stroke="rgb(204, 204, 204)" stroke-width="1px"></line></g></g></g></g></svg>