<svg viewBox="0 0 330 200" xmlns="http://www.w3.org/2000/svg"><g><g><g><g><g><line x1="39.109375" y1="177" x2="34.109375" y2="177" style="visibility: inherit;" fill="rgb(0, 0, 0)" stroke="rgb(204, 204, 204)" stroke-width="1px"></line><line x1="39.109375" y1="159.3" x2="34.109375" y2="159.3" style="visibility: inherit;" fill="rgb(0, 0, 0)" stroke="rgb(204, 204, 204)" stroke-width="1px"></line><line x1="39.109375" y1="141.6" x2="34.109375" y2="141.6" style="visibility: inherit;" fill="rgb(0, 0, 0)" stroke="rgb(204, 204, 204)" stroke-width="1px"></line><line x1="39.109375" y1="123.9" x2="34.109375" y2="123.9" style="visibility: inherit;" fill="rgb(0, 0, 0)" stroke="rgb(204, 204, 204)" stroke-width="1px"></line><line x1="39.109375" y1="106.2" x2="34.109375" y2="106.2" style="visibility: inherit;" fill="rgb(0, 0, 0)" stroke="rgb(204, 204, 204)" stroke-width="1px"></line><line x1="39.109375" y1="88.5" x2="34.109375" y2="88.5" style="visibility: inherit;" fill="rgb(0, 0, 0)" stroke="rgb(204, 204, 204)" stroke-width="1px"></line><line x1="39.109375" y1="70.8" x2="34.109375" y2="70.8" style="visibility: inherit;" fill="rgb(0, 0, 0)" stroke="rgb(204, 204, 204)" stroke-width="1px"></line><line x1="39.109375" y1="53.10000000000001" x2="34.109375" y2="53.10000000000001" style="visibility: inherit;" fill="rgb(0, 0, 0)" stroke="rgb(204, 204, 204)" stroke-width="1px"></line><line x1="39.109375" y1="35.400000000000006" x2="34.109375" y2="35.400000000000006" style="visibility: inherit;" fill="rgb(0, 0, 0)" stroke="rgb(204, 204, 204)" stroke-width="1px"></line><line x1="39.109375" y1="17.69999999999999" x2="34.109375" y2="17.69999999999999" style="visibility: inherit;" fill="rgb(0, 0, 0)" stroke="rgb(204, 204, 204)" stroke-width="1px"></line><line x1="39.109375" y1="0" x2="34.109375" y2="0" style="visibility: inherit;" fill="rgb(0, 0, 0)" stroke="rgb(204, 204, 204)" stroke-width="1px"></line></g><g transform="translate(29.109375, 0)"><text x="0" y="177" dx="0em" dy="0.3em" style="text-anchor: end; visibility: hidden; font-family: &quot;Helvetica Neue&quot;, sans-serif; font-size: 12px; font-weight: 200;" fill="rgb(50, 49, 63)" stroke="none" stroke-width="1px">3</text><text x="0" y="159.3" dx="0em" dy="0.3em" style="text-anchor: end; visibility: inherit; font-family: &quot;Helvetica Neue&quot;, sans-serif; font-size: 12px; font-weight: 200;" fill="rgb(50, 49, 63)" stroke="none" stroke-width="1px">3.5</text><text x="0" y="141.6" dx="0em" dy="0.3em" style="text-anchor: end; visibility: hidden; font-family: &quot;Helvetica Neue&quot;, sans-serif; font-size: 12px; font-weight: 200;" fill="rgb(50, 49, 63)" stroke="none" stroke-width="1px">4</text><text x="0" y="123.9" dx="0em" dy="0.3em" style="text-anchor: end; visibility: inherit; font-family: &quot;Helvetica Neue&quot;, sans-serif; font-size: 12px; font-weight: 200;" fill="rgb(50, 49, 63)" stroke="none" stroke-width="1px">4.5</text><text x="0" y="106.2" dx="0em" dy="0.3em" style="text-anchor: end; visibility: hidden; font-family: &quot;Helvetica Neue&quot;, sans-serif; font-size: 12px; font-weight: 200;" fill="rgb(50, 49, 63)" stroke="none" stroke-width="1px">5</text><text x="0" y="88.5" dx="0em" dy="0.3em" style="text-anchor: end; visibility: inherit; font-family: &quot;Helvetica Neue&quot;, sans-serif; font-size: 12px; font-weight: 200;" fill="rgb(50, 49, 63)" stroke="none" stroke-width="1px">5.5</text><text x="0" y="70.8" dx="0em" dy="0.3em" style="text-anchor: end; visibility: hidden; font-family: &quot;Helvetica Neue&quot;, sans-serif; font-size: 12px; font-weight: 200;" fill="rgb(50, 49, 63)" stroke="none" stroke-width="1px">6</text><text x="0" y="53.10000000000001" dx="0em" dy="0.3em" style="text-anchor: end; visibility: inherit; font-family: &quot;Helvetica Neue&quot;, sans-serif; font-size: 12px; font-weight: 200;" fill="rgb(50, 49, 63)" stroke="none" stroke-width="1px">6.5</text><text x="0" y="35.400000000000006" dx="0em" dy="0.3em" style="text-anchor: end; visibility: hidden; font-family: &quot;Helvetica Neue&quot;, sans-serif; font-size: 12px; font-weight: 200;" fill="rgb(50, 49, 63)" stroke="none" stroke-width="1px">7</text><text x="0" y="17.69999999999999" dx="0em" dy="0.3em" style="text-anchor: end; visibility: inherit; font-family: &quot;Helvetica Neue&quot;, sans-serif; font-size: 12px; font-weight: 200;" fill="rgb(50, 49, 63)" stroke="none" stroke-width="1px">7.5</text><text x="0" y="0" dx="0em" dy="0.3em" style="text-anchor: end; visibility: hidden; font-family: &quot;Helvetica Neue&quot;, sans-serif; font-size: 12px; font-weight: 200;" fill="rgb(50, 49, 63)" stroke="none" stroke-width="1px">8</text></g><line x1="39.109375" y1="0" x2="39.109375" y2="177" fill="rgb(0, 0, 0)" stroke="rgb(204, 204, 204)" stroke-width="1px"></line></g></g><g transform="translate(39, 0)" clip-path="url(#clip_0)"><clipPath id="clip_0"><rect width="290" height="177"></rect></clipPath><g><g><g><line x1="0" y1="0" x2="0" y2="177" fill="rgb(0, 0, 0)" stroke="rgb(60, 60, 60)" stroke-width="1px" opacity="0.25"></line><line x1="32.32118055555556" y1="0" x2="32.32118055555556" y2="177" fill="rgb(0, 0, 0)" stroke="rgb(60, 60, 60)" stroke-width="1px" opacity="0.25"></line><line x1="64.64236111111111" y1="0" x2="64.64236111111111" y2="177" fill="rgb(0, 0, 0)" stroke="rgb(60, 60, 60)" stroke-width="1px" opacity="0.25"></line><line x1="96.96354166666666" y1="0" x2="96.96354166666666" y2="177" fill="rgb(0, 0, 0)" stroke="rgb(60, 60, 60)" stroke-width="1px" opacity="0.25"></line><line x1="129.28472222222223" y1="0" x2="129.28472222222223" y2="177" fill="rgb(0, 0, 0)" stroke="rgb(60, 60, 60)" stroke-width="1px" opacity="0.25"></line><line x1="161.60590277777777" y1="0" x2="161.60590277777777" y2="177" fill="rgb(0, 0, 0)" stroke="rgb(60, 60, 60)" stroke-width="1px" opacity="0.25"></line><line x1="193.92708333333331" y1="0" x2="193.92708333333331" y2="177" fill="rgb(0, 0, 0)" stroke="rgb(60, 60, 60)" stroke-width="1px" opacity="0.25"></line><line x1="226.24826388888889" y1="0" x2="226.24826388888889" y2="177" fill="rgb(0, 0, 0)" stroke="rgb(60, 60, 60)" stroke-width="1px" opacity="0.25"></line><line x1="258.56944444444446" y1="0" x2="258.56944444444446" y2="177" fill="rgb(0, 0, 0)" stroke="rgb(60, 60, 60)" stroke-width="1px" opacity="0.25"></line><line x1="290.890625" y1="0" x2="290.890625" y2="177" fill="rgb(0, 0, 0)" stroke="rgb(60, 60, 60)" stroke-width="1px" opacity="0.25"></line></g><g><line x1="0" y1="177" x2="290.890625" y2="177" fill="rgb(0, 0, 0)" stroke="rgb(60, 60, 60)" stroke-width="1px" opacity="0.25"></line><line x1="0" y1="159.3" x2="290.890625" y2="159.3" fill="rgb(0, 0, 0)" stroke="rgb(60, 60, 60)" stroke-width="1px" opacity="0.25"></line><line x1="0" y1="141.6" x2="290.890625" y2="141.6" fill="rgb(0, 0, 0)" stroke="rgb(60, 60, 60)" stroke-width="1px" opacity="0.25"></line><line x1="0" y1="123.9" x2="290.890625" y2="123.9" fill="rgb(0, 0, 0)" stroke="rgb(60, 60, 60)" stroke-width="1px" opacity="0.25"></line><line x1="0" y1="106.2" x2="290.890625" y2="106.2" fill="rgb(0, 0, 0)" stroke="rgb(60, 60, 60)" stroke-width="1px" opacity="0.25"></line><line x1="0" y1="88.5" x2="290.890625" y2="88.5" fill="rgb(0, 0, 0)" stroke="rgb(60, 60, 60)" stroke-width="1px" opacity="0.25"></line><line x1="0" y1="70.8" x2="290.890625" y2="70.8" fill="rgb(0, 0, 0)" stroke="rgb(60, 60, 60)" stroke-width="1px" opacity="0.25"></line><line x1="0" y1="53.10000000000001" x2="290.890625" y2="53.10000000000001" fill="rgb(0, 0, 0)" stroke="rgb(60, 60, 60)" stroke-width="1px" opacity="0.25"></line><line x1="0" y1="35.400000000000006" x2="290.890625" y2="35.400000000000006" fill="rgb(0, 0, 0)" stroke="rgb(60, 60, 60)" stroke-width="1px" opacity="0.25"></line><line x1="0" y1="17.69999999999999" x2="290.890625" y2="17.69999999999999" fill="rgb(0, 0, 0)" stroke="rgb(60, 60, 60)" stroke-width="1px" opacity="0.25"></line><line x1="0" y1="0" x2="290.890625" y2="0" fill="rgb(0, 0, 0)" stroke="rgb(60, 60, 60)" stroke-width="1px" opacity="0.25"></line></g></g></g><g><g><line x1="0" y1="283.2" x2="290.890625" y2="283.2" fill="rgb(0, 0, 0)" stroke="rgb(153, 153, 153)" stroke-width="1.5px"></line></g></g><g><g><line x1="32.32118055555556" y1="0" x2="32.32118055555556" y2="177" fill="rgb(0, 0, 0)" stroke="rgb(153, 153, 153)" stroke-width="1.5px"></line></g></g><g><g><g><g><g><path stroke="rgb(238, 51, 119)" stroke-width="2px" d="M51.39067708333333,21.145873546600342L70.46017361111112,43.32261085510254L89.52967013888889,50.973385620117185L108.59916666666668,59.56937484741211L127.66866319444445,64.71273851394653L146.73815972222224,65.10573949813842L165.80765624999998,66.0162654876709L184.87715277777778,67.06692953109741L203.94664930555555,65.99410200119019L223.01614583333335,64.70461921691894L242.0856423611111,63.826114654541016L261.15513888888887,60.81169481277466" style="fill: none;" fill="none"></path></g><g><path stroke="rgb(51, 187, 238)" stroke-width="2px" d="M34.712947916666664,-11.178634643554688L34.97151736111111,24.568874645233166L35.100802083333335,-29.551135253906267L35.23008680555556,-4.334050369262712L35.29472916666667,3.283538246154791L35.42401388888889,-10.234770584106428L35.81186805555556,8.127922725677479L35.87651041666667,-0.22133102416992756L35.94115277777778,13.82949228286742L36.00579513888889,8.8452060699463L36.587576388888884,16.51655759811402L36.975430555555555,58.86598377227783L37.04007291666667,10.945571994781488L37.10471527777778,3.4144091606140137L37.16935763888888,19.76037712097167L37.49256944444444,8.28649377822876L38.00970833333333,5.444503498077381L38.46220486111111,29.61394586563111L38.979343750000005,44.148719787597656L39.17327083333333,39.21387519836426L39.237913194444445,80.19969835281371L39.69040972222223,68.76850461959839L40.01362152777777,24.61760730743407L40.530760416666666,20.868821525573736L40.7246875,30.657942295074463L40.78932986111111,53.70020341873169L41.37111111111111,31.587407684326166L41.500395833333336,60.750521564483634L41.56503819444445,27.522357559204096L42.082177083333335,30.828785133361805L42.40538888888889,30.213929843902577L42.53467361111111,76.38011770248413L42.59931597222222,26.71093425750732L42.85788541666667,24.11500425338744L43.18109722222222,23.142511653900158L43.24573958333333,43.18834705352782L43.43966666666667,54.44554138183594L43.82752083333333,38.68139448165894L43.89216319444444,42.25957374572755L44.02144791666666,34.91677522659302L44.215375,71.21641359329224L44.34465972222222,42.897959804534906L44.40930208333334,65.14731502532959L44.53858680555555,66.65593442916871L44.66787152777778,27.993378067016607L44.732513888888896,34.47961606979371L45.185010416666664,47.39572963714599L45.70214930555556,51.35825042724609L45.76679166666666,41.13733835220336L45.83143402777778,62.38071098327636L46.09000347222222,36.697028160095215L46.801069444444444,-1.2448013305663892L47.18892361111111,48.435725498199474L47.38285069444444,35.81717319488524L47.512135416666666,65.81227025985719L47.7060625,54.02635946273803L48.48177083333333,54.18788452148438L48.869625000000006,61.034646320343015L49.19283680555555,45.97628746032714L49.25747916666667,33.28655204772949L49.386763888888886,80.2382692337036L49.64533333333333,84.23416185379028L49.90390277777777,72.5161594390869L50.0331875,68.28755865097047L50.356399305555556,66.14386167526244L51.26139236111111,67.16382093429566L51.51996180555555,92.19973239898681L51.58460416666667,86.36190719604492L51.84317361111111,73.20655288696288L51.90781597222222,55.79667005538941L52.16638541666667,69.3047833442688L52.231027777777776,59.17699842453003L52.3603125,78.14897661209106L52.554239583333334,55.15357446670532L52.87745138888889,82.63918418884278L52.94209375,68.53059740066529L53.32994791666666,63.93946409225464L53.39459027777778,73.64938373565674L53.45923263888889,71.18164072036744L53.65315972222222,60.0703067779541L54.23494097222222,77.61782941818238L54.75207986111111,103.75565271377563L55.78635763888889,57.41558361053467L56.044927083333334,93.66027746200561L56.432781250000005,81.30863227844237L56.691350694444445,63.24728136062622L56.82063541666667,68.36930866241455L57.273131944444444,67.73760709762574L57.59634375,83.78160810470581L57.66098611111111,51.83131341934204L58.69526388888889,116.14061908721925L59.14776041666667,86.29450521469117L59.535614583333334,94.5889494895935L59.600256944444446,50.32490530014037L59.72954166666667,66.69622707366943L60.11739583333333,62.92559852600097L60.69917708333333,74.63787860870362L60.828461805555555,73.65876903533935L60.89310416666667,71.18236656188965L61.087031249999995,76.73709669113158L61.47488541666667,80.47975502014161L62.05666666666667,60.448233890533444L62.25059375,77.55572776794433L62.31523611111111,50.28749914169312L62.89701736111111,90.2892837524414L62.96165972222222,99.65718011856079L63.86665277777778,66.90277118682862L63.931295138888885,72.8955551147461L64.06057986111111,75.45689792633057L64.18986458333333,75.94754991531373L65.09485763888888,125.3179060935974L65.41806944444444,73.80987911224365L65.54735416666666,42.271913051605225L65.74128125,69.10470428466796L66.2584201388889,133.96159830093384L66.64627430555555,60.57189702987671L66.77555902777779,71.56267375946045L66.96948611111111,99.24004068374634L67.35734027777778,78.61479806900024L67.68055208333332,54.6597152709961L67.74519444444445,58.7871202468872L68.32697569444444,85.85300788879395L68.45626041666667,80.14934520721435L68.71482986111111,69.4435709953308L68.77947222222222,101.75190811157226L69.10268402777777,118.08742733001708L69.36125347222222,75.05814085006715L69.42589583333333,96.04515638351441L69.74910763888889,92.7609935760498L69.87839236111111,88.9409571647644L69.94303472222222,85.93060541152954L70.07231944444445,72.77410326004029L70.20160416666667,52.67685127258301L70.26624652777778,67.70852279663086L70.52481597222221,84.27578802108765L70.58945833333334,81.70944871902465L71.04195486111111,139.79079780578613L71.17123958333333,132.6855351448059L71.55909375,129.6818510055542L71.68837847222223,119.11741333007814L72.01159027777778,103.82830438613891L72.33480208333333,60.44890909194946L72.46408680555555,77.00970926284789L73.23979513888888,87.7876118659973L73.69229166666668,115.8974115371704L73.75693402777777,91.39914608001709L73.88621875,121.59528436660767L73.95086111111111,81.69709253311157L74.01550347222222,110.50921983718872L74.08014583333333,115.49367485046386L74.20943055555556,90.332057762146L74.40335763888889,95.76575803756714L74.66192708333332,86.99901037216186L74.98513888888888,105.40042648315429L75.17906597222222,101.96451215744018L75.43763541666668,104.87199697494506L75.6315625,87.24724817276001L75.69620486111111,100.16641702651978L75.82548958333334,94.52661151885987L75.89013194444445,118.2129472732544L76.08405902777777,127.03030128479003L76.1487013888889,84.7234634399414L76.34262847222222,91.4387804031372L76.40727083333333,116.19190063476563L76.73048263888889,90.47876214981079L76.795125,106.18836965560914L77.24762152777778,84.12157201766968L77.44154861111112,113.89181013107299L77.70011805555556,89.113285446167L77.89404513888888,77.72159099578857L78.02332986111111,94.69375762939453L78.15261458333333,103.33999872207642L78.41118402777778,123.21367464065551L78.66975347222221,137.59482336044312L78.86368055555556,89.58482923507691L78.92832291666666,89.3730016708374L78.99296527777777,105.5824776649475L79.0576076388889,93.47479963302612L79.44546180555557,126.77656059265138L79.83331597222222,155.07465705871581L79.96260069444445,120.0408356666565L80.02724305555554,110.42326669692993L80.2858125,76.39520845413209L80.47973958333334,80.59756078720092L80.54438194444445,84.6460684776306L80.73830902777777,99.14254159927368L80.80295138888889,119.26811828613282L80.86759375000001,134.81756801605223L80.99687847222222,100.51814632415771L81.12616319444444,85.4058219909668L81.70794444444445,95.19558420181275L81.77258680555555,80.1556921005249L81.9665138888889,74.71448020935058L82.03115625,82.06192073822022L82.0957986111111,83.0980679512024L82.22508333333333,79.64339990615845L82.28972569444446,107.80968017578125L82.67757986111111,101.02937507629395L82.93614930555555,98.94983911514282L83.00079166666667,129.06036186218262L83.1300763888889,99.50912532806396L83.2593611111111,110.20629072189331L83.45328819444445,81.92417964935304L83.51793055555555,91.6370195388794L83.58257291666666,149.35469670295714L83.64721527777778,103.61561594009399L83.84114236111111,81.09140310287476L84.09971180555556,146.4059992790222L84.29363888888889,126.20891876220702L84.4229236111111,80.03832521438598L84.48756597222223,81.07673435211181L84.55220833333334,92.68533725738526L84.9400625,81.82965145111085L85.00470486111111,110.50908479690551L85.13398958333335,151.55462107658386L85.32791666666667,121.35236377716063L85.58648611111111,63.92992687225342L85.78041319444444,74.03878927230835L85.97434027777778,88.95253686904907L86.03898263888888,84.25833406448363L86.29755208333334,82.54141502380371L86.42683680555555,131.48997287750245L86.75004861111111,137.08138332366943L86.94397569444443,94.1564492225647L88.30146527777778,53.1173189163208L88.43075,120.4777247428894L88.49539236111112,95.52393465042114L88.75396180555556,207.17935953140258L88.88324652777779,99.09350509643555L89.14181597222223,101.7014874458313L89.27110069444444,106.31439599990844L89.40038541666667,95.5485626220703L89.52967013888889,96.25884075164795L89.72359722222222,121.35877819061278L90.11145138888888,116.70643787384034L90.37002083333333,106.52782716751099L90.82251736111111,92.60404300689697L90.88715972222224,99.21551399230957L90.95180208333333,102.9197196006775L91.01644444444445,134.54655904769896L91.33965625,105.03569955825806L91.46894097222223,87.35987176895141L91.66286805555556,94.2520239830017L91.72751041666668,126.61977882385253L91.79215277777777,105.29406538009644L91.85679513888888,135.62087202072144L92.37393402777778,107.91025142669677L92.43857638888889,96.18932876586913L92.63250347222221,95.690793800354L93.08500000000001,108.965456199646L93.27892708333333,131.70656061172485L93.79606597222221,87.96201639175415L93.86070833333333,157.85425872802733L93.98999305555556,100.04395236968995L94.05463541666666,108.2483416557312L94.11927777777777,127.25364103317261L94.31320486111112,115.54001054763793L94.37784722222221,87.47094240188598L94.63641666666666,89.20523099899292L94.95962847222222,126.58767299652101L95.02427083333333,117.53274936676024L95.28284027777778,92.6401494026184L95.34748263888889,114.79911203384398L95.412125,99.83663177490234L95.47676736111111,120.86377115249633L95.67069444444445,141.74459438323976L95.73533680555556,105.30721492767334L95.79997916666666,96.44472370147705L95.99390625000001,119.57217836380005L96.0585486111111,97.21712036132813L96.5756875,139.38481607437134L96.83425694444445,108.47353820800781L96.96354166666666,94.34143753051758L97.0928263888889,101.1012502670288L97.15746875,94.08351058959961L97.35139583333333,97.95474414825439L97.60996527777777,140.29363718032837L97.67460763888889,145.8263473033905L97.73925000000001,117.26044063568116L97.93317708333333,126.42977714538574L98.45031597222221,94.186563205719L98.57960069444445,65.09702939987183L98.8381701388889,80.2942265510559L98.90281250000001,176.96738777160644L99.09673958333333,205.43537335395814L99.22602430555555,95.69263372421264L99.35530902777778,106.94256963729859L99.67852083333334,109.51743335723877L100.38958680555555,91.16429414749146L100.51887152777778,79.24786691665649L100.90672569444445,90.57580547332763L100.97136805555554,160.55540199279784L101.10065277777778,114.61579484939574L101.22993749999999,124.60587244033815L101.48850694444445,87.3465027809143L101.7470763888889,96.44298505783081L101.87636111111111,115.06169786453248L102.19957291666667,96.31651983261108L102.26421527777778,106.02427883148194L102.32885763888889,125.66560106277467L102.84599652777779,75.71956815719604L103.23385069444444,100.21852569580078L103.4924201388889,96.80490989685059L103.5570625,126.11432304382325L103.62170486111111,126.54214754104615L104.2034861111111,89.2905089378357L104.33277083333334,127.81660709381103L104.52669791666666,98.97308292388917L104.91455208333333,100.51406135559083L104.97919444444445,138.3587968826294L105.43169097222223,106.17938947677612L105.56097569444444,130.06101036071777L106.46596875,107.64655151367188L106.85382291666667,106.8831687927246L106.91846527777778,91.82028608322143L106.98310763888888,136.71569423675538L107.17703472222223,101.48219890594483L107.24167708333333,118.84601612091063L107.30631944444444,125.48304347991944L108.46988194444444,120.80837087631227L108.59916666666668,98.78406028747558L108.72845138888889,122.55013732910157L109.18094791666667,113.0104866027832L109.24559027777777,97.76339206695556L109.50415972222223,130.84711360931396L109.63344444444445,148.14638156890868L109.76272916666667,142.28367519378662L110.08594097222223,102.24644250869751L110.21522569444444,105.04282293319702L110.34451041666668,129.21852779388428L110.60307986111111,122.55638294219972L111.24950347222222,219.48037304878235L111.50807291666668,129.05575361251832L111.76664236111112,117.88557586669921L111.83128472222222,170.2719048500061L111.89592708333333,166.26845841407777L112.02521180555556,160.93686547279358L112.21913888888889,138.27124013900757L112.41306597222221,103.23684482574463L112.54235069444445,114.3502550125122L112.73627777777777,128.36579904556274L113.12413194444444,134.81827697753906L113.25341666666667,112.26489543914795L113.38270138888889,128.6975423812866L113.44734375,114.63427848815917L113.64127083333334,102.55222434997559L113.77055555555556,115.06959772109985L113.9644826388889,94.92688779830932L114.48162152777778,119.63087024688721L114.80483333333333,141.71515560150146L114.93411805555556,155.52003679275512L115.32197222222221,116.9122223854065L115.58054166666666,107.69172248840331L115.64518402777777,101.57458333969116L115.70982638888889,132.88212003707886L115.77446875000001,160.15413823127747L116.16232291666667,158.19729480743408L116.35625,134.30424613952636L116.80874652777777,99.00797395706176L116.93803125000001,102.59428939819335L117.13195833333333,115.54330215454101L117.19660069444446,115.30887222290039L117.39052777777778,130.91893815994263L117.77838194444445,152.3911196708679L117.90766666666666,138.09605913162233L118.10159375,184.57578520774842L118.29552083333334,112.27426385879517L118.36016319444445,133.53414516448976L118.42480555555555,107.73090105056762L118.48944791666666,154.03910064697266L118.55409027777777,125.74002513885497L118.94194444444445,112.33433990478515L119.71765277777779,128.65627069473265L120.10550694444446,101.32013368606567L120.42871874999999,131.4323444366455L120.68728819444443,108.08939924240113L121.13978472222223,105.4048996925354L121.26906944444444,77.17189264297485L121.59228125,152.02344717979432L121.65692361111111,107.17247571945191L121.85085069444443,113.99038953781127L121.91549305555556,108.03410024642945L122.04477777777778,122.61645898818969L122.1094201388889,127.77589244842528L122.30334722222223,104.09797983169555L123.40226736111111,114.94841594696044L123.46690972222223,142.8924621105194L123.53155208333334,123.57227411270142L123.85476388888888,102.40278539657592L124.04869097222223,128.5361354827881L124.30726041666667,96.06451778411865L124.37190277777779,94.65191202163696L124.43654513888889,93.38781681060792L124.69511458333332,153.2462369441986L124.75975694444445,121.50764322280884L124.95368402777778,122.79027271270752L125.21225347222223,149.78714632987976L125.34153819444444,150.65106654167175L126.18188888888888,118.88522844314576L126.24653125,106.29044322967529L126.8283125,115.81280879974366L126.89295486111111,123.58545742034912L127.60402083333332,108.97158365249634L128.0565173611111,113.74559526443483L128.12115972222222,130.47848739624024L128.31508680555555,114.70210247039796L128.44437152777778,126.80724849700928L128.5090138888889,109.26031665802002L129.02615277777778,136.44807815551758L129.0907951388889,124.19548501968384L129.1554375,129.07357892990112L129.41400694444445,142.8489538192749L129.54329166666668,110.40797338485717L129.6725763888889,109.3715898513794L130.18971527777776,151.08183660507203L130.51292708333332,110.59075040817261L130.57756944444444,140.00522489547728L130.77149652777777,113.04299755096434L131.22399305555555,131.01496868133546L131.35327777777778,114.89347143173217L131.9997013888889,115.8232744216919L132.32291319444445,141.99057025909423L132.38755555555556,131.38237953186035L132.5168402777778,110.43310775756837L132.5814826388889,146.2454448223114L132.96933680555557,129.2803931236267L133.42183333333332,124.14984140396118L133.48647569444444,150.39243063926696L134.06825694444444,114.91090850830079L134.3268263888889,121.03733167648315L134.4561111111111,109.37624874114991L134.71468055555556,160.13218574523927L135.29646180555554,117.2282166481018L135.4257465277778,132.7972303390503L135.6196736111111,143.51206912994385L135.74895833333335,142.95514612197877L135.81360069444446,205.6980013847351L136.13681250000002,102.5870141029358L136.65395138888888,143.1862422466278L136.7832361111111,147.7148687839508L137.2357326388889,112.44611949920655L137.300375,119.5051646232605L137.55894444444445,114.59472856521606L137.88215624999998,113.97713871002196L138.07608333333334,103.0325119972229L138.20536805555554,124.70833425521852L138.3992951388889,141.80121846199035L138.5932222222222,119.01005630493165L138.85179166666666,170.98658022880554L139.36893055555555,138.65548038482666L139.88606944444444,104.91055097579957L140.01535416666667,122.86814031600952L140.1446388888889,129.91557197570802L140.33856597222223,115.37703380584716L140.40320833333334,119.10257577896118L140.7910625,121.42666969299316L140.85570486111112,141.1202862739563L141.37284375,135.0751742362976L141.56677083333335,106.33259267807007L141.63141319444443,134.20965042114258L141.69605555555555,108.51919870376587L141.76069791666666,136.05993862152098L141.88998263888888,169.3987428188324L142.08390972222222,109.66184206008911L142.53640625,129.85184984207154L142.6010486111111,133.15024251937865L142.92426041666667,144.88145356178285L143.0535451388889,100.7378568649292L143.1181875,150.08507895469666L143.18282986111112,112.58308410644531L143.76461111111112,90.86614208221435L144.02318055555557,131.24136371612548L144.1524652777778,110.2964638710022L144.21710763888888,106.12165975570679L144.3463923611111,116.63771924972534L144.66960416666666,123.19000883102416L144.73424652777777,109.14436769485474L144.86353125,116.80611448287965L144.9281736111111,131.5009617805481L144.99281597222222,107.5313621520996L145.18674305555555,122.45760097503663L145.31602777777778,135.29263973236084L145.4453125,123.42759532928466L146.22102083333334,137.54548301696778L146.73815972222224,123.20177421569824L147.12601388888888,99.57747259140015L147.19065625,142.91242275238037L147.57851041666666,112.35380258560181L147.64315277777777,156.54089913368225L147.70779513888888,129.04081478118897L148.22493402777778,143.41732149124147L148.67743055555553,163.55005531311036L149.19456944444443,144.06860389709473L149.25921180555554,118.11252794265747L149.4531388888889,145.63026037216187L149.90563541666666,119.79828643798828L150.03492013888888,128.07736988067626L150.29348958333335,141.12568788528444L150.93991319444444,129.84366302490236L151.00455555555556,148.90513916015624L151.1984826388889,148.3070373058319L151.52169444444442,177.43731107711793L151.7802638888889,141.28817510604858L152.62061458333332,126.23800306320192L152.74989930555554,148.22179312705993L152.81454166666666,139.15163526535034L153.20239583333333,130.50821313858032L153.26703819444444,117.14460983276368L153.33168055555555,120.23750495910645L153.46096527777777,99.63272094726562L153.59025,128.9508441925049L154.3659583333333,151.38695168495178L154.94773958333332,150.619078874588L155.2063090277778,164.90833268165588L155.52952083333332,122.04881715774536L155.59416319444443,169.81132464408876L155.91737500000002,122.7121687889099L155.98201736111113,114.0209930419922L156.30522916666666,117.23778762817383L156.36987152777778,136.11491689682006L156.75772569444445,135.8309609413147L157.0162951388889,161.50095405578614L157.14557986111112,124.64950733184816L157.2748645833333,109.84571628570556L157.66271875,118.0882206916809L157.85664583333332,137.0714916229248L157.98593055555554,172.30963740348815L158.1798576388889,153.84677796363832L158.3737847222222,118.6499545097351L158.56771180555555,126.84526233673097L158.69699652777777,151.29452505111695L159.14949305555555,137.3916721343994L159.27877777777778,120.56372852325438L160.0544861111111,143.23625779151917L160.1191284722222,137.8753695487976L160.1837708333333,122.29134950637817L161.0887638888889,199.4532154083252L161.34733333333332,123.58928918838501L161.60590277777777,122.16061363220214L161.6705451388889,126.30611400604249L161.86447222222222,142.23835229873657L161.92911458333333,172.1039879322052L162.12304166666667,156.12741422653198L162.2523263888889,106.70729570388794L162.38161111111108,114.72132883071899L162.70482291666667,155.47514433860778L162.89875,121.004398727417L163.0280347222222,157.8738142490387L163.22196180555557,124.13431177139282L163.4158888888889,132.9443736076355L163.6098159722222,134.41229524612427L163.73910069444443,121.56657142639159L163.9330277777778,122.08926172256469L164.1269548611111,166.68313336372375L164.1915972222222,127.61308450698851L164.38552430555555,146.32856211662292L165.1612326388889,134.11721534729003L165.2905173611111,113.72527170181274L165.61372916666667,157.22808537483215L165.8722986111111,130.55676012039186L165.9369409722222,226.7785280942917L166.00158333333334,169.9816020011902L166.13086805555557,117.63649406433106L166.19551041666668,123.31551189422606L166.3247951388889,142.6152244091034L166.4540798611111,134.52130651474L166.64800694444443,133.59472761154174L166.71264930555557,152.66034779548644L166.97121875,141.12372980117797L167.29443055555555,137.0489905357361L167.4237152777778,127.81812629699706L167.87621180555556,106.43907194137573L168.00549652777778,154.49778184890747L168.07013888888886,150.7603478908539L168.26406597222223,137.96378717422485L168.39335069444445,165.45652871131898L168.65192013888887,131.4412064552307L168.8458472222222,129.57079725265504L168.97513194444446,131.55153436660765L169.10441666666668,157.80615062713622L169.1690590277778,141.08163099288942L169.49227083333332,148.69755692481993L169.7508402777778,147.88279981613158L169.81548263888888,164.0359133720398L169.880125,124.03878765106202L170.13869444444444,146.46314663887023L170.20333680555555,135.43443202972412L170.3326215277778,128.12436389923096L170.5265486111111,144.24405498504638L170.59119097222222,131.18689184188844L170.65583333333333,132.17773303985595L170.78511805555556,152.39756784439086L170.84976041666667,145.4633252620697L170.97904513888886,191.42788109779357L171.30225694444445,132.66414813995362L171.36689930555556,143.84409098625184L171.75475347222223,120.82839059829712L171.81939583333335,139.86049547195435L171.88403819444446,128.99675788879395L172.14260763888888,117.12239570617675L172.2718923611111,130.88360824584962L172.40117708333332,185.6075942516327L172.65974652777777,144.82138595581054L173.3061701388889,161.41674799919127L173.4354548611111,126.03231983184816L173.56473958333333,158.15745792388915L173.62938194444445,206.2813500881195L173.88795138888887,135.32683868408202L174.01723611111112,127.86662263870238L174.08187847222223,152.0663055896759L174.14652083333334,124.17004680633545L174.5990173611111,110.82629442214966L174.85758680555557,152.02370882034302L175.05151388888888,127.11664266586303L175.6979375,140.04263105392457L175.7625798611111,176.28391513824462L176.02114930555558,168.5902819633484L176.15043402777778,142.6675356388092L176.3443611111111,135.44558973312377L176.47364583333334,135.39758291244507L176.53828819444445,147.38795313835143L176.66757291666664,136.60815153121948L176.73221527777775,129.02368154525757L176.7968576388889,124.18922252655028L176.8615,133.80186252593995L176.99078472222223,166.78975610733033L177.12006944444445,170.17647356986998L177.18471180555557,134.2018012046814L177.44328124999998,107.7471396446228L177.50792361111112,135.73094673156737L177.63720833333335,135.92251825332642L177.83113541666665,116.20057697296141L178.1543472222222,164.1346953392029L178.93005555555558,136.16062803268431L179.188625,147.81090774536133L179.38255208333334,136.52319431304932L179.83504861111112,173.97163724899292L180.02897569444445,124.16395311355592L180.41682986111113,145.90538806915282L180.48147222222224,135.3986463546753L180.61075694444446,123.8782753944397L180.80468402777777,146.05816926956177L180.9986111111111,120.82739467620848L181.06325347222221,125.2134355545044L181.12789583333335,163.10573902130128L181.70967708333333,169.01616525650024L181.77431944444447,212.45958652496338L181.83896180555553,133.94912395477294L181.90360416666667,153.27533812522887L182.0328888888889,167.60808334350585L182.16217361111111,141.812038564682L182.35610069444445,201.46442942619325L182.80859722222223,118.51125125885011L182.87323958333334,147.11865749359131L182.93788194444446,125.68344326019286L183.00252430555554,120.68384685516358L183.51966319444446,128.85886487960815L184.10144444444444,125.05231561660767L184.42465625,127.2960099220276L184.87715277777778,143.22407884597777L184.9417951388889,127.70617790222167L185.13572222222223,177.80155692100524L185.84678819444443,162.73805809020996L186.04071527777776,151.22980699539184L186.23464236111113,150.02428550720214L186.29928472222224,153.16132192611695L186.36392708333335,136.82217350006104L186.49321180555555,138.69325790405273L187.01035069444444,141.18183088302612L187.13963541666666,134.29006690979003L187.2689201388889,156.8589105606079L187.3982048611111,133.9820400238037L188.04462847222223,141.14287176132203L188.56176736111112,226.05644237995148L188.62640972222223,157.3587115287781L188.94962152777777,137.99663572311403L189.33747569444444,134.41573877334594L189.85461458333333,140.42997722625734L190.24246875,160.23079047203063L190.3071111111111,132.82535247802736L190.37175347222222,135.65942602157594L190.4363958333333,143.17643494606017L190.56568055555556,159.3165846347809L190.88889236111112,160.9641436100006L191.85852777777777,158.6092183113098L192.1170972222222,127.34082641601563L192.24638194444444,144.81011853218078L192.50495138888888,132.16102180480956L192.56959375,153.64109473228456L192.69887847222222,123.86306648254396L193.02209027777778,143.8988667011261L193.2160173611111,157.11245713233947L193.3453020833333,168.1839288711548L193.53922916666667,142.7980689525604L193.60387152777778,204.06937336921692L193.6685138888889,142.2216326236725L194.3149375,146.1669104576111L194.37957986111113,169.34768071174622L194.50886458333332,128.66428871154784L194.57350694444443,131.2764741897583L194.63814930555554,123.4551941871643L194.70279166666666,111.78492851257325L194.96136111111113,145.7577299594879L195.09064583333333,139.8709610939026L195.28457291666666,141.193123626709L195.41385763888889,145.2903302192688L195.54314236111114,143.78923931121827L195.67242708333333,166.91476964950562L196.25420833333334,165.06610193252564L196.51277777777779,147.93121175765992L196.6420625,142.9306869506836L196.7713472222222,145.00657682418824L196.90063194444443,164.91701745986938L197.0945590277778,172.16814050674438L197.2884861111111,134.5433180809021L197.6763402777778,186.82540440559387L197.7409826388889,132.10057439804078L197.99955208333333,152.17030348777772L198.19347916666666,176.04183011054994L198.38740625000003,141.0331852912903L198.51669097222222,138.35410423278807L198.83990277777778,152.0616129398346L199.0984722222222,156.99476952552794L199.29239930555556,132.56877593994142L199.35704166666667,183.3304437160492L199.4216840277778,151.79253673553467L199.4863263888889,180.80428733825684L199.6802534722222,132.53670387268068L199.93882291666668,122.84368114471437L200.32667708333332,130.26330070495607L200.39131944444443,126.35867843627929L200.5852465277778,135.7136953353882L201.10238541666666,142.98799467086792L201.16702777777778,140.356059551239L201.42559722222222,155.36648755073549L201.55488194444445,125.59082250595094L201.61952430555556,105.58997240066529L201.8134513888889,106.65285758972168L201.87809374999998,125.78399763107299L202.00737847222223,119.00767621994018L202.20130555555556,155.14908113479615L202.26594791666668,129.42463302612305L202.3952326388889,142.35402274131775L202.78308680555557,136.95194721221924L202.9770138888889,173.02578134536742L203.1709409722222,162.51617002487183L203.23558333333332,123.61489620208741L203.4941527777778,163.09186363220215L203.88200694444444,148.2938117980957L204.65771527777778,145.42656054496766L204.91628472222223,133.89350423812866L205.04556944444445,167.21785068511963L205.36878124999998,166.8916777610779L205.69199305555557,151.36895756721498L205.9505625,175.29129309654235L206.27377430555558,149.33816270828248L206.53234375,141.89741778373718L206.79091319444444,153.54119024276733L206.9848402777778,161.71673154830933L207.95447569444445,167.55996680259705L208.60089930555557,168.86717362403868L208.66554166666668,164.05703873634337L208.73018402777777,193.48012204170226L208.9241111111111,151.59698996543884L208.98875347222221,149.09602704048157L209.31196527777777,195.40299439430237L209.69981944444444,148.3589434146881L209.76446180555556,180.5002103805542L209.82910416666667,172.6958357334137L209.89374652777775,140.98868951797485L209.9583888888889,159.6848816871643L210.02303125,137.9441725730896L210.08767361111111,138.91080780029296L210.60481249999998,145.54461107254028L212.09158680555558,138.85868225097656L212.15622916666666,134.7118314743042L212.22087152777777,123.74622287750245L212.67336805555556,155.5747449874878L213.38443402777776,158.31812210083007L213.44907638888887,141.7984079360962L213.51371875,178.1015826702118L213.77228819444446,143.77932229042054L214.28942708333335,172.1477072238922L214.35406944444446,138.94038162231445L214.54799652777777,136.90451431274414L214.67728125,127.95858507156373L214.7419236111111,138.7271867752075L214.87120833333333,121.54621410369873L215.7762013888889,163.9758204460144L215.97012847222223,190.15263662338256L216.09941319444445,147.00772190093994L216.422625,128.61648445129396L216.61655208333335,157.70794258117675L216.81047916666665,132.80043754577636L217.39226041666666,155.90274095535278L217.45690277777777,154.9828718662262L217.84475694444447,156.62740087509155L217.97404166666666,150.74249725341798L218.03868402777778,128.39076461791993L218.42653819444445,144.48911933898927L218.62046527777778,200.5469741821289L218.6851076388889,177.17552704811095L219.00831944444445,134.71228723526002L219.13760416666665,182.03789720535278L219.2668888888889,188.8572036266327L219.46081597222224,139.5383062362671L219.52545833333335,151.9199894428253L220.04259722222224,135.58687562942504L220.36580902777777,219.5582701921463L220.49509375,137.12145652770997L220.5597361111111,145.58562955856323L220.62437847222222,131.46581754684448L220.88294791666667,143.1504903316498L221.33544444444442,148.2976520061493L221.5940138888889,133.92842903137208L221.78794097222223,138.70225496292113L221.98186805555554,130.86316652297972L222.49900694444443,156.13722996711732L222.82221875,128.45227546691893L223.53328472222225,165.48054900169373L223.85649652777778,136.78091869354247L223.98578125,147.20223054885864L224.0504236111111,139.84265327453613L224.24435069444442,147.278427028656L224.89077430555554,153.33411440849304L225.27862847222224,164.74430937767028L225.53719791666666,141.3965955734253L225.86040972222224,186.90110292434693L225.98969444444444,141.4314697265625L226.11897916666666,149.96020045280457L226.24826388888889,188.3557821750641L226.3775486111111,178.6209897994995L226.57147569444444,137.7585765838623L226.63611805555556,154.97991786003112L226.70076041666667,143.64672117233278L226.8946875,154.2353985786438L226.95932986111112,141.83503761291504L227.02397222222223,142.54296097755432L227.28254166666667,144.30835103988647L227.4118263888889,152.49047555923462L227.60575347222223,166.66461596488952L227.67039583333332,146.81908750534058L227.79968055555554,173.93245868682862L227.86432291666665,175.96921219825745L228.12289236111113,145.4845856666565L228.25217708333332,145.53453369140624L228.31681944444443,138.51588249206543L228.38146180555555,155.1347921848297L228.64003125000002,144.54100856781005L228.76931597222222,144.46390056610107L228.89860069444444,139.33898677825928L229.09252777777778,187.05899877548217L229.67430902777778,132.06407976150513L229.86823611111112,155.8903932094574L229.9975208333333,130.06382932662964L230.12680555555556,162.20969610214235L230.2560902777778,126.80674209594727L230.385375,140.27150745391845L230.96715625000002,146.40376267433166L231.22572569444444,132.5471188545227L231.35501041666666,159.67513346672058L231.54893750000002,172.3549687385559L232.0660763888889,133.66351375579833L232.32464583333334,179.70655331611633L232.58321527777778,171.54544444084166L232.97106944444445,174.84998145103455L233.1649965277778,192.2593156814575L233.4235659722222,129.76154165267945L233.55285069444443,152.1173339366913L233.8114201388889,141.96985845565797L233.87606250000002,151.53275299072266L234.32855902777777,163.37163333892823L234.5224861111111,187.656298828125L234.58712847222222,141.30703010559083L234.91034027777778,174.96568565368653L234.9749826388889,149.17748165130615L235.039625,141.58411588668824L235.16890972222222,169.02381191253662L235.36283680555556,145.50410742759703L235.6860486111111,186.03475198745727L235.87997569444445,194.49380192756652L235.94461805555557,156.0583242416382L236.0739027777778,163.6510570049286L236.46175694444443,138.20844640731812L237.10818055555555,133.75475034713745L237.56067708333333,183.56565856933594L237.75460416666667,158.3581868648529L237.81924652777778,145.26994757652284L238.27174305555556,140.09330492019654L238.33638541666667,135.90822086334228L238.40102777777778,148.17945799827575L238.4656701388889,159.19422125816345L238.78888194444446,139.86636972427368L238.9828090277778,131.1122314453125L240.46958333333333,137.00815773010254L240.53422569444444,144.90842785835267L240.72815277777778,148.13701314926146L240.85743749999997,139.86331443786622L241.18064930555556,153.5874837398529L241.37457638888887,140.38416481018066L241.43921874999998,145.61565070152284L241.5685034722222,157.58384056091307L241.63314583333334,151.95716772079467L242.0856423611111,143.65330438613893L242.1502847222222,170.76617760658263L242.27956944444446,162.41289796829224L242.79670833333333,147.37530999183656L242.86135069444444,157.38776206970215L243.1845625,167.28846831321715L243.2492048611111,165.49591827392578L243.63705902777778,198.90670738220214L243.76634375,153.90974049568177L243.89562847222223,186.6712896823883L244.02491319444445,150.10606083869934L244.28348263888887,156.1319211959839L244.47740972222223,142.99215559959413L244.73597916666668,147.13006839752197L245.12383333333332,141.85158004760743L245.3177604166667,139.48429012298584L245.38240277777777,182.42427277565002L245.44704513888888,155.17564187049865L245.83489930555555,170.8725893497467L246.35203819444445,140.73371658325195L246.61060763888887,160.26529326438904L246.73989236111112,141.29112911224365L246.80453472222223,140.47099571228028L246.86917708333334,164.45657229423523L247.12774652777776,162.8654685974121L247.45095833333335,210.2183060646057L247.9034548611111,151.3094638824463L248.16202430555558,147.8873827457428L248.42059375,148.3328384399414L248.4852361111111,161.30270648002625L248.67916319444444,147.53133215904236L248.9377326388889,172.49493799209594L249.0670173611111,161.60599007606507L249.45487152777775,171.5341348171234L249.64879861111112,140.65216913223267L249.77808333333334,139.50312824249266L249.90736805555557,190.48922452926635L250.03665277777776,181.64740290641785L250.23057986111112,174.0101237297058L250.35986458333335,140.40907974243163L250.55379166666665,177.8607214450836L250.8123611111111,138.44572906494142L250.94164583333335,128.81869039535522L251.3295,139.00930280685424L251.65271180555558,160.7776782989502L251.71735416666667,178.5731855392456L251.9759236111111,136.8345634460449L252.4284201388889,134.43807106018068L252.94555902777776,155.9430589199066L253.13948611111113,166.5554358959198L253.33341319444446,141.8974431037903L253.39805555555554,160.33045020103455L253.59198263888888,144.51476855278014L253.91519444444447,140.9517728805542L254.3030486111111,156.1587013721466L254.36769097222222,172.4710949420929L254.62626041666667,153.44640884399413L254.7555451388889,167.4061728000641L255.14339930555553,136.27897396087647L255.20804166666665,146.84853472709656L255.3373263888889,150.3498338699341L255.59589583333334,149.06366801261902L256.0483923611111,147.44327745437622L256.43624652777777,229.6270003080368L256.6301736111111,138.71560707092286L257.0180277777778,140.43080434799194L257.53516666666667,147.2177433013916L257.72909375,163.80431928634644L257.8583784722222,145.08843655586242L257.92302083333334,174.32246346473693L258.2462326388889,140.96596899032593L258.310875,166.67511534690857L258.3755173611111,155.21068482398988L258.50480208333335,120.62702865600585L258.63408680555557,147.6191589832306L258.6987291666667,139.828524684906L258.8280138888889,133.251185131073L259.1512256944444,142.13709740638734L259.7976493055555,154.43262491226196L259.86229166666664,146.0730912208557L260.18550347222225,159.81287455558777L260.3147881944444,150.63068389892578L260.37943055555553,150.67788891792299L260.63800000000003,151.64965567588806L260.70264236111115,121.63226852416992L260.96121180555554,137.45536050796508L261.09049652777776,163.98915567398072L261.4137083333333,214.38308765888215L261.47835069444443,151.83168153762819L261.67227777777777,149.87434859275817L261.9308472222222,143.97826194763184L262.70655555555555,150.0301597595215L262.8358402777778,164.94771380424498" style="fill: none;" fill="none"></path></g></g></g></g></g><g><g opacity="0.480793"><span style="white-space: normal;" fill="rgb(0, 0, 0)" stroke="none" stroke-width="1px">Alt + Scroll to Zoom</span></g></g></g><g transform="translate(39, 177)" clip-path="url(#clip_1)"><clipPath id="clip_1"><rect width="290" height="23"></rect></clipPath><g><g><line x1="0" y1="0" x2="0" y2="5" style="visibility: inherit;" fill="rgb(0, 0, 0)" stroke="rgb(204, 204, 204)" stroke-width="1px"></line><line x1="32.32118055555556" y1="0" x2="32.32118055555556" y2="5" style="visibility: inherit;" fill="rgb(0, 0, 0)" stroke="rgb(204, 204, 204)" stroke-width="1px"></line><line x1="64.64236111111111" y1="0" x2="64.64236111111111" y2="5" style="visibility: inherit;" fill="rgb(0, 0, 0)" stroke="rgb(204, 204, 204)" stroke-width="1px"></line><line x1="96.96354166666666" y1="0" x2="96.96354166666666" y2="5" style="visibility: inherit;" fill="rgb(0, 0, 0)" stroke="rgb(204, 204, 204)" stroke-width="1px"></line><line x1="129.28472222222223" y1="0" x2="129.28472222222223" y2="5" style="visibility: inherit;" fill="rgb(0, 0, 0)" stroke="rgb(204, 204, 204)" stroke-width="1px"></line><line x1="161.60590277777777" y1="0" x2="161.60590277777777" y2="5" style="visibility: inherit;" fill="rgb(0, 0, 0)" stroke="rgb(204, 204, 204)" stroke-width="1px"></line><line x1="193.92708333333331" y1="0" x2="193.92708333333331" y2="5" style="visibility: inherit;" fill="rgb(0, 0, 0)" stroke="rgb(204, 204, 204)" stroke-width="1px"></line><line x1="226.24826388888889" y1="0" x2="226.24826388888889" y2="5" style="visibility: inherit;" fill="rgb(0, 0, 0)" stroke="rgb(204, 204, 204)" stroke-width="1px"></line><line x1="258.56944444444446" y1="0" x2="258.56944444444446" y2="5" style="visibility: inherit;" fill="rgb(0, 0, 0)" stroke="rgb(204, 204, 204)" stroke-width="1px"></line><line x1="290.890625" y1="0" x2="290.890625" y2="5" style="visibility: inherit;" fill="rgb(0, 0, 0)" stroke="rgb(204, 204, 204)" stroke-width="1px"></line></g><g transform="translate(0, 8)"><text x="0" y="0" dx="0em" dy="0.95em" style="text-anchor: middle; visibility: hidden; font-family: &quot;Helvetica Neue&quot;, sans-serif; font-size: 12px; font-weight: 200;" fill="rgb(50, 49, 63)" stroke="none" stroke-width="1px">-500</text><text x="32.32118055555556" y="0" dx="0em" dy="0.95em" style="text-anchor: middle; visibility: inherit; font-family: &quot;Helvetica Neue&quot;, sans-serif; font-size: 12px; font-weight: 200;" fill="rgb(50, 49, 63)" stroke="none" stroke-width="1px">0</text><text x="64.64236111111111" y="0" dx="0em" dy="0.95em" style="text-anchor: middle; visibility: inherit; font-family: &quot;Helvetica Neue&quot;, sans-serif; font-size: 12px; font-weight: 200;" fill="rgb(50, 49, 63)" stroke="none" stroke-width="1px">500</text><text x="96.96354166666666" y="0" dx="0em" dy="0.95em" style="text-anchor: middle; visibility: inherit; font-family: &quot;Helvetica Neue&quot;, sans-serif; font-size: 12px; font-weight: 200;" fill="rgb(50, 49, 63)" stroke="none" stroke-width="1px">1k</text><text x="129.28472222222223" y="0" dx="0em" dy="0.95em" style="text-anchor: middle; visibility: inherit; font-family: &quot;Helvetica Neue&quot;, sans-serif; font-size: 12px; font-weight: 200;" fill="rgb(50, 49, 63)" stroke="none" stroke-width="1px">1.5k</text><text x="161.60590277777777" y="0" dx="0em" dy="0.95em" style="text-anchor: middle; visibility: inherit; font-family: &quot;Helvetica Neue&quot;, sans-serif; font-size: 12px; font-weight: 200;" fill="rgb(50, 49, 63)" stroke="none" stroke-width="1px">2k</text><text x="193.92708333333331" y="0" dx="0em" dy="0.95em" style="text-anchor: middle; visibility: inherit; font-family: &quot;Helvetica Neue&quot;, sans-serif; font-size: 12px; font-weight: 200;" fill="rgb(50, 49, 63)" stroke="none" stroke-width="1px">2.5k</text><text x="226.24826388888889" y="0" dx="0em" dy="0.95em" style="text-anchor: middle; visibility: inherit; font-family: &quot;Helvetica Neue&quot;, sans-serif; font-size: 12px; font-weight: 200;" fill="rgb(50, 49, 63)" stroke="none" stroke-width="1px">3k</text><text x="258.56944444444446" y="0" dx="0em" dy="0.95em" style="text-anchor: middle; visibility: inherit; font-family: &quot;Helvetica Neue&quot;, sans-serif; font-size: 12px; font-weight: 200;" fill="rgb(50, 49, 63)" stroke="none" stroke-width="1px">3.5k</text><text x="290.890625" y="0" dx="0em" dy="0.95em" style="text-anchor: middle; visibility: hidden; font-family: &quot;Helvetica Neue&quot;, sans-serif; font-size: 12px; font-weight: 200;" fill="rgb(50, 49, 63)" stroke="none" stroke-width="1px">4k</text></g><line x1="0" y1="0" x2="290.890625" y2="0" fill="rgb(0, 0, 0)" stroke="rgb(204, 204, 204)" stroke-width="1px"></line></g></g></g></g></svg>