<svg viewBox="0 0 330 200" xmlns="http://www.w3.org/2000/svg"><g><g><g><g><g><line x1="39.109375" y1="177" x2="34.109375" y2="177" style="visibility: inherit;" fill="rgb(0, 0, 0)" stroke="rgb(204, 204, 204)" stroke-width="1px"></line><line x1="39.109375" y1="165.2" x2="34.109375" y2="165.2" style="visibility: inherit;" fill="rgb(0, 0, 0)" stroke="rgb(204, 204, 204)" stroke-width="1px"></line><line x1="39.109375" y1="153.4" x2="34.109375" y2="153.4" style="visibility: inherit;" fill="rgb(0, 0, 0)" stroke="rgb(204, 204, 204)" stroke-width="1px"></line><line x1="39.109375" y1="141.6" x2="34.109375" y2="141.6" style="visibility: inherit;" fill="rgb(0, 0, 0)" stroke="rgb(204, 204, 204)" stroke-width="1px"></line><line x1="39.109375" y1="129.8" x2="34.109375" y2="129.8" style="visibility: inherit;" fill="rgb(0, 0, 0)" stroke="rgb(204, 204, 204)" stroke-width="1px"></line><line x1="39.109375" y1="118" x2="34.109375" y2="118" style="visibility: inherit;" fill="rgb(0, 0, 0)" stroke="rgb(204, 204, 204)" stroke-width="1px"></line><line x1="39.109375" y1="106.2" x2="34.109375" y2="106.2" style="visibility: inherit;" fill="rgb(0, 0, 0)" stroke="rgb(204, 204, 204)" stroke-width="1px"></line><line x1="39.109375" y1="94.4" x2="34.109375" y2="94.4" style="visibility: inherit;" fill="rgb(0, 0, 0)" stroke="rgb(204, 204, 204)" stroke-width="1px"></line><line x1="39.109375" y1="82.6" x2="34.109375" y2="82.6" style="visibility: inherit;" fill="rgb(0, 0, 0)" stroke="rgb(204, 204, 204)" stroke-width="1px"></line><line x1="39.109375" y1="70.8" x2="34.109375" y2="70.8" style="visibility: inherit;" fill="rgb(0, 0, 0)" stroke="rgb(204, 204, 204)" stroke-width="1px"></line><line x1="39.109375" y1="59" x2="34.109375" y2="59" style="visibility: inherit;" fill="rgb(0, 0, 0)" stroke="rgb(204, 204, 204)" stroke-width="1px"></line><line x1="39.109375" y1="47.20000000000002" x2="34.109375" y2="47.20000000000002" style="visibility: inherit;" fill="rgb(0, 0, 0)" stroke="rgb(204, 204, 204)" stroke-width="1px"></line><line x1="39.109375" y1="35.400000000000006" x2="34.109375" y2="35.400000000000006" style="visibility: inherit;" fill="rgb(0, 0, 0)" stroke="rgb(204, 204, 204)" stroke-width="1px"></line><line x1="39.109375" y1="23.599999999999994" x2="34.109375" y2="23.599999999999994" style="visibility: inherit;" fill="rgb(0, 0, 0)" stroke="rgb(204, 204, 204)" stroke-width="1px"></line><line x1="39.109375" y1="11.800000000000011" x2="34.109375" y2="11.800000000000011" style="visibility: inherit;" fill="rgb(0, 0, 0)" stroke="rgb(204, 204, 204)" stroke-width="1px"></line><line x1="39.109375" y1="0" x2="34.109375" y2="0" style="visibility: inherit;" fill="rgb(0, 0, 0)" stroke="rgb(204, 204, 204)" stroke-width="1px"></line></g><g transform="translate(29.109375, 0)"><text x="0" y="177" dx="0em" dy="0.3em" style="text-anchor: end; visibility: hidden; font-family: &quot;Helvetica Neue&quot;, sans-serif; font-size: 12px; font-weight: 200;" fill="rgb(50, 49, 63)" stroke="none" stroke-width="1px">-40</text><text x="0" y="165.2" dx="0em" dy="0.3em" style="text-anchor: end; visibility: inherit; font-family: &quot;Helvetica Neue&quot;, sans-serif; font-size: 12px; font-weight: 200;" fill="rgb(50, 49, 63)" stroke="none" stroke-width="1px">-20</text><text x="0" y="153.4" dx="0em" dy="0.3em" style="text-anchor: end; visibility: hidden; font-family: &quot;Helvetica Neue&quot;, sans-serif; font-size: 12px; font-weight: 200;" fill="rgb(50, 49, 63)" stroke="none" stroke-width="1px">0</text><text x="0" y="141.6" dx="0em" dy="0.3em" style="text-anchor: end; visibility: hidden; font-family: &quot;Helvetica Neue&quot;, sans-serif; font-size: 12px; font-weight: 200;" fill="rgb(50, 49, 63)" stroke="none" stroke-width="1px">20</text><text x="0" y="129.8" dx="0em" dy="0.3em" style="text-anchor: end; visibility: inherit; font-family: &quot;Helvetica Neue&quot;, sans-serif; font-size: 12px; font-weight: 200;" fill="rgb(50, 49, 63)" stroke="none" stroke-width="1px">40</text><text x="0" y="118" dx="0em" dy="0.3em" style="text-anchor: end; visibility: hidden; font-family: &quot;Helvetica Neue&quot;, sans-serif; font-size: 12px; font-weight: 200;" fill="rgb(50, 49, 63)" stroke="none" stroke-width="1px">60</text><text x="0" y="106.2" dx="0em" dy="0.3em" style="text-anchor: end; visibility: hidden; font-family: &quot;Helvetica Neue&quot;, sans-serif; font-size: 12px; font-weight: 200;" fill="rgb(50, 49, 63)" stroke="none" stroke-width="1px">80</text><text x="0" y="94.4" dx="0em" dy="0.3em" style="text-anchor: end; visibility: inherit; font-family: &quot;Helvetica Neue&quot;, sans-serif; font-size: 12px; font-weight: 200;" fill="rgb(50, 49, 63)" stroke="none" stroke-width="1px">100</text><text x="0" y="82.6" dx="0em" dy="0.3em" style="text-anchor: end; visibility: hidden; font-family: &quot;Helvetica Neue&quot;, sans-serif; font-size: 12px; font-weight: 200;" fill="rgb(50, 49, 63)" stroke="none" stroke-width="1px">120</text><text x="0" y="70.8" dx="0em" dy="0.3em" style="text-anchor: end; visibility: hidden; font-family: &quot;Helvetica Neue&quot;, sans-serif; font-size: 12px; font-weight: 200;" fill="rgb(50, 49, 63)" stroke="none" stroke-width="1px">140</text><text x="0" y="59" dx="0em" dy="0.3em" style="text-anchor: end; visibility: inherit; font-family: &quot;Helvetica Neue&quot;, sans-serif; font-size: 12px; font-weight: 200;" fill="rgb(50, 49, 63)" stroke="none" stroke-width="1px">160</text><text x="0" y="47.20000000000002" dx="0em" dy="0.3em" style="text-anchor: end; visibility: hidden; font-family: &quot;Helvetica Neue&quot;, sans-serif; font-size: 12px; font-weight: 200;" fill="rgb(50, 49, 63)" stroke="none" stroke-width="1px">180</text><text x="0" y="35.400000000000006" dx="0em" dy="0.3em" style="text-anchor: end; visibility: hidden; font-family: &quot;Helvetica Neue&quot;, sans-serif; font-size: 12px; font-weight: 200;" fill="rgb(50, 49, 63)" stroke="none" stroke-width="1px">200</text><text x="0" y="23.599999999999994" dx="0em" dy="0.3em" style="text-anchor: end; visibility: inherit; font-family: &quot;Helvetica Neue&quot;, sans-serif; font-size: 12px; font-weight: 200;" fill="rgb(50, 49, 63)" stroke="none" stroke-width="1px">220</text><text x="0" y="11.800000000000011" dx="0em" dy="0.3em" style="text-anchor: end; visibility: hidden; font-family: &quot;Helvetica Neue&quot;, sans-serif; font-size: 12px; font-weight: 200;" fill="rgb(50, 49, 63)" stroke="none" stroke-width="1px">240</text><text x="0" y="0" dx="0em" dy="0.3em" style="text-anchor: end; visibility: hidden; font-family: &quot;Helvetica Neue&quot;, sans-serif; font-size: 12px; font-weight: 200;" fill="rgb(50, 49, 63)" stroke="none" stroke-width="1px">260</text></g><line x1="39.109375" y1="0" x2="39.109375" y2="177" fill="rgb(0, 0, 0)" stroke="rgb(204, 204, 204)" stroke-width="1px"></line></g></g><g transform="translate(39, 0)" clip-path="url(#clip_0)"><clipPath id="clip_0"><rect width="290" height="177"></rect></clipPath><g><g><g><line x1="0" y1="0" x2="0" y2="177" fill="rgb(0, 0, 0)" stroke="rgb(60, 60, 60)" stroke-width="1px" opacity="0.25"></line><line x1="32.32118055555556" y1="0" x2="32.32118055555556" y2="177" fill="rgb(0, 0, 0)" stroke="rgb(60, 60, 60)" stroke-width="1px" opacity="0.25"></line><line x1="64.64236111111111" y1="0" x2="64.64236111111111" y2="177" fill="rgb(0, 0, 0)" stroke="rgb(60, 60, 60)" stroke-width="1px" opacity="0.25"></line><line x1="96.96354166666666" y1="0" x2="96.96354166666666" y2="177" fill="rgb(0, 0, 0)" stroke="rgb(60, 60, 60)" stroke-width="1px" opacity="0.25"></line><line x1="129.28472222222223" y1="0" x2="129.28472222222223" y2="177" fill="rgb(0, 0, 0)" stroke="rgb(60, 60, 60)" stroke-width="1px" opacity="0.25"></line><line x1="161.60590277777777" y1="0" x2="161.60590277777777" y2="177" fill="rgb(0, 0, 0)" stroke="rgb(60, 60, 60)" stroke-width="1px" opacity="0.25"></line><line x1="193.92708333333331" y1="0" x2="193.92708333333331" y2="177" fill="rgb(0, 0, 0)" stroke="rgb(60, 60, 60)" stroke-width="1px" opacity="0.25"></line><line x1="226.24826388888889" y1="0" x2="226.24826388888889" y2="177" fill="rgb(0, 0, 0)" stroke="rgb(60, 60, 60)" stroke-width="1px" opacity="0.25"></line><line x1="258.56944444444446" y1="0" x2="258.56944444444446" y2="177" fill="rgb(0, 0, 0)" stroke="rgb(60, 60, 60)" stroke-width="1px" opacity="0.25"></line><line x1="290.890625" y1="0" x2="290.890625" y2="177" fill="rgb(0, 0, 0)" stroke="rgb(60, 60, 60)" stroke-width="1px" opacity="0.25"></line></g><g><line x1="0" y1="177" x2="290.890625" y2="177" fill="rgb(0, 0, 0)" stroke="rgb(60, 60, 60)" stroke-width="1px" opacity="0.25"></line><line x1="0" y1="165.2" x2="290.890625" y2="165.2" fill="rgb(0, 0, 0)" stroke="rgb(60, 60, 60)" stroke-width="1px" opacity="0.25"></line><line x1="0" y1="153.4" x2="290.890625" y2="153.4" fill="rgb(0, 0, 0)" stroke="rgb(60, 60, 60)" stroke-width="1px" opacity="0.25"></line><line x1="0" y1="141.6" x2="290.890625" y2="141.6" fill="rgb(0, 0, 0)" stroke="rgb(60, 60, 60)" stroke-width="1px" opacity="0.25"></line><line x1="0" y1="129.8" x2="290.890625" y2="129.8" fill="rgb(0, 0, 0)" stroke="rgb(60, 60, 60)" stroke-width="1px" opacity="0.25"></line><line x1="0" y1="118" x2="290.890625" y2="118" fill="rgb(0, 0, 0)" stroke="rgb(60, 60, 60)" stroke-width="1px" opacity="0.25"></line><line x1="0" y1="106.2" x2="290.890625" y2="106.2" fill="rgb(0, 0, 0)" stroke="rgb(60, 60, 60)" stroke-width="1px" opacity="0.25"></line><line x1="0" y1="94.4" x2="290.890625" y2="94.4" fill="rgb(0, 0, 0)" stroke="rgb(60, 60, 60)" stroke-width="1px" opacity="0.25"></line><line x1="0" y1="82.6" x2="290.890625" y2="82.6" fill="rgb(0, 0, 0)" stroke="rgb(60, 60, 60)" stroke-width="1px" opacity="0.25"></line><line x1="0" y1="70.8" x2="290.890625" y2="70.8" fill="rgb(0, 0, 0)" stroke="rgb(60, 60, 60)" stroke-width="1px" opacity="0.25"></line><line x1="0" y1="59" x2="290.890625" y2="59" fill="rgb(0, 0, 0)" stroke="rgb(60, 60, 60)" stroke-width="1px" opacity="0.25"></line><line x1="0" y1="47.20000000000002" x2="290.890625" y2="47.20000000000002" fill="rgb(0, 0, 0)" stroke="rgb(60, 60, 60)" stroke-width="1px" opacity="0.25"></line><line x1="0" y1="35.400000000000006" x2="290.890625" y2="35.400000000000006" fill="rgb(0, 0, 0)" stroke="rgb(60, 60, 60)" stroke-width="1px" opacity="0.25"></line><line x1="0" y1="23.599999999999994" x2="290.890625" y2="23.599999999999994" fill="rgb(0, 0, 0)" stroke="rgb(60, 60, 60)" stroke-width="1px" opacity="0.25"></line><line x1="0" y1="11.800000000000011" x2="290.890625" y2="11.800000000000011" fill="rgb(0, 0, 0)" stroke="rgb(60, 60, 60)" stroke-width="1px" opacity="0.25"></line><line x1="0" y1="0" x2="290.890625" y2="0" fill="rgb(0, 0, 0)" stroke="rgb(60, 60, 60)" stroke-width="1px" opacity="0.25"></line></g></g></g><g><g><line x1="0" y1="153.4" x2="290.890625" y2="153.4" fill="rgb(0, 0, 0)" stroke="rgb(153, 153, 153)" stroke-width="1.5px"></line></g></g><g><g><line x1="32.32118055555556" y1="0" x2="32.32118055555556" y2="177" fill="rgb(0, 0, 0)" stroke="rgb(153, 153, 153)" stroke-width="1.5px"></line></g></g><g><g><g><g><g><path stroke="rgb(187, 187, 187)" stroke-width="2px" d="M32.64439236111111,111.51L32.96760416666667,115.05000000000001L33.29081597222222,115.05000000000001L33.452421875,115.05000000000001L33.77563368055556,115.05000000000001L34.09884548611111,115.05000000000001L34.26045138888889,115.05000000000001L34.42205729166667,115.05000000000001L34.58366319444445,115.05000000000001L34.74526909722223,115.05000000000001L34.906875,115.05000000000001L35.06848090277778,115.05000000000001L35.23008680555556,115.05000000000001L35.39169270833334,115.05000000000001L35.55329861111111,115.05000000000001L35.71490451388889,115.05000000000001L36.03811631944445,115.05000000000001L36.361328125,115.05000000000001L36.52293402777778,115.05000000000001L37.33096354166666,115.05000000000001L37.49256944444444,115.05000000000001L37.65417534722222,115.05000000000001L37.81578125,115.05000000000001L37.97738715277778,115.05000000000001L38.30059895833333,115.05000000000001L38.78541666666666,115.05000000000001L38.94702256944444,115.05000000000001L39.270234375,115.05000000000001L39.43184027777778,115.05000000000001L39.59344618055555,115.05000000000001L39.75505208333333,115.05000000000001L40.07826388888889,115.05000000000001L40.40147569444444,115.05000000000001L40.56308159722222,115.05000000000001L41.04789930555555,115.05000000000001L41.20950520833333,115.05000000000001L41.37111111111111,115.05000000000001L41.53271701388889,115.05000000000001L41.69432291666667,115.05000000000001L42.179140624999995,115.05000000000001L42.340746527777775,115.05000000000001L42.502352430555554,115.05000000000001L42.66395833333333,115.05000000000001L42.82556423611111,115.05000000000001L42.98717013888889,115.05000000000001L43.14877604166667,115.05000000000001L43.310381944444444,115.05000000000001L43.471987847222216,115.05000000000001L43.633593749999996,115.05000000000001L43.956805555555555,115.05000000000001L44.118411458333334,115.05000000000001L44.28001736111111,115.05000000000001L44.44162326388889,115.05000000000001L44.764835069444445,115.05000000000001L45.088046874999996,115.05000000000001L45.249652777777776,115.05000000000001L45.572864583333335,115.05000000000001L45.734470486111114,115.05000000000001L46.057682291666666,115.05000000000001L46.219288194444445,115.05000000000001L46.380894097222225,115.05000000000001L46.542500000000004,115.05000000000001L46.704105902777776,115.05000000000001L46.865711805555556,115.05000000000001L47.18892361111111,115.05000000000001L47.35052951388889,115.05000000000001L47.512135416666666,115.05000000000001L47.673741319444446,115.05000000000001L48.48177083333333,115.05000000000001L48.64337673611111,115.05000000000001L48.96658854166667,115.05000000000001L49.289800347222226,115.05000000000001L49.451406250000005,115.05000000000001L49.61301215277778,115.05000000000001L50.09782986111111,115.05000000000001L50.25943576388889,115.05000000000001L50.744253472222226,115.05000000000001L51.22907118055556,115.05000000000001L51.55228298611111,115.05000000000001L51.71388888888889,115.05000000000001L51.87549479166667,115.05000000000001L52.52191840277778,115.05000000000001L52.68352430555556,115.05000000000001L52.84513020833334,115.05000000000001L53.00673611111112,115.05000000000001L53.32994791666666,115.05000000000001L53.49155381944444,115.05000000000001L53.97637152777778,115.05000000000001L54.46118923611112,115.05000000000001L54.62279513888888,115.05000000000001L54.94600694444444,115.05000000000001L55.26921875,115.05000000000001L55.43082465277778,115.05000000000001L55.59243055555556,115.05000000000001L55.75403645833334,115.05000000000001L55.91564236111111,115.05000000000001L56.07724826388888,115.05000000000001L56.40046006944444,115.05000000000001L56.56206597222222,115.05000000000001L56.723671875,115.05000000000001L56.88527777777778,115.05000000000001L57.20848958333333,115.05000000000001L57.37009548611111,115.05000000000001L57.53170138888889,115.05000000000001L57.85491319444444,115.05000000000001L58.01651909722222,115.05000000000001L58.178125,115.05000000000001L58.50133680555555,115.05000000000001L58.66294270833333,115.05000000000001L58.98615451388889,115.05000000000001L59.14776041666667,115.05000000000001L59.47097222222222,115.05000000000001L59.632578124999995,115.05000000000001L59.794184027777774,115.05000000000001L60.11739583333333,115.05000000000001L60.27900173611111,115.05000000000001L60.76381944444445,115.05000000000001L60.925425347222216,115.05000000000001L61.087031249999995,115.05000000000001L61.248637152777775,115.05000000000001L61.571848958333334,115.05000000000001L61.73345486111111,115.05000000000001L62.05666666666667,115.05000000000001L62.379878472222224,115.05000000000001L62.541484374999996,115.05000000000001L62.703090277777775,115.05000000000001L62.864696180555555,115.05000000000001L63.187907986111114,115.05000000000001L63.349513888888886,115.05000000000001L63.834331597222224,115.05000000000001L64.48075520833333,115.05000000000001L65.12717881944444,115.05000000000001L65.61199652777778,115.05000000000001L65.77360243055556,115.05000000000001L65.93520833333334,115.05000000000001L66.09681423611111,115.05000000000001L66.2584201388889,115.05000000000001L66.74323784722222,115.05000000000001L66.90484375,115.05000000000001L67.06644965277778,115.05000000000001L67.22805555555556,115.05000000000001L67.7128732638889,115.05000000000001L67.87447916666667,115.05000000000001L68.03608506944445,115.05000000000001L68.19769097222222,115.05000000000001L68.359296875,115.05000000000001L68.52090277777778,115.05000000000001L68.84411458333334,115.05000000000001L69.00572048611112,115.05000000000001L69.1673263888889,115.05000000000001L69.49053819444445,115.05000000000001L69.65214409722222,115.05000000000001L69.81375,115.05000000000001L69.97535590277778,115.05000000000001L70.13696180555556,115.05000000000001L70.29856770833334,115.05000000000001L70.46017361111112,115.05000000000001L70.78338541666668,115.05000000000001L70.94499131944444,115.05000000000001L71.268203125,115.05000000000001L71.91462673611112,111.51L72.0762326388889,115.05000000000001L72.39944444444444,115.05000000000001L72.56105034722222,115.05000000000001L72.72265625,115.05000000000001L72.88426215277777,115.05000000000001L73.04586805555556,115.05000000000001L73.20747395833332,115.05000000000001L73.69229166666668,115.05000000000001L74.177109375,115.05000000000001L74.33871527777777,115.05000000000001L74.50032118055556,115.05000000000001L74.66192708333332,115.05000000000001L74.98513888888888,115.05000000000001L75.30835069444444,111.51L75.6315625,115.05000000000001L75.95477430555556,115.05000000000001L76.27798611111112,111.51L76.43959201388888,115.05000000000001L76.60119791666666,115.05000000000001L76.76280381944444,111.51L76.92440972222222,111.51L77.24762152777778,115.05000000000001L77.40922743055556,111.51L77.73243923611112,111.51L78.05565104166666,111.51L78.37886284722222,111.51L79.1868923611111,111.51L79.51010416666666,111.51L79.67171006944444,107.97L79.994921875,111.51L79.994921875,111.51L80.15652777777778,-103.25L80.31813368055555,111.51L80.47973958333334,111.51L80.6413454861111,115.05000000000001L80.80295138888889,115.05000000000001L80.96455729166667,111.51L81.12616319444444,111.51L81.28776909722222,111.51L81.93419270833334,111.51L82.0957986111111,111.51L82.41901041666667,111.51L82.90382812499999,111.51L83.55025173611111,111.51L83.7118576388889,111.51L83.87346354166667,107.97L84.03506944444443,111.51L84.35828124999999,111.51L84.51988715277778,111.51L84.68149305555555,111.51L84.84309895833334,111.51L85.00470486111111,111.51L85.1663107638889,111.51L85.65112847222223,111.51L85.81273437499999,111.51L86.13594618055555,111.51L86.45915798611111,111.51L86.78236979166667,111.51L87.10558159722223,111.51L87.42879340277779,111.51L87.59039930555555,111.51L87.75200520833334,111.51L87.91361111111111,111.51L88.07521701388889,111.51L88.23682291666667,111.51L88.39842881944445,111.51L88.56003472222223,104.43L88.72164062499999,107.97L89.04485243055555,111.51L89.36806423611111,107.97L89.52967013888889,111.51L89.85288194444445,111.51L90.17609374999999,111.51L90.33769965277777,111.51L90.49930555555555,111.51L90.66091145833333,111.51L90.82251736111111,111.51L90.98412326388889,111.51L91.14572916666667,111.51L91.30733506944445,111.51L91.46894097222223,111.51L91.63054687500001,111.51L91.79215277777777,111.51L92.11536458333333,111.51L92.27697048611111,111.51L92.60018229166667,111.51L92.92339409722221,111.51L93.08500000000001,111.51L93.24660590277777,111.51L93.40821180555555,111.51L93.56981770833333,111.51L93.89302951388889,107.97L94.05463541666666,111.51L94.37784722222221,111.51L94.53945312500001,111.51L94.70105902777777,107.97L94.86266493055557,107.97L95.02427083333333,111.51L95.34748263888889,107.97L95.50908854166666,111.51L95.67069444444445,111.51L95.83230034722222,111.51L96.6403298611111,111.51L96.80193576388889,104.43L97.12514756944445,107.97L97.28675347222222,111.51L97.44835937500001,107.97L97.77157118055557,107.97L97.93317708333333,107.97L98.25638888888889,111.51L98.57960069444445,111.51L99.38763020833333,107.97L99.5492361111111,107.97L100.03405381944445,107.97L100.19565972222222,111.51L100.357265625,107.97L100.51887152777778,111.51L100.68047743055556,107.97L100.84208333333333,107.97L101.1652951388889,107.97L101.48850694444445,107.97L101.81171875,111.51L102.13493055555556,107.97L102.6197482638889,107.97L102.78135416666666,107.97L103.266171875,111.51L103.42777777777778,107.97L103.58938368055556,107.97L103.75098958333334,107.97L104.07420138888888,104.43L104.23580729166667,107.97L104.720625,107.97L104.88223090277778,107.97L105.20544270833334,104.43L105.69026041666667,107.97L105.85186631944444,107.97L106.175078125,107.97L106.33668402777778,107.97L106.49828993055556,107.97L106.65989583333332,107.97L106.82150173611112,104.43L107.14471354166668,90.27L107.30631944444444,104.43L107.46792534722223,104.43L107.62953125,104.43L107.79113715277778,104.43L107.95274305555556,107.97L108.11434895833332,104.43L108.43756076388888,107.97L108.76077256944444,107.97L108.92237847222223,107.97L109.40719618055556,107.97L109.56880208333332,104.43L110.21522569444444,107.97L110.70004340277777,107.97L110.86164930555556,107.97L111.18486111111112,104.43L111.34646701388888,107.97L111.66967881944444,107.97L111.83128472222222,107.97L111.992890625,100.89L112.47770833333333,107.97L112.63931423611112,107.97L112.96252604166666,107.97L113.60894965277778,111.51L114.09376736111112,104.43L114.25537326388888,107.97L114.41697916666666,104.43L114.57858506944444,104.43L114.74019097222222,107.97L114.901796875,107.97L115.06340277777778,107.97L115.38661458333334,107.97L115.5482204861111,107.97L115.70982638888889,107.97L115.87143229166666,107.97L116.03303819444444,107.97L116.19464409722222,107.97L116.35625,104.43L116.84106770833334,107.97L117.0026736111111,107.97L117.16427951388889,107.97L118.13391493055555,107.97L118.4571267361111,104.43L118.6187326388889,107.97L118.78033854166667,107.97L118.94194444444445,107.97L119.10355034722222,107.97L119.26515624999999,97.35L119.42676215277778,97.35L119.58836805555555,97.35L119.74997395833334,104.43L119.91157986111111,93.81L120.0731857638889,104.43L120.23479166666667,97.35L120.39639756944443,97.35L120.55800347222223,97.35L120.71960937499999,97.35L120.88121527777778,93.81L121.04282118055555,104.43L121.36603298611111,111.51L121.5276388888889,97.35L121.68924479166667,93.81L122.01245659722223,104.43L122.33566840277778,97.35L122.65888020833334,90.27L122.82048611111111,104.43L123.30530381944443,97.35L123.46690972222223,97.35L123.62851562499999,107.97L123.95172743055555,97.35L124.11333333333334,97.35L124.27493923611111,111.51L124.59815104166667,97.35L124.75975694444445,104.43L124.92136284722223,107.97L125.08296874999999,93.81L125.40618055555555,93.81L125.56778645833333,97.35L125.72939236111111,107.97L125.89099826388889,97.35L126.05260416666667,97.35L126.21421006944445,97.35L126.37581597222223,97.35L126.53742187499999,93.81L126.69902777777777,97.35L127.02223958333333,90.27L127.18384548611111,86.73L127.34545138888889,83.19L127.66866319444445,90.27L127.83026909722223,-163.43L127.99187500000001,90.27L128.31508680555555,86.73L128.47669270833333,86.73L128.6382986111111,97.35L128.7999045138889,93.81L129.12311631944445,104.43L129.446328125,107.97L129.60793402777776,104.43L129.76953993055557,93.81L130.09275173611113,83.19L130.41596354166666,107.97L130.73917534722221,93.81L130.90078125,97.35L131.06238715277777,100.89L131.5472048611111,97.35L132.19362847222223,97.35L132.355234375,93.81L132.5168402777778,97.35L132.67844618055557,93.81L132.84005208333332,93.81L133.16326388888888,97.35L133.32486979166666,104.43L133.8096875,111.51L133.97129340277777,93.81L134.29450520833333,93.81L134.6177170138889,83.19L134.77932291666667,79.64999999999999L135.264140625,86.73L135.58735243055554,83.19L135.74895833333335,83.19L135.9105642361111,79.64999999999999L136.0721701388889,97.35L136.23377604166666,104.43L136.39538194444444,93.81L136.55698784722222,83.19L136.71859375,93.81L136.88019965277778,93.81L137.04180555555556,97.35L137.20341145833333,86.73L137.36501736111111,86.73L137.5266232638889,90.27L138.17304687499998,90.27L138.3346527777778,83.19L138.65786458333335,97.35L138.9810763888889,90.27L139.14268229166666,90.27L139.30428819444444,97.35L139.46589409722222,86.73L139.6275,93.81L139.78910590277778,90.27L139.95071180555556,97.35L140.11231770833334,76.11000000000001L140.27392361111112,90.27L140.59713541666667,86.73L140.75874131944443,83.19L140.92034722222223,79.64999999999999L141.08195312499998,90.27L141.2435590277778,93.81L141.56677083333335,97.35L141.7283767361111,107.97L141.88998263888888,90.27L142.21319444444444,86.73L142.37480034722222,86.73L142.53640625,104.43L142.69801215277778,86.73L142.85961805555556,86.73L143.02122395833334,86.73L143.18282986111112,90.27L143.3444357638889,86.73L143.50604166666668,90.27L143.99085937499999,86.73L144.31407118055554,90.27L144.6372829861111,90.27L145.12210069444444,86.73L145.28370659722222,83.19L145.4453125,86.73L145.60691840277778,90.27L145.76852430555553,97.35L145.93013020833334,93.81L146.09173611111112,90.27L146.2533420138889,90.27L146.41494791666665,83.19L146.57655381944446,90.27L146.73815972222224,100.89L146.89976562500001,86.73L147.06137152777777,86.73L147.5461892361111,104.43L147.70779513888888,83.19L147.86940104166666,83.19L148.19261284722222,104.43L148.35421875,83.19L148.67743055555553,83.19L148.83903645833334,90.27L149.00064236111112,90.27L149.1622482638889,86.73L149.32385416666665,90.27L149.48546006944443,83.19L149.97027777777777,86.73L150.13188368055555,104.43L150.29348958333335,90.27L150.93991319444444,83.19L151.10151909722222,97.35L151.42473090277778,97.35L151.58633680555553,97.35L151.7479427083333,83.19L151.90954861111112,79.64999999999999L152.23276041666665,86.73L152.55597222222224,83.19L152.71757812500002,86.73L152.87918402777777,79.64999999999999L153.20239583333333,86.73L153.36400173611113,79.64999999999999L153.52560763888889,90.27L153.68721354166667,104.43L153.84881944444444,100.89L154.01042534722222,76.11000000000001L154.17203125,83.19L154.33363715277778,76.11000000000001L154.81845486111112,86.73L154.9800607638889,69.03L155.30327256944443,86.73L155.62648437500002,90.27L155.78809027777777,83.19L155.94969618055555,79.64999999999999L156.11130208333333,79.64999999999999L156.4345138888889,83.19L156.59611979166667,90.27L156.75772569444445,83.19L156.9193315972222,69.03L157.0809375,86.73L157.24254340277778,83.19L157.40414930555556,83.19L157.56575520833331,83.19L158.05057291666668,100.89L158.21217881944443,83.19L158.53539062500002,83.19L158.69699652777777,90.27L158.85860243055555,90.27L159.02020833333333,93.81L159.3434201388889,83.19L159.66663194444445,90.27L159.8282378472222,79.64999999999999L159.98984375,83.19L160.15144965277779,83.19L160.31305555555556,76.11000000000001L160.47466145833332,97.35L160.6362673611111,72.57000000000001L160.7978732638889,83.19L161.12108506944443,79.64999999999999L161.2826909722222,65.49L161.44429687500002,86.73L161.76750868055555,97.35L162.0907204861111,79.64999999999999L162.2523263888889,83.19L162.41393229166667,83.19L162.57553819444445,83.19L162.7371440972222,83.19L162.89875,79.64999999999999L163.22196180555557,79.64999999999999L163.38356770833332,86.73L163.5451736111111,86.73L163.86838541666668,72.57000000000001L164.02999131944443,76.11000000000001L164.353203125,86.73L164.83802083333333,90.27L165.1612326388889,86.73L165.32283854166667,72.57000000000001L165.48444444444445,69.03L165.9692621527778,79.64999999999999L166.13086805555557,79.64999999999999L166.4540798611111,83.19L166.6156857638889,72.57000000000001L166.93889756944444,83.19L167.10050347222221,83.19L167.262109375,83.19L167.58532118055555,86.73L167.74692708333333,86.73L168.23174479166667,76.11000000000001L168.39335069444445,90.27L168.71656249999998,69.03L168.8781684027778,83.19L169.03977430555557,65.49L169.20138020833332,76.11000000000001L169.52459201388888,58.41L169.68619791666669,69.03L169.84780381944444,58.41L170.00940972222222,79.64999999999999L170.3326215277778,76.11000000000001L170.65583333333333,76.11000000000001L170.97904513888886,97.35L171.14065104166667,72.57000000000001L171.30225694444445,44.25L171.46386284722223,5.310000000000002L171.62546874999998,76.11000000000001L172.2718923611111,69.03L172.43349826388888,65.49L172.5951041666667,72.57000000000001L172.75671006944444,58.41L173.24152777777778,72.57000000000001L173.40313368055556,104.43L173.56473958333333,72.57000000000001L173.72634548611111,69.03L173.88795138888887,83.19L174.04955729166667,65.49L174.21116319444445,69.03L174.37276909722223,69.03L174.53437499999998,76.11000000000001L174.69598090277776,86.73L175.01919270833335,65.49L175.1807986111111,76.11000000000001L175.34240451388888,76.11000000000001L175.34240451388888,76.11000000000001L175.5040104166667,-191.75L175.66561631944447,65.49L175.82722222222222,72.57000000000001L176.15043402777778,65.49L176.31203993055556,69.03L176.47364583333334,83.19L176.7968576388889,65.49L176.95846354166665,72.57000000000001L177.28167534722223,72.57000000000001L177.44328124999998,72.57000000000001L178.0897048611111,61.95L178.25131076388888,76.11000000000001L178.57452256944447,69.03L178.73612847222222,65.49L178.897734375,65.49L179.05934027777778,76.11000000000001L179.22094618055556,72.57000000000001L179.38255208333334,65.49L179.54415798611112,76.11000000000001L179.86736979166665,65.49L180.02897569444445,69.03L180.19058159722223,65.49L180.35218749999999,69.03L180.67539930555554,72.57000000000001L180.83700520833335,69.03L180.9986111111111,72.57000000000001L181.16021701388888,79.64999999999999L181.32182291666666,79.64999999999999L181.48342881944447,61.95L182.45306423611112,65.49L182.6146701388889,65.49L182.77627604166665,72.57000000000001L182.93788194444446,72.57000000000001L183.09948784722224,72.57000000000001L183.74591145833335,79.64999999999999L184.23072916666666,72.57000000000001L184.39233506944444,76.11000000000001L184.715546875,79.64999999999999L185.20036458333334,65.49L185.36197048611112,65.49L185.68518229166665,65.49L185.84678819444443,72.57000000000001L186.00839409722224,65.49L186.17000000000002,93.81L186.49321180555555,69.03L186.65481770833335,61.95L186.8164236111111,79.64999999999999L186.97802951388888,65.49L187.13963541666666,69.03L187.30124131944444,79.64999999999999L187.46284722222222,72.57000000000001L187.624453125,69.03L187.78605902777778,76.11000000000001L188.1092708333333,65.49L188.27087673611112,76.11000000000001L188.59408854166665,69.03L188.91730034722224,69.03L189.07890625000002,69.03L189.40211805555555,69.03L189.72532986111113,65.49L189.88693576388889,72.57000000000001L190.04854166666667,65.49L190.21014756944444,58.41L190.69496527777778,83.19L190.85657118055556,54.870000000000005L191.0181770833333,65.49L191.17978298611112,79.64999999999999L191.50299479166665,65.49L191.66460069444443,69.03L191.98781250000002,69.03L192.14941840277777,69.03L192.95744791666667,69.03L193.11905381944445,65.49L193.442265625,51.33000000000001L193.60387152777778,61.95L193.92708333333331,58.41L194.08868923611112,44.25L194.2502951388889,61.95L194.41190104166668,54.870000000000005L194.7351128472222,65.49L194.89671875000002,61.95L195.05832465277777,61.95L195.38153645833333,61.95L195.54314236111114,69.03L195.7047482638889,58.41L195.86635416666667,58.41L196.1895659722222,61.95L196.351171875,69.03L196.67438368055556,61.95L197.1592013888889,69.03L197.48241319444443,83.19L197.6440190972222,69.03L197.80562500000002,76.11000000000001L197.96723090277777,54.870000000000005L198.29044270833333,51.33000000000001L198.6136545138889,65.49L198.77526041666667,79.64999999999999L198.93686631944445,54.870000000000005L199.0984722222222,40.71000000000001L199.260078125,100.89L199.4216840277778,65.49L199.58328993055557,58.41L199.74489583333332,54.870000000000005L199.9065017361111,69.03L200.39131944444443,79.64999999999999L200.5529253472222,69.03L200.71453125,65.49L201.5225607638889,69.03L201.68416666666667,65.49L201.84577256944445,65.49L202.00737847222223,65.49L202.3305902777778,58.41L202.49219618055557,58.41L202.65380208333332,86.73L202.8154079861111,65.49L202.9770138888889,83.19L203.7850434027778,61.95L203.94664930555555,97.35L204.10825520833333,61.95L204.2698611111111,69.03L204.43146701388886,72.57000000000001L204.59307291666667,76.11000000000001L204.91628472222223,69.03L205.07789062499998,76.11000000000001L205.2394965277778,61.95L205.40110243055557,72.57000000000001L205.56270833333332,58.41L205.7243142361111,69.03L205.88592013888888,65.49L206.04752604166669,76.11000000000001L206.20913194444444,69.03L206.53234375,72.57000000000001L206.6939496527778,61.95L206.85555555555555,72.57000000000001L207.01716145833333,61.95L207.1787673611111,65.49L207.34037326388886,65.49L207.50197916666667,54.870000000000005L207.82519097222223,47.78999999999999L208.14840277777776,54.870000000000005L208.47161458333335,61.95L208.6332204861111,61.95L208.79482638888888,58.41L209.11803819444444,58.41L209.44125,69.03L209.60285590277778,54.870000000000005L209.92606770833333,61.95L210.24927951388887,54.870000000000005L210.41088541666667,65.49L210.57249131944445,79.64999999999999L210.89570312499998,61.95L211.38052083333335,58.41L211.5421267361111,65.49L212.02694444444447,54.870000000000005L212.35015625,54.870000000000005L212.83497395833334,61.95L213.31979166666665,76.11000000000001L213.48139756944445,58.41L213.64300347222223,54.870000000000005L213.80460937499998,51.33000000000001L213.96621527777776,54.870000000000005L214.12782118055557,44.25L214.28942708333335,44.25L214.4510329861111,47.78999999999999L214.61263888888888,51.33000000000001L214.77424479166666,54.870000000000005L215.09745659722222,51.33000000000001L215.2590625,51.33000000000001L215.42066840277778,58.41L215.90548611111112,44.25L216.0670920138889,61.95L216.39030381944445,72.57000000000001L216.55190972222223,51.33000000000001L216.71351562499999,65.49L216.87512152777776,58.41L217.19833333333335,61.95L217.68315104166666,58.41L217.84475694444447,61.95L218.00636284722222,61.95L218.16796875,58.41L218.32957465277778,76.11000000000001L218.49118055555553,58.41L218.65278645833334,58.41L218.81439236111112,54.870000000000005L218.9759982638889,58.41L219.13760416666665,61.95L219.29921006944446,54.870000000000005L219.46081597222224,47.78999999999999L219.62242187500001,51.33000000000001L219.78402777777777,58.41L220.10723958333335,61.95L220.2688454861111,58.41L220.43045138888888,61.95L220.59205729166666,65.49L220.91526909722222,65.49L221.076875,58.41L221.72329861111112,58.41L222.20811631944443,54.870000000000005L222.69293402777777,58.41L222.85453993055555,51.33000000000001L223.01614583333335,47.78999999999999L223.01614583333335,47.78999999999999L223.33935763888888,54.870000000000005L223.50096354166666,65.49L223.66256944444444,51.33000000000001L223.82417534722222,65.49L223.98578125,69.03L224.30899305555553,40.71000000000001L224.4705989583333,44.25L224.63220486111112,54.870000000000005L224.7938107638889,54.870000000000005L224.95541666666665,51.33000000000001L225.11702256944443,58.41L225.27862847222224,61.95L225.44023437500002,47.78999999999999L225.60184027777777,69.03L225.76344618055555,51.33000000000001L225.92505208333333,47.78999999999999L226.24826388888889,58.41L226.40986979166667,51.33000000000001L226.73308159722222,51.33000000000001L226.8946875,51.33000000000001L227.05629340277778,51.33000000000001L227.3795052083333,54.870000000000005L227.54111111111112,40.71000000000001L227.7027170138889,69.03L227.86432291666665,58.41L228.02592881944443,44.25L228.18753472222224,61.95L228.83395833333333,51.33000000000001L229.1571701388889,47.78999999999999L229.6419878472222,93.81L229.80359375,47.78999999999999L230.12680555555556,61.95L230.28841145833331,69.03L230.45001736111112,65.49L230.77322916666668,44.25L230.93483506944443,51.33000000000001L231.0964409722222,69.03L231.25804687500002,79.64999999999999L231.41965277777777,37.16999999999999L231.58125868055555,69.03L231.74286458333333,58.41L231.90447048611114,58.41L232.0660763888889,54.870000000000005L232.22768229166667,51.33000000000001L232.5508940972222,51.33000000000001L232.7125,47.78999999999999L232.87410590277779,58.41L233.19731770833332,44.25L233.3589236111111,58.41L233.5205295138889,54.870000000000005L233.68213541666668,47.78999999999999L233.84374131944443,51.33000000000001L234.0053472222222,58.41L234.32855902777777,54.870000000000005L234.49016493055555,54.870000000000005L234.65177083333333,54.870000000000005L234.8133767361111,47.78999999999999L234.9749826388889,61.95L235.13658854166667,47.78999999999999L235.29819444444445,54.870000000000005L235.62140625,47.78999999999999L235.7830121527778,61.95L235.94461805555557,51.33000000000001L236.10622395833332,44.25L236.2678298611111,40.71000000000001L236.4294357638889,1.7700000000000102L236.59104166666668,58.41L236.75264756944443,44.25L236.9142534722222,44.25L237.2374652777778,47.78999999999999L237.39907118055555,61.95L237.7222829861111,51.33000000000001L238.36870659722223,47.78999999999999L238.53031249999998,61.95L238.85352430555557,58.41L239.01513020833332,44.25L239.1767361111111,12.389999999999986L239.49994791666668,54.870000000000005L239.82315972222221,37.16999999999999L239.984765625,54.870000000000005L240.1463715277778,23.00999999999999L240.46958333333333,33.629999999999995L240.6311892361111,33.629999999999995L240.79279513888886,54.870000000000005L240.95440104166667,65.49L241.27761284722223,37.16999999999999L241.43921874999998,51.33000000000001L241.6008246527778,54.870000000000005L241.76243055555557,47.78999999999999L241.92403645833332,65.49L242.24724826388888,44.25L242.40885416666669,44.25L242.57046006944444,47.78999999999999L242.893671875,40.71000000000001L243.0552777777778,69.03L243.5400954861111,33.629999999999995L243.86330729166667,44.25L244.02491319444445,51.33000000000001L244.34812499999998,40.71000000000001L244.50973090277776,54.870000000000005L244.67133680555557,40.71000000000001L244.83294270833335,47.78999999999999L244.9945486111111,40.71000000000001L245.15615451388888,47.78999999999999L245.3177604166667,54.870000000000005L245.802578125,40.71000000000001L245.96418402777778,51.33000000000001L246.12578993055556,40.71000000000001L246.28739583333333,61.95L246.44900173611111,65.49L246.61060763888887,47.78999999999999L246.77221354166667,79.64999999999999L247.09542534722223,37.16999999999999L247.25703124999998,-19.470000000000027L247.41863715277776,40.71000000000001L247.58024305555557,37.16999999999999L247.74184895833335,47.78999999999999L247.9034548611111,37.16999999999999L248.38827256944447,37.16999999999999L248.711484375,40.71000000000001L248.87309027777778,44.25L249.03469618055556,40.71000000000001L249.19630208333334,44.25L249.35790798611112,44.25L249.5195138888889,54.870000000000005L249.68111979166665,26.55000000000001L249.84272569444445,51.33000000000001L250.00433159722223,-8.849999999999994L250.16593749999998,30.090000000000003L250.65075520833335,19.47L250.8123611111111,51.33000000000001L251.29717881944447,30.090000000000003L251.45878472222222,19.47L251.78199652777778,26.55000000000001L251.94360243055556,30.090000000000003L252.10520833333334,15.930000000000007L252.4284201388889,40.71000000000001L252.59002604166665,26.55000000000001L252.75163194444445,19.47L253.07484374999999,33.629999999999995L253.23644965277776,23.00999999999999L253.39805555555554,23.00999999999999L253.7212673611111,58.41L253.88287326388888,-1.7700000000000102L254.04447916666666,-1.7700000000000102L254.36769097222222,15.930000000000007L254.529296875,12.389999999999986L254.69090277777778,1.7700000000000102L255.01411458333334,40.71000000000001L255.17572048611112,44.25L255.49893229166665,26.55000000000001L255.66053819444446,8.849999999999994L255.82214409722224,-61.95000000000002L255.98375000000001,-37.16999999999999L256.1453559027778,15.930000000000007L256.30696180555555,23.00999999999999L256.6301736111111,30.090000000000003L256.7917795138889,15.930000000000007L257.2765972222222,30.090000000000003L257.5998090277778,12.389999999999986L258.0846267361111,15.930000000000007L258.7310503472222,19.47L259.53907986111113,30.090000000000003L260.02389756944444,15.930000000000007L260.18550347222225,19.47L260.347109375,33.629999999999995L260.50871527777775,37.16999999999999L260.67032118055556,8.849999999999994L260.8319270833333,-8.849999999999994L261.15513888888887,5.310000000000002L261.3167447916667,37.16999999999999L261.63995659722224,23.00999999999999L261.8015625,5.310000000000002L262.12477430555555,23.00999999999999L262.2863802083333,26.55000000000001L262.4479861111111,-12.390000000000015L262.6095920138889,26.55000000000001L262.9328038194444,-44.25L263.0944097222222,30.090000000000003L263.25601562500003,33.629999999999995L263.4176215277778,-33.629999999999995L263.57922743055553,-83.19L263.74083333333334,33.629999999999995L263.90243923611115,-19.470000000000027L264.0640451388889,-23.00999999999999L264.22565104166665,26.55000000000001L264.38725694444446,-19.470000000000027L264.5488628472222,44.25L264.87207465277777,12.389999999999986L265.0336805555556,19.47L265.35689236111114,5.310000000000002L265.84171006944445,-15.930000000000007" style="fill: none;" fill="none"></path></g></g></g></g></g></g><g transform="translate(39, 177)" clip-path="url(#clip_1)"><clipPath id="clip_1"><rect width="290" height="23"></rect></clipPath><g><g><line x1="0" y1="0" x2="0" y2="5" style="visibility: inherit;" fill="rgb(0, 0, 0)" stroke="rgb(204, 204, 204)" stroke-width="1px"></line><line x1="32.32118055555556" y1="0" x2="32.32118055555556" y2="5" style="visibility: inherit;" fill="rgb(0, 0, 0)" stroke="rgb(204, 204, 204)" stroke-width="1px"></line><line x1="64.64236111111111" y1="0" x2="64.64236111111111" y2="5" style="visibility: inherit;" fill="rgb(0, 0, 0)" stroke="rgb(204, 204, 204)" stroke-width="1px"></line><line x1="96.96354166666666" y1="0" x2="96.96354166666666" y2="5" style="visibility: inherit;" fill="rgb(0, 0, 0)" stroke="rgb(204, 204, 204)" stroke-width="1px"></line><line x1="129.28472222222223" y1="0" x2="129.28472222222223" y2="5" style="visibility: inherit;" fill="rgb(0, 0, 0)" stroke="rgb(204, 204, 204)" stroke-width="1px"></line><line x1="161.60590277777777" y1="0" x2="161.60590277777777" y2="5" style="visibility: inherit;" fill="rgb(0, 0, 0)" stroke="rgb(204, 204, 204)" stroke-width="1px"></line><line x1="193.92708333333331" y1="0" x2="193.92708333333331" y2="5" style="visibility: inherit;" fill="rgb(0, 0, 0)" stroke="rgb(204, 204, 204)" stroke-width="1px"></line><line x1="226.24826388888889" y1="0" x2="226.24826388888889" y2="5" style="visibility: inherit;" fill="rgb(0, 0, 0)" stroke="rgb(204, 204, 204)" stroke-width="1px"></line><line x1="258.56944444444446" y1="0" x2="258.56944444444446" y2="5" style="visibility: inherit;" fill="rgb(0, 0, 0)" stroke="rgb(204, 204, 204)" stroke-width="1px"></line><line x1="290.890625" y1="0" x2="290.890625" y2="5" style="visibility: inherit;" fill="rgb(0, 0, 0)" stroke="rgb(204, 204, 204)" stroke-width="1px"></line></g><g transform="translate(0, 8)"><text x="0" y="0" dx="0em" dy="0.95em" style="text-anchor: middle; visibility: hidden; font-family: &quot;Helvetica Neue&quot;, sans-serif; font-size: 12px; font-weight: 200;" fill="rgb(50, 49, 63)" stroke="none" stroke-width="1px">-200</text><text x="32.32118055555556" y="0" dx="0em" dy="0.95em" style="text-anchor: middle; visibility: inherit; font-family: &quot;Helvetica Neue&quot;, sans-serif; font-size: 12px; font-weight: 200;" fill="rgb(50, 49, 63)" stroke="none" stroke-width="1px">0</text><text x="64.64236111111111" y="0" dx="0em" dy="0.95em" style="text-anchor: middle; visibility: inherit; font-family: &quot;Helvetica Neue&quot;, sans-serif; font-size: 12px; font-weight: 200;" fill="rgb(50, 49, 63)" stroke="none" stroke-width="1px">200</text><text x="96.96354166666666" y="0" dx="0em" dy="0.95em" style="text-anchor: middle; visibility: inherit; font-family: &quot;Helvetica Neue&quot;, sans-serif; font-size: 12px; font-weight: 200;" fill="rgb(50, 49, 63)" stroke="none" stroke-width="1px">400</text><text x="129.28472222222223" y="0" dx="0em" dy="0.95em" style="text-anchor: middle; visibility: inherit; font-family: &quot;Helvetica Neue&quot;, sans-serif; font-size: 12px; font-weight: 200;" fill="rgb(50, 49, 63)" stroke="none" stroke-width="1px">600</text><text x="161.60590277777777" y="0" dx="0em" dy="0.95em" style="text-anchor: middle; visibility: inherit; font-family: &quot;Helvetica Neue&quot;, sans-serif; font-size: 12px; font-weight: 200;" fill="rgb(50, 49, 63)" stroke="none" stroke-width="1px">800</text><text x="193.92708333333331" y="0" dx="0em" dy="0.95em" style="text-anchor: middle; visibility: inherit; font-family: &quot;Helvetica Neue&quot;, sans-serif; font-size: 12px; font-weight: 200;" fill="rgb(50, 49, 63)" stroke="none" stroke-width="1px">1k</text><text x="226.24826388888889" y="0" dx="0em" dy="0.95em" style="text-anchor: middle; visibility: inherit; font-family: &quot;Helvetica Neue&quot;, sans-serif; font-size: 12px; font-weight: 200;" fill="rgb(50, 49, 63)" stroke="none" stroke-width="1px">1.2k</text><text x="258.56944444444446" y="0" dx="0em" dy="0.95em" style="text-anchor: middle; visibility: inherit; font-family: &quot;Helvetica Neue&quot;, sans-serif; font-size: 12px; font-weight: 200;" fill="rgb(50, 49, 63)" stroke="none" stroke-width="1px">1.4k</text><text x="290.890625" y="0" dx="0em" dy="0.95em" style="text-anchor: middle; visibility: hidden; font-family: &quot;Helvetica Neue&quot;, sans-serif; font-size: 12px; font-weight: 200;" fill="rgb(50, 49, 63)" stroke="none" stroke-width="1px">1.6k</text></g><line x1="0" y1="0" x2="290.890625" y2="0" fill="rgb(0, 0, 0)" stroke="rgb(204, 204, 204)" stroke-width="1px"></line></g></g></g></g></svg>