<svg viewBox="0 0 330 200" xmlns="http://www.w3.org/2000/svg"><g><g><g><g><g><line x1="39.109375" y1="177" x2="34.109375" y2="177" style="visibility: inherit;" fill="rgb(0, 0, 0)" stroke="rgb(204, 204, 204)" stroke-width="1px"></line><line x1="39.109375" y1="163.38461538461544" x2="34.109375" y2="163.38461538461544" style="visibility: inherit;" fill="rgb(0, 0, 0)" stroke="rgb(204, 204, 204)" stroke-width="1px"></line><line x1="39.109375" y1="149.7692307692308" x2="34.109375" y2="149.7692307692308" style="visibility: inherit;" fill="rgb(0, 0, 0)" stroke="rgb(204, 204, 204)" stroke-width="1px"></line><line x1="39.109375" y1="136.1538461538462" x2="34.109375" y2="136.1538461538462" style="visibility: inherit;" fill="rgb(0, 0, 0)" stroke="rgb(204, 204, 204)" stroke-width="1px"></line><line x1="39.109375" y1="122.53846153846155" x2="34.109375" y2="122.53846153846155" style="visibility: inherit;" fill="rgb(0, 0, 0)" stroke="rgb(204, 204, 204)" stroke-width="1px"></line><line x1="39.109375" y1="108.9230769230769" x2="34.109375" y2="108.9230769230769" style="visibility: inherit;" fill="rgb(0, 0, 0)" stroke="rgb(204, 204, 204)" stroke-width="1px"></line><line x1="39.109375" y1="95.30769230769235" x2="34.109375" y2="95.30769230769235" style="visibility: inherit;" fill="rgb(0, 0, 0)" stroke="rgb(204, 204, 204)" stroke-width="1px"></line><line x1="39.109375" y1="81.69230769230772" x2="34.109375" y2="81.69230769230772" style="visibility: inherit;" fill="rgb(0, 0, 0)" stroke="rgb(204, 204, 204)" stroke-width="1px"></line><line x1="39.109375" y1="68.0769230769231" x2="34.109375" y2="68.0769230769231" style="visibility: inherit;" fill="rgb(0, 0, 0)" stroke="rgb(204, 204, 204)" stroke-width="1px"></line><line x1="39.109375" y1="54.46153846153847" x2="34.109375" y2="54.46153846153847" style="visibility: inherit;" fill="rgb(0, 0, 0)" stroke="rgb(204, 204, 204)" stroke-width="1px"></line><line x1="39.109375" y1="40.84615384615381" x2="34.109375" y2="40.84615384615381" style="visibility: inherit;" fill="rgb(0, 0, 0)" stroke="rgb(204, 204, 204)" stroke-width="1px"></line><line x1="39.109375" y1="27.230769230769255" x2="34.109375" y2="27.230769230769255" style="visibility: inherit;" fill="rgb(0, 0, 0)" stroke="rgb(204, 204, 204)" stroke-width="1px"></line><line x1="39.109375" y1="13.615384615384613" x2="34.109375" y2="13.615384615384613" style="visibility: inherit;" fill="rgb(0, 0, 0)" stroke="rgb(204, 204, 204)" stroke-width="1px"></line><line x1="39.109375" y1="0" x2="34.109375" y2="0" style="visibility: inherit;" fill="rgb(0, 0, 0)" stroke="rgb(204, 204, 204)" stroke-width="1px"></line></g><g transform="translate(29.109375, 0)"><text x="0" y="177" dx="0em" dy="0.3em" style="text-anchor: end; visibility: hidden; font-family: &quot;Helvetica Neue&quot;, sans-serif; font-size: 12px; font-weight: 200;" fill="rgb(50, 49, 63)" stroke="none" stroke-width="1px">5.4</text><text x="0" y="163.38461538461544" dx="0em" dy="0.3em" style="text-anchor: end; visibility: inherit; font-family: &quot;Helvetica Neue&quot;, sans-serif; font-size: 12px; font-weight: 200;" fill="rgb(50, 49, 63)" stroke="none" stroke-width="1px">5.6</text><text x="0" y="149.7692307692308" dx="0em" dy="0.3em" style="text-anchor: end; visibility: hidden; font-family: &quot;Helvetica Neue&quot;, sans-serif; font-size: 12px; font-weight: 200;" fill="rgb(50, 49, 63)" stroke="none" stroke-width="1px">5.8</text><text x="0" y="136.1538461538462" dx="0em" dy="0.3em" style="text-anchor: end; visibility: inherit; font-family: &quot;Helvetica Neue&quot;, sans-serif; font-size: 12px; font-weight: 200;" fill="rgb(50, 49, 63)" stroke="none" stroke-width="1px">6</text><text x="0" y="122.53846153846155" dx="0em" dy="0.3em" style="text-anchor: end; visibility: hidden; font-family: &quot;Helvetica Neue&quot;, sans-serif; font-size: 12px; font-weight: 200;" fill="rgb(50, 49, 63)" stroke="none" stroke-width="1px">6.2</text><text x="0" y="108.9230769230769" dx="0em" dy="0.3em" style="text-anchor: end; visibility: inherit; font-family: &quot;Helvetica Neue&quot;, sans-serif; font-size: 12px; font-weight: 200;" fill="rgb(50, 49, 63)" stroke="none" stroke-width="1px">6.4</text><text x="0" y="95.30769230769235" dx="0em" dy="0.3em" style="text-anchor: end; visibility: hidden; font-family: &quot;Helvetica Neue&quot;, sans-serif; font-size: 12px; font-weight: 200;" fill="rgb(50, 49, 63)" stroke="none" stroke-width="1px">6.6</text><text x="0" y="81.69230769230772" dx="0em" dy="0.3em" style="text-anchor: end; visibility: inherit; font-family: &quot;Helvetica Neue&quot;, sans-serif; font-size: 12px; font-weight: 200;" fill="rgb(50, 49, 63)" stroke="none" stroke-width="1px">6.8</text><text x="0" y="68.0769230769231" dx="0em" dy="0.3em" style="text-anchor: end; visibility: hidden; font-family: &quot;Helvetica Neue&quot;, sans-serif; font-size: 12px; font-weight: 200;" fill="rgb(50, 49, 63)" stroke="none" stroke-width="1px">7</text><text x="0" y="54.46153846153847" dx="0em" dy="0.3em" style="text-anchor: end; visibility: inherit; font-family: &quot;Helvetica Neue&quot;, sans-serif; font-size: 12px; font-weight: 200;" fill="rgb(50, 49, 63)" stroke="none" stroke-width="1px">7.2</text><text x="0" y="40.84615384615381" dx="0em" dy="0.3em" style="text-anchor: end; visibility: hidden; font-family: &quot;Helvetica Neue&quot;, sans-serif; font-size: 12px; font-weight: 200;" fill="rgb(50, 49, 63)" stroke="none" stroke-width="1px">7.4</text><text x="0" y="27.230769230769255" dx="0em" dy="0.3em" style="text-anchor: end; visibility: inherit; font-family: &quot;Helvetica Neue&quot;, sans-serif; font-size: 12px; font-weight: 200;" fill="rgb(50, 49, 63)" stroke="none" stroke-width="1px">7.6</text><text x="0" y="13.615384615384613" dx="0em" dy="0.3em" style="text-anchor: end; visibility: hidden; font-family: &quot;Helvetica Neue&quot;, sans-serif; font-size: 12px; font-weight: 200;" fill="rgb(50, 49, 63)" stroke="none" stroke-width="1px">7.8</text><text x="0" y="0" dx="0em" dy="0.3em" style="text-anchor: end; visibility: hidden; font-family: &quot;Helvetica Neue&quot;, sans-serif; font-size: 12px; font-weight: 200;" fill="rgb(50, 49, 63)" stroke="none" stroke-width="1px">8</text></g><line x1="39.109375" y1="0" x2="39.109375" y2="177" fill="rgb(0, 0, 0)" stroke="rgb(204, 204, 204)" stroke-width="1px"></line></g></g><g transform="translate(39, 0)" clip-path="url(#clip_0)"><clipPath id="clip_0"><rect width="290" height="177"></rect></clipPath><g><g><g><line x1="0" y1="0" x2="0" y2="177" fill="rgb(0, 0, 0)" stroke="rgb(60, 60, 60)" stroke-width="1px" opacity="0.25"></line><line x1="32.32118055555556" y1="0" x2="32.32118055555556" y2="177" fill="rgb(0, 0, 0)" stroke="rgb(60, 60, 60)" stroke-width="1px" opacity="0.25"></line><line x1="64.64236111111111" y1="0" x2="64.64236111111111" y2="177" fill="rgb(0, 0, 0)" stroke="rgb(60, 60, 60)" stroke-width="1px" opacity="0.25"></line><line x1="96.96354166666666" y1="0" x2="96.96354166666666" y2="177" fill="rgb(0, 0, 0)" stroke="rgb(60, 60, 60)" stroke-width="1px" opacity="0.25"></line><line x1="129.28472222222223" y1="0" x2="129.28472222222223" y2="177" fill="rgb(0, 0, 0)" stroke="rgb(60, 60, 60)" stroke-width="1px" opacity="0.25"></line><line x1="161.60590277777777" y1="0" x2="161.60590277777777" y2="177" fill="rgb(0, 0, 0)" stroke="rgb(60, 60, 60)" stroke-width="1px" opacity="0.25"></line><line x1="193.92708333333331" y1="0" x2="193.92708333333331" y2="177" fill="rgb(0, 0, 0)" stroke="rgb(60, 60, 60)" stroke-width="1px" opacity="0.25"></line><line x1="226.24826388888889" y1="0" x2="226.24826388888889" y2="177" fill="rgb(0, 0, 0)" stroke="rgb(60, 60, 60)" stroke-width="1px" opacity="0.25"></line><line x1="258.56944444444446" y1="0" x2="258.56944444444446" y2="177" fill="rgb(0, 0, 0)" stroke="rgb(60, 60, 60)" stroke-width="1px" opacity="0.25"></line><line x1="290.890625" y1="0" x2="290.890625" y2="177" fill="rgb(0, 0, 0)" stroke="rgb(60, 60, 60)" stroke-width="1px" opacity="0.25"></line></g><g><line x1="0" y1="177" x2="290.890625" y2="177" fill="rgb(0, 0, 0)" stroke="rgb(60, 60, 60)" stroke-width="1px" opacity="0.25"></line><line x1="0" y1="163.38461538461544" x2="290.890625" y2="163.38461538461544" fill="rgb(0, 0, 0)" stroke="rgb(60, 60, 60)" stroke-width="1px" opacity="0.25"></line><line x1="0" y1="149.7692307692308" x2="290.890625" y2="149.7692307692308" fill="rgb(0, 0, 0)" stroke="rgb(60, 60, 60)" stroke-width="1px" opacity="0.25"></line><line x1="0" y1="136.1538461538462" x2="290.890625" y2="136.1538461538462" fill="rgb(0, 0, 0)" stroke="rgb(60, 60, 60)" stroke-width="1px" opacity="0.25"></line><line x1="0" y1="122.53846153846155" x2="290.890625" y2="122.53846153846155" fill="rgb(0, 0, 0)" stroke="rgb(60, 60, 60)" stroke-width="1px" opacity="0.25"></line><line x1="0" y1="108.9230769230769" x2="290.890625" y2="108.9230769230769" fill="rgb(0, 0, 0)" stroke="rgb(60, 60, 60)" stroke-width="1px" opacity="0.25"></line><line x1="0" y1="95.30769230769235" x2="290.890625" y2="95.30769230769235" fill="rgb(0, 0, 0)" stroke="rgb(60, 60, 60)" stroke-width="1px" opacity="0.25"></line><line x1="0" y1="81.69230769230772" x2="290.890625" y2="81.69230769230772" fill="rgb(0, 0, 0)" stroke="rgb(60, 60, 60)" stroke-width="1px" opacity="0.25"></line><line x1="0" y1="68.0769230769231" x2="290.890625" y2="68.0769230769231" fill="rgb(0, 0, 0)" stroke="rgb(60, 60, 60)" stroke-width="1px" opacity="0.25"></line><line x1="0" y1="54.46153846153847" x2="290.890625" y2="54.46153846153847" fill="rgb(0, 0, 0)" stroke="rgb(60, 60, 60)" stroke-width="1px" opacity="0.25"></line><line x1="0" y1="40.84615384615381" x2="290.890625" y2="40.84615384615381" fill="rgb(0, 0, 0)" stroke="rgb(60, 60, 60)" stroke-width="1px" opacity="0.25"></line><line x1="0" y1="27.230769230769255" x2="290.890625" y2="27.230769230769255" fill="rgb(0, 0, 0)" stroke="rgb(60, 60, 60)" stroke-width="1px" opacity="0.25"></line><line x1="0" y1="13.615384615384613" x2="290.890625" y2="13.615384615384613" fill="rgb(0, 0, 0)" stroke="rgb(60, 60, 60)" stroke-width="1px" opacity="0.25"></line><line x1="0" y1="0" x2="290.890625" y2="0" fill="rgb(0, 0, 0)" stroke="rgb(60, 60, 60)" stroke-width="1px" opacity="0.25"></line></g></g></g><g><g><line x1="0" y1="544.6153846153848" x2="290.890625" y2="544.6153846153848" fill="rgb(0, 0, 0)" stroke="rgb(153, 153, 153)" stroke-width="1.5px"></line></g></g><g><g><line x1="32.32118055555556" y1="0" x2="32.32118055555556" y2="177" fill="rgb(0, 0, 0)" stroke="rgb(153, 153, 153)" stroke-width="1.5px"></line></g></g><g><g><g><g><g><path stroke="rgb(0, 119, 187)" stroke-width="2px" d="M32.32118055555556,31.319217681884766L66.95750931809414,31.917712321648253L101.1162208130787,50.37817349800697L135.129433126929,52.537487103388855L169.08767249951774,53.661113152137176L210.01805737943675,50.23105749717128" style="fill: none;" fill="none"></path></g><g><path stroke="rgb(255, 112, 67)" stroke-width="2px" d="M34.59969809124228,-101.28754872542163L34.80749634789738,15.748099180368285L35.012098398919754,13.422354918259856L35.21807410011574,-184.02789886181176L35.80129184702932,-59.77934690622183L36.002563020833335,14.131835790780883L36.198707696277005,-53.583724682147675L37.15853004340278,-34.49448218712439L37.375405164930555,30.221398610335115L37.57673918547454,-7.389040726881774L37.97479248022763,-5.28371077317459L38.347913575424386,10.372392214261566L38.541894527391975,-25.34582761617807L39.13918994405864,-30.733220760638886L39.333512064043205,6.834336794339691L39.72318878616898,-29.93102953984186L39.92108419222608,-12.667622566223145L40.10953463107639,3.6584230569692693L40.29615353636189,-0.9458013681265243L40.506797852527,-11.430835357079161L40.89172515673226,20.912124010232787L41.10490129870756,59.72549310097328L41.30241064621914,1.2780459110553295L41.500395833333336,7.230303470905L41.68993262297453,16.905225607065063L41.88181269820601,35.31670221915613L42.25458364728009,54.5580922640287L42.452631681134264,8.979237446418182L42.8286527044753,41.35757996485785L43.02575803722994,25.102787568018982L43.22481161892361,26.586380371680633L43.412516875,22.465022343855622L43.62607907552083,10.174993184896607L43.82113740017361,54.447041108058045L44.20947638454861,2.2976325108454887L44.3945420775463,46.48959765067468L44.59014806664737,28.657430868882415L44.799966397087196,18.868438647343567L45.00835720871914,79.12140039297252L45.08994125530479,-16.99839041783258L45.2906647646605,57.913616070380584L45.492860683352625,26.739307000086853L45.68932857060185,45.940379729637755L45.862372580054014,72.17786275423491L46.09017405623071,131.9016353900616L46.48620727719908,12.118956492497375L46.67850034529321,31.46591168183548L46.87934954812885,40.873674796177795L47.08598962914738,66.16162336789645L47.28106591001158,38.66777878541214L47.464713062307105,42.7938437461853L47.657526860532414,34.778878322014464L47.8428708748071,67.93756540005023L48.03568467303241,75.8258656355051L48.447689944058645,80.64440158697276L48.647596445794754,58.366650251241836L49.03692302179784,42.9344998873197L49.245233030478396,41.19303208131058L49.44017463975695,51.73526342098529L49.632090627411266,39.199272669278656L49.83402618103781,38.97382681186383L50.04434728539737,80.94067866985614L50.24878773051698,59.46485886206996L50.445237661554785,99.94175544151895L50.64047554832176,75.78694416926459L50.82649292052469,65.74942588806152L51.028769642168214,17.622724496401275L51.21928504533179,73.59890204209549L51.42224410300926,52.356643493358916L51.62080388888889,52.86969918471118L52.02735944974923,70.61795271359958L52.21964353973765,72.45836349634024L52.40019324556327,78.09308162102333L52.59953412663966,101.59794660714957L52.78856814236111,76.41939364946806L52.99482216483411,54.90935930838954L53.1914426798804,63.03735604652992L53.388458231577935,80.51257500281703L53.578219473861886,76.85817718505861L53.77005465856481,66.25284048227164L53.95304640914351,71.35937580695521L54.16376255015433,145.4616924432608L54.35215014226466,66.09715461730957L54.549874964313275,74.5817096416767L54.7371582494213,119.25770979661209L54.94510913387346,20.991979562319244L55.144943810763884,70.11804397289569L55.33408556375387,95.20135457699116L55.533228926504634,68.41815948486328L55.717127465760036,54.5234881914579L55.91540893036266,122.1002428348248L56.10802521026234,75.55572014588577L56.301530322627315,101.00081535486075L56.501068722029316,84.28669122549205L56.708929825424384,117.2458368081313L56.89929260079089,70.99908443597647L57.109326405767746,129.00028192079986L57.30292129918981,51.25132579069873L57.49633663049769,112.10794357153087L57.888617003279315,40.45888038781973L58.08938540316358,72.94791698455812L58.27951474778163,78.94467940697304L58.66824876880787,68.64435195922852L58.86067650848766,87.53083925980789L59.25591067804784,30.893905713007996L59.4359576099537,68.8527879348168L59.82448513454862,91.59243546999419L60.033217114197534,46.16030711394092L60.223822298418206,67.01370807794424L60.40398594569831,106.19752902251025L60.602078870081016,85.13501038918129L60.786605876736104,89.18326487907999L60.99092960648148,45.642934028918944L61.18826836998457,70.72572524730975L61.58370903597608,103.90028605094325L61.77856086419753,81.06072169083816L61.96846575617284,87.8071849162762L62.175123793402776,71.79140732838557L62.55906350597993,102.49382202441878L62.76272285590278,101.39233479133021L62.9505538054591,114.26790640904355L63.13491920621142,77.74723566495456L63.32594636140046,94.67284716092625L63.51597694685571,64.11125091406016L63.714366148726846,152.05980612681464L64.11625309461806,104.33932927938609L64.31339433979554,69.45534027539767L64.68141587094908,57.601660031538756L64.86727163724923,111.81945727421689L65.26518128231095,98.61634804652289L65.47328479456019,46.56283103502716L65.66687070987653,67.72984357980582L66.04849407118054,139.59198474884036L66.24231341724538,74.79634578411395L66.44046918836804,78.74478083390457L66.81422772907023,117.49838810700638L67.00301035783178,88.7499998166011L67.19821233217593,127.27338937612683L67.40310168258101,51.14180033023541L67.74495203559027,155.0668870485746L67.93711043209876,103.89694250546971L68.1359485392554,107.13209867477418L68.32891496527779,120.87566118973953L68.53923606963735,55.01164583059459L68.74601980034723,95.25524084384625L68.9447142578125,65.37543571912326L69.1371689318094,89.86736077528735L69.33506433786651,76.83886252916777L69.53010470630788,115.73906641740066L69.72184113184798,94.95250390126157L69.92029318045911,176.30680836164038L70.50783837432485,100.35129106961766L71.31068752121915,139.17202894504254L71.49988314284337,110.68742366937492L71.70265366030092,78.03445595961352L71.89601512297453,117.8888038488535L72.08708716869212,88.38837751975429L72.30728418933256,57.21059505756085L72.6961079914159,88.93671897741466L72.88400178771218,120.16858247610242L73.06553908516591,116.2206343504099L73.26503259403935,107.74104595184328L73.45143602478781,82.13224686109103L74.05416319540895,68.49197717813345L74.26039926167054,81.44678757740901L74.46245153067132,73.27652582755458L74.66036489293981,78.03536488459662L74.84873452883875,86.7470537699186L75.02939197193288,84.82263234945445L75.24102387972607,105.29418743573704L75.42690658034337,125.35630427874054L75.61069738233024,70.47064194312465L75.81132213252315,154.617683337285L76.0060841796875,46.31323374234714L76.20682564525463,82.2577109703651L76.59959083574459,78.16602285091693L76.79396682436344,136.93214563223034L77.00401858555168,121.52843163563657L77.38780567033179,109.12082653779251L77.6014396956983,62.770294409531814L77.81165306278935,144.74308985930224L77.99310057918595,96.45648259382983L78.1913910218943,102.9266326244061L78.38655708381559,126.77886926210846L78.57188314187886,100.0366731790396L78.97920184172455,61.14169560945952L79.16701483506944,69.2848194562472L79.562670975598,93.79894825128409L79.76192207561728,58.533795063312255L79.94089163483797,112.87981565182027L80.12216856722608,74.15373582106372L80.31122951726465,121.05186279003439L80.51615478009259,72.60681042304408L80.70809770206404,69.30575719246498L80.91062581066744,57.35005011925331L81.11556005160108,95.5194458594689L81.31806122588733,72.96262209232039L81.50856765094521,84.9779611367446L81.70047466049381,83.5031978900616L81.88859290943286,106.66958570480348L82.06749962191358,114.0834270990812L82.25199071614584,100.7479394399203L82.42964049382716,119.38982853522668L82.61563990981867,87.93995288702159L82.99746078944831,140.19482924388006L83.18478896508486,95.32814961213333L83.36901071614584,93.5031580924988L83.55211918209876,96.78093635118925L83.94264882426698,64.6809196472168L84.1503842341821,125.93678272687474L84.33097883053628,103.83815453602719L84.72885256317515,84.81876941827628L85.10926388020833,67.61369595160853L85.49286242476852,159.98186643307028L85.68881855999228,88.57678468410786L85.87298644241898,91.16524072793814L86.0664556423611,114.98284083146316L86.24321658757717,120.38334846496585L86.63665513599537,66.57356115487906L86.81970973331404,75.871733885545L87.01949054157022,67.33488321304321L87.20250024836035,104.18809065451991L87.4024606187307,99.35936175859892L87.59205127700618,87.64464965233437L87.78126485484182,101.59703768216649L87.97537150028936,74.44115088536189L88.56652589265047,67.654240498176L88.9556280160108,88.26632187916682L89.33359728829087,103.1644788155189L89.52353809268905,128.346018241002L89.92081029224538,135.55778613457315L90.10688153308256,85.77865912364081L90.30493854504245,91.49696588516237L90.5095316179591,101.10138141191923L90.70481439525462,94.44483683659482L90.88492417390046,87.42472226803122L91.07566402970679,95.59625002054068L91.26652060088735,85.96605997819168L91.45735023775077,114.15153154960046L91.63895038194444,103.78030795317432L91.82750855806326,142.68333600117612L92.39737586178627,98.74927832530096L92.56312067129629,102.77347876475409L92.76141111400464,75.59996531559871L92.9450043976659,99.04458155998819L93.12737665895062,84.48402533164393L93.51769980468751,81.39309608019316L93.72498630931713,69.09982076058022L93.91928149498456,86.92283336932844L94.1134689433835,96.557210958921L94.3254599754051,61.89470749634964L94.50339705246914,110.21075743895312L94.7086096146798,67.2112694153419L94.90022932484568,96.21711070720967L95.0930610792824,77.60963091483485L95.2917645148534,105.02352256041308L95.47226035204474,101.92639314211333L95.67899919222609,114.97488773786107L95.87948927083333,114.53652620315555L96.06305562017747,91.4571679555453L96.24983613136574,80.22840609917274L96.4506943123071,117.72337950192967L96.6374119767554,154.09943378888647L96.80790620418597,111.66928988236648L96.88957105372299,61.767328152289764L97.26716324556327,78.5814015681927L97.6431663126929,103.40654501548183L97.83275697096838,99.6341817195599L98.02346989245756,83.75925504244292L98.21340171875,101.84014265353865L98.40362982253086,180.0594025391799L98.58032792100694,112.82683830994827L98.76962230179399,69.30997720131508L98.9516264607446,101.17065448027392L99.14221368875387,132.24481949439416L99.33522500530478,77.74019149633556L99.53136968074845,94.77633476257326L99.73382596450618,75.45223254423877L99.94283626543209,68.96442339970515L100.1279199146412,94.55988077016978L100.31776195987653,80.8382298396184L100.49433436487269,87.34434733024013L100.69716772907022,70.87861941410945L100.87710692370757,85.6149877034701L101.05443348958335,84.8949568088238L101.2617559066358,116.43277094914365L101.47245409143518,199.1520535028898L101.6601862818287,79.72557581388034L101.85055803530093,66.54593632771419L102.039789569348,85.97105906559871L102.03999606577932,85.97105906559871L102.36997736304012,75.74071884155275L102.56219860628858,97.04747860248274L102.77228627989967,91.73237745578473L102.96035066020447,106.21473367397603L103.1418969357639,105.33859491348268L103.34435321952161,76.56527610925528L103.53445562982252,126.16495535923886L103.7169535845872,97.27928693477925L103.92714001736111,188.6590988819416L104.30648293981483,104.58964072740996L104.50524024402006,139.05104453747091L104.70450032214507,71.39027925638052L104.911158359375,85.35772947164683L105.11175617525076,119.89223681963409L105.29859055507329,91.20250665224516L105.48205814525463,109.02100709768443L105.67757435329861,94.17790504602286L105.87329705777391,105.85746123240546L106.06707151331018,84.26189055809608L106.25399567418981,114.67078740780171L106.46259298225308,87.64588319338286L106.62794275511187,109.1938326908992L107.03421999469522,151.4487488453205L107.22784182243441,96.25804479305562L107.41739656828703,112.15481813137349L107.60087313657408,91.10164844072783L107.79582372395832,89.26435397221493L107.9875960619213,82.04570421805751L108.16964511140047,118.92131016804623L108.35214306616513,115.22438764572146L108.54569306905866,152.84891532017636L108.73398190200618,87.07790246376625L109.12564278549382,95.87240090736978L109.31092395302855,146.7464254452632L109.49821621624228,147.95902875753552L109.68807621768904,200.2746732418354L109.88599855806326,79.00051337022049L110.27691425877701,125.3419562486502L110.46630739872687,117.11514638020444L110.66020754774304,113.88440498938928L110.85197090760032,94.72748004473173L111.05196719039351,173.08785053399896L111.24237485628858,97.75689455179068L111.6250935464892,130.45641220532934L111.99902267119984,88.27567082185013L112.18434872926312,95.16765942940347L112.36994413049767,110.5860785337595L112.76901195119599,123.26701035866373L112.95452654947917,97.79545894035928L113.14186370322146,106.14666168506331L113.52331648051698,82.35791994975165L113.71299691984953,90.59261798858644L113.90291976803627,129.46435304788446L114.09163955005786,90.5279220067538L114.28747896990741,93.85267221010649L114.4654788937114,91.77753155048077L114.65183743393132,106.27193102469813L114.84756911651233,116.2670869093675L115.04374970437885,88.02152890425464L115.41147495804398,110.11551508536708L115.61726211902007,136.74110907774707L115.80435686390818,89.55339211684009L116.16968496334876,86.63343814703136L116.7127615996335,85.15792828339798L116.90337576195988,127.31555700302127L117.27048152633103,104.23616629380447L117.45201882378473,111.80293431648843L117.65675554639274,78.33271320049579L117.86103438560957,76.8706749035762L118.04879351032022,94.94857604687031L118.42159139371142,170.99849169070907L118.62916519772378,156.10835277117218L118.82211366753474,81.5398225417504L119.0118210411844,148.3242542927082L119.20635863570602,147.92043190736038L119.40305995370369,100.00051094935492L119.58165243248456,126.54125030224142L119.77135082802855,112.59723736689642L119.95817622974536,140.6701970100403L120.14605206983025,91.9172787666321L120.3223641097608,95.64023549740132L120.52411112316744,65.17349206484282L120.89432331211421,102.29080713712254L121.0837613425926,94.62824491354137L121.26482280044367,119.6070616061871L121.45839973765433,95.61699298711925L121.63456812789352,128.05909010080194L121.83374740306714,85.26618774120627L122.02320338975696,90.30465107697708L122.2096068205054,92.49343982109659L122.37967009886188,119.6780876012949L122.562401484375,106.5931061597971L122.76056623360338,119.53116637009842L122.95540010561344,164.3076351972727L123.15044945216049,94.86719479927652L123.3585170519869,137.79880560361426L123.55489515817901,117.45531155512884L123.73281427903164,129.94111666312585L123.91596763551313,94.1302514076233L124.10060237943674,91.2464921291058L124.3031125318287,75.70497861275307L124.6709096103395,162.90039209219128L124.86474691261574,82.42956271538368L125.06232808497299,93.22418304590079L125.4390494005594,117.11881454174336L125.52022943238812,90.96537461647623L125.70688425009645,94.3621246631329L125.89529877652393,106.06492335979756L126.09538484037422,118.60341365520772L126.28985958815586,96.17013876254742L126.49957915943287,160.837619304657L126.67289251205632,115.98632647440985L126.85214039255402,94.73997776324933L127.036577618152,110.60997027617236L127.23403309702931,116.93550384961644L127.4173570375193,101.79836456592268L127.59621885947145,98.00850446407613L128.16781893759645,144.12609210381143L128.36261689718364,101.6164172612704L128.7422920095486,86.11716875663173L129.313972890625,94.29888945359451L129.50316851224926,100.01028189292323L129.68871004484953,98.22060860120335L129.87936909770448,102.26623370097235L130.08661071180558,177.42676624884976L130.28318633632333,83.10353059035083L130.47365684895834,121.43247512670666L130.68530671296296,57.62016314726611L130.86161875289352,117.1613067847032L131.05998102044754,119.62994703879724L131.2396867843364,90.90486618188712L131.61278992332177,102.5289454826942L131.80716591194061,103.6543893814087L131.9965141613619,91.17137597157407L132.2032260672261,133.14855062044586L132.43067739728008,203.3487549194923L132.61776316406247,91.54124351648184L132.81235462721838,103.53619667199943L133.19272105372298,125.55522900361282L133.38143185763886,112.93026098838222L133.58283770302856,78.98834026776828L133.7855004832176,73.85135595615095L134.88523762972605,123.60662368627698L135.2513198900463,129.8720059028039L135.44013843123074,105.85246214499843L135.62591339457947,99.38692166255072L135.81631208236882,94.12599893716666L136.01491675877702,75.24681549805862L136.19872551697532,100.7652414762057L136.19895894772378,100.7652414762057L136.52983805555553,112.75009907208958L136.7062039641204,134.38822691257184L136.90563462625386,173.43447556862466L137.11394463493443,135.02434455431427L137.30388543933256,95.9627415583684L137.51075895109955,87.26056392376242L137.69424449749226,114.12802934646609L137.8905777131559,122.82131250088034L138.07343479214893,108.97900177882269L138.2683135546875,133.34166471774762L138.6304723828125,129.62247353333694L138.82123917293595,95.51408969438994L139.01195209442514,104.68329246227559L139.4041426861497,137.62834970767682L139.5973874334491,103.87480368980997L139.7760068465471,127.26050211833075L139.95342319347995,114.11897255824164L140.16041342062115,136.20438887522772L140.35494203703706,116.34113183388345L140.54667846257718,122.78193657214827L140.72930211082175,115.59905950839705L140.91281459153166,94.20890588026782L141.10231546875,99.50949668884279L141.2931181712963,109.90246956165022L141.4912829205247,123.12148497654843L141.67814423466436,102.23757010239822L141.88097759886188,93.75015845665567L142.07178030140818,132.4002132048974L142.2595214699074,100.74238850520209L142.42943212046683,126.14963348095236L142.62057599103008,156.9267747952388L142.81911782069832,164.66107716927164L143.02433038290897,83.16877841949464L143.4139532364005,115.6190558580252L143.5987046956983,89.35193538665773L143.79500199893906,93.92100389187154L143.97680863956407,111.1284795174232L144.16349936969522,107.79295206069948L144.35715710985724,115.59373580492462L144.55676733410493,73.82363374416644L144.73550346257719,126.66716887400702L144.93817522087193,85.27362144910373L145.12476719184028,106.84114529536322L145.30210273582176,133.5614297940181L145.50360734037423,93.00584628031805L145.6947422328318,152.01237971966086L145.88075960503474,111.74963235855104L146.2496969029707,106.75638804068934L146.43910799913198,109.62540974983804L146.62326690345293,153.1629489018367L146.81720296489198,90.02233248490555L147.01281793209876,98.95501998754649L147.20759793547455,86.189850293673L147.38966494116514,109.39324433986958L147.5907924652778,167.53175442035385L147.76892706066744,104.9062387759869L147.95590509018135,112.29891520280106L148.15049655333718,153.56972529337958L148.3266739216821,100.19044380921585L148.51860786554786,163.14830138133124L148.70335034674,99.21244052740245L148.9031940017361,82.68954772215625L149.09693254484955,89.77033303334164L149.49222956114966,194.33669878886298L149.67470058159722,120.85956023289609L149.84859751109184,92.7468675833482L150.03713773099923,114.22710216962376L150.23453036313657,105.98828150675848L150.4214455459105,100.73245525360109L150.80991920187114,90.64241409301759L151.5655524908372,136.04331438358014L151.74686533564815,126.9568887123695L151.93020723234955,106.83095235090991L152.12332628616898,133.20178765517016L152.31299774739583,117.79505472916824L152.39123296055172,108.26731351705699L152.58094033420136,115.76860647935135L152.7757652281057,119.56099858650796L152.96496084972992,144.7240024346572L153.35215063657407,110.12885680565469L153.5522636347415,131.80561395791864L153.72948246334877,102.64720311531656L153.92735093508875,84.00141862722545L154.3143880941358,114.48825579423172L154.5083780242091,100.7198926118704L154.6960294116512,89.66476788887613L155.08154029272762,94.00959161611705L155.26692021942515,105.5825763482314L155.45344934365355,97.6203934962933L155.6295728433642,111.31321852023787L155.81350729504246,109.63563515589789L155.9988064187886,108.73385172623856L156.20338153549383,86.06341233620277L156.39346598958332,113.87213450211746L156.58389161168984,128.3366368367122L156.77126467785496,98.57648519369273L156.95692292582947,109.27953133216273L157.13609000337578,105.1682364023649L157.32586920187114,153.10020061639642L157.51524438560955,131.84959943477926L157.69644949315202,120.72133871225212L157.8845228515625,126.25747093787561L158.45374373167436,99.0571766633254L158.63589154031635,127.34921968900242L158.82050832802855,94.15271483934843L159.0153691343557,169.77559804916385L159.20592942804785,95.97608327865602L159.39523278694057,113.6440917161795L159.60518578896605,150.74189736292914L159.78262009211036,115.20809191923877L159.9678473910108,154.50838510806747L160.16725111882715,83.84625214796802L160.34649002121913,105.99509844413173L160.5318789260224,104.20730792559111L160.7326203915895,133.95444246438836L160.917228201196,105.71131907976591L161.2912919974923,100.75569776388316L161.45422665991515,112.32647510675285L161.64238979938273,110.31359580846934L161.850645939429,162.7738242882949L162.0329822882909,114.3470802673927L162.22503294753085,102.58909683961136L162.40837484423224,111.92365903120776L162.60564178288965,97.39488271566539L162.80289076533566,83.76928567886354L163.0018366097608,150.71550607681277L163.17187295380015,101.28469210404617L163.35941660397376,140.22923854681164L163.54213901138118,113.42799480144795L163.73155908564817,207.8709488648635L163.90934353491514,140.67237193767843L164.1176894560185,83.42285541387706L164.30449690152392,100.25705502583432L164.4926331066744,98.98209296740019L164.68033836275077,100.02459746140701L164.89946698881175,245.9616252092215L165.07790683979553,120.20815317447371L165.28618093605323,176.38818960923416L165.6695191155478,108.88307773149931L166.0556225516011,122.27271135036764L166.62519357783566,101.24271924679097L166.81498175443673,95.51856939609235L166.9946605840085,95.44825755632841L167.19135292390047,106.94804136569685L167.3810064289159,138.503092619089L167.5653897858796,119.4921475190383L167.75431606433258,117.76340466279251L167.94118635657793,144.82388679797833L168.12272365403163,117.15906693385199L168.31081496865357,95.85522871751053L168.50537051938656,94.85067184154805L168.68891891251928,176.36062970528238L168.874819569348,86.47499304551346L169.0591759919946,109.93720348064717L169.4559723519483,161.52142304640552L169.64528468894676,120.95408843113827L169.83432768277393,90.30689092782828L170.21149790364584,101.44667552067685L170.2117223562886,101.44667552067685L170.53957584249616,152.61671744860138L170.72564708333334,118.46860060325037L170.9092673013117,108.21401155911961L171.09716109760805,107.0205281330989L171.28445336082174,158.7789691411532L171.48961205439815,171.28574444697455L171.68541556182484,113.99496922126184L172.05206344280475,123.20799515797543L172.25617169801313,186.75834197264453L172.43378556327158,134.68226414460403L172.63136673562886,113.7939344919645L172.83006119309414,90.81942723347592L173.21131645206407,122.49345027483429L173.40930163917824,128.29115812595074L173.59891025366514,225.0785543368413L173.78638207899306,148.8175733272846L173.96024309606483,99.51157423166129L174.1563967496142,118.2708444962135L174.36103471305944,95.34996381172769L174.5509396050347,102.63262785398045L174.74069186921295,160.74010463861322L174.95973071421682,266.0451017893278L175.15346027922456,127.26040473351114L175.340483199267,124.83195194831262L175.52318765046297,107.38000796391415L175.7123922501929,107.45999336242677L176.07904013117283,119.51055324994603L176.2574261135224,138.86049490708572L176.4422583757716,103.68347498086784L176.629963631848,96.8702057691721L176.8167441430363,117.59661692839404L177.02478480854552,163.02273988723758L177.21546181761187,103.02161528513983L177.39948605034724,112.72786287161021L177.60457291907795,90.88532429475052L177.99275927565589,96.11748603674083L178.16627014660494,124.33736691108118L178.53492014515817,103.67376896051262L178.72378357687117,113.62179059248706L178.91858153645833,99.31764859419604L179.11867657841438,132.64367525394147L179.30541219907408,150.17365694046023L179.4938805941358,117.38074724490828L179.6871432976466,104.23522490721484L179.8724873119213,108.31782377683201L180.06366709490743,156.40897970933182L180.25833936101466,124.18200566218451L180.447068121142,118.60185549809384L180.62452038049767,118.94422806226292L180.81497293692132,130.73584171441888L181.0137661535494,149.30810066369867L181.19800586082175,112.32897465045637L181.57909053578317,79.78225377889781L181.76729856577933,135.53765993851883L181.95815513695987,159.992383993589L182.13984506221064,115.01452335944543L182.32502747058257,157.43272139475897L182.50607995032797,99.91711708215567L182.6824009683642,138.73499833620514L182.87805184799382,104.87978256665745L183.06360235869985,111.86295582697943L183.25805017216433,108.28257047213042L183.4662793778935,152.1664749659025L183.64555419270835,109.15825477013223L183.83436375578705,131.0748707331144L184.02389156732252,112.01474629915678L184.2027803235918,133.01373756848852L184.38855528694057,124.18012288900525L184.57574879099153,114.00623339873096L184.76594098234952,146.2767059986408L184.95544185956788,102.9717542574956L185.14253660445604,105.05552970446074L185.33164244502316,97.72339417384222L185.52378288532023,108.0273248599126L185.71160485677083,149.40454409672665L186.07262346547068,121.31648980654205L186.15085867862655,114.36762846433201L186.34079948302468,123.15066796082718L186.5267180960648,94.73624467849733L186.71396546875002,104.3375114294199L186.9022812360147,101.37448090773364L187.10154131413967,167.7052292456994L187.29045861448685,150.044751900893L187.69372818865742,134.33174371719363L187.87947621768905,100.19411197075479L188.07371753472222,97.49009260764491L188.27586856288582,75.32167196273805L188.47525433449076,79.26932793397171L188.66467440875772,99.73445562215953L188.85933769675927,87.40904331207277L189.05031996141977,100.7938076899602L189.23469434027777,115.53488291226903L189.42403361159336,119.64617784206686L189.6211569005594,85.58771995397716L189.7984924445409,101.76268926033609L189.9874995259452,98.05576856319722L190.17810471016585,108.76894272290745L190.36894332513504,98.1379613509545L190.56410938705633,169.22203027285065L190.96093268132717,100.90015191298266L191.1677882368827,141.96320772171023L191.34979239583333,132.80806082945605L191.53976911265434,119.77810181104222L191.7260827623457,93.92275681862466L191.90223319637346,113.5715724871709L192.1037737133488,94.58253897153416L192.29537546730322,94.72092280021083L192.48563948350696,116.76585949384251L192.68637197096837,136.8678067280696L192.88083774064427,118.58211884131799L193.08297979070215,87.39063758116504L193.28049811631942,131.30447167616626L193.6577132277199,94.47262397179239L193.8481657841435,135.0785229756282L194.22125994502315,139.38585354731634L194.4083816242284,105.01628362215483L194.59506337625388,100.5256748199463L194.7910913363233,133.38175480182355L195.1667891478588,106.5925218508794L195.35646958719138,104.60554691461418L195.54482126687884,119.27666737483099L195.7336038956404,168.85313657613904L195.92789908130786,97.49632523610043L196.10193068238814,127.94560432434085L196.48070798418212,111.32656024052548L196.86409105420526,94.01566193653989L197.04139966386958,137.0085277924171L197.2317444830247,90.42596010061412L197.42388492332176,125.75921773910525L197.60278265769676,137.81149809177106L197.9571484900656,117.00123860285834L198.13670162615742,112.79311070075404L198.30414329764662,106.0744670721201L198.49087891830632,118.34213018417361L198.66452446084105,126.83285291378317L198.8492040952932,102.88316653325009L199.04939789641202,86.32446857599112L199.43955045814042,105.9012844012334L199.6302095109954,111.03735978786763L199.82711732542435,111.9581332573524L200.0218614163773,161.39995171473578L200.21104805989586,96.13887823545018L200.3911129480131,102.21335374391997L200.5876257257909,101.84725174537074L200.76566156201775,146.07245757029608L200.95257674479166,104.43350039995634L201.1591539790702,175.0862844173725L201.36755376880788,89.55900797477138L201.55043778211805,119.91784902719353L201.7386907026427,105.30561392123884L201.93551771412038,98.03560990553638L202.12585355516975,151.38457224919247L202.30846822530864,126.600103194897L202.50363428722994,113.36833036862889L202.70207735773536,220.4191776422354L202.8892977961034,145.67681550979617L203.0595675708912,130.62040824156543L203.24106895592206,121.80045989843518L203.44478217447917,76.05553150177003L203.62807918065204,115.24055352577798L203.8104065514082,117.78606286415689L203.99653166087964,115.44340610504153L204.16999764130014,106.0825824737549L204.1702041377315,106.0825824737549L204.48389915123457,109.81722538287825L204.87565879388504,100.43718448052041L205.06273558256174,110.48054585090053L205.25592646122684,111.85922274222743L205.45243923900466,124.21300649642947L205.64821581211422,112.92490482330324L205.83896464602623,143.16344316189108L206.02621201871142,113.33129167556766L206.2152909249614,103.08835634818446L206.40429800636574,149.57142921594476L206.5898215827546,120.53377554966855L206.77767946662806,102.10892475568333L206.95994399064426,121.6252321463365L207.32912369743443,111.69983625411989L207.51137924334492,134.83804739438574L207.71657384934414,96.73896349393407L207.88993209249614,134.8124351868263L208.26053931809415,129.99474323712866L208.43418486062885,140.60507902732263L208.61817318094134,111.74281542117781L208.81580822193285,113.78202108236462L209.00269647038965,159.1771432069632L209.2071638498264,91.24801782461314L209.4039729050926,123.84395049168515L209.6077040798611,98.34285901143002L209.68483498601466,128.52189522523148L210.06398039014275,108.31717454470122L210.25353513599535,128.98320711576025L210.46189003520448,104.34416605876044L210.64185616415892,116.58569757754988L210.82785558015047,118.10295306719269L211.01237360869982,123.23136751468367L211.40507595244986,92.52736219993007L211.61009997444057,168.31463098526004L211.81223304639275,98.94395057971663L212.18222976080247,110.28749667681181L212.37627355951003,100.60686129790088L212.56644779465665,99.29651608833902L212.75283326919364,122.84874255840597L212.95300911410106,140.48578262329104L213.3309783863812,127.9750470014719L213.51654685329862,116.248875948099L213.7010738599537,127.69081317461456L214.0604674315201,108.86678200501663L214.25753685185185,189.8172316184411L214.4658468605324,158.298667210799L214.65567992766205,127.17720563595114L214.84238861400465,117.531596330496L215.02178014419366,112.53228169221146L215.2201603679591,132.08715347143323L215.40721022231867,109.24768649614775L215.58617978153936,138.58200678458581L215.7851794945988,101.08388460599461L215.97479708719135,115.4284088428204L216.16368745322143,103.2310251089243L216.36035285879632,135.97134700188272L216.54793242139272,96.88549518585206L216.72129964265048,117.9543762940627L216.8916681766011,136.43314581650955L217.08018146219135,122.82316281245306L217.45245861545138,127.7812512104328L217.84339227237655,127.41524659670318L218.02975979070217,100.49353782947249L218.4050356312693,100.32512701474705L218.59580242139273,118.51732547466572L218.769834022473,138.80216140013476L218.95887701630014,104.15355150516218L219.14598971739971,128.73283074452328L219.35257592978397,182.47646130048315L219.53017183883102,127.84484349764313L219.71364840711803,121.9213469211872L219.8993784799383,116.62604735447812L220.0914740297068,112.62853035560023L220.28497016396602,146.74749667827902L220.49205017216434,213.06639652985797L220.66840710262343,141.73195123672488L220.86237907648535,109.13134409831122L221.04473338155861,131.48421159157388L221.2123187027392,111.76862239837648L221.3897799402006,124.16999486776501L221.5751239544753,136.13777765860925L221.76472359085648,121.50788343869725L222.12594869598766,144.02419512088483L222.5151585566165,129.24871059564447L222.7095614795525,103.29805832642776L223.08591469280478,164.00012639852673L223.28454630353008,133.37113985648523L223.47219769097222,156.75355966274557L223.682357189429,167.0623595897968L223.8706190880594,104.47839480180008L224.07646011766974,124.41861831224884L224.28761618586034,184.64408507713907L224.70124649402004,110.77500508381772L224.89213897762346,176.5883803367615L225.07742912326387,165.26424628037674L225.45349503713348,139.44055135433493L225.6910108236883,103.5025664476248L225.9263898210841,110.4758064563458L226.1594704234182,156.73632254967325L226.57693438271605,145.35103082656863L226.7609675935571,103.387652360476L226.95140219376927,226.96489829283496L227.1452305179398,154.6173587212196L227.33552146846068,124.83191948670608L227.56431951437114,96.60716937138486L227.84946415171683,131.5817587192242L228.0887216907793,117.71149855393631L228.37057136332947,133.88912971203146L228.6339440943287,153.31165552139285L228.84519892168208,109.28147902855508L229.13829816068673,148.20002372448263L229.38796132426697,111.73207062941333L229.64793135320215,106.46734989606419L229.94865300395446,98.25677083088803L230.25156531249996,108.97838500829845L230.69257884307484,84.25289869308473L231.0683395013503,121.9941907662612L231.65634257860725,103.58407754164477L232.1450657629244,97.79575109481813L232.5272457667824,134.04270557256848L232.7883290808256,149.36091569753796L233.01252135850692,177.0190160091107L233.26885525462964,89.33934028332051L233.51945214120371,119.11588503764227L233.80867283854167,92.91527839807364L234.14190421006947,119.38723160670355L234.44125221064814,105.63110645000752L234.68489106529708,228.07560462218066L234.93412327980323,122.43333137952366L235.5177719757909,121.00917577743533L235.80089653935184,105.64642832829404L236.0755637273341,198.2706559621371L236.46291512008102,147.3536197955792L236.77946517119986,92.05390966855565L237.10954522762344,147.5884145956773L237.69265523726853,98.90911927590005L238.01480762635032,127.20901801035956L238.3486943995949,126.98555231094363L238.6607643759645,134.40351632925183L238.92639958960262,165.08651898457455L239.8918422309028,120.31089415917032L240.13770765576777,233.41703213178198L240.44224500144674,101.37467567737288L240.71129189525462,101.69107895631058L241.07370211033953,122.31364543621359L241.43272757957175,104.18266956622786L241.79535326919367,139.34605561769928L242.13315449652777,104.59733412815976L242.41799387827933,105.35138478645914L242.75519357253086,115.7784098845262L243.07521815055944,152.97282127233655L243.26114574170526,100.96254312075102L243.5042369319059,104.11131895505467L243.75548024209104,116.88096835063055L244.00030420669367,95.22742124704214L244.31535491415895,121.95186083133406L244.75358523196374,144.2775579599234L245.0083659157986,78.08318083102888L245.00859036844136,78.08318083102888L245.6215795138889,161.65032808597275L246.03816361882718,141.71776551466724L246.35158928915897,152.29177676714386L246.57791835599923,126.94036575464104L247.00733217399693,162.94567603331348L247.36236238618827,136.6575204409086L247.68181236545138,219.76536842492914L248.31282056905863,100.54729424990141L248.9843738980517,139.52368552868185L249.30856431712962,116.26085428091199L249.57518712239585,107.58289300478422L249.9213200318287,111.7630065404452L250.2636372463349,126.78831558961136L250.9567829195602,136.94827905068033L251.80548325231484,113.37492007475635L252.1828958820409,194.33650401922375L252.5651297545332,113.08815424258894L252.98122904176313,96.83384876984817L253.44471477092978,102.86375449253964L253.8835017312886,115.005044570336L254.31822160976077,125.37483985607443L254.7090116169946,160.00085647289572L255.13358623601465,122.95469724214996L255.58235684992283,110.7399790103619L256.0193751234568,106.7138957977295L256.26084127652393,214.35460292376007L256.6763569868827,113.52807393440835L257.07780400559415,123.65314116844766L257.5028724204283,119.64435999210066L258.5005015706983,101.39905434388382L258.97069394483026,134.72050391710724L259.38010454330635,142.90793785682092L260.21237494261186,117.68718481063846L260.59936721113036,158.59510660171512L261.05277052758487,139.44753059974084L261.3921429234182,116.30016528643097L261.6885730396412,190.29347584797787L262.0503727435378,104.91880141771757L262.397672806713,97.53725932194638L262.5187515403164,124.52048283356888L262.9461363064237,119.34590798157913L263.35233274305557,124.59397591077366L263.7508439211999,105.58283604108372L264.1472632007137,131.1459616514353L264.5455948167438,127.92268643012414L264.96093096498845,123.5594569719755L265.31377949749225,95.89457218463605L265.7234953515625,130.29196170660168L266.12940448881176,128.30810308456424L266.401503938561,260.0994014739991L267.30130764901617,130.17198360883276L267.7612111140046,151.16594332915088L268.1431127965856,151.66990977067215L268.68157468653544,141.19552318866437L269.0483931515239,104.01390167383049L269.493608435571,135.29896974563601L270.03500616608795,175.91084168507504L273.7967875679977,159.195613861084L280.3176845042438,141.5796413788429" style="fill: none;" fill="none"></path></g></g></g></g></g></g><g transform="translate(39, 177)" clip-path="url(#clip_1)"><clipPath id="clip_1"><rect width="290" height="23"></rect></clipPath><g><g><line x1="0" y1="0" x2="0" y2="5" style="visibility: inherit;" fill="rgb(0, 0, 0)" stroke="rgb(204, 204, 204)" stroke-width="1px"></line><line x1="32.32118055555556" y1="0" x2="32.32118055555556" y2="5" style="visibility: inherit;" fill="rgb(0, 0, 0)" stroke="rgb(204, 204, 204)" stroke-width="1px"></line><line x1="64.64236111111111" y1="0" x2="64.64236111111111" y2="5" style="visibility: inherit;" fill="rgb(0, 0, 0)" stroke="rgb(204, 204, 204)" stroke-width="1px"></line><line x1="96.96354166666666" y1="0" x2="96.96354166666666" y2="5" style="visibility: inherit;" fill="rgb(0, 0, 0)" stroke="rgb(204, 204, 204)" stroke-width="1px"></line><line x1="129.28472222222223" y1="0" x2="129.28472222222223" y2="5" style="visibility: inherit;" fill="rgb(0, 0, 0)" stroke="rgb(204, 204, 204)" stroke-width="1px"></line><line x1="161.60590277777777" y1="0" x2="161.60590277777777" y2="5" style="visibility: inherit;" fill="rgb(0, 0, 0)" stroke="rgb(204, 204, 204)" stroke-width="1px"></line><line x1="193.92708333333331" y1="0" x2="193.92708333333331" y2="5" style="visibility: inherit;" fill="rgb(0, 0, 0)" stroke="rgb(204, 204, 204)" stroke-width="1px"></line><line x1="226.24826388888889" y1="0" x2="226.24826388888889" y2="5" style="visibility: inherit;" fill="rgb(0, 0, 0)" stroke="rgb(204, 204, 204)" stroke-width="1px"></line><line x1="258.56944444444446" y1="0" x2="258.56944444444446" y2="5" style="visibility: inherit;" fill="rgb(0, 0, 0)" stroke="rgb(204, 204, 204)" stroke-width="1px"></line><line x1="290.890625" y1="0" x2="290.890625" y2="5" style="visibility: inherit;" fill="rgb(0, 0, 0)" stroke="rgb(204, 204, 204)" stroke-width="1px"></line></g><g transform="translate(0, 8)"><text x="0" y="0" dx="0em" dy="0.95em" style="text-anchor: middle; visibility: hidden; font-family: &quot;Helvetica Neue&quot;, sans-serif; font-size: 12px; font-weight: 200;" fill="rgb(50, 49, 63)" stroke="none" stroke-width="1px">-1</text><text x="32.32118055555556" y="0" dx="0em" dy="0.95em" style="text-anchor: middle; visibility: inherit; font-family: &quot;Helvetica Neue&quot;, sans-serif; font-size: 12px; font-weight: 200;" fill="rgb(50, 49, 63)" stroke="none" stroke-width="1px">0</text><text x="64.64236111111111" y="0" dx="0em" dy="0.95em" style="text-anchor: middle; visibility: inherit; font-family: &quot;Helvetica Neue&quot;, sans-serif; font-size: 12px; font-weight: 200;" fill="rgb(50, 49, 63)" stroke="none" stroke-width="1px">1</text><text x="96.96354166666666" y="0" dx="0em" dy="0.95em" style="text-anchor: middle; visibility: inherit; font-family: &quot;Helvetica Neue&quot;, sans-serif; font-size: 12px; font-weight: 200;" fill="rgb(50, 49, 63)" stroke="none" stroke-width="1px">2</text><text x="129.28472222222223" y="0" dx="0em" dy="0.95em" style="text-anchor: middle; visibility: inherit; font-family: &quot;Helvetica Neue&quot;, sans-serif; font-size: 12px; font-weight: 200;" fill="rgb(50, 49, 63)" stroke="none" stroke-width="1px">3</text><text x="161.60590277777777" y="0" dx="0em" dy="0.95em" style="text-anchor: middle; visibility: inherit; font-family: &quot;Helvetica Neue&quot;, sans-serif; font-size: 12px; font-weight: 200;" fill="rgb(50, 49, 63)" stroke="none" stroke-width="1px">4</text><text x="193.92708333333331" y="0" dx="0em" dy="0.95em" style="text-anchor: middle; visibility: inherit; font-family: &quot;Helvetica Neue&quot;, sans-serif; font-size: 12px; font-weight: 200;" fill="rgb(50, 49, 63)" stroke="none" stroke-width="1px">5</text><text x="226.24826388888889" y="0" dx="0em" dy="0.95em" style="text-anchor: middle; visibility: inherit; font-family: &quot;Helvetica Neue&quot;, sans-serif; font-size: 12px; font-weight: 200;" fill="rgb(50, 49, 63)" stroke="none" stroke-width="1px">6</text><text x="258.56944444444446" y="0" dx="0em" dy="0.95em" style="text-anchor: middle; visibility: inherit; font-family: &quot;Helvetica Neue&quot;, sans-serif; font-size: 12px; font-weight: 200;" fill="rgb(50, 49, 63)" stroke="none" stroke-width="1px">7</text><text x="290.890625" y="0" dx="0em" dy="0.95em" style="text-anchor: middle; visibility: hidden; font-family: &quot;Helvetica Neue&quot;, sans-serif; font-size: 12px; font-weight: 200;" fill="rgb(50, 49, 63)" stroke="none" stroke-width="1px">8</text></g><line x1="0" y1="0" x2="290.890625" y2="0" fill="rgb(0, 0, 0)" stroke="rgb(204, 204, 204)" stroke-width="1px"></line></g></g></g></g></svg>