<svg viewBox="0 0 330 200" xmlns="http://www.w3.org/2000/svg"><g><g><g><g><g><line x1="48.8125" y1="177" x2="43.8125" y2="177" style="visibility: inherit;" fill="rgb(0, 0, 0)" stroke="rgb(204, 204, 204)" stroke-width="1px"></line><line x1="48.8125" y1="157.33333333333334" x2="43.8125" y2="157.33333333333334" style="visibility: inherit;" fill="rgb(0, 0, 0)" stroke="rgb(204, 204, 204)" stroke-width="1px"></line><line x1="48.8125" y1="137.66666666666669" x2="43.8125" y2="137.66666666666669" style="visibility: inherit;" fill="rgb(0, 0, 0)" stroke="rgb(204, 204, 204)" stroke-width="1px"></line><line x1="48.8125" y1="118" x2="43.8125" y2="118" style="visibility: inherit;" fill="rgb(0, 0, 0)" stroke="rgb(204, 204, 204)" stroke-width="1px"></line><line x1="48.8125" y1="98.33333333333334" x2="43.8125" y2="98.33333333333334" style="visibility: inherit;" fill="rgb(0, 0, 0)" stroke="rgb(204, 204, 204)" stroke-width="1px"></line><line x1="48.8125" y1="78.66666666666666" x2="43.8125" y2="78.66666666666666" style="visibility: inherit;" fill="rgb(0, 0, 0)" stroke="rgb(204, 204, 204)" stroke-width="1px"></line><line x1="48.8125" y1="59" x2="43.8125" y2="59" style="visibility: inherit;" fill="rgb(0, 0, 0)" stroke="rgb(204, 204, 204)" stroke-width="1px"></line><line x1="48.8125" y1="39.33333333333334" x2="43.8125" y2="39.33333333333334" style="visibility: inherit;" fill="rgb(0, 0, 0)" stroke="rgb(204, 204, 204)" stroke-width="1px"></line><line x1="48.8125" y1="19.666666666666686" x2="43.8125" y2="19.666666666666686" style="visibility: inherit;" fill="rgb(0, 0, 0)" stroke="rgb(204, 204, 204)" stroke-width="1px"></line><line x1="48.8125" y1="0" x2="43.8125" y2="0" style="visibility: inherit;" fill="rgb(0, 0, 0)" stroke="rgb(204, 204, 204)" stroke-width="1px"></line></g><g transform="translate(38.8125, 0)"><text x="0" y="177" dx="0em" dy="0.3em" style="text-anchor: end; visibility: hidden; font-family: &quot;Helvetica Neue&quot;, sans-serif; font-size: 12px; font-weight: 200;" fill="rgb(50, 49, 63)" stroke="none" stroke-width="1px">-100</text><text x="0" y="157.33333333333334" dx="0em" dy="0.3em" style="text-anchor: end; visibility: inherit; font-family: &quot;Helvetica Neue&quot;, sans-serif; font-size: 12px; font-weight: 200;" fill="rgb(50, 49, 63)" stroke="none" stroke-width="1px">0</text><text x="0" y="137.66666666666669" dx="0em" dy="0.3em" style="text-anchor: end; visibility: hidden; font-family: &quot;Helvetica Neue&quot;, sans-serif; font-size: 12px; font-weight: 200;" fill="rgb(50, 49, 63)" stroke="none" stroke-width="1px">100</text><text x="0" y="118" dx="0em" dy="0.3em" style="text-anchor: end; visibility: inherit; font-family: &quot;Helvetica Neue&quot;, sans-serif; font-size: 12px; font-weight: 200;" fill="rgb(50, 49, 63)" stroke="none" stroke-width="1px">200</text><text x="0" y="98.33333333333334" dx="0em" dy="0.3em" style="text-anchor: end; visibility: hidden; font-family: &quot;Helvetica Neue&quot;, sans-serif; font-size: 12px; font-weight: 200;" fill="rgb(50, 49, 63)" stroke="none" stroke-width="1px">300</text><text x="0" y="78.66666666666666" dx="0em" dy="0.3em" style="text-anchor: end; visibility: inherit; font-family: &quot;Helvetica Neue&quot;, sans-serif; font-size: 12px; font-weight: 200;" fill="rgb(50, 49, 63)" stroke="none" stroke-width="1px">400</text><text x="0" y="59" dx="0em" dy="0.3em" style="text-anchor: end; visibility: hidden; font-family: &quot;Helvetica Neue&quot;, sans-serif; font-size: 12px; font-weight: 200;" fill="rgb(50, 49, 63)" stroke="none" stroke-width="1px">500</text><text x="0" y="39.33333333333334" dx="0em" dy="0.3em" style="text-anchor: end; visibility: inherit; font-family: &quot;Helvetica Neue&quot;, sans-serif; font-size: 12px; font-weight: 200;" fill="rgb(50, 49, 63)" stroke="none" stroke-width="1px">600</text><text x="0" y="19.666666666666686" dx="0em" dy="0.3em" style="text-anchor: end; visibility: hidden; font-family: &quot;Helvetica Neue&quot;, sans-serif; font-size: 12px; font-weight: 200;" fill="rgb(50, 49, 63)" stroke="none" stroke-width="1px">700</text><text x="0" y="0" dx="0em" dy="0.3em" style="text-anchor: end; visibility: hidden; font-family: &quot;Helvetica Neue&quot;, sans-serif; font-size: 12px; font-weight: 200;" fill="rgb(50, 49, 63)" stroke="none" stroke-width="1px">800</text></g><line x1="48.8125" y1="0" x2="48.8125" y2="177" fill="rgb(0, 0, 0)" stroke="rgb(204, 204, 204)" stroke-width="1px"></line></g></g><g transform="translate(48, 0)" clip-path="url(#clip_0)"><clipPath id="clip_0"><rect width="281" height="177"></rect></clipPath><g><g><g><line x1="0" y1="0" x2="0" y2="177" fill="rgb(0, 0, 0)" stroke="rgb(60, 60, 60)" stroke-width="1px" opacity="0.25"></line><line x1="28.118750000000002" y1="0" x2="28.118750000000002" y2="177" fill="rgb(0, 0, 0)" stroke="rgb(60, 60, 60)" stroke-width="1px" opacity="0.25"></line><line x1="56.237500000000004" y1="0" x2="56.237500000000004" y2="177" fill="rgb(0, 0, 0)" stroke="rgb(60, 60, 60)" stroke-width="1px" opacity="0.25"></line><line x1="84.35625" y1="0" x2="84.35625" y2="177" fill="rgb(0, 0, 0)" stroke="rgb(60, 60, 60)" stroke-width="1px" opacity="0.25"></line><line x1="112.47500000000001" y1="0" x2="112.47500000000001" y2="177" fill="rgb(0, 0, 0)" stroke="rgb(60, 60, 60)" stroke-width="1px" opacity="0.25"></line><line x1="140.59375" y1="0" x2="140.59375" y2="177" fill="rgb(0, 0, 0)" stroke="rgb(60, 60, 60)" stroke-width="1px" opacity="0.25"></line><line x1="168.7125" y1="0" x2="168.7125" y2="177" fill="rgb(0, 0, 0)" stroke="rgb(60, 60, 60)" stroke-width="1px" opacity="0.25"></line><line x1="196.83124999999998" y1="0" x2="196.83124999999998" y2="177" fill="rgb(0, 0, 0)" stroke="rgb(60, 60, 60)" stroke-width="1px" opacity="0.25"></line><line x1="224.95000000000002" y1="0" x2="224.95000000000002" y2="177" fill="rgb(0, 0, 0)" stroke="rgb(60, 60, 60)" stroke-width="1px" opacity="0.25"></line><line x1="253.06875" y1="0" x2="253.06875" y2="177" fill="rgb(0, 0, 0)" stroke="rgb(60, 60, 60)" stroke-width="1px" opacity="0.25"></line><line x1="281.1875" y1="0" x2="281.1875" y2="177" fill="rgb(0, 0, 0)" stroke="rgb(60, 60, 60)" stroke-width="1px" opacity="0.25"></line></g><g><line x1="0" y1="177" x2="281.1875" y2="177" fill="rgb(0, 0, 0)" stroke="rgb(60, 60, 60)" stroke-width="1px" opacity="0.25"></line><line x1="0" y1="157.33333333333334" x2="281.1875" y2="157.33333333333334" fill="rgb(0, 0, 0)" stroke="rgb(60, 60, 60)" stroke-width="1px" opacity="0.25"></line><line x1="0" y1="137.66666666666669" x2="281.1875" y2="137.66666666666669" fill="rgb(0, 0, 0)" stroke="rgb(60, 60, 60)" stroke-width="1px" opacity="0.25"></line><line x1="0" y1="118" x2="281.1875" y2="118" fill="rgb(0, 0, 0)" stroke="rgb(60, 60, 60)" stroke-width="1px" opacity="0.25"></line><line x1="0" y1="98.33333333333334" x2="281.1875" y2="98.33333333333334" fill="rgb(0, 0, 0)" stroke="rgb(60, 60, 60)" stroke-width="1px" opacity="0.25"></line><line x1="0" y1="78.66666666666666" x2="281.1875" y2="78.66666666666666" fill="rgb(0, 0, 0)" stroke="rgb(60, 60, 60)" stroke-width="1px" opacity="0.25"></line><line x1="0" y1="59" x2="281.1875" y2="59" fill="rgb(0, 0, 0)" stroke="rgb(60, 60, 60)" stroke-width="1px" opacity="0.25"></line><line x1="0" y1="39.33333333333334" x2="281.1875" y2="39.33333333333334" fill="rgb(0, 0, 0)" stroke="rgb(60, 60, 60)" stroke-width="1px" opacity="0.25"></line><line x1="0" y1="19.666666666666686" x2="281.1875" y2="19.666666666666686" fill="rgb(0, 0, 0)" stroke="rgb(60, 60, 60)" stroke-width="1px" opacity="0.25"></line><line x1="0" y1="0" x2="281.1875" y2="0" fill="rgb(0, 0, 0)" stroke="rgb(60, 60, 60)" stroke-width="1px" opacity="0.25"></line></g></g></g><g><g><line x1="0" y1="157.33333333333334" x2="281.1875" y2="157.33333333333334" fill="rgb(0, 0, 0)" stroke="rgb(153, 153, 153)" stroke-width="1.5px"></line></g></g><g><g><line x1="28.118750000000002" y1="0" x2="28.118750000000002" y2="177" fill="rgb(0, 0, 0)" stroke="rgb(153, 153, 153)" stroke-width="1.5px"></line></g></g><g><g><g><g><g><path stroke="rgb(204, 51, 17)" stroke-width="2px" d="M28.118750000000002,58.41L28.32719585590278,99.71000000000001L28.547061048611116,100.89L28.705955418402777,111.51L28.846369520833335,113.87L28.983659317708334,115.05000000000001L29.12140213888889,116.23L29.256903270833337,117.41L29.382320706597223,117.41L29.493202310763888,120.95L29.62245483159722,116.23L29.75506598090278,116.23L29.87587506597222,120.95L30.006830333333333,118.59L30.13768406076389,117.41L30.251588430555554,120.95L30.365438125,120.95L30.493714300347225,117.41L30.610766407986112,120.95L30.739448743055554,118.59L30.86685011284722,117.41L30.982488472222222,120.95L31.093455994791665,120.95L31.20275982465278,120.95L31.338175038194446,116.23L31.453383805555553,120.95L31.56731941840278,120.95L31.68362950347222,120.95L31.79633882638889,120.95L31.90832955902778,120.95L32.02129663715278,120.95L32.13251410416667,120.95L32.26203219097223,116.23L32.390542689236106,118.59L32.50176796701388,120.95L32.61093901388888,120.95L32.73891838020833,118.59L32.86681963888889,118.59L32.97439728993056,120.95L33.08259980208334,120.95L33.21139148784722,118.59L33.33947239409722,118.59L33.45022902604167,120.95L33.57156143229167,120.95L33.69893936979167,118.59L33.82486450520833,117.41L33.938604848958335,120.95L34.05020504340278,120.95L34.169248895833334,118.59L34.282872078125,119.77000000000001L34.41176530381945,117.41L34.52474800347222,120.95L34.63504380034722,120.95L34.764171348958335,116.23L34.87664634895834,120.95L34.98849648784722,120.95L35.12157628298611,117.41L35.23618362152778,120.95L35.343495706597224,120.95L35.474404109375,118.59L35.5868088125,120.95L35.715209960069444,117.41L35.847344652777785,117.41L35.967833496527774,120.95L36.016252421875,119.77000000000001L36.12887582638889,120.95L36.257245730902774,118.59L36.38296778645834,117.41L36.491607701388894,120.95L36.633982305555556,116.23L36.758696772569444,117.41L36.88724632465278,117.41L37.00108820833333,120.95L37.12552929861112,117.41L37.25619556770833,116.23L37.3843077170139,117.41L37.48891727777778,120.95L37.61517046527778,117.41L37.727200251736114,120.95L37.84231528993055,120.95L37.97173183680555,117.41L38.09202541145834,120.95L38.22012193923611,116.23L38.35069447916667,117.41L38.467363859375,118.59L38.59653827256945,117.41L38.71046607465278,120.95L38.82462819965277,120.95L38.95242791840278,118.59L39.071831065972226,120.95L39.20081802083333,116.23L39.32583710763889,117.41L39.44981736284722,117.41L39.56247982118055,120.95L39.69878546180556,118.59L39.822765717013894,117.41L39.94908920138889,118.59L40.07371775,118.59L40.210585765625005,117.41L40.32392776041666,120.95L40.43687921701389,120.95L40.546784475694444,120.95L40.66550027604167,120.95L40.77814711284722,120.95L40.90855562673612,117.41L41.022374078125,120.95L41.13501310416667,122.13L41.25779050173611,118.59L41.381637973958334,118.59L41.49000451215278,122.13L41.62263909375,117.41L41.73002147569444,120.95L41.84110615972222,120.95L41.95540106770833,120.95L42.08495820833333,118.59L42.19847203993056,120.95L42.32021841666666,118.59L42.44603420138888,117.41L42.555111519097224,120.95L42.67328837673612,120.95L42.783756010416674,120.95L42.89903507465277,120.95L43.01089302430556,120.95L43.14315268923611,116.23L43.25137082291667,122.13L43.373101578125,120.95L43.484990770833335,120.95L43.60022297048611,120.95L43.71113581770833,120.95L43.84473893402778,118.59L43.95901040972223,120.95L44.072102460069445,120.95L44.19684817013889,117.41L44.31084626909722,120.95L44.423172864583336,120.95L44.547324956597215,118.59L44.68341970659722,118.59L44.79512144097222,120.95L44.91835186284722,117.41L45.033716845486104,120.95L45.165796862847216,118.59L45.27826405208333,120.95L45.390223541666664,120.95L45.501644088541674,120.95L45.61432216840278,120.95L45.744144874999996,118.59L45.85761184201389,120.95L45.991363362847224,117.41L46.10414298263889,120.95L46.22569409027778,118.59L46.33912200347223,120.95L46.46919465451389,116.23L46.59982186979167,118.59L46.71167981944444,120.95L46.82869287326389,120.95L46.94075390277777,120.95L47.05447862500001,120.95L47.18250485590278,116.23L47.306391381944444,117.41L47.425763286458334,120.95L47.54397919791667,119.77000000000001L47.66071106423612,120.95L47.77884886805556,119.77000000000001L47.881888465277775,120.95L48.010727015625,117.41L48.13546491493056,117.41L48.26526418923611,116.23L48.38841650347222,117.41L48.52073084375,118.59L48.650498875000004,116.23L48.779079670138884,118.59L48.906770038194445,117.41L49.03273422743055,117.41L49.15019249479166,119.77000000000001L49.273321376736114,117.41L49.38922530208333,120.95L49.508112939236106,120.95L49.63242905729167,119.77000000000001L49.761775307291664,118.59L49.76193152256945,118.59L49.96600335069444,78.86333333333334L50.08428955902778,119.77000000000001L50.20676233680556,119.77000000000001L50.32998494791667,117.41L50.466509289930556,118.59L50.596542887152786,116.23L50.72467846875001,118.59L50.84794013368055,118.59L50.975911689236106,118.59L51.11167057638889,116.23L51.2483823767361,116.23L51.39227226909722,116.23L51.52750002430555,116.23L51.660126795138886,116.23L51.787184491319444,118.59L51.90696255555555,119.77000000000001L52.036246319444444,117.41L52.149877312499996,120.95L52.26239917708333,122.13L52.38433301215278,118.59L52.510773657986114,118.59L52.62620112673611,120.95L52.73536436284722,122.13L52.86492931423611,119.77000000000001L52.994353671875004,117.41L53.099689633680555,122.13L53.20945429861111,122.13L53.32217143229166,120.95L53.434130921875,120.95L53.542356866319444,120.95L53.65628466840278,120.95L53.78226447916666,117.41L53.912329319444446,118.59L54.04055863020834,118.59L54.16895977777777,118.59L54.29508018229166,117.41L54.40058798090278,122.13L54.50803284895833,120.95L54.628474828125,120.95L54.75300183680555,117.41L54.86229004513889,120.95L54.992065887152776,117.41L55.122552508680556,118.59L55.24716543576389,117.41L55.36131975,120.95L55.490517595486104,116.23L55.60794461979167,120.95L55.726980661458335,122.13L55.839135420138895,120.95L55.96709135416667,116.23L56.097921649305555,118.59L56.21973051215277,120.95L56.33161189409723,120.95L56.44461802604166,122.13L56.567325126736115,118.59L56.679456453125,120.95L56.80839654340277,118.59L56.938219249999996,118.59L57.050186550347235,120.95L57.17897042534723,118.59L57.293687114583335,120.95L57.42485327256944,118.59L57.5480524513889,117.41L57.661675633680545,119.77000000000001L57.7776420451389,120.95L57.90629313715278,118.59L58.020603666666666,120.95L58.15642503993055,117.41L58.280881751736096,117.41L58.403940336805555,119.77000000000001L58.516540309027775,120.95L58.6305540295139,120.95L58.74623925347223,120.95L58.869625890625,117.41L58.981679109375,122.13L59.09377919270833,120.95L59.21740015277777,118.59L59.33088274131945,120.95L59.44545883680555,120.95L59.55858994097222,120.95L59.672322473958324,120.95L59.78074368749999,122.13L59.88903992881945,122.13L60.02160421354167,118.59L60.15398103993054,116.23L60.26391754166667,120.95L60.384531357638885,120.95L60.498701293402775,120.95L60.62021334722221,118.59L60.74320163541666,119.77000000000001L60.85366145833333,120.95L60.972064828125,120.95L61.082235652777776,122.13L61.20611436805555,118.59L61.32343985243055,120.95L61.44667027430556,117.41L61.55577102430555,122.13L61.68962408506944,118.59L61.813854284722225,117.41L61.94371604513889,118.59L62.065720177083335,118.59L62.19391043402777,116.23L62.30583868055555,122.13L62.41765757638888,120.95L62.54570723958333,118.59L62.65851029166667,120.95L62.784615074652784,118.59L62.915914015625,118.59L63.0273345625,120.95L63.14038755902777,120.95L63.25921271006944,120.95L63.370133368055555,120.95L63.48533432465278,120.95L63.61367298611111,118.59L63.74515938541667,116.23L63.86961609722223,117.41L63.981864585069445,122.13L64.11092183680556,116.23L64.22264700347222,120.95L64.33459868229167,120.95L64.45252559548612,119.77000000000001L64.56575042881944,120.95L64.67681168055555,120.95L64.79327798090277,120.95L64.91835174305555,117.41L65.04030901041666,118.59L65.15665033854167,120.95L65.27536613888888,119.77000000000001L65.37845260069444,120.95L65.50494011111111,118.59L65.62917031076388,118.59L65.75298653993056,117.41L65.88562893229167,117.41L66.0006736736111,119.77000000000001L66.1326912048611,118.59L66.24276048958333,122.13L66.35562602777777,122.13L66.49058821701388,118.59L66.60925715277777,119.77000000000001L66.73273751909721,119.77000000000001L66.84404090451389,120.95L66.96818518576389,118.59L67.081425640625,122.13L67.19086225347222,120.95L67.32179408854167,116.23L67.43846346875,120.95L67.547353328125,122.13L67.66153888541666,120.95L67.77869253298611,120.95L67.90631260416666,117.41L68.0152415173611,120.95L68.06386352256945,119.77000000000001L68.17660408854167,120.95L68.30148258159721,117.41L68.42534567534723,118.59L68.53660219618055,122.13L68.653404359375,120.95L68.77833752777777,118.59L68.886930578125,122.13L69.01315252256944,118.59L69.12173776215279,120.95L69.25060755555556,118.59L69.37378330208334,118.59L69.49533440972223,119.77000000000001L69.6216813263889,118.59L69.73352365451389,122.13L69.86031578472222,118.59L69.99268480034723,118.59L70.10534725868055,120.95L70.23289703298612,118.59L70.33784245659723,120.95L70.46964909722223,118.59L70.59366840624999,117.41L70.699886984375,120.95L70.82562466145833,119.77000000000001L70.96235989409722,117.41L71.08766016840278,118.59L71.21458508159722,118.59L71.32570881944444,120.95L71.32587284548612,120.95L71.5381850295139,72.96333333333334L71.66453194618055,118.59L71.7801312517361,122.13L71.89987807291666,120.95L72.01723480034723,119.77000000000001L72.13463839236113,120.95L72.25012053645834,120.95L72.37204656076389,118.59L72.50473581770834,117.41L72.61318827430557,122.13L72.72412455381945,122.13L72.84044244965278,122.13L72.96577396701389,119.77000000000001L73.09178502083333,119.77000000000001L73.20662668229166,122.13L73.31863303645832,122.13L73.42736668055556,122.13L73.537631234375,122.13L73.65538631076389,120.95L73.78352189236111,118.59L73.89982416666668,119.77000000000001L74.03231034375001,118.59L74.1354436701389,120.95L74.26734403993055,118.59L74.38827809722223,120.95L74.50141701215279,120.95L74.61267353298612,122.13L74.71888430034723,122.13L74.84559051215278,118.59L74.96013536458334,120.95L75.08330330034721,117.41L75.19562989583333,120.95L75.31305692013889,120.95L75.42043149131945,122.13L75.54423990972222,119.77000000000001L75.66443975520833,119.77000000000001L75.789521328125,117.41L75.90415209895833,120.95L76.030288125,118.59L76.15570556076389,119.77000000000001L76.27802993402778,119.77000000000001L76.39518358159722,120.95L76.50722117881945,120.95L76.61999298784723,122.13L76.73777930729166,120.95L76.86764887847222,117.41L76.99147291840276,118.59L77.103510515625,120.95L77.21428276909722,122.13L77.34112176388889,118.59L77.45971259201389,118.59L77.56526725520834,122.13L77.68171793402777,120.95L77.80249577604167,120.95L77.91380697222223,120.95L78.02484479166668,120.95L78.14173287326389,120.95L78.25290347569445,120.95L78.38197634895833,118.59L78.5089481267361,118.59L78.64576927777779,117.41L78.77456877430556,118.59L78.89098039930556,120.95L78.99639446875,122.13L79.11802368402779,118.59L79.26210103472222,116.23L79.3890884340278,118.59L79.52542531770834,116.23L79.64115740624999,119.77000000000001L79.77199551215277,116.23L79.89593671354167,118.59L80.03153157465277,117.41L80.17241432291667,115.05000000000001L80.31828814930556,112.69L80.47021531770832,112.69L80.60637255381944,115.05000000000001L80.790441015625,106.79L80.94355542013888,112.69L81.11044801215277,110.33L81.34139667881944,97.35L81.52741002083333,107.97L81.73007591145834,104.43L81.94441889409723,100.89L82.10325077777777,110.33L82.2310270642361,117.41L82.35796759895834,117.41L82.55341634374999,105.61L82.68529328125,116.23L82.82775380381945,116.23L83.0149231388889,106.79L83.154946703125,113.87L83.30877969791666,112.69L83.46587759201388,111.51L83.60806473784723,113.87L83.79285178993055,103.25L84.03179086805555,99.71000000000001L84.20217487152779,107.97L84.355336140625,112.69L84.53738161458332,107.97L84.69340943402779,111.51L84.86137991145834,110.33L85.01878242534723,110.33L85.27275722395834,93.81L85.5312544548611,92.63L85.78908777083333,92.63L86.058910609375,86.73L86.29770128298611,94.99000000000001L86.56425141145833,91.45L86.73099559895834,111.51L86.91687615798611,104.43L87.09314166666665,110.33L87.25699587152779,110.33L87.39901899131945,113.87L87.58695378125,105.61L87.76928825347221,106.79L88.02316932291666,94.99000000000001L88.21099476215278,103.25L88.37349770486111,112.69L88.56779045659722,105.61L88.73315213888888,111.51L88.89375706597222,112.69L89.08787798090277,104.43L89.16254888368056,106.79L89.31223436284724,113.87L89.49619347395833,107.97L89.64075509201388,116.23L89.83903914409723,104.43L90.01073535590278,111.51L90.18374377604167,106.79L90.36469574305556,105.61L90.54935782291666,104.43L90.7440489236111,104.43L90.96159431944444,99.71000000000001L91.14218699131945,105.61L91.33929161805555,104.43L91.53980173784723,104.43L91.70383559027778,110.33L91.90541578472221,103.25L92.09865408333333,105.61L92.29872680034723,104.43L92.4841777673611,106.79L92.69738037847222,103.25L92.87326315972223,106.79L93.06053403472221,104.43L93.24200151215277,106.79L93.42935830555555,105.61L93.56201631944444,116.23L93.7630341388889,104.43L93.93689393229167,107.97L94.16918605034722,100.89L94.36080752083333,103.25L94.56271576736111,104.43L94.76119508854165,103.25L94.97124215104165,102.07L95.17630594618056,102.07L95.38816510590277,100.89L95.57525633333334,106.79L95.768314984375,106.79L95.911017640625,116.23L96.10045209722223,105.61L96.29782228993056,103.25L96.511493546875,100.89L96.71531543055555,102.07L96.91912169270833,102.07L97.11631223784721,105.61L97.32076679340278,105.61L97.53353981250001,102.07L97.71421059201388,105.61L97.89116344791667,106.79L98.08146489930556,104.43L98.27178197222221,105.61L98.47571320659722,102.07L98.66497582638888,105.61L98.8749369704861,100.89L99.1050186423611,97.35L99.31016835590277,102.07L99.51074096180555,103.25L99.71981948958333,104.43L99.91903302256945,103.25L99.919204859375,103.25L100.25557540625,31.663333333333327L100.45878023958333,100.89L100.60345120833333,113.87L100.83523562673611,99.71000000000001L101.050000390625,100.89L101.25647793402777,104.43L101.46444733333333,100.89L101.68622616319445,98.53L101.91287109895833,96.17L102.11673984722222,103.25L102.33018459201388,98.53L102.51650255381945,104.43L102.75744899826388,94.99000000000001L102.95620169618056,103.25L103.18247171527779,99.71000000000001L103.36350960069444,107.97L103.58266401388887,99.71000000000001L103.7681774670139,104.43L103.9742722829861,100.89L104.21050102604167,98.53L104.44523791319445,96.17L104.67210936111113,98.53L104.86272324305556,104.43L105.06576405034723,100.89L105.30641368576389,96.17L105.53389437326389,97.35L105.77695753472223,96.17L106.00289950173611,98.53L106.23486356770835,99.71000000000001L106.48896333854167,92.63L106.70681335416666,99.71000000000001L106.90511302777777,102.07L107.08097237673611,107.97L107.25634745833332,109.14999999999999L107.50328475868056,96.17L107.75518189409722,97.35L108.00218949131946,93.81L108.22333564930557,98.53L108.45655724826389,97.35L108.66643247395834,100.89L108.87321463715278,100.89L109.11010729513889,97.35L109.36447263194445,94.99000000000001L109.57570693055555,100.89L109.80552303645833,99.71000000000001L110.01553885590278,99.71000000000001L110.23132682986112,99.71000000000001L110.46536074826389,98.53L110.66106724826389,105.61L110.88961801041665,97.35L111.085160484375,102.07L111.320092640625,97.35L111.50781653993056,104.43L111.71051367361112,103.25L111.93495597395834,99.71000000000001L112.17214544097222,96.17L112.40065714930556,99.71000000000001L112.65743601215279,91.45L112.85882874826389,105.61L113.07689746527777,97.35L113.30044933854167,98.53L113.50370103645834,104.43L113.7162241111111,97.35L113.90733007118054,104.43L114.14190293229166,96.17L114.41142896180556,92.63L114.69491282638889,87.91000000000001L114.93585927083333,94.99000000000001L115.10442336631944,111.51L115.36082731249998,91.45L115.58038007465277,97.35L115.82256843055555,94.99000000000001L116.09319577777778,90.27L116.32507392534723,97.35L116.53470701736111,102.07L116.7787699565972,96.17L117.034244421875,93.81L117.27212123611109,97.35L117.46652333854166,103.25L117.6523101684028,104.43L117.85392160590278,102.07L118.10010907291667,93.81L118.35075648611111,94.99000000000001L118.60726197222223,91.45L118.68962647743056,103.25L118.95801994618057,90.27L119.22409361805555,89.09L119.47167140104165,94.99000000000001L119.72606798090278,93.81L119.9789024079861,92.63L120.23154156597224,94.99000000000001L120.48750029861108,91.45L120.72382277083332,98.53L121.02059274479166,87.91000000000001L121.32068229340277,83.19L121.6560452517361,76.11000000000001L121.92384510243055,91.45L122.14937309895832,99.71000000000001L122.39868487152778,94.99000000000001L122.64246662326387,92.63L122.90864183506945,90.27L123.15463403298608,93.81L123.40592192881944,92.63L123.67399515625,89.09L123.95596373263888,89.09L124.22421660763888,89.09L124.4609218072917,94.99000000000001L124.70296956944446,93.81L124.93951855381944,94.99000000000001L125.160141390625,97.35L125.36121388541666,102.07L125.57134686631943,100.89L125.77881637673609,99.71000000000001L126.02648788888888,94.99000000000001L126.27895521006946,93.81L126.54817661979168,90.27L126.84232998784722,85.55L127.09572678993055,90.27L127.34579620659723,93.81L127.59142129861111,96.17L127.83899127083333,94.99000000000001L128.06613609548612,98.53L128.29390578125,100.89L128.52698678645834,94.99000000000001L128.7154136545139,104.43L128.94903360243057,98.53L129.20873369097222,89.09L129.474682390625,87.91000000000001L129.7370850034722,92.63L129.99755054687498,89.09L130.26135909722225,89.09L130.5616673472222,83.19L130.81855556076388,86.73L131.10295328472222,84.37L131.35453798958335,96.17L131.65875943229167,80.83L131.9838668576389,78.47L132.28236301041665,83.19L132.59587145138892,82.01L132.86570210069445,91.45L133.19166089930556,80.83L133.4838615763889,80.83L133.81459275173611,76.11000000000001L134.17041210069442,70.21L134.42823760590278,91.45L134.7190479670139,83.19L135.03047874479165,84.37L135.37938556770834,73.75L135.65323094965277,86.73L135.95139123958336,83.19L136.17502122048612,100.89L136.46512080208333,84.37L136.70762158854168,94.99000000000001L136.97274234722224,94.99000000000001L137.24600192187498,89.09L137.5281891996528,86.73L137.84303328125,82.01L138.1315394670139,84.37L138.380171703125,93.81L138.64601886284723,90.27L138.89982182465278,93.81L139.15516350694446,90.27L139.45609661805554,83.19L139.76145843229165,83.19L140.10021126215278,76.11000000000001L140.43087995138887,76.11000000000001L140.721901203125,83.19L141.04948464062502,77.28999999999999L141.35684601041666,79.64999999999999L141.63736178472223,87.91000000000001L141.92914849131947,84.37L142.23298720659724,84.37L142.52864024131947,83.19L142.82554299826387,85.55L143.08501657465277,94.99000000000001L143.35383182465276,89.09L143.680064,78.47L144.01958228472222,72.57000000000001L144.34740004513887,77.28999999999999L144.347603125,77.28999999999999L144.79035627604168,3.3433333333333337L145.15836822743057,69.03L145.48956804861112,73.75L145.82430614583333,76.11000000000001L146.12185719618054,84.37L146.42279811805557,86.73L146.78293681944442,71.39L147.1281491510417,71.39L147.49714525868058,69.03L147.77339635590278,91.45L148.11958503298612,73.75L148.49919596875,67.85L148.87717445486112,72.57000000000001L149.22258986631945,77.28999999999999L149.56205347569443,74.93L149.88543472222221,79.64999999999999L150.23673163888887,72.57000000000001L150.60782103124998,67.85L150.93814604687503,73.75L151.31766325347223,66.67L151.70274953472222,69.03L152.09215516840277,65.49L152.45469177430556,69.03L152.79104669965278,79.64999999999999L153.21942804513887,58.41L153.53119468576386,78.47L153.8605355451389,74.93L154.2325622291667,69.03L154.5862882934028,71.39L154.89032227777778,80.83L155.16019979166666,86.73L155.47767610069442,79.64999999999999L155.81797546180553,77.28999999999999L156.1124022065972,82.01L156.3662051684028,92.63L156.76522585243055,65.49L157.13437817534722,67.85L157.5365778402778,65.49L157.87199547395832,77.28999999999999L158.2074131076389,76.11000000000001L158.52041384895833,77.28999999999999L158.8347424201389,77.28999999999999L159.13214506597222,83.19L159.49656406597222,70.21L159.86552893055557,70.21L160.32461438888888,53.69L160.68409698611111,69.03L161.14114383506944,50.150000000000006L161.54238277604165,63.13000000000001L161.93294440277776,60.77000000000001L162.30559594791666,66.67L162.69773534895833,63.13000000000001L163.06284950694445,71.39L163.39383843750002,74.93L163.7785029375,64.30999999999999L164.18323328993054,65.49L164.5783329704861,61.95L164.98951501388888,56.05L165.39809607291664,66.67L165.84252072743055,56.05L166.22549810243055,69.03L166.74323458680556,39.53L167.09717935243054,70.21L167.58779686458334,40.71000000000001L167.98106882638888,60.77000000000001L168.42280657812498,53.69L168.8271776354167,60.77000000000001L169.23766452083333,60.77000000000001L169.5996387517361,74.93L169.9893880590278,61.95L170.4171133003472,56.05L170.8212422239583,59.59L171.27054860590277,52.50999999999999L171.71689470833334,50.150000000000006L172.31222332118057,23.00999999999999L172.82596850520832,41.890000000000015L173.3861955451389,31.269999999999982L173.9306292204861,33.629999999999995L174.46146435590276,37.16999999999999L174.98582436805555,38.349999999999994L175.32353055555555,73.75L175.74599915277778,57.230000000000004L176.14861278819444,59.59L176.31191242881945,63.13000000000001L176.74691730208335,53.69L177.18330468055555,58.41L177.60376591145834,57.230000000000004L178.09143876562499,41.890000000000015L178.46993276215278,65.49L178.91408403993057,56.05L179.39148573958332,53.69L179.95611805034721,33.629999999999995L180.50680033680555,30.090000000000003L181.09872345659724,23.00999999999999L181.69820739583332,32.44999999999999L182.28587364930556,30.090000000000003L182.83090875347222,34.81L183.37796684548613,37.16999999999999L183.88021458506944,41.890000000000015L184.34936030729168,50.150000000000006L184.80862541319445,50.150000000000006L185.31485664236112,45.43000000000001L185.76802935243055,51.33000000000001L186.23667518576386,51.33000000000001L186.72556651909724,43.06999999999999L187.24992653125,39.53L187.66010098611113,64.30999999999999L188.155842359375,46.609999999999985L188.5915345798611,57.230000000000004L189.01799447743056,61.95L189.46698061805554,48.97L189.92961997395832,50.150000000000006L190.3762316423611,54.870000000000005L190.780446484375,60.77000000000001L191.2296513263889,56.05L191.70881044791668,50.150000000000006L192.18371270312502,45.43000000000001L192.6324410885417,56.05L193.13879728993055,39.53L193.73832809375,27.72999999999999L194.2766381302083,34.81L194.6677152673611,64.30999999999999L195.16975211631944,44.25L195.65236359548612,46.609999999999985L196.08875097395833,53.69L196.48956032291665,61.95L196.98509080555556,44.25L197.46858490104165,46.609999999999985L197.97493329166667,44.25L198.44811717881942,43.06999999999999L198.94694380381944,41.890000000000015L199.44702015104164,44.25L199.88015044097222,53.69L200.2170208767361,74.93L200.68302667187498,50.150000000000006L201.11398556944448,53.69L201.60610274826388,43.06999999999999L202.09442389583333,44.25L202.53556802951388,51.33000000000001L203.14358132291667,26.55000000000001L203.67018302430554,35.99000000000001L204.22566893055554,37.16999999999999L204.80123631076387,28.909999999999997L205.28076253819447,43.06999999999999L205.77565253819446,41.890000000000015L206.17501689583332,54.870000000000005L206.6155986545139,51.33000000000001L206.98391522569446,64.30999999999999L207.33611038020837,70.21L207.71766619618055,63.13000000000001L208.15624839930558,53.69L208.67544549652777,44.25L209.22323780034722,39.53L209.72999235069443,40.71000000000001L210.26274893402777,34.81L210.78509376909722,38.349999999999994L211.21342825,60.77000000000001L211.69330596180555,48.97L212.15250858159723,47.78999999999999L212.6249816892361,48.97L213.07074979513888,51.33000000000001L213.5562825,46.609999999999985L213.9658242829861,66.67L214.52648872569443,35.99000000000001L215.0530279409722,34.81L215.5266414201389,45.43000000000001L216.15532199479168,19.47L216.675565734375,40.71000000000001L217.22645891145834,31.269999999999982L217.79328604687498,27.72999999999999L218.1444033159722,74.93L218.68757164756943,33.629999999999995L219.182352296875,39.53L219.78232050347222,21.829999999999984L220.49187372743054,12.389999999999986L221.06761294444442,25.370000000000005L221.60489196006944,32.44999999999999L222.22905010243056,14.75L222.80674201041666,17.110000000000014L222.8069919548611,17.110000000000014L223.54710869791666,-76.89666666666665L224.17875736284722,15.930000000000007L224.97693151388887,-12.390000000000015L225.58396065104162,21.829999999999984L226.18388980381943,23.00999999999999L226.72687848784722,34.81L227.33032248437502,20.650000000000006L227.8814656059028,30.090000000000003L228.42314208159723,32.44999999999999L229.03263942013888,20.650000000000006L229.5654038142361,38.349999999999994L230.08874061631946,35.99000000000001L230.65905916319443,31.269999999999982L231.19372938368056,34.81L231.69300122222225,38.349999999999994L232.2471046232639,32.44999999999999L232.7459312482639,39.53L233.28775612847227,38.349999999999994L233.75420713715278,44.25L234.2882056319445,38.349999999999994L234.8260314010417,31.269999999999982L235.3207808072917,38.349999999999994L235.90818930555557,23.00999999999999L236.46947079861113,31.269999999999982L236.94376381423615,45.43000000000001L237.68753599479172,-1.7700000000000102L238.30854639930553,18.29000000000002L239.06800259375004,2.950000000000017L239.28225184722223,37.16999999999999L239.8710116076389,24.189999999999998L240.44291573958336,27.72999999999999L240.929674734375,44.25L241.52796362673612,28.909999999999997L242.04623124305556,34.81L242.57071622743055,37.16999999999999L243.05434310590283,41.890000000000015L243.67975878125,21.829999999999984L244.34108834895835,18.29000000000002L244.84361727604164,47.78999999999999L245.414334171875,33.629999999999995L245.91688653124996,39.53L246.4365678958333,34.81L247.0574377065972,20.650000000000006L247.60392561284726,33.629999999999995L248.16090337499998,28.909999999999997L248.7930909826389,19.47L249.3057660920139,38.349999999999994L249.83606228472217,32.44999999999999L250.37059191145835,30.090000000000003L250.9325373194444,31.269999999999982L251.40879864756945,37.16999999999999" style="fill: none;" fill="none"></path></g></g></g></g></g></g><g transform="translate(48, 177)" clip-path="url(#clip_1)"><clipPath id="clip_1"><rect width="281" height="23"></rect></clipPath><g><g><line x1="0" y1="0" x2="0" y2="5" style="visibility: inherit;" fill="rgb(0, 0, 0)" stroke="rgb(204, 204, 204)" stroke-width="1px"></line><line x1="28.118750000000002" y1="0" x2="28.118750000000002" y2="5" style="visibility: inherit;" fill="rgb(0, 0, 0)" stroke="rgb(204, 204, 204)" stroke-width="1px"></line><line x1="56.237500000000004" y1="0" x2="56.237500000000004" y2="5" style="visibility: inherit;" fill="rgb(0, 0, 0)" stroke="rgb(204, 204, 204)" stroke-width="1px"></line><line x1="84.35625" y1="0" x2="84.35625" y2="5" style="visibility: inherit;" fill="rgb(0, 0, 0)" stroke="rgb(204, 204, 204)" stroke-width="1px"></line><line x1="112.47500000000001" y1="0" x2="112.47500000000001" y2="5" style="visibility: inherit;" fill="rgb(0, 0, 0)" stroke="rgb(204, 204, 204)" stroke-width="1px"></line><line x1="140.59375" y1="0" x2="140.59375" y2="5" style="visibility: inherit;" fill="rgb(0, 0, 0)" stroke="rgb(204, 204, 204)" stroke-width="1px"></line><line x1="168.7125" y1="0" x2="168.7125" y2="5" style="visibility: inherit;" fill="rgb(0, 0, 0)" stroke="rgb(204, 204, 204)" stroke-width="1px"></line><line x1="196.83124999999998" y1="0" x2="196.83124999999998" y2="5" style="visibility: inherit;" fill="rgb(0, 0, 0)" stroke="rgb(204, 204, 204)" stroke-width="1px"></line><line x1="224.95000000000002" y1="0" x2="224.95000000000002" y2="5" style="visibility: inherit;" fill="rgb(0, 0, 0)" stroke="rgb(204, 204, 204)" stroke-width="1px"></line><line x1="253.06875" y1="0" x2="253.06875" y2="5" style="visibility: inherit;" fill="rgb(0, 0, 0)" stroke="rgb(204, 204, 204)" stroke-width="1px"></line><line x1="281.1875" y1="0" x2="281.1875" y2="5" style="visibility: inherit;" fill="rgb(0, 0, 0)" stroke="rgb(204, 204, 204)" stroke-width="1px"></line></g><g transform="translate(0, 8)"><text x="0" y="0" dx="0em" dy="0.95em" style="text-anchor: middle; visibility: hidden; font-family: &quot;Helvetica Neue&quot;, sans-serif; font-size: 12px; font-weight: 200;" fill="rgb(50, 49, 63)" stroke="none" stroke-width="1px">-1</text><text x="28.118750000000002" y="0" dx="0em" dy="0.95em" style="text-anchor: middle; visibility: inherit; font-family: &quot;Helvetica Neue&quot;, sans-serif; font-size: 12px; font-weight: 200;" fill="rgb(50, 49, 63)" stroke="none" stroke-width="1px">0</text><text x="56.237500000000004" y="0" dx="0em" dy="0.95em" style="text-anchor: middle; visibility: inherit; font-family: &quot;Helvetica Neue&quot;, sans-serif; font-size: 12px; font-weight: 200;" fill="rgb(50, 49, 63)" stroke="none" stroke-width="1px">1</text><text x="84.35625" y="0" dx="0em" dy="0.95em" style="text-anchor: middle; visibility: inherit; font-family: &quot;Helvetica Neue&quot;, sans-serif; font-size: 12px; font-weight: 200;" fill="rgb(50, 49, 63)" stroke="none" stroke-width="1px">2</text><text x="112.47500000000001" y="0" dx="0em" dy="0.95em" style="text-anchor: middle; visibility: inherit; font-family: &quot;Helvetica Neue&quot;, sans-serif; font-size: 12px; font-weight: 200;" fill="rgb(50, 49, 63)" stroke="none" stroke-width="1px">3</text><text x="140.59375" y="0" dx="0em" dy="0.95em" style="text-anchor: middle; visibility: inherit; font-family: &quot;Helvetica Neue&quot;, sans-serif; font-size: 12px; font-weight: 200;" fill="rgb(50, 49, 63)" stroke="none" stroke-width="1px">4</text><text x="168.7125" y="0" dx="0em" dy="0.95em" style="text-anchor: middle; visibility: inherit; font-family: &quot;Helvetica Neue&quot;, sans-serif; font-size: 12px; font-weight: 200;" fill="rgb(50, 49, 63)" stroke="none" stroke-width="1px">5</text><text x="196.83124999999998" y="0" dx="0em" dy="0.95em" style="text-anchor: middle; visibility: inherit; font-family: &quot;Helvetica Neue&quot;, sans-serif; font-size: 12px; font-weight: 200;" fill="rgb(50, 49, 63)" stroke="none" stroke-width="1px">6</text><text x="224.95000000000002" y="0" dx="0em" dy="0.95em" style="text-anchor: middle; visibility: inherit; font-family: &quot;Helvetica Neue&quot;, sans-serif; font-size: 12px; font-weight: 200;" fill="rgb(50, 49, 63)" stroke="none" stroke-width="1px">7</text><text x="253.06875" y="0" dx="0em" dy="0.95em" style="text-anchor: middle; visibility: inherit; font-family: &quot;Helvetica Neue&quot;, sans-serif; font-size: 12px; font-weight: 200;" fill="rgb(50, 49, 63)" stroke="none" stroke-width="1px">8</text><text x="281.1875" y="0" dx="0em" dy="0.95em" style="text-anchor: middle; visibility: hidden; font-family: &quot;Helvetica Neue&quot;, sans-serif; font-size: 12px; font-weight: 200;" fill="rgb(50, 49, 63)" stroke="none" stroke-width="1px">9</text></g><line x1="0" y1="0" x2="281.1875" y2="0" fill="rgb(0, 0, 0)" stroke="rgb(204, 204, 204)" stroke-width="1px"></line></g></g></g></g></svg>