<svg viewBox="0 0 330 200" xmlns="http://www.w3.org/2000/svg"><g><g><g><g><g><line x1="39.109375" y1="177" x2="34.109375" y2="177" style="visibility: inherit;" fill="rgb(0, 0, 0)" stroke="rgb(204, 204, 204)" stroke-width="1px"></line><line x1="39.109375" y1="160.9090909090909" x2="34.109375" y2="160.9090909090909" style="visibility: inherit;" fill="rgb(0, 0, 0)" stroke="rgb(204, 204, 204)" stroke-width="1px"></line><line x1="39.109375" y1="144.8181818181818" x2="34.109375" y2="144.8181818181818" style="visibility: inherit;" fill="rgb(0, 0, 0)" stroke="rgb(204, 204, 204)" stroke-width="1px"></line><line x1="39.109375" y1="128.72727272727275" x2="34.109375" y2="128.72727272727275" style="visibility: inherit;" fill="rgb(0, 0, 0)" stroke="rgb(204, 204, 204)" stroke-width="1px"></line><line x1="39.109375" y1="112.63636363636364" x2="34.109375" y2="112.63636363636364" style="visibility: inherit;" fill="rgb(0, 0, 0)" stroke="rgb(204, 204, 204)" stroke-width="1px"></line><line x1="39.109375" y1="96.54545454545455" x2="34.109375" y2="96.54545454545455" style="visibility: inherit;" fill="rgb(0, 0, 0)" stroke="rgb(204, 204, 204)" stroke-width="1px"></line><line x1="39.109375" y1="80.45454545454547" x2="34.109375" y2="80.45454545454547" style="visibility: inherit;" fill="rgb(0, 0, 0)" stroke="rgb(204, 204, 204)" stroke-width="1px"></line><line x1="39.109375" y1="64.36363636363636" x2="34.109375" y2="64.36363636363636" style="visibility: inherit;" fill="rgb(0, 0, 0)" stroke="rgb(204, 204, 204)" stroke-width="1px"></line><line x1="39.109375" y1="48.27272727272728" x2="34.109375" y2="48.27272727272728" style="visibility: inherit;" fill="rgb(0, 0, 0)" stroke="rgb(204, 204, 204)" stroke-width="1px"></line><line x1="39.109375" y1="32.18181818181819" x2="34.109375" y2="32.18181818181819" style="visibility: inherit;" fill="rgb(0, 0, 0)" stroke="rgb(204, 204, 204)" stroke-width="1px"></line><line x1="39.109375" y1="16.090909090909093" x2="34.109375" y2="16.090909090909093" style="visibility: inherit;" fill="rgb(0, 0, 0)" stroke="rgb(204, 204, 204)" stroke-width="1px"></line><line x1="39.109375" y1="0" x2="34.109375" y2="0" style="visibility: inherit;" fill="rgb(0, 0, 0)" stroke="rgb(204, 204, 204)" stroke-width="1px"></line></g><g transform="translate(29.109375, 0)"><text x="0" y="177" dx="0em" dy="0.3em" style="text-anchor: end; visibility: hidden; font-family: &quot;Helvetica Neue&quot;, sans-serif; font-size: 12px; font-weight: 200;" fill="rgb(50, 49, 63)" stroke="none" stroke-width="1px">140</text><text x="0" y="160.9090909090909" dx="0em" dy="0.3em" style="text-anchor: end; visibility: inherit; font-family: &quot;Helvetica Neue&quot;, sans-serif; font-size: 12px; font-weight: 200;" fill="rgb(50, 49, 63)" stroke="none" stroke-width="1px">160</text><text x="0" y="144.8181818181818" dx="0em" dy="0.3em" style="text-anchor: end; visibility: hidden; font-family: &quot;Helvetica Neue&quot;, sans-serif; font-size: 12px; font-weight: 200;" fill="rgb(50, 49, 63)" stroke="none" stroke-width="1px">180</text><text x="0" y="128.72727272727275" dx="0em" dy="0.3em" style="text-anchor: end; visibility: inherit; font-family: &quot;Helvetica Neue&quot;, sans-serif; font-size: 12px; font-weight: 200;" fill="rgb(50, 49, 63)" stroke="none" stroke-width="1px">200</text><text x="0" y="112.63636363636364" dx="0em" dy="0.3em" style="text-anchor: end; visibility: hidden; font-family: &quot;Helvetica Neue&quot;, sans-serif; font-size: 12px; font-weight: 200;" fill="rgb(50, 49, 63)" stroke="none" stroke-width="1px">220</text><text x="0" y="96.54545454545455" dx="0em" dy="0.3em" style="text-anchor: end; visibility: inherit; font-family: &quot;Helvetica Neue&quot;, sans-serif; font-size: 12px; font-weight: 200;" fill="rgb(50, 49, 63)" stroke="none" stroke-width="1px">240</text><text x="0" y="80.45454545454547" dx="0em" dy="0.3em" style="text-anchor: end; visibility: hidden; font-family: &quot;Helvetica Neue&quot;, sans-serif; font-size: 12px; font-weight: 200;" fill="rgb(50, 49, 63)" stroke="none" stroke-width="1px">260</text><text x="0" y="64.36363636363636" dx="0em" dy="0.3em" style="text-anchor: end; visibility: inherit; font-family: &quot;Helvetica Neue&quot;, sans-serif; font-size: 12px; font-weight: 200;" fill="rgb(50, 49, 63)" stroke="none" stroke-width="1px">280</text><text x="0" y="48.27272727272728" dx="0em" dy="0.3em" style="text-anchor: end; visibility: hidden; font-family: &quot;Helvetica Neue&quot;, sans-serif; font-size: 12px; font-weight: 200;" fill="rgb(50, 49, 63)" stroke="none" stroke-width="1px">300</text><text x="0" y="32.18181818181819" dx="0em" dy="0.3em" style="text-anchor: end; visibility: inherit; font-family: &quot;Helvetica Neue&quot;, sans-serif; font-size: 12px; font-weight: 200;" fill="rgb(50, 49, 63)" stroke="none" stroke-width="1px">320</text><text x="0" y="16.090909090909093" dx="0em" dy="0.3em" style="text-anchor: end; visibility: hidden; font-family: &quot;Helvetica Neue&quot;, sans-serif; font-size: 12px; font-weight: 200;" fill="rgb(50, 49, 63)" stroke="none" stroke-width="1px">340</text><text x="0" y="0" dx="0em" dy="0.3em" style="text-anchor: end; visibility: hidden; font-family: &quot;Helvetica Neue&quot;, sans-serif; font-size: 12px; font-weight: 200;" fill="rgb(50, 49, 63)" stroke="none" stroke-width="1px">360</text></g><line x1="39.109375" y1="0" x2="39.109375" y2="177" fill="rgb(0, 0, 0)" stroke="rgb(204, 204, 204)" stroke-width="1px"></line></g></g><g transform="translate(39, 0)" clip-path="url(#clip_0)"><clipPath id="clip_0"><rect width="290" height="177"></rect></clipPath><g><g><g><line x1="0" y1="0" x2="0" y2="177" fill="rgb(0, 0, 0)" stroke="rgb(60, 60, 60)" stroke-width="1px" opacity="0.25"></line><line x1="32.32118055555556" y1="0" x2="32.32118055555556" y2="177" fill="rgb(0, 0, 0)" stroke="rgb(60, 60, 60)" stroke-width="1px" opacity="0.25"></line><line x1="64.64236111111111" y1="0" x2="64.64236111111111" y2="177" fill="rgb(0, 0, 0)" stroke="rgb(60, 60, 60)" stroke-width="1px" opacity="0.25"></line><line x1="96.96354166666666" y1="0" x2="96.96354166666666" y2="177" fill="rgb(0, 0, 0)" stroke="rgb(60, 60, 60)" stroke-width="1px" opacity="0.25"></line><line x1="129.28472222222223" y1="0" x2="129.28472222222223" y2="177" fill="rgb(0, 0, 0)" stroke="rgb(60, 60, 60)" stroke-width="1px" opacity="0.25"></line><line x1="161.60590277777777" y1="0" x2="161.60590277777777" y2="177" fill="rgb(0, 0, 0)" stroke="rgb(60, 60, 60)" stroke-width="1px" opacity="0.25"></line><line x1="193.92708333333331" y1="0" x2="193.92708333333331" y2="177" fill="rgb(0, 0, 0)" stroke="rgb(60, 60, 60)" stroke-width="1px" opacity="0.25"></line><line x1="226.24826388888889" y1="0" x2="226.24826388888889" y2="177" fill="rgb(0, 0, 0)" stroke="rgb(60, 60, 60)" stroke-width="1px" opacity="0.25"></line><line x1="258.56944444444446" y1="0" x2="258.56944444444446" y2="177" fill="rgb(0, 0, 0)" stroke="rgb(60, 60, 60)" stroke-width="1px" opacity="0.25"></line><line x1="290.890625" y1="0" x2="290.890625" y2="177" fill="rgb(0, 0, 0)" stroke="rgb(60, 60, 60)" stroke-width="1px" opacity="0.25"></line></g><g><line x1="0" y1="177" x2="290.890625" y2="177" fill="rgb(0, 0, 0)" stroke="rgb(60, 60, 60)" stroke-width="1px" opacity="0.25"></line><line x1="0" y1="160.9090909090909" x2="290.890625" y2="160.9090909090909" fill="rgb(0, 0, 0)" stroke="rgb(60, 60, 60)" stroke-width="1px" opacity="0.25"></line><line x1="0" y1="144.8181818181818" x2="290.890625" y2="144.8181818181818" fill="rgb(0, 0, 0)" stroke="rgb(60, 60, 60)" stroke-width="1px" opacity="0.25"></line><line x1="0" y1="128.72727272727275" x2="290.890625" y2="128.72727272727275" fill="rgb(0, 0, 0)" stroke="rgb(60, 60, 60)" stroke-width="1px" opacity="0.25"></line><line x1="0" y1="112.63636363636364" x2="290.890625" y2="112.63636363636364" fill="rgb(0, 0, 0)" stroke="rgb(60, 60, 60)" stroke-width="1px" opacity="0.25"></line><line x1="0" y1="96.54545454545455" x2="290.890625" y2="96.54545454545455" fill="rgb(0, 0, 0)" stroke="rgb(60, 60, 60)" stroke-width="1px" opacity="0.25"></line><line x1="0" y1="80.45454545454547" x2="290.890625" y2="80.45454545454547" fill="rgb(0, 0, 0)" stroke="rgb(60, 60, 60)" stroke-width="1px" opacity="0.25"></line><line x1="0" y1="64.36363636363636" x2="290.890625" y2="64.36363636363636" fill="rgb(0, 0, 0)" stroke="rgb(60, 60, 60)" stroke-width="1px" opacity="0.25"></line><line x1="0" y1="48.27272727272728" x2="290.890625" y2="48.27272727272728" fill="rgb(0, 0, 0)" stroke="rgb(60, 60, 60)" stroke-width="1px" opacity="0.25"></line><line x1="0" y1="32.18181818181819" x2="290.890625" y2="32.18181818181819" fill="rgb(0, 0, 0)" stroke="rgb(60, 60, 60)" stroke-width="1px" opacity="0.25"></line><line x1="0" y1="16.090909090909093" x2="290.890625" y2="16.090909090909093" fill="rgb(0, 0, 0)" stroke="rgb(60, 60, 60)" stroke-width="1px" opacity="0.25"></line><line x1="0" y1="0" x2="290.890625" y2="0" fill="rgb(0, 0, 0)" stroke="rgb(60, 60, 60)" stroke-width="1px" opacity="0.25"></line></g></g></g><g><g><line x1="0" y1="289.6363636363636" x2="290.890625" y2="289.6363636363636" fill="rgb(0, 0, 0)" stroke="rgb(153, 153, 153)" stroke-width="1.5px"></line></g></g><g><g><line x1="32.32118055555556" y1="0" x2="32.32118055555556" y2="177" fill="rgb(0, 0, 0)" stroke="rgb(153, 153, 153)" stroke-width="1.5px"></line></g></g><g><g><g><g><g><path stroke="rgb(255, 112, 67)" stroke-width="2px" d="M32.32118055555556,-71.60454545454544L32.59082898244599,82.86818181818181L33.1564316859568,102.17727272727272L33.36823417775849,111.83181818181818L33.574380462962964,121.48636363636363L33.777267695794755,131.14090909090908L33.999646396122685,121.48636363636363L34.202569541377315,121.48636363636363L34.39671209924769,135.96818181818182L34.59968911313658,121.48636363636363L34.807487369791666,121.48636363636363L35.01208942081404,140.79545454545456L35.21806512201003,131.14090909090908L35.417944689429014,126.31363636363636L35.607625128761576,140.79545454545456L35.801282868923614,140.79545454545456L36.002554042727624,126.31363636363636L36.19869871817129,140.79545454545456L36.399862154706796,131.14090909090908L36.598071794463735,126.31363636363636L36.78894632185571,140.79545454545456L36.97809705295139,140.79545454545456L37.158521065297066,140.79545454545456L37.375405164930555,121.48636363636363L37.576730207368826,140.79545454545456L37.775702986111106,140.79545454545456L37.974783502121916,140.79545454545456L38.347904597318674,140.79545454545456L38.54188554928627,140.79545454545456L38.73313715711805,140.79545454545456L38.930727307581016,121.48636363636363L39.13918096595293,131.14090909090908L39.333503085937494,140.79545454545456L39.72317980806327,131.14090909090908L39.921075214120364,131.14090909090908L40.10952565297068,140.79545454545456L40.296144558256174,140.79545454545456L40.506797852527,131.14090909090908L40.891716178626545,140.79545454545456L41.10489232060185,140.79545454545456L41.302401668113426,131.14090909090908L41.500386855227624,126.31363636363636L41.68992364486883,140.79545454545456L41.881803720100315,140.79545454545456L42.25457466917439,135.96818181818182L42.452631681134264,131.14090909090908L42.8286527044753,140.79545454545456L43.02574905912422,121.48636363636363L43.2248026408179,140.79545454545456L43.41250789689429,140.79545454545456L43.62607009741513,131.14090909090908L43.82113740017361,140.79545454545456L44.209467406442904,131.14090909090908L44.39453309944058,140.79545454545456L44.59014806664737,126.31363636363636L44.799957418981485,131.14090909090908L45.00834823061343,140.79545454545456L45.08993227719907,135.96818181818182L45.29065578655478,140.79545454545456L45.492851705246906,131.14090909090908L45.68931959249614,126.31363636363636L45.8623636019483,140.79545454545456L46.090165078125004,121.48636363636363L46.48619829909336,126.31363636363636L46.678491367187505,140.79545454545456L46.87934057002315,126.31363636363636L47.085980651041666,121.48636363636363L47.281056931905866,131.14090909090908L47.464704084201394,135.96818181818182L47.657517882426696,131.14090909090908L47.84286189670139,140.79545454545456L48.0356756949267,140.79545454545456L48.44768096595293,140.79545454545456L48.64758746768904,121.48636363636363L49.03691404369213,131.14090909090908L49.24522405237268,126.31363636363636L49.440165661651235,140.79545454545456L49.632081649305555,140.79545454545456L49.834017202932095,131.14090909090908L50.04433830729166,140.79545454545456L50.24877875241127,121.48636363636363L50.445237661554785,126.31363636363636L50.64046657021605,131.14090909090908L50.82648394241898,140.79545454545456L51.0287606640625,135.96818181818182L51.219276067226076,131.14090909090908L51.42224410300926,131.14090909090908L51.620794910783175,131.14090909090908L52.027350471643516,140.79545454545456L52.21963456163195,140.79545454545456L52.40018426745756,140.79545454545456L52.59952514853395,145.62272727272727L52.7885591642554,140.79545454545456L52.99481318672839,131.14090909090908L53.1914426798804,140.79545454545456L53.388449253472224,140.79545454545456L53.578210495756174,131.14090909090908L53.7700456804591,131.14090909090908L53.95303743103781,145.62272727272727L54.16375357204861,126.31363636363636L54.35214116415895,140.79545454545456L54.549874964313275,140.79545454545456L54.73714927131558,140.79545454545456L54.94510015576775,131.14090909090908L55.14493483265818,140.79545454545456L55.33407658564815,131.14090909090908L55.53321994839892,131.14090909090908L55.717118487654325,140.79545454545456L55.91539995225695,140.79545454545456L56.108016232156636,140.79545454545456L56.3015213445216,140.79545454545456L56.501059743923605,140.79545454545456L56.708920847318666,121.48636363636363L56.89928362268518,145.62272727272727L57.109326405767746,140.79545454545456L57.30291232108411,140.79545454545456L57.496327652391976,140.79545454545456L57.88860802517362,135.96818181818182L58.08938540316358,140.79545454545456L58.27950576967592,140.79545454545456L58.66823979070216,140.79545454545456L58.860667530381946,140.79545454545456L59.255901699942136,135.96818181818182L59.43594863184799,140.79545454545456L59.824476156442906,140.79545454545456L60.033208136091815,135.96818181818182L60.2238133203125,140.79545454545456L60.4039769675926,140.79545454545456L60.60206989197531,140.79545454545456L60.7865968986304,140.79545454545456L60.99092062837577,135.96818181818182L61.18825939187886,140.79545454545456L61.58370005787037,140.79545454545456L61.77855188609182,131.14090909090908L61.96845677806713,145.62272727272727L62.175114815297064,121.48636363636363L62.55905452787423,140.79545454545456L62.76271387779706,140.79545454545456L62.950544827353404,145.62272727272727L63.1349102281057,140.79545454545456L63.32593738329475,121.48636363636363L63.51596796875,126.31363636363636L63.71435717062115,140.79545454545456L64.11624411651235,140.79545454545456L64.31339433979554,140.79545454545456L64.68141587094908,131.14090909090908L64.86726265914352,131.14090909090908L65.26518128231095,126.31363636363636L65.47327581645447,131.14090909090908L65.66686173177084,126.31363636363636L66.04848509307485,131.14090909090908L66.24230443913966,131.14090909090908L66.44046021026234,140.79545454545456L66.8142187509645,140.79545454545456L67.00300137972609,145.62272727272727L67.19820335407022,145.62272727272727L67.40309270447531,135.96818181818182L67.74494305748456,16.895454545454555L67.93710145399305,140.79545454545456L68.1359395611497,140.79545454545456L68.32890598717206,126.31363636363636L68.53922709153164,131.14090909090908L68.74601082224152,121.48636363636363L68.9447052797068,131.14090909090908L69.13715995370369,131.14090909090908L69.3350553597608,131.14090909090908L69.53009572820214,145.62272727272727L69.72183215374228,140.79545454545456L69.9202842023534,140.79545454545456L70.50782939621914,145.62272727272727L71.31067854311343,140.79545454545456L71.49987416473765,131.14090909090908L71.70264468219521,131.14090909090908L71.89600614486884,140.79545454545456L72.08707819058642,140.79545454545456L72.30727521122685,131.14090909090908L72.69609901331017,140.79545454545456L72.88399280960648,145.62272727272727L73.06553010706018,140.79545454545456L73.26503259403935,140.79545454545456L73.45143602478781,140.79545454545456L74.05415421730322,131.14090909090908L74.26039028356482,131.14090909090908L74.46244255256559,131.14090909090908L74.66035591483411,126.31363636363636L74.84872555073302,140.79545454545456L75.02938299382716,140.79545454545456L75.24101490162039,140.79545454545456L75.42689760223764,131.14090909090908L75.61068840422453,140.79545454545456L75.81131315441743,131.14090909090908L76.0060752015818,135.96818181818182L76.20681666714891,126.31363636363636L76.59958185763891,121.48636363636363L76.79396682436344,140.79545454545456L77.004009607446,145.62272727272727L77.38779669222608,121.48636363636363L77.60143071759258,131.14090909090908L77.81164408468365,140.79545454545456L77.99309160108024,140.79545454545456L78.1913820437886,145.62272727272727L78.38654810570988,131.14090909090908L78.57187416377315,140.79545454545456L78.97919286361883,135.96818181818182L79.16700585696374,140.79545454545456L79.56266199749228,140.79545454545456L79.76191309751157,135.96818181818182L79.94088265673224,135.96818181818182L80.12215958912037,135.96818181818182L80.31122053915895,145.62272727272727L80.51614580198688,131.14090909090908L80.70808872395833,140.79545454545456L80.91062581066744,135.96818181818182L81.11555107349537,121.48636363636363L81.31805224778164,135.96818181818182L81.50855867283951,140.79545454545456L81.70046568238813,145.62272727272727L81.88858393132716,145.62272727272727L82.06749064380786,135.96818181818182L82.25198173804013,145.62272727272727L82.42963151572145,145.62272727272727L82.61563093171297,135.96818181818182L82.9974518113426,140.79545454545456L83.18477998697917,145.62272727272727L83.36900173804013,140.79545454545456L83.55211020399305,145.62272727272727L83.94263984616127,135.96818181818182L84.15037525607639,121.48636363636363L84.33097883053628,140.79545454545456L84.72884358506943,140.79545454545456L85.10925490210263,135.96818181818182L85.4928534466628,140.79545454545456L85.68880958188659,145.62272727272727L85.87297746431328,135.96818181818182L86.0664466642554,145.62272727272727L86.24321658757717,135.96818181818182L86.63664615788966,135.96818181818182L86.81970075520833,131.14090909090908L87.01948156346451,135.96818181818182L87.20249127025464,135.96818181818182L87.40245164062499,121.48636363636363L87.59204229890045,145.62272727272727L87.78125587673611,145.62272727272727L87.97536252218364,135.96818181818182L88.56651691454475,135.96818181818182L88.9556280160108,140.79545454545456L89.33358831018518,145.62272727272727L89.52352911458334,145.62272727272727L89.92080131413967,121.48636363636363L90.10687255497685,131.14090909090908L90.30492956693672,145.62272727272727L90.5095226398534,121.48636363636363L90.70480541714893,145.62272727272727L90.88491519579476,140.79545454545456L91.07565505160107,145.62272727272727L91.26651162278164,140.79545454545456L91.45735023775077,145.62272727272727L91.63894140383874,145.62272727272727L91.82750855806326,131.14090909090908L92.39736688368055,140.79545454545456L92.56312067129629,140.79545454545456L92.76140213589892,131.14090909090908L92.94499541956019,135.96818181818182L93.1273676808449,131.14090909090908L93.5176908265818,145.62272727272727L93.72497733121142,135.96818181818182L93.91928149498456,145.62272727272727L94.11345996527778,145.62272727272727L94.32545099729938,131.14090909090908L94.50338807436341,145.62272727272727L94.70860063657408,135.96818181818182L94.90022034673999,145.62272727272727L95.0930521011767,131.14090909090908L95.29175553674769,145.62272727272727L95.47226035204474,140.79545454545456L95.67899021412038,121.48636363636363L95.87948029272762,145.62272727272727L96.06304664207175,145.62272727272727L96.24982715326003,145.62272727272727L96.4506853342014,145.62272727272727L96.63740299864969,131.14090909090908L96.80789722608024,145.62272727272727L96.88956207561729,135.96818181818182L97.26715426745756,131.14090909090908L97.6431573345872,145.62272727272727L97.83274799286266,145.62272727272727L98.02346091435184,135.96818181818182L98.21339274064428,145.62272727272727L98.40362084442515,135.96818181818182L98.58031894290123,140.79545454545456L98.76961332368828,135.96818181818182L98.9516174826389,135.96818181818182L99.14220471064816,145.62272727272727L99.33521602719907,131.14090909090908L99.53136070264274,145.62272727272727L99.73381698640046,131.14090909090908L99.9428272873264,135.96818181818182L100.12791093653549,140.79545454545456L100.31775298177084,135.96818181818182L100.49432538676697,140.79545454545456L100.69715875096449,135.96818181818182L100.87709794560186,135.96818181818182L101.05442451147763,135.96818181818182L101.2617469285301,145.62272727272727L101.47244511332947,131.14090909090908L101.6601862818287,135.96818181818182L101.85054905719522,135.96818181818182L102.03978059124229,140.79545454545456L102.03998708767361,140.79545454545456L102.36996838493441,12.068181818181813L102.56218962818288,131.14090909090908L102.77228627989967,145.62272727272727L102.96034168209876,145.62272727272727L103.14188795765817,135.96818181818182L103.34434424141588,135.96818181818182L103.53444665171682,145.62272727272727L103.71694460648149,135.96818181818182L103.9271310392554,126.31363636363636L104.3064739617091,145.62272727272727L104.50524024402006,145.62272727272727L104.70449134403935,135.96818181818182L104.911158359375,135.96818181818182L105.11174719714506,145.62272727272727L105.29858157696759,145.62272727272727L105.48204916714892,145.62272727272727L105.6775653751929,145.62272727272727L105.87329705777391,145.62272727272727L106.06707151331018,135.96818181818182L106.2539866960841,135.96818181818182L106.46258400414737,135.96818181818182L106.62793377700616,140.79545454545456L107.03421101658951,140.79545454545456L107.2278328443287,140.79545454545456L107.41738759018132,145.62272727272727L107.60087313657408,145.62272727272727L107.79581474585261,135.96818181818182L107.98758708381558,140.79545454545456L108.16963613329476,135.96818181818182L108.35213408805942,145.62272727272727L108.54568409095293,140.79545454545456L108.73397292390047,145.62272727272727L109.12563380738811,135.96818181818182L109.31091497492284,135.96818181818182L109.49820723813657,140.79545454545456L109.68806723958333,135.96818181818182L109.88598957995755,135.96818181818182L110.2769052806713,145.62272727272727L110.46629842062114,145.62272727272727L110.66019856963733,145.62272727272727L110.85196192949459,145.62272727272727L111.05195821228781,131.14090909090908L111.24236587818287,135.96818181818182L111.62508456838349,145.62272727272727L111.99901369309413,135.96818181818182L112.18433975115741,145.62272727272727L112.36993515239197,145.62272727272727L112.76900297309028,145.62272727272727L112.95451757137344,145.62272727272727L113.14185472511573,145.62272727272727L113.52330750241127,135.96818181818182L113.71298794174383,135.96818181818182L113.90291976803627,145.62272727272727L114.09163057195215,135.96818181818182L114.2874699918017,145.62272727272727L114.46546991560571,145.62272727272727L114.65182845582562,135.96818181818182L114.84756013840664,145.62272727272727L115.04374072627314,135.96818181818182L115.41147495804398,140.79545454545456L115.61725314091434,121.48636363636363L115.80434788580247,135.96818181818182L116.16967598524306,145.62272727272727L116.71275262152778,135.96818181818182L116.90336678385417,145.62272727272727L117.27047254822531,145.62272727272727L117.45200984567902,145.62272727272727L117.65674656828703,135.96818181818182L117.86102540750386,135.96818181818182L118.04878453221451,145.62272727272727L118.4215824156057,131.14090909090908L118.62915621961807,121.48636363636363L118.82210468942901,135.96818181818182L119.0118120630787,131.14090909090908L119.2063496576003,145.62272727272727L119.403050975598,145.62272727272727L119.58164345437886,135.96818181818182L119.77134184992283,145.62272727272727L119.95816725163965,135.96818181818182L120.14604309172454,135.96818181818182L120.3223641097608,140.79545454545456L120.52411112316744,135.96818181818182L120.89431433400848,145.62272727272727L121.08375236448688,145.62272727272727L121.26481382233796,135.96818181818182L121.45839075954862,145.62272727272727L121.6345591497878,135.96818181818182L121.83373842496141,135.96818181818182L122.02319441165123,135.96818181818182L122.20959784239969,145.62272727272727L122.37966112075617,145.62272727272727L122.56239250626928,145.62272727272727L122.76056623360338,145.62272727272727L122.95539112750771,145.62272727272727L123.1504404740548,126.31363636363636L123.35850807388115,145.62272727272727L123.5548861800733,145.62272727272727L123.73280530092593,135.96818181818182L123.9159586574074,145.62272727272727L124.10060237943674,135.96818181818182L124.303103553723,135.96818181818182L124.6709096103395,140.79545454545456L124.86474691261574,135.96818181818182L125.06231910686728,145.62272727272727L125.43904042245369,145.62272727272727L125.52022045428241,135.96818181818182L125.70687527199074,145.62272727272727L125.89528979841822,145.62272727272727L126.09537586226853,145.62272727272727L126.28985061005015,145.62272727272727L126.49957018132716,140.79545454545456L126.67288353395061,135.96818181818182L126.85213141444831,135.96818181818182L127.03656864004628,131.14090909090908L127.2340241189236,145.62272727272727L127.41734805941358,145.62272727272727L127.59620988136574,135.96818181818182L128.16780995949074,135.96818181818182L128.36260791907793,145.62272727272727L128.7422830314429,135.96818181818182L129.31396391251928,135.96818181818182L129.50315953414355,135.96818181818182L129.68870106674382,135.96818181818182L129.87936011959877,145.62272727272727L130.08660173369987,121.48636363636363L130.2831773582176,135.96818181818182L130.47364787085263,145.62272727272727L130.68529773485724,135.96818181818182L130.8616097747878,140.79545454545456L131.05997204234183,145.62272727272727L131.2396778062307,140.79545454545456L131.61278094521606,135.96818181818182L131.8071569338349,145.62272727272727L131.99650518325615,135.96818181818182L132.2032170891204,145.62272727272727L132.43066841917437,121.48636363636363L132.61775418595678,135.96818181818182L132.81234564911264,145.62272727272727L133.1927120756173,145.62272727272727L133.38142287953318,145.62272727272727L133.58282872492282,135.96818181818182L133.78549150511188,135.96818181818182L134.88522865162037,145.62272727272727L135.25131091194058,145.62272727272727L135.44012945312502,145.62272727272727L135.62590441647376,135.96818181818182L135.8163031042631,135.96818181818182L136.0149077806713,135.96818181818182L136.1987165388696,135.96818181818182L136.19894996961804,135.96818181818182L136.52982907744982,21.72272727272727L136.70619498601468,140.79545454545456L136.90562564814815,126.31363636363636L137.11393565682872,145.62272727272727L137.30387646122685,135.96818181818182L137.51074997299384,135.96818181818182L137.69423551938655,145.62272727272727L137.8905777131559,145.62272727272727L138.07342581404322,135.96818181818182L138.26830457658178,145.62272727272727L138.6304634047068,135.96818181818182L138.82123019483024,145.62272727272727L139.01194311631946,135.96818181818182L139.404133708044,145.62272727272727L139.59737845534335,145.62272727272727L139.7760068465471,135.96818181818182L139.95341421537424,145.62272727272727L140.16041342062115,145.62272727272727L140.35493305893135,145.62272727272727L140.54666948447147,145.62272727272727L140.72929313271604,135.96818181818182L140.91280561342595,145.62272727272727L141.10230649064428,145.62272727272727L141.29310919319062,145.62272727272727L141.49127394241899,145.62272727272727L141.67813525655865,145.62272727272727L141.88096862075616,135.96818181818182L142.07177132330247,145.62272727272727L142.2595124918017,145.62272727272727L142.42942314236112,145.62272727272727L142.62056701292437,135.96818181818182L142.8191088425926,135.96818181818182L143.02432140480326,135.96818181818182L143.41394425829478,145.62272727272727L143.59869571759262,145.62272727272727L143.79499302083335,135.96818181818182L143.97679966145836,135.96818181818182L144.1634903915895,135.96818181818182L144.35714813175153,145.62272727272727L144.55675835599925,135.96818181818182L144.73549448447147,145.62272727272727L144.93816624276621,135.96818181818182L145.12475821373457,135.96818181818182L145.30209375771602,145.62272727272727L145.50359836226852,135.96818181818182L145.6947332547261,145.62272727272727L145.88075062692903,145.62272727272727L146.249687924865,145.62272727272727L146.43910799913198,135.96818181818182L146.62325792534725,145.62272727272727L146.81719398678626,135.96818181818182L147.01281793209876,145.62272727272727L147.20759793547455,135.96818181818182L147.38965596305943,145.62272727272727L147.59078348717208,145.62272727272727L147.7689180825617,145.62272727272727L147.95589611207564,145.62272727272727L148.15048757523147,145.62272727272727L148.32666494357642,140.79545454545456L148.51859888744215,131.14090909090908L148.70334136863426,135.96818181818182L148.9031850236304,135.96818181818182L149.0969235667438,135.96818181818182L149.49222058304397,140.79545454545456L149.67469160349154,145.62272727272727L149.84858853298613,140.79545454545456L150.03712875289352,145.62272727272727L150.23452138503086,145.62272727272727L150.4214365678048,135.96818181818182L150.80991022376543,140.79545454545456L151.5655435127315,135.96818181818182L151.74685635754244,135.96818181818182L151.93019825424383,145.62272727272727L152.12331730806326,145.62272727272727L152.31299774739583,145.62272727272727L152.39122398244598,140.79545454545456L152.58093135609568,145.62272727272727L152.77575625,145.62272727272727L152.96495187162424,145.62272727272727L153.35214165846835,145.62272727272727L153.55225465663582,145.62272727272727L153.72947348524306,145.62272727272727L153.92734195698304,135.96818181818182L154.3143791160301,145.62272727272727L154.50836904610338,145.62272727272727L154.6960204335455,140.79545454545456L155.08153131462194,135.96818181818182L155.26691124131943,145.62272727272727L155.45344036554783,145.62272727272727L155.6295728433642,140.79545454545456L155.81349831693674,135.96818181818182L155.99879744068286,135.96818181818182L156.20337255738812,135.96818181818182L156.3934570114776,145.62272727272727L156.58388263358412,145.62272727272727L156.77125569974925,135.96818181818182L156.95691394772376,135.96818181818182L157.13608102527007,135.96818181818182L157.3258602237654,131.14090909090908L157.51523540750384,145.62272727272727L157.6964405150463,135.96818181818182L157.8845138734568,145.62272727272727L158.45373475356865,135.96818181818182L158.63588256221064,135.96818181818182L158.82050832802855,135.96818181818182L159.01536015625,145.62272727272727L159.20592044994214,135.96818181818182L159.39522380883486,145.62272727272727L159.60517681086034,145.62272727272727L159.78261111400465,145.62272727272727L159.9678384129051,135.96818181818182L160.16724214072144,135.96818181818182L160.3464810431134,135.96818181818182L160.53186994791668,145.62272727272727L160.73261141348377,145.62272727272727L160.91721922309029,135.96818181818182L161.2912919974923,135.96818181818182L161.45421768180938,145.62272727272727L161.64238082127702,135.96818181818182L161.85063696132332,140.79545454545456L162.0329733101852,145.62272727272727L162.2250239694252,145.62272727272727L162.40837484423224,145.62272727272727L162.60563280478394,135.96818181818182L162.80288178722995,140.79545454545456L163.00182763165512,145.62272727272727L163.17186397569444,140.79545454545456L163.35940762586804,145.62272727272727L163.54213003327547,145.62272727272727L163.73155010754246,135.96818181818182L163.9093345568094,135.96818181818182L164.11768047791284,135.96818181818182L164.3044879234182,145.62272727272727L164.49262412856868,135.96818181818182L164.68032938464506,145.62272727272727L164.89945801070604,126.31363636363636L165.0778978616898,145.62272727272727L165.28617195794754,126.31363636363636L165.6695101374421,145.62272727272727L166.05561357349538,145.62272727272727L166.62518459972995,145.62272727272727L166.81497277633102,135.96818181818182L166.99465160590276,135.96818181818182L167.19134394579476,145.62272727272727L167.38099745081018,145.62272727272727L167.56538080777392,145.62272727272727L167.75430708622687,145.62272727272727L167.94117737847225,135.96818181818182L168.12271467592592,145.62272727272727L168.31081496865357,145.62272727272727L168.50536154128085,135.96818181818182L168.68890993441357,135.96818181818182L168.87481059124227,140.79545454545456L169.0591670138889,135.96818181818182L169.4559633738426,145.62272727272727L169.64527571084105,145.62272727272727L169.8343187046682,145.62272727272727L170.21148892554012,145.62272727272727L170.21171337818288,145.62272727272727L170.53956686439045,21.72272727272727L170.72563810522763,145.62272727272727L170.909258323206,145.62272727272727L171.0971521195023,145.62272727272727L171.28444438271603,140.79545454545456L171.48960307629244,145.62272727272727L171.68540658371913,145.62272727272727L172.05205446469904,145.62272727272727L172.25616271990742,140.79545454545456L172.43377658516587,145.62272727272727L172.63135775752318,145.62272727272727L172.83005221498843,135.96818181818182L173.21130747395836,145.62272727272727L173.40929266107253,145.62272727272727L173.59890127555943,135.96818181818182L173.78637310088735,145.62272727272727L173.96023411795912,140.79545454545456L174.1563967496142,145.62272727272727L174.36102573495373,135.96818181818182L174.55093062692902,135.96818181818182L174.74068289110724,131.14090909090908L174.95973071421682,126.31363636363636L175.15345130111885,145.62272727272727L175.3404742211613,135.96818181818182L175.52317867235726,135.96818181818182L175.71238327208718,135.96818181818182L176.07903115306712,135.96818181818182L176.2574171354167,135.96818181818182L176.44224939766588,135.96818181818182L176.6299546537423,140.79545454545456L176.81673516493055,135.96818181818182L177.02478480854552,126.31363636363636L177.21545283950618,135.96818181818182L177.39947707224152,135.96818181818182L177.6045639409722,135.96818181818182L177.99275029755015,135.96818181818182L178.16627014660494,135.96818181818182L178.53491116705248,135.96818181818182L178.72377459876546,145.62272727272727L178.91857255835262,135.96818181818182L179.11866760030864,145.62272727272727L179.30540322096837,135.96818181818182L179.4938805941358,145.62272727272727L179.6871343195409,145.62272727272727L179.87247833381562,145.62272727272727L180.06365811680172,135.96818181818182L180.25833038290895,145.62272727272727L180.447068121142,145.62272727272727L180.624511402392,145.62272727272727L180.81496395881558,145.62272727272727L181.0137571754437,145.62272727272727L181.19799688271607,135.96818181818182L181.57908155767745,135.96818181818182L181.76728958767362,145.62272727272727L181.95814615885416,145.62272727272727L182.13983608410493,145.62272727272727L182.32501849247686,135.96818181818182L182.5060709722222,145.62272727272727L182.68239199025848,135.96818181818182L182.8780428698881,145.62272727272727L183.06359338059414,135.96818181818182L183.25804119405862,145.62272727272727L183.4662703997878,145.62272727272727L183.64554521460263,135.96818181818182L183.83435477768134,145.62272727272727L184.0238825892168,135.96818181818182L184.20277134548613,145.62272727272727L184.38854630883486,135.96818181818182L184.57573981288581,145.62272727272727L184.76593200424384,145.62272727272727L184.95543288146217,145.62272727272727L185.1425276263503,135.96818181818182L185.33163346691745,145.62272727272727L185.52378288532023,145.62272727272727L185.71159587866512,135.96818181818182L186.07261448736497,135.96818181818182L186.15084970052084,140.79545454545456L186.34079050491897,145.62272727272727L186.5267091179591,140.79545454545456L186.71395649064428,135.96818181818182L186.90227225790895,145.62272727272727L187.10154131413967,126.31363636363636L187.29044963638114,145.62272727272727L187.6937192105517,145.62272727272727L187.87946723958333,135.96818181818182L188.0737085566165,145.62272727272727L188.2758595847801,135.96818181818182L188.47524535638505,135.96818181818182L188.664665430652,135.96818181818182L188.85933769675927,135.96818181818182L189.05031098331406,145.62272727272727L189.23468536217206,145.62272727272727L189.42402463348765,145.62272727272727L189.6211479224537,140.79545454545456L189.7984834664352,145.62272727272727L189.98749054783949,135.96818181818182L190.1780957320602,135.96818181818182L190.36894332513504,135.96818181818182L190.5641004089506,145.62272727272727L190.96093268132717,135.96818181818182L191.16777925877702,145.62272727272727L191.34978341772762,135.96818181818182L191.53976013454863,145.62272727272727L191.7260827623457,140.79545454545456L191.90222421826775,140.79545454545456L192.10376473524306,135.96818181818182L192.29536648919753,145.62272727272727L192.48563050540125,145.62272727272727L192.68636299286266,145.62272727272727L192.88082876253858,145.62272727272727L193.08297979070215,135.96818181818182L193.2804891382137,145.62272727272727L193.6577042496142,135.96818181818182L193.8481657841435,145.62272727272727L194.2212509669174,145.62272727272727L194.4083726461227,145.62272727272727L194.59505439814816,145.62272727272727L194.79108235821758,145.62272727272727L195.1667891478588,135.96818181818182L195.35646958719138,135.96818181818182L195.54481228877313,135.96818181818182L195.73359491753473,135.96818181818182L195.92789010320215,135.96818181818182L196.1019217042824,140.79545454545456L196.4806990060764,145.62272727272727L196.86408207609955,140.79545454545456L197.0413906857639,145.62272727272727L197.231735504919,140.79545454545456L197.42387594521605,145.62272727272727L197.60277367959105,135.96818181818182L197.9571395119599,145.62272727272727L198.1366926480517,135.96818181818182L198.3041343195409,145.62272727272727L198.49086994020064,135.96818181818182L198.66451548273534,145.62272727272727L198.8491951171875,135.96818181818182L199.04938891830636,135.96818181818182L199.43955045814042,145.62272727272727L199.6302005328897,145.62272727272727L199.82711732542435,145.62272727272727L200.0218524382716,145.62272727272727L200.21103908179015,145.62272727272727L200.3911129480131,135.96818181818182L200.5876167476852,135.96818181818182L200.76565258391204,135.96818181818182L200.95256776668595,145.62272727272727L201.1591450009645,145.62272727272727L201.36754479070217,135.96818181818182L201.55042880401234,145.62272727272727L201.738681724537,135.96818181818182L201.93550873601467,135.96818181818182L202.12584457706404,145.62272727272727L202.30845924720293,145.62272727272727L202.50362530912423,145.62272727272727L202.70206837962962,135.96818181818182L202.88928881799768,150.45L203.0595585927855,145.62272727272727L203.24105997781635,145.62272727272727L203.44477319637343,140.79545454545456L203.62807020254633,145.62272727272727L203.81039757330248,145.62272727272727L203.9965226827739,145.62272727272727L204.16998866319446,145.62272727272727L204.1701951596258,145.62272727272727L204.48389017312886,21.72272727272727L204.87564981577935,145.62272727272727L205.06272660445603,140.79545454545456L205.25591748312112,145.62272727272727L205.4524302608989,135.96818181818182L205.6482068340085,145.62272727272727L205.83895566792052,145.62272727272727L206.0262030406057,135.96818181818182L206.2152819468557,145.62272727272727L206.40428902826005,145.62272727272727L206.5898126046489,135.96818181818182L206.7776704885224,140.79545454545456L206.95993501253858,145.62272727272727L207.32911471932871,145.62272727272727L207.5113702652392,145.62272727272727L207.71656487123843,135.96818181818182L207.88992311439043,135.96818181818182L208.26053033998843,135.96818181818182L208.43417588252314,145.62272727272727L208.61816420283563,135.96818181818182L208.81579924382714,145.62272727272727L209.00268749228397,135.96818181818182L209.2071548717207,135.96818181818182L209.40396392698688,145.62272727272727L209.6076951017554,140.79545454545456L209.68482600790895,145.62272727272727L210.06397141203703,145.62272727272727L210.25353513599535,145.62272727272727L210.4618810570988,135.96818181818182L210.64184718605324,135.96818181818182L210.82784660204476,145.62272727272727L211.0123646305941,135.96818181818182L211.40506697434415,140.79545454545456L211.61009099633486,145.62272727272727L211.81223304639275,135.96818181818182L212.18222078269676,135.96818181818182L212.3762645814043,135.96818181818182L212.56643881655094,135.96818181818182L212.75282429108796,145.62272727272727L212.95300013599538,145.62272727272727L213.33096940827545,135.96818181818182L213.5165378751929,145.62272727272727L213.701064881848,145.62272727272727L214.06045845341436,145.62272727272727L214.25752787374614,135.96818181818182L214.4658378824267,145.62272727272727L214.65567094955634,145.62272727272727L214.84237963589894,135.96818181818182L215.02177116608794,135.96818181818182L215.22015138985338,145.62272727272727L215.40720124421296,135.96818181818182L215.58617080343362,145.62272727272727L215.78517051649308,140.79545454545456L215.97478810908567,135.96818181818182L216.16367847511572,145.62272727272727L216.36034388069058,145.62272727272727L216.547923443287,145.62272727272727L216.72129066454474,145.62272727272727L216.89165919849538,145.62272727272727L217.08017248408567,145.62272727272727L217.45244963734567,145.62272727272727L217.84338329427084,145.62272727272727L218.02975081259646,140.79545454545456L218.4050266531636,145.62272727272727L218.59579344328702,145.62272727272727L218.76982504436728,140.79545454545456L218.95886803819445,135.96818181818182L219.14598971739971,135.96818181818182L219.35256695167826,145.62272727272727L219.5301628607253,145.62272727272727L219.71363942901232,145.62272727272727L219.89936950183258,135.96818181818182L220.09146505160106,145.62272727272727L220.28497016396602,145.62272727272727L220.49205017216434,121.48636363636363L220.66839812451775,135.96818181818182L220.86237009837964,145.62272727272727L221.04472440345296,145.62272727272727L221.2123097246335,145.62272727272727L221.3897709620949,145.62272727272727L221.5751149763696,140.79545454545456L221.7647146127508,145.62272727272727L222.12593971788195,135.96818181818182L222.5151585566165,135.96818181818182L222.70955250144678,135.96818181818182L223.08590571469907,145.62272727272727L223.28453732542437,145.62272727272727L223.4721887128665,135.96818181818182L223.6823482113233,145.62272727272727L223.8706101099537,145.62272727272727L224.07645113956403,135.96818181818182L224.28761618586034,135.96818181818182L224.70123751591436,135.96818181818182L224.89212999951775,145.62272727272727L225.07742912326387,135.96818181818182L225.45348605902777,135.96818181818182L225.69100184558258,111.83181818181818L225.92638084297838,116.6590909090909L226.1594614453125,131.14090909090908L226.57692540461034,131.14090909090908L226.7609586154514,140.79545454545456L226.9513932156636,135.96818181818182L227.1452215398341,126.31363636363636L227.33551249035492,131.14090909090908L227.56431053626542,121.48636363636363L227.84945517361112,87.69545454545455L228.08871271267358,107.00454545454545L228.37056238522376,92.52272727272727L228.633935116223,102.17727272727272L228.84518994357637,121.48636363636363L229.13829816068673,92.52272727272727L229.38795234616126,107.00454545454545L229.64792237509644,92.52272727272727L229.94864402584875,73.21363636363637L230.2515563343943,73.21363636363637L230.69256986496916,-4.0227272727272805L231.06833052324458,24.940909090909088L231.65633360050154,-110.2227272727273L232.14505678481868,-42.640909090909105L232.5272367886767,34.595454545454544L232.7883201027199,82.86818181818181L233.0125123804012,111.83181818181818L233.26884627652393,102.17727272727272L233.519443163098,97.35L233.80866386043596,82.86818181818181L234.14190421006947,63.55909090909091L234.44124323254243,68.38636363636364L234.68488208719137,107.00454545454545L234.93411430169752,107.00454545454545L235.5177719757909,68.38636363636364L235.80088756124613,78.0409090909091L236.0755547492284,97.35L236.4629061419753,24.940909090909088L236.77945619309415,58.73181818181817L237.10953624951773,63.55909090909091L237.69264625916284,73.21363636363637L238.0147986482446,68.38636363636364L238.3486854214892,58.73181818181817L238.6607553978588,68.38636363636364L238.9263906114969,97.35L239.89183325279708,34.595454545454544L240.13769867766206,111.83181818181818L240.44223602334105,73.21363636363637L240.7112829171489,82.86818181818181L241.0736931322338,29.76818181818183L241.43272757957175,29.76818181818183L241.79534429108796,44.25L242.13314551842205,44.25L242.41798490017362,82.86818181818181L242.75518459442517,53.904545454545456L243.0752091724537,58.73181818181817L243.26113676359955,135.96818181818182L243.50422795380018,107.00454545454545L243.75547126398533,102.17727272727272L244.00029522858796,97.35L244.31534593605323,58.73181818181817L244.75357625385803,0.8045454545454618L245.0083569376929,107.00454545454545L245.00859036844136,107.00454545454545L245.62157053578318,-258.2590909090909L246.03815464072147,10.459090909090918L246.35158928915897,58.73181818181817L246.57790937789352,102.17727272727272L247.00732319589122,5.631818181818176L247.36235340808256,39.422727272727286L247.68180338734567,63.55909090909091L248.31281159095292,87.69545454545455L248.984364919946,39.422727272727286L249.3085553390239,68.38636363636364L249.57517814429013,97.35L249.921311053723,39.422727272727286L250.26362826822918,39.422727272727286L250.9567739414545,39.422727272727286L251.80547427420908,5.631818181818176L252.18288690393518,39.422727272727286L252.56512077642745,10.459090909090918L252.98122006365742,10.459090909090918L253.44470579282407,-23.331818181818193L254.31822160976077,-18.50454545454545L254.7090026388889,44.25L255.13357725790894,0.8045454545454618L255.58234787181712,-8.849999999999994L256.0193751234568,-13.677272727272737L256.26084127652393,102.17727272727272L256.67634800877704,-18.50454545454545L257.07779502748843,-4.0227272727272805L257.5028724204283,0.8045454545454618L258.5004925925926,-76.43181818181819L258.97069394483026,-23.331818181818193L259.38009556520063,0.8045454545454618L260.2123659645062,-13.677272727272737L260.59935823302476,29.76818181818183L261.05276154947916,-8.849999999999994L261.3921339453125,53.904545454545456L261.68856406153554,68.38636363636364L262.0503637654321,34.595454545454544L262.3976638286073,53.904545454545456L262.51874256221066,78.0409090909091L262.94612732831786,-8.849999999999994L263.3523237649498,5.631818181818176L263.7508349430941,10.459090909090918L264.147254222608,20.113636363636374L264.54558583863815,0.8045454545454618L264.96092198688274,10.459090909090918L265.31377051938665,44.25L265.7234863734568,0.8045454545454618L266.12939551070605,5.631818181818176L266.40149496045524,97.35L267.3012986709105,-8.849999999999994L267.76120213589894,-13.677272727272737L268.14310381848,5.631818181818176L268.6815657084298,-52.29545454545453L269.0483841734182,44.25L269.4935994574653,-13.677272727272737" style="fill: none;" fill="none"></path></g></g></g></g></g></g><g transform="translate(39, 177)" clip-path="url(#clip_1)"><clipPath id="clip_1"><rect width="290" height="23"></rect></clipPath><g><g><line x1="0" y1="0" x2="0" y2="5" style="visibility: inherit;" fill="rgb(0, 0, 0)" stroke="rgb(204, 204, 204)" stroke-width="1px"></line><line x1="32.32118055555556" y1="0" x2="32.32118055555556" y2="5" style="visibility: inherit;" fill="rgb(0, 0, 0)" stroke="rgb(204, 204, 204)" stroke-width="1px"></line><line x1="64.64236111111111" y1="0" x2="64.64236111111111" y2="5" style="visibility: inherit;" fill="rgb(0, 0, 0)" stroke="rgb(204, 204, 204)" stroke-width="1px"></line><line x1="96.96354166666666" y1="0" x2="96.96354166666666" y2="5" style="visibility: inherit;" fill="rgb(0, 0, 0)" stroke="rgb(204, 204, 204)" stroke-width="1px"></line><line x1="129.28472222222223" y1="0" x2="129.28472222222223" y2="5" style="visibility: inherit;" fill="rgb(0, 0, 0)" stroke="rgb(204, 204, 204)" stroke-width="1px"></line><line x1="161.60590277777777" y1="0" x2="161.60590277777777" y2="5" style="visibility: inherit;" fill="rgb(0, 0, 0)" stroke="rgb(204, 204, 204)" stroke-width="1px"></line><line x1="193.92708333333331" y1="0" x2="193.92708333333331" y2="5" style="visibility: inherit;" fill="rgb(0, 0, 0)" stroke="rgb(204, 204, 204)" stroke-width="1px"></line><line x1="226.24826388888889" y1="0" x2="226.24826388888889" y2="5" style="visibility: inherit;" fill="rgb(0, 0, 0)" stroke="rgb(204, 204, 204)" stroke-width="1px"></line><line x1="258.56944444444446" y1="0" x2="258.56944444444446" y2="5" style="visibility: inherit;" fill="rgb(0, 0, 0)" stroke="rgb(204, 204, 204)" stroke-width="1px"></line><line x1="290.890625" y1="0" x2="290.890625" y2="5" style="visibility: inherit;" fill="rgb(0, 0, 0)" stroke="rgb(204, 204, 204)" stroke-width="1px"></line></g><g transform="translate(0, 8)"><text x="0" y="0" dx="0em" dy="0.95em" style="text-anchor: middle; visibility: hidden; font-family: &quot;Helvetica Neue&quot;, sans-serif; font-size: 12px; font-weight: 200;" fill="rgb(50, 49, 63)" stroke="none" stroke-width="1px">-1</text><text x="32.32118055555556" y="0" dx="0em" dy="0.95em" style="text-anchor: middle; visibility: inherit; font-family: &quot;Helvetica Neue&quot;, sans-serif; font-size: 12px; font-weight: 200;" fill="rgb(50, 49, 63)" stroke="none" stroke-width="1px">0</text><text x="64.64236111111111" y="0" dx="0em" dy="0.95em" style="text-anchor: middle; visibility: inherit; font-family: &quot;Helvetica Neue&quot;, sans-serif; font-size: 12px; font-weight: 200;" fill="rgb(50, 49, 63)" stroke="none" stroke-width="1px">1</text><text x="96.96354166666666" y="0" dx="0em" dy="0.95em" style="text-anchor: middle; visibility: inherit; font-family: &quot;Helvetica Neue&quot;, sans-serif; font-size: 12px; font-weight: 200;" fill="rgb(50, 49, 63)" stroke="none" stroke-width="1px">2</text><text x="129.28472222222223" y="0" dx="0em" dy="0.95em" style="text-anchor: middle; visibility: inherit; font-family: &quot;Helvetica Neue&quot;, sans-serif; font-size: 12px; font-weight: 200;" fill="rgb(50, 49, 63)" stroke="none" stroke-width="1px">3</text><text x="161.60590277777777" y="0" dx="0em" dy="0.95em" style="text-anchor: middle; visibility: inherit; font-family: &quot;Helvetica Neue&quot;, sans-serif; font-size: 12px; font-weight: 200;" fill="rgb(50, 49, 63)" stroke="none" stroke-width="1px">4</text><text x="193.92708333333331" y="0" dx="0em" dy="0.95em" style="text-anchor: middle; visibility: inherit; font-family: &quot;Helvetica Neue&quot;, sans-serif; font-size: 12px; font-weight: 200;" fill="rgb(50, 49, 63)" stroke="none" stroke-width="1px">5</text><text x="226.24826388888889" y="0" dx="0em" dy="0.95em" style="text-anchor: middle; visibility: inherit; font-family: &quot;Helvetica Neue&quot;, sans-serif; font-size: 12px; font-weight: 200;" fill="rgb(50, 49, 63)" stroke="none" stroke-width="1px">6</text><text x="258.56944444444446" y="0" dx="0em" dy="0.95em" style="text-anchor: middle; visibility: inherit; font-family: &quot;Helvetica Neue&quot;, sans-serif; font-size: 12px; font-weight: 200;" fill="rgb(50, 49, 63)" stroke="none" stroke-width="1px">7</text><text x="290.890625" y="0" dx="0em" dy="0.95em" style="text-anchor: middle; visibility: hidden; font-family: &quot;Helvetica Neue&quot;, sans-serif; font-size: 12px; font-weight: 200;" fill="rgb(50, 49, 63)" stroke="none" stroke-width="1px">8</text></g><line x1="0" y1="0" x2="290.890625" y2="0" fill="rgb(0, 0, 0)" stroke="rgb(204, 204, 204)" stroke-width="1px"></line></g></g></g></g></svg>