<svg viewBox="0 0 330 200" xmlns="http://www.w3.org/2000/svg"><g><g><g><g><g><line x1="39.15625" y1="177" x2="34.15625" y2="177" style="visibility: inherit;" fill="rgb(0, 0, 0)" stroke="rgb(204, 204, 204)" stroke-width="1px"></line><line x1="39.15625" y1="157.33333333333334" x2="34.15625" y2="157.33333333333334" style="visibility: inherit;" fill="rgb(0, 0, 0)" stroke="rgb(204, 204, 204)" stroke-width="1px"></line><line x1="39.15625" y1="137.66666666666669" x2="34.15625" y2="137.66666666666669" style="visibility: inherit;" fill="rgb(0, 0, 0)" stroke="rgb(204, 204, 204)" stroke-width="1px"></line><line x1="39.15625" y1="118" x2="34.15625" y2="118" style="visibility: inherit;" fill="rgb(0, 0, 0)" stroke="rgb(204, 204, 204)" stroke-width="1px"></line><line x1="39.15625" y1="98.33333333333334" x2="34.15625" y2="98.33333333333334" style="visibility: inherit;" fill="rgb(0, 0, 0)" stroke="rgb(204, 204, 204)" stroke-width="1px"></line><line x1="39.15625" y1="78.66666666666666" x2="34.15625" y2="78.66666666666666" style="visibility: inherit;" fill="rgb(0, 0, 0)" stroke="rgb(204, 204, 204)" stroke-width="1px"></line><line x1="39.15625" y1="59" x2="34.15625" y2="59" style="visibility: inherit;" fill="rgb(0, 0, 0)" stroke="rgb(204, 204, 204)" stroke-width="1px"></line><line x1="39.15625" y1="39.33333333333334" x2="34.15625" y2="39.33333333333334" style="visibility: inherit;" fill="rgb(0, 0, 0)" stroke="rgb(204, 204, 204)" stroke-width="1px"></line><line x1="39.15625" y1="19.666666666666686" x2="34.15625" y2="19.666666666666686" style="visibility: inherit;" fill="rgb(0, 0, 0)" stroke="rgb(204, 204, 204)" stroke-width="1px"></line><line x1="39.15625" y1="0" x2="34.15625" y2="0" style="visibility: inherit;" fill="rgb(0, 0, 0)" stroke="rgb(204, 204, 204)" stroke-width="1px"></line></g><g transform="translate(29.15625, 0)"><text x="0" y="177" dx="0em" dy="0.3em" style="text-anchor: end; visibility: hidden; font-family: &quot;Helvetica Neue&quot;, sans-serif; font-size: 12px; font-weight: 200;" fill="rgb(50, 49, 63)" stroke="none" stroke-width="1px">40</text><text x="0" y="157.33333333333334" dx="0em" dy="0.3em" style="text-anchor: end; visibility: inherit; font-family: &quot;Helvetica Neue&quot;, sans-serif; font-size: 12px; font-weight: 200;" fill="rgb(50, 49, 63)" stroke="none" stroke-width="1px">50</text><text x="0" y="137.66666666666669" dx="0em" dy="0.3em" style="text-anchor: end; visibility: hidden; font-family: &quot;Helvetica Neue&quot;, sans-serif; font-size: 12px; font-weight: 200;" fill="rgb(50, 49, 63)" stroke="none" stroke-width="1px">60</text><text x="0" y="118" dx="0em" dy="0.3em" style="text-anchor: end; visibility: inherit; font-family: &quot;Helvetica Neue&quot;, sans-serif; font-size: 12px; font-weight: 200;" fill="rgb(50, 49, 63)" stroke="none" stroke-width="1px">70</text><text x="0" y="98.33333333333334" dx="0em" dy="0.3em" style="text-anchor: end; visibility: hidden; font-family: &quot;Helvetica Neue&quot;, sans-serif; font-size: 12px; font-weight: 200;" fill="rgb(50, 49, 63)" stroke="none" stroke-width="1px">80</text><text x="0" y="78.66666666666666" dx="0em" dy="0.3em" style="text-anchor: end; visibility: inherit; font-family: &quot;Helvetica Neue&quot;, sans-serif; font-size: 12px; font-weight: 200;" fill="rgb(50, 49, 63)" stroke="none" stroke-width="1px">90</text><text x="0" y="59" dx="0em" dy="0.3em" style="text-anchor: end; visibility: hidden; font-family: &quot;Helvetica Neue&quot;, sans-serif; font-size: 12px; font-weight: 200;" fill="rgb(50, 49, 63)" stroke="none" stroke-width="1px">100</text><text x="0" y="39.33333333333334" dx="0em" dy="0.3em" style="text-anchor: end; visibility: inherit; font-family: &quot;Helvetica Neue&quot;, sans-serif; font-size: 12px; font-weight: 200;" fill="rgb(50, 49, 63)" stroke="none" stroke-width="1px">110</text><text x="0" y="19.666666666666686" dx="0em" dy="0.3em" style="text-anchor: end; visibility: hidden; font-family: &quot;Helvetica Neue&quot;, sans-serif; font-size: 12px; font-weight: 200;" fill="rgb(50, 49, 63)" stroke="none" stroke-width="1px">120</text><text x="0" y="0" dx="0em" dy="0.3em" style="text-anchor: end; visibility: hidden; font-family: &quot;Helvetica Neue&quot;, sans-serif; font-size: 12px; font-weight: 200;" fill="rgb(50, 49, 63)" stroke="none" stroke-width="1px">130</text></g><line x1="39.15625" y1="0" x2="39.15625" y2="177" fill="rgb(0, 0, 0)" stroke="rgb(204, 204, 204)" stroke-width="1px"></line></g></g><g transform="translate(39, 0)" clip-path="url(#clip_0)"><clipPath id="clip_0"><rect width="290" height="177"></rect></clipPath><g><g><g><line x1="0" y1="0" x2="0" y2="177" fill="rgb(0, 0, 0)" stroke="rgb(60, 60, 60)" stroke-width="1px" opacity="0.25"></line><line x1="32.31597222222222" y1="0" x2="32.31597222222222" y2="177" fill="rgb(0, 0, 0)" stroke="rgb(60, 60, 60)" stroke-width="1px" opacity="0.25"></line><line x1="64.63194444444444" y1="0" x2="64.63194444444444" y2="177" fill="rgb(0, 0, 0)" stroke="rgb(60, 60, 60)" stroke-width="1px" opacity="0.25"></line><line x1="96.94791666666666" y1="0" x2="96.94791666666666" y2="177" fill="rgb(0, 0, 0)" stroke="rgb(60, 60, 60)" stroke-width="1px" opacity="0.25"></line><line x1="129.26388888888889" y1="0" x2="129.26388888888889" y2="177" fill="rgb(0, 0, 0)" stroke="rgb(60, 60, 60)" stroke-width="1px" opacity="0.25"></line><line x1="161.57986111111111" y1="0" x2="161.57986111111111" y2="177" fill="rgb(0, 0, 0)" stroke="rgb(60, 60, 60)" stroke-width="1px" opacity="0.25"></line><line x1="193.89583333333331" y1="0" x2="193.89583333333331" y2="177" fill="rgb(0, 0, 0)" stroke="rgb(60, 60, 60)" stroke-width="1px" opacity="0.25"></line><line x1="226.21180555555557" y1="0" x2="226.21180555555557" y2="177" fill="rgb(0, 0, 0)" stroke="rgb(60, 60, 60)" stroke-width="1px" opacity="0.25"></line><line x1="258.52777777777777" y1="0" x2="258.52777777777777" y2="177" fill="rgb(0, 0, 0)" stroke="rgb(60, 60, 60)" stroke-width="1px" opacity="0.25"></line><line x1="290.84375" y1="0" x2="290.84375" y2="177" fill="rgb(0, 0, 0)" stroke="rgb(60, 60, 60)" stroke-width="1px" opacity="0.25"></line></g><g><line x1="0" y1="177" x2="290.84375" y2="177" fill="rgb(0, 0, 0)" stroke="rgb(60, 60, 60)" stroke-width="1px" opacity="0.25"></line><line x1="0" y1="157.33333333333334" x2="290.84375" y2="157.33333333333334" fill="rgb(0, 0, 0)" stroke="rgb(60, 60, 60)" stroke-width="1px" opacity="0.25"></line><line x1="0" y1="137.66666666666669" x2="290.84375" y2="137.66666666666669" fill="rgb(0, 0, 0)" stroke="rgb(60, 60, 60)" stroke-width="1px" opacity="0.25"></line><line x1="0" y1="118" x2="290.84375" y2="118" fill="rgb(0, 0, 0)" stroke="rgb(60, 60, 60)" stroke-width="1px" opacity="0.25"></line><line x1="0" y1="98.33333333333334" x2="290.84375" y2="98.33333333333334" fill="rgb(0, 0, 0)" stroke="rgb(60, 60, 60)" stroke-width="1px" opacity="0.25"></line><line x1="0" y1="78.66666666666666" x2="290.84375" y2="78.66666666666666" fill="rgb(0, 0, 0)" stroke="rgb(60, 60, 60)" stroke-width="1px" opacity="0.25"></line><line x1="0" y1="59" x2="290.84375" y2="59" fill="rgb(0, 0, 0)" stroke="rgb(60, 60, 60)" stroke-width="1px" opacity="0.25"></line><line x1="0" y1="39.33333333333334" x2="290.84375" y2="39.33333333333334" fill="rgb(0, 0, 0)" stroke="rgb(60, 60, 60)" stroke-width="1px" opacity="0.25"></line><line x1="0" y1="19.666666666666686" x2="290.84375" y2="19.666666666666686" fill="rgb(0, 0, 0)" stroke="rgb(60, 60, 60)" stroke-width="1px" opacity="0.25"></line><line x1="0" y1="0" x2="290.84375" y2="0" fill="rgb(0, 0, 0)" stroke="rgb(60, 60, 60)" stroke-width="1px" opacity="0.25"></line></g></g></g><g><g><line x1="0" y1="255.66666666666666" x2="290.84375" y2="255.66666666666666" fill="rgb(0, 0, 0)" stroke="rgb(153, 153, 153)" stroke-width="1.5px"></line></g></g><g><g><line x1="32.31597222222222" y1="0" x2="32.31597222222222" y2="177" fill="rgb(0, 0, 0)" stroke="rgb(153, 153, 153)" stroke-width="1.5px"></line></g></g><g><g><g><g><g><path stroke="rgb(0, 153, 136)" stroke-width="2px" d="M32.703763888888886,127.83333333333333L32.76839583333333,127.83333333333333L33.026923611111116,127.83333333333333L33.09155555555556,127.83333333333333L33.28545138888889,127.83333333333333L33.35008333333333,127.83333333333333L33.54397916666667,127.83333333333333L33.60861111111111,127.83333333333333L33.67324305555555,127.83333333333333L33.93177083333333,127.83333333333333L34.51345833333333,127.83333333333333L34.70735416666667,127.83333333333333L34.96588194444444,127.83333333333333L35.09514583333333,127.83333333333333L35.22440972222223,127.83333333333333L35.28904166666667,127.83333333333333L35.418305555555555,127.83333333333333L35.54756944444444,127.83333333333333L35.612201388888884,127.83333333333333L35.80609722222222,127.83333333333333L35.87072916666667,127.83333333333333L35.93536111111111,127.83333333333333L35.99999305555556,127.83333333333333L36.064625,127.83333333333333L36.452416666666664,127.83333333333333L36.58168055555555,127.83333333333333L36.6463125,127.83333333333333L36.71094444444445,127.83333333333333L36.77557638888889,127.83333333333333L36.96947222222222,127.83333333333333L37.034104166666665,127.83333333333333L37.098736111111116,127.83333333333333L37.16336805555555,127.83333333333333L37.48652777777777,127.83333333333333L37.8096875,127.83333333333333L38.00358333333333,127.83333333333333L38.068215277777774,127.83333333333333L38.45600694444444,127.83333333333333L38.973062500000005,127.83333333333333L39.16695833333333,127.83333333333333L39.23159027777778,127.83333333333333L39.68401388888889,127.83333333333333L39.87790972222222,127.83333333333333L40.00717361111111,127.83333333333333L40.39496527777778,127.83333333333333L40.45959722222222,127.83333333333333L40.524229166666665,127.83333333333333L40.718125,127.83333333333333L40.78275694444444,127.83333333333333L41.23518055555556,127.83333333333333L41.364444444444445,127.83333333333333L41.49370833333333,127.83333333333333L41.55834027777778,127.83333333333333L41.622972222222224,127.83333333333333L42.07539583333333,127.83333333333333L42.39855555555556,127.83333333333333L42.52781944444445,127.83333333333333L42.59245138888888,127.83333333333333L42.65708333333333,127.83333333333333L42.85097916666667,127.83333333333333L43.044875,127.83333333333333L43.17413888888888,127.83333333333333L43.238770833333334,127.83333333333333L43.43266666666667,127.83333333333333L43.820458333333335,127.83333333333333L43.88509027777778,127.83333333333333L44.014354166666664,127.83333333333333L44.20825,127.83333333333333L44.337513888888886,127.83333333333333L44.402145833333336,127.83333333333333L44.53140972222222,127.83333333333333L44.660673611111115,127.83333333333333L44.72530555555556,127.83333333333333L45.177729166666666,127.83333333333333L45.694784722222224,127.83333333333333L45.75941666666667,127.83333333333333L45.82404861111111,127.83333333333333L46.08257638888889,127.83333333333333L46.72889583333334,127.83333333333333L46.793527777777776,127.83333333333333L46.92279166666667,127.83333333333333L47.052055555555555,127.83333333333333L47.18131944444444,127.83333333333333L47.37521527777778,127.83333333333333L47.43984722222223,127.83333333333333L47.50447916666666,127.83333333333333L47.698375,127.83333333333333L48.34469444444444,127.83333333333333L48.47395833333333,127.83333333333333L48.86175,127.83333333333333L49.05564583333333,127.83333333333333L49.12027777777778,127.83333333333333L49.18490972222222,127.83333333333333L49.249541666666666,127.83333333333333L49.37880555555556,127.83333333333333L49.63733333333333,127.83333333333333L49.76659722222222,127.83333333333333L49.89586111111111,127.83333333333333L50.025124999999996,127.83333333333333L50.34828472222222,127.83333333333333L50.47754861111111,127.83333333333333L50.73607638888889,127.83333333333333L51.1885,127.83333333333333L51.25313194444445,127.83333333333333L51.51165972222222,127.83333333333333L51.57629166666667,127.83333333333333L51.64092361111111,127.83333333333333L51.7701875,127.83333333333333L51.83481944444445,127.83333333333333L51.899451388888885,127.83333333333333L52.15797916666667,127.83333333333333L52.22261111111111,127.83333333333333L52.351875,127.83333333333333L52.545770833333336,127.83333333333333L52.80429861111111,127.83333333333333L52.86893055555556,127.83333333333333L52.9335625,127.83333333333333L52.998194444444444,127.83333333333333L53.12745833333334,127.83333333333333L53.321354166666666,127.83333333333333L53.38598611111111,127.83333333333333L53.45061805555556,127.83333333333333L53.64451388888889,127.83333333333333L53.70914583333334,127.83333333333333L53.838409722222224,127.83333333333333L54.22620138888889,127.83333333333333L54.355465277777775,127.83333333333333L54.54936111111111,127.83333333333333L54.613993055555554,127.83333333333333L54.74325694444445,127.83333333333333L54.80788888888889,127.83333333333333L55.13104861111111,127.83333333333333L55.195680555555555,127.83333333333333L55.454208333333334,127.83333333333333L55.58347222222223,127.83333333333333L55.777368055555556,139.63333333333333L56.035895833333335,127.83333333333333L56.294423611111114,139.63333333333333L56.4236875,139.63333333333333L56.68221527777778,139.63333333333333L56.74684722222223,139.63333333333333L56.811479166666665,139.63333333333333L56.94074305555555,139.63333333333333L57.005375,139.63333333333333L57.26390277777778,139.63333333333333L57.328534722222216,139.63333333333333L57.5870625,139.63333333333333L57.651694444444445,139.63333333333333L57.71632638888889,139.63333333333333L58.36264583333333,139.63333333333333L58.685805555555554,139.63333333333333L59.13822916666667,139.63333333333333L59.202861111111105,139.63333333333333L59.526020833333334,139.63333333333333L59.590652777777784,139.63333333333333L59.71991666666667,139.63333333333333L59.849180555555556,139.63333333333333L60.107708333333335,139.63333333333333L60.689395833333336,139.63333333333333L60.75402777777778,139.63333333333333L60.81865972222222,139.63333333333333L60.88329166666667,139.63333333333333L61.0771875,139.63333333333333L61.46497916666667,139.63333333333333L61.917402777777774,139.63333333333333L61.982034722222224,139.63333333333333L62.046666666666674,139.63333333333333L62.11129861111111,139.63333333333333L62.240562499999996,139.63333333333333L62.305194444444446,139.63333333333333L62.499090277777775,139.63333333333333L62.563722222222225,139.63333333333333L62.88688194444445,139.63333333333333L62.95151388888889,139.63333333333333L63.21004166666666,139.63333333333333L63.66246527777778,139.63333333333333L63.85636111111111,139.63333333333333L63.92099305555555,139.63333333333333L64.05025694444444,139.63333333333333L64.17952083333334,139.63333333333333L64.37341666666667,139.63333333333333L65.08436805555556,139.63333333333333L65.27826388888889,139.63333333333333L65.34289583333333,139.63333333333333L65.40752777777777,139.63333333333333L65.53679166666666,139.63333333333333L65.66605555555556,139.63333333333333L65.7306875,139.63333333333333L65.85995138888889,139.63333333333333L66.18311111111112,139.63333333333333L66.24774305555556,139.63333333333333L66.63553472222222,139.63333333333333L66.76479861111112,139.63333333333333L66.82943055555556,139.63333333333333L66.8940625,139.63333333333333L66.95869444444445,139.63333333333333L67.02332638888889,139.63333333333333L67.08795833333333,139.63333333333333L67.21722222222222,139.63333333333333L67.28185416666666,139.63333333333333L67.3464861111111,139.63333333333333L67.66964583333333,139.63333333333333L67.73427777777778,139.63333333333333L67.79890972222222,139.63333333333333L67.9281736111111,139.63333333333333L68.18670138888889,139.63333333333333L68.31596527777778,139.63333333333333L68.44522916666666,139.63333333333333L68.70375694444445,139.63333333333333L68.7683888888889,139.63333333333333L68.83302083333334,139.63333333333333L69.09154861111111,139.63333333333333L69.35007638888888,139.63333333333333L69.41470833333334,139.63333333333333L69.60860416666667,139.63333333333333L69.73786805555555,139.63333333333333L69.8025,139.63333333333333L69.86713194444445,139.63333333333333L69.93176388888888,139.63333333333333L69.99639583333334,139.63333333333333L70.06102777777778,139.63333333333333L70.19029166666667,139.63333333333333L70.25492361111111,139.63333333333333L70.51345138888888,-328.43333333333334L70.57808333333334,139.63333333333333L70.77197916666667,139.63333333333333L70.83661111111111,139.63333333333333L71.03050694444444,139.63333333333333L71.15977083333334,139.63333333333333L71.41829861111111,139.63333333333333L71.5475625,139.63333333333333L71.67682638888888,139.63333333333333L71.80609027777777,139.63333333333333L71.99998611111111,139.63333333333333L72.25851388888888,139.63333333333333L72.32314583333334,139.63333333333333L72.45240972222223,139.63333333333333L72.64630555555556,139.63333333333333L72.90483333333333,139.63333333333333L73.22799305555556,139.63333333333333L73.68041666666667,139.63333333333333L73.7450486111111,139.63333333333333L73.8743125,139.63333333333333L73.93894444444445,139.63333333333333L74.00357638888889,139.63333333333333L74.06820833333333,139.63333333333333L74.13284027777777,139.63333333333333L74.19747222222223,139.63333333333333L74.39136805555556,139.63333333333333L74.64989583333333,139.63333333333333L74.71452777777777,139.63333333333333L74.97305555555555,139.63333333333333L75.16695138888888,139.63333333333333L75.29621527777778,139.63333333333333L75.42547916666668,139.63333333333333L75.619375,139.63333333333333L75.68400694444445,139.63333333333333L75.74863888888888,139.63333333333333L75.81327083333333,139.63333333333333L75.87790277777778,139.63333333333333L76.00716666666666,139.63333333333333L76.0717986111111,139.63333333333333L76.13643055555555,139.63333333333333L76.26569444444445,139.63333333333333L76.33032638888888,139.63333333333333L76.39495833333334,139.63333333333333L76.45959027777778,139.63333333333333L76.58885416666666,139.63333333333333L76.71811805555555,139.63333333333333L76.78275000000001,139.63333333333333L77.23517361111111,139.63333333333333L77.42906944444445,139.63333333333333L77.49370138888888,139.63333333333333L77.55833333333334,139.63333333333333L77.68759722222222,139.63333333333333L77.88149305555555,139.63333333333333L78.01075694444444,139.63333333333333L78.14002083333334,139.63333333333333L78.39854861111111,139.63333333333333L78.65707638888888,139.63333333333333L78.85097222222223,139.63333333333333L78.91560416666667,139.63333333333333L78.98023611111111,139.63333333333333L79.04486805555555,139.63333333333333L79.10950000000001,139.63333333333333L79.43265972222223,139.63333333333333L79.82045138888888,139.63333333333333L79.94971527777778,139.63333333333333L80.01434722222221,139.63333333333333L80.07897916666666,139.63333333333333L80.14361111111111,139.63333333333333L80.27287500000001,139.63333333333333L80.46677083333333,139.63333333333333L80.53140277777779,139.63333333333333L80.72529861111111,139.63333333333333L80.78993055555556,139.63333333333333L80.85456250000001,139.63333333333333L80.98382638888889,139.63333333333333L81.11309027777779,139.63333333333333L81.50088194444444,139.63333333333333L81.69477777777779,139.63333333333333L81.75940972222222,139.63333333333333L81.95330555555556,139.63333333333333L82.01793749999999,139.63333333333333L82.08256944444445,139.63333333333333L82.21183333333333,139.63333333333333L82.27646527777779,139.63333333333333L82.34109722222222,139.63333333333333L82.66425694444445,139.63333333333333L82.92278472222222,139.63333333333333L82.98741666666666,139.63333333333333L83.11668055555556,139.63333333333333L83.24594444444445,139.63333333333333L83.37520833333333,139.63333333333333L83.43984027777779,139.63333333333333L83.50447222222222,139.63333333333333L83.56910416666666,139.63333333333333L83.63373611111112,139.63333333333333L83.82763194444445,139.63333333333333L83.95689583333333,139.63333333333333L84.08615972222222,139.63333333333333L84.28005555555556,139.63333333333333L84.40931944444445,139.63333333333333L84.47395138888889,139.63333333333333L84.53858333333334,139.63333333333333L84.79711111111112,139.63333333333333L84.926375,139.63333333333333L84.99100694444444,139.63333333333333L85.12027083333334,139.63333333333333L85.31416666666667,139.63333333333333L85.57269444444444,139.63333333333333L85.76659027777777,139.63333333333333L85.96048611111111,139.63333333333333L86.02511805555555,139.63333333333333L86.15438194444444,139.63333333333333L86.28364583333334,139.63333333333333L86.41290972222222,139.63333333333333L86.73606944444444,139.63333333333333L86.86533333333334,139.63333333333333L86.92996527777777,139.63333333333333L86.99459722222223,139.63333333333333L87.05922916666667,139.63333333333333L87.253125,139.63333333333333L87.64091666666667,139.63333333333333L87.77018055555556,139.63333333333333L87.8348125,139.63333333333333L87.89944444444444,139.63333333333333L88.02870833333333,139.63333333333333L88.28723611111111,139.63333333333333L88.4165,139.63333333333333L88.48113194444444,139.63333333333333L88.73965972222223,139.63333333333333L88.80429166666667,139.63333333333333L88.86892361111111,139.63333333333333L88.93355555555556,139.63333333333333L89.1274513888889,139.63333333333333L89.19208333333333,139.63333333333333L89.25671527777777,139.63333333333333L89.38597916666667,139.63333333333333L89.51524305555554,139.63333333333333L89.64450694444444,139.63333333333333L89.7091388888889,139.63333333333333L89.83840277777777,139.63333333333333L89.90303472222222,139.63333333333333L90.09693055555555,139.63333333333333L90.2908263888889,139.63333333333333L90.35545833333333,139.63333333333333L90.80788194444445,139.63333333333333L90.87251388888889,139.63333333333333L90.93714583333333,139.63333333333333L91.00177777777778,139.63333333333333L91.13104166666668,139.63333333333333L91.1956736111111,139.63333333333333L91.3249375,139.63333333333333L91.38956944444445,139.63333333333333L91.45420138888889,139.63333333333333L91.64809722222222,139.63333333333333L91.71272916666668,139.63333333333333L91.7773611111111,139.63333333333333L91.84199305555555,139.63333333333333L91.97125694444445,139.63333333333333L92.3590486111111,139.63333333333333L92.42368055555555,139.63333333333333L92.61757638888888,139.63333333333333L93.07000000000001,139.63333333333333L93.26389583333334,139.63333333333333L93.71631944444445,139.63333333333333L93.78095138888888,139.63333333333333L93.84558333333334,139.63333333333333L93.97484722222222,139.63333333333333L94.03947916666665,139.63333333333333L94.10411111111111,139.63333333333333L94.29800694444445,139.63333333333333L94.36263888888888,139.63333333333333L94.49190277777778,139.63333333333333L94.62116666666665,139.63333333333333L94.68579861111111,139.63333333333333L94.94432638888888,139.63333333333333L95.00895833333333,139.63333333333333L95.26748611111111,139.63333333333333L95.33211805555555,139.63333333333333L95.39675,139.63333333333333L95.46138194444445,139.63333333333333L95.65527777777778,139.63333333333333L95.71990972222223,139.63333333333333L95.78454166666666,139.63333333333333L95.9784375,139.63333333333333L96.04306944444444,139.63333333333333L96.560125,139.63333333333333L96.81865277777779,139.63333333333333L96.94791666666666,139.63333333333333L97.07718055555556,139.63333333333333L97.1418125,139.63333333333333L97.33570833333333,139.63333333333333L97.40034027777779,139.63333333333333L97.52960416666666,139.63333333333333L97.59423611111112,139.63333333333333L97.65886805555556,139.63333333333333L97.7235,139.63333333333333L97.91739583333333,139.63333333333333L98.43445138888889,139.63333333333333L98.56371527777779,139.63333333333333L98.69297916666666,139.63333333333333L98.82224305555556,139.63333333333333L98.886875,139.63333333333333L98.95150694444443,139.63333333333333L99.08077083333333,139.63333333333333L99.21003472222222,139.63333333333333L99.27466666666666,139.63333333333333L99.33929861111112,139.63333333333333L99.53319444444443,139.63333333333333L99.66245833333333,139.63333333333333L100.11488194444443,139.63333333333333L100.17951388888889,139.63333333333333L100.37340972222222,139.63333333333333L100.5026736111111,139.63333333333333L100.89046527777778,139.63333333333333L100.95509722222222,139.63333333333333L101.08436111111111,139.63333333333333L101.213625,139.63333333333333L101.47215277777778,139.63333333333333L101.73068055555557,139.63333333333333L101.85994444444444,139.63333333333333L101.98920833333334,139.63333333333333L102.18310416666667,139.63333333333333L102.24773611111111,139.63333333333333L102.31236805555557,139.63333333333333L102.377,139.63333333333333L102.76479166666667,139.63333333333333L102.82942361111111,139.63333333333333L103.21721527777777,139.63333333333333L103.34647916666667,139.63333333333333L103.47574305555557,139.63333333333333L103.540375,139.63333333333333L103.60500694444444,139.63333333333333L104.18669444444444,139.63333333333333L104.31595833333334,139.63333333333333L104.50985416666667,139.63333333333333L104.76838194444444,139.63333333333333L104.89764583333334,139.63333333333333L104.96227777777777,139.63333333333333L105.02690972222221,139.63333333333333L105.22080555555554,139.63333333333333L105.2854375,139.63333333333333L105.41470138888889,139.63333333333333L105.47933333333334,139.63333333333333L105.54396527777777,127.83333333333333L105.73786111111112,139.63333333333333L105.80249305555554,139.63333333333333L106.4488125,139.63333333333333L106.57807638888889,139.63333333333333L106.64270833333333,139.63333333333333L106.83660416666667,139.63333333333333L106.90123611111112,139.63333333333333L106.96586805555555,139.63333333333333L107.15976388888889,139.63333333333333L107.22439583333333,139.63333333333333L107.28902777777778,139.63333333333333L108.25850694444445,139.63333333333333L108.45240277777778,139.63333333333333L108.58166666666668,139.63333333333333L108.58166666666668,139.63333333333333L108.71093055555555,139.63333333333333L108.7755625,139.63333333333333L108.96945833333332,139.63333333333333L109.16335416666668,139.63333333333333L109.22798611111111,139.63333333333333L109.29261805555555,139.63333333333333L109.35725,139.63333333333333L109.4865138888889,139.63333333333333L109.61577777777778,139.63333333333333L109.74504166666668,139.63333333333333L109.87430555555555,139.63333333333333L109.9389375,139.63333333333333L110.0682013888889,139.63333333333333L110.19746527777778,127.83333333333333L110.32672916666667,139.63333333333333L110.39136111111111,127.83333333333333L110.45599305555555,127.83333333333333L110.520625,139.63333333333333L110.58525694444445,127.83333333333333L111.23157638888888,139.63333333333333L111.49010416666667,139.63333333333333L111.74863194444445,139.63333333333333L111.81326388888888,139.63333333333333L111.87789583333333,139.63333333333333L112.00715972222223,139.63333333333333L112.20105555555556,139.63333333333333L112.39495138888888,127.83333333333333L112.52421527777778,139.63333333333333L112.65347916666666,139.63333333333333L112.71811111111111,139.63333333333333L112.847375,139.63333333333333L113.10590277777779,127.83333333333333L113.17053472222223,127.83333333333333L113.23516666666666,127.83333333333333L113.36443055555556,127.83333333333333L113.4290625,127.83333333333333L113.62295833333333,139.63333333333333L113.68759027777779,127.83333333333333L113.75222222222223,127.83333333333333L113.81685416666666,139.63333333333333L113.8814861111111,127.83333333333333L113.94611805555556,139.63333333333333L114.26927777777777,139.63333333333333L114.33390972222223,139.63333333333333L114.4631736111111,127.83333333333333L114.72170138888889,139.63333333333333L114.78633333333333,139.63333333333333L114.91559722222223,139.63333333333333L115.174125,139.63333333333333L115.30338888888889,139.63333333333333L115.56191666666666,139.63333333333333L115.6265486111111,139.63333333333333L115.69118055555556,139.63333333333333L115.7558125,139.63333333333333L115.88507638888889,139.63333333333333L116.07897222222223,127.83333333333333L116.14360416666666,139.63333333333333L116.27286805555556,139.63333333333333L116.3375,127.83333333333333L116.40213194444443,139.63333333333333L116.7899236111111,139.63333333333333L116.9191875,127.83333333333333L116.98381944444444,127.83333333333333L117.11308333333334,127.83333333333333L117.17771527777778,139.63333333333333L117.37161111111111,139.63333333333333L117.43624305555556,139.63333333333333L117.75940277777778,127.83333333333333L117.82403472222222,127.83333333333333L117.88866666666667,139.63333333333333L118.08256250000001,139.63333333333333L118.2118263888889,127.83333333333333L118.27645833333334,139.63333333333333L118.34109027777778,127.83333333333333L118.40572222222221,127.83333333333333L118.47035416666667,127.83333333333333L118.53498611111111,127.83333333333333L118.72888194444444,139.63333333333333L118.92277777777778,127.83333333333333L119.2459375,127.83333333333333L119.31056944444444,127.83333333333333L119.37520138888888,127.83333333333333L119.43983333333334,127.83333333333333L119.69836111111111,139.63333333333333L119.95688888888888,139.63333333333333L120.08615277777778,139.63333333333333L120.15078472222221,139.63333333333333L120.4093125,127.83333333333333L120.66784027777777,127.83333333333333L121.12026388888889,127.83333333333333L121.24952777777777,127.83333333333333L121.44342361111111,116.03333333333333L121.5726875,127.83333333333333L121.63731944444444,127.83333333333333L121.76658333333334,139.63333333333333L121.83121527777777,127.83333333333333L121.89584722222222,127.83333333333333L122.02511111111112,127.83333333333333L122.08974305555556,127.83333333333333L122.28363888888889,127.83333333333333L123.38238194444445,127.83333333333333L123.44701388888889,116.03333333333333L123.51164583333335,127.83333333333333L123.57627777777778,127.83333333333333L123.83480555555555,104.23333333333333L124.02870138888889,116.03333333333333L124.09333333333335,127.83333333333333L124.28722916666666,104.23333333333333L124.35186111111112,80.63333333333334L124.41649305555555,92.43333333333332L124.67502083333332,92.43333333333332L124.73965277777778,80.63333333333334L124.80428472222222,92.43333333333332L124.93354861111112,68.83333333333333L124.99818055555555,80.63333333333334L125.06281249999999,92.43333333333332L125.19207638888889,104.23333333333333L125.32134027777778,57.03333333333333L125.70913194444445,80.63333333333334L125.83839583333332,92.43333333333332L126.16155555555555,104.23333333333333L126.2261875,80.63333333333334L126.807875,57.03333333333333L126.87250694444445,80.63333333333334L127.58345833333333,57.03333333333333L127.77735416666667,127.83333333333333L127.8419861111111,80.63333333333334L128.03588194444444,68.83333333333333L128.10051388888888,127.83333333333333L128.2944097222222,92.43333333333332L128.4236736111111,116.03333333333333L128.48830555555554,68.83333333333333L128.5529375,80.63333333333334L129.0053611111111,80.63333333333334L129.06999305555556,68.83333333333333L129.134625,104.23333333333333L129.19925694444444,68.83333333333333L129.32852083333333,68.83333333333333L129.39315277777777,45.23333333333332L129.5224166666667,68.83333333333333L129.5870486111111,68.83333333333333L129.65168055555554,68.83333333333333L129.71631250000002,57.03333333333333L130.03947222222223,57.03333333333333L130.16873611111112,68.83333333333333L130.49189583333333,45.23333333333332L130.55652777777777,45.23333333333332L130.7504236111111,57.03333333333333L131.20284722222223,57.03333333333333L131.33211111111112,45.23333333333332L131.97843055555555,68.83333333333333L132.10769444444446,68.83333333333333L132.17232638888888,57.03333333333333L132.3015902777778,68.83333333333333L132.36622222222223,57.03333333333333L132.49548611111112,9.833333333333343L132.56011805555556,68.83333333333333L132.94790972222222,68.83333333333333L133.01254166666666,68.83333333333333L133.40033333333332,33.43333333333334L133.4649652777778,92.43333333333332L134.04665277777778,21.633333333333326L134.30518055555555,68.83333333333333L134.43444444444444,68.83333333333333L134.6929722222222,80.63333333333334L135.0807638888889,57.03333333333333L135.21002777777778,68.83333333333333L135.27465972222222,57.03333333333333L135.4039236111111,57.03333333333333L135.59781944444444,68.83333333333333L135.72708333333333,68.83333333333333L135.7917152777778,92.43333333333332L136.05024305555557,68.83333333333333L136.114875,57.03333333333333L136.2441388888889,68.83333333333333L136.30877083333334,80.63333333333334L136.37340277777778,45.23333333333332L136.43803472222223,45.23333333333332L136.63193055555556,68.83333333333333L136.6965625,68.83333333333333L136.76119444444444,68.83333333333333L137.0197222222222,104.23333333333333L137.1489861111111,80.63333333333334L137.21361805555557,80.63333333333334L137.27824999999999,57.03333333333333L137.4075138888889,68.83333333333333L137.5367777777778,57.03333333333333L137.66604166666667,80.63333333333334L137.8599375,33.43333333333334L138.05383333333333,33.43333333333334L138.11846527777777,21.633333333333326L138.18309722222222,57.03333333333333L138.37699305555557,57.03333333333333L138.50625694444443,45.23333333333332L138.5708888888889,57.03333333333333L138.76478472222223,92.43333333333332L138.82941666666667,68.83333333333333L139.0233125,57.03333333333333L139.21720833333333,45.23333333333332L139.28184027777777,57.03333333333333L139.34647222222222,92.43333333333332L139.41110416666666,92.43333333333332L139.605,57.03333333333333L139.86352777777776,68.83333333333333L139.99279166666668,68.83333333333333L140.05742361111112,45.23333333333332L140.12205555555556,68.83333333333333L140.3159513888889,104.23333333333333L140.38058333333333,92.43333333333332L140.50984722222222,68.83333333333333L140.768375,45.23333333333332L140.83300694444443,68.83333333333333L140.8976388888889,45.23333333333332L141.0915347222222,80.63333333333334L141.3500625,57.03333333333333L141.41469444444445,92.43333333333332L141.54395833333334,80.63333333333334L141.60859027777778,92.43333333333332L141.67322222222222,80.63333333333334L141.73785416666666,68.83333333333333L141.86711805555555,127.83333333333333L142.06101388888888,116.03333333333333L142.12564583333335,80.63333333333334L142.19027777777777,92.43333333333332L142.2549097222222,80.63333333333334L142.5134375,92.43333333333332L142.57806944444445,57.03333333333333L142.90122916666667,92.43333333333332L143.03049305555555,80.63333333333334L143.095125,92.43333333333332L143.15975694444444,45.23333333333332L143.4182847222222,57.03333333333333L143.61218055555554,92.43333333333332L143.74144444444445,80.63333333333334L143.93534027777778,92.43333333333332L143.99997222222223,45.23333333333332L144.06460416666667,57.03333333333333L144.1292361111111,45.23333333333332L144.19386805555555,68.83333333333333L144.32313194444444,68.83333333333333L144.45239583333333,80.63333333333334L144.64629166666668,57.03333333333333L144.7109236111111,57.03333333333333L144.8401875,68.83333333333333L144.90481944444446,57.03333333333333L144.9694513888889,57.03333333333333L145.16334722222223,80.63333333333334L145.2926111111111,68.83333333333333L145.35724305555556,57.03333333333333L145.421875,80.63333333333334L145.48650694444444,45.23333333333332L145.93893055555554,92.43333333333332L146.0035625,92.43333333333332L146.19745833333334,92.43333333333332L146.52061805555556,68.83333333333333L146.7145138888889,57.03333333333333L146.8437777777778,57.03333333333333L147.10230555555555,21.633333333333326L147.1669375,57.03333333333333L147.2962013888889,57.03333333333333L147.55472916666665,33.43333333333334L147.61936111111112,80.63333333333334L147.68399305555556,80.63333333333334L147.81325694444445,68.83333333333333L147.8778888888889,68.83333333333333L147.94252083333333,57.03333333333333L148.2010486111111,68.83333333333333L148.4595763888889,80.63333333333334L148.58884027777776,57.03333333333333L148.6534722222222,104.23333333333333L148.78273611111112,45.23333333333332L149.17052777777775,92.43333333333332L149.23515972222222,57.03333333333333L149.42905555555555,68.83333333333333L149.6229513888889,33.43333333333334L149.88147916666665,33.43333333333334L150.01074305555557,57.03333333333333L150.26927083333334,80.63333333333334L150.5277986111111,57.03333333333333L150.59243055555555,57.03333333333333L150.6570625,45.23333333333332L150.91559027777777,68.83333333333333L150.9802222222222,92.43333333333332L151.17411805555557,68.83333333333333L151.23875,45.23333333333332L151.30338194444445,68.83333333333333L151.49727777777775,68.83333333333333L151.6911736111111,33.43333333333334L151.75580555555555,92.43333333333332L151.88506944444444,104.23333333333333L152.01433333333333,57.03333333333333L152.07896527777777,92.43333333333332L152.1435972222222,80.63333333333334L152.5960208333333,92.43333333333332L152.72528472222223,57.03333333333333L152.78991666666667,80.63333333333334L153.17770833333333,68.83333333333333L153.24234027777777,92.43333333333332L153.3069722222222,68.83333333333333L153.37160416666666,68.83333333333333L153.4362361111111,45.23333333333332L153.56550000000001,45.23333333333332L153.75939583333331,116.03333333333333L154.21181944444444,80.63333333333334L154.27645138888892,92.43333333333332L154.34108333333333,57.03333333333333L154.92277083333332,92.43333333333332L155.11666666666667,92.43333333333332L155.18129861111112,92.43333333333332L155.37519444444445,92.43333333333332L155.43982638888892,68.83333333333333L155.50445833333333,68.83333333333333L155.56909027777778,80.63333333333334L155.63372222222222,80.63333333333334L155.82761805555555,57.03333333333333L155.89225000000002,68.83333333333333L155.95688194444446,45.23333333333332L156.02151388888888,68.83333333333333L156.28004166666668,68.83333333333333L156.34467361111112,80.63333333333334L156.40930555555556,68.83333333333333L156.60320138888886,68.83333333333333L156.73246527777778,104.23333333333333L156.86172916666666,68.83333333333333L156.99099305555555,92.43333333333332L157.05562500000002,57.03333333333333L157.12025694444446,57.03333333333333L157.24952083333332,57.03333333333333L157.31415277777776,68.83333333333333L157.6373125,57.03333333333333L157.83120833333334,80.63333333333334L157.96047222222222,92.43333333333332L158.15436805555555,92.43333333333332L158.34826388888888,80.63333333333334L158.41289583333332,80.63333333333334L158.5421597222222,92.43333333333332L158.67142361111112,68.83333333333333L159.05921527777778,80.63333333333334L159.12384722222222,104.23333333333333L159.2531111111111,57.03333333333333L159.38237500000002,68.83333333333333L159.7055347222222,68.83333333333333L159.9640625,33.43333333333334L160.02869444444443,68.83333333333333L160.09332638888887,80.63333333333334L160.1579583333333,92.43333333333332L160.93354166666666,104.23333333333333L161.06280555555557,139.63333333333333L161.19206944444443,104.23333333333333L161.3213333333333,68.83333333333333L161.38596527777779,68.83333333333333L161.57986111111111,57.03333333333333L161.64449305555556,68.83333333333333L161.70912500000003,33.43333333333334L161.77375694444444,68.83333333333333L161.8383888888889,92.43333333333332L161.90302083333333,80.63333333333334L161.96765277777777,33.43333333333334L162.09691666666666,68.83333333333333L162.16154861111113,80.63333333333334L162.22618055555557,45.23333333333332L162.35544444444443,80.63333333333334L162.67860416666667,80.63333333333334L162.8725,45.23333333333332L163.0017638888889,57.03333333333333L163.06639583333333,45.23333333333332L163.19565972222222,57.03333333333333L163.38955555555557,-1.9666666666666686L163.58345138888888,68.83333333333333L163.7127152777778,68.83333333333333L163.90661111111112,45.23333333333332L163.97124305555556,80.63333333333334L164.10050694444442,80.63333333333334L164.1651388888889,80.63333333333334L164.35903472222222,80.63333333333334L164.48829861111113,45.23333333333332L164.55293055555558,68.83333333333333L165.06998611111112,92.43333333333332L165.13461805555556,68.83333333333333L165.26388194444442,33.43333333333334L165.58704166666666,57.03333333333333L165.84556944444444,-788.6333333333333L165.91020138888888,45.23333333333332L165.97483333333332,80.63333333333334L166.10409722222224,92.43333333333332L166.16872916666668,92.43333333333332L166.29799305555557,80.63333333333334L166.42725694444442,33.43333333333334L166.62115277777778,57.03333333333333L166.68578472222222,57.03333333333333L166.9443125,45.23333333333332L167.26747222222224,92.43333333333332L167.39673611111112,57.03333333333333L167.78452777777778,68.83333333333333L167.84915972222223,92.43333333333332L167.91379166666667,80.63333333333334L167.9784236111111,80.63333333333334L168.04305555555553,57.03333333333333L168.23695138888888,80.63333333333334L168.36621527777777,80.63333333333334L168.56011111111113,80.63333333333334L168.62474305555554,68.83333333333333L168.8186388888889,68.83333333333333L168.94790277777778,68.83333333333333L169.07716666666667,104.23333333333333L169.1417986111111,80.63333333333334L169.20643055555553,57.03333333333333L169.46495833333333,80.63333333333334L169.72348611111113,104.23333333333333L169.78811805555554,80.63333333333334L169.85275,68.83333333333333L170.1112777777778,80.63333333333334L170.17590972222223,68.83333333333333L170.30517361111112,80.63333333333334L170.36980555555553,57.03333333333333L170.49906944444444,68.83333333333333L170.5637013888889,68.83333333333333L170.62833333333333,57.03333333333333L170.75759722222222,68.83333333333333L170.8222291666667,68.83333333333333L170.88686111111113,68.83333333333333L170.95149305555555,80.63333333333334L171.14538888888887,68.83333333333333L171.2746527777778,68.83333333333333L171.33928472222223,68.83333333333333L171.7270763888889,80.63333333333334L171.79170833333333,68.83333333333333L171.85634027777778,57.03333333333333L172.11486805555555,92.43333333333332L172.24413194444443,80.63333333333334L172.37339583333335,104.23333333333333L172.6319236111111,68.83333333333333L173.08434722222222,92.43333333333332L173.27824305555555,92.43333333333332L173.40750694444444,57.03333333333333L173.53677083333335,104.23333333333333L173.6014027777778,104.23333333333333L173.73066666666668,80.63333333333334L173.85993055555554,92.43333333333332L173.98919444444445,80.63333333333334L174.0538263888889,80.63333333333334L174.11845833333334,68.83333333333333L174.3123541666667,68.83333333333333L174.3769861111111,92.43333333333332L174.57088194444444,45.23333333333332L174.63551388888888,104.23333333333333L174.82940972222224,68.83333333333333L175.02330555555554,33.43333333333334L175.28183333333334,57.03333333333333L175.669625,68.83333333333333L175.73425694444444,92.43333333333332L175.9281527777778,57.03333333333333L175.99278472222224,92.43333333333332L176.1220486111111,80.63333333333334L176.25131249999998,68.83333333333333L176.31594444444445,68.83333333333333L176.44520833333334,68.83333333333333L176.50984027777778,92.43333333333332L176.63910416666664,68.83333333333333L176.7037361111111,45.23333333333332L176.76836805555556,68.83333333333333L176.833,57.03333333333333L176.96226388888888,92.43333333333332L177.0915277777778,92.43333333333332L177.15615972222224,68.83333333333333L177.41468749999999,57.03333333333333L177.47931944444446,57.03333333333333L177.60858333333334,68.83333333333333L177.80247916666664,68.83333333333333L177.93174305555556,9.833333333333343L178.1256388888889,92.43333333333332L178.51343055555554,68.83333333333333L178.90122222222223,68.83333333333333L179.15975,68.83333333333333L179.35364583333333,57.03333333333333L179.67680555555555,68.83333333333333L179.80606944444443,68.83333333333333L179.9999652777778,57.03333333333333L180.38775694444445,92.43333333333332L180.4523888888889,68.83333333333333L180.5816527777778,68.83333333333333L180.7755486111111,92.43333333333332L180.96944444444443,104.23333333333333L181.0340763888889,57.03333333333333L181.09870833333335,80.63333333333334L181.68039583333334,104.23333333333333L181.74502777777778,104.23333333333333L181.80965972222222,57.03333333333333L181.87429166666666,92.43333333333332L182.00355555555555,104.23333333333333L182.13281944444444,68.83333333333333L182.3267152777778,68.83333333333333L182.3913472222222,80.63333333333334L182.649875,68.83333333333333L182.7791388888889,92.43333333333332L182.84377083333334,80.63333333333334L182.90840277777778,68.83333333333333L182.9730347222222,57.03333333333333L183.4900902777778,68.83333333333333L184.07177777777775,57.03333333333333L184.20104166666667,80.63333333333334L184.3949375,68.83333333333333L184.7180972222222,80.63333333333334L184.8473611111111,80.63333333333334L184.91199305555554,-776.8333333333334L185.1058888888889,80.63333333333334L185.17052083333334,80.63333333333334L185.36441666666667,45.23333333333332L185.5583125,68.83333333333333L185.68757638888889,92.43333333333332L185.81684027777777,92.43333333333332L186.0107361111111,68.83333333333333L186.20463194444446,57.03333333333333L186.2692638888889,45.23333333333332L186.33389583333334,80.63333333333334L186.4631597222222,45.23333333333332L186.98021527777777,68.83333333333333L187.04484722222222,80.63333333333334" style="fill: none;" fill="none"></path></g><g><path stroke="rgb(51, 187, 238)" stroke-width="2px" d="M32.703763888888886,127.83333333333333L33.35008333333333,127.83333333333333L33.54397916666667,127.83333333333333L33.93177083333333,127.83333333333333L34.70735416666667,127.83333333333333L34.96588194444444,127.83333333333333L35.09514583333333,127.83333333333333L35.22440972222223,127.83333333333333L35.28904166666667,127.83333333333333L35.418305555555555,127.83333333333333L35.80609722222222,127.83333333333333L35.87072916666667,127.83333333333333L35.93536111111111,127.83333333333333L35.99999305555556,127.83333333333333L36.58168055555555,127.83333333333333L36.96947222222222,127.83333333333333L37.034104166666665,127.83333333333333L37.098736111111116,127.83333333333333L37.16336805555555,127.83333333333333L37.48652777777777,127.83333333333333L38.00358333333333,127.83333333333333L38.45600694444444,127.83333333333333L38.973062500000005,127.83333333333333L39.16695833333333,127.83333333333333L39.23159027777778,127.83333333333333L39.68401388888889,127.83333333333333L40.00717361111111,127.83333333333333L40.524229166666665,127.83333333333333L40.718125,127.83333333333333L40.78275694444444,127.83333333333333L41.364444444444445,127.83333333333333L41.49370833333333,127.83333333333333L41.55834027777778,127.83333333333333L42.07539583333333,127.83333333333333L42.39855555555556,127.83333333333333L42.52781944444445,127.83333333333333L42.59245138888888,127.83333333333333L42.85097916666667,127.83333333333333L43.17413888888888,127.83333333333333L43.238770833333334,127.83333333333333L43.43266666666667,127.83333333333333L43.820458333333335,127.83333333333333L43.88509027777778,127.83333333333333L44.014354166666664,127.83333333333333L44.20825,127.83333333333333L44.337513888888886,127.83333333333333L44.402145833333336,127.83333333333333L44.53140972222222,127.83333333333333L44.660673611111115,127.83333333333333L44.72530555555556,127.83333333333333L45.177729166666666,127.83333333333333L45.694784722222224,127.83333333333333L45.75941666666667,127.83333333333333L45.82404861111111,127.83333333333333L46.08257638888889,127.83333333333333L46.793527777777776,127.83333333333333L47.18131944444444,127.83333333333333L47.37521527777778,127.83333333333333L47.50447916666666,127.83333333333333L47.698375,127.83333333333333L48.47395833333333,127.83333333333333L48.86175,127.83333333333333L49.18490972222222,127.83333333333333L49.249541666666666,127.83333333333333L49.37880555555556,127.83333333333333L49.63733333333333,127.83333333333333L49.89586111111111,127.83333333333333L50.025124999999996,127.83333333333333L50.34828472222222,127.83333333333333L51.25313194444445,127.83333333333333L51.51165972222222,127.83333333333333L51.57629166666667,127.83333333333333L51.83481944444445,127.83333333333333L51.899451388888885,127.83333333333333L52.15797916666667,127.83333333333333L52.22261111111111,127.83333333333333L52.351875,127.83333333333333L52.545770833333336,127.83333333333333L52.86893055555556,127.83333333333333L52.9335625,127.83333333333333L53.321354166666666,127.83333333333333L53.38598611111111,127.83333333333333L53.45061805555556,127.83333333333333L53.64451388888889,127.83333333333333L54.22620138888889,127.83333333333333L54.74325694444445,127.83333333333333L55.777368055555556,127.83333333333333L56.035895833333335,127.83333333333333L56.4236875,127.83333333333333L56.68221527777778,127.83333333333333L56.811479166666665,127.83333333333333L57.26390277777778,127.83333333333333L57.5870625,127.83333333333333L57.651694444444445,127.83333333333333L58.685805555555554,127.83333333333333L59.13822916666667,127.83333333333333L59.526020833333334,127.83333333333333L59.590652777777784,127.83333333333333L59.71991666666667,127.83333333333333L60.107708333333335,127.83333333333333L60.689395833333336,127.83333333333333L60.81865972222222,127.83333333333333L60.88329166666667,127.83333333333333L61.0771875,127.83333333333333L61.46497916666667,127.83333333333333L62.046666666666674,127.83333333333333L62.240562499999996,127.83333333333333L62.305194444444446,127.83333333333333L62.88688194444445,127.83333333333333L62.95151388888889,127.83333333333333L63.85636111111111,127.83333333333333L63.92099305555555,127.83333333333333L64.05025694444444,127.83333333333333L64.17952083333334,127.83333333333333L65.08436805555556,127.83333333333333L65.40752777777777,127.83333333333333L65.53679166666666,127.83333333333333L65.7306875,127.83333333333333L66.24774305555556,127.83333333333333L66.63553472222222,127.83333333333333L66.76479861111112,127.83333333333333L66.95869444444445,116.03333333333333L67.3464861111111,127.83333333333333L67.66964583333333,127.83333333333333L67.73427777777778,127.83333333333333L68.31596527777778,127.83333333333333L68.44522916666666,127.83333333333333L68.70375694444445,127.83333333333333L68.7683888888889,116.03333333333333L69.09154861111111,127.83333333333333L69.35007638888888,127.83333333333333L69.41470833333334,127.83333333333333L69.73786805555555,127.83333333333333L69.86713194444445,116.03333333333333L69.93176388888888,116.03333333333333L70.06102777777778,116.03333333333333L70.19029166666667,127.83333333333333L70.25492361111111,127.83333333333333L70.51345138888888,-540.8333333333333L70.57808333333334,127.83333333333333L71.03050694444444,116.03333333333333L71.15977083333334,116.03333333333333L71.5475625,116.03333333333333L71.67682638888888,116.03333333333333L71.99998611111111,116.03333333333333L72.32314583333334,127.83333333333333L72.45240972222223,127.83333333333333L73.22799305555556,116.03333333333333L73.68041666666667,116.03333333333333L73.7450486111111,116.03333333333333L73.8743125,116.03333333333333L73.93894444444445,127.83333333333333L74.00357638888889,116.03333333333333L74.06820833333333,116.03333333333333L74.19747222222223,116.03333333333333L74.39136805555556,116.03333333333333L74.64989583333333,116.03333333333333L74.97305555555555,116.03333333333333L75.16695138888888,116.03333333333333L75.42547916666668,116.03333333333333L75.619375,116.03333333333333L75.68400694444445,116.03333333333333L75.81327083333333,116.03333333333333L75.87790277777778,116.03333333333333L76.0717986111111,116.03333333333333L76.13643055555555,116.03333333333333L76.33032638888888,116.03333333333333L76.39495833333334,116.03333333333333L76.71811805555555,116.03333333333333L76.78275000000001,116.03333333333333L77.23517361111111,116.03333333333333L77.42906944444445,116.03333333333333L77.68759722222222,116.03333333333333L77.88149305555555,116.03333333333333L78.01075694444444,116.03333333333333L78.14002083333334,116.03333333333333L78.39854861111111,116.03333333333333L78.65707638888888,116.03333333333333L78.85097222222223,116.03333333333333L78.91560416666667,116.03333333333333L78.98023611111111,116.03333333333333L79.04486805555555,116.03333333333333L79.43265972222223,116.03333333333333L79.82045138888888,116.03333333333333L79.94971527777778,116.03333333333333L80.01434722222221,116.03333333333333L80.27287500000001,116.03333333333333L80.46677083333333,116.03333333333333L80.53140277777779,116.03333333333333L80.72529861111111,116.03333333333333L80.78993055555556,116.03333333333333L80.85456250000001,116.03333333333333L80.98382638888889,116.03333333333333L81.11309027777779,116.03333333333333L81.69477777777779,116.03333333333333L81.75940972222222,116.03333333333333L81.95330555555556,116.03333333333333L82.01793749999999,116.03333333333333L82.08256944444445,116.03333333333333L82.21183333333333,116.03333333333333L82.27646527777779,116.03333333333333L82.66425694444445,116.03333333333333L82.92278472222222,116.03333333333333L82.98741666666666,116.03333333333333L83.11668055555556,116.03333333333333L83.24594444444445,116.03333333333333L83.43984027777779,116.03333333333333L83.50447222222222,116.03333333333333L83.56910416666666,116.03333333333333L83.63373611111112,116.03333333333333L83.82763194444445,116.03333333333333L84.08615972222222,116.03333333333333L84.28005555555556,116.03333333333333L84.40931944444445,116.03333333333333L84.47395138888889,116.03333333333333L84.53858333333334,116.03333333333333L84.926375,116.03333333333333L84.99100694444444,116.03333333333333L85.12027083333334,116.03333333333333L85.31416666666667,116.03333333333333L85.57269444444444,116.03333333333333L85.76659027777777,116.03333333333333L85.96048611111111,116.03333333333333L86.02511805555555,116.03333333333333L86.28364583333334,116.03333333333333L86.41290972222222,116.03333333333333L86.73606944444444,116.03333333333333L86.92996527777777,116.03333333333333L88.28723611111111,116.03333333333333L88.4165,116.03333333333333L88.48113194444444,116.03333333333333L88.73965972222223,127.83333333333333L88.86892361111111,116.03333333333333L89.1274513888889,116.03333333333333L89.25671527777777,116.03333333333333L89.38597916666667,116.03333333333333L89.51524305555554,116.03333333333333L89.7091388888889,116.03333333333333L90.09693055555555,116.03333333333333L90.35545833333333,116.03333333333333L90.80788194444445,116.03333333333333L90.87251388888889,116.03333333333333L90.93714583333333,116.03333333333333L91.00177777777778,116.03333333333333L91.3249375,116.03333333333333L91.45420138888889,116.03333333333333L91.64809722222222,116.03333333333333L91.71272916666668,116.03333333333333L91.7773611111111,116.03333333333333L91.84199305555555,116.03333333333333L92.3590486111111,116.03333333333333L92.42368055555555,116.03333333333333L92.61757638888888,116.03333333333333L93.07000000000001,116.03333333333333L93.26389583333334,116.03333333333333L93.78095138888888,116.03333333333333L93.84558333333334,116.03333333333333L93.97484722222222,116.03333333333333L94.03947916666665,116.03333333333333L94.10411111111111,116.03333333333333L94.29800694444445,116.03333333333333L94.36263888888888,116.03333333333333L94.62116666666665,116.03333333333333L94.94432638888888,116.03333333333333L95.00895833333333,116.03333333333333L95.26748611111111,116.03333333333333L95.33211805555555,116.03333333333333L95.39675,116.03333333333333L95.46138194444445,116.03333333333333L95.65527777777778,116.03333333333333L95.71990972222223,116.03333333333333L95.78454166666666,116.03333333333333L95.9784375,116.03333333333333L96.04306944444444,116.03333333333333L96.560125,116.03333333333333L96.81865277777779,116.03333333333333L96.94791666666666,116.03333333333333L97.07718055555556,116.03333333333333L97.1418125,116.03333333333333L97.33570833333333,116.03333333333333L97.59423611111112,116.03333333333333L97.65886805555556,116.03333333333333L97.7235,116.03333333333333L97.91739583333333,116.03333333333333L98.43445138888889,116.03333333333333L98.56371527777779,116.03333333333333L98.82224305555556,116.03333333333333L98.886875,116.03333333333333L99.08077083333333,127.83333333333333L99.21003472222222,116.03333333333333L99.33929861111112,116.03333333333333L99.66245833333333,116.03333333333333L100.37340972222222,116.03333333333333L100.5026736111111,116.03333333333333L100.89046527777778,116.03333333333333L100.95509722222222,116.03333333333333L101.08436111111111,116.03333333333333L101.213625,116.03333333333333L101.47215277777778,116.03333333333333L101.73068055555557,116.03333333333333L101.85994444444444,116.03333333333333L102.18310416666667,116.03333333333333L102.24773611111111,116.03333333333333L102.31236805555557,116.03333333333333L102.82942361111111,116.03333333333333L103.21721527777777,116.03333333333333L103.47574305555557,116.03333333333333L103.540375,116.03333333333333L103.60500694444444,116.03333333333333L104.18669444444444,116.03333333333333L104.31595833333334,116.03333333333333L104.50985416666667,116.03333333333333L104.89764583333334,116.03333333333333L104.96227777777777,116.03333333333333L105.41470138888889,116.03333333333333L105.54396527777777,104.23333333333333L106.4488125,116.03333333333333L106.83660416666667,116.03333333333333L106.90123611111112,116.03333333333333L106.96586805555555,116.03333333333333L107.15976388888889,116.03333333333333L107.22439583333333,116.03333333333333L107.28902777777778,116.03333333333333L108.45240277777778,116.03333333333333L108.58166666666668,116.03333333333333L108.71093055555555,116.03333333333333L109.16335416666668,104.23333333333333L109.22798611111111,116.03333333333333L109.4865138888889,116.03333333333333L109.61577777777778,116.03333333333333L109.74504166666668,104.23333333333333L110.0682013888889,116.03333333333333L110.19746527777778,116.03333333333333L110.32672916666667,116.03333333333333L110.58525694444445,104.23333333333333L111.23157638888888,116.03333333333333L111.49010416666667,116.03333333333333L111.74863194444445,104.23333333333333L111.81326388888888,116.03333333333333L111.87789583333333,116.03333333333333L112.00715972222223,116.03333333333333L112.20105555555556,116.03333333333333L112.39495138888888,116.03333333333333L112.52421527777778,116.03333333333333L112.71811111111111,116.03333333333333L113.10590277777779,116.03333333333333L113.23516666666666,104.23333333333333L113.36443055555556,104.23333333333333L113.4290625,104.23333333333333L113.62295833333333,116.03333333333333L113.75222222222223,104.23333333333333L113.94611805555556,104.23333333333333L114.4631736111111,104.23333333333333L114.78633333333333,116.03333333333333L114.91559722222223,116.03333333333333L115.30338888888889,104.23333333333333L115.56191666666666,116.03333333333333L115.6265486111111,116.03333333333333L115.69118055555556,116.03333333333333L115.7558125,104.23333333333333L116.14360416666666,104.23333333333333L116.3375,104.23333333333333L116.7899236111111,116.03333333333333L116.9191875,116.03333333333333L117.11308333333334,104.23333333333333L117.17771527777778,104.23333333333333L117.37161111111111,104.23333333333333L117.75940277777778,104.23333333333333L117.88866666666667,116.03333333333333L118.08256250000001,116.03333333333333L118.27645833333334,104.23333333333333L118.34109027777778,104.23333333333333L118.40572222222221,104.23333333333333L118.47035416666667,104.23333333333333L118.53498611111111,104.23333333333333L118.92277777777778,104.23333333333333L119.69836111111111,104.23333333333333L120.08615277777778,104.23333333333333L120.4093125,104.23333333333333L120.66784027777777,104.23333333333333L121.12026388888889,116.03333333333333L121.24952777777777,116.03333333333333L121.5726875,104.23333333333333L121.63731944444444,104.23333333333333L121.83121527777777,104.23333333333333L121.89584722222222,104.23333333333333L122.02511111111112,104.23333333333333L122.08974305555556,104.23333333333333L122.28363888888889,116.03333333333333L123.38238194444445,104.23333333333333L123.44701388888889,104.23333333333333L123.51164583333335,104.23333333333333L123.83480555555555,104.23333333333333L124.02870138888889,104.23333333333333L124.28722916666666,104.23333333333333L124.35186111111112,104.23333333333333L124.41649305555555,104.23333333333333L124.67502083333332,104.23333333333333L124.73965277777778,104.23333333333333L124.93354861111112,104.23333333333333L125.19207638888889,104.23333333333333L125.32134027777778,104.23333333333333L126.16155555555555,104.23333333333333L126.2261875,104.23333333333333L126.807875,104.23333333333333L126.87250694444445,104.23333333333333L127.58345833333333,104.23333333333333L128.03588194444444,92.43333333333332L128.10051388888888,80.63333333333334L128.2944097222222,104.23333333333333L128.4236736111111,104.23333333333333L128.48830555555554,104.23333333333333L129.0053611111111,104.23333333333333L129.06999305555556,104.23333333333333L129.134625,104.23333333333333L129.39315277777777,104.23333333333333L129.5224166666667,104.23333333333333L129.65168055555554,104.23333333333333L130.16873611111112,104.23333333333333L130.49189583333333,104.23333333333333L130.55652777777777,104.23333333333333L130.7504236111111,104.23333333333333L131.20284722222223,104.23333333333333L131.33211111111112,104.23333333333333L131.97843055555555,104.23333333333333L132.3015902777778,104.23333333333333L132.36622222222223,104.23333333333333L132.49548611111112,104.23333333333333L132.56011805555556,104.23333333333333L132.94790972222222,104.23333333333333L133.40033333333332,104.23333333333333L133.4649652777778,104.23333333333333L134.04665277777778,104.23333333333333L134.30518055555555,104.23333333333333L134.43444444444444,104.23333333333333L134.6929722222222,104.23333333333333L135.27465972222222,104.23333333333333L135.4039236111111,104.23333333333333L135.59781944444444,104.23333333333333L135.72708333333333,104.23333333333333L135.7917152777778,116.03333333333333L136.114875,104.23333333333333L136.63193055555556,104.23333333333333L136.76119444444444,104.23333333333333L137.21361805555557,104.23333333333333L137.27824999999999,104.23333333333333L137.5367777777778,104.23333333333333L137.8599375,104.23333333333333L138.05383333333333,104.23333333333333L138.18309722222222,104.23333333333333L138.37699305555557,104.23333333333333L138.5708888888889,104.23333333333333L138.82941666666667,104.23333333333333L139.34647222222222,104.23333333333333L139.86352777777776,104.23333333333333L139.99279166666668,104.23333333333333L140.12205555555556,104.23333333333333L140.3159513888889,104.23333333333333L140.38058333333333,104.23333333333333L140.768375,104.23333333333333L140.83300694444443,104.23333333333333L141.3500625,104.23333333333333L141.54395833333334,104.23333333333333L141.60859027777778,104.23333333333333L141.67322222222222,104.23333333333333L141.73785416666666,104.23333333333333L141.86711805555555,104.23333333333333L142.06101388888888,104.23333333333333L142.5134375,104.23333333333333L142.57806944444445,92.43333333333332L142.90122916666667,104.23333333333333L143.03049305555555,104.23333333333333L143.095125,104.23333333333333L143.15975694444444,104.23333333333333L143.74144444444445,104.23333333333333L143.99997222222223,104.23333333333333L144.1292361111111,104.23333333333333L144.19386805555555,104.23333333333333L144.32313194444444,104.23333333333333L144.64629166666668,104.23333333333333L144.7109236111111,104.23333333333333L144.8401875,104.23333333333333L144.90481944444446,104.23333333333333L144.9694513888889,104.23333333333333L145.16334722222223,104.23333333333333L145.2926111111111,104.23333333333333L145.421875,104.23333333333333L146.19745833333334,104.23333333333333L146.7145138888889,104.23333333333333L147.10230555555555,104.23333333333333L147.1669375,104.23333333333333L147.55472916666665,104.23333333333333L147.61936111111112,104.23333333333333L147.68399305555556,104.23333333333333L148.2010486111111,104.23333333333333L148.6534722222222,104.23333333333333L149.17052777777775,104.23333333333333L149.23515972222222,104.23333333333333L149.42905555555555,104.23333333333333L149.88147916666665,104.23333333333333L150.01074305555557,104.23333333333333L150.26927083333334,104.23333333333333L150.91559027777777,104.23333333333333L150.9802222222222,104.23333333333333L151.17411805555557,80.63333333333334L151.49727777777775,104.23333333333333L151.75580555555555,104.23333333333333L152.5960208333333,104.23333333333333L152.72528472222223,104.23333333333333L152.78991666666667,104.23333333333333L153.17770833333333,104.23333333333333L153.24234027777777,104.23333333333333L153.3069722222222,80.63333333333334L153.4362361111111,104.23333333333333L153.56550000000001,104.23333333333333L154.34108333333333,80.63333333333334L154.92277083333332,104.23333333333333L155.18129861111112,80.63333333333334L155.50445833333333,104.23333333333333L155.56909027777778,92.43333333333332L155.89225000000002,104.23333333333333L155.95688194444446,104.23333333333333L156.28004166666668,80.63333333333334L156.34467361111112,80.63333333333334L156.73246527777778,104.23333333333333L156.99099305555555,92.43333333333332L157.12025694444446,104.23333333333333L157.24952083333332,104.23333333333333L157.6373125,104.23333333333333L157.83120833333334,104.23333333333333L157.96047222222222,104.23333333333333L158.15436805555555,104.23333333333333L158.34826388888888,104.23333333333333L158.5421597222222,104.23333333333333L158.67142361111112,92.43333333333332L159.12384722222222,104.23333333333333L159.2531111111111,104.23333333333333L160.02869444444443,104.23333333333333L160.09332638888887,92.43333333333332L160.1579583333333,104.23333333333333L161.06280555555557,116.03333333333333L161.3213333333333,104.23333333333333L161.57986111111111,104.23333333333333L161.64449305555556,80.63333333333334L161.8383888888889,80.63333333333334L161.90302083333333,104.23333333333333L162.09691666666666,104.23333333333333L162.22618055555557,104.23333333333333L162.35544444444443,104.23333333333333L162.67860416666667,92.43333333333332L162.8725,104.23333333333333L163.0017638888889,80.63333333333334L163.19565972222222,80.63333333333334L163.38955555555557,92.43333333333332L163.58345138888888,80.63333333333334L163.7127152777778,104.23333333333333L163.90661111111112,104.23333333333333L164.10050694444442,80.63333333333334L164.1651388888889,80.63333333333334L164.35903472222222,104.23333333333333L165.13461805555556,80.63333333333334L165.26388194444442,104.23333333333333L165.58704166666666,80.63333333333334L165.84556944444444,-753.2333333333333L165.91020138888888,116.03333333333333L165.97483333333332,104.23333333333333L166.10409722222224,104.23333333333333L166.16872916666668,80.63333333333334L166.29799305555557,80.63333333333334L166.42725694444442,80.63333333333334L166.62115277777778,80.63333333333334L166.68578472222222,92.43333333333332L166.9443125,80.63333333333334L167.26747222222224,104.23333333333333L167.39673611111112,80.63333333333334L167.84915972222223,80.63333333333334L167.9784236111111,80.63333333333334L168.04305555555553,68.83333333333333L168.23695138888888,80.63333333333334L168.36621527777777,80.63333333333334L168.62474305555554,80.63333333333334L168.8186388888889,80.63333333333334L168.94790277777778,80.63333333333334L169.07716666666667,92.43333333333332L169.1417986111111,92.43333333333332L169.46495833333333,68.83333333333333L169.72348611111113,68.83333333333333L169.78811805555554,80.63333333333334L169.85275,92.43333333333332L170.1112777777778,68.83333333333333L170.17590972222223,80.63333333333334L170.30517361111112,80.63333333333334L170.49906944444444,80.63333333333334L170.5637013888889,80.63333333333334L170.62833333333333,80.63333333333334L170.75759722222222,68.83333333333333L170.8222291666667,68.83333333333333L170.95149305555555,80.63333333333334L171.2746527777778,80.63333333333334L171.33928472222223,80.63333333333334L171.7270763888889,80.63333333333334L171.79170833333333,80.63333333333334L171.85634027777778,80.63333333333334L172.11486805555555,80.63333333333334L172.24413194444443,80.63333333333334L172.37339583333335,92.43333333333332L172.6319236111111,80.63333333333334L173.27824305555555,80.63333333333334L173.40750694444444,80.63333333333334L173.53677083333335,92.43333333333332L173.6014027777778,104.23333333333333L173.85993055555554,80.63333333333334L173.98919444444445,80.63333333333334L174.0538263888889,68.83333333333333L174.11845833333334,68.83333333333333L174.57088194444444,80.63333333333334L174.82940972222224,80.63333333333334L175.02330555555554,80.63333333333334L175.669625,80.63333333333334L175.73425694444444,80.63333333333334L175.99278472222224,80.63333333333334L176.1220486111111,80.63333333333334L176.31594444444445,80.63333333333334L176.44520833333334,68.83333333333333L176.50984027777778,80.63333333333334L176.63910416666664,80.63333333333334L176.7037361111111,80.63333333333334L176.76836805555556,80.63333333333334L176.833,80.63333333333334L176.96226388888888,80.63333333333334L177.0915277777778,80.63333333333334L177.15615972222224,80.63333333333334L177.41468749999999,80.63333333333334L177.47931944444446,80.63333333333334L177.60858333333334,104.23333333333333L177.80247916666664,80.63333333333334L178.1256388888889,68.83333333333333L178.90122222222223,80.63333333333334L179.15975,80.63333333333334L179.35364583333333,80.63333333333334L179.80606944444443,80.63333333333334L179.9999652777778,80.63333333333334L180.38775694444445,80.63333333333334L180.4523888888889,80.63333333333334L180.5816527777778,80.63333333333334L180.7755486111111,80.63333333333334L180.96944444444443,68.83333333333333L181.0340763888889,80.63333333333334L181.09870833333335,80.63333333333334L181.68039583333334,80.63333333333334L181.74502777777778,104.23333333333333L181.80965972222222,80.63333333333334L181.87429166666666,80.63333333333334L182.00355555555555,80.63333333333334L182.13281944444444,68.83333333333333L182.3267152777778,68.83333333333333L182.7791388888889,104.23333333333333L182.84377083333334,104.23333333333333L182.90840277777778,104.23333333333333L182.9730347222222,104.23333333333333L183.4900902777778,80.63333333333334L184.07177777777775,80.63333333333334L184.3949375,80.63333333333334L184.8473611111111,80.63333333333334L184.91199305555554,-788.6333333333333L185.1058888888889,80.63333333333334L185.81684027777777,80.63333333333334L186.0107361111111,68.83333333333333L186.20463194444446,80.63333333333334L186.2692638888889,45.23333333333332L186.33389583333334,80.63333333333334L186.4631597222222,80.63333333333334L186.98021527777777,80.63333333333334L187.10947916666666,80.63333333333334L187.23874305555555,80.63333333333334L187.36800694444446,80.63333333333334L188.0143263888889,80.63333333333334L188.53138194444446,116.03333333333333L188.5960138888889,68.83333333333333L188.91917361111112,80.63333333333334L189.30696527777778,80.63333333333334L189.82402083333332,68.83333333333333L190.2118125,68.83333333333333L190.27644444444445,80.63333333333334L190.3410763888889,80.63333333333334L190.4057083333333,80.63333333333334L190.53497222222222,80.63333333333334L190.85813194444447,80.63333333333334L191.8276111111111,80.63333333333334L192.08613888888888,80.63333333333334L192.21540277777777,80.63333333333334L192.47393055555557,80.63333333333334L192.5385625,80.63333333333334L192.66782638888887,80.63333333333334L192.9909861111111,57.03333333333333L193.18488194444447,80.63333333333334L193.31414583333333,45.23333333333332L193.50804166666666,68.83333333333333L193.57267361111113,80.63333333333334L193.63730555555557,80.63333333333334L194.283625,80.63333333333334L194.34825694444447,80.63333333333334L194.47752083333333,80.63333333333334L194.54215277777777,68.83333333333333L194.60678472222222,80.63333333333334L194.67141666666666,80.63333333333334L194.92994444444446,57.03333333333333L195.05920833333332,80.63333333333334L195.25310416666667,80.63333333333334L195.38236805555556,57.03333333333333L195.51163194444447,80.63333333333334L195.64089583333333,57.03333333333333L196.22258333333332,57.03333333333333L196.48111111111112,80.63333333333334L196.610375,80.63333333333334L196.7396388888889,68.83333333333333L196.86890277777778,80.63333333333334L197.0627986111111,68.83333333333333L197.25669444444443,80.63333333333334L197.64448611111112,68.83333333333333L197.70911805555556,80.63333333333334L197.96764583333334,80.63333333333334L198.16154166666666,80.63333333333334L198.35543750000002,80.63333333333334L198.48470138888888,80.63333333333334L198.80786111111112,80.63333333333334L199.06638888888887,68.83333333333333L199.26028472222222,104.23333333333333L199.32491666666667,68.83333333333333L199.3895486111111,68.83333333333333L199.45418055555558,68.83333333333333L199.64807638888888,80.63333333333334L199.90660416666668,80.63333333333334L200.29439583333334,80.63333333333334L200.35902777777778,80.63333333333334L200.5529236111111,80.63333333333334L201.06997916666668,80.63333333333334L201.13461111111113,57.03333333333333L201.39313888888887,80.63333333333334L201.52240277777778,80.63333333333334L201.58703472222223,80.63333333333334L201.78093055555556,80.63333333333334L201.84556249999997,57.03333333333333L201.97482638888889,80.63333333333334L202.16872222222221,80.63333333333334L202.2333541666667,80.63333333333334L202.36261805555557,57.03333333333333L202.75040972222223,57.03333333333333L202.94430555555556,57.03333333333333L203.1382013888889,57.03333333333333L203.20283333333333,80.63333333333334L203.46136111111113,57.03333333333333L203.8491527777778,57.03333333333333L204.62473611111113,57.03333333333333L204.88326388888888,57.03333333333333L205.0125277777778,80.63333333333334L205.33568749999998,57.03333333333333L205.65884722222222,57.03333333333333L205.917375,57.03333333333333L206.24053472222224,57.03333333333333L206.49906249999998,57.03333333333333L206.75759027777778,68.83333333333333L206.95148611111114,57.03333333333333L207.92096527777778,57.03333333333333L208.56728472222224,80.63333333333334L208.63191666666668,80.63333333333334L208.6965486111111,68.83333333333333L208.89044444444443,80.63333333333334L208.9550763888889,57.03333333333333L209.27823611111108,57.03333333333333L209.66602777777777,80.63333333333334L209.73065972222224,57.03333333333333L209.79529166666669,80.63333333333334L209.8599236111111,68.83333333333333L209.92455555555554,80.63333333333334L209.98918749999999,57.03333333333333L210.05381944444443,57.03333333333333L210.570875,80.63333333333334L212.05740972222225,80.63333333333334L212.12204166666666,80.63333333333334L212.1866736111111,68.83333333333333L212.63909722222223,57.03333333333333L213.3500486111111,80.63333333333334L213.41468055555555,57.03333333333333L213.4793125,92.43333333333332L213.7378402777778,80.63333333333334L214.25489583333334,57.03333333333333L214.31952777777778,80.63333333333334L214.5134236111111,68.83333333333333L214.6426875,80.63333333333334L214.70731944444444,80.63333333333334L214.83658333333335,80.63333333333334L215.74143055555555,57.03333333333333L215.93532638888888,80.63333333333334L216.0645902777778,57.03333333333333L216.38775,80.63333333333334L216.58164583333334,57.03333333333333L216.77554166666664,80.63333333333334L217.35722916666666,68.83333333333333L217.4218611111111,57.03333333333333L217.80965277777779,57.03333333333333L217.93891666666664,80.63333333333334L218.0035486111111,80.63333333333334L218.3913402777778,57.03333333333333L218.5852361111111,80.63333333333334L218.64986805555554,57.03333333333333L218.9730277777778,80.63333333333334L219.10229166666664,80.63333333333334L219.23155555555556,68.83333333333333L219.4254513888889,68.83333333333333L219.49008333333336,80.63333333333334L220.0071388888889,45.23333333333332L220.33029861111112,92.43333333333332L220.4595625,57.03333333333333L220.52419444444445,57.03333333333333L220.5888263888889,68.83333333333333L220.84735416666666,57.03333333333333L221.29977777777776,80.63333333333334L221.55830555555556,57.03333333333333L221.7522013888889,33.43333333333334L221.94609722222222,80.63333333333334L222.46315277777776,57.03333333333333L222.7863125,80.63333333333334L223.4972638888889,33.43333333333334L223.8204236111111,57.03333333333333L223.9496875,33.43333333333334L224.01431944444445,57.03333333333333L224.20821527777775,80.63333333333334L224.8545347222222,21.633333333333326L225.2423263888889,45.23333333333332L225.50085416666667,57.03333333333333L225.8240138888889,92.43333333333332L225.95327777777777,57.03333333333333L226.08254166666666,57.03333333333333L226.21180555555557,57.03333333333333L226.34106944444446,45.23333333333332L226.53496527777776,57.03333333333333L226.59959722222223,57.03333333333333L226.66422916666667,57.03333333333333L226.858125,45.23333333333332L226.92275694444444,45.23333333333332L226.98738888888892,57.03333333333333L227.24591666666666,21.633333333333326L227.37518055555557,57.03333333333333L227.5690763888889,57.03333333333333L227.63370833333332,57.03333333333333L227.7629722222222,57.03333333333333L227.82760416666667,80.63333333333334L228.08613194444445,9.833333333333343L228.21539583333333,9.833333333333343L228.28002777777778,45.23333333333332L228.34465972222222,57.03333333333333L228.60318750000002,57.03333333333333L228.73245138888888,21.633333333333326L228.86171527777776,57.03333333333333L229.05561111111112,57.03333333333333L229.6372986111111,57.03333333333333L229.83119444444446,57.03333333333333L229.96045833333332,57.03333333333333L230.0897222222222,33.43333333333334L230.21898611111112,57.03333333333333L230.34825,33.43333333333334L230.92993750000002,57.03333333333333L231.18846527777777,45.23333333333332L231.31772916666668,57.03333333333333L231.511625,57.03333333333333L232.02868055555555,33.43333333333334L232.28720833333333,57.03333333333333L232.54573611111113,57.03333333333333L232.93352777777778,57.03333333333333L233.1274236111111,57.03333333333333L233.38595138888888,45.23333333333332L233.51521527777777,33.43333333333334L233.77374305555557,33.43333333333334L233.838375,21.633333333333326L234.29079861111111,33.43333333333334L234.48469444444444,9.833333333333343L234.5493263888889,68.83333333333333L234.87248611111113,33.43333333333334L234.93711805555557,57.03333333333333L235.00175000000002,80.63333333333334L235.13101388888887,57.03333333333333L235.32490972222223,33.43333333333334L235.64806944444445,57.03333333333333L235.84196527777777,80.63333333333334L235.90659722222222,33.43333333333334L236.03586111111113,57.03333333333333L236.4236527777778,21.633333333333326L237.06997222222222,33.43333333333334L237.52239583333332,33.43333333333334L237.71629166666668,-1.9666666666666686L237.78092361111112,33.43333333333334L238.23334722222222,57.03333333333333L238.29797916666666,21.633333333333326L238.36261111111114,9.833333333333343L238.42724305555558,33.43333333333334L238.75040277777777,33.43333333333334L238.94429861111112,33.43333333333334L240.43083333333334,-37.366666666666646L240.6893611111111,-1.9666666666666686L240.818625,9.833333333333343L241.14178472222224,45.23333333333332L241.33568055555554,9.833333333333343L241.40031249999998,33.43333333333334L241.5295763888889,33.43333333333334L241.59420833333334,33.43333333333334L242.04663194444444,9.833333333333343L242.11126388888889,-835.8333333333334L242.24052777777777,45.23333333333332L242.75758333333334,33.43333333333334L242.8222152777778,33.43333333333334L243.145375,33.43333333333334L243.21000694444444,33.43333333333334L243.59779861111113,68.83333333333333L243.7270625,-1.9666666666666686L243.85632638888887,21.633333333333326L243.9855902777778,33.43333333333334L244.24411805555553,33.43333333333334L244.4380138888889,21.633333333333326L244.6965416666667,9.833333333333343L245.08433333333335,33.43333333333334L245.27822916666668,-1.9666666666666686L245.3428611111111,-1.9666666666666686L245.40749305555553,33.43333333333334L245.79528472222222,33.43333333333334L246.3123402777778,33.43333333333334L246.57086805555554,33.43333333333334L246.70013194444445,9.833333333333343L246.7647638888889,9.833333333333343L246.82939583333334,33.43333333333334L247.0879236111111,9.833333333333343L247.41108333333335,80.63333333333334L247.86350694444445,-13.766666666666652L248.12203472222222,33.43333333333334L248.3805625,9.833333333333343L248.44519444444444,21.633333333333326L248.6390902777778,9.833333333333343L248.89761805555554,-13.766666666666652L249.02688194444445,21.633333333333326L249.4146736111111,45.23333333333332L249.60856944444444,21.633333333333326L249.73783333333333,21.633333333333326L249.86709722222224,45.23333333333332L249.9963611111111,9.833333333333343L250.19025694444446,33.43333333333334L250.31952083333334,33.43333333333334L250.51341666666664,21.633333333333326L250.77194444444444,-60.9666666666667L251.289,-1.9666666666666686L251.61215972222223,33.43333333333334L251.67679166666665,57.03333333333333L251.93531944444445,45.23333333333332L252.38774305555555,21.633333333333326L252.9047986111111,-25.566666666666663L253.09869444444445,9.833333333333343L253.2925902777778,-37.366666666666646L253.35722222222222,-25.566666666666663L253.55111805555555,21.633333333333326L253.8742777777778,33.43333333333334L254.26206944444445,-37.366666666666646L254.3267013888889,9.833333333333343L254.58522916666666,-25.566666666666663L254.71449305555555,33.43333333333334L255.1022847222222,-37.366666666666646L255.16691666666665,21.633333333333326L255.29618055555557,-13.766666666666652L255.55470833333334,21.633333333333326L256.00713194444444,-1.9666666666666686L256.3949236111111,92.43333333333332L256.5888194444444,-60.9666666666667L256.9766111111111,9.833333333333343L257.4936666666667,-1.9666666666666686L257.6875625,57.03333333333333L257.8168263888889,21.633333333333326L257.88145833333334,9.833333333333343L258.20461805555556,-37.366666666666646L258.5924097222222,-37.366666666666646L258.65704166666666,9.833333333333343L258.78630555555554,21.633333333333326L259.10946527777776,9.833333333333343L259.7557847222222,33.43333333333334L259.8204166666667,21.633333333333326L260.1435763888889,33.43333333333334L260.2728402777778,-1.9666666666666686L260.33747222222223,9.833333333333343L260.596,9.833333333333343L260.66063194444445,9.833333333333343L260.9191597222222,33.43333333333334L261.0484236111111,21.633333333333326L261.3715833333333,9.833333333333343L261.43621527777776,-13.766666666666652L261.6301111111111,9.833333333333343L261.8886388888889,-37.366666666666646L262.66422222222224,-13.766666666666652L262.7934861111111,45.23333333333332" style="fill: none;" fill="none"></path></g></g></g></g></g></g><g transform="translate(39, 177)" clip-path="url(#clip_1)"><clipPath id="clip_1"><rect width="290" height="23"></rect></clipPath><g><g><line x1="0" y1="0" x2="0" y2="5" style="visibility: inherit;" fill="rgb(0, 0, 0)" stroke="rgb(204, 204, 204)" stroke-width="1px"></line><line x1="32.31597222222222" y1="0" x2="32.31597222222222" y2="5" style="visibility: inherit;" fill="rgb(0, 0, 0)" stroke="rgb(204, 204, 204)" stroke-width="1px"></line><line x1="64.63194444444444" y1="0" x2="64.63194444444444" y2="5" style="visibility: inherit;" fill="rgb(0, 0, 0)" stroke="rgb(204, 204, 204)" stroke-width="1px"></line><line x1="96.94791666666666" y1="0" x2="96.94791666666666" y2="5" style="visibility: inherit;" fill="rgb(0, 0, 0)" stroke="rgb(204, 204, 204)" stroke-width="1px"></line><line x1="129.26388888888889" y1="0" x2="129.26388888888889" y2="5" style="visibility: inherit;" fill="rgb(0, 0, 0)" stroke="rgb(204, 204, 204)" stroke-width="1px"></line><line x1="161.57986111111111" y1="0" x2="161.57986111111111" y2="5" style="visibility: inherit;" fill="rgb(0, 0, 0)" stroke="rgb(204, 204, 204)" stroke-width="1px"></line><line x1="193.89583333333331" y1="0" x2="193.89583333333331" y2="5" style="visibility: inherit;" fill="rgb(0, 0, 0)" stroke="rgb(204, 204, 204)" stroke-width="1px"></line><line x1="226.21180555555557" y1="0" x2="226.21180555555557" y2="5" style="visibility: inherit;" fill="rgb(0, 0, 0)" stroke="rgb(204, 204, 204)" stroke-width="1px"></line><line x1="258.52777777777777" y1="0" x2="258.52777777777777" y2="5" style="visibility: inherit;" fill="rgb(0, 0, 0)" stroke="rgb(204, 204, 204)" stroke-width="1px"></line><line x1="290.84375" y1="0" x2="290.84375" y2="5" style="visibility: inherit;" fill="rgb(0, 0, 0)" stroke="rgb(204, 204, 204)" stroke-width="1px"></line></g><g transform="translate(0, 8)"><text x="0" y="0" dx="0em" dy="0.95em" style="text-anchor: middle; visibility: hidden; font-family: &quot;Helvetica Neue&quot;, sans-serif; font-size: 12px; font-weight: 200;" fill="rgb(50, 49, 63)" stroke="none" stroke-width="1px">-500</text><text x="32.31597222222222" y="0" dx="0em" dy="0.95em" style="text-anchor: middle; visibility: inherit; font-family: &quot;Helvetica Neue&quot;, sans-serif; font-size: 12px; font-weight: 200;" fill="rgb(50, 49, 63)" stroke="none" stroke-width="1px">0</text><text x="64.63194444444444" y="0" dx="0em" dy="0.95em" style="text-anchor: middle; visibility: inherit; font-family: &quot;Helvetica Neue&quot;, sans-serif; font-size: 12px; font-weight: 200;" fill="rgb(50, 49, 63)" stroke="none" stroke-width="1px">500</text><text x="96.94791666666666" y="0" dx="0em" dy="0.95em" style="text-anchor: middle; visibility: inherit; font-family: &quot;Helvetica Neue&quot;, sans-serif; font-size: 12px; font-weight: 200;" fill="rgb(50, 49, 63)" stroke="none" stroke-width="1px">1k</text><text x="129.26388888888889" y="0" dx="0em" dy="0.95em" style="text-anchor: middle; visibility: inherit; font-family: &quot;Helvetica Neue&quot;, sans-serif; font-size: 12px; font-weight: 200;" fill="rgb(50, 49, 63)" stroke="none" stroke-width="1px">1.5k</text><text x="161.57986111111111" y="0" dx="0em" dy="0.95em" style="text-anchor: middle; visibility: inherit; font-family: &quot;Helvetica Neue&quot;, sans-serif; font-size: 12px; font-weight: 200;" fill="rgb(50, 49, 63)" stroke="none" stroke-width="1px">2k</text><text x="193.89583333333331" y="0" dx="0em" dy="0.95em" style="text-anchor: middle; visibility: inherit; font-family: &quot;Helvetica Neue&quot;, sans-serif; font-size: 12px; font-weight: 200;" fill="rgb(50, 49, 63)" stroke="none" stroke-width="1px">2.5k</text><text x="226.21180555555557" y="0" dx="0em" dy="0.95em" style="text-anchor: middle; visibility: inherit; font-family: &quot;Helvetica Neue&quot;, sans-serif; font-size: 12px; font-weight: 200;" fill="rgb(50, 49, 63)" stroke="none" stroke-width="1px">3k</text><text x="258.52777777777777" y="0" dx="0em" dy="0.95em" style="text-anchor: middle; visibility: inherit; font-family: &quot;Helvetica Neue&quot;, sans-serif; font-size: 12px; font-weight: 200;" fill="rgb(50, 49, 63)" stroke="none" stroke-width="1px">3.5k</text><text x="290.84375" y="0" dx="0em" dy="0.95em" style="text-anchor: middle; visibility: hidden; font-family: &quot;Helvetica Neue&quot;, sans-serif; font-size: 12px; font-weight: 200;" fill="rgb(50, 49, 63)" stroke="none" stroke-width="1px">4k</text></g><line x1="0" y1="0" x2="290.84375" y2="0" fill="rgb(0, 0, 0)" stroke="rgb(204, 204, 204)" stroke-width="1px"></line></g></g></g></g></svg>