<svg viewBox="0 0 330 200" xmlns="http://www.w3.org/2000/svg"><g><g><g><g><g><line x1="39.109375" y1="177" x2="34.109375" y2="177" style="visibility: inherit;" fill="rgb(0, 0, 0)" stroke="rgb(204, 204, 204)" stroke-width="1px"></line><line x1="39.109375" y1="154.875" x2="34.109375" y2="154.875" style="visibility: inherit;" fill="rgb(0, 0, 0)" stroke="rgb(204, 204, 204)" stroke-width="1px"></line><line x1="39.109375" y1="132.75" x2="34.109375" y2="132.75" style="visibility: inherit;" fill="rgb(0, 0, 0)" stroke="rgb(204, 204, 204)" stroke-width="1px"></line><line x1="39.109375" y1="110.625" x2="34.109375" y2="110.625" style="visibility: inherit;" fill="rgb(0, 0, 0)" stroke="rgb(204, 204, 204)" stroke-width="1px"></line><line x1="39.109375" y1="88.5" x2="34.109375" y2="88.5" style="visibility: inherit;" fill="rgb(0, 0, 0)" stroke="rgb(204, 204, 204)" stroke-width="1px"></line><line x1="39.109375" y1="66.375" x2="34.109375" y2="66.375" style="visibility: inherit;" fill="rgb(0, 0, 0)" stroke="rgb(204, 204, 204)" stroke-width="1px"></line><line x1="39.109375" y1="44.25" x2="34.109375" y2="44.25" style="visibility: inherit;" fill="rgb(0, 0, 0)" stroke="rgb(204, 204, 204)" stroke-width="1px"></line><line x1="39.109375" y1="22.125" x2="34.109375" y2="22.125" style="visibility: inherit;" fill="rgb(0, 0, 0)" stroke="rgb(204, 204, 204)" stroke-width="1px"></line><line x1="39.109375" y1="0" x2="34.109375" y2="0" style="visibility: inherit;" fill="rgb(0, 0, 0)" stroke="rgb(204, 204, 204)" stroke-width="1px"></line></g><g transform="translate(29.109375, 0)"><text x="0" y="177" dx="0em" dy="0.3em" style="text-anchor: end; visibility: hidden; font-family: &quot;Helvetica Neue&quot;, sans-serif; font-size: 12px; font-weight: 200;" fill="rgb(50, 49, 63)" stroke="none" stroke-width="1px">4.5</text><text x="0" y="154.875" dx="0em" dy="0.3em" style="text-anchor: end; visibility: inherit; font-family: &quot;Helvetica Neue&quot;, sans-serif; font-size: 12px; font-weight: 200;" fill="rgb(50, 49, 63)" stroke="none" stroke-width="1px">5</text><text x="0" y="132.75" dx="0em" dy="0.3em" style="text-anchor: end; visibility: hidden; font-family: &quot;Helvetica Neue&quot;, sans-serif; font-size: 12px; font-weight: 200;" fill="rgb(50, 49, 63)" stroke="none" stroke-width="1px">5.5</text><text x="0" y="110.625" dx="0em" dy="0.3em" style="text-anchor: end; visibility: inherit; font-family: &quot;Helvetica Neue&quot;, sans-serif; font-size: 12px; font-weight: 200;" fill="rgb(50, 49, 63)" stroke="none" stroke-width="1px">6</text><text x="0" y="88.5" dx="0em" dy="0.3em" style="text-anchor: end; visibility: hidden; font-family: &quot;Helvetica Neue&quot;, sans-serif; font-size: 12px; font-weight: 200;" fill="rgb(50, 49, 63)" stroke="none" stroke-width="1px">6.5</text><text x="0" y="66.375" dx="0em" dy="0.3em" style="text-anchor: end; visibility: inherit; font-family: &quot;Helvetica Neue&quot;, sans-serif; font-size: 12px; font-weight: 200;" fill="rgb(50, 49, 63)" stroke="none" stroke-width="1px">7</text><text x="0" y="44.25" dx="0em" dy="0.3em" style="text-anchor: end; visibility: hidden; font-family: &quot;Helvetica Neue&quot;, sans-serif; font-size: 12px; font-weight: 200;" fill="rgb(50, 49, 63)" stroke="none" stroke-width="1px">7.5</text><text x="0" y="22.125" dx="0em" dy="0.3em" style="text-anchor: end; visibility: inherit; font-family: &quot;Helvetica Neue&quot;, sans-serif; font-size: 12px; font-weight: 200;" fill="rgb(50, 49, 63)" stroke="none" stroke-width="1px">8</text><text x="0" y="0" dx="0em" dy="0.3em" style="text-anchor: end; visibility: hidden; font-family: &quot;Helvetica Neue&quot;, sans-serif; font-size: 12px; font-weight: 200;" fill="rgb(50, 49, 63)" stroke="none" stroke-width="1px">8.5</text></g><line x1="39.109375" y1="0" x2="39.109375" y2="177" fill="rgb(0, 0, 0)" stroke="rgb(204, 204, 204)" stroke-width="1px"></line></g></g><g transform="translate(39, 0)" clip-path="url(#clip_0)"><clipPath id="clip_0"><rect width="290" height="177"></rect></clipPath><g><g><g><line x1="0" y1="0" x2="0" y2="177" fill="rgb(0, 0, 0)" stroke="rgb(60, 60, 60)" stroke-width="1px" opacity="0.25"></line><line x1="29.0890625" y1="0" x2="29.0890625" y2="177" fill="rgb(0, 0, 0)" stroke="rgb(60, 60, 60)" stroke-width="1px" opacity="0.25"></line><line x1="58.178125" y1="0" x2="58.178125" y2="177" fill="rgb(0, 0, 0)" stroke="rgb(60, 60, 60)" stroke-width="1px" opacity="0.25"></line><line x1="87.26718749999999" y1="0" x2="87.26718749999999" y2="177" fill="rgb(0, 0, 0)" stroke="rgb(60, 60, 60)" stroke-width="1px" opacity="0.25"></line><line x1="116.35625" y1="0" x2="116.35625" y2="177" fill="rgb(0, 0, 0)" stroke="rgb(60, 60, 60)" stroke-width="1px" opacity="0.25"></line><line x1="145.4453125" y1="0" x2="145.4453125" y2="177" fill="rgb(0, 0, 0)" stroke="rgb(60, 60, 60)" stroke-width="1px" opacity="0.25"></line><line x1="174.53437499999998" y1="0" x2="174.53437499999998" y2="177" fill="rgb(0, 0, 0)" stroke="rgb(60, 60, 60)" stroke-width="1px" opacity="0.25"></line><line x1="203.6234375" y1="0" x2="203.6234375" y2="177" fill="rgb(0, 0, 0)" stroke="rgb(60, 60, 60)" stroke-width="1px" opacity="0.25"></line><line x1="232.7125" y1="0" x2="232.7125" y2="177" fill="rgb(0, 0, 0)" stroke="rgb(60, 60, 60)" stroke-width="1px" opacity="0.25"></line><line x1="261.8015625" y1="0" x2="261.8015625" y2="177" fill="rgb(0, 0, 0)" stroke="rgb(60, 60, 60)" stroke-width="1px" opacity="0.25"></line><line x1="290.890625" y1="0" x2="290.890625" y2="177" fill="rgb(0, 0, 0)" stroke="rgb(60, 60, 60)" stroke-width="1px" opacity="0.25"></line></g><g><line x1="0" y1="177" x2="290.890625" y2="177" fill="rgb(0, 0, 0)" stroke="rgb(60, 60, 60)" stroke-width="1px" opacity="0.25"></line><line x1="0" y1="154.875" x2="290.890625" y2="154.875" fill="rgb(0, 0, 0)" stroke="rgb(60, 60, 60)" stroke-width="1px" opacity="0.25"></line><line x1="0" y1="132.75" x2="290.890625" y2="132.75" fill="rgb(0, 0, 0)" stroke="rgb(60, 60, 60)" stroke-width="1px" opacity="0.25"></line><line x1="0" y1="110.625" x2="290.890625" y2="110.625" fill="rgb(0, 0, 0)" stroke="rgb(60, 60, 60)" stroke-width="1px" opacity="0.25"></line><line x1="0" y1="88.5" x2="290.890625" y2="88.5" fill="rgb(0, 0, 0)" stroke="rgb(60, 60, 60)" stroke-width="1px" opacity="0.25"></line><line x1="0" y1="66.375" x2="290.890625" y2="66.375" fill="rgb(0, 0, 0)" stroke="rgb(60, 60, 60)" stroke-width="1px" opacity="0.25"></line><line x1="0" y1="44.25" x2="290.890625" y2="44.25" fill="rgb(0, 0, 0)" stroke="rgb(60, 60, 60)" stroke-width="1px" opacity="0.25"></line><line x1="0" y1="22.125" x2="290.890625" y2="22.125" fill="rgb(0, 0, 0)" stroke="rgb(60, 60, 60)" stroke-width="1px" opacity="0.25"></line><line x1="0" y1="0" x2="290.890625" y2="0" fill="rgb(0, 0, 0)" stroke="rgb(60, 60, 60)" stroke-width="1px" opacity="0.25"></line></g></g></g><g><g><line x1="0" y1="376.125" x2="290.890625" y2="376.125" fill="rgb(0, 0, 0)" stroke="rgb(153, 153, 153)" stroke-width="1.5px"></line></g></g><g><g><line x1="29.0890625" y1="0" x2="29.0890625" y2="177" fill="rgb(0, 0, 0)" stroke="rgb(153, 153, 153)" stroke-width="1.5px"></line></g></g><g><g><g><g><g><path stroke="rgb(51, 187, 238)" stroke-width="2px" d="M29.0890625,41.81617319583893L51.40190061328125,51.75876724720001L81.02219403689234,58.33263373374939L127.00632140190974,60.213871479034424L208.19122026171874,63.712870717048645" style="fill: none;" fill="none"></path></g><g><path stroke="rgb(204, 51, 17)" stroke-width="2px" d="M30.64466475954861,-37.128355264663696L30.78184393012153,32.311805963516235L30.90682993532986,31.24551522731781L31.042296083333333,-58.68036246299744L31.295500211805553,-35.020334243774414L31.41327859375,7.923573017120361L31.545981280815973,70.06067132949829L31.667072583767364,10.562428951263428L31.800195446180552,-31.55701518058777L31.931993140190972,-20.09268593788147L32.05162190972222,13.976922512054443L32.166418662760414,-0.5718533992767334L32.27949431293403,8.230958461761475L32.41958238975695,58.10530185699463L32.538766743055554,22.18851113319397L32.65663400824653,8.524671077728271L32.77696576345486,28.51008439064026L32.89355634201389,31.40880846977234L33.00941161371528,30.42311990261078L33.12627692230903,7.5810770988464355L33.241332244791664,21.895304918289185L33.37531969878473,1.8406834602355957L33.50826479470486,1.053314208984375L33.623336277777774,36.33524680137634L33.73627456293403,10.459924936294556L33.86866211848959,2.852092981338501L34.00097695138889,13.498795509338379L34.11226685633681,24.930039882659912L34.224203184895835,20.165481090545654L34.35743917144097,13.624298572540283L34.489939851128476,18.399407386779785L34.604518436197914,33.13783049583435L34.730037740885415,57.41298830509186L34.861811194010414,23.162425875663757L34.99208171223958,24.54494297504425L35.109746970052086,31.160946249961853L35.225198226996525,43.99627196788788L35.34835808550347,23.116132378578186L35.465894058593754,54.85494554042816L35.599235088975696,24.268912196159363L35.716124638454865,32.08116137981415L35.83021840581597,45.370264649391174L35.96380184505209,35.51616418361664L36.080158095052084,37.02340364456177L36.19586792144097,32.85523760318756L36.333539990017364,25.585787057876587L36.45210216059028,54.984668612480164L36.56311733550347,43.86511409282684L36.69854308203125,22.19800615310669L36.814826609375004,48.074952721595764L36.947658581163196,37.249596118927L37.084352934027784,30.91578483581543L37.208999566840276,75.85660028457642L37.25908931640625,7.032349348068237L37.37559909201389,58.220107197761536L37.50839874262153,35.80266058444977L37.63845917317708,47.18689405918121L37.75084799826389,65.74031066894531L37.898135618055555,126.8106540441513L38.02715369053819,79.86569309234619L38.16013918793403,32.17068886756897L38.27790948958333,43.94961977005005L38.40664475173612,47.24076247215271L38.54182808940973,70.5429550409317L38.674353009982646,44.68466091156006L38.78258048307291,47.27566194534302L38.91318229340278,43.52702808380127L39.02907796657987,68.20604074001312L39.14817343663194,76.0202522277832L39.28204776649305,40.22586286067963L39.40649239192709,73.41446006298065L39.5390173125,58.66850423812866L39.67408752604167,42.70999217033386L39.794782894531245,50.017380595207214L39.928422895833336,47.404308915138245L40.046274000434025,53.970895886421204L40.16437559418402,43.67449629306793L40.29658538324653,43.77419400215149L40.42010885503473,75.91787481307983L40.553546848958334,61.19247043132782L40.68288005295139,89.57549035549164L40.81113857769097,69.49717354774475L40.9276887547743,61.954920530319214L41.068706065538194,30.431285619735718L41.19695650998264,68.6094102859497L41.327639123263886,54.21791410446167L41.4565683125,54.75389742851257L41.598159324218756,36.33512020111084L41.71541248697916,66.26637697219849L41.832261634982636,67.4681088924408L41.94595946788194,71.34642362594604L42.06877187369792,88.30096328258514L42.185305890190975,68.99220728874207L42.320214497829866,54.0095933675766L42.437960558593744,60.57634913921356L42.55448649479167,74.11109912395477L42.68150065407986,69.875159740448L42.80962181380208,63.079362988471985L42.92172782855903,67.27044367790222L43.058939320312504,127.8909763097763L43.170027217881945,62.7213796377182L43.284945175347225,70.50666296482086L43.40318413411458,98.95285642147064L43.537211989583334,42.082223653793335L43.65464291883681,66.54407465457916L43.78059855946181,81.62988889217377L43.91074787326389,65.49763906002045L44.023589194878475,55.54204738140106L44.145844060329864,112.2349544763565L44.260123674479175,73.05341720581055L44.379380750434024,90.02850830554962L44.49509865711806,77.27028214931488L44.63192229470486,100.9710967540741L44.74387478385417,73.26049304008484L44.86980618359375,108.3949785232544L44.98555641145834,68.83264875411987L45.104765005642356,95.83334147930145L45.219505196614584,82.08624064922333L45.357718644965274,46.777911901474L45.47594144314236,68.89575898647308L45.59293603645833,74.55968606472015L45.721978349826394,58.76216733455658L45.83991025737846,66.39219653606415L45.956112981770836,80.26450502872467L46.08454927300347,71.48726642131805L46.225340335503475,39.265135645866394L46.340904716579864,66.98599398136139L46.468387532986114,88.41294121742249L46.58772541189236,83.23978006839752L46.72436320269097,51.02070879936218L46.84071137239583,67.51836919784546L46.95653432291667,92.58015775680542L47.07179973307292,78.40396642684937L47.188366070746525,79.89557075500488L47.322668656249995,51.35968101024628L47.440059184027774,68.72474312782288L47.57841807769097,51.91522407531738L47.69508945920139,92.70888912677765L47.82083501215278,75.52406358718872L47.93818513845486,80.79633164405823L48.07273821310764,69.96434962749481L48.20787306901042,57.18025481700897L48.323590975694444,90.02038478851318L48.44464187717014,91.77468466758728L48.56056987152777,97.49615156650543L48.67821896875,75.65013635158539L48.81066308637153,85.54930651187897L48.93882464756944,66.80130529403687L49.06231579817709,131.52676713466644L49.18461106510417,70.86540591716766L49.30537107595487,92.5060966014862L49.42758553993056,69.36181676387787L49.534180793402776,78.32855486869812L49.667465261718746,60.34867966175079L49.796507575086814,98.4153116941452L49.93078591970486,75.10995411872864L50.05819601345487,90.71014523506165L50.1950681328125,50.81017255783081L50.32931415625,67.29920303821564L50.46234005512153,60.12854290008545L50.59442863975695,123.97387969493866L50.7247395594618,73.03145205974579L50.84625103776041,75.97577333450317L50.97362881032986,92.64812099933624L51.09353230989583,103.91149342060089L51.21652248220486,83.13257074356079L51.34512845963542,111.1066929101944L51.478938147135416,56.102591156959534L51.4790997530382,56.102591156959534L51.69021362413194,130.43762505054474L51.81258161371528,93.82197976112366L51.939280641493056,96.78735888004303L52.066755377604174,105.75390708446503L52.207998936631945,57.628968358039856L52.34251160980904,88.86218225955963L52.475068851562504,66.03461408615112L52.6025839891493,83.5110000371933L52.734971544704855,73.89018166065216L52.87541515451389,105.29728102684021L53.01684456032986,87.77970778942108L53.16569975737847,147.47361087799072L53.3056019874132,118.73003339767456L53.44279731857639,141.59984385967255L53.5742394796007,93.05716645717621L53.69815080555556,78.69892394542694L53.831895850694444,74.68362772464752L53.949447984375,82.48939919471741L54.065852716145834,113.6069848537445L54.19199420355903,98.31863129138947L54.32279802126737,75.1106926202774L54.44220862282986,102.42626130580902L54.555138827690975,83.64101850986481L54.68917476345486,58.55943810939789L54.82306525390625,71.72329151630402L54.932036114149305,80.7088508605957L55.04558850173611,104.82508313655853L55.16219524088541,102.4509905576706L55.278018191406254,94.11343467235565L55.389978760850695,76.83973574638367L55.50783794574653,103.938037276268L55.63816502604166,80.88090062141418L55.77271810069445,63.04465341567993L55.90537230598959,75.11740243434906L56.03820427777777,71.26588475704193L56.16867680338542,75.03557646274567L56.277825430121524,80.39667570590973L56.38897797005208,79.12204313278198L56.51357612109375,94.47255742549896L56.642400266493055,105.32880449295044L56.75545975607639,73.29250180721283L56.88971385980903,119.56553184986115L57.02470327039931,67.06098353862762L57.15361629904514,80.26011621952057L57.2717098125,77.01830542087555L57.40536597439235,79.83895933628082L57.52684513151042,124.09423434734344L57.64998882942708,115.39238619804382L57.76601378732639,99.832306265831L57.89838518229167,99.1327131986618L58.033730125868054,63.86344063282013L58.15974232855903,129.51745212078094L58.275484476128476,98.80690741539001L58.39239018619791,96.46676480770111L58.51933162282987,111.64269733428955L58.63533233984375,94.0962381362915L58.768721851996524,71.247021317482L58.903024437499994,67.32448089122772L59.018855468315984,74.09158158302307L59.152083374565976,71.02595615386963L59.27075866927084,93.50326359272003L59.40645106553819,63.67113482952118L59.533901560763894,105.33905911445618L59.651445614149296,73.17193615436554L59.7714137560764,114.14330577850342L59.90450429730903,71.63026142120361L60.022759416666666,71.53763222694397L60.163267668836795,65.20046603679657L60.292019091579846,89.76275324821472L60.41932414149306,73.56680238246918L60.53581775651042,82.02414321899414L60.65375774435765,81.54253470897675L60.773434995659734,100.59399676322937L60.90107941796875,106.27440297603607L61.016999332031254,94.99596512317657L61.13296772786458,106.14451110363007L61.26085455902777,84.07635462284088L61.3782531671007,82.64769172668457L61.49678301649305,121.28676795959473L61.613818011284714,91.11167907714844L61.73147518880207,88.36274421215057L61.843637765625,91.32620322704315L61.955671057725695,92.58176136016846L62.092809826822915,66.74032616615295L62.2297546688368,122.71893346309662L62.3434929032118,94.98429679870605L62.468260740451385,125.13389682769775L62.58637041449652,81.46121513843536L62.712075565972214,90.92167317867279L62.83930789322916,70.58931183815002L62.953579427083326,89.88578760623932L63.07606862109375,133.68494296073914L63.19004118402777,84.53158807754517L63.31819466493055,85.27755904197693L63.4395687782118,107.65983188152313L63.56705159461806,107.15102541446686L63.679917157118055,95.18126571178436L63.81838917491319,68.449387550354L63.94690626909723,75.42683458328247L64.08124925607639,67.8353762626648L64.20746346614584,95.16299307346344L64.34007726996528,94.74799740314484L64.45586789930555,83.43250787258148L64.57154540451388,97.27947521209717L64.70401376302082,72.46865057945251L64.82070938541668,101.77604234218597L64.95116575043403,80.97654712200165L65.08699551171875,68.15765833854675L65.20226092187501,97.43567883968353L65.31921511371527,83.40560531616211L65.4421406436632,98.74518978595734L65.55688891493055,96.32725131511688L65.67606518793403,113.12176823616028L65.80883251736111,76.14252698421478L65.94486428602431,119.93625962734222L66.07360762847223,84.52882397174835L66.18973763020833,87.63449728488922L66.32324026649306,93.77174055576324L66.43882080815972,89.77984428405762L66.55463567838542,82.98436403274536L66.67663197439236,88.87401938438416L66.7937639327257,81.72251808643341L66.90865764930555,106.42132258415222L67.02914293012152,95.75596761703491L67.15853269618054,122.59528720378876L67.28469842447916,96.72684395313263L67.40505442057292,83.84104692935944L67.52786682638889,90.20049476623535L67.63451056163194,92.69914090633392L67.76536286111111,74.63294541835785L67.89387995529513,89.94505763053894L68.0219687938368,85.06126248836517L68.15918836588541,160.80257213115692L68.27820303298611,78.79279804229736L68.4147761814236,74.15416431427002L68.52864370052083,83.99891746044159L68.64540396527778,114.36928725242615L68.78502338498262,65.42475950717926L68.90778730902777,103.14509761333466L69.03552869487847,69.91362512111664L69.15067290060763,101.26250946521759L69.27910111154513,78.4700939655304L69.39624923046875,103.23909831047058L69.50947032595487,93.99204611778259L69.64491223307292,113.25974142551422L69.76560760156251,107.94480907917023L69.87826307638888,90.28525364398956L69.99638891102431,81.08470594882965L70.11757717751738,110.72092080116272L70.24960111979166,139.62078630924225L70.3622889157986,102.8463842868805L70.41258875303821,64.138711810112L70.5292197330729,93.75886952877045L70.65840749175347,78.36332774162292L70.78654481206598,86.46815013885498L70.9016405360243,96.98863220214844L71.02247326953126,93.933788895607L71.15171759027777,81.71884667873383L71.26405793359376,98.1860808134079L71.39463550303819,161.10750997066498L71.50696776605903,101.71487331390381L71.64028455555555,71.37176477909088L71.76771080989583,94.38488674163818L71.89345636284723,119.49731540679932L72.02416321701389,78.42160606384277L72.13987304340277,90.80150842666626L72.27103239409722,76.11385202407837L72.40797723611111,71.02325534820557L72.5245193328993,88.19637036323547L72.65647863281251,79.31462323665619L72.76503739800347,83.80502915382385L72.90139237847222,71.05216240882874L73.02969938498264,83.8720006942749L73.13957523828125,82.43869578838348L73.26965182942708,113.12153613567352L73.41110547612847,190.9320638179779L73.54072957074654,80.65624845027924L73.67203436675348,74.19566810131073L73.78699272569445,88.13714253902435L73.78716241189237,88.13714253902435L74.00680099435765,79.25168180465698L74.1375078485243,94.02586948871613L74.25709621657985,92.50381779670715L74.38097522135416,106.10096061229706L74.50238165581597,102.59124255180359L74.62383657204862,80.52768588066101L74.74330373567709,115.74003052711487L74.86943714279515,99.18968331813812L75.00670519661459,148.45710504055023L75.11890009461807,97.75910031795502L75.2336645264757,100.69424307346344L75.35399628168403,125.22696912288666L75.48365269748264,63.24077832698822L75.61401209895833,77.52016997337341L75.7328166783854,115.82856631278992L75.84868811067707,88.85823655128479L75.96117389930556,102.38222551345825L76.07524342578125,89.54312288761139L76.19706195529513,97.76232862472534L76.3296191970486,81.00741648674011L76.44993479166666,102.0665477514267L76.58699275781251,83.69845283031464L76.6936849748264,97.91102063655853L76.8301369188368,85.5226993560791L76.95524412847223,140.26178455352783L77.07228720355903,90.7018951177597L77.18738292751736,102.6911723613739L77.29725878081598,88.2623291015625L77.42833732855902,85.22858583927155L77.54683485677084,80.96228349208832L77.67426111111111,108.72557401657104L77.79045575520833,104.17773377895355L77.91193491232639,133.82717835903168L78.02301472960069,85.90644586086273L78.15109548784723,79.54877042770386L78.27544314973959,90.01074206829071L78.40484099609375,128.67385125160217L78.52342740755208,128.7997341156006L78.65391609375,168.17933750152588L78.78366139279514,77.6532690525055L78.91020689496528,86.41858613491058L79.03140324175348,116.91777169704437L79.14730699522569,112.43749380111694L79.26397029644097,104.4151303768158L79.38582114713542,90.62766516208649L79.52018029470486,148.44750452041626L79.64826913324652,93.36212539672852L79.76417288671875,83.40666031837463L79.87876763237848,119.4489119052887L80.0099835451389,86.46190452575684L80.13266666623264,86.98176741600037L80.24186377473958,92.55371940135956L80.36233289496526,100.13220119476318L80.48728657899305,135.96408534049988L80.60243078472223,114.80780947208405L80.71730026041668,93.53297245502472L80.83822187717014,99.45748507976532L80.95322871788196,97.26744818687439L81.08675559505208,80.58775770664215L81.21810887282984,86.49380779266357L81.35965140277779,117.5258538722992L81.49289546961806,86.18475544452667L81.61332418836805,91.1816257238388L81.72237585156249,92.83169138431549L81.84820220746529,99.35801947116852L81.99725133159723,110.75725507736206L82.12862885026043,86.36233341693878L82.26967040190974,89.3686466217041L82.38938805468749,102.2284483909607L82.52474107855902,125.39667677879333L82.65295920182291,88.30782079696655L82.79323312543403,104.53696203231812L82.93897740885416,85.388671875L83.08988500086807,117.42784416675568L83.24706290190973,95.2910281419754L83.3879105264757,83.94589304924011L83.57833076171876,116.31239032745361L83.73672878732638,114.66652357578278L83.90938045355902,100.62303042411804L84.14829862022569,103.95164680480957L84.34073084895833,78.85514867305756L84.5503902669271,77.36881935596466L84.77212972612848,90.94032561779022L84.93644252777777,101.93431377410889L85.06862807595485,147.6110143661499L85.19995711284723,138.53527343273163L85.40214225781249,80.0213270187378L85.5385699609375,132.0672869682312L85.6859464639757,132.5679066181183L85.8795745763889,97.98784589767456L86.02443002734375,114.15400350093842L86.18357144010416,107.32408797740936L86.34609041623264,124.45660650730133L86.49318410894098,91.29841446876526L86.6843477313368,91.74254930019379L86.93153203993054,68.50169456005096L87.10779559809029,99.27425229549408L87.2662501857639,95.84965181350708L87.45456954427083,93.06210386753082L87.61598151996529,109.86514520645142L87.78974826692709,93.09056782722473L87.95258237456598,118.73271310329437L88.21532125130209,83.206463098526L88.4827386189236,87.14997696876526L88.74946916145834,90.37815713882446L89.02860295703125,111.69053113460541L89.27563374001735,103.57878792285919L89.55138189192708,111.77493131160736L89.72388003255209,143.7133719921112L89.91617489626735,96.5200424194336L90.09852291666665,128.65663361549377L90.26803134809029,114.03493595123291L90.41495535460069,119.15245628356934L90.60937533593751,96.91866445541382L90.79800174565972,90.11744499206543L91.06064365885416,77.37692177295685L91.25495051605904,90.93924951553345L91.4230610564236,153.8719882965088L91.62405839800347,82.95482397079468L91.7951263263889,96.36890280246735L91.96128143532985,77.43144428730011L92.16210101041668,113.6672465801239L92.23934863194444,86.74211311340332L92.39419132769098,91.47837674617767L92.58450651909722,104.71508860588074L92.73404854123262,118.241082072258L92.93917491362848,92.80356502532959L93.11679596137152,144.99648678302765L93.29578257899306,110.94565737247467L93.48297069618056,94.279492020607L93.67400503385416,107.58606612682343L93.8754144704861,116.06619501113892L94.10046685069445,101.66372680664062L94.2872913546007,98.01698505878448L94.49119760243055,84.62364757061005L94.69862685894098,79.13919746875763L94.86832113715278,129.71298623085022L95.07685739409722,101.55594778060913L95.27676389583333,128.41461610794067L95.48374065581598,85.79583942890167L95.6755911032986,107.47862470149994L95.89615083940971,75.06444132328033L96.07810292534722,95.97416317462921L96.27183608159721,97.77306854724884L96.45956557855902,96.54316806793213L96.65338761805556,98.3288015127182L96.79062335069443,161.02382719516754L96.9985778263889,84.23395085334778L97.17843711588542,120.63732969760895L97.41874509331598,67.53126132488251L97.61697897395834,109.10569131374359L97.82585460329861,114.89486825466156L98.03118298307291,91.19956076145172L98.2484782799479,124.89175271987915L98.4606183485243,96.96248924732208L98.67978827387152,106.9733419418335L98.87333558333334,88.80550754070282L99.07305623828125,127.81803345680237L99.22068323046875,199.80126696825027L99.41665462847223,91.34346306324005L99.62083560633681,109.96328151226044L99.84188016015625,91.34316766262054L100.05273546180555,119.07605302333832L100.26357460286458,112.96666181087494L100.46756973394096,81.12220072746277L100.67907953949653,75.78078782558441L100.89919485937502,108.60965037345886L101.08610016623264,104.91726922988892L101.26915925260417,103.56785809993744L101.46602756336806,100.43241262435913L101.66291203472223,99.59024655818939L101.87388046050347,115.0347193479538L102.06967409201388,86.06676399707794L102.28688050564234,119.59310960769653L102.52490175954861,103.1251369714737L102.73713071137152,97.63315415382385L102.94462461024305,92.8945906162262L103.16091795052083,76.9337786436081L103.3670058780382,96.9586490392685L103.36718364453125,96.9586490392685L103.7151615546875,119.83744812011719L103.92537851302083,122.09489965438843L104.07504173958333,176.31747686862946L104.31482449782986,138.41196477413177L104.53700029296876,96.17931890487671L104.75060289496528,88.48421716690063L104.96574883333332,114.70775306224823L105.19518073350694,123.83837521076202L105.42964665755208,107.22428476810455L105.64055044097222,131.14312613010406L105.86136066623263,125.35878109931946L106.0541080264757,122.8264170885086L106.30336897092013,97.58888626098633L106.50898824131944,103.83276915550232L106.74305823090278,86.91291797161102L106.93034331163194,132.13109350204468L107.15706023263888,101.97849726676941L107.34897532248264,122.99013233184814L107.56218199001735,110.91502010822296L107.80656243619792,135.4222573041916L108.04939954600694,118.40287721157074L108.28409979861112,119.99757635593414L108.4812994014757,112.09187507629395L108.69133859331598,100.82635045051575L108.94029248654513,100.64326536655426L109.17563108246527,106.06019532680511L109.42707370659723,120.48118937015533L109.660820484375,99.35671126842499L109.9007810091146,89.8630839586258L110.16364917057291,125.65774762630463L110.38901668229165,98.35348856449127L110.59415921527778,119.4644204378128L110.77608706032986,139.96990764141083L110.95751392708333,185.45487213134766L111.21297245789931,86.08545863628387L111.47356197612848,79.69324243068695L111.72909322960069,121.77922189235687L111.95787062586807,92.37046551704407L112.19914015842014,95.47660303115845L112.41625768880208,109.79209685325623L112.63018350260417,108.43508970737457L112.8752426935764,116.71976888179779L113.13838558506946,80.92757391929626L113.35690908680556,124.33783435821533L113.59465561067708,87.28940606117249L113.81191858637152,110.36717855930328L114.03515290017361,126.6484580039978L114.27726278342014,92.68966698646545L114.47972265842014,141.4182779788971L114.71616017447916,108.41500246524811L114.91845844357638,120.07615292072296L115.16148948046876,106.19496130943298L115.35569129383681,107.80668818950653L115.56538303298612,139.11645305156708L115.79757031380208,89.54533839225769L116.04294463628472,100.99998271465302L116.27934175086806,85.93484652042389L116.54498145355905,104.02973806858063L116.75333186371529,151.2985635995865L116.97891754340276,108.01779413223267L117.21019175086806,109.85870969295502L117.42044911067708,142.84219336509705L117.6403058611111,98.0887041091919L117.83800644227429,150.18224465847015L118.0806738658854,98.09501302242279L118.35950061024306,85.45422971248627L118.65276684201389,88.89655423164368L118.90202778645833,122.4499922990799L119.07640863585068,166.96021914482117L119.34166048437498,111.77619731426239L119.56879758072915,90.48642146587372L119.81933521180555,108.58618712425232L120.09930127777777,103.5142217874527L120.33918099956597,96.31528759002686L120.55605612109375,91.90970385074615L120.80854110329861,89.1396267414093L121.07282331640626,112.86156249046326L121.3189087048611,122.25182068347931L121.52001917057292,128.01320886611938L121.71221707074655,127.92325937747955L121.92078564887153,112.71732258796692L122.17546847135416,107.38856971263885L122.43477322265626,131.83432137966156L122.70013011501737,118.09684216976166L122.78532874696181,83.184561252594L123.06298384852431,113.20779311656952L123.33823910243055,117.37363815307617L123.5943602174479,132.73132646083832L123.85753543012153,89.52491354942322L124.11909458376735,108.5096572637558L124.38045981032987,125.10612916946411L124.64524300173609,97.21368527412415L124.88972041145831,83.63112258911133L125.19673122526041,85.08225703239441L125.50717616449653,112.94243896007538L125.85411171657985,100.28707551956177L126.13116079600692,87.72695767879486L126.36446315755207,92.18961703777313L126.62237809809028,91.56976103782654L126.87457218967012,105.1111786365509L127.1499324874132,97.44603896141052L127.40441330251734,104.25154173374176L127.66437255772568,104.10816693305969L127.94169636718749,105.2319974899292L128.23339502170137,85.5030130147934L128.51090467795137,110.92263722419739L128.75578610243056,128.62177634239197L129.00617828819446,97.9790049791336L129.2508900264757,105.81239640712738L129.47912604296874,104.27272617816925L129.68713708072917,140.75105237960815L129.9045212608507,131.1702185869217L130.119158140625,117.91776609420776L130.3753681388889,122.5580245256424L130.6365475186632,129.7083864212036L130.91505913151042,91.05548965930939L131.21936304644098,95.46027159690857L131.48151206163192,119.22972464561462L131.7402027105035,94.04272842407227L131.99431183203126,146.11468362808228L132.25041678645835,94.25334906578064L132.48539984939237,110.83827924728394L132.7210293359375,141.80459868907928L132.96215342317709,109.5920262336731L133.15709054340277,140.49681794643402L133.3987640907118,82.56869316101074L133.66742582378473,107.91685152053833L133.94255179296874,106.26383185386658L134.2140093081597,130.9003701210022L134.48346291015622,108.50151264667511L134.75637487847226,111.43123269081116L135.0670460659722,99.30942606925964L135.33279889279513,105.62188410758972L135.6270105190972,113.54448652267456L135.88727682552084,153.49558460712433L136.20199624088542,107.22314536571503L136.5383223654514,103.0927484035492L136.8471270047743,108.04484438896179L137.1714458107639,96.88779509067535L137.45058768663196,84.64029550552368L137.78779456336807,144.18894588947296L138.0900784045139,98.45282757282257L138.4322223415799,132.15696215629578L138.80032018663192,115.91108858585358L139.06704264887153,183.73760282993317L139.36788819748264,130.65573620796204L139.6900657252604,86.00901317596436L140.05102058940975,102.71484661102295L140.33430765668402,101.53332853317261L140.64275676302086,99.73632216453552L140.87410369314236,217.93962460756302L141.17421393489582,119.05284297466278L141.42508285807293,166.70104730129242L141.69935231597222,75.60251355171204L141.98204144140624,107.33773970603943L142.27396634418403,100.93294787406921L142.5996749609375,123.05225086212158L142.89813682248266,106.41957128047943L143.15534877734376,96.58648645877838L143.43036970269097,101.90981662273407L143.69293081293404,96.05107283592224L143.95708374131945,99.14168071746826L144.26840135243054,111.30391502380371L144.5843004908854,134.1051081418991L144.93474289105902,119.65335023403168L145.27682218576388,125.11425268650055L145.57789398263887,132.9462515115738L145.91677348046878,112.05522429943085L146.23474117447915,98.17375838756561L146.52493689409724,94.19658994674683L146.8267924796007,155.83792161941528L147.14111596050347,88.45408630371094L147.44697129210073,106.21424674987793L147.75411947092013,89.9971536397934L148.02254687543402,161.55111730098724L148.300638312934,117.62780928611755L148.638128,92.34746646881104L148.98937034939237,96.98749279975891L149.32849225607637,104.60595917701721L149.32870234375,104.60595917701721L149.78673387369793,138.043958902359L150.1674450594618,115.66529417037964L150.5100738142361,110.84505236148834L150.85636294270833,105.26271915435791L151.1641817860243,146.02097833156586L151.47550747743057,160.84194481372833L151.8480737256944,115.77695560455322L152.20520661024307,118.10129427909851L152.5869278328993,120.89635384082794L152.8727197916667,171.20890295505524L153.23084655251736,129.20401096343994L153.62355697656253,114.56060135364532L154.01457861892362,90.85687494277954L154.3719135108507,180.8951314687729L154.72309121788194,118.72619318962097L155.0576315972222,128.56375122070312L155.42105095138888,198.28458523750305L155.80494577343748,140.67724442481995L156.14666953515626,97.79393649101257L156.53928299565973,116.88618493080139L156.9376577065972,94.3599464893341L157.34050082074654,101.90992212295532L157.71554771961806,149.6286427974701L158.06350946918403,240.73769491910934L158.50667325607637,125.43077445030212L158.8292063168403,120.19100046157837L159.1699038810764,110.52376198768616L159.5547683385417,108.604776263237L159.92070066449654,99.80806231498718L160.23522615277778,113.52574968338013L160.51441651041665,131.08567070960999L160.84284818663193,103.21031785011292L161.19489048524304,95.75419521331787L161.49947721050347,115.25422310829163L161.76204640104166,174.03641438484192L162.1748282782118,100.48836994171143L162.55671918706597,110.73822283744812L162.9728059049479,93.48923206329346L163.31978993880207,127.69801640510559L163.6667820529514,100.19792783260345L163.9905837200521,126.42184352874756L164.3157590373264,127.38166344165802L164.62343243532985,105.5476541519165L165.00041860503472,114.45737993717194L165.38211558680558,105.90951991081238L165.8570430138889,135.98358178138733L166.2289305173611,141.64598965644836L166.70174898741317,121.9423885345459L167.1168337486979,105.85221219062805L167.52087274652777,115.10884380340576L167.90638362760416,142.59238994121552L168.31205484505207,128.50357389450073L168.68976824131946,122.31704092025757L169.032178828125,118.59621691703796L169.430117203125,134.85261940956116L169.84882193663196,149.13388895988464L170.25754750564235,113.46145784854889L170.68291848263888,119.12952053546906L171.10559872135417,88.0162181854248L171.5653594344618,134.0957819223404L171.9615524657118,156.10918378829956L172.49715482899305,115.89541125297546L172.8633134032118,148.7253077030182L173.37086098177085,105.21328175067902L173.77770384201386,133.9508879184723L174.23468493359374,111.56390976905823L174.65300989322918,113.46793556213379L175.07766172395833,110.47860789299011L175.45212684157988,150.09185206890106L175.8553254887153,113.34215819835663L176.29781053081598,136.78574216365814L176.71588500130207,112.97955393791199L177.18070397916668,131.82651436328888L177.64244436458333,124.30059278011322L178.2583163797743,119.32264924049377L178.78978971223958,141.78915345668793L179.36934888107638,109.8409856557846L179.93256969314237,105.24218881130219L180.48172271137153,101.96155393123627L181.02417716493056,113.12083983421326L181.37353680555557,145.4090348482132L181.8105838090278,130.05031263828278L182.22709070225696,120.92374169826508L182.3960254327257,102.5162318944931L182.84604939019098,128.34715926647186L183.29748739930557,97.10964095592499L183.7324577669271,108.38153779506683L184.23696715451388,108.58802282810211L184.62851401605903,191.15996539592743L185.08799191883682,148.3368136882782L185.5818676380208,158.95701456069946L186.1659921736111,144.4199491739273L186.7356772217882,112.09390068054199L187.3480181480035,109.73229932785034L187.96818888020832,82.65286123752594L188.57613412586804,85.19773757457733L189.13997712065972,101.93737328052521L189.70591291189237,93.85354542732239L190.22549204991319,106.07165265083313L190.71082689713543,126.02429759502411L191.18594017100693,125.66441524028778L191.70964025954862,91.16309988498688L192.1784509032118,105.79173946380615L192.6632686115451,100.11316895484924L193.16903044487847,111.03303265571594L193.71148489843748,102.61394619941711L194.13581351736113,160.59133958816528L194.64866176953123,92.75807332992554L195.09939679296878,105.8261114358902L195.54056474696182,140.3359934091568L196.00504435243056,130.19465804100037L196.48364831380206,123.84035861492157L196.94567150954862,95.49719667434692L197.3638429435764,110.68173801898956L197.8285407170139,96.25977337360382L198.32423450260416,97.58434975147247L198.81552452734377,121.28712666034698L199.27973748307292,141.93830966949463L199.8035668563368,128.22404050827026L200.4237860703125,92.85494363307953L200.98067193098956,139.57700371742249L201.3852442282986,168.05545914173126L201.90460519835068,98.65283489227295L202.4038704743924,125.49856889247894L202.8553165638021,131.51474010944366L203.26995690885417,143.542187333107L203.78258699305556,111.31687045097351L204.2827653424479,107.22896897792816L204.8065866354167,136.76614022254944L205.29609899522566,118.273597240448L205.81214704427086,110.549187541008L206.3294717799479,104.36860477924347L206.7775483862847,126.91218745708466L207.12604343532985,162.29907166957855L207.60813000390624,101.52303171157837L208.05396028819447,118.29064607620239L208.56305928342013,139.0716576576233L209.06823125520833,111.8672651052475L209.52459824435763,120.64011490345001L210.15359265885417,96.62244093418121L210.69836615711804,135.39704275131226L211.27302058680553,94.33926844596863L211.86844945529512,129.6687183380127L212.36452301475697,132.66043031215668L212.87649051475694,140.47968471050262L213.28963600520834,115.22666645050049L213.74542121310765,119.16140270233154L214.12644753038194,106.54617154598236L214.4907961184896,123.69529581069946L214.8855185360243,123.09137034416199L215.33923518836806,107.63214862346649L215.87634856684028,89.54443109035492L216.44304390581598,92.21567559242249L216.96728537413193,109.22741746902466L217.51842614496528,115.324422955513L218.0587958823785,121.02597141265869L218.50191118749999,155.7004337310791L218.99834836024306,100.87241184711456L219.47340507204862,111.16429603099823L219.96217404470485,106.75662338733673L220.4233245685764,140.31755197048187L220.92561187500002,109.26461684703827L221.34928599001734,173.73181414604187L221.92930573567708,95.5416544675827L222.4740065112847,128.65395390987396L222.9639632873264,113.0732592344284L223.61433816276045,101.25729775428772L224.15253430078124,148.00400269031525L224.7224375169271,123.5761227607727L225.30882453515622,123.88620901107788L225.6720580425347,205.02064776420593L226.2339698467882,149.94788646697998L226.74582422265624,129.23435282707214L227.3664959331597,125.83403849601746L228.1005341844618,80.5119241476059L228.69614081944442,123.71344184875488L229.2519600811632,117.48198688030243L229.89766454600695,117.70942425727844L230.49528317447917,108.3262767791748L230.49554174392358,108.3262767791748L231.26119819010415,110.99522137641907L231.91464357769098,145.46826267242432L232.74036085763888,101.13766050338745L233.36833715494788,112.03724706172943L233.98896846397568,116.08375024795532L234.55069442144097,122.78698110580444L235.17496186328125,121.78335750102997L235.74512364887156,148.4583077430725L236.30549211675347,118.34253108501434L236.93602178732638,109.6441855430603L237.48717063845487,156.24747347831726L238.0285665733507,122.41332042217255L238.61856548350693,103.47862601280212L239.1716859266493,121.95696866512299L239.68818647222224,128.7115148305893L240.26141068967016,120.19519937038422L240.77745065842015,128.79239130020142L241.33797265190975,102.94538569450378L241.82051979730903,133.56479930877686L242.3729453350695,141.66415679454803L242.92933021744795,129.5109111070633L243.44115227213547,134.99181640148163L244.04883086805555,116.11476731300354L244.62948087673612,122.07130980491638L245.1201406384549,152.88146781921387L245.88957866276047,98.881875872612L246.53201868836803,130.58789956569672L247.31768194531253,96.54396986961365L247.53932444097222,117.7379515171051L248.1484009279514,115.39975011348724L248.74004821831596,113.38794529438019L249.24359605078124,152.3236459493637L249.86253049782985,105.4391577243805L250.39868232118056,122.465078830719L250.9412660594618,120.06674230098724L251.44158177387158,132.469158411026L252.0885790859375,104.53012561798096L252.77272959505208,95.13250350952148L253.2925996236979,172.09854412078857L253.88301062890625,102.89366948604584L254.40290489843747,143.59143483638763L254.9405192552083,118.81555187702179L255.58281383550346,106.97815275192261L256.148159765191,108.70462167263031L256.72435753125,123.89652693271637L257.37836045920136,146.27407336235046L257.90872679123265,148.80846297740936L258.4573222690972,134.0891354084015L259.01029726692707,126.0366622209549L259.5916341006944,131.59150207042694L260.0843300967882,119.39343988895416" style="fill: none;" fill="none"></path></g></g></g></g></g></g><g transform="translate(39, 177)" clip-path="url(#clip_1)"><clipPath id="clip_1"><rect width="290" height="23"></rect></clipPath><g><g><line x1="0" y1="0" x2="0" y2="5" style="visibility: inherit;" fill="rgb(0, 0, 0)" stroke="rgb(204, 204, 204)" stroke-width="1px"></line><line x1="29.0890625" y1="0" x2="29.0890625" y2="5" style="visibility: inherit;" fill="rgb(0, 0, 0)" stroke="rgb(204, 204, 204)" stroke-width="1px"></line><line x1="58.178125" y1="0" x2="58.178125" y2="5" style="visibility: inherit;" fill="rgb(0, 0, 0)" stroke="rgb(204, 204, 204)" stroke-width="1px"></line><line x1="87.26718749999999" y1="0" x2="87.26718749999999" y2="5" style="visibility: inherit;" fill="rgb(0, 0, 0)" stroke="rgb(204, 204, 204)" stroke-width="1px"></line><line x1="116.35625" y1="0" x2="116.35625" y2="5" style="visibility: inherit;" fill="rgb(0, 0, 0)" stroke="rgb(204, 204, 204)" stroke-width="1px"></line><line x1="145.4453125" y1="0" x2="145.4453125" y2="5" style="visibility: inherit;" fill="rgb(0, 0, 0)" stroke="rgb(204, 204, 204)" stroke-width="1px"></line><line x1="174.53437499999998" y1="0" x2="174.53437499999998" y2="5" style="visibility: inherit;" fill="rgb(0, 0, 0)" stroke="rgb(204, 204, 204)" stroke-width="1px"></line><line x1="203.6234375" y1="0" x2="203.6234375" y2="5" style="visibility: inherit;" fill="rgb(0, 0, 0)" stroke="rgb(204, 204, 204)" stroke-width="1px"></line><line x1="232.7125" y1="0" x2="232.7125" y2="5" style="visibility: inherit;" fill="rgb(0, 0, 0)" stroke="rgb(204, 204, 204)" stroke-width="1px"></line><line x1="261.8015625" y1="0" x2="261.8015625" y2="5" style="visibility: inherit;" fill="rgb(0, 0, 0)" stroke="rgb(204, 204, 204)" stroke-width="1px"></line><line x1="290.890625" y1="0" x2="290.890625" y2="5" style="visibility: inherit;" fill="rgb(0, 0, 0)" stroke="rgb(204, 204, 204)" stroke-width="1px"></line></g><g transform="translate(0, 8)"><text x="0" y="0" dx="0em" dy="0.95em" style="text-anchor: middle; visibility: hidden; font-family: &quot;Helvetica Neue&quot;, sans-serif; font-size: 12px; font-weight: 200;" fill="rgb(50, 49, 63)" stroke="none" stroke-width="1px">-1</text><text x="29.0890625" y="0" dx="0em" dy="0.95em" style="text-anchor: middle; visibility: inherit; font-family: &quot;Helvetica Neue&quot;, sans-serif; font-size: 12px; font-weight: 200;" fill="rgb(50, 49, 63)" stroke="none" stroke-width="1px">0</text><text x="58.178125" y="0" dx="0em" dy="0.95em" style="text-anchor: middle; visibility: inherit; font-family: &quot;Helvetica Neue&quot;, sans-serif; font-size: 12px; font-weight: 200;" fill="rgb(50, 49, 63)" stroke="none" stroke-width="1px">1</text><text x="87.26718749999999" y="0" dx="0em" dy="0.95em" style="text-anchor: middle; visibility: inherit; font-family: &quot;Helvetica Neue&quot;, sans-serif; font-size: 12px; font-weight: 200;" fill="rgb(50, 49, 63)" stroke="none" stroke-width="1px">2</text><text x="116.35625" y="0" dx="0em" dy="0.95em" style="text-anchor: middle; visibility: inherit; font-family: &quot;Helvetica Neue&quot;, sans-serif; font-size: 12px; font-weight: 200;" fill="rgb(50, 49, 63)" stroke="none" stroke-width="1px">3</text><text x="145.4453125" y="0" dx="0em" dy="0.95em" style="text-anchor: middle; visibility: inherit; font-family: &quot;Helvetica Neue&quot;, sans-serif; font-size: 12px; font-weight: 200;" fill="rgb(50, 49, 63)" stroke="none" stroke-width="1px">4</text><text x="174.53437499999998" y="0" dx="0em" dy="0.95em" style="text-anchor: middle; visibility: inherit; font-family: &quot;Helvetica Neue&quot;, sans-serif; font-size: 12px; font-weight: 200;" fill="rgb(50, 49, 63)" stroke="none" stroke-width="1px">5</text><text x="203.6234375" y="0" dx="0em" dy="0.95em" style="text-anchor: middle; visibility: inherit; font-family: &quot;Helvetica Neue&quot;, sans-serif; font-size: 12px; font-weight: 200;" fill="rgb(50, 49, 63)" stroke="none" stroke-width="1px">6</text><text x="232.7125" y="0" dx="0em" dy="0.95em" style="text-anchor: middle; visibility: inherit; font-family: &quot;Helvetica Neue&quot;, sans-serif; font-size: 12px; font-weight: 200;" fill="rgb(50, 49, 63)" stroke="none" stroke-width="1px">7</text><text x="261.8015625" y="0" dx="0em" dy="0.95em" style="text-anchor: middle; visibility: inherit; font-family: &quot;Helvetica Neue&quot;, sans-serif; font-size: 12px; font-weight: 200;" fill="rgb(50, 49, 63)" stroke="none" stroke-width="1px">8</text><text x="290.890625" y="0" dx="0em" dy="0.95em" style="text-anchor: middle; visibility: hidden; font-family: &quot;Helvetica Neue&quot;, sans-serif; font-size: 12px; font-weight: 200;" fill="rgb(50, 49, 63)" stroke="none" stroke-width="1px">9</text></g><line x1="0" y1="0" x2="290.890625" y2="0" fill="rgb(0, 0, 0)" stroke="rgb(204, 204, 204)" stroke-width="1px"></line></g></g></g></g></svg>