<svg viewBox="0 0 330 200" xmlns="http://www.w3.org/2000/svg"><g><g><g><g><g><line x1="39.109375" y1="177" x2="34.109375" y2="177" style="visibility: inherit;" fill="rgb(0, 0, 0)" stroke="rgb(204, 204, 204)" stroke-width="1px"></line><line x1="39.109375" y1="157.33333333333334" x2="34.109375" y2="157.33333333333334" style="visibility: inherit;" fill="rgb(0, 0, 0)" stroke="rgb(204, 204, 204)" stroke-width="1px"></line><line x1="39.109375" y1="137.66666666666669" x2="34.109375" y2="137.66666666666669" style="visibility: inherit;" fill="rgb(0, 0, 0)" stroke="rgb(204, 204, 204)" stroke-width="1px"></line><line x1="39.109375" y1="118" x2="34.109375" y2="118" style="visibility: inherit;" fill="rgb(0, 0, 0)" stroke="rgb(204, 204, 204)" stroke-width="1px"></line><line x1="39.109375" y1="98.33333333333334" x2="34.109375" y2="98.33333333333334" style="visibility: inherit;" fill="rgb(0, 0, 0)" stroke="rgb(204, 204, 204)" stroke-width="1px"></line><line x1="39.109375" y1="78.66666666666666" x2="34.109375" y2="78.66666666666666" style="visibility: inherit;" fill="rgb(0, 0, 0)" stroke="rgb(204, 204, 204)" stroke-width="1px"></line><line x1="39.109375" y1="59" x2="34.109375" y2="59" style="visibility: inherit;" fill="rgb(0, 0, 0)" stroke="rgb(204, 204, 204)" stroke-width="1px"></line><line x1="39.109375" y1="39.33333333333334" x2="34.109375" y2="39.33333333333334" style="visibility: inherit;" fill="rgb(0, 0, 0)" stroke="rgb(204, 204, 204)" stroke-width="1px"></line><line x1="39.109375" y1="19.666666666666686" x2="34.109375" y2="19.666666666666686" style="visibility: inherit;" fill="rgb(0, 0, 0)" stroke="rgb(204, 204, 204)" stroke-width="1px"></line><line x1="39.109375" y1="0" x2="34.109375" y2="0" style="visibility: inherit;" fill="rgb(0, 0, 0)" stroke="rgb(204, 204, 204)" stroke-width="1px"></line></g><g transform="translate(29.109375, 0)"><text x="0" y="177" dx="0em" dy="0.3em" style="text-anchor: end; visibility: hidden; font-family: &quot;Helvetica Neue&quot;, sans-serif; font-size: 12px; font-weight: 200;" fill="rgb(50, 49, 63)" stroke="none" stroke-width="1px">50</text><text x="0" y="157.33333333333334" dx="0em" dy="0.3em" style="text-anchor: end; visibility: inherit; font-family: &quot;Helvetica Neue&quot;, sans-serif; font-size: 12px; font-weight: 200;" fill="rgb(50, 49, 63)" stroke="none" stroke-width="1px">60</text><text x="0" y="137.66666666666669" dx="0em" dy="0.3em" style="text-anchor: end; visibility: hidden; font-family: &quot;Helvetica Neue&quot;, sans-serif; font-size: 12px; font-weight: 200;" fill="rgb(50, 49, 63)" stroke="none" stroke-width="1px">70</text><text x="0" y="118" dx="0em" dy="0.3em" style="text-anchor: end; visibility: inherit; font-family: &quot;Helvetica Neue&quot;, sans-serif; font-size: 12px; font-weight: 200;" fill="rgb(50, 49, 63)" stroke="none" stroke-width="1px">80</text><text x="0" y="98.33333333333334" dx="0em" dy="0.3em" style="text-anchor: end; visibility: hidden; font-family: &quot;Helvetica Neue&quot;, sans-serif; font-size: 12px; font-weight: 200;" fill="rgb(50, 49, 63)" stroke="none" stroke-width="1px">90</text><text x="0" y="78.66666666666666" dx="0em" dy="0.3em" style="text-anchor: end; visibility: inherit; font-family: &quot;Helvetica Neue&quot;, sans-serif; font-size: 12px; font-weight: 200;" fill="rgb(50, 49, 63)" stroke="none" stroke-width="1px">100</text><text x="0" y="59" dx="0em" dy="0.3em" style="text-anchor: end; visibility: hidden; font-family: &quot;Helvetica Neue&quot;, sans-serif; font-size: 12px; font-weight: 200;" fill="rgb(50, 49, 63)" stroke="none" stroke-width="1px">110</text><text x="0" y="39.33333333333334" dx="0em" dy="0.3em" style="text-anchor: end; visibility: inherit; font-family: &quot;Helvetica Neue&quot;, sans-serif; font-size: 12px; font-weight: 200;" fill="rgb(50, 49, 63)" stroke="none" stroke-width="1px">120</text><text x="0" y="19.666666666666686" dx="0em" dy="0.3em" style="text-anchor: end; visibility: hidden; font-family: &quot;Helvetica Neue&quot;, sans-serif; font-size: 12px; font-weight: 200;" fill="rgb(50, 49, 63)" stroke="none" stroke-width="1px">130</text><text x="0" y="0" dx="0em" dy="0.3em" style="text-anchor: end; visibility: hidden; font-family: &quot;Helvetica Neue&quot;, sans-serif; font-size: 12px; font-weight: 200;" fill="rgb(50, 49, 63)" stroke="none" stroke-width="1px">140</text></g><line x1="39.109375" y1="0" x2="39.109375" y2="177" fill="rgb(0, 0, 0)" stroke="rgb(204, 204, 204)" stroke-width="1px"></line></g></g><g transform="translate(39, 0)" clip-path="url(#clip_0)"><clipPath id="clip_0"><rect width="290" height="177"></rect></clipPath><g><g><g><line x1="0" y1="0" x2="0" y2="177" fill="rgb(0, 0, 0)" stroke="rgb(60, 60, 60)" stroke-width="1px" opacity="0.25"></line><line x1="32.32118055555556" y1="0" x2="32.32118055555556" y2="177" fill="rgb(0, 0, 0)" stroke="rgb(60, 60, 60)" stroke-width="1px" opacity="0.25"></line><line x1="64.64236111111111" y1="0" x2="64.64236111111111" y2="177" fill="rgb(0, 0, 0)" stroke="rgb(60, 60, 60)" stroke-width="1px" opacity="0.25"></line><line x1="96.96354166666666" y1="0" x2="96.96354166666666" y2="177" fill="rgb(0, 0, 0)" stroke="rgb(60, 60, 60)" stroke-width="1px" opacity="0.25"></line><line x1="129.28472222222223" y1="0" x2="129.28472222222223" y2="177" fill="rgb(0, 0, 0)" stroke="rgb(60, 60, 60)" stroke-width="1px" opacity="0.25"></line><line x1="161.60590277777777" y1="0" x2="161.60590277777777" y2="177" fill="rgb(0, 0, 0)" stroke="rgb(60, 60, 60)" stroke-width="1px" opacity="0.25"></line><line x1="193.92708333333331" y1="0" x2="193.92708333333331" y2="177" fill="rgb(0, 0, 0)" stroke="rgb(60, 60, 60)" stroke-width="1px" opacity="0.25"></line><line x1="226.24826388888889" y1="0" x2="226.24826388888889" y2="177" fill="rgb(0, 0, 0)" stroke="rgb(60, 60, 60)" stroke-width="1px" opacity="0.25"></line><line x1="258.56944444444446" y1="0" x2="258.56944444444446" y2="177" fill="rgb(0, 0, 0)" stroke="rgb(60, 60, 60)" stroke-width="1px" opacity="0.25"></line><line x1="290.890625" y1="0" x2="290.890625" y2="177" fill="rgb(0, 0, 0)" stroke="rgb(60, 60, 60)" stroke-width="1px" opacity="0.25"></line></g><g><line x1="0" y1="177" x2="290.890625" y2="177" fill="rgb(0, 0, 0)" stroke="rgb(60, 60, 60)" stroke-width="1px" opacity="0.25"></line><line x1="0" y1="157.33333333333334" x2="290.890625" y2="157.33333333333334" fill="rgb(0, 0, 0)" stroke="rgb(60, 60, 60)" stroke-width="1px" opacity="0.25"></line><line x1="0" y1="137.66666666666669" x2="290.890625" y2="137.66666666666669" fill="rgb(0, 0, 0)" stroke="rgb(60, 60, 60)" stroke-width="1px" opacity="0.25"></line><line x1="0" y1="118" x2="290.890625" y2="118" fill="rgb(0, 0, 0)" stroke="rgb(60, 60, 60)" stroke-width="1px" opacity="0.25"></line><line x1="0" y1="98.33333333333334" x2="290.890625" y2="98.33333333333334" fill="rgb(0, 0, 0)" stroke="rgb(60, 60, 60)" stroke-width="1px" opacity="0.25"></line><line x1="0" y1="78.66666666666666" x2="290.890625" y2="78.66666666666666" fill="rgb(0, 0, 0)" stroke="rgb(60, 60, 60)" stroke-width="1px" opacity="0.25"></line><line x1="0" y1="59" x2="290.890625" y2="59" fill="rgb(0, 0, 0)" stroke="rgb(60, 60, 60)" stroke-width="1px" opacity="0.25"></line><line x1="0" y1="39.33333333333334" x2="290.890625" y2="39.33333333333334" fill="rgb(0, 0, 0)" stroke="rgb(60, 60, 60)" stroke-width="1px" opacity="0.25"></line><line x1="0" y1="19.666666666666686" x2="290.890625" y2="19.666666666666686" fill="rgb(0, 0, 0)" stroke="rgb(60, 60, 60)" stroke-width="1px" opacity="0.25"></line><line x1="0" y1="0" x2="290.890625" y2="0" fill="rgb(0, 0, 0)" stroke="rgb(60, 60, 60)" stroke-width="1px" opacity="0.25"></line></g></g></g><g><g><line x1="0" y1="275.33333333333337" x2="290.890625" y2="275.33333333333337" fill="rgb(0, 0, 0)" stroke="rgb(153, 153, 153)" stroke-width="1.5px"></line></g></g><g><g><line x1="32.32118055555556" y1="0" x2="32.32118055555556" y2="177" fill="rgb(0, 0, 0)" stroke="rgb(153, 153, 153)" stroke-width="1.5px"></line></g></g><g><g><g><g><g><path stroke="rgb(51, 187, 238)" stroke-width="2px" d="M32.70903472222222,147.5L33.35545833333333,147.5L33.54938541666667,147.5L33.93723958333334,147.5L34.712947916666664,147.5L34.97151736111111,147.5L35.100802083333335,147.5L35.23008680555556,147.5L35.29472916666667,147.5L35.42401388888889,147.5L35.81186805555556,147.5L35.87651041666667,147.5L35.94115277777778,147.5L36.00579513888889,147.5L36.587576388888884,147.5L36.975430555555555,147.5L37.04007291666667,147.5L37.10471527777778,147.5L37.16935763888888,147.5L37.49256944444444,147.5L38.00970833333333,147.5L38.46220486111111,147.5L38.979343750000005,147.5L39.17327083333333,147.5L39.237913194444445,147.5L39.69040972222223,147.5L40.01362152777777,147.5L40.530760416666666,147.5L40.7246875,147.5L40.78932986111111,147.5L41.37111111111111,147.5L41.500395833333336,147.5L41.56503819444445,147.5L42.082177083333335,147.5L42.40538888888889,147.5L42.53467361111111,147.5L42.59931597222222,147.5L42.85788541666667,147.5L43.18109722222222,147.5L43.24573958333333,147.5L43.43966666666667,147.5L43.82752083333333,147.5L43.89216319444444,147.5L44.02144791666666,147.5L44.215375,147.5L44.34465972222222,147.5L44.40930208333334,147.5L44.53858680555555,147.5L44.66787152777778,147.5L44.732513888888896,147.5L45.185010416666664,147.5L45.70214930555556,147.5L45.76679166666666,147.5L45.83143402777778,147.5L46.09000347222222,147.5L46.801069444444444,147.5L47.18892361111111,147.5L47.38285069444444,147.5L47.512135416666666,147.5L47.7060625,147.5L48.48177083333333,147.5L48.869625000000006,147.5L49.19283680555555,147.5L49.25747916666667,147.5L49.386763888888886,147.5L49.64533333333333,147.5L49.90390277777777,147.5L50.0331875,147.5L50.356399305555556,147.5L51.26139236111111,147.5L51.51996180555555,147.5L51.58460416666667,147.5L51.84317361111111,147.5L51.90781597222222,147.5L52.16638541666667,147.5L52.231027777777776,147.5L52.3603125,147.5L52.554239583333334,147.5L52.87745138888889,147.5L52.94209375,147.5L53.32994791666666,147.5L53.39459027777778,147.5L53.45923263888889,147.5L53.65315972222222,147.5L54.23494097222222,147.5L54.75207986111111,147.5L55.78635763888889,147.5L56.044927083333334,147.5L56.432781250000005,147.5L56.691350694444445,147.5L56.82063541666667,147.5L57.273131944444444,147.5L57.59634375,147.5L57.66098611111111,147.5L58.69526388888889,147.5L59.14776041666667,147.5L59.535614583333334,147.5L59.600256944444446,147.5L59.72954166666667,147.5L60.11739583333333,147.5L60.69917708333333,147.5L60.828461805555555,147.5L60.89310416666667,147.5L61.087031249999995,147.5L61.47488541666667,147.5L62.05666666666667,147.5L62.25059375,147.5L62.31523611111111,147.5L62.89701736111111,147.5L62.96165972222222,147.5L63.86665277777778,147.5L63.931295138888885,147.5L64.06057986111111,147.5L64.18986458333333,147.5L65.09485763888888,147.5L65.41806944444444,147.5L65.54735416666666,147.5L65.74128125,147.5L66.2584201388889,147.5L66.64627430555555,147.5L66.77555902777779,147.5L66.96948611111111,135.7L67.35734027777778,147.5L67.68055208333332,147.5L67.74519444444445,147.5L68.32697569444444,147.5L68.45626041666667,147.5L68.71482986111111,147.5L68.77947222222222,135.7L69.10268402777777,147.5L69.36125347222222,147.5L69.42589583333333,147.5L69.74910763888889,147.5L69.87839236111111,135.7L69.94303472222222,135.7L70.07231944444445,135.7L70.20160416666667,147.5L70.26624652777778,147.5L70.52481597222221,-521.1666666666667L70.58945833333334,147.5L71.04195486111111,135.7L71.17123958333333,135.7L71.55909375,135.7L71.68837847222223,135.7L72.01159027777778,135.7L72.33480208333333,147.5L72.46408680555555,147.5L73.23979513888888,135.7L73.69229166666668,135.7L73.75693402777777,135.7L73.88621875,135.7L73.95086111111111,147.5L74.01550347222222,135.7L74.08014583333333,135.7L74.20943055555556,135.7L74.40335763888889,135.7L74.66192708333332,135.7L74.98513888888888,135.7L75.17906597222222,135.7L75.43763541666668,135.7L75.6315625,135.7L75.69620486111111,135.7L75.82548958333334,135.7L75.89013194444445,135.7L76.08405902777777,135.7L76.1487013888889,135.7L76.34262847222222,135.7L76.40727083333333,135.7L76.73048263888889,135.7L76.795125,135.7L77.24762152777778,135.7L77.44154861111112,135.7L77.70011805555556,135.7L77.89404513888888,135.7L78.02332986111111,135.7L78.15261458333333,135.7L78.41118402777778,135.7L78.66975347222221,135.7L78.86368055555556,135.7L78.92832291666666,135.7L78.99296527777777,135.7L79.0576076388889,135.7L79.44546180555557,135.7L79.83331597222222,135.7L79.96260069444445,135.7L80.02724305555554,135.7L80.2858125,135.7L80.47973958333334,135.7L80.54438194444445,135.7L80.73830902777777,135.7L80.80295138888889,135.7L80.86759375000001,135.7L80.99687847222222,135.7L81.12616319444444,135.7L81.70794444444445,135.7L81.77258680555555,135.7L81.9665138888889,135.7L82.03115625,135.7L82.0957986111111,135.7L82.22508333333333,135.7L82.28972569444446,135.7L82.67757986111111,135.7L82.93614930555555,135.7L83.00079166666667,135.7L83.1300763888889,135.7L83.2593611111111,135.7L83.45328819444445,135.7L83.51793055555555,135.7L83.58257291666666,135.7L83.64721527777778,135.7L83.84114236111111,135.7L84.09971180555556,135.7L84.29363888888889,135.7L84.4229236111111,135.7L84.48756597222223,135.7L84.55220833333334,135.7L84.9400625,135.7L85.00470486111111,135.7L85.13398958333335,135.7L85.32791666666667,135.7L85.58648611111111,135.7L85.78041319444444,135.7L85.97434027777778,135.7L86.03898263888888,135.7L86.29755208333334,135.7L86.42683680555555,135.7L86.75004861111111,135.7L86.94397569444443,135.7L88.30146527777778,135.7L88.43075,135.7L88.49539236111112,135.7L88.75396180555556,147.5L88.88324652777779,135.7L89.14181597222223,135.7L89.27110069444444,135.7L89.40038541666667,135.7L89.52967013888889,135.7L89.72359722222222,135.7L90.11145138888888,135.7L90.37002083333333,135.7L90.82251736111111,135.7L90.88715972222224,135.7L90.95180208333333,135.7L91.01644444444445,135.7L91.33965625,135.7L91.46894097222223,135.7L91.66286805555556,135.7L91.72751041666668,135.7L91.79215277777777,135.7L91.85679513888888,135.7L92.37393402777778,135.7L92.43857638888889,135.7L92.63250347222221,135.7L93.08500000000001,135.7L93.27892708333333,135.7L93.79606597222221,135.7L93.86070833333333,135.7L93.98999305555556,135.7L94.05463541666666,135.7L94.11927777777777,135.7L94.31320486111112,135.7L94.37784722222221,135.7L94.63641666666666,135.7L94.95962847222222,135.7L95.02427083333333,135.7L95.28284027777778,135.7L95.34748263888889,135.7L95.412125,135.7L95.47676736111111,135.7L95.67069444444445,135.7L95.73533680555556,135.7L95.79997916666666,135.7L95.99390625000001,135.7L96.0585486111111,135.7L96.5756875,135.7L96.83425694444445,135.7L96.96354166666666,135.7L97.0928263888889,135.7L97.15746875,135.7L97.35139583333333,135.7L97.60996527777777,135.7L97.67460763888889,135.7L97.73925000000001,135.7L97.93317708333333,135.7L98.45031597222221,135.7L98.57960069444445,135.7L98.8381701388889,135.7L98.90281250000001,135.7L99.09673958333333,147.5L99.22602430555555,135.7L99.35530902777778,135.7L99.67852083333334,135.7L100.38958680555555,135.7L100.51887152777778,135.7L100.90672569444445,135.7L100.97136805555554,135.7L101.10065277777778,135.7L101.22993749999999,135.7L101.48850694444445,135.7L101.7470763888889,135.7L101.87636111111111,135.7L102.19957291666667,135.7L102.26421527777778,135.7L102.32885763888889,135.7L102.84599652777779,135.7L103.23385069444444,135.7L103.4924201388889,135.7L103.5570625,135.7L103.62170486111111,135.7L104.2034861111111,135.7L104.33277083333334,135.7L104.52669791666666,135.7L104.91455208333333,135.7L104.97919444444445,135.7L105.43169097222223,135.7L105.56097569444444,123.9L106.46596875,135.7L106.85382291666667,135.7L106.91846527777778,135.7L106.98310763888888,135.7L107.17703472222223,135.7L107.24167708333333,135.7L107.30631944444444,135.7L108.46988194444444,135.7L108.59916666666668,135.7L108.72845138888889,135.7L109.18094791666667,123.9L109.24559027777777,135.7L109.50415972222223,135.7L109.63344444444445,135.7L109.76272916666667,123.9L110.08594097222223,135.7L110.21522569444444,135.7L110.34451041666668,135.7L110.60307986111111,123.9L111.24950347222222,135.7L111.50807291666668,135.7L111.76664236111112,123.9L111.83128472222222,135.7L111.89592708333333,135.7L112.02521180555556,135.7L112.21913888888889,135.7L112.41306597222221,135.7L112.54235069444445,135.7L112.73627777777777,135.7L113.12413194444444,135.7L113.25341666666667,123.9L113.38270138888889,123.9L113.44734375,123.9L113.64127083333334,135.7L113.77055555555556,123.9L113.9644826388889,123.9L114.48162152777778,123.9L114.80483333333333,135.7L114.93411805555556,135.7L115.32197222222221,123.9L115.58054166666666,135.7L115.64518402777777,135.7L115.70982638888889,135.7L115.77446875000001,123.9L116.16232291666667,123.9L116.35625,123.9L116.80874652777777,135.7L116.93803125000001,135.7L117.13195833333333,123.9L117.19660069444446,123.9L117.39052777777778,123.9L117.77838194444445,123.9L117.90766666666666,135.7L118.10159375,135.7L118.29552083333334,123.9L118.36016319444445,123.9L118.42480555555555,123.9L118.48944791666666,123.9L118.55409027777777,123.9L118.94194444444445,123.9L119.71765277777779,123.9L120.10550694444446,123.9L120.42871874999999,123.9L120.68728819444443,123.9L121.13978472222223,135.7L121.26906944444444,135.7L121.59228125,123.9L121.65692361111111,123.9L121.85085069444443,123.9L121.91549305555556,123.9L122.04477777777778,123.9L122.1094201388889,123.9L122.30334722222223,135.7L123.40226736111111,123.9L123.46690972222223,123.9L123.53155208333334,123.9L123.85476388888888,123.9L124.04869097222223,123.9L124.30726041666667,123.9L124.37190277777779,123.9L124.43654513888889,123.9L124.69511458333332,123.9L124.75975694444445,123.9L124.95368402777778,123.9L125.21225347222223,123.9L125.34153819444444,123.9L126.18188888888888,123.9L126.24653125,123.9L126.8283125,123.9L126.89295486111111,123.9L127.60402083333332,123.9L128.0565173611111,112.10000000000001L128.12115972222222,100.3L128.31508680555555,123.9L128.44437152777778,123.9L128.5090138888889,123.9L129.02615277777778,123.9L129.0907951388889,123.9L129.1554375,123.9L129.41400694444445,123.9L129.54329166666668,123.9L129.6725763888889,123.9L130.18971527777776,123.9L130.51292708333332,123.9L130.57756944444444,123.9L130.77149652777777,123.9L131.22399305555555,123.9L131.35327777777778,123.9L131.9997013888889,123.9L132.32291319444445,123.9L132.38755555555556,123.9L132.5168402777778,123.9L132.5814826388889,123.9L132.96933680555557,123.9L133.42183333333332,123.9L133.48647569444444,123.9L134.06825694444444,123.9L134.3268263888889,123.9L134.4561111111111,123.9L134.71468055555556,123.9L135.29646180555554,123.9L135.4257465277778,123.9L135.6196736111111,123.9L135.74895833333335,123.9L135.81360069444446,135.7L136.13681250000002,123.9L136.65395138888888,123.9L136.7832361111111,123.9L137.2357326388889,123.9L137.300375,123.9L137.55894444444445,123.9L137.88215624999998,123.9L138.07608333333334,123.9L138.20536805555554,123.9L138.3992951388889,123.9L138.5932222222222,123.9L138.85179166666666,123.9L139.36893055555555,123.9L139.88606944444444,123.9L140.01535416666667,123.9L140.1446388888889,123.9L140.33856597222223,123.9L140.40320833333334,123.9L140.7910625,123.9L140.85570486111112,123.9L141.37284375,123.9L141.56677083333335,123.9L141.63141319444443,123.9L141.69605555555555,123.9L141.76069791666666,123.9L141.88998263888888,123.9L142.08390972222222,123.9L142.53640625,123.9L142.6010486111111,112.10000000000001L142.92426041666667,123.9L143.0535451388889,123.9L143.1181875,123.9L143.18282986111112,123.9L143.76461111111112,123.9L144.02318055555557,123.9L144.1524652777778,123.9L144.21710763888888,123.9L144.3463923611111,123.9L144.66960416666666,123.9L144.73424652777777,123.9L144.86353125,123.9L144.9281736111111,123.9L144.99281597222222,123.9L145.18674305555555,123.9L145.31602777777778,123.9L145.4453125,123.9L146.22102083333334,123.9L146.73815972222224,123.9L147.12601388888888,123.9L147.19065625,123.9L147.57851041666666,123.9L147.64315277777777,123.9L147.70779513888888,123.9L148.22493402777778,123.9L148.67743055555553,123.9L149.19456944444443,123.9L149.25921180555554,123.9L149.4531388888889,123.9L149.90563541666666,123.9L150.03492013888888,123.9L150.29348958333335,123.9L150.93991319444444,123.9L151.00455555555556,123.9L151.1984826388889,100.3L151.52169444444442,123.9L151.7802638888889,123.9L152.62061458333332,123.9L152.74989930555554,123.9L152.81454166666666,123.9L153.20239583333333,123.9L153.26703819444444,123.9L153.33168055555555,100.3L153.46096527777777,123.9L153.59025,123.9L154.3659583333333,100.3L154.94773958333332,123.9L155.2063090277778,100.3L155.52952083333332,123.9L155.59416319444443,112.10000000000001L155.91737500000002,123.9L155.98201736111113,123.9L156.30522916666666,100.3L156.36987152777778,100.3L156.75772569444445,123.9L157.0162951388889,112.10000000000001L157.14557986111112,123.9L157.2748645833333,123.9L157.66271875,123.9L157.85664583333332,123.9L157.98593055555554,123.9L158.1798576388889,123.9L158.3737847222222,123.9L158.56771180555555,123.9L158.69699652777777,112.10000000000001L159.14949305555555,123.9L159.27877777777778,123.9L160.0544861111111,123.9L160.1191284722222,112.10000000000001L160.1837708333333,123.9L161.0887638888889,135.7L161.34733333333332,123.9L161.60590277777777,123.9L161.6705451388889,100.3L161.86447222222222,100.3L161.92911458333333,123.9L162.12304166666667,123.9L162.2523263888889,123.9L162.38161111111108,123.9L162.70482291666667,112.10000000000001L162.89875,123.9L163.0280347222222,100.3L163.22196180555557,100.3L163.4158888888889,112.10000000000001L163.6098159722222,100.3L163.73910069444443,123.9L163.9330277777778,123.9L164.1269548611111,100.3L164.1915972222222,100.3L164.38552430555555,123.9L165.1612326388889,100.3L165.2905173611111,123.9L165.61372916666667,100.3L165.8722986111111,-733.5666666666667L165.9369409722222,135.7L166.00158333333334,123.9L166.13086805555557,123.9L166.19551041666668,100.3L166.3247951388889,100.3L166.4540798611111,100.3L166.64800694444443,100.3L166.71264930555557,112.10000000000001L166.97121875,100.3L167.29443055555555,123.9L167.4237152777778,100.3L167.87621180555556,100.3L168.00549652777778,100.3L168.07013888888886,88.5L168.26406597222223,100.3L168.39335069444445,100.3L168.65192013888887,100.3L168.8458472222222,100.3L168.97513194444446,100.3L169.10441666666668,112.10000000000001L169.1690590277778,112.10000000000001L169.49227083333332,88.5L169.7508402777778,88.5L169.81548263888888,100.3L169.880125,112.10000000000001L170.13869444444444,88.5L170.20333680555555,100.3L170.3326215277778,100.3L170.5265486111111,100.3L170.59119097222222,100.3L170.65583333333333,100.3L170.78511805555556,88.5L170.84976041666667,88.5L170.97904513888886,100.3L171.30225694444445,100.3L171.36689930555556,100.3L171.75475347222223,100.3L171.81939583333335,100.3L171.88403819444446,100.3L172.14260763888888,100.3L172.2718923611111,100.3L172.40117708333332,112.10000000000001L172.65974652777777,100.3L173.3061701388889,100.3L173.4354548611111,100.3L173.56473958333333,112.10000000000001L173.62938194444445,123.9L173.88795138888887,100.3L174.01723611111112,100.3L174.08187847222223,88.5L174.14652083333334,88.5L174.5990173611111,100.3L174.85758680555557,100.3L175.05151388888888,100.3L175.6979375,100.3L175.7625798611111,100.3L176.02114930555558,100.3L176.15043402777778,100.3L176.3443611111111,100.3L176.47364583333334,88.5L176.53828819444445,100.3L176.66757291666664,100.3L176.73221527777775,100.3L176.7968576388889,100.3L176.8615,100.3L176.99078472222223,100.3L177.12006944444445,100.3L177.18471180555557,100.3L177.44328124999998,100.3L177.50792361111112,100.3L177.63720833333335,123.9L177.83113541666665,100.3L178.1543472222222,88.5L178.93005555555558,100.3L179.188625,100.3L179.38255208333334,100.3L179.83504861111112,100.3L180.02897569444445,100.3L180.41682986111113,100.3L180.48147222222224,100.3L180.61075694444446,100.3L180.80468402777777,100.3L180.9986111111111,88.5L181.06325347222221,100.3L181.12789583333335,100.3L181.70967708333333,100.3L181.77431944444447,123.9L181.83896180555553,100.3L181.90360416666667,100.3L182.0328888888889,100.3L182.16217361111111,88.5L182.35610069444445,88.5L182.80859722222223,123.9L182.87323958333334,123.9L182.93788194444446,123.9L183.00252430555554,123.9L183.51966319444446,100.3L184.10144444444444,100.3L184.42465625,100.3L184.87715277777778,100.3L184.9417951388889,-768.9666666666666L185.13572222222223,100.3L185.84678819444443,100.3L186.04071527777776,88.5L186.23464236111113,100.3L186.29928472222224,64.9L186.36392708333335,100.3L186.49321180555555,100.3L187.01035069444444,100.3L187.13963541666666,100.3L187.2689201388889,100.3L187.3982048611111,100.3L188.04462847222223,100.3L188.56176736111112,135.7L188.62640972222223,88.5L188.94962152777777,100.3L189.33747569444444,100.3L189.85461458333333,88.5L190.24246875,88.5L190.3071111111111,100.3L190.37175347222222,100.3L190.4363958333333,100.3L190.56568055555556,100.3L190.88889236111112,100.3L191.85852777777777,100.3L192.1170972222222,100.3L192.24638194444444,100.3L192.50495138888888,100.3L192.56959375,100.3L192.69887847222222,100.3L193.02209027777778,76.7L193.2160173611111,100.3L193.3453020833333,64.9L193.53922916666667,88.5L193.60387152777778,100.3L193.6685138888889,100.3L194.3149375,100.3L194.37957986111113,100.3L194.50886458333332,100.3L194.57350694444443,88.5L194.63814930555554,100.3L194.70279166666666,100.3L194.96136111111113,76.7L195.09064583333333,100.3L195.28457291666666,100.3L195.41385763888889,76.7L195.54314236111114,100.3L195.67242708333333,76.7L196.25420833333334,76.7L196.51277777777779,100.3L196.6420625,100.3L196.7713472222222,88.5L196.90063194444443,100.3L197.0945590277778,88.5L197.2884861111111,100.3L197.6763402777778,88.5L197.7409826388889,100.3L197.99955208333333,100.3L198.19347916666666,100.3L198.38740625000003,100.3L198.51669097222222,100.3L198.83990277777778,100.3L199.0984722222222,88.5L199.29239930555556,123.9L199.35704166666667,88.5L199.4216840277778,88.5L199.4863263888889,88.5L199.6802534722222,100.3L199.93882291666668,100.3L200.32667708333332,100.3L200.39131944444443,100.3L200.5852465277778,100.3L201.10238541666666,100.3L201.16702777777778,76.7L201.42559722222222,100.3L201.55488194444445,100.3L201.61952430555556,100.3L201.8134513888889,100.3L201.87809374999998,76.7L202.00737847222223,100.3L202.20130555555556,100.3L202.26594791666668,100.3L202.3952326388889,76.7L202.78308680555557,76.7L202.9770138888889,76.7L203.1709409722222,76.7L203.23558333333332,100.3L203.4941527777778,76.7L203.88200694444444,76.7L204.65771527777778,76.7L204.91628472222223,76.7L205.04556944444445,100.3L205.36878124999998,76.7L205.69199305555557,76.7L205.9505625,76.7L206.27377430555558,76.7L206.53234375,76.7L206.79091319444444,88.5L206.9848402777778,76.7L207.95447569444445,76.7L208.60089930555557,100.3L208.66554166666668,100.3L208.73018402777777,88.5L208.9241111111111,100.3L208.98875347222221,76.7L209.31196527777777,76.7L209.69981944444444,100.3L209.76446180555556,76.7L209.82910416666667,100.3L209.89374652777775,88.5L209.9583888888889,100.3L210.02303125,76.7L210.08767361111111,76.7L210.60481249999998,100.3L212.09158680555558,100.3L212.15622916666666,100.3L212.22087152777777,88.5L212.67336805555556,76.7L213.38443402777776,100.3L213.44907638888887,76.7L213.51371875,112.10000000000001L213.77228819444446,100.3L214.28942708333335,76.7L214.35406944444446,100.3L214.54799652777777,88.5L214.67728125,100.3L214.7419236111111,100.3L214.87120833333333,100.3L215.7762013888889,76.7L215.97012847222223,100.3L216.09941319444445,76.7L216.422625,100.3L216.61655208333335,76.7L216.81047916666665,100.3L217.39226041666666,88.5L217.45690277777777,76.7L217.84475694444447,76.7L217.97404166666666,100.3L218.03868402777778,100.3L218.42653819444445,76.7L218.62046527777778,100.3L218.6851076388889,76.7L219.00831944444445,100.3L219.13760416666665,100.3L219.2668888888889,88.5L219.46081597222224,88.5L219.52545833333335,100.3L220.04259722222224,64.9L220.36580902777777,112.10000000000001L220.49509375,76.7L220.5597361111111,76.7L220.62437847222222,88.5L220.88294791666667,76.7L221.33544444444442,100.3L221.5940138888889,76.7L221.78794097222223,53.10000000000001L221.98186805555554,100.3L222.49900694444443,76.7L222.82221875,100.3L223.53328472222225,53.10000000000001L223.85649652777778,76.7L223.98578125,53.10000000000001L224.0504236111111,76.7L224.24435069444442,100.3L224.89077430555554,41.29999999999998L225.27862847222224,64.9L225.53719791666666,76.7L225.86040972222224,112.10000000000001L225.98969444444444,76.7L226.11897916666666,76.7L226.24826388888889,76.7L226.3775486111111,64.9L226.57147569444444,76.7L226.63611805555556,76.7L226.70076041666667,76.7L226.8946875,64.9L226.95932986111112,64.9L227.02397222222223,76.7L227.28254166666667,41.29999999999998L227.4118263888889,76.7L227.60575347222223,76.7L227.67039583333332,76.7L227.79968055555554,76.7L227.86432291666665,100.3L228.12289236111113,29.5L228.25217708333332,29.5L228.31681944444443,64.9L228.38146180555555,76.7L228.64003125000002,76.7L228.76931597222222,41.29999999999998L228.89860069444444,76.7L229.09252777777778,76.7L229.67430902777778,76.7L229.86823611111112,76.7L229.9975208333333,76.7L230.12680555555556,53.10000000000001L230.2560902777778,76.7L230.385375,53.10000000000001L230.96715625000002,76.7L231.22572569444444,64.9L231.35501041666666,76.7L231.54893750000002,76.7L232.0660763888889,53.10000000000001L232.32464583333334,76.7L232.58321527777778,76.7L232.97106944444445,76.7L233.1649965277778,76.7L233.4235659722222,64.9L233.55285069444443,53.10000000000001L233.8114201388889,53.10000000000001L233.87606250000002,41.29999999999998L234.32855902777777,53.10000000000001L234.5224861111111,29.5L234.58712847222222,88.5L234.91034027777778,53.10000000000001L234.9749826388889,76.7L235.039625,100.3L235.16890972222222,76.7L235.36283680555556,53.10000000000001L235.6860486111111,76.7L235.87997569444445,100.3L235.94461805555557,53.10000000000001L236.0739027777778,76.7L236.46175694444443,41.29999999999998L237.10818055555555,53.10000000000001L237.56067708333333,53.10000000000001L237.75460416666667,17.69999999999999L237.81924652777778,53.10000000000001L238.27174305555556,76.7L238.33638541666667,41.29999999999998L238.40102777777778,29.5L238.4656701388889,53.10000000000001L238.78888194444446,53.10000000000001L238.9828090277778,53.10000000000001L240.46958333333333,-17.700000000000017L240.53422569444444,17.69999999999999L240.72815277777778,17.69999999999999L240.85743749999997,29.5L241.18064930555556,64.9L241.37457638888887,29.5L241.43921874999998,53.10000000000001L241.5685034722222,53.10000000000001L241.63314583333334,53.10000000000001L242.0856423611111,29.5L242.1502847222222,-816.1666666666666L242.27956944444446,64.9L242.79670833333333,53.10000000000001L242.86135069444444,53.10000000000001L243.1845625,53.10000000000001L243.2492048611111,53.10000000000001L243.63705902777778,88.5L243.76634375,17.69999999999999L243.89562847222223,41.29999999999998L244.02491319444445,53.10000000000001L244.28348263888887,53.10000000000001L244.47740972222223,41.29999999999998L244.73597916666668,29.5L245.12383333333332,53.10000000000001L245.3177604166667,17.69999999999999L245.38240277777777,17.69999999999999L245.44704513888888,53.10000000000001L245.83489930555555,53.10000000000001L246.35203819444445,53.10000000000001L246.61060763888887,53.10000000000001L246.73989236111112,29.5L246.80453472222223,29.5L246.86917708333334,53.10000000000001L247.12774652777776,29.5L247.45095833333335,100.3L247.9034548611111,5.900000000000006L248.16202430555558,53.10000000000001L248.42059375,29.5L248.4852361111111,41.29999999999998L248.67916319444444,29.5L248.9377326388889,5.900000000000006L249.0670173611111,41.29999999999998L249.45487152777775,64.9L249.64879861111112,41.29999999999998L249.77808333333334,41.29999999999998L249.90736805555557,64.9L250.03665277777776,29.5L250.23057986111112,53.10000000000001L250.35986458333335,53.10000000000001L250.55379166666665,41.29999999999998L250.8123611111111,-41.30000000000001L250.94164583333335,5.900000000000006L251.3295,17.69999999999999L251.65271180555558,53.10000000000001L251.71735416666667,76.7L251.9759236111111,64.9L252.4284201388889,41.29999999999998L252.94555902777776,-5.900000000000006L253.13948611111113,29.5L253.33341319444446,-17.700000000000017L253.39805555555554,-5.900000000000006L253.59198263888888,41.29999999999998L253.91519444444447,53.10000000000001L254.3030486111111,-17.700000000000017L254.36769097222222,29.5L254.62626041666667,-5.900000000000006L254.7555451388889,53.10000000000001L255.14339930555553,-17.700000000000017L255.20804166666665,41.29999999999998L255.3373263888889,5.900000000000006L255.59589583333334,41.29999999999998L256.0483923611111,17.69999999999999L256.43624652777777,112.10000000000001L256.6301736111111,-41.30000000000001L257.0180277777778,29.5L257.53516666666667,17.69999999999999L257.72909375,76.7L257.8583784722222,41.29999999999998L257.92302083333334,29.5L258.2462326388889,-17.700000000000017L258.310875,5.900000000000006L258.3755173611111,-5.900000000000006L258.63408680555557,-17.700000000000017L258.6987291666667,29.5L258.8280138888889,41.29999999999998L259.1512256944444,29.5L259.7976493055555,53.10000000000001L259.86229166666664,41.29999999999998L260.18550347222225,53.10000000000001L260.3147881944444,17.69999999999999L260.37943055555553,29.5L260.63800000000003,29.5L260.70264236111115,29.5L260.96121180555554,53.10000000000001L261.09049652777776,41.29999999999998L261.4137083333333,29.5L261.47835069444443,5.900000000000006L261.67227777777777,29.5L261.9308472222222,-17.700000000000017L262.70655555555555,5.900000000000006L262.8358402777778,64.9" style="fill: none;" fill="none"></path></g></g></g></g></g></g><g transform="translate(39, 177)" clip-path="url(#clip_1)"><clipPath id="clip_1"><rect width="290" height="23"></rect></clipPath><g><g><line x1="0" y1="0" x2="0" y2="5" style="visibility: inherit;" fill="rgb(0, 0, 0)" stroke="rgb(204, 204, 204)" stroke-width="1px"></line><line x1="32.32118055555556" y1="0" x2="32.32118055555556" y2="5" style="visibility: inherit;" fill="rgb(0, 0, 0)" stroke="rgb(204, 204, 204)" stroke-width="1px"></line><line x1="64.64236111111111" y1="0" x2="64.64236111111111" y2="5" style="visibility: inherit;" fill="rgb(0, 0, 0)" stroke="rgb(204, 204, 204)" stroke-width="1px"></line><line x1="96.96354166666666" y1="0" x2="96.96354166666666" y2="5" style="visibility: inherit;" fill="rgb(0, 0, 0)" stroke="rgb(204, 204, 204)" stroke-width="1px"></line><line x1="129.28472222222223" y1="0" x2="129.28472222222223" y2="5" style="visibility: inherit;" fill="rgb(0, 0, 0)" stroke="rgb(204, 204, 204)" stroke-width="1px"></line><line x1="161.60590277777777" y1="0" x2="161.60590277777777" y2="5" style="visibility: inherit;" fill="rgb(0, 0, 0)" stroke="rgb(204, 204, 204)" stroke-width="1px"></line><line x1="193.92708333333331" y1="0" x2="193.92708333333331" y2="5" style="visibility: inherit;" fill="rgb(0, 0, 0)" stroke="rgb(204, 204, 204)" stroke-width="1px"></line><line x1="226.24826388888889" y1="0" x2="226.24826388888889" y2="5" style="visibility: inherit;" fill="rgb(0, 0, 0)" stroke="rgb(204, 204, 204)" stroke-width="1px"></line><line x1="258.56944444444446" y1="0" x2="258.56944444444446" y2="5" style="visibility: inherit;" fill="rgb(0, 0, 0)" stroke="rgb(204, 204, 204)" stroke-width="1px"></line><line x1="290.890625" y1="0" x2="290.890625" y2="5" style="visibility: inherit;" fill="rgb(0, 0, 0)" stroke="rgb(204, 204, 204)" stroke-width="1px"></line></g><g transform="translate(0, 8)"><text x="0" y="0" dx="0em" dy="0.95em" style="text-anchor: middle; visibility: hidden; font-family: &quot;Helvetica Neue&quot;, sans-serif; font-size: 12px; font-weight: 200;" fill="rgb(50, 49, 63)" stroke="none" stroke-width="1px">-500</text><text x="32.32118055555556" y="0" dx="0em" dy="0.95em" style="text-anchor: middle; visibility: inherit; font-family: &quot;Helvetica Neue&quot;, sans-serif; font-size: 12px; font-weight: 200;" fill="rgb(50, 49, 63)" stroke="none" stroke-width="1px">0</text><text x="64.64236111111111" y="0" dx="0em" dy="0.95em" style="text-anchor: middle; visibility: inherit; font-family: &quot;Helvetica Neue&quot;, sans-serif; font-size: 12px; font-weight: 200;" fill="rgb(50, 49, 63)" stroke="none" stroke-width="1px">500</text><text x="96.96354166666666" y="0" dx="0em" dy="0.95em" style="text-anchor: middle; visibility: inherit; font-family: &quot;Helvetica Neue&quot;, sans-serif; font-size: 12px; font-weight: 200;" fill="rgb(50, 49, 63)" stroke="none" stroke-width="1px">1k</text><text x="129.28472222222223" y="0" dx="0em" dy="0.95em" style="text-anchor: middle; visibility: inherit; font-family: &quot;Helvetica Neue&quot;, sans-serif; font-size: 12px; font-weight: 200;" fill="rgb(50, 49, 63)" stroke="none" stroke-width="1px">1.5k</text><text x="161.60590277777777" y="0" dx="0em" dy="0.95em" style="text-anchor: middle; visibility: inherit; font-family: &quot;Helvetica Neue&quot;, sans-serif; font-size: 12px; font-weight: 200;" fill="rgb(50, 49, 63)" stroke="none" stroke-width="1px">2k</text><text x="193.92708333333331" y="0" dx="0em" dy="0.95em" style="text-anchor: middle; visibility: inherit; font-family: &quot;Helvetica Neue&quot;, sans-serif; font-size: 12px; font-weight: 200;" fill="rgb(50, 49, 63)" stroke="none" stroke-width="1px">2.5k</text><text x="226.24826388888889" y="0" dx="0em" dy="0.95em" style="text-anchor: middle; visibility: inherit; font-family: &quot;Helvetica Neue&quot;, sans-serif; font-size: 12px; font-weight: 200;" fill="rgb(50, 49, 63)" stroke="none" stroke-width="1px">3k</text><text x="258.56944444444446" y="0" dx="0em" dy="0.95em" style="text-anchor: middle; visibility: inherit; font-family: &quot;Helvetica Neue&quot;, sans-serif; font-size: 12px; font-weight: 200;" fill="rgb(50, 49, 63)" stroke="none" stroke-width="1px">3.5k</text><text x="290.890625" y="0" dx="0em" dy="0.95em" style="text-anchor: middle; visibility: hidden; font-family: &quot;Helvetica Neue&quot;, sans-serif; font-size: 12px; font-weight: 200;" fill="rgb(50, 49, 63)" stroke="none" stroke-width="1px">4k</text></g><line x1="0" y1="0" x2="290.890625" y2="0" fill="rgb(0, 0, 0)" stroke="rgb(204, 204, 204)" stroke-width="1px"></line></g></g></g></g></svg>