<svg viewBox="0 0 330 200" xmlns="http://www.w3.org/2000/svg"><g><g><g><g><g><line x1="39.109375" y1="177" x2="34.109375" y2="177" style="visibility: inherit;" fill="rgb(0, 0, 0)" stroke="rgb(204, 204, 204)" stroke-width="1px"></line><line x1="39.109375" y1="154.875" x2="34.109375" y2="154.875" style="visibility: inherit;" fill="rgb(0, 0, 0)" stroke="rgb(204, 204, 204)" stroke-width="1px"></line><line x1="39.109375" y1="132.75" x2="34.109375" y2="132.75" style="visibility: inherit;" fill="rgb(0, 0, 0)" stroke="rgb(204, 204, 204)" stroke-width="1px"></line><line x1="39.109375" y1="110.625" x2="34.109375" y2="110.625" style="visibility: inherit;" fill="rgb(0, 0, 0)" stroke="rgb(204, 204, 204)" stroke-width="1px"></line><line x1="39.109375" y1="88.5" x2="34.109375" y2="88.5" style="visibility: inherit;" fill="rgb(0, 0, 0)" stroke="rgb(204, 204, 204)" stroke-width="1px"></line><line x1="39.109375" y1="66.375" x2="34.109375" y2="66.375" style="visibility: inherit;" fill="rgb(0, 0, 0)" stroke="rgb(204, 204, 204)" stroke-width="1px"></line><line x1="39.109375" y1="44.25" x2="34.109375" y2="44.25" style="visibility: inherit;" fill="rgb(0, 0, 0)" stroke="rgb(204, 204, 204)" stroke-width="1px"></line><line x1="39.109375" y1="22.125" x2="34.109375" y2="22.125" style="visibility: inherit;" fill="rgb(0, 0, 0)" stroke="rgb(204, 204, 204)" stroke-width="1px"></line><line x1="39.109375" y1="0" x2="34.109375" y2="0" style="visibility: inherit;" fill="rgb(0, 0, 0)" stroke="rgb(204, 204, 204)" stroke-width="1px"></line></g><g transform="translate(29.109375, 0)"><text x="0" y="177" dx="0em" dy="0.3em" style="text-anchor: end; visibility: hidden; font-family: &quot;Helvetica Neue&quot;, sans-serif; font-size: 12px; font-weight: 200;" fill="rgb(50, 49, 63)" stroke="none" stroke-width="1px">4</text><text x="0" y="154.875" dx="0em" dy="0.3em" style="text-anchor: end; visibility: inherit; font-family: &quot;Helvetica Neue&quot;, sans-serif; font-size: 12px; font-weight: 200;" fill="rgb(50, 49, 63)" stroke="none" stroke-width="1px">4.5</text><text x="0" y="132.75" dx="0em" dy="0.3em" style="text-anchor: end; visibility: hidden; font-family: &quot;Helvetica Neue&quot;, sans-serif; font-size: 12px; font-weight: 200;" fill="rgb(50, 49, 63)" stroke="none" stroke-width="1px">5</text><text x="0" y="110.625" dx="0em" dy="0.3em" style="text-anchor: end; visibility: inherit; font-family: &quot;Helvetica Neue&quot;, sans-serif; font-size: 12px; font-weight: 200;" fill="rgb(50, 49, 63)" stroke="none" stroke-width="1px">5.5</text><text x="0" y="88.5" dx="0em" dy="0.3em" style="text-anchor: end; visibility: hidden; font-family: &quot;Helvetica Neue&quot;, sans-serif; font-size: 12px; font-weight: 200;" fill="rgb(50, 49, 63)" stroke="none" stroke-width="1px">6</text><text x="0" y="66.375" dx="0em" dy="0.3em" style="text-anchor: end; visibility: inherit; font-family: &quot;Helvetica Neue&quot;, sans-serif; font-size: 12px; font-weight: 200;" fill="rgb(50, 49, 63)" stroke="none" stroke-width="1px">6.5</text><text x="0" y="44.25" dx="0em" dy="0.3em" style="text-anchor: end; visibility: hidden; font-family: &quot;Helvetica Neue&quot;, sans-serif; font-size: 12px; font-weight: 200;" fill="rgb(50, 49, 63)" stroke="none" stroke-width="1px">7</text><text x="0" y="22.125" dx="0em" dy="0.3em" style="text-anchor: end; visibility: inherit; font-family: &quot;Helvetica Neue&quot;, sans-serif; font-size: 12px; font-weight: 200;" fill="rgb(50, 49, 63)" stroke="none" stroke-width="1px">7.5</text><text x="0" y="0" dx="0em" dy="0.3em" style="text-anchor: end; visibility: hidden; font-family: &quot;Helvetica Neue&quot;, sans-serif; font-size: 12px; font-weight: 200;" fill="rgb(50, 49, 63)" stroke="none" stroke-width="1px">8</text></g><line x1="39.109375" y1="0" x2="39.109375" y2="177" fill="rgb(0, 0, 0)" stroke="rgb(204, 204, 204)" stroke-width="1px"></line></g></g><g transform="translate(39, 0)" clip-path="url(#clip_0)"><clipPath id="clip_0"><rect width="290" height="177"></rect></clipPath><g><g><g><line x1="0" y1="0" x2="0" y2="177" fill="rgb(0, 0, 0)" stroke="rgb(60, 60, 60)" stroke-width="1px" opacity="0.25"></line><line x1="32.32118055555556" y1="0" x2="32.32118055555556" y2="177" fill="rgb(0, 0, 0)" stroke="rgb(60, 60, 60)" stroke-width="1px" opacity="0.25"></line><line x1="64.64236111111111" y1="0" x2="64.64236111111111" y2="177" fill="rgb(0, 0, 0)" stroke="rgb(60, 60, 60)" stroke-width="1px" opacity="0.25"></line><line x1="96.96354166666666" y1="0" x2="96.96354166666666" y2="177" fill="rgb(0, 0, 0)" stroke="rgb(60, 60, 60)" stroke-width="1px" opacity="0.25"></line><line x1="129.28472222222223" y1="0" x2="129.28472222222223" y2="177" fill="rgb(0, 0, 0)" stroke="rgb(60, 60, 60)" stroke-width="1px" opacity="0.25"></line><line x1="161.60590277777777" y1="0" x2="161.60590277777777" y2="177" fill="rgb(0, 0, 0)" stroke="rgb(60, 60, 60)" stroke-width="1px" opacity="0.25"></line><line x1="193.92708333333331" y1="0" x2="193.92708333333331" y2="177" fill="rgb(0, 0, 0)" stroke="rgb(60, 60, 60)" stroke-width="1px" opacity="0.25"></line><line x1="226.24826388888889" y1="0" x2="226.24826388888889" y2="177" fill="rgb(0, 0, 0)" stroke="rgb(60, 60, 60)" stroke-width="1px" opacity="0.25"></line><line x1="258.56944444444446" y1="0" x2="258.56944444444446" y2="177" fill="rgb(0, 0, 0)" stroke="rgb(60, 60, 60)" stroke-width="1px" opacity="0.25"></line><line x1="290.890625" y1="0" x2="290.890625" y2="177" fill="rgb(0, 0, 0)" stroke="rgb(60, 60, 60)" stroke-width="1px" opacity="0.25"></line></g><g><line x1="0" y1="177" x2="290.890625" y2="177" fill="rgb(0, 0, 0)" stroke="rgb(60, 60, 60)" stroke-width="1px" opacity="0.25"></line><line x1="0" y1="154.875" x2="290.890625" y2="154.875" fill="rgb(0, 0, 0)" stroke="rgb(60, 60, 60)" stroke-width="1px" opacity="0.25"></line><line x1="0" y1="132.75" x2="290.890625" y2="132.75" fill="rgb(0, 0, 0)" stroke="rgb(60, 60, 60)" stroke-width="1px" opacity="0.25"></line><line x1="0" y1="110.625" x2="290.890625" y2="110.625" fill="rgb(0, 0, 0)" stroke="rgb(60, 60, 60)" stroke-width="1px" opacity="0.25"></line><line x1="0" y1="88.5" x2="290.890625" y2="88.5" fill="rgb(0, 0, 0)" stroke="rgb(60, 60, 60)" stroke-width="1px" opacity="0.25"></line><line x1="0" y1="66.375" x2="290.890625" y2="66.375" fill="rgb(0, 0, 0)" stroke="rgb(60, 60, 60)" stroke-width="1px" opacity="0.25"></line><line x1="0" y1="44.25" x2="290.890625" y2="44.25" fill="rgb(0, 0, 0)" stroke="rgb(60, 60, 60)" stroke-width="1px" opacity="0.25"></line><line x1="0" y1="22.125" x2="290.890625" y2="22.125" fill="rgb(0, 0, 0)" stroke="rgb(60, 60, 60)" stroke-width="1px" opacity="0.25"></line><line x1="0" y1="0" x2="290.890625" y2="0" fill="rgb(0, 0, 0)" stroke="rgb(60, 60, 60)" stroke-width="1px" opacity="0.25"></line></g></g></g><g><g><line x1="0" y1="354" x2="290.890625" y2="354" fill="rgb(0, 0, 0)" stroke="rgb(153, 153, 153)" stroke-width="1.5px"></line></g></g><g><g><line x1="32.32118055555556" y1="0" x2="32.32118055555556" y2="177" fill="rgb(0, 0, 0)" stroke="rgb(153, 153, 153)" stroke-width="1.5px"></line></g></g><g><g><g><g><g><path stroke="rgb(255, 112, 67)" stroke-width="2px" d="M79.994921875,24.262877583503723L127.66866319444445,32.898999094963074L175.34240451388888,35.66525709629059L223.01614583333335,38.23211967945099" style="fill: none;" fill="none"></path></g><g><path stroke="rgb(187, 187, 187)" stroke-width="2px" d="M35.55329861111111,-20.914870262145996L35.71490451388889,45.524970173835754L36.03811631944445,9.744654536247253L36.361328125,-13.229938745498657L36.52293402777778,6.8987016677856445L37.33096354166666,-17.10496187210083L37.81578125,-18.81625986099243L37.97738715277778,17.174697518348694L38.30059895833333,3.641466736793518L38.78541666666666,9.821374297142029L38.94702256944444,38.73731803894043L39.270234375,-19.885441303253174L39.43184027777778,14.053452372550964L39.59344618055555,10.37069284915924L39.75505208333333,22.807860732078552L40.07826388888889,4.120163440704346L40.40147569444444,16.02765691280365L40.56308159722222,15.291982769966125L41.04789930555555,24.775861859321594L41.20950520833333,13.480733871459961L41.37111111111111,28.196115732192993L41.53271701388889,20.634049773216248L41.69432291666667,21.91591966152191L42.179140624999995,32.770225524902344L42.340746527777775,23.67070484161377L42.502352430555554,45.61675536632538L42.66395833333333,27.408387780189514L42.82556423611111,19.31696391105652L42.98717013888889,29.075924277305603L43.14877604166667,33.31884777545929L43.310381944444444,28.448999762535095L43.471987847222216,4.3960254192352295L43.633593749999996,25.95149302482605L43.956805555555555,73.98350715637207L44.118411458333334,19.309810996055603L44.28001736111111,15.946189641952515L44.44162326388889,33.227484583854675L44.764835069444445,32.54833745956421L45.088046874999996,62.55968999862671L45.249652777777776,16.07131290435791L45.572864583333335,27.625254034996033L45.734470486111114,64.38357782363892L46.057682291666666,6.339444994926453L46.219288194444445,28.50966238975525L46.380894097222225,35.59066843986511L46.542500000000004,13.528040170669556L46.704105902777776,32.7965372800827L46.865711805555556,46.05930769443512L47.18892361111111,84.33223485946655L47.35052951388889,45.559996247291565L47.512135416666666,76.52618908882141L47.673741319444446,37.85185468196869L48.48177083333333,18.43071985244751L48.64337673611111,26.343531847000122L48.96658854166667,58.96369385719299L49.289800347222226,41.68128061294556L49.451406250000005,52.96315777301788L49.61301215277778,101.68368744850159L50.09782986111111,47.65126383304596L50.25943576388889,55.97480928897858L50.744253472222226,90.0470974445343L51.22907118055556,44.37364625930786L51.55228298611111,37.78159153461456L51.71388888888889,59.10310184955597L51.87549479166667,44.37693786621094L52.52191840277778,35.981905460357666L52.68352430555556,33.9825074672699L52.84513020833334,25.08854341506958L53.00673611111112,23.760358929634094L53.32994791666666,39.58807182312012L53.49155381944444,66.59494686126709L53.97637152777778,74.44496512413025L54.46118923611112,20.029322504997253L54.62279513888888,39.319637060165405L54.94600694444444,38.18046677112579L55.26921875,72.88799285888672L55.43082465277778,33.622899413108826L55.59243055555556,57.006200551986694L55.75403645833334,58.31028878688812L55.91564236111111,48.775431990623474L56.07724826388888,29.838606476783752L56.40046006944444,41.60968816280365L56.56206597222222,37.10824692249298L56.723671875,36.05107140541077L56.88527777777778,125.56324052810669L57.20848958333333,50.29024636745453L57.37009548611111,27.22880530357361L57.53170138888889,37.411728858947754L57.85491319444444,83.86605048179626L58.01651909722222,32.081520080566406L58.178125,30.102251529693604L58.50133680555555,49.60050702095032L58.66294270833333,29.153488039970398L58.98615451388889,53.25121557712555L59.14776041666667,55.54426288604736L59.47097222222222,25.379196524620056L59.632578124999995,50.14282035827637L59.794184027777774,48.51206123828888L60.11739583333333,61.77586555480957L60.27900173611111,62.597585678100586L60.76381944444445,49.741265416145325L60.925425347222216,67.41571748256683L61.087031249999995,45.43362808227539L61.248637152777775,49.74789083003998L61.571848958333334,40.809658885002136L61.73345486111111,29.175896286964417L62.05666666666667,82.10647559165955L62.379878472222224,48.6058509349823L62.541484374999996,74.18421077728271L62.703090277777775,107.49639093875885L62.864696180555555,76.38380599021912L63.187907986111114,19.455844402313232L63.349513888888886,30.798363089561462L63.834331597222224,67.6690024137497L64.48075520833333,47.33670437335968L65.12717881944444,20.97722089290619L65.61199652777778,30.150655031204224L65.77360243055556,57.661293625831604L65.93520833333334,44.763195276260376L66.09681423611111,67.04095959663391L66.2584201388889,73.40321373939514L66.74323784722222,41.4779816865921L66.90484375,42.526400685310364L67.06644965277778,43.82924401760101L67.22805555555556,63.46509289741516L67.7128732638889,59.70856761932373L67.87447916666667,57.61282682418823L68.03608506944445,40.29517650604248L68.19769097222222,73.70715987682343L68.359296875,70.72021651268005L68.52090277777778,3.1558703184127808L68.84411458333334,47.44376599788666L69.00572048611112,36.09920060634613L69.1673263888889,82.98647403717041L69.49053819444445,52.245882868766785L69.65214409722222,64.61109960079193L69.81375,77.75119435787201L69.97535590277778,37.468867778778076L70.13696180555556,59.58365535736084L70.29856770833334,71.85248708724976L70.46017361111112,77.0462418794632L70.78338541666668,60.00398933887482L70.94499131944444,77.83223962783813L71.268203125,78.26782894134521L71.91462673611112,78.46511435508728L72.0762326388889,58.21886229515076L72.39944444444444,51.498287200927734L72.56105034722222,61.30875277519226L72.72265625,60.38085722923279L72.88426215277777,74.97096812725067L73.04586805555556,59.123231291770935L73.20747395833332,42.10828220844269L73.69229166666668,66.60937929153442L74.177109375,58.613707423210144L74.33871527777777,86.18929195404053L74.50032118055556,47.20696020126343L74.66192708333332,34.83169984817505L74.98513888888888,89.02433609962463L75.30835069444444,75.46384406089783L75.6315625,94.35332107543945L75.95477430555556,51.95056664943695L76.27798611111112,76.49840033054352L76.43959201388888,35.0867360830307L76.60119791666666,70.50573456287384L76.76280381944444,86.48235046863556L76.92440972222222,79.83727133274078L77.24762152777778,35.23876190185547L77.40922743055556,67.70430278778076L77.73243923611112,62.27294039726257L78.05565104166666,62.39778935909271L78.37886284722222,84.68726420402527L79.1868923611111,46.50660753250122L79.51010416666666,100.51451289653778L79.67171006944444,73.38766300678253L79.994921875,56.186421632766724L79.994921875,56.186421632766724L80.15652777777778,75.57385969161987L80.31813368055555,106.81266510486603L80.47973958333334,100.10299873352051L80.6413454861111,103.81934952735901L80.80295138888889,46.95593297481537L80.96455729166667,89.50244200229645L81.12616319444444,80.87338900566101L81.28776909722222,60.92918407917023L81.93419270833334,76.32559096813202L82.0957986111111,65.40828037261963L82.41901041666667,83.67809128761292L82.90382812499999,58.8299617767334L83.55025173611111,47.59152960777283L83.7118576388889,86.49195098876953L83.87346354166667,74.44104051589966L84.03506944444443,128.7265169620514L84.35828124999999,79.771080493927L84.51988715277778,74.83753144741058L84.68149305555555,71.76523840427399L84.84309895833334,64.50882768630981L85.00470486111111,79.92382371425629L85.1663107638889,77.1568694114685L85.65112847222223,61.47713112831116L85.81273437499999,55.161508083343506L86.13594618055555,47.058626890182495L86.45915798611111,87.04747295379639L86.78236979166667,82.45344471931458L87.10558159722223,77.28157067298889L87.42879340277779,88.11135828495026L87.59039930555555,80.50924444198608L87.75200520833334,98.28219151496887L87.91361111111111,147.31599354743958L88.07521701388889,63.78604567050934L88.23682291666667,59.36668360233307L88.39842881944445,116.56031584739685L88.56003472222223,73.62430000305176L88.72164062499999,83.24900078773499L89.04485243055555,78.07370853424072L89.36806423611111,92.83669209480286L89.52967013888889,105.61705219745636L89.85288194444445,102.78749406337738L90.17609374999999,57.59814119338989L90.33769965277777,107.04394268989563L90.49930555555555,63.94786190986633L90.66091145833333,71.66689109802246L90.82251736111111,76.88197803497314L90.98412326388889,58.77982807159424L91.14572916666667,52.7218154668808L91.30733506944445,77.89670026302338L91.46894097222223,60.48728585243225L91.63054687500001,96.1982034444809L91.79215277777777,68.19992172718048L92.11536458333333,60.83155417442322L92.27697048611111,116.31222152709961L92.60018229166667,82.07894003391266L92.92339409722221,55.765201449394226L93.08500000000001,72.55771386623383L93.24660590277777,65.2190762758255L93.40821180555555,87.87607169151306L93.56981770833333,70.89644408226013L93.89302951388889,65.63223624229431L94.05463541666666,106.4744735956192L94.37784722222221,104.1583217382431L94.53945312500001,62.68761956691742L94.70105902777777,69.51126837730408L94.86266493055557,57.51943802833557L95.02427083333333,70.97812235355377L95.34748263888889,83.66304695606232L95.50908854166666,84.98631513118744L95.67069444444445,49.221908926963806L95.83230034722222,52.75770664215088L96.6403298611111,77.63908982276917L96.80193576388889,81.7609623670578L97.12514756944445,87.5296722650528L97.28675347222222,87.74341571331024L97.44835937500001,53.69026529788971L97.77157118055557,71.98765397071838L97.93317708333333,69.378338098526L98.25638888888889,126.13610672950745L98.57960069444445,79.87809991836548L99.38763020833333,89.23225593566895L99.5492361111111,68.70142757892609L100.03405381944445,65.54975616931915L100.19565972222222,56.03426921367645L100.357265625,96.99405491352081L100.51887152777778,49.667773962020874L100.68047743055556,76.36333894729614L100.84208333333333,66.2950097322464L101.1652951388889,103.41005086898804L101.48850694444445,71.5560314655304L101.81171875,62.39112174510956L102.13493055555556,63.43048882484436L102.6197482638889,93.3377548456192L102.78135416666666,61.73018395900726L103.266171875,73.9609934091568L103.42777777777778,59.63123595714569L103.58938368055556,70.98481106758118L103.75098958333334,69.1362361907959L104.07420138888888,79.48042738437653L104.23580729166667,79.55438303947449L104.720625,75.06866133213043L104.88223090277778,64.75557160377502L105.20544270833334,80.82028019428253L105.69026041666667,87.87083888053894L105.85186631944444,71.4307816028595L106.175078125,56.17247450351715L106.33668402777778,70.22219216823578L106.49828993055556,94.0335921049118L106.65989583333332,58.37033951282501L106.82150173611112,90.78667509555817L107.14471354166668,79.73371231555939L107.30631944444444,46.64652192592621L107.46792534722223,81.60828244686127L107.62953125,87.1021431684494L107.79113715277778,71.75764238834381L107.95274305555556,70.75123357772827L108.11434895833332,51.94052302837372L108.43756076388888,55.22290921211243L108.76077256944444,87.02128779888153L108.92237847222223,99.81137502193451L109.40719618055556,92.71633744239807L109.56880208333332,88.4506047964096L110.21522569444444,121.23800575733185L110.70004340277777,62.56650531291962L110.86164930555556,64.23775541782379L111.18486111111112,63.387107133865356L111.34646701388888,70.27122867107391L111.66967881944444,71.95859920978546L111.83128472222222,71.69708526134491L111.992890625,78.69624423980713L112.47770833333333,120.54963791370392L112.63931423611112,73.02813935279846L112.96252604166666,95.33487403392792L113.60894965277778,124.4769047498703L114.09376736111112,71.05452561378479L114.25537326388888,134.90517961978912L114.41697916666666,64.5016325712204L114.57858506944444,64.56185209751129L114.74019097222222,116.71111786365509L114.901796875,105.59090924263L115.06340277777778,73.30364263057709L115.38661458333334,38.14305639266968L115.5482204861111,120.21452701091766L115.70982638888889,79.33162987232208L115.87143229166666,67.19954752922058L116.03303819444444,61.4553347826004L116.19464409722222,102.82346963882446L116.35625,57.19519364833832L116.84106770833334,114.0909354686737L117.0026736111111,80.11148750782013L117.16427951388889,130.6762454509735L118.13391493055555,50.114609599113464L118.4571267361111,65.67751693725586L118.6187326388889,89.51257002353668L118.78033854166667,64.75341939926147L118.94194444444445,93.40898859500885L119.10355034722222,104.10675323009491L119.26515624999999,59.294352650642395L119.42676215277778,76.4718142747879L119.58836805555555,92.37529742717743L119.74997395833334,78.48188889026642L119.91157986111111,72.46514797210693L120.0731857638889,88.66531884670258L120.23479166666667,66.94446909427643L120.39639756944443,82.24588358402252L120.55800347222223,63.13046729564667L120.71960937499999,48.88080561161041L120.88121527777778,51.70713543891907L121.04282118055555,78.12162673473358L121.36603298611111,146.02591574192047L121.5276388888889,84.99614775180817L121.68924479166667,50.9392204284668L122.01245659722223,55.356324791908264L122.33566840277778,77.13209795951843L122.65888020833334,70.70538318157196L122.82048611111111,172.0926994085312L123.30530381944443,67.77534663677216L123.46690972222223,97.36366438865662L123.62851562499999,98.58892285823822L123.95172743055555,95.49398946762085L124.11333333333334,76.67264449596405L124.27493923611111,123.58407747745514L124.59815104166667,85.92075169086456L124.75975694444445,80.77871310710907L124.92136284722223,75.6703712940216L125.08296874999999,93.48575055599213L125.40618055555555,54.09523844718933L125.56778645833333,76.38186478614807L125.72939236111111,100.07272017002106L125.89099826388889,86.45483601093292L126.05260416666667,77.42553627490997L126.21421006944445,83.42643105983734L126.37581597222223,80.46033453941345L126.53742187499999,70.72158801555634L126.69902777777777,68.2609852552414L127.02223958333333,44.82119929790497L127.18384548611111,58.89583611488342L127.34545138888889,83.5696792602539L127.66866319444445,73.43486380577087L127.83026909722223,77.46130084991455L127.99187500000001,76.93791425228119L128.31508680555555,81.77495169639587L128.47669270833333,52.78116989135742L128.6382986111111,97.92361736297607L128.7999045138889,93.01059865951538L129.12311631944445,139.26993477344513L129.446328125,132.35070276260376L129.60793402777776,61.161601066589355L129.76953993055557,96.31817829608917L130.09275173611113,56.0578590631485L130.41596354166666,123.65332782268524L130.73917534722221,118.28064465522766L130.90078125,71.72991693019867L131.06238715277777,151.406764626503L131.5472048611111,106.64605915546417L132.19362847222223,65.56157219409943L132.355234375,52.34387147426605L132.5168402777778,91.98739421367645L132.67844618055557,68.33937191963196L132.84005208333332,61.77445185184479L133.16326388888888,70.94767498970032L133.32486979166666,107.09530019760132L133.8096875,162.31960201263428L133.97129340277777,80.60814034938812L134.29450520833333,62.91246163845062L134.6177170138889,79.98630094528198L134.77932291666667,62.55614519119263L135.264140625,114.36443424224854L135.58735243055554,96.41336059570312L135.74895833333335,112.12177383899689L135.9105642361111,83.27486944198608L136.0721701388889,65.06880176067352L136.23377604166666,127.76654934883118L136.39538194444444,77.7700366973877L136.55698784722222,108.87690353393555L136.71859375,114.4193365573883L136.88019965277778,81.51345884799957L137.04180555555556,84.0989316701889L137.20341145833333,74.92703783512115L137.36501736111111,105.29747092723846L137.5266232638889,89.428781747818L138.17304687499998,87.46122372150421L138.3346527777778,51.15585458278656L138.65786458333335,102.82743644714355L138.9810763888889,101.14335751533508L139.14268229166666,61.46499860286713L139.30428819444444,75.87508392333984L139.46589409722222,94.43466174602509L139.6275,93.37299191951752L139.78910590277778,84.94211053848267L139.95071180555556,87.71912956237793L140.11231770833334,98.40288376808167L140.27392361111112,89.93360030651093L140.59713541666667,78.0923398733139L140.75874131944443,91.96530246734619L140.92034722222223,78.47524237632751L141.08195312499998,89.06119787693024L141.2435590277778,116.12618243694305L141.56677083333335,111.97035992145538L141.7283767361111,126.28087413311005L141.88998263888888,76.02035772800446L142.21319444444444,108.1854761838913L142.37480034722222,81.77885520458221L142.53640625,121.14413166046143L142.69801215277778,70.03665947914124L142.85961805555556,90.37855803966522L143.02122395833334,63.06533145904541L143.18282986111112,91.40743839740753L143.3444357638889,80.37089145183563L143.50604166666668,102.78928756713867L143.99085937499999,80.08515465259552L144.31407118055554,92.66042232513428L144.6372829861111,84.00771617889404L145.12210069444444,109.66391408443451L145.28370659722222,99.33483052253723L145.4453125,90.41531431674957L145.60691840277778,116.38605058193207L145.76852430555553,84.329829454422L145.93013020833334,85.04199814796448L146.09173611111112,68.64595556259155L146.2533420138889,67.14131140708923L146.41494791666665,59.84974801540375L146.57655381944446,85.93579602241516L146.73815972222224,101.77004992961884L146.89976562500001,97.08668410778046L147.06137152777777,108.1900759935379L147.5461892361111,122.47900485992432L147.70779513888888,89.5738867521286L147.86940104166666,83.85613346099854L148.19261284722222,137.5875860452652L148.35421875,86.46525943279266L148.67743055555553,82.84845864772797L148.83903645833334,83.88584232330322L149.00064236111112,102.99611020088196L149.1622482638889,82.66214525699615L149.32385416666665,110.07945835590363L149.48546006944443,82.10381698608398L149.97027777777777,67.10871183872223L150.13188368055555,125.50800061225891L150.29348958333335,70.66765630245209L150.93991319444444,87.8475866317749L151.10151909722222,161.74306440353394L151.42473090277778,118.737988114357L151.58633680555553,111.34809851646423L151.7479427083333,97.42506551742554L151.90954861111112,70.49427723884583L152.23276041666665,63.37828731536865L152.55597222222224,72.54832434654236L152.71757812500002,71.87806034088135L152.87918402777777,79.3023852109909L153.20239583333333,81.14581167697906L153.36400173611113,91.0255697965622L153.52560763888889,116.09535527229309L153.68721354166667,135.81438052654266L153.84881944444444,144.017782330513L154.01042534722222,92.83255648612976L154.17203125,100.69491827487946L154.33363715277778,78.24044108390808L154.81845486111112,101.26959908008575L154.9800607638889,72.71469819545746L155.30327256944443,88.51004362106323L155.62648437500002,92.68451857566833L155.78809027777777,85.5572190284729L155.94969618055555,69.64770126342773L156.11130208333333,84.3473424911499L156.4345138888889,64.13586330413818L156.59611979166667,73.86081039905548L156.75772569444445,71.9323718547821L156.9193315972222,88.95073914527893L157.0809375,69.0475527048111L157.24254340277778,99.34113943576813L157.40414930555556,87.7629543542862L157.56575520833331,94.7661645412445L158.05057291666668,125.99334383010864L158.21217881944443,94.68319916725159L158.53539062500002,89.6299706697464L158.69699652777777,113.29014658927917L158.85860243055555,98.61409521102905L159.02020833333333,126.03792822360992L159.3434201388889,92.03792881965637L159.66663194444445,106.45681285858154L159.8282378472222,77.91134369373322L159.98984375,67.30430924892426L160.15144965277779,72.86577451229095L160.31305555555556,87.99138343334198L160.47466145833332,158.3362934589386L160.6362673611111,97.2007931470871L160.7978732638889,78.77277410030365L161.12108506944443,68.67996883392334L161.2826909722222,81.83479142189026L161.44429687500002,116.88475012779236L161.76750868055555,150.76393067836761L162.0907204861111,65.28400111198425L162.2523263888889,122.8065619468689L162.41393229166667,114.68734931945801L162.57553819444445,73.91533291339874L162.7371440972222,72.14389979839325L162.89875,82.2536906003952L163.22196180555557,88.31102800369263L163.38356770833332,101.87879955768585L163.5451736111111,118.1463006734848L163.86838541666668,68.14755141735077L164.02999131944443,104.73011183738708L164.353203125,151.7813959121704L164.83802083333333,116.94089734554291L165.1612326388889,119.40312480926514L165.32283854166667,103.7560704946518L165.48444444444445,55.089324831962585L165.9692621527778,61.32685661315918L166.13086805555557,70.61313378810883L166.4540798611111,76.63829362392426L166.6156857638889,76.08743476867676L166.93889756944444,79.94323575496674L167.10050347222221,84.04523205757141L167.262109375,70.01095962524414L167.58532118055555,127.18469452857971L167.74692708333333,109.46721947193146L168.23174479166667,78.07613503932953L168.39335069444445,133.55671799182892L168.71656249999998,100.0787125825882L168.8781684027778,89.96155786514282L169.03977430555557,84.16117680072784L169.20138020833332,89.79317951202393L169.52459201388888,114.57665848731995L169.68619791666669,75.8471052646637L169.84780381944444,78.48452639579773L170.00940972222222,93.55221569538116L170.3326215277778,65.24631643295288L170.65583333333333,95.16453337669373L170.97904513888886,175.2673909664154L171.14065104166667,60.07157278060913L171.30225694444445,92.23287212848663L171.46386284722223,77.34284520149231L171.62546874999998,87.64924621582031L172.2718923611111,46.45349872112274L172.43349826388888,81.64930093288422L172.5951041666667,118.26990473270416L172.75671006944444,84.85330045223236L173.24152777777778,82.11584401130676L173.40313368055556,230.1373913884163L173.56473958333333,115.36048293113708L173.72634548611111,90.89320921897888L173.88795138888887,101.53948974609375L174.04955729166667,86.19365966320038L174.21116319444445,100.38510632514954L174.37276909722223,94.08224880695343L174.53437499999998,71.12288975715637L174.69598090277776,102.80258059501648L175.01919270833335,84.6602350473404L175.1807986111111,86.6959673166275L175.34240451388888,92.98819041252136L175.34240451388888,92.98819041252136L175.5040104166667,103.30750465393066L175.66561631944447,108.75760388374329L175.82722222222222,115.99194395542145L176.15043402777778,110.03979027271271L176.31203993055556,82.09624207019806L176.47364583333334,73.4747850894928L176.7968576388889,106.42596459388733L176.95846354166665,111.85511147975922L177.28167534722223,60.86440694332123L177.44328124999998,95.38775074481964L178.0897048611111,95.57292473316193L178.25131076388888,115.73410141468048L178.57452256944447,74.8060290813446L178.73612847222222,86.09001624584198L178.897734375,92.4666395187378L179.05934027777778,127.17479860782623L179.22094618055556,83.04705226421356L179.38255208333334,122.22620522975922L179.54415798611112,96.08844101428986L179.86736979166665,88.90858125686646L180.02897569444445,95.06059455871582L180.19058159722223,70.78885495662689L180.35218749999999,83.5113376379013L180.67539930555554,84.74663972854614L180.83700520833335,119.87298059463501L180.9986111111111,91.36574470996857L181.16021701388888,129.41115009784698L181.32182291666666,104.24489521980286L181.48342881944447,111.14068508148193L182.45306423611112,95.44145035743713L182.6146701388889,79.18616616725922L182.77627604166665,89.77874708175659L182.93788194444446,92.5254453420639L183.09948784722224,81.95037746429443L183.74591145833335,128.86997616291046L184.23072916666666,97.3697201013565L184.39233506944444,82.93872463703156L184.715546875,126.08135211467743L185.20036458333334,74.2786123752594L185.36197048611112,74.62940061092377L185.68518229166665,86.98854053020477L185.84678819444443,97.88255667686462L186.00839409722224,71.29126811027527L186.17000000000002,154.01911890506744L186.49321180555555,83.7227178812027L186.65481770833335,99.00459372997284L186.8164236111111,123.41137361526489L186.97802951388888,74.80495297908783L187.13963541666666,88.86243546009064L187.30124131944444,107.44328212738037L187.46284722222222,72.0660617351532L187.624453125,67.26835477352142L187.78605902777778,81.16935932636261L188.1092708333333,73.0362628698349L188.27087673611112,137.31480467319489L188.59408854166665,119.30745720863342L188.91730034722224,119.05229437351227L189.07890625000002,107.52086699008942L189.40211805555555,68.52733111381531L189.72532986111113,79.25615501403809L189.88693576388889,101.65522348880768L190.04854166666667,85.86335957050323L190.21014756944444,111.32619667053223L190.69496527777778,133.89699840545654L190.85657118055556,94.67786085605621L191.0181770833333,80.02297282218933L191.17978298611112,149.14981949329376L191.50299479166665,109.3304911851883L191.66460069444443,82.8394067287445L191.98781250000002,125.2892564535141L192.14941840277777,86.14962387084961L192.95744791666667,131.86960065364838L193.11905381944445,94.64876389503479L193.442265625,79.66157126426697L193.60387152777778,101.16456305980682L193.92708333333331,80.70404005050659L194.08868923611112,87.99583554267883L194.2502951388889,87.830242395401L194.41190104166668,82.43947649002075L194.7351128472222,105.81083500385284L194.89671875000002,86.2228410243988L195.05832465277777,100.54685926437378L195.38153645833333,78.20275640487671L195.54314236111114,135.36100387573242L195.7047482638889,144.52089178562164L195.86635416666667,105.19420731067657L196.1895659722222,94.88561189174652L196.351171875,117.0829428434372L196.67438368055556,108.85586678981781L197.1592013888889,86.98060691356659L197.48241319444443,105.62160980701447L197.6440190972222,82.7182502746582L197.80562500000002,96.85829722881317L197.96723090277777,50.221333622932434L198.29044270833333,123.27825343608856L198.6136545138889,62.897818207740784L198.77526041666667,183.88368898630142L198.93686631944445,91.24482035636902L199.0984722222222,93.19218564033508L199.260078125,223.6306335926056L199.4216840277778,62.12201178073883L199.58328993055557,81.18950986862183L199.74489583333332,70.09882020950317L199.9065017361111,87.07450211048126L200.39131944444443,139.004833817482L200.5529253472222,92.66092872619629L200.71453125,88.93177020549774L201.5225607638889,75.12738275527954L201.68416666666667,85.98958003520966L201.84577256944445,110.43552160263062L202.00737847222223,68.35964906215668L202.3305902777778,91.69828140735626L202.49219618055557,73.3195731639862L202.65380208333332,126.84751582145691L202.8154079861111,59.76939904689789L202.9770138888889,146.6099227666855L203.7850434027778,73.67648041248322L203.94664930555555,162.12311840057373L204.10825520833333,86.79224681854248L204.2698611111111,103.40135765075684L204.43146701388886,94.43404984474182L204.59307291666667,113.59166622161865L204.91628472222223,113.07391333580017L205.07789062499998,124.84567022323608L205.2394965277778,68.77194392681122L205.40110243055557,153.06159889698029L205.56270833333332,94.30054986476898L205.7243142361111,114.84140074253082L205.88592013888888,85.05218946933746L206.04752604166669,122.01499378681183L206.20913194444444,106.1242972612381L206.53234375,108.21018433570862L206.6939496527778,102.68237364292145L206.85555555555555,136.73088204860687L207.01716145833333,78.04267036914825L207.1787673611111,91.12138509750366L207.34037326388886,118.8914909362793L207.50197916666667,92.28667724132538L207.82519097222223,87.17211091518402L208.14840277777776,97.39569425582886L208.47161458333335,68.73546195030212L208.6332204861111,60.78312957286835L208.79482638888888,104.11681795120239L209.11803819444444,76.74484884738922L209.44125,115.95027136802673L209.60285590277778,85.972172498703L209.92606770833333,100.67037892341614L210.24927951388887,88.31497371196747L210.41088541666667,116.7268795967102L210.57249131944445,125.29394066333771L210.89570312499998,58.78520858287811L211.38052083333335,90.91213595867157L211.5421267361111,91.56322002410889L212.02694444444447,73.87992703914642L212.35015625,124.26565110683441L212.83497395833334,83.37013614177704L213.31979166666665,148.45927834510803L213.48139756944445,73.267160654068L213.64300347222223,112.68227541446686L213.80460937499998,84.86929428577423L213.96621527777776,134.4226005077362L214.12782118055557,89.38772106170654L214.28942708333335,96.17210268974304L214.4510329861111,114.30727422237396L214.61263888888888,103.66255509853363L214.77424479166666,106.7209221124649L215.09745659722222,91.06523787975311L215.2590625,106.32248997688293L215.42066840277778,122.98909842967987L215.90548611111112,93.62779605388641L216.0670920138889,64.97817707061768L216.39030381944445,108.83706665039062L216.55190972222223,109.04365718364716L216.71351562499999,94.1433334350586L216.87512152777776,81.19126117229462L217.19833333333335,106.61295318603516L217.68315104166666,95.38026022911072L217.84475694444447,95.83234977722168L218.00636284722222,102.77027642726898L218.16796875,78.78665792942047L218.32957465277778,176.69151735305786L218.49118055555553,97.47275161743164L218.65278645833334,95.99169731140137L218.81439236111112,80.21310532093048L218.9759982638889,131.72114074230194L219.13760416666665,102.14071440696716L219.29921006944446,78.56656336784363L219.46081597222224,91.84785962104797L219.62242187500001,105.91171431541443L219.78402777777777,115.08126604557037L220.10723958333335,120.46926784515381L220.2688454861111,88.86017775535583L220.43045138888888,89.92395758628845L220.59205729166666,116.0222225189209L220.91526909722222,117.29440748691559L221.076875,106.79941427707672L221.72329861111112,97.98759269714355L222.20811631944443,83.59523141384125L222.69293402777777,109.78794014453888L222.85453993055555,95.9042798280716L223.01614583333335,89.39031636714935L223.01614583333335,89.39031636714935L223.33935763888888,106.04090988636017L223.50096354166666,140.64827406406403L223.66256944444444,70.33815801143646L223.82417534722222,156.68017208576202L223.98578125,149.14389038085938L224.30899305555553,92.14648854732513L224.4705989583333,103.86384952068329L224.63220486111112,78.45924854278564L224.7938107638889,119.20429909229279L224.95541666666665,97.574622631073L225.11702256944443,99.25429165363312L225.27862847222224,123.1720358133316L225.44023437500002,108.66265368461609L225.60184027777777,141.3489010334015L225.76344618055555,127.45669519901276L225.92505208333333,132.26440358161926L226.24826388888889,85.87030148506165L226.40986979166667,93.76838564872742L226.73308159722222,82.19682598114014L226.8946875,92.0972410440445L227.05629340277778,86.18747735023499L227.3795052083333,115.16940093040466L227.54111111111112,74.06474232673645L227.7027170138889,138.09432470798492L227.86432291666665,103.15178632736206L228.02592881944443,109.08933877944946L228.18753472222224,158.2091234922409L228.83395833333333,129.2803509235382L229.1571701388889,99.18364870548248L229.6419878472222,234.35844469070435L229.80359375,98.92810606956482L230.12680555555556,115.78166091442108L230.28841145833331,114.89955246448517L230.45001736111112,133.25922846794128L230.77322916666668,84.33976757526398L230.93483506944443,106.70351457595825L231.0964409722222,168.44382655620575L231.25804687500002,163.550262093544L231.41965277777777,88.85969245433807L231.58125868055555,166.88942849636078L231.74286458333333,85.61638355255127L231.90447048611114,77.0725325345993L232.0660763888889,123.62480056285858L232.22768229166667,89.76410365104675L232.5508940972222,86.5359023809433L232.7125,80.52285397052765L232.87410590277779,96.23544502258301L233.19731770833332,66.35419535636902L233.3589236111111,114.57399988174438L233.5205295138889,103.030482172966L233.68213541666668,92.32514262199402L233.84374131944443,109.58400821685791L234.0053472222222,156.34936559200287L234.32855902777777,124.53706097602844L234.49016493055555,98.89493680000305L234.65177083333333,94.73951518535614L234.8133767361111,84.0771564245224L234.9749826388889,114.97188341617584L235.13658854166667,97.06708216667175L235.29819444444445,99.14201831817627L235.62140625,86.17258071899414L235.7830121527778,131.14833784103394L235.94461805555557,97.42858922481537L236.10622395833332,83.75411474704742L236.2678298611111,93.90401673316956L236.4294357638889,75.92764413356781L236.59104166666668,86.37134313583374L236.75264756944443,96.33058512210846L236.9142534722222,106.16896605491638L237.2374652777778,88.55929112434387L237.39907118055555,120.78367960453033L237.7222829861111,105.23748350143433L238.36870659722223,83.2493805885315L238.53031249999998,134.51373159885406L238.85352430555557,154.28755366802216L239.01513020833332,98.77483534812927L239.1767361111111,78.03336524963379L239.49994791666668,96.50970339775085L239.82315972222221,100.08493709564209L239.984765625,124.19076704978943L240.1463715277778,80.92822802066803L240.46958333333333,92.88733220100403L240.6311892361111,82.32403814792633L240.79279513888886,122.74321961402893L240.95440104166667,158.37657344341278L241.27761284722223,98.69486618041992L241.43921874999998,125.9071923494339L241.6008246527778,105.65279567241669L241.76243055555557,92.16064667701721L241.92403645833332,156.4239753484726L242.24724826388888,105.48431181907654L242.40885416666669,121.42514204978943L242.57046006944444,93.27418041229248L242.893671875,78.81119728088379L243.0552777777778,123.6602486371994L243.5400954861111,77.09276747703552L243.86330729166667,88.7660504579544L244.02491319444445,115.0134083032608L244.34812499999998,100.96940875053406L244.50973090277776,101.19414532184601L244.67133680555557,114.79365134239197L244.83294270833335,96.22175109386444L244.9945486111111,117.6430013179779L245.15615451388888,113.76660668849945L245.3177604166667,150.78184461593628L245.802578125,100.57072341442108L245.96418402777778,144.9042373895645L246.12578993055556,89.83694100379944L246.28739583333333,131.95796763896942L246.44900173611111,155.47907316684723L246.61060763888887,99.41285848617554L246.77221354166667,184.33629548549652L247.09542534722223,105.81697511672974L247.25703124999998,100.35866796970367L247.41863715277776,122.3807841539383L247.58024305555557,87.92907500267029L247.74184895833335,148.13931727409363L247.9034548611111,114.87592041492462L248.38827256944447,89.74777221679688L248.711484375,116.20296549797058L248.87309027777778,97.59120726585388L249.03469618055556,98.02951848506927L249.19630208333334,124.08676493167877L249.35790798611112,104.87888824939728L249.5195138888889,119.43979668617249L249.68111979166665,115.08354485034943L249.84272569444445,128.32150161266327L250.00433159722223,76.05519390106201L250.16593749999998,101.18361639976501L250.65075520833335,111.84688246250153L250.8123611111111,117.12026882171631L251.29717881944447,100.63495194911957L251.45878472222222,97.52847683429718L251.78199652777778,79.90964448451996L251.94360243055556,110.37599837779999L252.10520833333334,82.09991347789764L252.4284201388889,126.0086624622345L252.59002604166665,122.6530169248581L252.75163194444445,74.39487361907959L253.07484374999999,136.24207842350006L253.23644965277776,87.72830808162689L253.39805555555554,99.66143810749054L253.7212673611111,160.16769289970398L253.88287326388888,111.21202433109283L254.04447916666666,97.12369358539581L254.36769097222222,93.23862683773041L254.529296875,114.32926046848297L254.69090277777778,61.81893074512482L255.01411458333334,132.99604761600494L255.17572048611112,126.80499923229218L255.49893229166665,143.37315487861633L255.66053819444446,86.68164038658142L255.82214409722224,86.11529409885406L255.98375000000001,116.73209130764008L256.1453559027778,100.80204319953918L256.30696180555555,94.5887553691864L256.6301736111111,110.4329684972763L256.7917795138889,114.07390773296356L257.2765972222222,90.89793562889099L257.5998090277778,129.34422075748444L258.0846267361111,82.79670023918152L258.7310503472222,97.48963165283203L259.53907986111113,127.65792632102966L260.02389756944444,96.38797724246979L260.18550347222225,130.78843438625336L260.347109375,109.93361485004425L260.50871527777775,140.2926117181778L260.67032118055556,84.93234121799469L260.8319270833333,120.78566300868988L261.15513888888887,82.31091392040253L261.3167447916667,166.92664897441864L261.63995659722224,116.98970174789429L261.8015625,108.84924137592316L262.12477430555555,135.04169690608978L262.2863802083333,75.99077546596527L262.4479861111111,72.21715915203094L262.6095920138889,71.10295021533966L262.9328038194444,69.03193867206573L263.0944097222222,57.659225821495056L263.25601562500003,141.46284127235413L263.4176215277778,99.86627733707428L263.57922743055553,65.96352803707123L263.74083333333334,133.73803067207336L263.90243923611115,99.51475059986115L264.0640451388889,84.6888256072998L264.22565104166665,132.9742934703827L264.38725694444446,92.64947140216827L264.5488628472222,140.26859986782074L264.87207465277777,135.65657329559326L265.0336805555556,118.30075299739838L265.35689236111114,120.76893067359924L265.84171006944445,108.56308257579803L266.164921875,106.40391504764557L266.6497395833333,110.56729137897491" style="fill: none;" fill="none"></path></g></g></g></g></g></g><g transform="translate(39, 177)" clip-path="url(#clip_1)"><clipPath id="clip_1"><rect width="290" height="23"></rect></clipPath><g><g><line x1="0" y1="0" x2="0" y2="5" style="visibility: inherit;" fill="rgb(0, 0, 0)" stroke="rgb(204, 204, 204)" stroke-width="1px"></line><line x1="32.32118055555556" y1="0" x2="32.32118055555556" y2="5" style="visibility: inherit;" fill="rgb(0, 0, 0)" stroke="rgb(204, 204, 204)" stroke-width="1px"></line><line x1="64.64236111111111" y1="0" x2="64.64236111111111" y2="5" style="visibility: inherit;" fill="rgb(0, 0, 0)" stroke="rgb(204, 204, 204)" stroke-width="1px"></line><line x1="96.96354166666666" y1="0" x2="96.96354166666666" y2="5" style="visibility: inherit;" fill="rgb(0, 0, 0)" stroke="rgb(204, 204, 204)" stroke-width="1px"></line><line x1="129.28472222222223" y1="0" x2="129.28472222222223" y2="5" style="visibility: inherit;" fill="rgb(0, 0, 0)" stroke="rgb(204, 204, 204)" stroke-width="1px"></line><line x1="161.60590277777777" y1="0" x2="161.60590277777777" y2="5" style="visibility: inherit;" fill="rgb(0, 0, 0)" stroke="rgb(204, 204, 204)" stroke-width="1px"></line><line x1="193.92708333333331" y1="0" x2="193.92708333333331" y2="5" style="visibility: inherit;" fill="rgb(0, 0, 0)" stroke="rgb(204, 204, 204)" stroke-width="1px"></line><line x1="226.24826388888889" y1="0" x2="226.24826388888889" y2="5" style="visibility: inherit;" fill="rgb(0, 0, 0)" stroke="rgb(204, 204, 204)" stroke-width="1px"></line><line x1="258.56944444444446" y1="0" x2="258.56944444444446" y2="5" style="visibility: inherit;" fill="rgb(0, 0, 0)" stroke="rgb(204, 204, 204)" stroke-width="1px"></line><line x1="290.890625" y1="0" x2="290.890625" y2="5" style="visibility: inherit;" fill="rgb(0, 0, 0)" stroke="rgb(204, 204, 204)" stroke-width="1px"></line></g><g transform="translate(0, 8)"><text x="0" y="0" dx="0em" dy="0.95em" style="text-anchor: middle; visibility: hidden; font-family: &quot;Helvetica Neue&quot;, sans-serif; font-size: 12px; font-weight: 200;" fill="rgb(50, 49, 63)" stroke="none" stroke-width="1px">-200</text><text x="32.32118055555556" y="0" dx="0em" dy="0.95em" style="text-anchor: middle; visibility: inherit; font-family: &quot;Helvetica Neue&quot;, sans-serif; font-size: 12px; font-weight: 200;" fill="rgb(50, 49, 63)" stroke="none" stroke-width="1px">0</text><text x="64.64236111111111" y="0" dx="0em" dy="0.95em" style="text-anchor: middle; visibility: inherit; font-family: &quot;Helvetica Neue&quot;, sans-serif; font-size: 12px; font-weight: 200;" fill="rgb(50, 49, 63)" stroke="none" stroke-width="1px">200</text><text x="96.96354166666666" y="0" dx="0em" dy="0.95em" style="text-anchor: middle; visibility: inherit; font-family: &quot;Helvetica Neue&quot;, sans-serif; font-size: 12px; font-weight: 200;" fill="rgb(50, 49, 63)" stroke="none" stroke-width="1px">400</text><text x="129.28472222222223" y="0" dx="0em" dy="0.95em" style="text-anchor: middle; visibility: inherit; font-family: &quot;Helvetica Neue&quot;, sans-serif; font-size: 12px; font-weight: 200;" fill="rgb(50, 49, 63)" stroke="none" stroke-width="1px">600</text><text x="161.60590277777777" y="0" dx="0em" dy="0.95em" style="text-anchor: middle; visibility: inherit; font-family: &quot;Helvetica Neue&quot;, sans-serif; font-size: 12px; font-weight: 200;" fill="rgb(50, 49, 63)" stroke="none" stroke-width="1px">800</text><text x="193.92708333333331" y="0" dx="0em" dy="0.95em" style="text-anchor: middle; visibility: inherit; font-family: &quot;Helvetica Neue&quot;, sans-serif; font-size: 12px; font-weight: 200;" fill="rgb(50, 49, 63)" stroke="none" stroke-width="1px">1k</text><text x="226.24826388888889" y="0" dx="0em" dy="0.95em" style="text-anchor: middle; visibility: inherit; font-family: &quot;Helvetica Neue&quot;, sans-serif; font-size: 12px; font-weight: 200;" fill="rgb(50, 49, 63)" stroke="none" stroke-width="1px">1.2k</text><text x="258.56944444444446" y="0" dx="0em" dy="0.95em" style="text-anchor: middle; visibility: inherit; font-family: &quot;Helvetica Neue&quot;, sans-serif; font-size: 12px; font-weight: 200;" fill="rgb(50, 49, 63)" stroke="none" stroke-width="1px">1.4k</text><text x="290.890625" y="0" dx="0em" dy="0.95em" style="text-anchor: middle; visibility: hidden; font-family: &quot;Helvetica Neue&quot;, sans-serif; font-size: 12px; font-weight: 200;" fill="rgb(50, 49, 63)" stroke="none" stroke-width="1px">1.6k</text></g><line x1="0" y1="0" x2="290.890625" y2="0" fill="rgb(0, 0, 0)" stroke="rgb(204, 204, 204)" stroke-width="1px"></line></g></g></g></g></svg>