<svg viewBox="0 0 330 200" xmlns="http://www.w3.org/2000/svg"><g><g><g><g><g><line x1="39.15625" y1="177" x2="34.15625" y2="177" style="visibility: inherit;" fill="rgb(0, 0, 0)" stroke="rgb(204, 204, 204)" stroke-width="1px"></line><line x1="39.15625" y1="163.3846153846154" x2="34.15625" y2="163.3846153846154" style="visibility: inherit;" fill="rgb(0, 0, 0)" stroke="rgb(204, 204, 204)" stroke-width="1px"></line><line x1="39.15625" y1="149.76923076923077" x2="34.15625" y2="149.76923076923077" style="visibility: inherit;" fill="rgb(0, 0, 0)" stroke="rgb(204, 204, 204)" stroke-width="1px"></line><line x1="39.15625" y1="136.15384615384616" x2="34.15625" y2="136.15384615384616" style="visibility: inherit;" fill="rgb(0, 0, 0)" stroke="rgb(204, 204, 204)" stroke-width="1px"></line><line x1="39.15625" y1="122.53846153846153" x2="34.15625" y2="122.53846153846153" style="visibility: inherit;" fill="rgb(0, 0, 0)" stroke="rgb(204, 204, 204)" stroke-width="1px"></line><line x1="39.15625" y1="108.92307692307692" x2="34.15625" y2="108.92307692307692" style="visibility: inherit;" fill="rgb(0, 0, 0)" stroke="rgb(204, 204, 204)" stroke-width="1px"></line><line x1="39.15625" y1="95.3076923076923" x2="34.15625" y2="95.3076923076923" style="visibility: inherit;" fill="rgb(0, 0, 0)" stroke="rgb(204, 204, 204)" stroke-width="1px"></line><line x1="39.15625" y1="81.6923076923077" x2="34.15625" y2="81.6923076923077" style="visibility: inherit;" fill="rgb(0, 0, 0)" stroke="rgb(204, 204, 204)" stroke-width="1px"></line><line x1="39.15625" y1="68.07692307692307" x2="34.15625" y2="68.07692307692307" style="visibility: inherit;" fill="rgb(0, 0, 0)" stroke="rgb(204, 204, 204)" stroke-width="1px"></line><line x1="39.15625" y1="54.46153846153847" x2="34.15625" y2="54.46153846153847" style="visibility: inherit;" fill="rgb(0, 0, 0)" stroke="rgb(204, 204, 204)" stroke-width="1px"></line><line x1="39.15625" y1="40.84615384615384" x2="34.15625" y2="40.84615384615384" style="visibility: inherit;" fill="rgb(0, 0, 0)" stroke="rgb(204, 204, 204)" stroke-width="1px"></line><line x1="39.15625" y1="27.230769230769226" x2="34.15625" y2="27.230769230769226" style="visibility: inherit;" fill="rgb(0, 0, 0)" stroke="rgb(204, 204, 204)" stroke-width="1px"></line><line x1="39.15625" y1="13.615384615384613" x2="34.15625" y2="13.615384615384613" style="visibility: inherit;" fill="rgb(0, 0, 0)" stroke="rgb(204, 204, 204)" stroke-width="1px"></line><line x1="39.15625" y1="0" x2="34.15625" y2="0" style="visibility: inherit;" fill="rgb(0, 0, 0)" stroke="rgb(204, 204, 204)" stroke-width="1px"></line></g><g transform="translate(29.15625, 0)"><text x="0" y="177" dx="0em" dy="0.3em" style="text-anchor: end; visibility: hidden; font-family: &quot;Helvetica Neue&quot;, sans-serif; font-size: 12px; font-weight: 200;" fill="rgb(50, 49, 63)" stroke="none" stroke-width="1px">60</text><text x="0" y="163.3846153846154" dx="0em" dy="0.3em" style="text-anchor: end; visibility: inherit; font-family: &quot;Helvetica Neue&quot;, sans-serif; font-size: 12px; font-weight: 200;" fill="rgb(50, 49, 63)" stroke="none" stroke-width="1px">65</text><text x="0" y="149.76923076923077" dx="0em" dy="0.3em" style="text-anchor: end; visibility: hidden; font-family: &quot;Helvetica Neue&quot;, sans-serif; font-size: 12px; font-weight: 200;" fill="rgb(50, 49, 63)" stroke="none" stroke-width="1px">70</text><text x="0" y="136.15384615384616" dx="0em" dy="0.3em" style="text-anchor: end; visibility: inherit; font-family: &quot;Helvetica Neue&quot;, sans-serif; font-size: 12px; font-weight: 200;" fill="rgb(50, 49, 63)" stroke="none" stroke-width="1px">75</text><text x="0" y="122.53846153846153" dx="0em" dy="0.3em" style="text-anchor: end; visibility: hidden; font-family: &quot;Helvetica Neue&quot;, sans-serif; font-size: 12px; font-weight: 200;" fill="rgb(50, 49, 63)" stroke="none" stroke-width="1px">80</text><text x="0" y="108.92307692307692" dx="0em" dy="0.3em" style="text-anchor: end; visibility: inherit; font-family: &quot;Helvetica Neue&quot;, sans-serif; font-size: 12px; font-weight: 200;" fill="rgb(50, 49, 63)" stroke="none" stroke-width="1px">85</text><text x="0" y="95.3076923076923" dx="0em" dy="0.3em" style="text-anchor: end; visibility: hidden; font-family: &quot;Helvetica Neue&quot;, sans-serif; font-size: 12px; font-weight: 200;" fill="rgb(50, 49, 63)" stroke="none" stroke-width="1px">90</text><text x="0" y="81.6923076923077" dx="0em" dy="0.3em" style="text-anchor: end; visibility: inherit; font-family: &quot;Helvetica Neue&quot;, sans-serif; font-size: 12px; font-weight: 200;" fill="rgb(50, 49, 63)" stroke="none" stroke-width="1px">95</text><text x="0" y="68.07692307692307" dx="0em" dy="0.3em" style="text-anchor: end; visibility: hidden; font-family: &quot;Helvetica Neue&quot;, sans-serif; font-size: 12px; font-weight: 200;" fill="rgb(50, 49, 63)" stroke="none" stroke-width="1px">100</text><text x="0" y="54.46153846153847" dx="0em" dy="0.3em" style="text-anchor: end; visibility: inherit; font-family: &quot;Helvetica Neue&quot;, sans-serif; font-size: 12px; font-weight: 200;" fill="rgb(50, 49, 63)" stroke="none" stroke-width="1px">105</text><text x="0" y="40.84615384615384" dx="0em" dy="0.3em" style="text-anchor: end; visibility: hidden; font-family: &quot;Helvetica Neue&quot;, sans-serif; font-size: 12px; font-weight: 200;" fill="rgb(50, 49, 63)" stroke="none" stroke-width="1px">110</text><text x="0" y="27.230769230769226" dx="0em" dy="0.3em" style="text-anchor: end; visibility: inherit; font-family: &quot;Helvetica Neue&quot;, sans-serif; font-size: 12px; font-weight: 200;" fill="rgb(50, 49, 63)" stroke="none" stroke-width="1px">115</text><text x="0" y="13.615384615384613" dx="0em" dy="0.3em" style="text-anchor: end; visibility: hidden; font-family: &quot;Helvetica Neue&quot;, sans-serif; font-size: 12px; font-weight: 200;" fill="rgb(50, 49, 63)" stroke="none" stroke-width="1px">120</text><text x="0" y="0" dx="0em" dy="0.3em" style="text-anchor: end; visibility: hidden; font-family: &quot;Helvetica Neue&quot;, sans-serif; font-size: 12px; font-weight: 200;" fill="rgb(50, 49, 63)" stroke="none" stroke-width="1px">125</text></g><line x1="39.15625" y1="0" x2="39.15625" y2="177" fill="rgb(0, 0, 0)" stroke="rgb(204, 204, 204)" stroke-width="1px"></line></g></g><g transform="translate(39, 0)" clip-path="url(#clip_0)"><clipPath id="clip_0"><rect width="290" height="177"></rect></clipPath><g><g><g><line x1="0" y1="0" x2="0" y2="177" fill="rgb(0, 0, 0)" stroke="rgb(60, 60, 60)" stroke-width="1px" opacity="0.25"></line><line x1="32.31597222222222" y1="0" x2="32.31597222222222" y2="177" fill="rgb(0, 0, 0)" stroke="rgb(60, 60, 60)" stroke-width="1px" opacity="0.25"></line><line x1="64.63194444444444" y1="0" x2="64.63194444444444" y2="177" fill="rgb(0, 0, 0)" stroke="rgb(60, 60, 60)" stroke-width="1px" opacity="0.25"></line><line x1="96.94791666666666" y1="0" x2="96.94791666666666" y2="177" fill="rgb(0, 0, 0)" stroke="rgb(60, 60, 60)" stroke-width="1px" opacity="0.25"></line><line x1="129.26388888888889" y1="0" x2="129.26388888888889" y2="177" fill="rgb(0, 0, 0)" stroke="rgb(60, 60, 60)" stroke-width="1px" opacity="0.25"></line><line x1="161.57986111111111" y1="0" x2="161.57986111111111" y2="177" fill="rgb(0, 0, 0)" stroke="rgb(60, 60, 60)" stroke-width="1px" opacity="0.25"></line><line x1="193.89583333333331" y1="0" x2="193.89583333333331" y2="177" fill="rgb(0, 0, 0)" stroke="rgb(60, 60, 60)" stroke-width="1px" opacity="0.25"></line><line x1="226.21180555555557" y1="0" x2="226.21180555555557" y2="177" fill="rgb(0, 0, 0)" stroke="rgb(60, 60, 60)" stroke-width="1px" opacity="0.25"></line><line x1="258.52777777777777" y1="0" x2="258.52777777777777" y2="177" fill="rgb(0, 0, 0)" stroke="rgb(60, 60, 60)" stroke-width="1px" opacity="0.25"></line><line x1="290.84375" y1="0" x2="290.84375" y2="177" fill="rgb(0, 0, 0)" stroke="rgb(60, 60, 60)" stroke-width="1px" opacity="0.25"></line></g><g><line x1="0" y1="177" x2="290.84375" y2="177" fill="rgb(0, 0, 0)" stroke="rgb(60, 60, 60)" stroke-width="1px" opacity="0.25"></line><line x1="0" y1="163.3846153846154" x2="290.84375" y2="163.3846153846154" fill="rgb(0, 0, 0)" stroke="rgb(60, 60, 60)" stroke-width="1px" opacity="0.25"></line><line x1="0" y1="149.76923076923077" x2="290.84375" y2="149.76923076923077" fill="rgb(0, 0, 0)" stroke="rgb(60, 60, 60)" stroke-width="1px" opacity="0.25"></line><line x1="0" y1="136.15384615384616" x2="290.84375" y2="136.15384615384616" fill="rgb(0, 0, 0)" stroke="rgb(60, 60, 60)" stroke-width="1px" opacity="0.25"></line><line x1="0" y1="122.53846153846153" x2="290.84375" y2="122.53846153846153" fill="rgb(0, 0, 0)" stroke="rgb(60, 60, 60)" stroke-width="1px" opacity="0.25"></line><line x1="0" y1="108.92307692307692" x2="290.84375" y2="108.92307692307692" fill="rgb(0, 0, 0)" stroke="rgb(60, 60, 60)" stroke-width="1px" opacity="0.25"></line><line x1="0" y1="95.3076923076923" x2="290.84375" y2="95.3076923076923" fill="rgb(0, 0, 0)" stroke="rgb(60, 60, 60)" stroke-width="1px" opacity="0.25"></line><line x1="0" y1="81.6923076923077" x2="290.84375" y2="81.6923076923077" fill="rgb(0, 0, 0)" stroke="rgb(60, 60, 60)" stroke-width="1px" opacity="0.25"></line><line x1="0" y1="68.07692307692307" x2="290.84375" y2="68.07692307692307" fill="rgb(0, 0, 0)" stroke="rgb(60, 60, 60)" stroke-width="1px" opacity="0.25"></line><line x1="0" y1="54.46153846153847" x2="290.84375" y2="54.46153846153847" fill="rgb(0, 0, 0)" stroke="rgb(60, 60, 60)" stroke-width="1px" opacity="0.25"></line><line x1="0" y1="40.84615384615384" x2="290.84375" y2="40.84615384615384" fill="rgb(0, 0, 0)" stroke="rgb(60, 60, 60)" stroke-width="1px" opacity="0.25"></line><line x1="0" y1="27.230769230769226" x2="290.84375" y2="27.230769230769226" fill="rgb(0, 0, 0)" stroke="rgb(60, 60, 60)" stroke-width="1px" opacity="0.25"></line><line x1="0" y1="13.615384615384613" x2="290.84375" y2="13.615384615384613" fill="rgb(0, 0, 0)" stroke="rgb(60, 60, 60)" stroke-width="1px" opacity="0.25"></line><line x1="0" y1="0" x2="290.84375" y2="0" fill="rgb(0, 0, 0)" stroke="rgb(60, 60, 60)" stroke-width="1px" opacity="0.25"></line></g></g></g><g><g><line x1="0" y1="340.38461538461536" x2="290.84375" y2="340.38461538461536" fill="rgb(0, 0, 0)" stroke="rgb(153, 153, 153)" stroke-width="1.5px"></line></g></g><g><g><line x1="32.31597222222222" y1="0" x2="32.31597222222222" y2="177" fill="rgb(0, 0, 0)" stroke="rgb(153, 153, 153)" stroke-width="1.5px"></line></g></g><g><g><g><g><g><path stroke="rgb(0, 119, 187)" stroke-width="2px" d="M32.703763888888886,163.3846153846154L33.35008333333333,163.3846153846154L33.54397916666667,163.3846153846154L33.93177083333333,163.3846153846154L34.70735416666667,163.3846153846154L34.96588194444444,163.3846153846154L35.09514583333333,163.3846153846154L35.22440972222223,163.3846153846154L35.28904166666667,163.3846153846154L35.418305555555555,163.3846153846154L35.80609722222222,163.3846153846154L35.87072916666667,163.3846153846154L35.93536111111111,163.3846153846154L35.99999305555556,163.3846153846154L36.58168055555555,163.3846153846154L36.96947222222222,147.04615384615386L37.034104166666665,163.3846153846154L37.098736111111116,147.04615384615386L37.16336805555555,147.04615384615386L37.48652777777777,163.3846153846154L38.00358333333333,163.3846153846154L38.45600694444444,147.04615384615386L38.973062500000005,147.04615384615386L39.16695833333333,147.04615384615386L39.23159027777778,147.04615384615386L39.68401388888889,147.04615384615386L40.00717361111111,147.04615384615386L40.524229166666665,147.04615384615386L40.718125,147.04615384615386L40.78275694444444,147.04615384615386L41.364444444444445,147.04615384615386L41.49370833333333,147.04615384615386L41.55834027777778,147.04615384615386L42.07539583333333,147.04615384615386L42.39855555555556,147.04615384615386L42.52781944444445,147.04615384615386L42.59245138888888,147.04615384615386L42.85097916666667,147.04615384615386L43.17413888888888,147.04615384615386L43.238770833333334,147.04615384615386L43.43266666666667,147.04615384615386L43.820458333333335,147.04615384615386L43.88509027777778,147.04615384615386L44.014354166666664,147.04615384615386L44.20825,147.04615384615386L44.337513888888886,147.04615384615386L44.402145833333336,147.04615384615386L44.53140972222222,147.04615384615386L44.660673611111115,147.04615384615386L44.72530555555556,147.04615384615386L45.177729166666666,147.04615384615386L45.694784722222224,147.04615384615386L45.75941666666667,147.04615384615386L45.82404861111111,147.04615384615386L46.08257638888889,147.04615384615386L46.793527777777776,147.04615384615386L47.18131944444444,147.04615384615386L47.37521527777778,147.04615384615386L47.50447916666666,147.04615384615386L47.698375,147.04615384615386L48.47395833333333,147.04615384615386L48.86175,147.04615384615386L49.18490972222222,147.04615384615386L49.249541666666666,147.04615384615386L49.37880555555556,130.7076923076923L49.63733333333333,147.04615384615386L49.89586111111111,147.04615384615386L50.025124999999996,147.04615384615386L50.34828472222222,130.7076923076923L51.25313194444445,130.7076923076923L51.51165972222222,147.04615384615386L51.57629166666667,147.04615384615386L51.83481944444445,130.7076923076923L51.899451388888885,147.04615384615386L52.15797916666667,130.7076923076923L52.22261111111111,147.04615384615386L52.351875,147.04615384615386L52.545770833333336,130.7076923076923L52.86893055555556,130.7076923076923L52.9335625,130.7076923076923L53.321354166666666,130.7076923076923L53.38598611111111,130.7076923076923L53.45061805555556,130.7076923076923L53.64451388888889,130.7076923076923L54.22620138888889,130.7076923076923L54.74325694444445,130.7076923076923L55.777368055555556,130.7076923076923L56.035895833333335,130.7076923076923L56.4236875,130.7076923076923L56.68221527777778,130.7076923076923L56.811479166666665,130.7076923076923L57.26390277777778,130.7076923076923L57.5870625,130.7076923076923L57.651694444444445,130.7076923076923L58.685805555555554,130.7076923076923L59.13822916666667,130.7076923076923L59.526020833333334,130.7076923076923L59.590652777777784,130.7076923076923L59.71991666666667,130.7076923076923L60.107708333333335,130.7076923076923L60.689395833333336,130.7076923076923L60.81865972222222,130.7076923076923L60.88329166666667,130.7076923076923L61.0771875,130.7076923076923L61.46497916666667,130.7076923076923L62.046666666666674,130.7076923076923L62.240562499999996,130.7076923076923L62.305194444444446,130.7076923076923L62.88688194444445,130.7076923076923L62.95151388888889,130.7076923076923L63.85636111111111,16.33846153846153L63.92099305555555,130.7076923076923L64.05025694444444,130.7076923076923L64.17952083333334,130.7076923076923L65.08436805555556,130.7076923076923L65.40752777777777,130.7076923076923L65.53679166666666,130.7076923076923L65.7306875,130.7076923076923L66.24774305555556,130.7076923076923L66.63553472222222,130.7076923076923L66.76479861111112,130.7076923076923L66.95869444444445,130.7076923076923L67.3464861111111,130.7076923076923L67.66964583333333,130.7076923076923L67.73427777777778,130.7076923076923L68.31596527777778,130.7076923076923L68.44522916666666,130.7076923076923L68.70375694444445,130.7076923076923L68.7683888888889,130.7076923076923L69.09154861111111,130.7076923076923L69.35007638888888,130.7076923076923L69.41470833333334,130.7076923076923L69.73786805555555,130.7076923076923L69.86713194444445,130.7076923076923L69.93176388888888,130.7076923076923L70.06102777777778,130.7076923076923L70.19029166666667,130.7076923076923L70.25492361111111,130.7076923076923L70.51345138888888,-795.1384615384616L70.57808333333334,130.7076923076923L71.03050694444444,130.7076923076923L71.15977083333334,130.7076923076923L71.5475625,130.7076923076923L71.67682638888888,130.7076923076923L71.99998611111111,130.7076923076923L72.32314583333334,130.7076923076923L72.45240972222223,130.7076923076923L73.22799305555556,130.7076923076923L73.68041666666667,130.7076923076923L73.7450486111111,130.7076923076923L73.8743125,130.7076923076923L73.93894444444445,130.7076923076923L74.00357638888889,130.7076923076923L74.06820833333333,130.7076923076923L74.19747222222223,130.7076923076923L74.39136805555556,130.7076923076923L74.64989583333333,130.7076923076923L74.97305555555555,130.7076923076923L75.16695138888888,130.7076923076923L75.42547916666668,130.7076923076923L75.619375,130.7076923076923L75.68400694444445,130.7076923076923L75.81327083333333,130.7076923076923L75.87790277777778,130.7076923076923L76.0717986111111,130.7076923076923L76.13643055555555,130.7076923076923L76.33032638888888,130.7076923076923L76.39495833333334,130.7076923076923L76.71811805555555,130.7076923076923L76.78275000000001,130.7076923076923L77.23517361111111,130.7076923076923L77.42906944444445,130.7076923076923L77.68759722222222,130.7076923076923L77.88149305555555,130.7076923076923L78.01075694444444,114.36923076923077L78.14002083333334,130.7076923076923L78.39854861111111,130.7076923076923L78.65707638888888,130.7076923076923L78.85097222222223,130.7076923076923L78.91560416666667,130.7076923076923L78.98023611111111,98.03076923076922L79.04486805555555,130.7076923076923L79.43265972222223,130.7076923076923L79.82045138888888,130.7076923076923L79.94971527777778,130.7076923076923L80.01434722222221,130.7076923076923L80.27287500000001,130.7076923076923L80.46677083333333,130.7076923076923L80.53140277777779,130.7076923076923L80.72529861111111,130.7076923076923L80.78993055555556,130.7076923076923L80.85456250000001,130.7076923076923L80.98382638888889,130.7076923076923L81.11309027777779,130.7076923076923L81.69477777777779,98.03076923076922L81.75940972222222,130.7076923076923L81.95330555555556,130.7076923076923L82.01793749999999,130.7076923076923L82.08256944444445,130.7076923076923L82.21183333333333,130.7076923076923L82.27646527777779,130.7076923076923L82.66425694444445,114.36923076923077L82.92278472222222,130.7076923076923L82.98741666666666,130.7076923076923L83.11668055555556,114.36923076923077L83.24594444444445,130.7076923076923L83.43984027777779,130.7076923076923L83.50447222222222,130.7076923076923L83.56910416666666,130.7076923076923L83.63373611111112,130.7076923076923L83.82763194444445,130.7076923076923L84.08615972222222,130.7076923076923L84.28005555555556,114.36923076923077L84.40931944444445,130.7076923076923L84.47395138888889,130.7076923076923L84.53858333333334,130.7076923076923L84.926375,114.36923076923077L84.99100694444444,130.7076923076923L85.12027083333334,130.7076923076923L85.31416666666667,130.7076923076923L85.57269444444444,130.7076923076923L85.76659027777777,130.7076923076923L85.96048611111111,130.7076923076923L86.02511805555555,98.03076923076922L86.28364583333334,130.7076923076923L86.41290972222222,130.7076923076923L86.73606944444444,130.7076923076923L86.92996527777777,130.7076923076923L88.28723611111111,130.7076923076923L88.4165,130.7076923076923L88.48113194444444,130.7076923076923L88.73965972222223,130.7076923076923L88.86892361111111,114.36923076923077L89.1274513888889,114.36923076923077L89.25671527777777,114.36923076923077L89.38597916666667,114.36923076923077L89.51524305555554,114.36923076923077L89.7091388888889,114.36923076923077L90.09693055555555,114.36923076923077L90.35545833333333,114.36923076923077L90.80788194444445,114.36923076923077L90.87251388888889,114.36923076923077L90.93714583333333,114.36923076923077L91.00177777777778,114.36923076923077L91.3249375,114.36923076923077L91.45420138888889,114.36923076923077L91.64809722222222,114.36923076923077L91.71272916666668,114.36923076923077L91.7773611111111,114.36923076923077L91.84199305555555,114.36923076923077L92.3590486111111,114.36923076923077L92.42368055555555,49.01538461538462L92.61757638888888,114.36923076923077L93.07000000000001,114.36923076923077L93.26389583333334,114.36923076923077L93.84558333333334,114.36923076923077L93.97484722222222,114.36923076923077L94.03947916666665,114.36923076923077L94.10411111111111,114.36923076923077L94.29800694444445,114.36923076923077L94.36263888888888,114.36923076923077L94.62116666666665,114.36923076923077L94.94432638888888,114.36923076923077L95.00895833333333,114.36923076923077L95.26748611111111,114.36923076923077L95.33211805555555,114.36923076923077L95.39675,114.36923076923077L95.46138194444445,114.36923076923077L95.65527777777778,114.36923076923077L95.71990972222223,114.36923076923077L95.78454166666666,114.36923076923077L95.9784375,114.36923076923077L96.04306944444444,114.36923076923077L96.560125,114.36923076923077L96.81865277777779,114.36923076923077L96.94791666666666,114.36923076923077L97.07718055555556,98.03076923076922L97.1418125,114.36923076923077L97.33570833333333,114.36923076923077L97.59423611111112,114.36923076923077L97.65886805555556,114.36923076923077L97.7235,114.36923076923077L97.91739583333333,114.36923076923077L98.43445138888889,114.36923076923077L98.56371527777779,114.36923076923077L98.82224305555556,114.36923076923077L98.886875,130.7076923076923L99.08077083333333,130.7076923076923L99.21003472222222,114.36923076923077L99.33929861111112,114.36923076923077L99.66245833333333,114.36923076923077L100.37340972222222,114.36923076923077L100.5026736111111,114.36923076923077L100.89046527777778,114.36923076923077L100.95509722222222,130.7076923076923L101.08436111111111,114.36923076923077L101.213625,114.36923076923077L101.47215277777778,114.36923076923077L101.73068055555557,114.36923076923077L101.85994444444444,114.36923076923077L102.18310416666667,114.36923076923077L102.24773611111111,114.36923076923077L102.31236805555557,114.36923076923077L102.82942361111111,114.36923076923077L103.21721527777777,114.36923076923077L103.47574305555557,114.36923076923077L103.540375,114.36923076923077L103.60500694444444,114.36923076923077L104.18669444444444,114.36923076923077L104.31595833333334,114.36923076923077L104.50985416666667,114.36923076923077L104.89764583333334,114.36923076923077L104.96227777777777,114.36923076923077L105.41470138888889,114.36923076923077L105.54396527777777,114.36923076923077L106.4488125,114.36923076923077L106.83660416666667,114.36923076923077L106.90123611111112,114.36923076923077L106.96586805555555,114.36923076923077L107.15976388888889,114.36923076923077L107.22439583333333,114.36923076923077L107.28902777777778,114.36923076923077L108.45240277777778,114.36923076923077L108.58166666666668,114.36923076923077L108.71093055555555,114.36923076923077L109.16335416666668,114.36923076923077L109.22798611111111,114.36923076923077L109.4865138888889,114.36923076923077L109.61577777777778,114.36923076923077L109.74504166666668,98.03076923076922L110.0682013888889,114.36923076923077L110.19746527777778,114.36923076923077L110.32672916666667,114.36923076923077L110.58525694444445,98.03076923076922L111.23157638888888,130.7076923076923L111.49010416666667,98.03076923076922L111.74863194444445,114.36923076923077L111.81326388888888,114.36923076923077L111.87789583333333,114.36923076923077L112.00715972222223,114.36923076923077L112.20105555555556,114.36923076923077L112.39495138888888,98.03076923076922L112.52421527777778,114.36923076923077L112.71811111111111,114.36923076923077L113.10590277777779,49.01538461538462L113.23516666666666,98.03076923076922L113.36443055555556,98.03076923076922L113.4290625,98.03076923076922L113.62295833333333,98.03076923076922L113.75222222222223,98.03076923076922L113.94611805555556,98.03076923076922L114.4631736111111,98.03076923076922L114.78633333333333,114.36923076923077L114.91559722222223,114.36923076923077L115.30338888888889,98.03076923076922L115.56191666666666,114.36923076923077L115.6265486111111,114.36923076923077L115.69118055555556,114.36923076923077L115.7558125,114.36923076923077L116.14360416666666,114.36923076923077L116.3375,65.35384615384616L116.7899236111111,114.36923076923077L116.9191875,114.36923076923077L117.11308333333334,98.03076923076922L117.17771527777778,114.36923076923077L117.37161111111111,98.03076923076922L117.75940277777778,114.36923076923077L117.88866666666667,114.36923076923077L118.08256250000001,114.36923076923077L118.27645833333334,114.36923076923077L118.34109027777778,98.03076923076922L118.40572222222221,98.03076923076922L118.47035416666667,114.36923076923077L118.53498611111111,98.03076923076922L118.92277777777778,114.36923076923077L119.69836111111111,114.36923076923077L120.08615277777778,114.36923076923077L120.4093125,114.36923076923077L120.66784027777777,98.03076923076922L121.12026388888889,114.36923076923077L121.24952777777777,114.36923076923077L121.5726875,98.03076923076922L121.63731944444444,81.6923076923077L121.83121527777777,81.6923076923077L121.89584722222222,81.6923076923077L122.02511111111112,98.03076923076922L122.08974305555556,98.03076923076922L122.28363888888889,114.36923076923077L123.38238194444445,98.03076923076922L123.44701388888889,98.03076923076922L123.51164583333335,98.03076923076922L123.83480555555555,98.03076923076922L124.02870138888889,98.03076923076922L124.28722916666666,98.03076923076922L124.35186111111112,98.03076923076922L124.41649305555555,98.03076923076922L124.67502083333332,114.36923076923077L124.73965277777778,98.03076923076922L124.93354861111112,98.03076923076922L125.19207638888889,114.36923076923077L125.32134027777778,114.36923076923077L126.16155555555555,98.03076923076922L126.2261875,98.03076923076922L126.807875,98.03076923076922L126.87250694444445,98.03076923076922L127.58345833333333,98.03076923076922L128.03588194444444,32.67692307692309L128.10051388888888,98.03076923076922L128.2944097222222,98.03076923076922L128.4236736111111,98.03076923076922L128.48830555555554,98.03076923076922L129.0053611111111,98.03076923076922L129.06999305555556,81.6923076923077L129.134625,98.03076923076922L129.39315277777777,98.03076923076922L129.5224166666667,81.6923076923077L129.65168055555554,32.67692307692309L130.16873611111112,98.03076923076922L130.49189583333333,98.03076923076922L130.55652777777777,98.03076923076922L130.7504236111111,65.35384615384616L131.20284722222223,98.03076923076922L131.33211111111112,81.6923076923077L131.97843055555555,98.03076923076922L132.3015902777778,98.03076923076922L132.36622222222223,98.03076923076922L132.49548611111112,98.03076923076922L132.56011805555556,98.03076923076922L132.94790972222222,98.03076923076922L133.40033333333332,98.03076923076922L133.4649652777778,98.03076923076922L134.04665277777778,98.03076923076922L134.30518055555555,98.03076923076922L134.43444444444444,98.03076923076922L134.6929722222222,98.03076923076922L135.27465972222222,98.03076923076922L135.4039236111111,98.03076923076922L135.59781944444444,98.03076923076922L135.72708333333333,98.03076923076922L135.7917152777778,114.36923076923077L136.114875,98.03076923076922L136.63193055555556,98.03076923076922L136.76119444444444,98.03076923076922L137.21361805555557,98.03076923076922L137.27824999999999,98.03076923076922L137.5367777777778,98.03076923076922L137.8599375,98.03076923076922L138.05383333333333,98.03076923076922L138.18309722222222,98.03076923076922L138.37699305555557,98.03076923076922L138.5708888888889,98.03076923076922L138.82941666666667,98.03076923076922L139.34647222222222,114.36923076923077L139.86352777777776,98.03076923076922L139.99279166666668,81.6923076923077L140.12205555555556,98.03076923076922L140.3159513888889,98.03076923076922L140.38058333333333,98.03076923076922L140.768375,81.6923076923077L140.83300694444443,98.03076923076922L141.3500625,98.03076923076922L141.54395833333334,16.33846153846153L141.60859027777778,98.03076923076922L141.67322222222222,-16.33846153846153L141.73785416666666,98.03076923076922L141.86711805555555,98.03076923076922L142.06101388888888,98.03076923076922L142.5134375,98.03076923076922L142.57806944444445,98.03076923076922L142.90122916666667,98.03076923076922L143.03049305555555,98.03076923076922L143.095125,81.6923076923077L143.15975694444444,98.03076923076922L143.74144444444445,98.03076923076922L143.99997222222223,98.03076923076922L144.1292361111111,98.03076923076922L144.19386805555555,98.03076923076922L144.32313194444444,65.35384615384616L144.64629166666668,98.03076923076922L144.7109236111111,98.03076923076922L144.8401875,98.03076923076922L144.90481944444446,98.03076923076922L144.9694513888889,98.03076923076922L145.16334722222223,98.03076923076922L145.2926111111111,98.03076923076922L145.421875,98.03076923076922L146.19745833333334,98.03076923076922L146.7145138888889,98.03076923076922L147.10230555555555,98.03076923076922L147.1669375,98.03076923076922L147.55472916666665,-16.33846153846153L147.61936111111112,98.03076923076922L147.68399305555556,98.03076923076922L148.2010486111111,98.03076923076922L148.6534722222222,98.03076923076922L149.17052777777775,98.03076923076922L149.23515972222222,98.03076923076922L149.42905555555555,98.03076923076922L149.88147916666665,81.6923076923077L150.01074305555557,98.03076923076922L150.26927083333334,98.03076923076922L150.91559027777777,81.6923076923077L150.9802222222222,81.6923076923077L151.17411805555557,81.6923076923077L151.49727777777775,98.03076923076922L151.75580555555555,98.03076923076922L152.5960208333333,98.03076923076922L152.72528472222223,98.03076923076922L152.78991666666667,98.03076923076922L153.17770833333333,-65.35384615384615L153.24234027777777,98.03076923076922L153.3069722222222,81.6923076923077L153.4362361111111,98.03076923076922L153.56550000000001,81.6923076923077L154.34108333333333,98.03076923076922L154.92277083333332,98.03076923076922L155.18129861111112,98.03076923076922L155.50445833333333,98.03076923076922L155.56909027777778,98.03076923076922L155.89225000000002,98.03076923076922L155.95688194444446,98.03076923076922L156.28004166666668,81.6923076923077L156.34467361111112,81.6923076923077L156.73246527777778,98.03076923076922L156.99099305555555,98.03076923076922L157.12025694444446,81.6923076923077L157.24952083333332,98.03076923076922L157.6373125,98.03076923076922L157.83120833333334,98.03076923076922L157.96047222222222,98.03076923076922L158.15436805555555,98.03076923076922L158.34826388888888,98.03076923076922L158.5421597222222,81.6923076923077L158.67142361111112,98.03076923076922L159.12384722222222,98.03076923076922L159.2531111111111,98.03076923076922L160.02869444444443,98.03076923076922L160.09332638888887,81.6923076923077L160.1579583333333,81.6923076923077L161.06280555555557,130.7076923076923L161.3213333333333,81.6923076923077L161.57986111111111,98.03076923076922L161.64449305555556,98.03076923076922L161.8383888888889,98.03076923076922L161.90302083333333,98.03076923076922L162.09691666666666,98.03076923076922L162.22618055555557,81.6923076923077L162.35544444444443,98.03076923076922L162.67860416666667,98.03076923076922L162.8725,98.03076923076922L163.0017638888889,98.03076923076922L163.19565972222222,98.03076923076922L163.38955555555557,98.03076923076922L163.58345138888888,98.03076923076922L163.7127152777778,81.6923076923077L163.90661111111112,98.03076923076922L164.10050694444442,98.03076923076922L164.1651388888889,81.6923076923077L164.35903472222222,98.03076923076922L165.13461805555556,81.6923076923077L165.26388194444442,98.03076923076922L165.58704166666666,81.6923076923077L165.84556944444444,-1121.9076923076923L165.91020138888888,130.7076923076923L165.97483333333332,98.03076923076922L166.10409722222224,81.6923076923077L166.16872916666668,81.6923076923077L166.29799305555557,49.01538461538462L166.42725694444442,81.6923076923077L166.62115277777778,81.6923076923077L166.68578472222222,98.03076923076922L166.9443125,81.6923076923077L167.26747222222224,98.03076923076922L167.39673611111112,81.6923076923077L167.84915972222223,81.6923076923077L167.9784236111111,81.6923076923077L168.04305555555553,81.6923076923077L168.23695138888888,32.67692307692309L168.36621527777777,81.6923076923077L168.62474305555554,81.6923076923077L168.8186388888889,81.6923076923077L168.94790277777778,98.03076923076922L169.07716666666667,98.03076923076922L169.1417986111111,81.6923076923077L169.46495833333333,81.6923076923077L169.72348611111113,81.6923076923077L169.78811805555554,81.6923076923077L169.85275,81.6923076923077L170.1112777777778,81.6923076923077L170.17590972222223,81.6923076923077L170.30517361111112,81.6923076923077L170.49906944444444,81.6923076923077L170.5637013888889,81.6923076923077L170.62833333333333,81.6923076923077L170.75759722222222,81.6923076923077L170.8222291666667,81.6923076923077L170.95149305555555,98.03076923076922L171.2746527777778,81.6923076923077L171.33928472222223,81.6923076923077L171.7270763888889,32.67692307692309L171.79170833333333,65.35384615384616L171.85634027777778,81.6923076923077L172.11486805555555,81.6923076923077L172.24413194444443,81.6923076923077L172.37339583333335,98.03076923076922L172.6319236111111,81.6923076923077L173.27824305555555,65.35384615384616L173.40750694444444,81.6923076923077L173.53677083333335,81.6923076923077L173.6014027777778,98.03076923076922L173.85993055555554,81.6923076923077L173.98919444444445,81.6923076923077L174.0538263888889,81.6923076923077L174.11845833333334,81.6923076923077L174.57088194444444,81.6923076923077L174.82940972222224,81.6923076923077L175.02330555555554,81.6923076923077L175.669625,81.6923076923077L175.73425694444444,98.03076923076922L175.99278472222224,81.6923076923077L176.1220486111111,32.67692307692309L176.31594444444445,81.6923076923077L176.44520833333334,81.6923076923077L176.50984027777778,81.6923076923077L176.63910416666664,81.6923076923077L176.7037361111111,81.6923076923077L176.76836805555556,81.6923076923077L176.833,81.6923076923077L176.96226388888888,81.6923076923077L177.0915277777778,81.6923076923077L177.15615972222224,65.35384615384616L177.41468749999999,65.35384615384616L177.47931944444446,81.6923076923077L177.60858333333334,81.6923076923077L177.80247916666664,81.6923076923077L178.1256388888889,81.6923076923077L178.90122222222223,81.6923076923077L179.15975,81.6923076923077L179.35364583333333,81.6923076923077L179.80606944444443,81.6923076923077L179.9999652777778,81.6923076923077L180.38775694444445,81.6923076923077L180.4523888888889,81.6923076923077L180.5816527777778,81.6923076923077L180.7755486111111,81.6923076923077L180.96944444444443,81.6923076923077L181.0340763888889,65.35384615384616L181.09870833333335,81.6923076923077L181.68039583333334,81.6923076923077L181.74502777777778,98.03076923076922L181.80965972222222,81.6923076923077L181.87429166666666,81.6923076923077L182.00355555555555,81.6923076923077L182.13281944444444,81.6923076923077L182.3267152777778,98.03076923076922L182.7791388888889,81.6923076923077L182.84377083333334,98.03076923076922L182.90840277777778,81.6923076923077L182.9730347222222,98.03076923076922L183.4900902777778,81.6923076923077L184.07177777777775,81.6923076923077L184.3949375,16.33846153846153L184.8473611111111,65.35384615384616L184.91199305555554,-1121.9076923076923L185.1058888888889,81.6923076923077L185.81684027777777,81.6923076923077L186.0107361111111,81.6923076923077L186.20463194444446,65.35384615384616L186.2692638888889,81.6923076923077L186.33389583333334,81.6923076923077L186.4631597222222,81.6923076923077L186.98021527777777,81.6923076923077L187.10947916666666,81.6923076923077L187.23874305555555,81.6923076923077L187.36800694444446,81.6923076923077L188.0143263888889,65.35384615384616L188.53138194444446,130.7076923076923L188.5960138888889,81.6923076923077L188.91917361111112,65.35384615384616L189.30696527777778,81.6923076923077L189.82402083333332,81.6923076923077L190.2118125,81.6923076923077L190.27644444444445,81.6923076923077L190.3410763888889,81.6923076923077L190.4057083333333,81.6923076923077L190.53497222222222,81.6923076923077L190.85813194444447,81.6923076923077L192.08613888888888,81.6923076923077L192.21540277777777,81.6923076923077L192.47393055555557,81.6923076923077L192.5385625,81.6923076923077L192.66782638888887,81.6923076923077L192.9909861111111,65.35384615384616L193.18488194444447,81.6923076923077L193.31414583333333,81.6923076923077L193.50804166666666,81.6923076923077L193.57267361111113,98.03076923076922L193.63730555555557,81.6923076923077L194.283625,81.6923076923077L194.34825694444447,81.6923076923077L194.47752083333333,81.6923076923077L194.54215277777777,81.6923076923077L194.60678472222222,49.01538461538462L194.67141666666666,65.35384615384616L194.92994444444446,81.6923076923077L195.05920833333332,81.6923076923077L195.25310416666667,81.6923076923077L195.38236805555556,65.35384615384616L195.51163194444447,81.6923076923077L195.64089583333333,32.67692307692309L196.22258333333332,81.6923076923077L196.48111111111112,81.6923076923077L196.610375,81.6923076923077L196.7396388888889,81.6923076923077L196.86890277777778,81.6923076923077L197.0627986111111,81.6923076923077L197.25669444444443,81.6923076923077L197.64448611111112,81.6923076923077L197.70911805555556,65.35384615384616L197.96764583333334,81.6923076923077L198.16154166666666,81.6923076923077L198.35543750000002,81.6923076923077L198.48470138888888,81.6923076923077L198.80786111111112,81.6923076923077L199.06638888888887,81.6923076923077L199.26028472222222,-343.10769230769233L199.32491666666667,81.6923076923077L199.3895486111111,81.6923076923077L199.45418055555558,98.03076923076922L199.64807638888888,81.6923076923077L199.90660416666668,81.6923076923077L200.29439583333334,49.01538461538462L200.35902777777778,65.35384615384616L200.5529236111111,81.6923076923077L201.06997916666668,81.6923076923077L201.13461111111113,81.6923076923077L201.39313888888887,98.03076923076922L201.52240277777778,16.33846153846153L201.58703472222223,65.35384615384616L201.78093055555556,0L201.84556249999997,81.6923076923077L201.97482638888889,49.01538461538462L202.16872222222221,81.6923076923077L202.2333541666667,81.6923076923077L202.36261805555557,65.35384615384616L202.75040972222223,81.6923076923077L202.94430555555556,81.6923076923077L203.1382013888889,81.6923076923077L203.20283333333333,81.6923076923077L203.46136111111113,81.6923076923077L203.8491527777778,81.6923076923077L204.62473611111113,81.6923076923077L204.88326388888888,65.35384615384616L205.0125277777778,81.6923076923077L205.33568749999998,81.6923076923077L205.65884722222222,65.35384615384616L205.917375,81.6923076923077L206.24053472222224,81.6923076923077L206.49906249999998,65.35384615384616L206.75759027777778,81.6923076923077L206.95148611111114,81.6923076923077L207.92096527777778,81.6923076923077L208.56728472222224,81.6923076923077L208.63191666666668,81.6923076923077L208.6965486111111,81.6923076923077L208.89044444444443,81.6923076923077L208.9550763888889,65.35384615384616L209.27823611111108,-32.67692307692309L209.66602777777777,81.6923076923077L209.73065972222224,81.6923076923077L209.79529166666669,49.01538461538462L209.8599236111111,65.35384615384616L209.92455555555554,81.6923076923077L209.98918749999999,81.6923076923077L210.05381944444443,65.35384615384616L210.570875,81.6923076923077L212.05740972222225,65.35384615384616L212.12204166666666,-81.69230769230768L212.1866736111111,65.35384615384616L212.63909722222223,81.6923076923077L213.3500486111111,81.6923076923077L213.41468055555555,65.35384615384616L213.4793125,98.03076923076922L213.7378402777778,65.35384615384616L214.25489583333334,81.6923076923077L214.31952777777778,49.01538461538462L214.5134236111111,81.6923076923077L214.6426875,49.01538461538462L214.70731944444444,65.35384615384616L214.83658333333335,65.35384615384616L215.74143055555555,65.35384615384616L215.93532638888888,81.6923076923077L216.0645902777778,65.35384615384616L216.38775,81.6923076923077L216.58164583333334,81.6923076923077L216.77554166666664,81.6923076923077L217.35722916666666,81.6923076923077L217.4218611111111,65.35384615384616L217.80965277777779,81.6923076923077L217.93891666666664,81.6923076923077L218.0035486111111,65.35384615384616L218.3913402777778,81.6923076923077L218.5852361111111,81.6923076923077L218.64986805555554,65.35384615384616L218.9730277777778,65.35384615384616L219.10229166666664,81.6923076923077L219.23155555555556,81.6923076923077L219.4254513888889,81.6923076923077L219.49008333333336,65.35384615384616L220.0071388888889,65.35384615384616L220.33029861111112,98.03076923076922L220.4595625,65.35384615384616L220.52419444444445,65.35384615384616L220.5888263888889,65.35384615384616L220.84735416666666,65.35384615384616L221.29977777777776,65.35384615384616L221.7522013888889,65.35384615384616L221.94609722222222,81.6923076923077L222.46315277777776,65.35384615384616L222.7863125,81.6923076923077L223.4972638888889,65.35384615384616L223.8204236111111,65.35384615384616L223.9496875,81.6923076923077L224.01431944444445,16.33846153846153L224.20821527777775,65.35384615384616L224.8545347222222,65.35384615384616L225.2423263888889,65.35384615384616L225.50085416666667,32.67692307692309L225.8240138888889,81.6923076923077L225.95327777777777,-147.04615384615386L226.08254166666666,65.35384615384616L226.21180555555557,65.35384615384616L226.34106944444446,65.35384615384616L226.53496527777776,65.35384615384616L226.59959722222223,81.6923076923077L226.66422916666667,65.35384615384616L226.858125,65.35384615384616L226.92275694444444,65.35384615384616L226.98738888888892,49.01538461538462L227.24591666666666,65.35384615384616L227.37518055555557,49.01538461538462L227.5690763888889,65.35384615384616L227.63370833333332,65.35384615384616L227.7629722222222,65.35384615384616L227.82760416666667,81.6923076923077L228.08613194444445,49.01538461538462L228.21539583333333,65.35384615384616L228.28002777777778,65.35384615384616L228.34465972222222,32.67692307692309L228.60318750000002,49.01538461538462L228.73245138888888,65.35384615384616L228.86171527777776,65.35384615384616L229.05561111111112,81.6923076923077L229.6372986111111,65.35384615384616L229.83119444444446,65.35384615384616L229.96045833333332,65.35384615384616L230.0897222222222,65.35384615384616L230.21898611111112,65.35384615384616L230.34825,65.35384615384616L230.92993750000002,65.35384615384616L231.18846527777777,65.35384615384616L231.31772916666668,65.35384615384616L231.511625,81.6923076923077L232.02868055555555,65.35384615384616L232.28720833333333,65.35384615384616L232.54573611111113,65.35384615384616L232.93352777777778,65.35384615384616L233.1274236111111,81.6923076923077L233.38595138888888,32.67692307692309L233.51521527777777,49.01538461538462L233.77374305555557,65.35384615384616L233.838375,65.35384615384616L234.29079861111111,65.35384615384616L234.48469444444444,49.01538461538462L234.5493263888889,49.01538461538462L234.87248611111113,65.35384615384616L234.93711805555557,65.35384615384616L235.00175000000002,65.35384615384616L235.13101388888887,65.35384615384616L235.32490972222223,65.35384615384616L235.64806944444445,81.6923076923077L235.84196527777777,81.6923076923077L235.90659722222222,65.35384615384616L236.03586111111113,32.67692307692309L236.4236527777778,65.35384615384616L237.06997222222222,65.35384615384616L237.52239583333332,81.6923076923077L237.71629166666668,65.35384615384616L237.78092361111112,16.33846153846153L238.23334722222222,49.01538461538462L238.29797916666666,65.35384615384616L238.36261111111114,49.01538461538462L238.42724305555558,65.35384615384616L238.75040277777777,32.67692307692309L238.94429861111112,32.67692307692309L240.43083333333334,65.35384615384616L240.49546527777778,65.35384615384616L240.6893611111111,65.35384615384616L240.818625,65.35384615384616L241.14178472222224,49.01538461538462L241.33568055555554,32.67692307692309L241.40031249999998,65.35384615384616L241.5295763888889,65.35384615384616L241.59420833333334,65.35384615384616L242.04663194444444,65.35384615384616L242.11126388888889,-1268.9538461538461L242.24052777777777,65.35384615384616L242.75758333333334,32.67692307692309L242.8222152777778,32.67692307692309L243.145375,32.67692307692309L243.21000694444444,-16.33846153846153L243.59779861111113,81.6923076923077L243.7270625,65.35384615384616L243.85632638888887,65.35384615384616L243.9855902777778,32.67692307692309L244.24411805555553,65.35384615384616L244.4380138888889,32.67692307692309L244.6965416666667,16.33846153846153L245.08433333333335,65.35384615384616L245.27822916666668,65.35384615384616L245.3428611111111,65.35384615384616L245.40749305555553,-49.01538461538459L245.79528472222222,65.35384615384616L246.3123402777778,16.33846153846153L246.57086805555554,65.35384615384616L246.70013194444445,16.33846153846153L246.7647638888889,49.01538461538462L246.82939583333334,49.01538461538462L247.0879236111111,65.35384615384616L247.41108333333335,81.6923076923077L247.86350694444445,32.67692307692309L248.12203472222222,32.67692307692309L248.3805625,32.67692307692309L248.44519444444444,32.67692307692309L248.6390902777778,32.67692307692309L248.89761805555554,65.35384615384616L249.02688194444445,49.01538461538462L249.4146736111111,81.6923076923077L249.60856944444444,32.67692307692309L249.73783333333333,32.67692307692309L249.86709722222224,65.35384615384616L249.9963611111111,65.35384615384616L250.19025694444446,65.35384615384616L250.31952083333334,65.35384615384616L250.51341666666664,65.35384615384616L250.77194444444444,32.67692307692309L250.90120833333333,32.67692307692309L251.289,65.35384615384616L251.61215972222223,49.01538461538462L251.67679166666665,-16.33846153846153L251.93531944444445,49.01538461538462L252.38774305555555,49.01538461538462L252.9047986111111,-16.33846153846153L253.09869444444445,16.33846153846153L253.2925902777778,32.67692307692309L253.35722222222222,32.67692307692309L253.55111805555555,32.67692307692309L253.8742777777778,65.35384615384616L254.26206944444445,32.67692307692309L254.3267013888889,49.01538461538462L254.58522916666666,16.33846153846153L254.71449305555555,32.67692307692309L255.1022847222222,-228.73846153846154L255.16691666666665,32.67692307692309L255.29618055555557,0L255.55470833333334,32.67692307692309L256.00713194444444,65.35384615384616L256.3949236111111,98.03076923076922L256.5888194444444,16.33846153846153L256.9766111111111,65.35384615384616L257.4936666666667,32.67692307692309L257.6875625,65.35384615384616L257.8168263888889,16.33846153846153L257.88145833333334,49.01538461538462L258.20461805555556,32.67692307692309L258.26925,16.33846153846153L258.33388194444444,32.67692307692309L258.46314583333333,49.01538461538462L258.5924097222222,32.67692307692309L258.65704166666666,16.33846153846153L258.78630555555554,32.67692307692309L259.10946527777776,32.67692307692309L259.7557847222222,32.67692307692309L259.8204166666667,32.67692307692309L260.1435763888889,49.01538461538462L260.2728402777778,32.67692307692309L260.33747222222223,32.67692307692309L260.596,32.67692307692309L260.66063194444445,65.35384615384616L260.9191597222222,32.67692307692309L261.0484236111111,32.67692307692309L261.3715833333333,65.35384615384616L261.43621527777776,32.67692307692309L261.6301111111111,49.01538461538462L261.8886388888889,65.35384615384616L262.66422222222224,16.33846153846153L262.98738194444445,-163.38461538461542L263.0520138888889,49.01538461538462L263.1812777777778,65.35384615384616L263.43980555555555,32.67692307692309" style="fill: none;" fill="none"></path></g></g></g></g></g></g><g transform="translate(39, 177)" clip-path="url(#clip_1)"><clipPath id="clip_1"><rect width="290" height="23"></rect></clipPath><g><g><line x1="0" y1="0" x2="0" y2="5" style="visibility: inherit;" fill="rgb(0, 0, 0)" stroke="rgb(204, 204, 204)" stroke-width="1px"></line><line x1="32.31597222222222" y1="0" x2="32.31597222222222" y2="5" style="visibility: inherit;" fill="rgb(0, 0, 0)" stroke="rgb(204, 204, 204)" stroke-width="1px"></line><line x1="64.63194444444444" y1="0" x2="64.63194444444444" y2="5" style="visibility: inherit;" fill="rgb(0, 0, 0)" stroke="rgb(204, 204, 204)" stroke-width="1px"></line><line x1="96.94791666666666" y1="0" x2="96.94791666666666" y2="5" style="visibility: inherit;" fill="rgb(0, 0, 0)" stroke="rgb(204, 204, 204)" stroke-width="1px"></line><line x1="129.26388888888889" y1="0" x2="129.26388888888889" y2="5" style="visibility: inherit;" fill="rgb(0, 0, 0)" stroke="rgb(204, 204, 204)" stroke-width="1px"></line><line x1="161.57986111111111" y1="0" x2="161.57986111111111" y2="5" style="visibility: inherit;" fill="rgb(0, 0, 0)" stroke="rgb(204, 204, 204)" stroke-width="1px"></line><line x1="193.89583333333331" y1="0" x2="193.89583333333331" y2="5" style="visibility: inherit;" fill="rgb(0, 0, 0)" stroke="rgb(204, 204, 204)" stroke-width="1px"></line><line x1="226.21180555555557" y1="0" x2="226.21180555555557" y2="5" style="visibility: inherit;" fill="rgb(0, 0, 0)" stroke="rgb(204, 204, 204)" stroke-width="1px"></line><line x1="258.52777777777777" y1="0" x2="258.52777777777777" y2="5" style="visibility: inherit;" fill="rgb(0, 0, 0)" stroke="rgb(204, 204, 204)" stroke-width="1px"></line><line x1="290.84375" y1="0" x2="290.84375" y2="5" style="visibility: inherit;" fill="rgb(0, 0, 0)" stroke="rgb(204, 204, 204)" stroke-width="1px"></line></g><g transform="translate(0, 8)"><text x="0" y="0" dx="0em" dy="0.95em" style="text-anchor: middle; visibility: hidden; font-family: &quot;Helvetica Neue&quot;, sans-serif; font-size: 12px; font-weight: 200;" fill="rgb(50, 49, 63)" stroke="none" stroke-width="1px">-500</text><text x="32.31597222222222" y="0" dx="0em" dy="0.95em" style="text-anchor: middle; visibility: inherit; font-family: &quot;Helvetica Neue&quot;, sans-serif; font-size: 12px; font-weight: 200;" fill="rgb(50, 49, 63)" stroke="none" stroke-width="1px">0</text><text x="64.63194444444444" y="0" dx="0em" dy="0.95em" style="text-anchor: middle; visibility: inherit; font-family: &quot;Helvetica Neue&quot;, sans-serif; font-size: 12px; font-weight: 200;" fill="rgb(50, 49, 63)" stroke="none" stroke-width="1px">500</text><text x="96.94791666666666" y="0" dx="0em" dy="0.95em" style="text-anchor: middle; visibility: inherit; font-family: &quot;Helvetica Neue&quot;, sans-serif; font-size: 12px; font-weight: 200;" fill="rgb(50, 49, 63)" stroke="none" stroke-width="1px">1k</text><text x="129.26388888888889" y="0" dx="0em" dy="0.95em" style="text-anchor: middle; visibility: inherit; font-family: &quot;Helvetica Neue&quot;, sans-serif; font-size: 12px; font-weight: 200;" fill="rgb(50, 49, 63)" stroke="none" stroke-width="1px">1.5k</text><text x="161.57986111111111" y="0" dx="0em" dy="0.95em" style="text-anchor: middle; visibility: inherit; font-family: &quot;Helvetica Neue&quot;, sans-serif; font-size: 12px; font-weight: 200;" fill="rgb(50, 49, 63)" stroke="none" stroke-width="1px">2k</text><text x="193.89583333333331" y="0" dx="0em" dy="0.95em" style="text-anchor: middle; visibility: inherit; font-family: &quot;Helvetica Neue&quot;, sans-serif; font-size: 12px; font-weight: 200;" fill="rgb(50, 49, 63)" stroke="none" stroke-width="1px">2.5k</text><text x="226.21180555555557" y="0" dx="0em" dy="0.95em" style="text-anchor: middle; visibility: inherit; font-family: &quot;Helvetica Neue&quot;, sans-serif; font-size: 12px; font-weight: 200;" fill="rgb(50, 49, 63)" stroke="none" stroke-width="1px">3k</text><text x="258.52777777777777" y="0" dx="0em" dy="0.95em" style="text-anchor: middle; visibility: inherit; font-family: &quot;Helvetica Neue&quot;, sans-serif; font-size: 12px; font-weight: 200;" fill="rgb(50, 49, 63)" stroke="none" stroke-width="1px">3.5k</text><text x="290.84375" y="0" dx="0em" dy="0.95em" style="text-anchor: middle; visibility: hidden; font-family: &quot;Helvetica Neue&quot;, sans-serif; font-size: 12px; font-weight: 200;" fill="rgb(50, 49, 63)" stroke="none" stroke-width="1px">4k</text></g><line x1="0" y1="0" x2="290.84375" y2="0" fill="rgb(0, 0, 0)" stroke="rgb(204, 204, 204)" stroke-width="1px"></line></g></g></g></g></svg>