<svg viewBox="0 0 330 200" xmlns="http://www.w3.org/2000/svg"><g><g><g><g><g><line x1="29.4375" y1="177" x2="24.4375" y2="177" style="visibility: inherit;" fill="rgb(0, 0, 0)" stroke="rgb(204, 204, 204)" stroke-width="1px"></line><line x1="29.4375" y1="157.33333333333334" x2="24.4375" y2="157.33333333333334" style="visibility: inherit;" fill="rgb(0, 0, 0)" stroke="rgb(204, 204, 204)" stroke-width="1px"></line><line x1="29.4375" y1="137.66666666666669" x2="24.4375" y2="137.66666666666669" style="visibility: inherit;" fill="rgb(0, 0, 0)" stroke="rgb(204, 204, 204)" stroke-width="1px"></line><line x1="29.4375" y1="118" x2="24.4375" y2="118" style="visibility: inherit;" fill="rgb(0, 0, 0)" stroke="rgb(204, 204, 204)" stroke-width="1px"></line><line x1="29.4375" y1="98.33333333333334" x2="24.4375" y2="98.33333333333334" style="visibility: inherit;" fill="rgb(0, 0, 0)" stroke="rgb(204, 204, 204)" stroke-width="1px"></line><line x1="29.4375" y1="78.66666666666666" x2="24.4375" y2="78.66666666666666" style="visibility: inherit;" fill="rgb(0, 0, 0)" stroke="rgb(204, 204, 204)" stroke-width="1px"></line><line x1="29.4375" y1="59" x2="24.4375" y2="59" style="visibility: inherit;" fill="rgb(0, 0, 0)" stroke="rgb(204, 204, 204)" stroke-width="1px"></line><line x1="29.4375" y1="39.33333333333334" x2="24.4375" y2="39.33333333333334" style="visibility: inherit;" fill="rgb(0, 0, 0)" stroke="rgb(204, 204, 204)" stroke-width="1px"></line><line x1="29.4375" y1="19.666666666666686" x2="24.4375" y2="19.666666666666686" style="visibility: inherit;" fill="rgb(0, 0, 0)" stroke="rgb(204, 204, 204)" stroke-width="1px"></line><line x1="29.4375" y1="0" x2="24.4375" y2="0" style="visibility: inherit;" fill="rgb(0, 0, 0)" stroke="rgb(204, 204, 204)" stroke-width="1px"></line></g><g transform="translate(19.4375, 0)"><text x="0" y="177" dx="0em" dy="0.3em" style="text-anchor: end; visibility: hidden; font-family: &quot;Helvetica Neue&quot;, sans-serif; font-size: 12px; font-weight: 200;" fill="rgb(50, 49, 63)" stroke="none" stroke-width="1px">-1</text><text x="0" y="157.33333333333334" dx="0em" dy="0.3em" style="text-anchor: end; visibility: inherit; font-family: &quot;Helvetica Neue&quot;, sans-serif; font-size: 12px; font-weight: 200;" fill="rgb(50, 49, 63)" stroke="none" stroke-width="1px">0</text><text x="0" y="137.66666666666669" dx="0em" dy="0.3em" style="text-anchor: end; visibility: hidden; font-family: &quot;Helvetica Neue&quot;, sans-serif; font-size: 12px; font-weight: 200;" fill="rgb(50, 49, 63)" stroke="none" stroke-width="1px">1</text><text x="0" y="118" dx="0em" dy="0.3em" style="text-anchor: end; visibility: inherit; font-family: &quot;Helvetica Neue&quot;, sans-serif; font-size: 12px; font-weight: 200;" fill="rgb(50, 49, 63)" stroke="none" stroke-width="1px">2</text><text x="0" y="98.33333333333334" dx="0em" dy="0.3em" style="text-anchor: end; visibility: hidden; font-family: &quot;Helvetica Neue&quot;, sans-serif; font-size: 12px; font-weight: 200;" fill="rgb(50, 49, 63)" stroke="none" stroke-width="1px">3</text><text x="0" y="78.66666666666666" dx="0em" dy="0.3em" style="text-anchor: end; visibility: inherit; font-family: &quot;Helvetica Neue&quot;, sans-serif; font-size: 12px; font-weight: 200;" fill="rgb(50, 49, 63)" stroke="none" stroke-width="1px">4</text><text x="0" y="59" dx="0em" dy="0.3em" style="text-anchor: end; visibility: hidden; font-family: &quot;Helvetica Neue&quot;, sans-serif; font-size: 12px; font-weight: 200;" fill="rgb(50, 49, 63)" stroke="none" stroke-width="1px">5</text><text x="0" y="39.33333333333334" dx="0em" dy="0.3em" style="text-anchor: end; visibility: inherit; font-family: &quot;Helvetica Neue&quot;, sans-serif; font-size: 12px; font-weight: 200;" fill="rgb(50, 49, 63)" stroke="none" stroke-width="1px">6</text><text x="0" y="19.666666666666686" dx="0em" dy="0.3em" style="text-anchor: end; visibility: hidden; font-family: &quot;Helvetica Neue&quot;, sans-serif; font-size: 12px; font-weight: 200;" fill="rgb(50, 49, 63)" stroke="none" stroke-width="1px">7</text><text x="0" y="0" dx="0em" dy="0.3em" style="text-anchor: end; visibility: hidden; font-family: &quot;Helvetica Neue&quot;, sans-serif; font-size: 12px; font-weight: 200;" fill="rgb(50, 49, 63)" stroke="none" stroke-width="1px">8</text></g><line x1="29.4375" y1="0" x2="29.4375" y2="177" fill="rgb(0, 0, 0)" stroke="rgb(204, 204, 204)" stroke-width="1px"></line></g></g><g transform="translate(29, 0)" clip-path="url(#clip_0)"><clipPath id="clip_0"><rect width="300" height="177"></rect></clipPath><g><g><g><line x1="0" y1="0" x2="0" y2="177" fill="rgb(0, 0, 0)" stroke="rgb(60, 60, 60)" stroke-width="1px" opacity="0.25"></line><line x1="33.39583333333333" y1="0" x2="33.39583333333333" y2="177" fill="rgb(0, 0, 0)" stroke="rgb(60, 60, 60)" stroke-width="1px" opacity="0.25"></line><line x1="66.79166666666666" y1="0" x2="66.79166666666666" y2="177" fill="rgb(0, 0, 0)" stroke="rgb(60, 60, 60)" stroke-width="1px" opacity="0.25"></line><line x1="100.1875" y1="0" x2="100.1875" y2="177" fill="rgb(0, 0, 0)" stroke="rgb(60, 60, 60)" stroke-width="1px" opacity="0.25"></line><line x1="133.58333333333331" y1="0" x2="133.58333333333331" y2="177" fill="rgb(0, 0, 0)" stroke="rgb(60, 60, 60)" stroke-width="1px" opacity="0.25"></line><line x1="166.97916666666669" y1="0" x2="166.97916666666669" y2="177" fill="rgb(0, 0, 0)" stroke="rgb(60, 60, 60)" stroke-width="1px" opacity="0.25"></line><line x1="200.375" y1="0" x2="200.375" y2="177" fill="rgb(0, 0, 0)" stroke="rgb(60, 60, 60)" stroke-width="1px" opacity="0.25"></line><line x1="233.77083333333334" y1="0" x2="233.77083333333334" y2="177" fill="rgb(0, 0, 0)" stroke="rgb(60, 60, 60)" stroke-width="1px" opacity="0.25"></line><line x1="267.16666666666663" y1="0" x2="267.16666666666663" y2="177" fill="rgb(0, 0, 0)" stroke="rgb(60, 60, 60)" stroke-width="1px" opacity="0.25"></line><line x1="300.5625" y1="0" x2="300.5625" y2="177" fill="rgb(0, 0, 0)" stroke="rgb(60, 60, 60)" stroke-width="1px" opacity="0.25"></line></g><g><line x1="0" y1="177" x2="300.5625" y2="177" fill="rgb(0, 0, 0)" stroke="rgb(60, 60, 60)" stroke-width="1px" opacity="0.25"></line><line x1="0" y1="157.33333333333334" x2="300.5625" y2="157.33333333333334" fill="rgb(0, 0, 0)" stroke="rgb(60, 60, 60)" stroke-width="1px" opacity="0.25"></line><line x1="0" y1="137.66666666666669" x2="300.5625" y2="137.66666666666669" fill="rgb(0, 0, 0)" stroke="rgb(60, 60, 60)" stroke-width="1px" opacity="0.25"></line><line x1="0" y1="118" x2="300.5625" y2="118" fill="rgb(0, 0, 0)" stroke="rgb(60, 60, 60)" stroke-width="1px" opacity="0.25"></line><line x1="0" y1="98.33333333333334" x2="300.5625" y2="98.33333333333334" fill="rgb(0, 0, 0)" stroke="rgb(60, 60, 60)" stroke-width="1px" opacity="0.25"></line><line x1="0" y1="78.66666666666666" x2="300.5625" y2="78.66666666666666" fill="rgb(0, 0, 0)" stroke="rgb(60, 60, 60)" stroke-width="1px" opacity="0.25"></line><line x1="0" y1="59" x2="300.5625" y2="59" fill="rgb(0, 0, 0)" stroke="rgb(60, 60, 60)" stroke-width="1px" opacity="0.25"></line><line x1="0" y1="39.33333333333334" x2="300.5625" y2="39.33333333333334" fill="rgb(0, 0, 0)" stroke="rgb(60, 60, 60)" stroke-width="1px" opacity="0.25"></line><line x1="0" y1="19.666666666666686" x2="300.5625" y2="19.666666666666686" fill="rgb(0, 0, 0)" stroke="rgb(60, 60, 60)" stroke-width="1px" opacity="0.25"></line><line x1="0" y1="0" x2="300.5625" y2="0" fill="rgb(0, 0, 0)" stroke="rgb(60, 60, 60)" stroke-width="1px" opacity="0.25"></line></g></g></g><g><g><line x1="0" y1="157.33333333333334" x2="300.5625" y2="157.33333333333334" fill="rgb(0, 0, 0)" stroke="rgb(153, 153, 153)" stroke-width="1.5px"></line></g></g><g><g><line x1="33.39583333333333" y1="0" x2="33.39583333333333" y2="177" fill="rgb(0, 0, 0)" stroke="rgb(153, 153, 153)" stroke-width="1.5px"></line></g></g><g><g><g><g><g><path stroke="rgb(204, 51, 17)" stroke-width="2px" d="M53.099375,14.42286491394043L72.80291666666668,23.081150849660247L92.50645833333333,26.460918426513672L112.21000000000001,32.84709533055624L131.91354166666667,35.11748822530109L151.61708333333334,36.30030043919882L171.32062499999998,36.36010265350342L191.02416666666667,35.78063917160034L210.72770833333334,34.941898345947266L230.43125,35.43297608693439L250.13479166666667,35.12216774622598L269.8383333333333,33.199278513590485" style="fill: none;" fill="none"></path></g><g><path stroke="rgb(0, 119, 187)" stroke-width="2px" d="M35.867125,-7.1000992457071845L36.13429166666666,12.110600153605134L36.267875000000004,-17.181456565856934L36.40145833333334,-2.98917293548584L36.46825,2.8553330103556505L36.60183333333333,-5.603909174601256L37.002583333333334,4.763508478800446L37.069375,-0.22448571523031546L37.13616666666667,7.939196427663148L37.202958333333335,4.359203497568757L37.80408333333333,8.750647862752288L38.20483333333333,31.916770935058594L38.271625,5.764832178751618L38.33841666666667,3.452032883962005L38.40520833333333,12.483564535776765L38.73916666666666,4.891965548197419L39.2735,3.1716648737589708L39.74104166666666,17.05326207478842L40.275375000000004,24.631131966908782L40.47575,21.75421126683554L40.542541666666665,44.548298358917236L41.010083333333334,39.20616102218628L41.34404166666666,13.715253829956055L41.878375,11.474232196807861L42.07875000000001,17.1285188992818L42.14554166666667,29.684855143229157L42.74666666666667,17.799247105916322L42.88025,33.82579040527344L42.94704166666667,15.065253416697203L43.481375,17.33227030436197L43.815333333333335,17.228289286295563L43.94891666666667,45.924490133921324L44.01570833333333,15.306544144948333L44.282875000000004,14.727887153625488L44.61683333333333,13.972411791483552L44.683625,24.725632031758607L44.884,32.954789956410735L45.28475,22.28674825032553L45.35154166666666,24.821773211161286L45.485125,20.363680839538574L45.6855,42.23611799875897L45.81908333333333,24.219446659088135L45.885875,37.238680362701416L46.01945833333333,40.018484592437744L46.15304166666667,19.553420384724916L46.219833333333334,20.780317624410003L46.687374999999996,27.877875487009703L47.22170833333333,30.105918248494476L47.2885,24.21692403157553L47.355291666666666,36.841333707173675L47.622458333333334,20.75928322474161L48.357166666666664,3.3543068567911973L48.75791666666667,27.71529261271158L48.95829166666667,21.370781262715667L49.091875,39.013325373331696L49.29225,30.501351833343506L50.09375,31.740365187327086L50.4945,34.869229793548584L50.82845833333333,26.82178544998169L50.89525,19.199567953745515L51.02883333333333,44.948355197906494L51.296,47.95898453394571L51.56316666666666,41.56753730773926L51.696749999999994,39.4791955947876L52.03070833333333,38.189120133717864L52.96579166666667,39.688676834106445L53.23295833333333,53.910950660705566L53.29975,50.720023790995285L53.56691666666667,41.492111682891846L53.63370833333333,33.20872195561728L53.900875000000006,39.89271895090738L53.967666666666666,34.61191240946454L54.10125,45.11151949564615L54.301625,31.61340856552124L54.63558333333334,47.49238284428915L54.702374999999996,39.00583251317343L55.103125,37.12066078186035L55.169916666666666,41.314308643341064L55.23670833333334,40.21033557256064L55.437083333333334,34.70125468571982L56.03820833333333,44.98494736353558L56.57254166666667,56.63500388463339L57.64120833333333,32.729591528574616L57.90837500000001,54.72420263290405L58.309125,46.69421974817914L58.57629166666667,36.755104859669984L58.709875,39.47745132446289L59.177416666666666,38.49168539047241L59.511375,47.48355833689371L59.57816666666667,30.134642442067474L60.64683333333333,65.88341585795084L61.114375,48.910924752553285L61.515125,53.66066662470499L61.58191666666667,29.052707195281982L61.7155,38.05318895975748L62.11625,35.74581940968832L62.717375,43.35354820887247L62.85095833333333,41.937153816223145L62.917750000000005,41.245203653971345L63.118125,43.25450929005939L63.518875,46.92728614807129L64.12,34.70224873224893L64.320375,43.834676106770814L64.38716666666667,28.938260555267334L64.98829166666667,51.44832229614258L65.05508333333333,57.998169898986816L65.99016666666667,39.035878976186126L66.05695833333333,41.844651222229004L66.19054166666668,42.31708590189615L66.32412500000001,43.75654967625937L67.25920833333333,70.85816860198975L67.59316666666666,41.64225959777832L67.72675,25.36882702509564L67.927125,39.60519568125409L68.46145833333333,78.5522575378418L68.86220833333333,36.170689900716155L68.99579166666668,40.50578308105469L69.19616666666667,57.26694552103679L69.59691666666666,44.733078479766846L69.930875,31.06381336847943L69.99766666666667,33.38889757792154L70.59879166666667,49.824931780497224L70.732375,46.47705809275311L70.99954166666667,38.16703542073566L71.06633333333333,56.47476545969646L71.40029166666666,65.04609107971191L71.66745833333333,42.10959275563559L71.73425,51.16259956359863L72.06820833333333,51.31951824824016L72.20179166666667,49.53494215011597L72.26858333333332,47.941354274749756L72.40216666666667,39.954227924346924L72.53575000000001,28.94332456588745L72.60254166666667,37.21830240885416L72.86970833333334,46.47137514750162L72.9365,45.55880292256671L73.40404166666667,77.40514659881592L73.537625,73.99807087580362L73.938375,71.88706302642822L74.07195833333333,66.95473543802898L74.40591666666667,58.58565139770508L74.739875,33.962950070699065L74.87345833333333,43.32239516576132L75.67495833333334,49.17099920908609L76.14250000000001,65.66602913538615L76.20929166666666,51.54113435745239L76.342875,68.43684005737305L76.40966666666667,46.060383796691895L76.47645833333333,61.92186848322551L76.54325,64.04651165008545L76.67683333333333,51.84129889806111L76.87720833333333,54.10565249125163L77.144375,49.308693408966064L77.47833333333332,59.681972185770675L77.67870833333333,57.66895294189453L77.94587500000002,59.25399764378865L78.14625000000001,49.6790132522583L78.21304166666667,56.37989966074626L78.346625,52.724424839019775L78.41341666666666,66.93473259607951L78.61379166666666,71.46617809931438L78.68058333333333,48.026026407877595L78.88095833333333,52.075153032938644L78.94775,65.48060194651286L79.28170833333333,51.055917739868164L79.3485,59.90452607472737L79.81604166666666,47.58955558141071L80.01641666666667,64.27067852020264L80.28358333333334,50.35545253753662L80.48395833333333,44.10946432749432L80.61754166666665,53.74802080790201L80.751125,58.27806901931763L81.01829166666667,69.09263881047568L81.28545833333332,77.25544881820679L81.48583333333335,50.194839000701904L81.55262499999999,49.813500245412186L81.61941666666667,59.47174072265625L81.68620833333334,52.82061290740967L82.08695833333334,72.15825017293294L82.48770833333333,87.3724511464437L82.62129166666666,67.77020994822185L82.68808333333332,62.909106731414795L82.95525,43.69463745752972L83.155625,45.63834540049234L83.22241666666667,47.930166562398284L83.42279166666667,56.133985678354904L83.48958333333334,67.56764952341716L83.556375,75.37999248504639L83.68995833333334,56.98544279734293L83.82354166666667,48.80664364496866L84.42466666666667,53.31248776117961L84.49145833333333,45.473915100097656L84.69183333333334,41.99307362238565L84.758625,46.759311040242494L84.82541666666667,47.14968999226889L84.959,44.65249506632489L85.02579166666668,60.56316630045572L85.42654166666667,56.8320689201355L85.69370833333333,56.04811318715413L85.7605,72.81977876027425L85.89408333333334,56.31365489959717L86.02766666666666,61.18379831314087L86.22804166666667,46.46787722905475L86.29483333333333,51.977089405059814L86.361625,83.52568332354228L86.42841666666666,58.162731488545745L86.62879166666666,45.826679706573486L86.89595833333333,81.32750415802002L87.09633333333333,70.60275491078694L87.22991666666667,44.90713040033978L87.29670833333333,45.405091444651305L87.3635,51.90163564682007L87.76424999999999,46.570770422617585L87.83104166666666,62.00980408986409L87.96462500000001,85.20213341712952L88.165,67.77675565083823L88.43216666666666,35.98895756403604L88.63254166666665,41.77652152379355L88.83291666666668,49.98065010706583L88.89970833333332,47.45350249608356L89.166875,46.68230994542441L89.30045833333332,73.68944756189983L89.63441666666667,77.30227216084798L89.83479166666666,52.72297128041586L91.23741666666668,29.130955537160247L91.371,67.78369522094727L91.43779166666667,53.80447514851889L91.70495833333334,115.52350656191507L91.83854166666667,55.2536636988322L92.10570833333334,57.671175479888916L92.23929166666666,60.23257080713907L92.37287500000001,53.19735654195149L92.50645833333333,53.688021659851074L92.70683333333334,68.94371938705444L93.10758333333332,66.54253435134888L93.37474999999999,59.69776439666748L93.84229166666667,51.51013135910034L93.90908333333334,55.591301918029785L93.97587499999999,57.61830345789592L94.04266666666666,75.26903438568115L94.376625,59.512318452199295L94.51020833333334,49.382477919260666L94.71058333333333,53.48321056365967L94.777375,70.8428546587626L94.84416666666667,59.257617473602295L94.91095833333333,75.70382658640544L95.44529166666666,60.86304950714111L95.51208333333334,53.86659367879233L95.71245833333333,54.14333248138428L96.18,61.60282643636067L96.380375,73.44936656951904L96.9815,88.43091376622519L97.11508333333333,56.363629182179764L97.18187499999999,61.12194236119588L97.24866666666667,70.98701016108194L97.44904166666667,63.96821641921997L97.51583333333333,49.20334323247273L97.78299999999999,50.67246898015341L98.11695833333333,71.46023257573447L98.18375,66.06033738454182L98.45091666666666,52.111810843149826L98.51770833333333,65.18808031082153L98.5845,56.17534176508586L98.65129166666668,67.09174505869548L98.85166666666667,79.52228752772014L98.91845833333333,59.18149789174397L98.98525,54.439005057017L99.185625,67.02845430374146L99.25241666666666,54.37902466456096L99.78675000000001,78.28937911987305L100.05391666666667,60.577373663584396L100.1875,53.48341687520346L100.32108333333333,56.92433706919351L100.38787500000001,52.94298378626506L100.58825,55.12439076105754L100.85541666666667,78.96254555384319L100.92220833333333,82.14665007591248L100.989,65.83534526824951L101.189375,71.08154773712158L101.72370833333333,53.52385393778482L101.85729166666667,36.11698325475058L102.12445833333334,45.056856314341246L102.19125000000001,100.21732346216837L102.391625,118.53015971183777L102.52520833333332,54.39952452977498L102.65879166666667,60.64895439147949L102.99275,62.83656946818033L103.72745833333333,52.34712791442871L103.86104166666667,44.44761832555136L104.26179166666667,51.76320060094197L104.32858333333333,89.91171956062317L104.46216666666668,65.27131764094035L104.59575,69.51955366134644L104.86291666666668,49.61856396993002L105.13008333333335,54.351031939188644L105.26366666666667,65.18443234761556L105.597625,54.582372824351L105.66441666666667,59.85691499710083L105.73120833333334,70.65628337860107L106.26554166666666,42.785844484965L106.66629166666667,56.478422800699875L106.93345833333333,54.073008378346756L107.00025,71.19243081410727L107.06704166666667,71.73830302556355L107.66816666666666,50.08716313044229L107.80175000000001,71.53767442703247L108.002125,55.16049528121948L108.40287500000001,56.078703562418625L108.46966666666665,77.85189549128215L108.93720833333333,59.661078453063965L109.07079166666666,72.7747090657552L110.005875,60.66559998194377L110.406625,59.47862402598062L110.47341666666668,52.29237095514932L110.54020833333333,76.84276946385702L110.74058333333333,56.82975260416667L110.807375,66.6401759783427L110.87416666666667,70.51507250467937L112.07641666666666,68.04532639185587L112.21000000000001,55.16309293111165L112.34358333333333,69.16242837905884L112.811125,63.073677698771164L112.87791666666666,54.89581632614136L113.14508333333335,73.98563591639201L113.27866666666667,83.64851840337117L113.41225,80.22927967707317L113.74620833333334,57.206364949544266L113.87979166666666,59.036676565806076L114.01337500000001,72.79250812530518L114.28054166666668,68.82946030298869L114.94845833333332,122.81425877412161L115.215625,72.53161780039468L115.48279166666667,65.73363367716472L115.54958333333333,97.36653399467468L115.61637499999999,93.43673984209696L115.74995833333334,91.3481449286143L115.95033333333333,78.3852858543396L116.15070833333333,58.696928342183426L116.28429166666666,64.35015535354614L116.48466666666667,72.12772544225056L116.88541666666667,75.61145528157553L117.01899999999999,63.44825506210327L117.15258333333334,72.80086374282837L117.219375,64.69973150889079L117.41975,58.130199909210205L117.55333333333334,64.69413296381632L117.75370833333334,53.88885656992595L118.28804166666666,67.90027062098186L118.622,79.74870506922404L118.75558333333333,86.87501056989034L119.15633333333334,66.49059073130289L119.42349999999999,60.23572174708049L119.49029166666666,56.80999358495076L119.55708333333334,75.71167580286662L119.62387500000001,89.74951179822285L120.024625,88.5899330774943L120.22500000000001,75.78175608317058L120.69254166666667,56.20775143305461L120.826125,58.385594844818115L121.0265,64.98638264338176L121.09329166666667,64.79419406255086L121.29366666666667,73.32276630401611L121.69441666666667,85.71935645739237L121.828,77.83759435017905L122.02837500000001,102.62921794255575L122.22875,62.93785905838013L122.29554166666668,75.37220891316731L122.36233333333332,60.46263631184897L122.429125,86.70773410797119L122.49591666666667,70.60328944524129L122.89666666666668,62.4346464474996L123.69816666666667,72.00813976923625L124.09891666666668,56.52399889628093L124.432875,74.37503019968669L124.70004166666666,61.139488220214844L125.16758333333334,59.728504816691085L125.30116666666666,43.09638086954752L125.63512499999999,85.80104645093283L125.70191666666666,60.8181955019633L125.90229166666666,63.04011456171672L125.96908333333333,60.62670087814331L126.10266666666666,69.01147397359212L126.16945833333334,71.86426560084024L126.36983333333333,58.128999551137284L127.50529166666666,64.17430289586386L127.57208333333334,78.94430573781331L127.63887500000001,69.1668265660604L127.97283333333333,57.56810410817464L128.17320833333335,71.25831921895345L128.440375,53.492729028065995L128.50716666666668,53.305341879526765L128.57395833333334,52.79360485076904L128.841125,84.61832801500957L128.90791666666667,68.20605246225993L129.10829166666667,68.26939010620117L129.37545833333334,84.10737403233846L129.50904166666666,84.274373849233L130.37733333333333,65.77174504597983L130.44412499999999,58.76099745432536L131.04525,64.7412282625834L131.11204166666667,69.07260783513387L131.84675,60.738624890645355L132.31429166666666,62.98422288894653L132.38108333333335,73.23475567499796L132.58145833333333,64.43608411153157L132.71504166666665,72.24695475896199L132.78183333333334,61.89193455378215L133.31616666666667,76.60619576772055L133.38295833333333,69.92640002568562L133.44975,72.40317010879517L133.71691666666666,79.60196129480998L133.8505,62.54246298472087L133.98408333333333,61.47649812698364L134.51841666666667,85.5944676399231L134.852375,63.487097899119064L134.91916666666665,78.89629610379536L135.11954166666666,62.66888507207234L135.58708333333334,74.28524716695149L135.72066666666666,64.61474053064983L136.38858333333334,64.92266050974528L136.72254166666667,79.5900374253591L136.78933333333333,74.792192141215L136.92291666666665,62.770652929941804L136.98970833333334,82.70862865447998L137.39045833333333,72.7592732111613L137.858,69.55179452896118L137.92479166666666,84.59273600578308L138.52591666666666,63.83633645375569L138.79308333333333,67.68479696909587L138.92666666666665,61.94877338409424L139.19383333333332,89.60290400187174L139.7949583333333,66.1071982383728L139.92854166666666,75.46337985992432L140.12891666666667,80.68225073814392L140.2625,80.90884176890054L140.32929166666668,115.11342485745747L140.66325,58.29635572433472L141.19758333333334,81.15184394518535L141.33116666666666,83.58333333333333L141.79870833333334,63.15498320261638L141.8655,66.9193811416626L142.13266666666667,65.1349081993103L142.466625,63.90672620137532L142.667,58.397664070129395L142.80058333333332,70.31909529368083L143.00095833333333,79.17264572779337L143.20133333333334,66.48371680577596L143.4685,96.10268354415894L144.00283333333334,77.00353304545085L144.53716666666665,58.592909812927246L144.67075,68.84871292114258L144.80433333333335,72.41402022043864L145.00470833333333,64.29512643814087L145.07150000000001,67.01743539174397L145.47225,68.49783325195312L145.53904166666666,79.09285004933675L146.073375,75.88222042719522L146.27375,60.0744423866272L146.34054166666667,75.22103881835938L146.40733333333333,60.72052574157715L146.47412500000002,76.12572431564331L146.60770833333333,95.02162043253581L146.80808333333334,61.06971740722656L147.275625,72.95837322870891L147.34241666666668,74.38172594706218L147.676375,82.06479597091675L147.80995833333333,56.53081655502319L147.87675,83.34539047876993L147.94354166666668,62.89198287328084L148.54466666666667,50.987197240193694L148.81183333333334,74.32073275248209L148.9454166666667,61.654169877370194L149.01220833333332,59.881316026051834L149.14579166666667,65.5835420290629L149.47975,69.347367922465L149.54654166666666,60.841930707295745L149.680125,65.46794191996257L149.74691666666666,73.33308188120523L149.81370833333335,60.82638231913249L150.01408333333333,68.79155524571736L150.14766666666665,75.88587776819865L150.28125,68.81787872314453L151.08275,76.73752244313559L151.61708333333334,68.64905961354573L152.01783333333333,54.77227322260539L152.084625,79.42076818148296L152.485375,63.299654483795166L152.55216666666666,87.67236248652141L152.61895833333332,72.23932123184204L153.15329166666666,80.58086736996968L153.6208333333333,91.43393301963806L154.15516666666664,80.99312941233318L154.22195833333333,65.90165567398071L154.42233333333334,81.00901071230571L154.889875,67.84548552831014L155.02345833333334,71.80201578140259L155.290625,78.92621127764384L155.95854166666666,73.68021980921426L156.02533333333332,84.25271113713582L156.22570833333333,83.28623064359029L156.55966666666666,99.83078002929688L156.82683333333333,79.55594913164774L157.695125,69.77281983693442L157.82870833333334,82.57572182019551L157.8955,77.36217753092447L158.29625,73.3607276280721L158.36304166666665,66.52714538574219L158.42983333333333,67.71278031667075L158.56341666666665,55.342827796936035L158.697,72.0925399462382L159.49849999999998,84.54954187075298L160.09962499999997,84.35550586382548L160.36679166666667,91.51247676213582L160.70075,68.63229211171468L160.76754166666666,94.95473329226176L161.10150000000002,69.22032690048218L161.16829166666668,64.78750769297282L161.50225,66.14009555180867L161.56904166666666,76.22470696767172L161.96979166666665,76.7567187945048L162.23695833333335,90.69775716463725L162.37054166666667,70.16430536905925L162.504125,62.35917393366496L162.904875,66.2110948562622L163.10524999999998,76.3319795926412L163.23883333333333,96.08128809928894L163.43920833333334,86.81412521998088L163.63958333333332,67.09649960199991L163.83995833333333,70.7019157409668L163.97354166666668,84.3130713303884L164.44108333333332,77.17608451843262L164.57466666666667,67.03027359644572L165.37616666666665,80.08229676882426L165.4429583333333,77.12069924672446L165.50975,68.85601822535197L166.44483333333335,107.16228111584981L166.712,68.56964842478435L166.97916666666669,68.14099868138631L167.04595833333335,69.7784465154012L167.24633333333333,79.8873651822408L167.31312499999999,95.7216542561849L167.5135,87.46817032496133L167.64708333333334,59.83779366811116L167.78066666666666,64.45442708333334L168.11462500000002,87.03683853149414L168.31500000000003,66.89995034535725L168.44858333333332,88.85527316729228L168.64895833333333,69.30756855010986L168.84933333333333,74.47529760996501L169.0497083333333,74.64265378316243L169.18329166666666,67.82758331298828L169.38366666666667,68.30766089757283L169.58404166666665,93.16366306940714L169.65083333333334,71.63717285792033L169.85120833333335,81.62874714533488L170.65270833333335,75.12317212422688L170.78629166666664,63.91691986719768L171.12025,88.12636041641235L171.38741666666667,72.99988873799641L171.45420833333333,126.57750089963277L171.521,94.9868053595225L171.65458333333333,66.04424508412679L171.721375,69.40837049484253L171.85495833333334,80.16710488001506L171.98854166666666,75.83032369613647L172.18891666666667,75.06476720174153L172.25570833333333,85.11559041341147L172.522875,78.1678334871928L172.85683333333333,76.37472359339397L172.99041666666668,71.6451252301534L173.45795833333335,58.32363573710124L173.59154166666667,86.15271385510762L173.6583333333333,83.85309974352518L173.85870833333334,76.79856252670288L173.99229166666666,92.35954038302103L174.25945833333333,73.61530669530234L174.45983333333334,71.73714955647787L174.59341666666666,74.14044459660849L174.727,88.11375665664673L174.7937916666667,78.51531839370728L175.12775,83.81360983848572L175.3949166666667,82.11222418149312L175.46170833333332,91.78882638613382L175.52849999999998,69.09585539499918L175.79566666666668,81.68952933947246L175.86245833333334,75.43137343724568L175.99604166666668,72.47577301661174L176.19641666666666,80.7374062538147L176.26320833333332,73.16676664352417L176.33,73.80870501200359L176.46358333333333,85.18085519472758L176.53037500000002,81.2864716053009L176.6639583333333,106.52959863344829L176.99791666666667,74.07941389083862L177.06470833333333,80.94969145456949L177.46545833333334,67.34219789505005L177.53225,78.4900639851888L177.59904166666666,72.2135885556539L177.86620833333333,65.29682524998984L177.99979166666665,73.51012531916301L178.133375,103.73988207181296L178.40054166666664,81.02029689153035L179.06845833333333,89.63259879748027L179.20204166666667,71.13260984420776L179.335625,88.62808195749918L179.40241666666668,114.82734576861064L179.66958333333332,75.53512001037598L179.80316666666667,70.77284002304077L179.86995833333333,85.3711213270823L179.93675000000002,70.05448198318481L180.40429166666667,61.983067989349365L180.67145833333333,85.24388806025186L180.8718333333333,71.17333761850993L181.53975,78.78649147351582L181.60654166666666,99.01718576749167L181.87370833333335,94.4504047234853L182.00729166666665,80.03828207651775L182.20766666666665,75.55882708231609L182.34125,76.44683885574341L182.4080416666667,82.40709495544434L182.54162499999998,76.46632591883342L182.60841666666664,71.891676902771L182.67520833333333,69.62388165791829L182.742,74.64904006322226L182.87558333333334,92.64065392812093L183.0091666666667,94.47368510564168L183.07595833333335,75.37066157658896L183.343125,60.09776496887207L183.40991666666667,75.21753152211507L183.5435,75.70663054784139L183.74387499999997,64.73223495483398L184.07783333333333,91.35408107439676L184.87933333333334,75.72517045338948L185.1465,82.39504917462666L185.346875,76.14627106984456L185.81441666666666,97.12574497858682L186.01479166666667,69.60243463516235L186.41554166666666,81.57146286964417L186.48233333333334,75.60663509368896L186.6159166666667,69.4995789527893L186.81629166666667,82.14047479629517L187.01666666666668,67.47163025538127L187.08345833333334,70.41045379638672L187.15025,92.25245062510173L187.75137500000002,94.77143017450969L187.81816666666668,118.43100122610728L187.88495833333332,75.40761947631836L187.95174999999998,85.17126639684041L188.08533333333332,93.36719878514607L188.21891666666667,78.59940910339355L188.41929166666668,112.29032333691914L188.88683333333333,66.66269207000732L188.95362500000002,82.16491802533469L189.02041666666668,70.59641551971436L189.0872083333333,67.48226467768352L189.62154166666667,71.83858919143677L190.22266666666664,69.48381487528484L190.556625,71.14430395762126L191.02416666666667,80.95222345987955L191.09095833333333,72.55043903986612L191.29133333333334,99.53084993362427L192.02604166666666,91.37304298082988L192.22641666666667,84.4769811630249L192.42679166666667,84.45181584358215L192.49358333333333,85.40939680735269L192.56037500000002,76.88875818252563L192.6939583333333,77.58888578414917L193.22829166666665,79.26700043678284L193.361875,75.63189888000488L193.49545833333335,88.26851844787598L193.62904166666667,75.02399253845215L194.29695833333335,79.81891663869222L194.8312916666667,123.18883848190308L194.89808333333335,88.32368803024292L195.23204166666667,77.22652769088745L195.63279166666666,74.90543842315674L196.167125,78.52374903361003L196.56787500000002,90.28489025433859L196.63466666666667,74.02994600931804L196.70145833333333,76.50250546137492L196.76825,79.8256123860677L196.90183333333331,88.71317609151204L197.23579166666667,89.58226815859476L198.50483333333332,71.04835033416748L198.63841666666667,80.76708698272705L198.90558333333334,73.55377896626791L198.972375,85.24540257453918L199.10595833333332,67.41590738296509L199.43991666666668,80.58322588602701L199.64029166666668,87.47522711753845L199.77387499999998,94.46677366892497L199.97425,79.8388397693634L200.04104166666667,113.71529372533162L200.10783333333333,79.29860830307007L200.77575000000002,82.14652816454569L200.84254166666668,94.41168848673502L200.976125,71.8210620880127L201.04291666666666,73.06512069702148L201.10970833333334,69.32600529988608L201.1765,61.96735080083211L201.44366666666667,81.25902279218037L201.57725,77.94430430730183L201.777625,78.71793039639792L201.91120833333335,81.45179748535156L202.0447916666667,80.55569736162822L202.178375,93.28291114171347L202.77949999999998,92.22579423586528L203.04666666666668,83.398210922877L203.18025,80.19399571418762L203.31383333333332,81.22708670298259L203.44741666666667,92.16197832425435L203.64779166666668,96.12213309605917L203.84816666666666,74.91509755452473L204.24891666666667,104.26501997311911L204.31570833333333,73.97877136866252L204.582875,83.90490738550822L204.78325,98.14519596099854L204.98362500000002,78.69131151835123L205.1172083333333,77.31345987319946L205.45116666666667,84.81574002901714L205.71833333333333,88.04783074061075L205.91870833333334,74.21870231628418L205.9855,102.45838729540507L206.05229166666666,84.43317278226218L206.11908333333335,100.98375209172568L206.31945833333333,74.98398685455322L206.586625,68.72763617833455L206.987375,73.26748418807983L207.05416666666667,71.05602137247722L207.25454166666668,76.58796532948813L207.78887500000002,80.96200919151306L207.85566666666668,79.09576185544331L208.12283333333332,87.6408015092214L208.25641666666667,69.35984977086386L208.32320833333333,58.30241378148398L208.52358333333333,59.850406805674226L208.590375,70.63228559494019L208.72395833333331,67.26055479049683L208.92433333333335,86.93951106071472L208.991125,72.25210316975911L209.12470833333336,78.83447766304016L209.52545833333335,77.12315622965494L209.72583333333336,96.03397711118063L209.92620833333334,91.39204708735149L209.993,69.53110710779825L210.2601666666667,91.50380698839822L210.66091666666668,82.58712522188823L211.46241666666668,81.51384568214417L211.72958333333332,75.62717247009277L211.86316666666667,93.92966032028198L212.197125,93.65206813812256L212.53108333333333,84.44585156440735L212.79825,97.8464568456014L213.13220833333335,83.48543850580852L213.399375,79.2160743077596L213.66654166666666,85.79942878087361L213.86691666666667,90.0011321703593L214.86879166666668,94.68042333920796L215.53670833333334,94.41775592168173L215.60350000000003,92.30643391609192L215.67029166666666,108.43144408861795L215.87066666666666,84.7921970685323L215.93745833333332,82.61734986305237L216.27141666666665,109.15098373095195L216.67216666666667,83.45226454734802L216.73895833333336,100.8461610476176L216.80575000000002,96.57293319702148L216.87254166666665,79.36135514577231L216.9393333333333,88.91947356859842L217.006125,77.28724892934163L217.07291666666666,77.76045258839926L217.60725,81.30848598480225L219.14345833333334,78.73957435290019L219.21024999999997,76.58457056681316L219.27704166666666,70.82634973526001L219.74458333333334,87.8860543568929L220.47929166666665,88.64363972345988L220.5460833333333,79.29692029953003L220.612875,102.2313695748647L220.88004166666667,81.32803869247437L221.414375,96.45380234718323L221.48116666666667,79.24861057599385L221.68154166666665,77.58215252558391L221.815125,72.34414625167847L221.88191666666665,78.00450976689656L222.0155,69.2922452290853L222.95058333333333,91.4774272441864L223.15095833333334,106.40527248382568L223.28454166666668,82.80289427439372L223.6185,72.39349222183228L223.81887500000002,87.85506542523702L224.01925,74.99681568145752L224.620375,87.28860894838968L224.68716666666666,86.64304606119792L225.08791666666667,87.45642932256064L225.2215,85.69888472557068L225.28829166666665,71.2078291575114L225.68904166666667,80.6919895807902L225.88941666666665,112.04033001263936L225.95620833333334,98.41516399383545L226.2901666666667,75.10540119806925L226.42374999999998,101.411417166392L226.55733333333333,105.39786259333293L226.75770833333334,78.489098072052L226.8245,85.06235265731812L227.35883333333334,75.987073580424L227.69279166666666,122.25990668932596L227.826375,76.81750567754109L227.89316666666667,81.71763459841411L227.95995833333333,74.76487461725871L228.227125,80.56163350741069L228.69466666666665,82.72215143839519L229.16220833333335,77.0382308959961L229.36258333333333,73.05910952885947L229.89691666666664,86.9931755065918L230.230875,71.781018892924L230.96558333333334,92.125559647878L231.29954166666667,77.00129175186157L231.43312500000002,82.08208394050598L231.49991666666668,78.18404769897461L231.70029166666666,83.2712589899699L232.3682083333333,85.70522880554199L232.76895833333336,92.13227415084839L233.036125,78.3798279762268L233.37008333333335,105.11557213465372L233.50366666666665,79.31058843930563L233.63725,83.79022161165872L233.77083333333334,105.25640320777893L233.9044166666667,99.59332950909932L234.10479166666664,77.08725802103679L234.17158333333333,86.15819048881531L234.238375,80.02283684412639L234.43875,85.80880188941956L234.5055416666667,79.0753041903178L234.57233333333335,80.06606849034627L234.8395,80.75240135192871L234.97308333333334,85.73270575205485L235.17345833333334,93.04358037312825L235.24024999999997,82.49321595827739L235.37383333333332,98.0745108127594L235.440625,97.85845573743185L235.70779166666668,82.44927628835042L235.841375,81.28340975443521L235.90816666666666,77.58553791046143L235.97495833333332,86.21867259343465L236.24212500000002,81.0625954469045L236.3757083333333,80.93651564915976L236.50929166666666,77.61749744415283L236.70966666666666,104.60809262593587L237.31079166666666,73.96771494547527L237.51116666666667,87.09972135225931L237.64475,73.7537792523702L237.77833333333334,90.3222279548645L237.91191666666668,71.46558729807536L238.0455,78.09121688206992L238.646625,82.39115269978842L238.91379166666667,74.87233479817708L239.047375,88.75613109270732L239.24775000000002,96.1369218826294L239.78208333333333,74.81319840749106L240.04925,100.30207999547322L240.31641666666667,95.8016984462738L240.71716666666666,98.11235022544861L240.91754166666666,107.5922437508901L241.18470833333333,73.54820855458578L241.31829166666665,85.60242001215616L241.58545833333335,80.5939728418986L241.65225,84.4752181371053L242.11979166666669,91.62217823664346L242.32016666666667,104.79365579287212L242.38695833333333,78.1290094057719L242.72091666666668,98.27154771486919L242.78770833333334,83.10581588745117L242.8545,79.3100163936615L242.98808333333332,94.38732028007507L243.18845833333333,81.07750614484152L243.52241666666666,103.48119084040324L243.72279166666667,107.84117738405864L243.78958333333333,86.64365561803183L243.92316666666667,91.36319160461426L244.32391666666666,77.53537607192993L244.99183333333335,75.28442335128784L245.459375,101.77610095342001L245.65975,88.27393881479898L245.7265416666667,81.10296217600504L246.19408333333334,77.72630802790324L246.260875,76.83738660812378L246.3276666666667,82.77703499794006L246.39445833333335,89.27795394261679L246.72841666666667,77.66506163279216L246.92879166666668,73.59757328033447L248.465,77.45886262257893L248.53179166666666,81.23585025469461L248.73216666666667,83.13269265492758L248.86575,78.55394554138184L249.19970833333335,85.81766859690349L249.40008333333333,78.94886334737141L249.466875,81.89955449104309L249.60045833333334,87.85839923222859L249.66725,85.29314025243123L250.13479166666667,80.78168821334839L250.20158333333333,95.30612874031067L250.33516666666668,91.33732295036316L250.8695,83.13053107261658L250.93629166666668,88.10638570785522L251.27024999999998,93.43153985341391L251.33704166666666,92.55724310874939L251.73779166666668,111.55112314224243L251.871375,85.96888089179993L252.00495833333332,104.39547920227051L252.13854166666667,84.57857553164165L252.4057083333333,87.41662995020549L252.60608333333334,79.34419377644856L252.87325,82.29555543263753L253.274,78.21858612696329L253.474375,77.7834938367208L253.54116666666664,102.57097244262695L253.60795833333333,88.06494522094727L254.00870833333335,95.78351958592734L254.54304166666668,79.74688108762105L254.81020833333332,89.49437006314595L254.94379166666667,79.83333500226338L255.01058333333333,78.2773380279541L255.07737500000002,91.70998255411784L255.34454166666666,90.63016200065613L255.6785,117.34610962867737L256.1460416666667,84.35295979181925L256.41320833333333,83.29454406102498L256.68037499999997,81.94009470939636L256.74716666666666,89.76974439620972L256.94754166666667,82.74812324841818L257.2147083333333,95.75466879208882L257.3482916666667,89.42390060424805L257.74904166666664,96.38999581336975L257.94941666666665,79.54127756754558L258.083,78.2848121325175L258.21658333333335,105.38144675890605L258.35016666666667,100.69558175404866L258.5505416666667,96.97435450553894L258.684125,78.53248914082845L258.8845,99.42337568600972L259.15166666666664,77.89252010981242L259.28525,72.57274881998698L259.686,78.10447708765665L260.01995833333336,89.62961665789285L260.08675,99.92273871103923L260.3539166666667,76.99687480926514L260.82145833333334,76.29204893112183L261.3557916666667,88.21184372901917L261.5561666666667,93.28596830368042L261.7565416666667,79.80654263496399L261.8233333333333,90.42031502723694L262.02370833333333,81.76037391026814L262.35766666666666,79.2527555624644L262.7584166666667,87.28073159853618L262.82520833333336,96.5773454507192L263.092375,86.02780159314473L263.2259583333333,93.36340077718098L263.62670833333334,76.27454996109009L263.6935,81.85898145039876L263.82708333333335,84.61473162968953L264.09425,82.57100009918213L264.5617916666667,82.31369209289551L264.96254166666665,132.688169836998L265.16291666666666,79.66458622614543L265.5636666666667,78.87969271341959L266.098,82.65091300010681L266.298375,92.17983833948772L266.43195833333334,81.89229607582092L266.49875000000003,98.0503817399343L266.83270833333336,79.362930615743L266.8995,93.70291455586751L266.9662916666667,87.2367262840271L267.099875,69.37564198176065L267.2334583333333,82.91848500569662L267.30025,78.98193415006003L267.4338333333333,74.73745393753052L267.76779166666665,79.79182887077332L268.4357083333333,85.72943758964539L268.5025,81.41098062197366L268.8364583333333,88.94397775332133L268.97004166666665,84.52072389920552L269.03683333333333,84.20059871673584L269.30400000000003,85.00656882921855L269.37079166666666,68.76375945409139L269.6379583333333,77.04810571670532L269.7715416666667,92.1429835955302L270.1055,119.09070114294687L270.17229166666664,85.40921862920126L270.37266666666665,84.40736977259319L270.63983333333334,81.99449531237285L271.4413333333333,83.64345439275105L271.7752916666667,80.24954978624979L271.84208333333333,93.56271648406982L271.97566666666665,80.09814524650574L272.24283333333335,88.04305744171143" style="fill: none;" fill="none"></path></g></g></g></g></g></g><g transform="translate(29, 177)" clip-path="url(#clip_1)"><clipPath id="clip_1"><rect width="300" height="23"></rect></clipPath><g><g><line x1="0" y1="0" x2="0" y2="5" style="visibility: inherit;" fill="rgb(0, 0, 0)" stroke="rgb(204, 204, 204)" stroke-width="1px"></line><line x1="33.39583333333333" y1="0" x2="33.39583333333333" y2="5" style="visibility: inherit;" fill="rgb(0, 0, 0)" stroke="rgb(204, 204, 204)" stroke-width="1px"></line><line x1="66.79166666666666" y1="0" x2="66.79166666666666" y2="5" style="visibility: inherit;" fill="rgb(0, 0, 0)" stroke="rgb(204, 204, 204)" stroke-width="1px"></line><line x1="100.1875" y1="0" x2="100.1875" y2="5" style="visibility: inherit;" fill="rgb(0, 0, 0)" stroke="rgb(204, 204, 204)" stroke-width="1px"></line><line x1="133.58333333333331" y1="0" x2="133.58333333333331" y2="5" style="visibility: inherit;" fill="rgb(0, 0, 0)" stroke="rgb(204, 204, 204)" stroke-width="1px"></line><line x1="166.97916666666669" y1="0" x2="166.97916666666669" y2="5" style="visibility: inherit;" fill="rgb(0, 0, 0)" stroke="rgb(204, 204, 204)" stroke-width="1px"></line><line x1="200.375" y1="0" x2="200.375" y2="5" style="visibility: inherit;" fill="rgb(0, 0, 0)" stroke="rgb(204, 204, 204)" stroke-width="1px"></line><line x1="233.77083333333334" y1="0" x2="233.77083333333334" y2="5" style="visibility: inherit;" fill="rgb(0, 0, 0)" stroke="rgb(204, 204, 204)" stroke-width="1px"></line><line x1="267.16666666666663" y1="0" x2="267.16666666666663" y2="5" style="visibility: inherit;" fill="rgb(0, 0, 0)" stroke="rgb(204, 204, 204)" stroke-width="1px"></line><line x1="300.5625" y1="0" x2="300.5625" y2="5" style="visibility: inherit;" fill="rgb(0, 0, 0)" stroke="rgb(204, 204, 204)" stroke-width="1px"></line></g><g transform="translate(0, 8)"><text x="0" y="0" dx="0em" dy="0.95em" style="text-anchor: middle; visibility: hidden; font-family: &quot;Helvetica Neue&quot;, sans-serif; font-size: 12px; font-weight: 200;" fill="rgb(50, 49, 63)" stroke="none" stroke-width="1px">-500</text><text x="33.39583333333333" y="0" dx="0em" dy="0.95em" style="text-anchor: middle; visibility: inherit; font-family: &quot;Helvetica Neue&quot;, sans-serif; font-size: 12px; font-weight: 200;" fill="rgb(50, 49, 63)" stroke="none" stroke-width="1px">0</text><text x="66.79166666666666" y="0" dx="0em" dy="0.95em" style="text-anchor: middle; visibility: inherit; font-family: &quot;Helvetica Neue&quot;, sans-serif; font-size: 12px; font-weight: 200;" fill="rgb(50, 49, 63)" stroke="none" stroke-width="1px">500</text><text x="100.1875" y="0" dx="0em" dy="0.95em" style="text-anchor: middle; visibility: inherit; font-family: &quot;Helvetica Neue&quot;, sans-serif; font-size: 12px; font-weight: 200;" fill="rgb(50, 49, 63)" stroke="none" stroke-width="1px">1k</text><text x="133.58333333333331" y="0" dx="0em" dy="0.95em" style="text-anchor: middle; visibility: inherit; font-family: &quot;Helvetica Neue&quot;, sans-serif; font-size: 12px; font-weight: 200;" fill="rgb(50, 49, 63)" stroke="none" stroke-width="1px">1.5k</text><text x="166.97916666666669" y="0" dx="0em" dy="0.95em" style="text-anchor: middle; visibility: inherit; font-family: &quot;Helvetica Neue&quot;, sans-serif; font-size: 12px; font-weight: 200;" fill="rgb(50, 49, 63)" stroke="none" stroke-width="1px">2k</text><text x="200.375" y="0" dx="0em" dy="0.95em" style="text-anchor: middle; visibility: inherit; font-family: &quot;Helvetica Neue&quot;, sans-serif; font-size: 12px; font-weight: 200;" fill="rgb(50, 49, 63)" stroke="none" stroke-width="1px">2.5k</text><text x="233.77083333333334" y="0" dx="0em" dy="0.95em" style="text-anchor: middle; visibility: inherit; font-family: &quot;Helvetica Neue&quot;, sans-serif; font-size: 12px; font-weight: 200;" fill="rgb(50, 49, 63)" stroke="none" stroke-width="1px">3k</text><text x="267.16666666666663" y="0" dx="0em" dy="0.95em" style="text-anchor: middle; visibility: inherit; font-family: &quot;Helvetica Neue&quot;, sans-serif; font-size: 12px; font-weight: 200;" fill="rgb(50, 49, 63)" stroke="none" stroke-width="1px">3.5k</text><text x="300.5625" y="0" dx="0em" dy="0.95em" style="text-anchor: middle; visibility: hidden; font-family: &quot;Helvetica Neue&quot;, sans-serif; font-size: 12px; font-weight: 200;" fill="rgb(50, 49, 63)" stroke="none" stroke-width="1px">4k</text></g><line x1="0" y1="0" x2="300.5625" y2="0" fill="rgb(0, 0, 0)" stroke="rgb(204, 204, 204)" stroke-width="1px"></line></g></g></g></g></svg>