<svg viewBox="0 0 330 200" xmlns="http://www.w3.org/2000/svg"><g><g><g><g><g><line x1="39.15625" y1="177" x2="34.15625" y2="177" style="visibility: inherit;" fill="rgb(0, 0, 0)" stroke="rgb(204, 204, 204)" stroke-width="1px"></line><line x1="39.15625" y1="159.3" x2="34.15625" y2="159.3" style="visibility: inherit;" fill="rgb(0, 0, 0)" stroke="rgb(204, 204, 204)" stroke-width="1px"></line><line x1="39.15625" y1="141.6" x2="34.15625" y2="141.6" style="visibility: inherit;" fill="rgb(0, 0, 0)" stroke="rgb(204, 204, 204)" stroke-width="1px"></line><line x1="39.15625" y1="123.9" x2="34.15625" y2="123.9" style="visibility: inherit;" fill="rgb(0, 0, 0)" stroke="rgb(204, 204, 204)" stroke-width="1px"></line><line x1="39.15625" y1="106.2" x2="34.15625" y2="106.2" style="visibility: inherit;" fill="rgb(0, 0, 0)" stroke="rgb(204, 204, 204)" stroke-width="1px"></line><line x1="39.15625" y1="88.5" x2="34.15625" y2="88.5" style="visibility: inherit;" fill="rgb(0, 0, 0)" stroke="rgb(204, 204, 204)" stroke-width="1px"></line><line x1="39.15625" y1="70.8" x2="34.15625" y2="70.8" style="visibility: inherit;" fill="rgb(0, 0, 0)" stroke="rgb(204, 204, 204)" stroke-width="1px"></line><line x1="39.15625" y1="53.10000000000001" x2="34.15625" y2="53.10000000000001" style="visibility: inherit;" fill="rgb(0, 0, 0)" stroke="rgb(204, 204, 204)" stroke-width="1px"></line><line x1="39.15625" y1="35.400000000000006" x2="34.15625" y2="35.400000000000006" style="visibility: inherit;" fill="rgb(0, 0, 0)" stroke="rgb(204, 204, 204)" stroke-width="1px"></line><line x1="39.15625" y1="17.69999999999999" x2="34.15625" y2="17.69999999999999" style="visibility: inherit;" fill="rgb(0, 0, 0)" stroke="rgb(204, 204, 204)" stroke-width="1px"></line><line x1="39.15625" y1="0" x2="34.15625" y2="0" style="visibility: inherit;" fill="rgb(0, 0, 0)" stroke="rgb(204, 204, 204)" stroke-width="1px"></line></g><g transform="translate(29.15625, 0)"><text x="0" y="177" dx="0em" dy="0.3em" style="text-anchor: end; visibility: hidden; font-family: &quot;Helvetica Neue&quot;, sans-serif; font-size: 12px; font-weight: 200;" fill="rgb(50, 49, 63)" stroke="none" stroke-width="1px">3</text><text x="0" y="159.3" dx="0em" dy="0.3em" style="text-anchor: end; visibility: inherit; font-family: &quot;Helvetica Neue&quot;, sans-serif; font-size: 12px; font-weight: 200;" fill="rgb(50, 49, 63)" stroke="none" stroke-width="1px">3.5</text><text x="0" y="141.6" dx="0em" dy="0.3em" style="text-anchor: end; visibility: hidden; font-family: &quot;Helvetica Neue&quot;, sans-serif; font-size: 12px; font-weight: 200;" fill="rgb(50, 49, 63)" stroke="none" stroke-width="1px">4</text><text x="0" y="123.9" dx="0em" dy="0.3em" style="text-anchor: end; visibility: inherit; font-family: &quot;Helvetica Neue&quot;, sans-serif; font-size: 12px; font-weight: 200;" fill="rgb(50, 49, 63)" stroke="none" stroke-width="1px">4.5</text><text x="0" y="106.2" dx="0em" dy="0.3em" style="text-anchor: end; visibility: hidden; font-family: &quot;Helvetica Neue&quot;, sans-serif; font-size: 12px; font-weight: 200;" fill="rgb(50, 49, 63)" stroke="none" stroke-width="1px">5</text><text x="0" y="88.5" dx="0em" dy="0.3em" style="text-anchor: end; visibility: inherit; font-family: &quot;Helvetica Neue&quot;, sans-serif; font-size: 12px; font-weight: 200;" fill="rgb(50, 49, 63)" stroke="none" stroke-width="1px">5.5</text><text x="0" y="70.8" dx="0em" dy="0.3em" style="text-anchor: end; visibility: hidden; font-family: &quot;Helvetica Neue&quot;, sans-serif; font-size: 12px; font-weight: 200;" fill="rgb(50, 49, 63)" stroke="none" stroke-width="1px">6</text><text x="0" y="53.10000000000001" dx="0em" dy="0.3em" style="text-anchor: end; visibility: inherit; font-family: &quot;Helvetica Neue&quot;, sans-serif; font-size: 12px; font-weight: 200;" fill="rgb(50, 49, 63)" stroke="none" stroke-width="1px">6.5</text><text x="0" y="35.400000000000006" dx="0em" dy="0.3em" style="text-anchor: end; visibility: hidden; font-family: &quot;Helvetica Neue&quot;, sans-serif; font-size: 12px; font-weight: 200;" fill="rgb(50, 49, 63)" stroke="none" stroke-width="1px">7</text><text x="0" y="17.69999999999999" dx="0em" dy="0.3em" style="text-anchor: end; visibility: inherit; font-family: &quot;Helvetica Neue&quot;, sans-serif; font-size: 12px; font-weight: 200;" fill="rgb(50, 49, 63)" stroke="none" stroke-width="1px">7.5</text><text x="0" y="0" dx="0em" dy="0.3em" style="text-anchor: end; visibility: hidden; font-family: &quot;Helvetica Neue&quot;, sans-serif; font-size: 12px; font-weight: 200;" fill="rgb(50, 49, 63)" stroke="none" stroke-width="1px">8</text></g><line x1="39.15625" y1="0" x2="39.15625" y2="177" fill="rgb(0, 0, 0)" stroke="rgb(204, 204, 204)" stroke-width="1px"></line></g></g><g transform="translate(39, 0)" clip-path="url(#clip_0)"><clipPath id="clip_0"><rect width="290" height="177"></rect></clipPath><g><g><g><line x1="0" y1="0" x2="0" y2="177" fill="rgb(0, 0, 0)" stroke="rgb(60, 60, 60)" stroke-width="1px" opacity="0.25"></line><line x1="32.31597222222222" y1="0" x2="32.31597222222222" y2="177" fill="rgb(0, 0, 0)" stroke="rgb(60, 60, 60)" stroke-width="1px" opacity="0.25"></line><line x1="64.63194444444444" y1="0" x2="64.63194444444444" y2="177" fill="rgb(0, 0, 0)" stroke="rgb(60, 60, 60)" stroke-width="1px" opacity="0.25"></line><line x1="96.94791666666666" y1="0" x2="96.94791666666666" y2="177" fill="rgb(0, 0, 0)" stroke="rgb(60, 60, 60)" stroke-width="1px" opacity="0.25"></line><line x1="129.26388888888889" y1="0" x2="129.26388888888889" y2="177" fill="rgb(0, 0, 0)" stroke="rgb(60, 60, 60)" stroke-width="1px" opacity="0.25"></line><line x1="161.57986111111111" y1="0" x2="161.57986111111111" y2="177" fill="rgb(0, 0, 0)" stroke="rgb(60, 60, 60)" stroke-width="1px" opacity="0.25"></line><line x1="193.89583333333331" y1="0" x2="193.89583333333331" y2="177" fill="rgb(0, 0, 0)" stroke="rgb(60, 60, 60)" stroke-width="1px" opacity="0.25"></line><line x1="226.21180555555557" y1="0" x2="226.21180555555557" y2="177" fill="rgb(0, 0, 0)" stroke="rgb(60, 60, 60)" stroke-width="1px" opacity="0.25"></line><line x1="258.52777777777777" y1="0" x2="258.52777777777777" y2="177" fill="rgb(0, 0, 0)" stroke="rgb(60, 60, 60)" stroke-width="1px" opacity="0.25"></line><line x1="290.84375" y1="0" x2="290.84375" y2="177" fill="rgb(0, 0, 0)" stroke="rgb(60, 60, 60)" stroke-width="1px" opacity="0.25"></line></g><g><line x1="0" y1="177" x2="290.84375" y2="177" fill="rgb(0, 0, 0)" stroke="rgb(60, 60, 60)" stroke-width="1px" opacity="0.25"></line><line x1="0" y1="159.3" x2="290.84375" y2="159.3" fill="rgb(0, 0, 0)" stroke="rgb(60, 60, 60)" stroke-width="1px" opacity="0.25"></line><line x1="0" y1="141.6" x2="290.84375" y2="141.6" fill="rgb(0, 0, 0)" stroke="rgb(60, 60, 60)" stroke-width="1px" opacity="0.25"></line><line x1="0" y1="123.9" x2="290.84375" y2="123.9" fill="rgb(0, 0, 0)" stroke="rgb(60, 60, 60)" stroke-width="1px" opacity="0.25"></line><line x1="0" y1="106.2" x2="290.84375" y2="106.2" fill="rgb(0, 0, 0)" stroke="rgb(60, 60, 60)" stroke-width="1px" opacity="0.25"></line><line x1="0" y1="88.5" x2="290.84375" y2="88.5" fill="rgb(0, 0, 0)" stroke="rgb(60, 60, 60)" stroke-width="1px" opacity="0.25"></line><line x1="0" y1="70.8" x2="290.84375" y2="70.8" fill="rgb(0, 0, 0)" stroke="rgb(60, 60, 60)" stroke-width="1px" opacity="0.25"></line><line x1="0" y1="53.10000000000001" x2="290.84375" y2="53.10000000000001" fill="rgb(0, 0, 0)" stroke="rgb(60, 60, 60)" stroke-width="1px" opacity="0.25"></line><line x1="0" y1="35.400000000000006" x2="290.84375" y2="35.400000000000006" fill="rgb(0, 0, 0)" stroke="rgb(60, 60, 60)" stroke-width="1px" opacity="0.25"></line><line x1="0" y1="17.69999999999999" x2="290.84375" y2="17.69999999999999" fill="rgb(0, 0, 0)" stroke="rgb(60, 60, 60)" stroke-width="1px" opacity="0.25"></line><line x1="0" y1="0" x2="290.84375" y2="0" fill="rgb(0, 0, 0)" stroke="rgb(60, 60, 60)" stroke-width="1px" opacity="0.25"></line></g></g></g><g><g><line x1="0" y1="283.2" x2="290.84375" y2="283.2" fill="rgb(0, 0, 0)" stroke="rgb(153, 153, 153)" stroke-width="1.5px"></line></g></g><g><g><line x1="32.31597222222222" y1="0" x2="32.31597222222222" y2="177" fill="rgb(0, 0, 0)" stroke="rgb(153, 153, 153)" stroke-width="1.5px"></line></g></g><g><g><g><g><g><path stroke="rgb(187, 187, 187)" stroke-width="2px" d="M51.382395833333334,23.08419113159181L70.44881944444445,41.33638772964477L89.51524305555554,44.83756027221679L108.58166666666668,55.03083972930908L127.64809027777778,56.52847023010254L146.7145138888889,55.585787773132324L165.7809375,57.85463333129883L184.8473611111111,53.5753586769104" style="fill: none;" fill="none"></path></g><g><path stroke="rgb(0, 153, 136)" stroke-width="2px" d="M33.60861111111111,-35.75056457519531L33.67324305555555,19.634992218017572L33.93177083333333,-28.577393531799316L34.70735416666667,-10.860716056823748L34.96588194444444,24.405661582946777L35.09514583333333,-29.301547050476074L35.22440972222223,-3.869579315185547L35.28904166666667,4.184121894836437L35.418305555555555,-9.820602035522455L35.54756944444444,1.5162154197692814L35.612201388888884,1.5838706016540414L35.80609722222222,8.566668605804438L35.87072916666667,-0.023935890197748222L35.93536111111111,14.19585657119751L35.99999305555556,9.011845779418934L36.064625,8.841087341308594L36.452416666666664,15.262168407440186L36.58168055555555,15.884991073608404L36.6463125,21.96188821792603L36.71094444444445,16.53261051177978L36.77557638888889,-3.9359516143798885L36.96947222222222,58.21954593658448L37.034104166666665,11.230574512481695L37.098736111111116,6.379421138763433L37.16336805555555,21.104162979125988L37.48652777777777,8.964244079589832L37.8096875,0.48000068664549644L38.00358333333333,4.7839201927185115L38.068215277777774,22.075879096984863L38.45600694444444,30.162665176391613L38.973062500000005,44.55844888687133L39.16695833333333,38.430776596069336L39.23159027777778,79.11307983398437L39.68401388888889,71.34135961532593L39.87790972222222,35.747610569000244L40.00717361111111,25.92174196243286L40.39496527777778,26.594023132324224L40.45959722222222,26.614599895477284L40.524229166666665,21.01162662506104L40.718125,30.62460422515869L40.78275694444444,52.862379741668704L41.23518055555556,32.595247077941906L41.364444444444445,30.961698532104492L41.49370833333333,60.50871505737304L41.55834027777778,26.969637680053722L41.622972222222224,47.432072353363026L42.07539583333333,30.003638362884516L42.39855555555556,29.522624874114996L42.52781944444445,80.81522884368896L42.59245138888888,26.481973457336437L42.65708333333333,25.864991283416742L42.85097916666667,25.390662288665766L43.044875,47.50155057907105L43.17413888888888,23.346034240722645L43.238770833333334,43.01787557601929L43.43266666666667,56.108781909942635L43.820458333333335,38.9311177253723L43.88509027777778,42.33501062393188L44.014354166666664,34.820947265624994L44.20825,73.02136201858521L44.337513888888886,42.60110750198365L44.402145833333336,64.96075687408448L44.53140972222222,66.84843435287475L44.660673611111115,34.17302398681642L44.72530555555556,36.482955551147455L45.177729166666666,47.935013008117664L45.694784722222224,52.232636260986325L45.75941666666667,42.41741895675659L45.82404861111111,65.121826171875L46.08257638888889,36.56573524475098L46.72889583333334,64.72072277069093L46.793527777777776,-0.7419450759887525L46.92279166666667,43.311858272552485L47.052055555555555,74.18814382553101L47.18131944444444,45.760189247131336L47.37521527777778,35.01175918579102L47.43984722222223,54.88695430755615L47.50447916666666,64.8843915939331L47.698375,54.143338108062736L48.34469444444444,46.28460130691528L48.47395833333333,53.755367374420175L48.86175,59.416576766967765L49.05564583333333,54.73229942321778L49.12027777777778,77.5629186630249L49.18490972222222,44.48870058059691L49.249541666666666,32.05972795486451L49.37880555555556,77.63604297637939L49.63733333333333,82.5581431388855L49.76659722222222,49.2319398880005L49.89586111111111,70.25752630233764L50.025124999999996,65.96022377014161L50.34828472222222,63.57127676010133L50.47754861111111,57.13245477676391L50.73607638888889,77.23934526443482L51.1885,85.51925582885742L51.25313194444445,67.489301776886L51.51165972222222,90.6951135635376L51.57629166666667,86.28837776184082L51.64092361111111,89.78392925262452L51.7701875,79.22815103530884L51.83481944444445,71.41448392868041L51.899451388888885,54.44083185195923L52.15797916666667,67.76247138977051L52.22261111111111,58.19223403930664L52.351875,76.7846815109253L52.545770833333336,53.54090652465821L52.80429861111111,37.94419269561769L52.86893055555556,79.71237173080443L52.9335625,65.48049316406251L52.998194444444444,118.24684238433838L53.12745833333334,72.78880577087402L53.321354166666666,60.72964096069336L53.38598611111111,70.58592739105224L53.45061805555556,68.19222021102905L53.64451388888889,56.08013648986817L53.70914583333334,52.55209093093872L53.838409722222224,42.5779143333435L54.22620138888889,75.4884129524231L54.355465277777775,82.4245376586914L54.54936111111111,134.12516584396363L54.613993055555554,60.36942100524902L54.74325694444445,103.32895917892456L54.80788888888889,70.29503374099731L55.13104861111111,86.90306425094604L55.195680555555555,96.83946332931518L55.454208333333334,53.53116674423218L55.58347222222223,61.322349643707284L55.777368055555556,54.301149559021L56.035895833333335,91.85647687911987L56.294423611111114,103.17340965270996L56.4236875,79.54294681549072L56.68221527777778,61.593797492980954L56.74684722222223,78.94773988723755L56.811479166666665,65.29423885345459L56.94074305555555,62.060834312438956L57.005375,98.2102910041809L57.26390277777778,64.97348442077636L57.328534722222216,56.211581325531014L57.5870625,80.27702579498292L57.651694444444445,49.17924041748047L57.71632638888889,48.19077930450439L58.36264583333333,51.61610984802246L58.685805555555554,113.64171552658081L59.13822916666667,81.64154033660888L59.202861111111105,63.39629831314086L59.526020833333334,88.33734397888183L59.590652777777784,46.50210056304931L59.71991666666667,62.1699806213379L59.849180555555556,96.83206987380981L60.107708333333335,61.10137310028075L60.689395833333336,72.21856441497802L60.75402777777778,60.38380279541015L60.81865972222222,70.43093490600586L60.88329166666667,67.94010000228882L61.0771875,73.6519157409668L61.46497916666667,77.31420822143555L61.917402777777774,70.40450077056884L61.982034722222224,91.1100417137146L62.046666666666674,57.76010513305664L62.11129861111111,87.1044261932373L62.240562499999996,75.79576463699341L62.305194444444446,47.676258945465094L62.499090277777775,73.1118896484375L62.563722222222225,72.72634963989258L62.88688194444445,87.25116434097289L62.95151388888889,97.31770849227905L63.21004166666666,86.92502517700196L63.66246527777778,59.87753677368164L63.85636111111111,64.18756685256959L63.92099305555555,70.43167762756347L64.05025694444444,71.83690681457519L64.17952083333334,70.67679262161255L64.37341666666667,111.1043423652649L65.08436805555556,119.31762742996216L65.27826388888889,106.81845073699951L65.34289583333333,98.72303895950317L65.40752777777777,70.44766302108765L65.53679166666666,39.72410802841188L65.66605555555556,73.67907571792603L65.7306875,65.48201236724854L65.85995138888889,97.25655212402344L66.18311111111112,77.12034101486206L66.24774305555556,128.85434103012085L66.63553472222222,57.95984659194947L66.76479861111112,67.28528966903686L66.82943055555556,87.34074668884277L66.8940625,71.19511098861695L66.95869444444445,95.26622714996338L67.02332638888889,110.3227460861206L67.08795833333333,66.28329076766967L67.21722222222222,91.6678593635559L67.28185416666666,82.41390323638916L67.3464861111111,75.83502759933471L67.66964583333333,51.76392831802367L67.73427777777778,54.540002059936526L67.79890972222222,82.77565927505493L67.9281736111111,152.42638206481934L68.18670138888889,61.25682134628296L68.31596527777778,82.51633129119874L68.44522916666666,77.11591844558716L68.70375694444445,68.42048892974854L68.7683888888889,99.000985622406L68.83302083333334,94.06234302520753L69.09154861111111,118.14922513961793L69.35007638888888,71.54192819595336L69.41470833333334,91.83686227798462L69.60860416666667,79.42012767791748L69.73786805555555,89.0921347618103L69.8025,79.52378797531128L69.86713194444445,85.27390451431275L69.93176388888888,82.23261165618896L69.99639583333334,73.87932357788087L70.06102777777778,69.65639448165894L70.19029166666667,49.17053031921387L70.25492361111111,62.728642272949216L70.51345138888888,80.3369499206543L70.57808333333334,76.65406379699708L70.77197916666667,51.72923984527587L70.83661111111111,97.61520223617553L71.03050694444444,135.72608528137206L71.15977083333334,128.55070295333863L71.41829861111111,57.397201251983645L71.5475625,122.01416244506837L71.67682638888888,113.19209890365602L71.80609027777777,115.9790433883667L71.99998611111111,98.7461477279663L72.25851388888888,67.53048906326295L72.32314583333334,55.99441967010499L72.45240972222223,72.02422456741333L72.64630555555556,73.61393566131592L72.90483333333333,148.18226008415223L73.22799305555556,80.64116191864014L73.68041666666667,107.86632957458497L73.7450486111111,84.28340091705321L73.8743125,114.03145866394044L73.93894444444445,74.13660907745361L74.00357638888889,102.26794767379761L74.06820833333333,107.33622894287109L74.13284027777777,79.39651250839233L74.19747222222223,84.69913930892945L74.39136805555556,88.76905088424682L74.64989583333333,81.8798020362854L74.71452777777777,48.58693685531617L74.97305555555555,98.04025840759277L75.16695138888888,94.66117916107177L75.29621527777778,81.49534235000611L75.42547916666668,98.16876611709594L75.619375,81.0542670249939L75.68400694444445,92.14158067703247L75.74863888888888,80.33966760635376L75.81327083333333,89.67685918807983L75.87790277777778,112.0291995048523L76.00716666666666,109.94358673095704L76.0717986111111,120.50996561050414L76.13643055555555,78.46508903503418L76.26569444444445,106.06067218780518L76.33032638888888,85.25491447448731L76.39495833333334,111.37202596664429L76.45959027777778,75.24596500396729L76.58885416666666,65.09724884033203L76.71811805555555,84.56661415100098L76.78275000000001,101.50522327423096L77.23517361111111,78.02995548248292L77.42906944444445,107.97964525222778L77.49370138888888,98.93221635818482L77.55833333333334,93.65438632965088L77.68759722222222,85.41127424240112L77.88149305555555,72.74240255355835L78.01075694444444,87.48162746429443L78.14002083333334,97.8378161430359L78.39854861111111,116.21453676223754L78.65707638888888,131.4801149368286L78.85097222222223,82.56405115127563L78.91560416666667,83.37777013778687L78.98023611111111,100.4956283569336L79.04486805555555,87.31804304122925L79.10950000000001,108.49565105438232L79.43265972222223,120.23963184356688L79.82045138888888,148.83939986228944L79.94971527777778,114.22596731185914L80.01434722222221,99.92410411834717L80.07897916666666,95.35418901443481L80.14361111111111,72.8487805366516L80.27287500000001,69.53757591247559L80.46677083333333,73.82193145751954L80.53140277777779,78.13955755233765L80.72529861111111,92.45247716903687L80.78993055555556,110.41869220733642L80.85456250000001,131.6437668800354L80.98382638888889,96.40669298171997L81.11309027777779,79.94276733398438L81.50088194444444,92.75598020553589L81.69477777777779,89.84694242477417L81.75940972222222,74.60708942413329L81.95330555555556,67.76047954559327L82.01793749999999,75.25381422042847L82.08256944444445,77.24231615066527L82.21183333333333,74.23647136688233L82.27646527777779,101.50620231628417L82.34109722222222,88.64192733764648L82.66425694444445,95.22809514999389L82.92278472222222,92.28384561538697L82.98741666666666,122.940589427948L83.11668055555556,92.22324628829956L83.24594444444445,107.22763967514038L83.37520833333333,71.62769565582276L83.43984027777779,77.44794874191284L83.50447222222222,85.25121774673461L83.56910416666666,145.28150196075438L83.63373611111112,99.05346565246582L83.82763194444445,76.34308290481567L83.95689583333333,114.5317153930664L84.08615972222222,139.2141251564026L84.28005555555556,119.01540727615355L84.40931944444445,72.5977575302124L84.47395138888889,74.64831047058105L84.53858333333334,87.01811857223511L84.79711111111112,116.40198955535888L84.926375,75.08076009750367L84.99100694444444,104.71509704589843L85.12027083333334,142.44816269874573L85.31416666666667,114.46049852371215L85.57269444444444,57.66773757934571L85.76659027777777,65.70125026702881L85.96048611111111,82.00439357757568L86.02511805555555,78.66086368560791L86.15438194444444,81.83063049316407L86.28364583333334,75.6181360244751L86.41290972222222,124.6948471069336L86.73606944444444,128.1131217956543L86.86533333333334,101.24047679901123L86.92996527777777,88.72995672225952L86.99459722222223,89.1096899986267L87.05922916666667,92.33835124969482L87.253125,81.70252790451049L87.64091666666667,97.38274726867675L87.77018055555556,162.8269483566284L87.8348125,65.1176736831665L87.89944444444444,95.66403894424438L88.02870833333333,88.74386587142945L88.28723611111111,44.916491317749035L88.4165,115.04733295440673L88.48113194444444,89.2516004562378L88.73965972222223,193.5292767047882L88.80429166666667,110.09125328063965L88.86892361111111,94.00451202392578L88.93355555555556,98.64059686660767L89.1274513888889,94.85486068725587L89.19208333333333,74.19097967147827L89.25671527777777,99.30220985412598L89.38597916666667,86.31224613189697L89.51524305555554,86.74420623779297L89.64450694444444,107.57513208389283L89.7091388888889,109.64585666656494L89.83840277777777,110.07479524612427L89.90303472222222,81.19535036087036L90.09693055555555,106.91498765945434L90.2908263888889,59.44328098297119L90.35545833333333,95.73226804733277L90.80788194444445,76.41256113052368L90.87251388888889,88.59567604064941L90.93714583333333,92.83783149719238L91.00177777777778,124.06486730575563L91.13104166666668,117.91715841293336L91.1956736111111,98.28999853134155L91.3249375,93.82632637023926L91.38956944444445,99.12707948684692L91.45420138888889,76.34683027267455L91.64809722222222,83.87249021530151L91.71272916666668,116.85734539031984L91.7773611111111,95.35596141815185L91.84199305555555,125.56175508499146L91.97125694444445,111.15943880081177L92.3590486111111,99.23588819503784L92.42368055555555,85.40384702682495L92.61757638888888,85.9854148864746L93.07000000000001,100.87812995910645L93.26389583333334,121.64373006820679L93.71631944444445,98.96752939224243L93.78095138888888,77.01229190826416L93.84558333333334,148.1200655937195L93.97484722222222,88.39265985488892L94.03947916666665,98.59653997421265L94.10411111111111,116.93214082717896L94.29800694444445,100.89759263992309L94.36263888888888,77.84525413513184L94.49190277777778,80.09975166320801L94.62116666666665,74.67357988357544L94.68579861111111,133.01486463546752L94.94432638888888,116.29868373870849L95.00895833333333,107.71724510192871L95.26748611111111,81.5471302986145L95.33211805555555,103.08143033981324L95.39675,87.61975679397584L95.46138194444445,110.65295333862305L95.65527777777778,130.09926052093505L95.71990972222223,95.50425252914428L95.78454166666666,87.7011860847473L95.9784375,109.97839336395263L96.04306944444444,85.6825870513916L96.560125,127.83880434036254L96.81865277777779,97.0908408164978L96.94791666666666,84.99318952560425L97.07718055555556,92.16830177307129L97.1418125,82.29344730377197L97.33570833333333,87.8997797012329L97.40034027777779,101.58861064910889L97.52960416666666,81.31101236343385L97.59423611111112,130.26698055267335L97.65886805555556,136.2714285850525L97.7235,107.66270570755005L97.91739583333333,115.88571367263793L98.43445138888889,81.65815029144288L98.56371527777779,49.08937110900878L98.69297916666666,119.34858541488649L98.82224305555556,67.00259971618652L98.886875,165.8252815246582L98.95150694444443,95.09104614257812L99.08077083333333,193.81572246551514L99.21003472222222,86.06427841186523L99.27466666666666,78.50180311203003L99.33929861111112,96.06438274383545L99.53319444444443,131.2418194770813L99.66245833333333,96.27036981582641L100.11488194444443,108.25583639144898L100.17951388888889,74.57781944274903L100.37340972222222,80.20293931961059L100.5026736111111,64.67406635284424L100.89046527777778,78.85837697982788L100.95509722222222,148.80084586143494L101.08436111111111,103.36309061050414L101.213625,111.83799934387207L101.47215277777778,74.4945671081543L101.73068055555557,83.94456796646118L101.85994444444444,104.85974206924439L101.98920833333334,107.55163507461548L102.18310416666667,86.11608324050904L102.24773611111111,95.36342239379883L102.31236805555557,117.31827163696289L102.377,96.07700901031494L102.76479166666667,73.5658106803894L102.82942361111111,63.05530471801758L103.21721527777777,89.37090854644775L103.34647916666667,102.9591007232666L103.47574305555557,87.96814384460448L103.540375,115.21024217605591L103.60500694444444,117.66974773406983L104.18669444444444,76.57648315429687L104.31595833333334,115.84692335128784L104.50985416666667,87.6012056350708L104.76838194444444,77.24508447647095L104.89764583333334,89.78030004501343L104.96227777777777,125.16357192993163L105.02690972222221,86.6986807823181L105.22080555555554,99.4022578239441L105.2854375,106.07687702178956L105.41470138888889,95.15451507568359L105.47933333333334,105.84538421630859L105.54396527777777,118.70290718078613L105.73786111111112,92.71187267303466L105.80249305555554,66.11281929016114L106.4488125,98.18635511398315L106.57807638888889,96.37175130844116L106.64270833333333,82.82091464996337L106.83660416666667,97.00990104675293L106.90123611111112,81.46387796401977L106.96586805555555,125.94717693328857L107.15976388888889,89.74331588745117L107.22439583333333,108.2008074760437L107.28902777777778,113.76613826751708L108.25850694444445,90.49471378326416L108.45240277777778,111.15955696105956L108.58166666666668,89.34697265625L108.58166666666668,89.34697265625L108.71093055555555,108.48207950592041L108.7755625,137.45823011398315L108.96945833333332,144.66269674301148L109.16335416666668,99.43787469863892L109.22798611111111,82.63899850845337L109.29261805555555,118.16070356369019L109.35725,98.70933237075806L109.4865138888889,115.84457702636718L109.61577777777778,129.96675224304198L109.74504166666668,128.33598890304566L109.87430555555555,89.90580310821534L109.9389375,93.50616273880004L110.0682013888889,85.30783338546753L110.19746527777778,92.0951099395752L110.32672916666667,115.68860549926757L110.39136111111111,80.7172571182251L110.45599305555555,135.43487091064452L110.520625,101.80737590789795L110.58525694444445,110.01904048919678L111.23157638888888,208.11209964752197L111.49010416666667,117.90942735671996L111.74863194444445,107.86855773925781L111.81326388888888,160.05452914237975L111.87789583333333,156.83580179214476L112.00715972222223,153.11671643257142L112.20105555555556,122.20429916381835L112.39495138888888,92.67576627731323L112.52421527777778,100.44966402053834L112.65347916666666,67.06645689010621L112.71811111111111,115.80109405517578L112.847375,97.72946319580078L113.10590277777779,122.71534223556517L113.17053472222223,103.20914468765258L113.23516666666666,99.4111198425293L113.36443055555556,115.48322610855104L113.4290625,101.5119415283203L113.62295833333333,86.68502483367921L113.68759027777779,127.84461107254029L113.75222222222223,100.63613777160644L113.81685416666666,88.51598539352418L113.8814861111111,100.1462791442871L113.94611805555556,81.46139659881591L114.26927777777777,89.40282869338989L114.33390972222223,113.71816520690919L114.4631736111111,105.2670742034912L114.72170138888889,87.58447751998902L114.78633333333333,124.39917640686036L114.91559722222223,136.71525535583496L115.174125,97.6396276473999L115.30338888888889,102.74707059860229L115.56191666666666,93.48153476715088L115.6265486111111,84.86804094314574L115.69118055555556,119.12649478912354L115.7558125,143.54644532203673L115.88507638888889,104.59997520446777L116.07897222222223,97.87412509918212L116.14360416666666,142.17768545150756L116.27286805555556,100.02742681503295L116.3375,120.14314556121826L116.40213194444443,96.26896877288819L116.7899236111111,83.1586166381836L116.9191875,89.75511503219604L116.98381944444444,113.75508184432982L117.11308333333334,104.24309749603272L117.17771527777778,100.67504625320434L117.37161111111111,118.93899135589601L117.43624305555556,107.82639141082764L117.75940277777778,138.5272427558899L117.82403472222222,97.85064496994019L117.88866666666667,125.55748443603517L118.08256250000001,171.54158735275269L118.2118263888889,109.7050043106079L118.27645833333334,101.67279138565064L118.34109027777778,121.05400915145873L118.40572222222221,95.43193845748901L118.47035416666667,141.64622597694398L118.53498611111111,113.83777713775635L118.72888194444444,91.00582437515259L118.92277777777778,100.9023359298706L119.2459375,116.026864528656L119.31056944444444,121.4324764251709L119.37520138888888,82.63724298477173L119.43983333333334,106.90050458908081L119.69836111111111,117.29170246124266L119.95688888888888,101.75818748474121L120.08615277777778,84.75194005966186L120.15078472222221,110.18682804107667L120.4093125,121.26249446868897L120.66784027777777,92.95805110931397L121.12026388888889,94.03606081008911L121.24952777777777,50.988577651977536L121.44342361111111,124.2463614463806L121.5726875,136.7736602783203L121.63731944444444,91.22526483535766L121.76658333333334,113.61352586746216L121.83121527777777,99.7010682106018L121.89584722222222,93.55266723632812L122.02511111111112,107.00926265716552L122.08974305555556,114.52887954711915L122.28363888888889,91.44035024642945L123.38238194444445,102.16538457870483L123.44701388888889,127.23758811950682L123.51164583333335,110.50194454193115L123.57627777777778,133.4677897453308L123.83480555555555,88.26037101745605L124.02870138888889,115.94124898910522L124.09333333333335,111.83705406188965L124.28722916666666,82.39212799072266L124.35186111111112,80.80331153869629L124.41649305555555,77.91501932144165L124.67502083333332,134.64140796661377L124.73965277777778,107.8811333656311L124.80428472222222,72.7409171104431L124.93354861111112,107.81759691238403L124.99818055555555,93.30687704086304L125.06281249999999,132.00111722946167L125.19207638888889,136.30834522247315L125.32134027777778,136.05202188491822L125.70913194444445,114.80113763809203L125.83839583333332,105.52950811386108L126.16155555555555,109.18845834732056L126.2261875,92.7476245880127L126.807875,100.38045587539673L126.87250694444445,109.33168544769288L127.58345833333333,95.09751119613648L127.77735416666667,162.47919430732728L127.8419861111111,95.04778261184693L128.03588194444444,88.49476718902588L128.10051388888888,103.68092479705811L128.2944097222222,86.07067594528199L128.4236736111111,105.98429002761841L128.48830555555554,81.0798402786255L128.5529375,90.06695680618286L129.0053611111111,107.51779060363769L129.06999305555556,94.92678651809692L129.134625,99.67098798751832L129.19925694444444,118.79427881240844L129.32852083333333,107.58921003341675L129.39315277777777,119.42412357330323L129.5224166666667,90.04028635025024L129.5870486111111,118.0108763694763L129.65168055555554,74.98256893157959L129.71631250000002,120.1661699295044L130.03947222222223,136.47753381729126L130.16873611111112,127.39065628051759L130.49189583333333,70.85418491363525L130.55652777777777,117.21584358215333L130.7504236111111,85.57391338348388L131.20284722222223,104.89735078811646L131.33211111111112,92.8304549217224L131.97843055555555,94.04326858520508L132.10769444444446,126.37981224060059L132.17232638888888,97.46584768295288L132.3015902777778,122.6810926437378L132.36622222222223,115.0106357574463L132.49548611111112,90.5871826171875L132.56011805555556,127.77065963745116L132.94790972222222,108.8229718208313L133.01254166666666,138.9080057144165L133.40033333333332,105.31182317733764L133.4649652777778,130.6116539955139L134.04665277777778,87.10197858810425L134.30518055555555,100.50817022323608L134.43444444444444,90.6647294998169L134.6929722222222,139.79655389785768L135.0807638888889,101.64237356185913L135.21002777777778,91.82897930145263L135.27465972222222,98.6423523902893L135.4039236111111,113.65332899093627L135.59781944444444,120.7245108604431L135.72708333333333,124.93862857818604L135.7917152777778,180.89711065292357L136.05024305555557,153.52455496788025L136.114875,69.8617907524109L136.2441388888889,133.45075778961183L136.30877083333334,112.38099632263183L136.37340277777778,65.14169397354125L136.43803472222223,73.98629236221313L136.63193055555556,118.26804370880126L136.6965625,76.93050813674927L136.76119444444444,123.29240312576295L137.0197222222222,118.06610784530639L137.1489861111111,92.3328989982605L137.21361805555557,91.8490159034729L137.27824999999999,99.3683627128601L137.4075138888889,101.80793294906616L137.5367777777778,93.21349668502808L137.66604166666667,115.72396917343139L137.8599375,89.40483741760254L138.05383333333333,80.5917202949524L138.11846527777777,80.44699087142943L138.18309722222222,103.98358383178712L138.37699305555557,121.78829069137572L138.50625694444443,113.41900033950805L138.5708888888889,101.47910985946655L138.76478472222223,168.58768243789672L138.82941666666667,151.38103523254395L139.0233125,91.40446329116821L139.21720833333333,98.18525791168213L139.28184027777777,92.28436889648438L139.34647222222222,112.53219079971313L139.41110416666666,135.58395538330078L139.605,104.78766431808472L139.86352777777776,85.88860788345336L139.99279166666668,107.2064045906067L140.05742361111112,87.12552623748779L140.12205555555556,111.0486888885498L140.3159513888889,93.88292512893676L140.38058333333333,97.30118293762207L140.50984722222222,132.7457293510437L140.768375,102.41213693618775L140.83300694444443,126.55008115768433L140.8976388888889,95.68621931076049L141.0915347222222,129.24155216217042L141.3500625,111.65041151046753L141.41469444444445,111.6362829208374L141.54395833333334,81.34870548248291L141.60859027777778,114.05579967498778L141.67322222222222,81.29286632537843L141.73785416666666,113.98259096145631L141.86711805555555,145.83628964424133L142.06101388888888,83.9847086906433L142.12564583333335,93.41999015808105L142.19027777777777,86.29864082336427L142.2549097222222,110.92544775009155L142.5134375,109.25407104492187L142.57806944444445,107.15392456054687L142.90122916666667,118.09156293869017L143.03049305555555,74.360657787323L143.095125,123.864754486084L143.15975694444444,87.14826364517212L143.4182847222222,101.65933799743652L143.61218055555554,95.40813760757446L143.74144444444445,61.89849901199341L143.93534027777778,115.29312314987183L143.99997222222223,108.87749433517456L144.06460416666667,93.09668684005737L144.1292361111111,87.1390471458435L144.19386805555555,82.27641534805298L144.32313194444444,95.55749216079712L144.45239583333333,107.48693389892578L144.64629166666668,102.13064546585083L144.7109236111111,85.99696083068848L144.8401875,94.47330436706542L144.90481944444446,109.56935634613038L144.9694513888889,86.16825942993164L145.16334722222223,102.85800619125366L145.2926111111111,112.59145660400391L145.35724305555556,99.05192956924438L145.421875,102.4100775718689L145.48650694444444,99.63221454620361L145.93893055555554,120.41753053665161L146.0035625,91.74030847549439L146.19745833333334,112.10019693374633L146.52061805555556,121.81754379272462L146.7145138888889,102.29672813415527L146.8437777777778,107.2196385383606L147.10230555555555,63.153006362915036L147.1669375,115.78612146377563L147.2962013888889,104.903782081604L147.55472916666665,87.73165454864501L147.61936111111112,127.52152719497681L147.68399305555556,99.84900484085082L147.81325694444445,120.81311416625977L147.8778888888889,87.8904788017273L147.94252083333333,116.3468762397766L148.2010486111111,117.22635984420776L148.4595763888889,152.84150433540344L148.58884027777776,97.78420515060425L148.6534722222222,140.49842576980592L148.78273611111112,121.2897557258606L149.17052777777775,126.82129268646241L149.23515972222222,90.02826776504517L149.42905555555555,120.69937648773194L149.6229513888889,95.77212181091309L149.88147916666665,99.29626808166503L150.01074305555557,105.65388021469116L150.26927083333334,117.10230846405028L150.5277986111111,109.39009037017823L150.59243055555555,118.48309535980223L150.6570625,81.24636182785035L150.91559027777777,108.31081466674804L150.9802222222222,123.58910350799562L151.17411805555557,123.15565795898436L151.23875,107.1204683303833L151.30338194444445,122.25347070693971L151.49727777777775,152.16340799331664L151.6911736111111,104.33821649551392L151.75580555555555,122.3870761871338L151.88506944444444,163.33399085998536L152.01433333333333,89.73973731994629L152.07896527777777,109.85690774917603L152.1435972222222,113.63452463150026L152.5960208333333,104.33656225204467L152.72528472222223,124.05799713134766L152.78991666666667,118.9343493461609L153.17770833333333,105.27715158462524L153.24234027777777,93.8627872467041L153.3069722222222,95.59710960388183L153.37160416666666,91.52147569656373L153.4362361111111,68.28852081298828L153.56550000000001,109.05758743286133L153.75939583333331,183.84170622825621L154.21181944444444,81.89303598403932L154.27645138888892,151.44072303771972L154.34108333333333,123.49001770019532L154.92277083333332,123.67733545303344L155.11666666666667,124.64933853149415L155.18129861111112,137.93799448013306L155.37519444444445,87.84907207489015L155.43982638888892,96.86525602340699L155.50445833333333,101.15992527008056L155.56909027777778,143.74509801864625L155.63372222222222,106.35708560943604L155.82761805555555,98.74086427688599L155.89225000000002,99.34486570358277L155.95688194444446,83.36654491424561L156.02151388888888,122.24305572509766L156.28004166666668,91.94501266479492L156.34467361111112,111.68886423110962L156.40930555555556,117.57711009979249L156.60320138888886,89.32026844024658L156.73246527777778,116.53799200057983L156.86172916666666,93.61272640228272L156.99099305555555,136.58873949050903L157.05562500000002,105.67244825363159L157.12025694444446,101.53810558319091L157.24952083333332,80.76955146789551L157.31415277777776,87.41608228683471L157.6373125,91.82384777069092L157.83120833333334,115.20325384140014L157.96047222222222,150.69697179794312L158.15436805555555,129.8546012878418L158.34826388888888,97.7260871887207L158.41289583333332,95.23503284454345L158.5421597222222,96.16650695800782L158.67142361111112,129.06152658462526L159.05921527777778,154.55178108215333L159.12384722222222,115.19900007247924L159.2531111111111,96.56099338531494L159.38237500000002,106.18428468704224L159.7055347222222,117.03083839416504L159.9640625,112.98800239562988L160.02869444444443,118.14544401168823L160.09332638888887,114.06991138458253L160.1579583333333,99.00209970474243L160.93354166666666,110.3224084854126L161.06280555555557,92.06276779174804L161.19206944444443,157.16220259666443L161.3213333333333,97.44182739257812L161.38596527777779,109.48333568572998L161.57986111111111,96.38051204681396L161.64449305555556,98.78660917282104L161.70912500000003,112.53193759918213L161.77375694444444,94.22665328979492L161.8383888888889,113.87685441970825L161.90302083333333,142.14989247322083L161.96765277777777,92.18415212631226L162.09691666666666,125.96334800720214L162.16154861111113,136.49934282302857L162.22618055555557,69.52464580535889L162.35544444444443,87.09266080856322L162.67860416666667,124.67800083160401L162.8725,95.02295207977295L163.0017638888889,128.1603521347046L163.06639583333333,101.07753381729125L163.19565972222222,97.83454141616821L163.38955555555557,105.12030229568481L163.58345138888888,106.66009912490844L163.7127152777778,93.41843719482422L163.90661111111112,92.05900354385376L163.97124305555556,142.92083745002748L164.10050694444442,138.31786279678346L164.1651388888889,101.57799310684204L164.35903472222222,118.7485001564026L164.48829861111113,78.15302782058716L164.55293055555558,126.41012878417968L165.06998611111112,143.44099574089051L165.13461805555556,109.8692470550537L165.26388194444442,85.81755981445313L165.58704166666666,134.50152311325073L165.84556944444444,105.0809211730957L165.91020138888888,141.9244258403778L165.97483333333332,139.96476345062257L166.10409722222224,60.66115865707398L166.16872916666668,85.91249313354491L166.29799305555557,110.80478925704956L166.42725694444442,97.13741283416748L166.62115277777778,103.15512857437133L166.68578472222222,124.49593276977538L166.9443125,112.33484630584717L167.26747222222224,102.83135261535645L167.39673611111112,97.80947456359863L167.78452777777778,135.90550317764283L167.84915972222223,64.68611869812013L167.91379166666667,152.30156264305114L167.9784236111111,120.6370891571045L168.04305555555553,121.50364265441894L168.23695138888888,104.66452445983887L168.36621527777777,128.07613763809204L168.56011111111113,114.76751260757447L168.62474305555554,102.43242673873901L168.8186388888889,95.86899633407593L168.94790277777778,104.63019046783447L169.07716666666667,119.97174568176268L169.1417986111111,107.98611030578613L169.20643055555553,86.43575735092163L169.46495833333333,117.1325912475586L169.72348611111113,121.22689447402954L169.78811805555554,133.46937646865845L169.85275,95.14675025939941L170.1112777777778,120.9444408416748L170.17590972222223,104.93090829849243L170.30517361111112,89.24523668289184L170.36980555555553,93.90115556716918L170.49906944444444,115.51772890090942L170.5637013888889,93.11545743942261L170.62833333333333,102.0425485610962L170.75759722222222,126.29142837524415L170.8222291666667,118.91140937805176L170.88686111111113,114.56711282730103L170.95149305555555,161.7422288417816L171.14538888888887,143.59891691207886L171.2746527777778,105.77388038635254L171.33928472222223,116.14860334396363L171.7270763888889,87.47847089767457L171.79170833333333,106.51231441497802L171.85634027777778,95.41645946502686L172.11486805555555,75.8473331451416L172.24413194444443,102.14077348709107L172.37339583333335,152.17652378082275L172.6319236111111,114.7774380683899L173.08434722222222,114.03652267456056L173.27824305555555,133.2084111213684L173.40750694444444,90.90456104278564L173.53677083333335,130.68131790161132L173.6014027777778,176.61145534515381L173.73066666666668,153.71918177604675L173.85993055555554,106.06912908554077L173.98919444444445,102.11670255661011L174.0538263888889,118.95902795791625L174.11845833333334,96.91917085647583L174.3123541666667,129.06127338409425L174.3769861111111,136.52554063796998L174.57088194444444,68.53037796020509L174.63551388888888,128.39711151123046L174.82940972222224,121.86914606094359L175.02330555555554,91.89688768386841L175.28183333333334,123.46601428985596L175.669625,112.46296577453613L175.73425694444444,150.76506586074828L175.9281527777778,100.44557905197144L175.99278472222224,143.19759407043458L176.1220486111111,118.17251958847046L176.25131249999998,113.64779233932495L176.31594444444445,110.68257780075074L176.44520833333334,107.32193155288697L176.50984027777778,118.26031265258788L176.63910416666664,109.64919891357422L176.7037361111111,102.84038343429566L176.76836805555556,95.58458461761475L176.833,105.29897747039794L176.96226388888888,137.0357397079468L177.0915277777778,139.1151575088501L177.15615972222224,103.61436681747436L177.41468749999999,73.21602258682252L177.47931944444446,99.90062398910523L177.60858333333334,111.24535818099976L177.80247916666664,83.27618608474732L177.93174305555556,82.25015001296997L178.1256388888889,134.4526554107666L178.51343055555554,125.77672233581544L178.90122222222223,110.22146587371826L179.15975,120.0320242881775L179.35364583333333,106.9606819152832L179.67680555555555,100.0723445892334L179.80606944444443,149.61809277534485L179.9999652777778,88.65450296401977L180.38775694444445,119.63657569885254L180.4523888888889,105.90856618881226L180.5816527777778,94.8736481666565L180.7755486111111,116.01724290847778L180.96944444444443,95.71319360733033L181.0340763888889,96.61798038482667L181.09870833333335,129.02322578430176L181.68039583333334,137.80697164535522L181.74502777777778,185.0122944831848L181.80965972222222,106.99579238891602L181.87429166666666,119.65770950317383L182.00355555555555,136.55531702041625L182.13281944444444,108.95002784729004L182.3267152777778,171.13483757972716L182.3913472222222,85.60581665039062L182.649875,127.30360593795777L182.7791388888889,87.38365573883057L182.84377083333334,121.92302713394164L182.90840277777778,93.89813404083252L182.9730347222222,78.20979537963866L183.4900902777778,98.79204454421998L184.07177777777775,97.79234132766723L184.20104166666667,111.33202028274536L184.3949375,96.09999961853028L184.7180972222222,86.69913654327392L184.8473611111111,114.08409061431885L184.91199305555554,81.91162090301513L185.1058888888889,143.97880210876465L185.17052083333334,130.5507508277893L185.36441666666667,101.83473844528199L185.5583125,141.003493309021L185.68757638888889,137.57924308776856L185.81684027777777,132.85247869491576L186.0107361111111,112.68767280578614L186.20463194444446,118.55650663375854L186.2692638888889,117.67798519134521L186.33389583333334,104.981396484375L186.4631597222222,103.67714366912841L186.98021527777777,110.16490087509155L187.04484722222222,102.54133672714234" style="fill: none;" fill="none"></path></g><g><path stroke="rgb(238, 51, 119)" stroke-width="2px" d="M51.382395833333334,21.145873546600342L70.44881944444445,43.32261085510254L89.51524305555554,50.973385620117185L108.58166666666668,59.56937484741211L127.64809027777778,64.71273851394653L146.7145138888889,65.10573949813842L165.7809375,66.0162654876709L184.8473611111111,67.06692953109741L203.91378472222223,65.99410200119019L222.98020833333334,64.70461921691894L242.04663194444444,63.826114654541016L261.11305555555555,60.81169481277466" style="fill: none;" fill="none"></path></g><g><path stroke="rgb(51, 187, 238)" stroke-width="2px" d="M34.70735416666667,-11.178634643554688L34.96588194444444,24.568874645233166L35.09514583333333,-29.551135253906267L35.22440972222223,-4.334050369262712L35.28904166666667,3.283538246154791L35.418305555555555,-10.234770584106428L35.80609722222222,8.127922725677479L35.87072916666667,-0.22133102416992756L35.93536111111111,13.82949228286742L35.99999305555556,8.8452060699463L36.58168055555555,16.51655759811402L36.96947222222222,58.86598377227783L37.034104166666665,10.945571994781488L37.098736111111116,3.4144091606140137L37.16336805555555,19.76037712097167L37.48652777777777,8.28649377822876L38.00358333333333,5.444503498077381L38.45600694444444,29.61394586563111L38.973062500000005,44.148719787597656L39.16695833333333,39.21387519836426L39.23159027777778,80.19969835281371L39.68401388888889,68.76850461959839L40.00717361111111,24.61760730743407L40.524229166666665,20.868821525573736L40.718125,30.657942295074463L40.78275694444444,53.70020341873169L41.364444444444445,31.587407684326166L41.49370833333333,60.750521564483634L41.55834027777778,27.522357559204096L42.07539583333333,30.828785133361805L42.39855555555556,30.213929843902577L42.52781944444445,76.38011770248413L42.59245138888888,26.71093425750732L42.85097916666667,24.11500425338744L43.17413888888888,23.142511653900158L43.238770833333334,43.18834705352782L43.43266666666667,54.44554138183594L43.820458333333335,38.68139448165894L43.88509027777778,42.25957374572755L44.014354166666664,34.91677522659302L44.20825,71.21641359329224L44.337513888888886,42.897959804534906L44.402145833333336,65.14731502532959L44.53140972222222,66.65593442916871L44.660673611111115,27.993378067016607L44.72530555555556,34.47961606979371L45.177729166666666,47.39572963714599L45.694784722222224,51.35825042724609L45.75941666666667,41.13733835220336L45.82404861111111,62.38071098327636L46.08257638888889,36.697028160095215L46.793527777777776,-1.2448013305663892L47.18131944444444,48.435725498199474L47.37521527777778,35.81717319488524L47.50447916666666,65.81227025985719L47.698375,54.02635946273803L48.47395833333333,54.18788452148438L48.86175,61.034646320343015L49.18490972222222,45.97628746032714L49.249541666666666,33.28655204772949L49.37880555555556,80.2382692337036L49.63733333333333,84.23416185379028L49.89586111111111,72.5161594390869L50.025124999999996,68.28755865097047L50.34828472222222,66.14386167526244L51.25313194444445,67.16382093429566L51.51165972222222,92.19973239898681L51.57629166666667,86.36190719604492L51.83481944444445,73.20655288696288L51.899451388888885,55.79667005538941L52.15797916666667,69.3047833442688L52.22261111111111,59.17699842453003L52.351875,78.14897661209106L52.545770833333336,55.15357446670532L52.86893055555556,82.63918418884278L52.9335625,68.53059740066529L53.321354166666666,63.93946409225464L53.38598611111111,73.64938373565674L53.45061805555556,71.18164072036744L53.64451388888889,60.0703067779541L54.22620138888889,77.61782941818238L54.74325694444445,103.75565271377563L55.777368055555556,57.41558361053467L56.035895833333335,93.66027746200561L56.4236875,81.30863227844237L56.68221527777778,63.24728136062622L56.811479166666665,68.36930866241455L57.26390277777778,67.73760709762574L57.5870625,83.78160810470581L57.651694444444445,51.83131341934204L58.685805555555554,116.14061908721925L59.13822916666667,86.29450521469117L59.526020833333334,94.5889494895935L59.590652777777784,50.32490530014037L59.71991666666667,66.69622707366943L60.107708333333335,62.92559852600097L60.689395833333336,74.63787860870362L60.81865972222222,73.65876903533935L60.88329166666667,71.18236656188965L61.0771875,76.73709669113158L61.46497916666667,80.47975502014161L62.046666666666674,60.448233890533444L62.240562499999996,77.55572776794433L62.305194444444446,50.28749914169312L62.88688194444445,90.2892837524414L62.95151388888889,99.65718011856079L63.85636111111111,66.90277118682862L63.92099305555555,72.8955551147461L64.05025694444444,75.45689792633057L64.17952083333334,75.94754991531373L65.08436805555556,125.3179060935974L65.40752777777777,73.80987911224365L65.53679166666666,42.271913051605225L65.7306875,69.10470428466796L66.24774305555556,133.96159830093384L66.63553472222222,60.57189702987671L66.76479861111112,71.56267375946045L66.95869444444445,99.24004068374634L67.3464861111111,78.61479806900024L67.66964583333333,54.6597152709961L67.73427777777778,58.7871202468872L68.31596527777778,85.85300788879395L68.44522916666666,80.14934520721435L68.70375694444445,69.4435709953308L68.7683888888889,101.75190811157226L69.09154861111111,118.08742733001708L69.35007638888888,75.05814085006715L69.41470833333334,96.04515638351441L69.73786805555555,92.7609935760498L69.86713194444445,88.9409571647644L69.93176388888888,85.93060541152954L70.06102777777778,72.77410326004029L70.19029166666667,52.67685127258301L70.25492361111111,67.70852279663086L70.51345138888888,84.27578802108765L70.57808333333334,81.70944871902465L71.03050694444444,139.79079780578613L71.15977083333334,132.6855351448059L71.5475625,129.6818510055542L71.67682638888888,119.11741333007814L71.99998611111111,103.82830438613891L72.32314583333334,60.44890909194946L72.45240972222223,77.00970926284789L73.22799305555556,87.7876118659973L73.68041666666667,115.8974115371704L73.7450486111111,91.39914608001709L73.8743125,121.59528436660767L73.93894444444445,81.69709253311157L74.00357638888889,110.50921983718872L74.06820833333333,115.49367485046386L74.19747222222223,90.332057762146L74.39136805555556,95.76575803756714L74.64989583333333,86.99901037216186L74.97305555555555,105.40042648315429L75.16695138888888,101.96451215744018L75.42547916666668,104.87199697494506L75.619375,87.24724817276001L75.68400694444445,100.16641702651978L75.81327083333333,94.52661151885987L75.87790277777778,118.2129472732544L76.0717986111111,127.03030128479003L76.13643055555555,84.7234634399414L76.33032638888888,91.4387804031372L76.39495833333334,116.19190063476563L76.71811805555555,90.47876214981079L76.78275000000001,106.18836965560914L77.23517361111111,84.12157201766968L77.42906944444445,113.89181013107299L77.68759722222222,89.113285446167L77.88149305555555,77.72159099578857L78.01075694444444,94.69375762939453L78.14002083333334,103.33999872207642L78.39854861111111,123.21367464065551L78.65707638888888,137.59482336044312L78.85097222222223,89.58482923507691L78.91560416666667,89.3730016708374L78.98023611111111,105.5824776649475L79.04486805555555,93.47479963302612L79.43265972222223,126.77656059265138L79.82045138888888,155.07465705871581L79.94971527777778,120.0408356666565L80.01434722222221,110.42326669692993L80.27287500000001,76.39520845413209L80.46677083333333,80.59756078720092L80.53140277777779,84.6460684776306L80.72529861111111,99.14254159927368L80.78993055555556,119.26811828613282L80.85456250000001,134.81756801605223L80.98382638888889,100.51814632415771L81.11309027777779,85.4058219909668L81.69477777777779,95.19558420181275L81.75940972222222,80.1556921005249L81.95330555555556,74.71448020935058L82.01793749999999,82.06192073822022L82.08256944444445,83.0980679512024L82.21183333333333,79.64339990615845L82.27646527777779,107.80968017578125L82.66425694444445,101.02937507629395L82.92278472222222,98.94983911514282L82.98741666666666,129.06036186218262L83.11668055555556,99.50912532806396L83.24594444444445,110.20629072189331L83.43984027777779,81.92417964935304L83.50447222222222,91.6370195388794L83.56910416666666,149.35469670295714L83.63373611111112,103.61561594009399L83.82763194444445,81.09140310287476L84.08615972222222,146.4059992790222L84.28005555555556,126.20891876220702L84.40931944444445,80.03832521438598L84.47395138888889,81.07673435211181L84.53858333333334,92.68533725738526L84.926375,81.82965145111085L84.99100694444444,110.50908479690551L85.12027083333334,151.55462107658386L85.31416666666667,121.35236377716063L85.57269444444444,63.92992687225342L85.76659027777777,74.03878927230835L85.96048611111111,88.95253686904907L86.02511805555555,84.25833406448363L86.28364583333334,82.54141502380371L86.41290972222222,131.48997287750245L86.73606944444444,137.08138332366943L86.92996527777777,94.1564492225647L88.28723611111111,53.1173189163208L88.4165,120.4777247428894L88.48113194444444,95.52393465042114L88.73965972222223,207.17935953140258L88.86892361111111,99.09350509643555L89.1274513888889,101.7014874458313L89.25671527777777,106.31439599990844L89.38597916666667,95.5485626220703L89.51524305555554,96.25884075164795L89.7091388888889,121.35877819061278L90.09693055555555,116.70643787384034L90.35545833333333,106.52782716751099L90.80788194444445,92.60404300689697L90.87251388888889,99.21551399230957L90.93714583333333,102.9197196006775L91.00177777777778,134.54655904769896L91.3249375,105.03569955825806L91.45420138888889,87.35987176895141L91.64809722222222,94.2520239830017L91.71272916666668,126.61977882385253L91.7773611111111,105.29406538009644L91.84199305555555,135.62087202072144L92.3590486111111,107.91025142669677L92.42368055555555,96.18932876586913L92.61757638888888,95.690793800354L93.07000000000001,108.965456199646L93.26389583333334,131.70656061172485L93.78095138888888,87.96201639175415L93.84558333333334,157.85425872802733L93.97484722222222,100.04395236968995L94.03947916666665,108.2483416557312L94.10411111111111,127.25364103317261L94.29800694444445,115.54001054763793L94.36263888888888,87.47094240188598L94.62116666666665,89.20523099899292L94.94432638888888,126.58767299652101L95.00895833333333,117.53274936676024L95.26748611111111,92.6401494026184L95.33211805555555,114.79911203384398L95.39675,99.83663177490234L95.46138194444445,120.86377115249633L95.65527777777778,141.74459438323976L95.71990972222223,105.30721492767334L95.78454166666666,96.44472370147705L95.9784375,119.57217836380005L96.04306944444444,97.21712036132813L96.560125,139.38481607437134L96.81865277777779,108.47353820800781L96.94791666666666,94.34143753051758L97.07718055555556,101.1012502670288L97.1418125,94.08351058959961L97.33570833333333,97.95474414825439L97.59423611111112,140.29363718032837L97.65886805555556,145.8263473033905L97.7235,117.26044063568116L97.91739583333333,126.42977714538574L98.43445138888889,94.186563205719L98.56371527777779,65.09702939987183L98.82224305555556,80.2942265510559L98.886875,176.96738777160644L99.08077083333333,205.43537335395814L99.21003472222222,95.69263372421264L99.33929861111112,106.94256963729859L99.66245833333333,109.51743335723877L100.37340972222222,91.16429414749146L100.5026736111111,79.24786691665649L100.89046527777778,90.57580547332763L100.95509722222222,160.55540199279784L101.08436111111111,114.61579484939574L101.213625,124.60587244033815L101.47215277777778,87.3465027809143L101.73068055555557,96.44298505783081L101.85994444444444,115.06169786453248L102.18310416666667,96.31651983261108L102.24773611111111,106.02427883148194L102.31236805555557,125.66560106277467L102.82942361111111,75.71956815719604L103.21721527777777,100.21852569580078L103.47574305555557,96.80490989685059L103.540375,126.11432304382325L103.60500694444444,126.54214754104615L104.18669444444444,89.2905089378357L104.31595833333334,127.81660709381103L104.50985416666667,98.97308292388917L104.89764583333334,100.51406135559083L104.96227777777777,138.3587968826294L105.41470138888889,106.17938947677612L105.54396527777777,130.06101036071777L106.4488125,107.64655151367188L106.83660416666667,106.8831687927246L106.90123611111112,91.82028608322143L106.96586805555555,136.71569423675538L107.15976388888889,101.48219890594483L107.22439583333333,118.84601612091063L107.28902777777778,125.48304347991944L108.45240277777778,120.80837087631227L108.58166666666668,98.78406028747558L108.71093055555555,122.55013732910157L109.16335416666668,113.0104866027832L109.22798611111111,97.76339206695556L109.4865138888889,130.84711360931396L109.61577777777778,148.14638156890868L109.74504166666668,142.28367519378662L110.0682013888889,102.24644250869751L110.19746527777778,105.04282293319702L110.32672916666667,129.21852779388428L110.58525694444445,122.55638294219972L111.23157638888888,219.48037304878235L111.49010416666667,129.05575361251832L111.74863194444445,117.88557586669921L111.81326388888888,170.2719048500061L111.87789583333333,166.26845841407777L112.00715972222223,160.93686547279358L112.20105555555556,138.27124013900757L112.39495138888888,103.23684482574463L112.52421527777778,114.3502550125122L112.71811111111111,128.36579904556274L113.10590277777779,134.81827697753906L113.23516666666666,112.26489543914795L113.36443055555556,128.6975423812866L113.4290625,114.63427848815917L113.62295833333333,102.55222434997559L113.75222222222223,115.06959772109985L113.94611805555556,94.92688779830932L114.4631736111111,119.63087024688721L114.78633333333333,141.71515560150146L114.91559722222223,155.52003679275512L115.30338888888889,116.9122223854065L115.56191666666666,107.69172248840331L115.6265486111111,101.57458333969116L115.69118055555556,132.88212003707886L115.7558125,160.15413823127747L116.14360416666666,158.19729480743408L116.3375,134.30424613952636L116.7899236111111,99.00797395706176L116.9191875,102.59428939819335L117.11308333333334,115.54330215454101L117.17771527777778,115.30887222290039L117.37161111111111,130.91893815994263L117.75940277777778,152.3911196708679L117.88866666666667,138.09605913162233L118.08256250000001,184.57578520774842L118.27645833333334,112.27426385879517L118.34109027777778,133.53414516448976L118.40572222222221,107.73090105056762L118.47035416666667,154.03910064697266L118.53498611111111,125.74002513885497L118.92277777777778,112.33433990478515L119.69836111111111,128.65627069473265L120.08615277777778,101.32013368606567L120.4093125,131.4323444366455L120.66784027777777,108.08939924240113L121.12026388888889,105.4048996925354L121.24952777777777,77.17189264297485L121.5726875,152.02344717979432L121.63731944444444,107.17247571945191L121.83121527777777,113.99038953781127L121.89584722222222,108.03410024642945L122.02511111111112,122.61645898818969L122.08974305555556,127.77589244842528L122.28363888888889,104.09797983169555L123.38238194444445,114.94841594696044L123.44701388888889,142.8924621105194L123.51164583333335,123.57227411270142L123.83480555555555,102.40278539657592L124.02870138888889,128.5361354827881L124.28722916666666,96.06451778411865L124.35186111111112,94.65191202163696L124.41649305555555,93.38781681060792L124.67502083333332,153.2462369441986L124.73965277777778,121.50764322280884L124.93354861111112,122.79027271270752L125.19207638888889,149.78714632987976L125.32134027777778,150.65106654167175L126.16155555555555,118.88522844314576L126.2261875,106.29044322967529L126.807875,115.81280879974366L126.87250694444445,123.58545742034912L127.58345833333333,108.97158365249634L128.03588194444444,113.74559526443483L128.10051388888888,130.47848739624024L128.2944097222222,114.70210247039796L128.4236736111111,126.80724849700928L128.48830555555554,109.26031665802002L129.0053611111111,136.44807815551758L129.06999305555556,124.19548501968384L129.134625,129.07357892990112L129.39315277777777,142.8489538192749L129.5224166666667,110.40797338485717L129.65168055555554,109.3715898513794L130.16873611111112,151.08183660507203L130.49189583333333,110.59075040817261L130.55652777777777,140.00522489547728L130.7504236111111,113.04299755096434L131.20284722222223,131.01496868133546L131.33211111111112,114.89347143173217L131.97843055555555,115.8232744216919L132.3015902777778,141.99057025909423L132.36622222222223,131.38237953186035L132.49548611111112,110.43310775756837L132.56011805555556,146.2454448223114L132.94790972222222,129.2803931236267L133.40033333333332,124.14984140396118L133.4649652777778,150.39243063926696L134.04665277777778,114.91090850830079L134.30518055555555,121.03733167648315L134.43444444444444,109.37624874114991L134.6929722222222,160.13218574523927L135.27465972222222,117.2282166481018L135.4039236111111,132.7972303390503L135.59781944444444,143.51206912994385L135.72708333333333,142.95514612197877L135.7917152777778,205.6980013847351L136.114875,102.5870141029358L136.63193055555556,143.1862422466278L136.76119444444444,147.7148687839508L137.21361805555557,112.44611949920655L137.27824999999999,119.5051646232605L137.5367777777778,114.59472856521606L137.8599375,113.97713871002196L138.05383333333333,103.0325119972229L138.18309722222222,124.70833425521852L138.37699305555557,141.80121846199035L138.5708888888889,119.01005630493165L138.82941666666667,170.98658022880554L139.34647222222222,138.65548038482666L139.86352777777776,104.91055097579957L139.99279166666668,122.86814031600952L140.12205555555556,129.91557197570802L140.3159513888889,115.37703380584716L140.38058333333333,119.10257577896118L140.768375,121.42666969299316L140.83300694444443,141.1202862739563L141.3500625,135.0751742362976L141.54395833333334,106.33259267807007L141.60859027777778,134.20965042114258L141.67322222222222,108.51919870376587L141.73785416666666,136.05993862152098L141.86711805555555,169.3987428188324L142.06101388888888,109.66184206008911L142.5134375,129.85184984207154L142.57806944444445,133.15024251937865L142.90122916666667,144.88145356178285L143.03049305555555,100.7378568649292L143.095125,150.08507895469666L143.15975694444444,112.58308410644531L143.74144444444445,90.86614208221435L143.99997222222223,131.24136371612548L144.1292361111111,110.2964638710022L144.19386805555555,106.12165975570679L144.32313194444444,116.63771924972534L144.64629166666668,123.19000883102416L144.7109236111111,109.14436769485474L144.8401875,116.80611448287965L144.90481944444446,131.5009617805481L144.9694513888889,107.5313621520996L145.16334722222223,122.45760097503663L145.2926111111111,135.29263973236084L145.421875,123.42759532928466L146.19745833333334,137.54548301696778L146.7145138888889,123.20177421569824L147.10230555555555,99.57747259140015L147.1669375,142.91242275238037L147.55472916666665,112.35380258560181L147.61936111111112,156.54089913368225L147.68399305555556,129.04081478118897L148.2010486111111,143.41732149124147L148.6534722222222,163.55005531311036L149.17052777777775,144.06860389709473L149.23515972222222,118.11252794265747L149.42905555555555,145.63026037216187L149.88147916666665,119.79828643798828L150.01074305555557,128.07736988067626L150.26927083333334,141.12568788528444L150.91559027777777,129.84366302490236L150.9802222222222,148.90513916015624L151.17411805555557,148.3070373058319L151.49727777777775,177.43731107711793L151.75580555555555,141.28817510604858L152.5960208333333,126.23800306320192L152.72528472222223,148.22179312705993L152.78991666666667,139.15163526535034L153.17770833333333,130.50821313858032L153.24234027777777,117.14460983276368L153.3069722222222,120.23750495910645L153.4362361111111,99.63272094726562L153.56550000000001,128.9508441925049L154.34108333333333,151.38695168495178L154.92277083333332,150.619078874588L155.18129861111112,164.90833268165588L155.50445833333333,122.04881715774536L155.56909027777778,169.81132464408876L155.89225000000002,122.7121687889099L155.95688194444446,114.0209930419922L156.28004166666668,117.23778762817383L156.34467361111112,136.11491689682006L156.73246527777778,135.8309609413147L156.99099305555555,161.50095405578614L157.12025694444446,124.64950733184816L157.24952083333332,109.84571628570556L157.6373125,118.0882206916809L157.83120833333334,137.0714916229248L157.96047222222222,172.30963740348815L158.15436805555555,153.84677796363832L158.34826388888888,118.6499545097351L158.5421597222222,126.84526233673097L158.67142361111112,151.29452505111695L159.12384722222222,137.3916721343994L159.2531111111111,120.56372852325438L160.02869444444443,143.23625779151917L160.09332638888887,137.8753695487976L160.1579583333333,122.29134950637817L161.06280555555557,199.4532154083252L161.3213333333333,123.58928918838501L161.57986111111111,122.16061363220214L161.64449305555556,126.30611400604249L161.8383888888889,142.23835229873657L161.90302083333333,172.1039879322052L162.09691666666666,156.12741422653198L162.22618055555557,106.70729570388794L162.35544444444443,114.72132883071899L162.67860416666667,155.47514433860778L162.8725,121.004398727417L163.0017638888889,157.8738142490387L163.19565972222222,124.13431177139282L163.38955555555557,132.9443736076355L163.58345138888888,134.41229524612427L163.7127152777778,121.56657142639159L163.90661111111112,122.08926172256469L164.10050694444442,166.68313336372375L164.1651388888889,127.61308450698851L164.35903472222222,146.32856211662292L165.13461805555556,134.11721534729003L165.26388194444442,113.72527170181274L165.58704166666666,157.22808537483215L165.84556944444444,130.55676012039186L165.91020138888888,226.7785280942917L165.97483333333332,169.9816020011902L166.10409722222224,117.63649406433106L166.16872916666668,123.31551189422606L166.29799305555557,142.6152244091034L166.42725694444442,134.52130651474L166.62115277777778,133.59472761154174L166.68578472222222,152.66034779548644L166.9443125,141.12372980117797L167.26747222222224,137.0489905357361L167.39673611111112,127.81812629699706L167.84915972222223,106.43907194137573L167.9784236111111,154.49778184890747L168.04305555555553,150.7603478908539L168.23695138888888,137.96378717422485L168.36621527777777,165.45652871131898L168.62474305555554,131.4412064552307L168.8186388888889,129.57079725265504L168.94790277777778,131.55153436660765L169.07716666666667,157.80615062713622L169.1417986111111,141.08163099288942L169.46495833333333,148.69755692481993L169.72348611111113,147.88279981613158L169.78811805555554,164.0359133720398L169.85275,124.03878765106202L170.1112777777778,146.46314663887023L170.17590972222223,135.43443202972412L170.30517361111112,128.12436389923096L170.49906944444444,144.24405498504638L170.5637013888889,131.18689184188844L170.62833333333333,132.17773303985595L170.75759722222222,152.39756784439086L170.8222291666667,145.4633252620697L170.95149305555555,191.42788109779357L171.2746527777778,132.66414813995362L171.33928472222223,143.84409098625184L171.7270763888889,120.82839059829712L171.79170833333333,139.86049547195435L171.85634027777778,128.99675788879395L172.11486805555555,117.12239570617675L172.24413194444443,130.88360824584962L172.37339583333335,185.6075942516327L172.6319236111111,144.82138595581054L173.27824305555555,161.41674799919127L173.40750694444444,126.03231983184816L173.53677083333335,158.15745792388915L173.6014027777778,206.2813500881195L173.85993055555554,135.32683868408202L173.98919444444445,127.86662263870238L174.0538263888889,152.0663055896759L174.11845833333334,124.17004680633545L174.57088194444444,110.82629442214966L174.82940972222224,152.02370882034302L175.02330555555554,127.11664266586303L175.669625,140.04263105392457L175.73425694444444,176.28391513824462L175.99278472222224,168.5902819633484L176.1220486111111,142.6675356388092L176.31594444444445,135.44558973312377L176.44520833333334,135.39758291244507L176.50984027777778,147.38795313835143L176.63910416666664,136.60815153121948L176.7037361111111,129.02368154525757L176.76836805555556,124.18922252655028L176.833,133.80186252593995L176.96226388888888,166.78975610733033L177.0915277777778,170.17647356986998L177.15615972222224,134.2018012046814L177.41468749999999,107.7471396446228L177.47931944444446,135.73094673156737L177.60858333333334,135.92251825332642L177.80247916666664,116.20057697296141L178.1256388888889,164.1346953392029L178.90122222222223,136.16062803268431L179.15975,147.81090774536133L179.35364583333333,136.52319431304932L179.80606944444443,173.97163724899292L179.9999652777778,124.16395311355592L180.38775694444445,145.90538806915282L180.4523888888889,135.3986463546753L180.5816527777778,123.8782753944397L180.7755486111111,146.05816926956177L180.96944444444443,120.82739467620848L181.0340763888889,125.2134355545044L181.09870833333335,163.10573902130128L181.68039583333334,169.01616525650024L181.74502777777778,212.45958652496338L181.80965972222222,133.94912395477294L181.87429166666666,153.27533812522887L182.00355555555555,167.60808334350585L182.13281944444444,141.812038564682L182.3267152777778,201.46442942619325L182.7791388888889,118.51125125885011L182.84377083333334,147.11865749359131L182.90840277777778,125.68344326019286L182.9730347222222,120.68384685516358L183.4900902777778,128.85886487960815L184.07177777777775,125.05231561660767L184.3949375,127.2960099220276L184.8473611111111,143.22407884597777L184.91199305555554,127.70617790222167L185.1058888888889,177.80155692100524L185.81684027777777,162.73805809020996L186.0107361111111,151.22980699539184L186.20463194444446,150.02428550720214L186.2692638888889,153.16132192611695L186.33389583333334,136.82217350006104L186.4631597222222,138.69325790405273L186.98021527777777,141.18183088302612L187.10947916666666,134.29006690979003L187.23874305555555,156.8589105606079L187.36800694444446,133.9820400238037L188.0143263888889,141.14287176132203L188.53138194444446,226.05644237995148L188.5960138888889,157.3587115287781L188.91917361111112,137.99663572311403L189.30696527777778,134.41573877334594L189.82402083333332,140.42997722625734L190.2118125,160.23079047203063L190.27644444444445,132.82535247802736L190.3410763888889,135.65942602157594L190.4057083333333,143.17643494606017L190.53497222222222,159.3165846347809L190.85813194444447,160.9641436100006L191.8276111111111,158.6092183113098L192.08613888888888,127.34082641601563L192.21540277777777,144.81011853218078L192.47393055555557,132.16102180480956L192.5385625,153.64109473228456L192.66782638888887,123.86306648254396L192.9909861111111,143.8988667011261L193.18488194444447,157.11245713233947L193.31414583333333,168.1839288711548L193.50804166666666,142.7980689525604L193.57267361111113,204.06937336921692L193.63730555555557,142.2216326236725L194.283625,146.1669104576111L194.34825694444447,169.34768071174622L194.47752083333333,128.66428871154784L194.54215277777777,131.2764741897583L194.60678472222222,123.4551941871643L194.67141666666666,111.78492851257325L194.92994444444446,145.7577299594879L195.05920833333332,139.8709610939026L195.25310416666667,141.193123626709L195.38236805555556,145.2903302192688L195.51163194444447,143.78923931121827L195.64089583333333,166.91476964950562L196.22258333333332,165.06610193252564L196.48111111111112,147.93121175765992L196.610375,142.9306869506836L196.7396388888889,145.00657682418824L196.86890277777778,164.91701745986938L197.0627986111111,172.16814050674438L197.25669444444443,134.5433180809021L197.64448611111112,186.82540440559387L197.70911805555556,132.10057439804078L197.96764583333334,152.17030348777772L198.16154166666666,176.04183011054994L198.35543750000002,141.0331852912903L198.48470138888888,138.35410423278807L198.80786111111112,152.0616129398346L199.06638888888887,156.99476952552794L199.26028472222222,132.56877593994142L199.32491666666667,183.3304437160492L199.3895486111111,151.79253673553467L199.45418055555558,180.80428733825684L199.64807638888888,132.53670387268068L199.90660416666668,122.84368114471437L200.29439583333334,130.26330070495607L200.35902777777778,126.35867843627929L200.5529236111111,135.7136953353882L201.06997916666668,142.98799467086792L201.13461111111113,140.356059551239L201.39313888888887,155.36648755073549L201.52240277777778,125.59082250595094L201.58703472222223,105.58997240066529L201.78093055555556,106.65285758972168L201.84556249999997,125.78399763107299L201.97482638888889,119.00767621994018L202.16872222222221,155.14908113479615L202.2333541666667,129.42463302612305L202.36261805555557,142.35402274131775L202.75040972222223,136.95194721221924L202.94430555555556,173.02578134536742L203.1382013888889,162.51617002487183L203.20283333333333,123.61489620208741L203.46136111111113,163.09186363220215L203.8491527777778,148.2938117980957L204.62473611111113,145.42656054496766L204.88326388888888,133.89350423812866L205.0125277777778,167.21785068511963L205.33568749999998,166.8916777610779L205.65884722222222,151.36895756721498L205.917375,175.29129309654235L206.24053472222224,149.33816270828248L206.49906249999998,141.89741778373718L206.75759027777778,153.54119024276733L206.95148611111114,161.71673154830933L207.92096527777778,167.55996680259705L208.56728472222224,168.86717362403868L208.63191666666668,164.05703873634337L208.6965486111111,193.48012204170226L208.89044444444443,151.59698996543884L208.9550763888889,149.09602704048157L209.27823611111108,195.40299439430237L209.66602777777777,148.3589434146881L209.73065972222224,180.5002103805542L209.79529166666669,172.6958357334137L209.8599236111111,140.98868951797485L209.92455555555554,159.6848816871643L209.98918749999999,137.9441725730896L210.05381944444443,138.91080780029296L210.570875,145.54461107254028L212.05740972222225,138.85868225097656L212.12204166666666,134.7118314743042L212.1866736111111,123.74622287750245L212.63909722222223,155.5747449874878L213.3500486111111,158.31812210083007L213.41468055555555,141.7984079360962L213.4793125,178.1015826702118L213.7378402777778,143.77932229042054L214.25489583333334,172.1477072238922L214.31952777777778,138.94038162231445L214.5134236111111,136.90451431274414L214.6426875,127.95858507156373L214.70731944444444,138.7271867752075L214.83658333333335,121.54621410369873L215.74143055555555,163.9758204460144L215.93532638888888,190.15263662338256L216.0645902777778,147.00772190093994L216.38775,128.61648445129396L216.58164583333334,157.70794258117675L216.77554166666664,132.80043754577636L217.35722916666666,155.90274095535278L217.4218611111111,154.9828718662262L217.80965277777779,156.62740087509155L217.93891666666664,150.74249725341798L218.0035486111111,128.39076461791993L218.3913402777778,144.48911933898927L218.5852361111111,200.5469741821289L218.64986805555554,177.17552704811095L218.9730277777778,134.71228723526002L219.10229166666664,182.03789720535278L219.23155555555556,188.8572036266327L219.4254513888889,139.5383062362671L219.49008333333336,151.9199894428253L220.0071388888889,135.58687562942504L220.33029861111112,219.5582701921463L220.4595625,137.12145652770997L220.52419444444445,145.58562955856323L220.5888263888889,131.46581754684448L220.84735416666666,143.1504903316498L221.29977777777776,148.2976520061493L221.55830555555556,133.92842903137208L221.7522013888889,138.70225496292113L221.94609722222222,130.86316652297972L222.46315277777776,156.13722996711732L222.7863125,128.45227546691893L223.4972638888889,165.48054900169373L223.8204236111111,136.78091869354247L223.9496875,147.20223054885864L224.01431944444445,139.84265327453613L224.20821527777775,147.278427028656L224.8545347222222,153.33411440849304L225.2423263888889,164.74430937767028L225.50085416666667,141.3965955734253L225.8240138888889,186.90110292434693L225.95327777777777,141.4314697265625L226.08254166666666,149.96020045280457L226.21180555555557,188.3557821750641L226.34106944444446,178.6209897994995L226.53496527777776,137.7585765838623L226.59959722222223,154.97991786003112L226.66422916666667,143.64672117233278L226.858125,154.2353985786438L226.92275694444444,141.83503761291504L226.98738888888892,142.54296097755432L227.24591666666666,144.30835103988647L227.37518055555557,152.49047555923462L227.5690763888889,166.66461596488952L227.63370833333332,146.81908750534058L227.7629722222222,173.93245868682862L227.82760416666667,175.96921219825745L228.08613194444445,145.4845856666565L228.21539583333333,145.53453369140624L228.28002777777778,138.51588249206543L228.34465972222222,155.1347921848297L228.60318750000002,144.54100856781005L228.73245138888888,144.46390056610107L228.86171527777776,139.33898677825928L229.05561111111112,187.05899877548217L229.6372986111111,132.06407976150513L229.83119444444446,155.8903932094574L229.96045833333332,130.06382932662964L230.0897222222222,162.20969610214235L230.21898611111112,126.80674209594727L230.34825,140.27150745391845L230.92993750000002,146.40376267433166L231.18846527777777,132.5471188545227L231.31772916666668,159.67513346672058L231.511625,172.3549687385559L232.02868055555555,133.66351375579833L232.28720833333333,179.70655331611633L232.54573611111113,171.54544444084166L232.93352777777778,174.84998145103455L233.1274236111111,192.2593156814575L233.38595138888888,129.76154165267945L233.51521527777777,152.1173339366913L233.77374305555557,141.96985845565797L233.838375,151.53275299072266L234.29079861111111,163.37163333892823L234.48469444444444,187.656298828125L234.5493263888889,141.30703010559083L234.87248611111113,174.96568565368653L234.93711805555557,149.17748165130615L235.00175000000002,141.58411588668824L235.13101388888887,169.02381191253662L235.32490972222223,145.50410742759703L235.64806944444445,186.03475198745727L235.84196527777777,194.49380192756652L235.90659722222222,156.0583242416382L236.03586111111113,163.6510570049286L236.4236527777778,138.20844640731812L237.06997222222222,133.75475034713745L237.52239583333332,183.56565856933594L237.71629166666668,158.3581868648529L237.78092361111112,145.26994757652284L238.23334722222222,140.09330492019654L238.29797916666666,135.90822086334228L238.36261111111114,148.17945799827575L238.42724305555558,159.19422125816345L238.75040277777777,139.86636972427368L238.94429861111112,131.1122314453125L240.43083333333334,137.00815773010254L240.49546527777778,144.90842785835267L240.6893611111111,148.13701314926146L240.818625,139.86331443786622L241.14178472222224,153.5874837398529L241.33568055555554,140.38416481018066L241.40031249999998,145.61565070152284L241.5295763888889,157.58384056091307L241.59420833333334,151.95716772079467L242.04663194444444,143.65330438613893L242.11126388888889,170.76617760658263L242.24052777777777,162.41289796829224L242.75758333333334,147.37530999183656L242.8222152777778,157.38776206970215L243.145375,167.28846831321715L243.21000694444444,165.49591827392578L243.59779861111113,198.90670738220214L243.7270625,153.90974049568177L243.85632638888887,186.6712896823883L243.9855902777778,150.10606083869934L244.24411805555553,156.1319211959839L244.4380138888889,142.99215559959413L244.6965416666667,147.13006839752197L245.08433333333335,141.85158004760743L245.27822916666668,139.48429012298584L245.3428611111111,182.42427277565002L245.40749305555553,155.17564187049865L245.79528472222222,170.8725893497467L246.3123402777778,140.73371658325195L246.57086805555554,160.26529326438904L246.70013194444445,141.29112911224365L246.7647638888889,140.47099571228028L246.82939583333334,164.45657229423523L247.0879236111111,162.8654685974121L247.41108333333335,210.2183060646057L247.86350694444445,151.3094638824463L248.12203472222222,147.8873827457428L248.3805625,148.3328384399414L248.44519444444444,161.30270648002625L248.6390902777778,147.53133215904236L248.89761805555554,172.49493799209594L249.02688194444445,161.60599007606507L249.4146736111111,171.5341348171234L249.60856944444444,140.65216913223267L249.73783333333333,139.50312824249266L249.86709722222224,190.48922452926635L249.9963611111111,181.64740290641785L250.19025694444446,174.0101237297058L250.31952083333334,140.40907974243163L250.51341666666664,177.8607214450836L250.77194444444444,138.44572906494142L250.90120833333333,128.81869039535522L251.289,139.00930280685424L251.61215972222223,160.7776782989502L251.67679166666665,178.5731855392456L251.93531944444445,136.8345634460449L252.38774305555555,134.43807106018068L252.9047986111111,155.9430589199066L253.09869444444445,166.5554358959198L253.2925902777778,141.8974431037903L253.35722222222222,160.33045020103455L253.55111805555555,144.51476855278014L253.8742777777778,140.9517728805542L254.26206944444445,156.1587013721466L254.3267013888889,172.4710949420929L254.58522916666666,153.44640884399413L254.71449305555555,167.4061728000641L255.1022847222222,136.27897396087647L255.16691666666665,146.84853472709656L255.29618055555557,150.3498338699341L255.55470833333334,149.06366801261902L256.00713194444444,147.44327745437622L256.3949236111111,229.6270003080368L256.5888194444444,138.71560707092286L256.9766111111111,140.43080434799194L257.4936666666667,147.2177433013916L257.6875625,163.80431928634644L257.8168263888889,145.08843655586242L257.88145833333334,174.32246346473693L258.20461805555556,140.96596899032593L258.26925,166.67511534690857L258.33388194444444,155.21068482398988L258.46314583333333,120.62702865600585L258.5924097222222,147.6191589832306L258.65704166666666,139.828524684906L258.78630555555554,133.251185131073L259.10946527777776,142.13709740638734L259.7557847222222,154.43262491226196L259.8204166666667,146.0730912208557L260.1435763888889,159.81287455558777L260.2728402777778,150.63068389892578L260.33747222222223,150.67788891792299L260.596,151.64965567588806L260.66063194444445,121.63226852416992L260.9191597222222,137.45536050796508L261.0484236111111,163.98915567398072L261.3715833333333,214.38308765888215L261.43621527777776,151.83168153762819L261.6301111111111,149.87434859275817L261.8886388888889,143.97826194763184L262.66422222222224,150.0301597595215L262.7934861111111,164.94771380424498" style="fill: none;" fill="none"></path></g></g></g></g></g></g><g transform="translate(39, 177)" clip-path="url(#clip_1)"><clipPath id="clip_1"><rect width="290" height="23"></rect></clipPath><g><g><line x1="0" y1="0" x2="0" y2="5" style="visibility: inherit;" fill="rgb(0, 0, 0)" stroke="rgb(204, 204, 204)" stroke-width="1px"></line><line x1="32.31597222222222" y1="0" x2="32.31597222222222" y2="5" style="visibility: inherit;" fill="rgb(0, 0, 0)" stroke="rgb(204, 204, 204)" stroke-width="1px"></line><line x1="64.63194444444444" y1="0" x2="64.63194444444444" y2="5" style="visibility: inherit;" fill="rgb(0, 0, 0)" stroke="rgb(204, 204, 204)" stroke-width="1px"></line><line x1="96.94791666666666" y1="0" x2="96.94791666666666" y2="5" style="visibility: inherit;" fill="rgb(0, 0, 0)" stroke="rgb(204, 204, 204)" stroke-width="1px"></line><line x1="129.26388888888889" y1="0" x2="129.26388888888889" y2="5" style="visibility: inherit;" fill="rgb(0, 0, 0)" stroke="rgb(204, 204, 204)" stroke-width="1px"></line><line x1="161.57986111111111" y1="0" x2="161.57986111111111" y2="5" style="visibility: inherit;" fill="rgb(0, 0, 0)" stroke="rgb(204, 204, 204)" stroke-width="1px"></line><line x1="193.89583333333331" y1="0" x2="193.89583333333331" y2="5" style="visibility: inherit;" fill="rgb(0, 0, 0)" stroke="rgb(204, 204, 204)" stroke-width="1px"></line><line x1="226.21180555555557" y1="0" x2="226.21180555555557" y2="5" style="visibility: inherit;" fill="rgb(0, 0, 0)" stroke="rgb(204, 204, 204)" stroke-width="1px"></line><line x1="258.52777777777777" y1="0" x2="258.52777777777777" y2="5" style="visibility: inherit;" fill="rgb(0, 0, 0)" stroke="rgb(204, 204, 204)" stroke-width="1px"></line><line x1="290.84375" y1="0" x2="290.84375" y2="5" style="visibility: inherit;" fill="rgb(0, 0, 0)" stroke="rgb(204, 204, 204)" stroke-width="1px"></line></g><g transform="translate(0, 8)"><text x="0" y="0" dx="0em" dy="0.95em" style="text-anchor: middle; visibility: hidden; font-family: &quot;Helvetica Neue&quot;, sans-serif; font-size: 12px; font-weight: 200;" fill="rgb(50, 49, 63)" stroke="none" stroke-width="1px">-500</text><text x="32.31597222222222" y="0" dx="0em" dy="0.95em" style="text-anchor: middle; visibility: inherit; font-family: &quot;Helvetica Neue&quot;, sans-serif; font-size: 12px; font-weight: 200;" fill="rgb(50, 49, 63)" stroke="none" stroke-width="1px">0</text><text x="64.63194444444444" y="0" dx="0em" dy="0.95em" style="text-anchor: middle; visibility: inherit; font-family: &quot;Helvetica Neue&quot;, sans-serif; font-size: 12px; font-weight: 200;" fill="rgb(50, 49, 63)" stroke="none" stroke-width="1px">500</text><text x="96.94791666666666" y="0" dx="0em" dy="0.95em" style="text-anchor: middle; visibility: inherit; font-family: &quot;Helvetica Neue&quot;, sans-serif; font-size: 12px; font-weight: 200;" fill="rgb(50, 49, 63)" stroke="none" stroke-width="1px">1k</text><text x="129.26388888888889" y="0" dx="0em" dy="0.95em" style="text-anchor: middle; visibility: inherit; font-family: &quot;Helvetica Neue&quot;, sans-serif; font-size: 12px; font-weight: 200;" fill="rgb(50, 49, 63)" stroke="none" stroke-width="1px">1.5k</text><text x="161.57986111111111" y="0" dx="0em" dy="0.95em" style="text-anchor: middle; visibility: inherit; font-family: &quot;Helvetica Neue&quot;, sans-serif; font-size: 12px; font-weight: 200;" fill="rgb(50, 49, 63)" stroke="none" stroke-width="1px">2k</text><text x="193.89583333333331" y="0" dx="0em" dy="0.95em" style="text-anchor: middle; visibility: inherit; font-family: &quot;Helvetica Neue&quot;, sans-serif; font-size: 12px; font-weight: 200;" fill="rgb(50, 49, 63)" stroke="none" stroke-width="1px">2.5k</text><text x="226.21180555555557" y="0" dx="0em" dy="0.95em" style="text-anchor: middle; visibility: inherit; font-family: &quot;Helvetica Neue&quot;, sans-serif; font-size: 12px; font-weight: 200;" fill="rgb(50, 49, 63)" stroke="none" stroke-width="1px">3k</text><text x="258.52777777777777" y="0" dx="0em" dy="0.95em" style="text-anchor: middle; visibility: inherit; font-family: &quot;Helvetica Neue&quot;, sans-serif; font-size: 12px; font-weight: 200;" fill="rgb(50, 49, 63)" stroke="none" stroke-width="1px">3.5k</text><text x="290.84375" y="0" dx="0em" dy="0.95em" style="text-anchor: middle; visibility: hidden; font-family: &quot;Helvetica Neue&quot;, sans-serif; font-size: 12px; font-weight: 200;" fill="rgb(50, 49, 63)" stroke="none" stroke-width="1px">4k</text></g><line x1="0" y1="0" x2="290.84375" y2="0" fill="rgb(0, 0, 0)" stroke="rgb(204, 204, 204)" stroke-width="1px"></line></g></g></g></g></svg>