<svg viewBox="0 0 330 200" xmlns="http://www.w3.org/2000/svg"><g><g><g><g><g><line x1="39.109375" y1="165.76190476190476" x2="34.109375" y2="165.76190476190476" style="visibility: inherit;" fill="rgb(0, 0, 0)" stroke="rgb(204, 204, 204)" stroke-width="1px"></line><line x1="39.109375" y1="151.9484126984127" x2="34.109375" y2="151.9484126984127" style="visibility: inherit;" fill="rgb(0, 0, 0)" stroke="rgb(204, 204, 204)" stroke-width="1px"></line><line x1="39.109375" y1="138.13492063492063" x2="34.109375" y2="138.13492063492063" style="visibility: inherit;" fill="rgb(0, 0, 0)" stroke="rgb(204, 204, 204)" stroke-width="1px"></line><line x1="39.109375" y1="124.32142857142857" x2="34.109375" y2="124.32142857142857" style="visibility: inherit;" fill="rgb(0, 0, 0)" stroke="rgb(204, 204, 204)" stroke-width="1px"></line><line x1="39.109375" y1="110.5079365079365" x2="34.109375" y2="110.5079365079365" style="visibility: inherit;" fill="rgb(0, 0, 0)" stroke="rgb(204, 204, 204)" stroke-width="1px"></line><line x1="39.109375" y1="96.69444444444446" x2="34.109375" y2="96.69444444444446" style="visibility: inherit;" fill="rgb(0, 0, 0)" stroke="rgb(204, 204, 204)" stroke-width="1px"></line><line x1="39.109375" y1="82.88095238095238" x2="34.109375" y2="82.88095238095238" style="visibility: inherit;" fill="rgb(0, 0, 0)" stroke="rgb(204, 204, 204)" stroke-width="1px"></line><line x1="39.109375" y1="69.06746031746032" x2="34.109375" y2="69.06746031746032" style="visibility: inherit;" fill="rgb(0, 0, 0)" stroke="rgb(204, 204, 204)" stroke-width="1px"></line><line x1="39.109375" y1="55.25396825396827" x2="34.109375" y2="55.25396825396827" style="visibility: inherit;" fill="rgb(0, 0, 0)" stroke="rgb(204, 204, 204)" stroke-width="1px"></line><line x1="39.109375" y1="41.440476190476204" x2="34.109375" y2="41.440476190476204" style="visibility: inherit;" fill="rgb(0, 0, 0)" stroke="rgb(204, 204, 204)" stroke-width="1px"></line><line x1="39.109375" y1="27.626984126984127" x2="34.109375" y2="27.626984126984127" style="visibility: inherit;" fill="rgb(0, 0, 0)" stroke="rgb(204, 204, 204)" stroke-width="1px"></line><line x1="39.109375" y1="13.813492063492049" x2="34.109375" y2="13.813492063492049" style="visibility: inherit;" fill="rgb(0, 0, 0)" stroke="rgb(204, 204, 204)" stroke-width="1px"></line><line x1="39.109375" y1="0" x2="34.109375" y2="0" style="visibility: inherit;" fill="rgb(0, 0, 0)" stroke="rgb(204, 204, 204)" stroke-width="1px"></line></g><g transform="translate(29.109375, 0)"><text x="0" y="165.76190476190476" dx="0em" dy="0.3em" style="text-anchor: end; visibility: inherit; font-family: &quot;Helvetica Neue&quot;, sans-serif; font-size: 12px; font-weight: 200;" fill="rgb(50, 49, 63)" stroke="none" stroke-width="1px">2</text><text x="0" y="151.9484126984127" dx="0em" dy="0.3em" style="text-anchor: end; visibility: hidden; font-family: &quot;Helvetica Neue&quot;, sans-serif; font-size: 12px; font-weight: 200;" fill="rgb(50, 49, 63)" stroke="none" stroke-width="1px">2.5</text><text x="0" y="138.13492063492063" dx="0em" dy="0.3em" style="text-anchor: end; visibility: inherit; font-family: &quot;Helvetica Neue&quot;, sans-serif; font-size: 12px; font-weight: 200;" fill="rgb(50, 49, 63)" stroke="none" stroke-width="1px">3</text><text x="0" y="124.32142857142857" dx="0em" dy="0.3em" style="text-anchor: end; visibility: hidden; font-family: &quot;Helvetica Neue&quot;, sans-serif; font-size: 12px; font-weight: 200;" fill="rgb(50, 49, 63)" stroke="none" stroke-width="1px">3.5</text><text x="0" y="110.5079365079365" dx="0em" dy="0.3em" style="text-anchor: end; visibility: inherit; font-family: &quot;Helvetica Neue&quot;, sans-serif; font-size: 12px; font-weight: 200;" fill="rgb(50, 49, 63)" stroke="none" stroke-width="1px">4</text><text x="0" y="96.69444444444446" dx="0em" dy="0.3em" style="text-anchor: end; visibility: hidden; font-family: &quot;Helvetica Neue&quot;, sans-serif; font-size: 12px; font-weight: 200;" fill="rgb(50, 49, 63)" stroke="none" stroke-width="1px">4.5</text><text x="0" y="82.88095238095238" dx="0em" dy="0.3em" style="text-anchor: end; visibility: inherit; font-family: &quot;Helvetica Neue&quot;, sans-serif; font-size: 12px; font-weight: 200;" fill="rgb(50, 49, 63)" stroke="none" stroke-width="1px">5</text><text x="0" y="69.06746031746032" dx="0em" dy="0.3em" style="text-anchor: end; visibility: hidden; font-family: &quot;Helvetica Neue&quot;, sans-serif; font-size: 12px; font-weight: 200;" fill="rgb(50, 49, 63)" stroke="none" stroke-width="1px">5.5</text><text x="0" y="55.25396825396827" dx="0em" dy="0.3em" style="text-anchor: end; visibility: inherit; font-family: &quot;Helvetica Neue&quot;, sans-serif; font-size: 12px; font-weight: 200;" fill="rgb(50, 49, 63)" stroke="none" stroke-width="1px">6</text><text x="0" y="41.440476190476204" dx="0em" dy="0.3em" style="text-anchor: end; visibility: hidden; font-family: &quot;Helvetica Neue&quot;, sans-serif; font-size: 12px; font-weight: 200;" fill="rgb(50, 49, 63)" stroke="none" stroke-width="1px">6.5</text><text x="0" y="27.626984126984127" dx="0em" dy="0.3em" style="text-anchor: end; visibility: inherit; font-family: &quot;Helvetica Neue&quot;, sans-serif; font-size: 12px; font-weight: 200;" fill="rgb(50, 49, 63)" stroke="none" stroke-width="1px">7</text><text x="0" y="13.813492063492049" dx="0em" dy="0.3em" style="text-anchor: end; visibility: hidden; font-family: &quot;Helvetica Neue&quot;, sans-serif; font-size: 12px; font-weight: 200;" fill="rgb(50, 49, 63)" stroke="none" stroke-width="1px">7.5</text><text x="0" y="0" dx="0em" dy="0.3em" style="text-anchor: end; visibility: hidden; font-family: &quot;Helvetica Neue&quot;, sans-serif; font-size: 12px; font-weight: 200;" fill="rgb(50, 49, 63)" stroke="none" stroke-width="1px">8</text></g><line x1="39.109375" y1="0" x2="39.109375" y2="177" fill="rgb(0, 0, 0)" stroke="rgb(204, 204, 204)" stroke-width="1px"></line></g></g><g transform="translate(39, 0)" clip-path="url(#clip_0)"><clipPath id="clip_0"><rect width="290" height="177"></rect></clipPath><g><g><g><line x1="0" y1="0" x2="0" y2="177" fill="rgb(0, 0, 0)" stroke="rgb(60, 60, 60)" stroke-width="1px" opacity="0.25"></line><line x1="32.537669886330605" y1="0" x2="32.537669886330605" y2="177" fill="rgb(0, 0, 0)" stroke="rgb(60, 60, 60)" stroke-width="1px" opacity="0.25"></line><line x1="65.07533977266121" y1="0" x2="65.07533977266121" y2="177" fill="rgb(0, 0, 0)" stroke="rgb(60, 60, 60)" stroke-width="1px" opacity="0.25"></line><line x1="97.6130096589918" y1="0" x2="97.6130096589918" y2="177" fill="rgb(0, 0, 0)" stroke="rgb(60, 60, 60)" stroke-width="1px" opacity="0.25"></line><line x1="130.15067954532242" y1="0" x2="130.15067954532242" y2="177" fill="rgb(0, 0, 0)" stroke="rgb(60, 60, 60)" stroke-width="1px" opacity="0.25"></line><line x1="162.68834943165302" y1="0" x2="162.68834943165302" y2="177" fill="rgb(0, 0, 0)" stroke="rgb(60, 60, 60)" stroke-width="1px" opacity="0.25"></line><line x1="195.2260193179836" y1="0" x2="195.2260193179836" y2="177" fill="rgb(0, 0, 0)" stroke="rgb(60, 60, 60)" stroke-width="1px" opacity="0.25"></line><line x1="227.7636892043142" y1="0" x2="227.7636892043142" y2="177" fill="rgb(0, 0, 0)" stroke="rgb(60, 60, 60)" stroke-width="1px" opacity="0.25"></line><line x1="260.30135909064484" y1="0" x2="260.30135909064484" y2="177" fill="rgb(0, 0, 0)" stroke="rgb(60, 60, 60)" stroke-width="1px" opacity="0.25"></line></g><g><line x1="0" y1="165.76190476190476" x2="290.890625" y2="165.76190476190476" fill="rgb(0, 0, 0)" stroke="rgb(60, 60, 60)" stroke-width="1px" opacity="0.25"></line><line x1="0" y1="151.9484126984127" x2="290.890625" y2="151.9484126984127" fill="rgb(0, 0, 0)" stroke="rgb(60, 60, 60)" stroke-width="1px" opacity="0.25"></line><line x1="0" y1="138.13492063492063" x2="290.890625" y2="138.13492063492063" fill="rgb(0, 0, 0)" stroke="rgb(60, 60, 60)" stroke-width="1px" opacity="0.25"></line><line x1="0" y1="124.32142857142857" x2="290.890625" y2="124.32142857142857" fill="rgb(0, 0, 0)" stroke="rgb(60, 60, 60)" stroke-width="1px" opacity="0.25"></line><line x1="0" y1="110.5079365079365" x2="290.890625" y2="110.5079365079365" fill="rgb(0, 0, 0)" stroke="rgb(60, 60, 60)" stroke-width="1px" opacity="0.25"></line><line x1="0" y1="96.69444444444446" x2="290.890625" y2="96.69444444444446" fill="rgb(0, 0, 0)" stroke="rgb(60, 60, 60)" stroke-width="1px" opacity="0.25"></line><line x1="0" y1="82.88095238095238" x2="290.890625" y2="82.88095238095238" fill="rgb(0, 0, 0)" stroke="rgb(60, 60, 60)" stroke-width="1px" opacity="0.25"></line><line x1="0" y1="69.06746031746032" x2="290.890625" y2="69.06746031746032" fill="rgb(0, 0, 0)" stroke="rgb(60, 60, 60)" stroke-width="1px" opacity="0.25"></line><line x1="0" y1="55.25396825396827" x2="290.890625" y2="55.25396825396827" fill="rgb(0, 0, 0)" stroke="rgb(60, 60, 60)" stroke-width="1px" opacity="0.25"></line><line x1="0" y1="41.440476190476204" x2="290.890625" y2="41.440476190476204" fill="rgb(0, 0, 0)" stroke="rgb(60, 60, 60)" stroke-width="1px" opacity="0.25"></line><line x1="0" y1="27.626984126984127" x2="290.890625" y2="27.626984126984127" fill="rgb(0, 0, 0)" stroke="rgb(60, 60, 60)" stroke-width="1px" opacity="0.25"></line><line x1="0" y1="13.813492063492049" x2="290.890625" y2="13.813492063492049" fill="rgb(0, 0, 0)" stroke="rgb(60, 60, 60)" stroke-width="1px" opacity="0.25"></line><line x1="0" y1="0" x2="290.890625" y2="0" fill="rgb(0, 0, 0)" stroke="rgb(60, 60, 60)" stroke-width="1px" opacity="0.25"></line></g></g></g><g><g><line x1="0" y1="221.015873015873" x2="290.890625" y2="221.015873015873" fill="rgb(0, 0, 0)" stroke="rgb(153, 153, 153)" stroke-width="1.5px"></line></g></g><g><g><line x1="32.537669886330605" y1="0" x2="32.537669886330605" y2="177" fill="rgb(0, 0, 0)" stroke="rgb(153, 153, 153)" stroke-width="1.5px"></line></g></g><g><g><g><g><g><path stroke="rgb(0, 153, 136)" stroke-width="2px" d="M32.537669886330605,3.4557047382233748L32.620926552976414,13.57578811948261L32.704085606612566,22.708380498583352L32.78732961972009,30.845854376989678L32.870600747552515,37.83680588480027L32.95395321955966,44.02942571942768L33.037358113368285,49.56074538306585L33.12082989016502,53.86680423267303L33.204289013423455,58.55917809879969L33.28780959672501,62.77455007462275L33.37115483813884,66.3754407564799L33.45452900192591,69.93214727583386L33.53790858865796,72.75254330180941L33.621304444224954,75.46131964713808L33.704723799220204,77.8233016937498L33.78817207658868,80.03780559509521L33.871642045737076,82.44306282770066L33.95518432081855,84.52274838704912L34.038648867021976,86.92907267903524L34.122126066763684,88.60514632103936L34.205643034768585,90.05712431953067L34.28910396567535,92.15018105506897L34.372628164273564,93.89682552549574L34.45614693992679,95.4504508101751L34.53956991021869,97.15392548318894L34.62301637993884,98.8879760182093L34.70647911849393,100.32755768488325L34.79005573889362,102.07796979707385L34.87355643806358,103.88936237683372L34.95699567719043,105.3644995159573L35.04051806814031,106.78808846549383L35.1240748044084,108.27826982452757L35.20743631465719,109.54598906305101L35.29099305092528,110.74114167690277L35.37449917304022,111.99840109878117L35.458111946406454,112.65337795492204L35.5416650673779,114.25191853538394L35.6251820353828,114.94965680818709L35.70879842404569,116.02500236602057L35.79237685209371,116.71191854893215L35.87588297420866,117.394915593995L35.95945055636671,118.36362766841103L36.042980177909904,119.12712841563754L36.126430262926704,119.81954456510998L36.20992553915168,120.13356960198236L36.29356542724282,121.01825404356397L36.37710047173099,121.73811733155023L36.46058128676936,122.33533465862274L36.54416152246571,122.39690135017274L36.62776164229365,122.98474568033976L36.71131837856176,123.9048340982861L36.79487330718152,124.519315392252L36.878442696987904,124.58538744563148L36.96195966499281,125.28900113181463L37.045577861304025,125.64196066250878L37.129123751682165,126.22094576510173L37.212606374368846,126.22094576510173L37.29600403758417,126.76959871678126L37.37955354325896,127.27369205913847L37.463047011835606,127.43802579054757L37.5465097503907,127.43802579054757L37.62977364762981,127.91940789374095L37.713348460381184,128.18125899632773L37.7968527748478,128.39019185777695L37.8805035088289,128.8966037489119L37.964045783910386,128.8966037489119L38.04732594998444,129.29711987669506L38.13072903614474,129.65563206824046L38.214376154829196,129.65563206824046L38.29774489567128,129.9168508393424L38.381260056027855,129.9168508393424L38.46458179801344,130.3073287048037L38.548266877312756,130.40408200877053L38.63180915239424,130.70594783813235L38.715472539913634,130.79913110392434L38.79900396910515,130.9390146845863L38.88263662660298,130.96543428443726L38.9661084033997,131.05725408546508L39.04974286854586,131.35039242297884L39.13337010309872,131.47826170542885L39.21691418582852,131.777855093517L39.30061734161111,131.777855093517L39.383940891245025,131.79089693039182L39.467705507070725,131.79089693039182L39.55105617142954,131.86364798507992L39.63465448360916,132.1456875876775L39.71817506691072,132.1456875876775L39.801388349996685,132.1456875876775L39.884744437300476,132.49443816192567L39.968438554841434,132.49443816192567L40.05170064443222,132.49443816192567L40.13508565410926,132.55715095429196L40.21860623741081,132.55715095429196L40.301855673463315,132.55715095429196L40.38517018485559,132.55715095429196L40.46850096508281,132.55715095429196L40.55186066768326,132.55715095429196L40.635184217317175,132.55715095429196L40.71861622585071,132.56506168463875L40.80224165275523,132.56506168463875L40.885641123618875,132.75531442014L40.9693135493799,132.77250593238406L41.05291909215283,132.77250593238406L41.136258910621684,132.77250593238406L41.21965295854035,132.77250593238406L41.30298735406422,132.77250593238406L41.386247636006686,132.77250593238406L41.46960733860714,132.77250593238406L41.55293088824105,132.77250593238406L41.63631589791808,132.77250593238406L41.719659331683594,132.77250593238406L41.803033495470665,132.77250593238406L41.88645827341088,132.77250593238406L41.969790861286434,132.77250593238406L42.05320660098502,132.77250593238406L42.13655907299216,132.77250593238406L42.219810316693,132.77250593238406L42.30315555810684,132.77250593238406L42.38662914255188,132.77250593238406L42.47001957517389,132.77250593238406L42.5532418965015,132.77250593238406L42.63656725378373,132.77250593238406L42.720029992338816,132.77250593238406L42.803310158412884,132.77250593238406L42.886563209762045,132.77250593238406L42.96998256475729,132.77250593238406L43.053316960281165,132.77250593238406L43.13668750877158,132.77250593238406L43.2200851719869,132.77250593238406L43.30343945164236,132.77250593238406L43.38684615309932,132.77250593238406L43.470090166206845,132.77250593238406L43.55337033228091,132.77250593238406L43.63665953659661,132.77250593238406L43.71998127858219,132.77250593238406L43.80326686760123,132.77250593238406L43.88658499429017,132.77250593238406L43.969906736275746,132.77250593238406L44.05326101593122,132.77250593238406L44.136582757916806,132.77250593238406" style="fill: none;" fill="none"></path></g><g><path stroke="rgb(255, 112, 67)" stroke-width="2px" d="M32.537669886330605,20.794813689731427L36.38286867754251,25.534019606454052L38.41104467751214,30.76897340729124L99.12414220033604,34.6494204733107L101.15197474712353,34.6494204733107L103.17993744459056,37.80536056700208L105.20910765114006,39.032281251180734L107.23732703466952,40.08147726740157L109.2548939466079,41.07122095047481L111.27505121859886,43.08567097830394L113.34501100964752,45.256846999365195L115.60311445386891,47.48902983514091L117.87161368361896,50.95263871692475L120.14526290345272,54.49667225943672L122.54072592874755,58.438271049469236L125.03481966970952,62.872311156893545L127.53465811705472,67.79584170144702L130.055192330096,71.40960296373518L132.86930309263164,76.0303257684859L136.03973207044416,78.46986063699875L139.52449301584193,82.57740692108398L143.339113627954,86.06753420451331L147.38925635588996,87.90813259472922L151.5993235389655,90.54108185616751L155.981079352493,93.04984384869773L160.57609970799373,94.39349555969238L165.5239187874787,95.8738889542837L178.5501706622102,97.86683971162826L245.63497546700808,97.86683971162826L251.5089540127308,97.86683971162826L257.4295192711375,97.86683971162826L264.024066208273,97.86683971162826L270.2468431522322,97.86683971162826L276.1427611257,97.86683971162826L283.13036853800736,97.86683971162826" style="fill: none;" fill="none"></path></g></g></g></g></g></g><g transform="translate(39, 177)" clip-path="url(#clip_1)"><clipPath id="clip_1"><rect width="290" height="23"></rect></clipPath><g><g><line x1="0" y1="0" x2="0" y2="5" style="visibility: inherit;" fill="rgb(0, 0, 0)" stroke="rgb(204, 204, 204)" stroke-width="1px"></line><line x1="32.537669886330605" y1="0" x2="32.537669886330605" y2="5" style="visibility: inherit;" fill="rgb(0, 0, 0)" stroke="rgb(204, 204, 204)" stroke-width="1px"></line><line x1="65.07533977266121" y1="0" x2="65.07533977266121" y2="5" style="visibility: inherit;" fill="rgb(0, 0, 0)" stroke="rgb(204, 204, 204)" stroke-width="1px"></line><line x1="97.6130096589918" y1="0" x2="97.6130096589918" y2="5" style="visibility: inherit;" fill="rgb(0, 0, 0)" stroke="rgb(204, 204, 204)" stroke-width="1px"></line><line x1="130.15067954532242" y1="0" x2="130.15067954532242" y2="5" style="visibility: inherit;" fill="rgb(0, 0, 0)" stroke="rgb(204, 204, 204)" stroke-width="1px"></line><line x1="162.68834943165302" y1="0" x2="162.68834943165302" y2="5" style="visibility: inherit;" fill="rgb(0, 0, 0)" stroke="rgb(204, 204, 204)" stroke-width="1px"></line><line x1="195.2260193179836" y1="0" x2="195.2260193179836" y2="5" style="visibility: inherit;" fill="rgb(0, 0, 0)" stroke="rgb(204, 204, 204)" stroke-width="1px"></line><line x1="227.7636892043142" y1="0" x2="227.7636892043142" y2="5" style="visibility: inherit;" fill="rgb(0, 0, 0)" stroke="rgb(204, 204, 204)" stroke-width="1px"></line><line x1="260.30135909064484" y1="0" x2="260.30135909064484" y2="5" style="visibility: inherit;" fill="rgb(0, 0, 0)" stroke="rgb(204, 204, 204)" stroke-width="1px"></line></g><g transform="translate(0, 8)"><text x="0" y="0" dx="0em" dy="0.95em" style="text-anchor: middle; visibility: hidden; font-family: &quot;Helvetica Neue&quot;, sans-serif; font-size: 12px; font-weight: 200;" fill="rgb(50, 49, 63)" stroke="none" stroke-width="1px">-5</text><text x="32.537669886330605" y="0" dx="0em" dy="0.95em" style="text-anchor: middle; visibility: inherit; font-family: &quot;Helvetica Neue&quot;, sans-serif; font-size: 12px; font-weight: 200;" fill="rgb(50, 49, 63)" stroke="none" stroke-width="1px">0</text><text x="65.07533977266121" y="0" dx="0em" dy="0.95em" style="text-anchor: middle; visibility: inherit; font-family: &quot;Helvetica Neue&quot;, sans-serif; font-size: 12px; font-weight: 200;" fill="rgb(50, 49, 63)" stroke="none" stroke-width="1px">5</text><text x="97.6130096589918" y="0" dx="0em" dy="0.95em" style="text-anchor: middle; visibility: inherit; font-family: &quot;Helvetica Neue&quot;, sans-serif; font-size: 12px; font-weight: 200;" fill="rgb(50, 49, 63)" stroke="none" stroke-width="1px">10</text><text x="130.15067954532242" y="0" dx="0em" dy="0.95em" style="text-anchor: middle; visibility: inherit; font-family: &quot;Helvetica Neue&quot;, sans-serif; font-size: 12px; font-weight: 200;" fill="rgb(50, 49, 63)" stroke="none" stroke-width="1px">15</text><text x="162.68834943165302" y="0" dx="0em" dy="0.95em" style="text-anchor: middle; visibility: inherit; font-family: &quot;Helvetica Neue&quot;, sans-serif; font-size: 12px; font-weight: 200;" fill="rgb(50, 49, 63)" stroke="none" stroke-width="1px">20</text><text x="195.2260193179836" y="0" dx="0em" dy="0.95em" style="text-anchor: middle; visibility: inherit; font-family: &quot;Helvetica Neue&quot;, sans-serif; font-size: 12px; font-weight: 200;" fill="rgb(50, 49, 63)" stroke="none" stroke-width="1px">25</text><text x="227.7636892043142" y="0" dx="0em" dy="0.95em" style="text-anchor: middle; visibility: inherit; font-family: &quot;Helvetica Neue&quot;, sans-serif; font-size: 12px; font-weight: 200;" fill="rgb(50, 49, 63)" stroke="none" stroke-width="1px">30</text><text x="260.30135909064484" y="0" dx="0em" dy="0.95em" style="text-anchor: middle; visibility: inherit; font-family: &quot;Helvetica Neue&quot;, sans-serif; font-size: 12px; font-weight: 200;" fill="rgb(50, 49, 63)" stroke="none" stroke-width="1px">35</text></g><line x1="0" y1="0" x2="290.890625" y2="0" fill="rgb(0, 0, 0)" stroke="rgb(204, 204, 204)" stroke-width="1px"></line></g></g></g></g></svg>