<svg viewBox="0 0 330 200" xmlns="http://www.w3.org/2000/svg"><g><g><g><g><g><line x1="29.4375" y1="161.00219769074235" x2="24.4375" y2="161.00219769074235" style="visibility: inherit;" fill="rgb(0, 0, 0)" stroke="rgb(204, 204, 204)" stroke-width="1px"></line><line x1="29.4375" y1="143.54197521857844" x2="24.4375" y2="143.54197521857844" style="visibility: inherit;" fill="rgb(0, 0, 0)" stroke="rgb(204, 204, 204)" stroke-width="1px"></line><line x1="29.4375" y1="126.08175274641451" x2="24.4375" y2="126.08175274641451" style="visibility: inherit;" fill="rgb(0, 0, 0)" stroke="rgb(204, 204, 204)" stroke-width="1px"></line><line x1="29.4375" y1="108.6215302742506" x2="24.4375" y2="108.6215302742506" style="visibility: inherit;" fill="rgb(0, 0, 0)" stroke="rgb(204, 204, 204)" stroke-width="1px"></line><line x1="29.4375" y1="91.16130780208668" x2="24.4375" y2="91.16130780208668" style="visibility: inherit;" fill="rgb(0, 0, 0)" stroke="rgb(204, 204, 204)" stroke-width="1px"></line><line x1="29.4375" y1="73.70108532992278" x2="24.4375" y2="73.70108532992278" style="visibility: inherit;" fill="rgb(0, 0, 0)" stroke="rgb(204, 204, 204)" stroke-width="1px"></line><line x1="29.4375" y1="56.240862857758856" x2="24.4375" y2="56.240862857758856" style="visibility: inherit;" fill="rgb(0, 0, 0)" stroke="rgb(204, 204, 204)" stroke-width="1px"></line><line x1="29.4375" y1="38.78064038559495" x2="24.4375" y2="38.78064038559495" style="visibility: inherit;" fill="rgb(0, 0, 0)" stroke="rgb(204, 204, 204)" stroke-width="1px"></line><line x1="29.4375" y1="21.320417913431044" x2="24.4375" y2="21.320417913431044" style="visibility: inherit;" fill="rgb(0, 0, 0)" stroke="rgb(204, 204, 204)" stroke-width="1px"></line><line x1="29.4375" y1="3.8601954412671375" x2="24.4375" y2="3.8601954412671375" style="visibility: inherit;" fill="rgb(0, 0, 0)" stroke="rgb(204, 204, 204)" stroke-width="1px"></line></g><g transform="translate(19.4375, 0)"><text x="0" y="161.00219769074235" dx="0em" dy="0.3em" style="text-anchor: end; visibility: inherit; font-family: &quot;Helvetica Neue&quot;, sans-serif; font-size: 12px; font-weight: 200;" fill="rgb(50, 49, 63)" stroke="none" stroke-width="1px">2</text><text x="0" y="143.54197521857844" dx="0em" dy="0.3em" style="text-anchor: end; visibility: hidden; font-family: &quot;Helvetica Neue&quot;, sans-serif; font-size: 12px; font-weight: 200;" fill="rgb(50, 49, 63)" stroke="none" stroke-width="1px">3</text><text x="0" y="126.08175274641451" dx="0em" dy="0.3em" style="text-anchor: end; visibility: inherit; font-family: &quot;Helvetica Neue&quot;, sans-serif; font-size: 12px; font-weight: 200;" fill="rgb(50, 49, 63)" stroke="none" stroke-width="1px">4</text><text x="0" y="108.6215302742506" dx="0em" dy="0.3em" style="text-anchor: end; visibility: hidden; font-family: &quot;Helvetica Neue&quot;, sans-serif; font-size: 12px; font-weight: 200;" fill="rgb(50, 49, 63)" stroke="none" stroke-width="1px">5</text><text x="0" y="91.16130780208668" dx="0em" dy="0.3em" style="text-anchor: end; visibility: inherit; font-family: &quot;Helvetica Neue&quot;, sans-serif; font-size: 12px; font-weight: 200;" fill="rgb(50, 49, 63)" stroke="none" stroke-width="1px">6</text><text x="0" y="73.70108532992278" dx="0em" dy="0.3em" style="text-anchor: end; visibility: hidden; font-family: &quot;Helvetica Neue&quot;, sans-serif; font-size: 12px; font-weight: 200;" fill="rgb(50, 49, 63)" stroke="none" stroke-width="1px">7</text><text x="0" y="56.240862857758856" dx="0em" dy="0.3em" style="text-anchor: end; visibility: inherit; font-family: &quot;Helvetica Neue&quot;, sans-serif; font-size: 12px; font-weight: 200;" fill="rgb(50, 49, 63)" stroke="none" stroke-width="1px">8</text><text x="0" y="38.78064038559495" dx="0em" dy="0.3em" style="text-anchor: end; visibility: hidden; font-family: &quot;Helvetica Neue&quot;, sans-serif; font-size: 12px; font-weight: 200;" fill="rgb(50, 49, 63)" stroke="none" stroke-width="1px">9</text><text x="0" y="21.320417913431044" dx="0em" dy="0.3em" style="text-anchor: end; visibility: inherit; font-family: &quot;Helvetica Neue&quot;, sans-serif; font-size: 12px; font-weight: 200;" fill="rgb(50, 49, 63)" stroke="none" stroke-width="1px">10</text><text x="0" y="3.8601954412671375" dx="0em" dy="0.3em" style="text-anchor: end; visibility: hidden; font-family: &quot;Helvetica Neue&quot;, sans-serif; font-size: 12px; font-weight: 200;" fill="rgb(50, 49, 63)" stroke="none" stroke-width="1px">11</text></g><line x1="29.4375" y1="0" x2="29.4375" y2="177" fill="rgb(0, 0, 0)" stroke="rgb(204, 204, 204)" stroke-width="1px"></line></g></g><g transform="translate(29, 0)" clip-path="url(#clip_0)"><clipPath id="clip_0"><rect width="300" height="177"></rect></clipPath><g><g><g><line x1="13.876270459278857" y1="0" x2="13.876270459278857" y2="177" fill="rgb(0, 0, 0)" stroke="rgb(60, 60, 60)" stroke-width="1px" opacity="0.25"></line><line x1="38.18133049177153" y1="0" x2="38.18133049177153" y2="177" fill="rgb(0, 0, 0)" stroke="rgb(60, 60, 60)" stroke-width="1px" opacity="0.25"></line><line x1="62.486390524264216" y1="0" x2="62.486390524264216" y2="177" fill="rgb(0, 0, 0)" stroke="rgb(60, 60, 60)" stroke-width="1px" opacity="0.25"></line><line x1="86.7914505567569" y1="0" x2="86.7914505567569" y2="177" fill="rgb(0, 0, 0)" stroke="rgb(60, 60, 60)" stroke-width="1px" opacity="0.25"></line><line x1="111.09651058924958" y1="0" x2="111.09651058924958" y2="177" fill="rgb(0, 0, 0)" stroke="rgb(60, 60, 60)" stroke-width="1px" opacity="0.25"></line><line x1="135.40157062174225" y1="0" x2="135.40157062174225" y2="177" fill="rgb(0, 0, 0)" stroke="rgb(60, 60, 60)" stroke-width="1px" opacity="0.25"></line><line x1="159.70663065423494" y1="0" x2="159.70663065423494" y2="177" fill="rgb(0, 0, 0)" stroke="rgb(60, 60, 60)" stroke-width="1px" opacity="0.25"></line><line x1="184.0116906867276" y1="0" x2="184.0116906867276" y2="177" fill="rgb(0, 0, 0)" stroke="rgb(60, 60, 60)" stroke-width="1px" opacity="0.25"></line><line x1="208.3167507192203" y1="0" x2="208.3167507192203" y2="177" fill="rgb(0, 0, 0)" stroke="rgb(60, 60, 60)" stroke-width="1px" opacity="0.25"></line><line x1="232.62181075171299" y1="0" x2="232.62181075171299" y2="177" fill="rgb(0, 0, 0)" stroke="rgb(60, 60, 60)" stroke-width="1px" opacity="0.25"></line><line x1="256.9268707842057" y1="0" x2="256.9268707842057" y2="177" fill="rgb(0, 0, 0)" stroke="rgb(60, 60, 60)" stroke-width="1px" opacity="0.25"></line><line x1="281.23193081669837" y1="0" x2="281.23193081669837" y2="177" fill="rgb(0, 0, 0)" stroke="rgb(60, 60, 60)" stroke-width="1px" opacity="0.25"></line></g><g><line x1="0" y1="161.00219769074235" x2="300.5625" y2="161.00219769074235" fill="rgb(0, 0, 0)" stroke="rgb(60, 60, 60)" stroke-width="1px" opacity="0.25"></line><line x1="0" y1="143.54197521857844" x2="300.5625" y2="143.54197521857844" fill="rgb(0, 0, 0)" stroke="rgb(60, 60, 60)" stroke-width="1px" opacity="0.25"></line><line x1="0" y1="126.08175274641451" x2="300.5625" y2="126.08175274641451" fill="rgb(0, 0, 0)" stroke="rgb(60, 60, 60)" stroke-width="1px" opacity="0.25"></line><line x1="0" y1="108.6215302742506" x2="300.5625" y2="108.6215302742506" fill="rgb(0, 0, 0)" stroke="rgb(60, 60, 60)" stroke-width="1px" opacity="0.25"></line><line x1="0" y1="91.16130780208668" x2="300.5625" y2="91.16130780208668" fill="rgb(0, 0, 0)" stroke="rgb(60, 60, 60)" stroke-width="1px" opacity="0.25"></line><line x1="0" y1="73.70108532992278" x2="300.5625" y2="73.70108532992278" fill="rgb(0, 0, 0)" stroke="rgb(60, 60, 60)" stroke-width="1px" opacity="0.25"></line><line x1="0" y1="56.240862857758856" x2="300.5625" y2="56.240862857758856" fill="rgb(0, 0, 0)" stroke="rgb(60, 60, 60)" stroke-width="1px" opacity="0.25"></line><line x1="0" y1="38.78064038559495" x2="300.5625" y2="38.78064038559495" fill="rgb(0, 0, 0)" stroke="rgb(60, 60, 60)" stroke-width="1px" opacity="0.25"></line><line x1="0" y1="21.320417913431044" x2="300.5625" y2="21.320417913431044" fill="rgb(0, 0, 0)" stroke="rgb(60, 60, 60)" stroke-width="1px" opacity="0.25"></line><line x1="0" y1="3.8601954412671375" x2="300.5625" y2="3.8601954412671375" fill="rgb(0, 0, 0)" stroke="rgb(60, 60, 60)" stroke-width="1px" opacity="0.25"></line></g></g></g><g><g><line x1="0" y1="195.92264263507016" x2="300.5625" y2="195.92264263507016" fill="rgb(0, 0, 0)" stroke="rgb(153, 153, 153)" stroke-width="1.5px"></line></g></g><g><g><line x1="13.876270459278857" y1="0" x2="13.876270459278857" y2="177" fill="rgb(0, 0, 0)" stroke="rgb(153, 153, 153)" stroke-width="1.5px"></line></g></g><g><g><g><g><g><path stroke="rgb(255, 112, 67)" stroke-width="2px" d="M21.046263168864197,42.81476676110913L28.216255878449537,54.08595966448519L35.38624858803488,56.333894038094854L42.55624129762022,59.927025643604L49.72623400720556,62.95173790285591L56.896226716790906,64.10766738618032L64.06621942637624,65.03779602451708L71.23621213596158,65.5405340586506L78.40620484554692,66.06985599817274L85.57619755513227,67.74474194585213L92.74619026471761,68.43356731770618L99.91618297430296,68.71051283253489L107.0861756838883,69.59239413866769L114.25616839347362,70.48941153624946L121.42616110305896,71.90024845185835L128.5961538126443,73.40932009959397L135.76614652222966,74.80603665706346L142.936139231815,77.21832833611545L150.10613194140035,78.39501374682284L157.27612465098568,80.27615183612234L164.44611736057104,81.03072512556305L171.61611007015637,82.27353310958604L178.78610277974167,84.40023721499524L185.95609548932705,85.55717410594633L193.12608819891236,86.367654355827L200.29608090849774,87.63172613388777L207.46607361808304,88.58236925480443L214.63606632766837,88.665109891119L221.80605903725373,90.13527562282546L228.97605174683906,89.49793627380993L236.14604445642442,88.60385784227958L243.31603716600975,89.12328887055784L250.4860298755951,88.15251424847308L257.65602258518044,88.06667645813265L264.8260152947658,88.08172929275297L271.99600800435115,83.90646594130757" style="fill: none;" fill="none"></path></g><g><path stroke="rgb(187, 187, 187)" stroke-width="2px" d="M14.338066599896216,11.188894434743617L14.921388040676042,14.797378599456238L14.99430322077352,34.62089610701031L15.26165888113094,33.7821335124365L15.62623478161833,63.93228687662446L15.699149961715806,39.83965059468534L16.18525116236566,41.784346946977934L17.667859824347715,39.17629348671599L17.740775004445194,35.87817412785307L17.95952054473763,29.21589609364034L18.34840150525751,60.0836567153474L19.466434266752174,52.50844257791458L19.587959566914634,59.94975475782606L20.098365827596982,59.424429146079206L20.219891127759446,48.87981026066814L20.390026547986896,69.67273697831708L20.53585690818185,56.67026827721551L21.362228949286603,55.85699892357498L21.41083906935159,62.39132786351503L21.605279549611527,66.12700348535961L22.115685810293876,63.17277645724468L22.310126290553814,77.12836100707386L22.79622749120367,68.2416436762971L24.108700732958276,69.77211232899634L24.13300579299077,53.82696432191389L24.61910699364062,62.48656534981029L24.6920221737381,65.69649907576478L25.05659807422549,58.511434763079066L25.12951325432297,69.54310609610559L25.153818314355462,54.22698008085629L25.396868914680386,67.98852626582865L25.85866505529775,66.2163713652349L26.369071315980094,51.34136500523363L26.903782636694935,73.2468693755278L27.560019257572236,66.56194548392163L27.94890021809212,67.75482434780189L28.119035638319566,56.09413102294221L28.14334069835206,61.75491266529754L28.79957731922936,80.52339964017081L29.13984815968426,81.34461169526475L29.309983579911705,82.4175091433743L29.334288639944198,68.17016768889918L29.382898760009187,69.68857242712672L29.455813940106665,68.6792915217903L29.50442406017165,79.27746952507336L29.79608478056156,73.8564675492364L30.03913538088649,71.20531202878121L31.084252962283674,72.20825708945719L31.278693442543616,61.06885142015473L31.473133922803555,77.76982156910768L32.007845243518396,65.11067072663637L32.10506548364837,77.09060403528008L32.3238110239408,64.98959032072744L32.42103126407077,70.71740203583067L32.469641384135755,65.08942358396432L32.809912224590654,76.10756568233485L32.85852234465564,72.58877409912925L32.9800476448181,72.00704198597055L33.028657764883086,75.37266598150467L33.12587800501306,72.18218105072333L33.223098245143035,65.40649056452052L33.368928605337985,68.43896236020285L33.39323366537048,62.43132444399956L33.95225004611781,74.45322751996684L34.04947028624778,64.92179428515597L34.85153726732004,80.98248611904197L35.16750304774244,72.2410519542633L35.75082448852227,71.43365220704277L35.799434608587255,73.80615544768187L35.9938750888472,84.62189186991601L36.60150158965951,72.9754687654873L36.67441676975699,75.09057519466523L36.893162310049426,66.27331903603302L37.08760279030937,70.82347123553359L37.3063483306018,64.73414171905675L37.33065339063429,85.17922973227964L37.47648375082925,79.35867823574071L37.50078881086174,64.91355185911941L37.6223141110242,76.42265115036913L38.05980519160907,69.51108551980593L38.13272037170655,77.63383819087002L38.351465911998986,76.99377634355757L39.54241385359113,91.30387679547073L39.61532903368861,70.27954604826583L39.663939153753596,68.51337731365219L39.76115939388356,74.43426994008274L39.906989754078516,88.30662263830831L40.02851505424098,72.20809890148277L40.271565654565904,70.00028599360058L40.41739601476086,71.54108681873558L40.53892131492333,70.79839427874354L40.781971915248256,69.7147900024693L41.802784436612946,70.49245873617814L41.90000467674292,79.09368840150647L41.92430973677541,66.11746225279609L41.9486147968079,81.61238230757597L42.386105877392765,75.32551763943891L42.677766597782686,85.76106175363275L42.653461537750196,64.99815744839577L43.57705381898491,76.62921134225527L43.917324659439814,78.11062507151263L43.99023983953729,71.48160814034644L44.47634104018714,80.24176676588898L44.62217140038209,73.20167756893537L44.79230682060955,82.44405974603151L45.32701814132439,80.18891533106056L45.39993332142186,87.83146759150728L45.66728898177928,72.85772695840735L45.740204161876754,71.62423541351055L45.813119341974236,76.70368457548466L45.83742440200673,72.2885000209122L47.004067283566386,82.67708728374618L47.149897643761335,73.2749685551979L47.17420270379383,90.33868038090567L47.708914024508665,74.63015660653565L48.000574744898586,68.27992516611138L48.243625345223506,79.98865768110339L48.97277714619828,73.46222148851959L49.24013280655571,84.94568600222732L49.43457328681565,76.8027851786294L49.580403647010606,77.83124845728727L50.33386050801788,80.74781842180285L50.43108074814785,70.63467805088185L51.038707248960165,79.70874822317467L51.42758820948005,74.99427202096324L51.451893269512546,78.77092665387046L51.816469169999934,76.60047941068738L51.9136894101299,83.5133105450461L52.30257037064979,79.22690765303287L52.32687543068228,95.60480800408378L53.10463735172204,81.30271685908694L53.177552531819515,86.18815263325284L53.29907783198198,72.76599458459836L53.37199301207946,86.14733181016466L53.85809421272932,85.32935012002243L54.19836505318421,75.54597339602711L54.41711059347664,77.3354706940291L54.51433083360662,74.41421337006041L54.56294095367161,84.83102469780749L54.61155107373659,73.94408703570998L54.68446625383407,88.61403182674087L54.85460167406152,87.82160998299487L55.07334721435395,89.67352492543743L55.41361805480884,78.28793713949325L55.46222817487383,82.80476163048434L55.535143354971304,89.71613577034164L55.65666865513378,79.3615589220121L55.72958383523125,79.56538828991843L55.75388889526375,72.73234217445713L56.2399900959136,70.295906015096L56.45873563620603,81.51438069456945L56.604565996400986,80.54635354783022L56.799006476660935,73.87668230723315L56.99344695692087,81.89722889544379L57.16358237714832,74.8957708669848L57.67398863783066,80.48367780722083L57.77120887796064,72.88574288124883L58.01425947828557,88.92573706753187L58.11147971841554,80.46037422088108L58.33022525870797,74.81542802733543L58.64619103913037,78.58563858170494L58.71910621922785,75.43415114946431L58.86493657942281,77.53132405775055L58.913546699487796,77.26828243330677L59.88574910078751,70.35604242243149L60.29893512133988,77.53709375597616L60.5419857216648,83.57628601023865L60.61490090176228,72.67899119865679L61.10100210241214,82.96727896001345L61.44127294286703,81.24102354905567L61.489883062932016,87.91529056659434L61.927374143516886,79.1274573712078L62.024594383646864,80.442032741529L62.2190348639068,84.4375862283286L62.63222088445917,75.0161352641673L62.77805124465413,76.36347219656315L63.361372685433956,75.28803541517969L63.67733846585636,78.43660053273463L63.75025364595383,83.07517148426386L63.77455870598633,72.20120523607036L63.8717789461163,72.24401589736331L63.96899918624627,81.00560654035868L64.06621942637624,82.6237446336287L64.2120497865712,75.87880089424718L64.5766256870586,83.42854676779528L65.40299772816334,83.77394604714185L65.50021796829331,72.97653445289406L65.67035338852077,74.72261331475394L65.8890989288132,75.53200290017926L66.42381024952803,90.99421967266457L66.47242036959302,85.80202411332962L66.521030489658,72.09001574140534L66.71547096991794,78.82124708110784L66.90991145017789,81.77630667750931L67.00713169030786,108.32620165165548L67.49323289095771,94.14308451480267L67.61475819112017,76.22266824794653L67.63906325115266,84.57466027102161L67.68767337121766,73.30911218062818L67.76058855131514,73.9891123286451L68.05224927170504,81.90553792694328L68.12516445180252,91.54747795042424L68.24668975196498,78.45183653237798L68.70848589258235,86.85672994437869L68.95153649290727,73.59978674650164L69.09736685310223,84.37242943422538L69.24319721329718,77.93247210956262L69.34041745342715,88.41158452219015L69.63207817381706,75.67532953070403L70.26400973466187,75.0409374734228L70.4827552749543,89.18109408669108L71.30912731605906,82.75451613439273L71.33343237609155,85.51293975288343L71.38204249615654,76.82377422513262L72.45146513758621,81.98916941132443L72.64590561784615,83.411762191139L72.8160410380736,88.41931908157194L72.8646511581386,80.9886554500451L72.91326127820358,79.32117936011576L73.03478657836604,76.93281569361841L73.64241307917835,82.04901441975963L73.66671813921084,73.92949211364724L73.90976873953578,77.18141225829106L73.95837885960077,73.8381343955672L74.07990415976323,75.00602788516892L74.42017500021812,85.3892034541405L74.56600536041307,71.73841382832418L74.78475090070552,76.09956470110137L75.14932680119291,77.13928430299303L75.24654704132287,86.05977060347114L75.29515716138786,87.12365966272054L75.90278366220018,79.82123652436667L76.43749498291501,85.80055046746247L76.58332534310998,83.2745715888859L76.99651136366235,84.36181418857224L77.14234172385731,83.74918546630067L77.50691762434468,74.8677632698262L77.77427328470212,79.77385506318069L78.33328966544944,79.65653786592686L78.4791200256444,87.73512278939094L78.60064532580685,86.65285894805801L78.91661110622927,83.86866734109945L79.08674652645672,77.41079314691075L79.4513224269441,80.14492242280073L79.74298314733402,86.3389057728934L79.8158983274315,72.14743797612675L80.15616916788639,84.54144912207225L81.00684626902364,77.82564527271897L81.03115132905614,71.60402898119665L81.05545638908862,82.93043781333483L81.85752337016089,75.30695969233233L83.02416625172053,75.70389494861462L83.24291179201296,75.89544393429475L83.4616573323054,83.24542337317475L83.60748769250036,75.71336125003236L84.1178939531827,96.02427255819934L84.1665040732477,96.46003879936501L84.19080913328018,78.08822898460518L85.33314695480733,75.96565441789716L85.52758743506728,80.59503381554318L86.06229875578211,78.24108019632779L86.37826453620453,99.5212175495666L86.7671454967244,77.89856992893546L86.84006067682189,92.99137615269092L87.03450115708183,86.8197639124571L87.1074163371793,76.37607728042109L87.69073777795913,82.53711590341608L87.7879580180891,77.3804293815013L87.83656813815409,83.12541698035545L88.51710981906388,78.16936276412677L89.07612619981121,90.81276141461709L89.4407021002986,88.08397722712658L89.87819318088347,90.55991875168318L90.02402354107844,84.51027776542486L90.4129045015983,99.77617493594826L90.85039558218317,78.70725183131724L90.87470064221567,76.05671241139407L91.70107268332042,88.67341059693562L91.94412328364534,81.35100581970522L92.01703846374284,78.684780813264L92.04134352377531,79.76213250170647L92.0899536438403,81.81317280123652L92.1142587038728,83.82959491141298L92.72188520468511,76.93228284991505L93.49964712572488,91.28288774896751L93.69408760598482,78.1493644738845L94.03435844643971,82.29563779759322L94.05866350647221,78.07641484061944L94.47184952702457,77.49443295697476L95.17669626796688,74.71924973887637L95.22530638803185,84.94934097700515L95.46835698835679,81.15541887783547L95.88154300890916,85.67345059284202L96.00306830907162,82.80899107737986L96.53777962978647,83.09818367170332L96.73222011004641,80.27398715857738L96.99957577040382,89.94028813012197L97.0481858904688,88.00767234366683L97.21832131069625,89.17133638637303L97.36415167089122,90.947987155714L97.53428709111867,81.78843719744394L97.68011745131362,82.73326066603782L97.75303263141109,84.53930942157588L98.16621865196348,94.06429857784909L98.45787937235339,84.62879386101127L98.53079455245087,92.137052856842L99.13842105326317,86.62393552578423L99.28425141345815,85.36457608422518L99.38147165358811,83.81388434784631L99.77035261410799,81.01593038711155L100.15923357462788,81.59611392325735L100.64533477527772,92.13249038263186L101.0828258558626,99.70654725014641L101.13143597592757,83.08206514967624L101.18004609599257,78.13068996721782L101.25296127609005,113.04705532694169L101.32587645618752,85.93232105017033L101.73906247673989,84.25497070036286L102.00641813709733,84.01111144924053L102.34668897755222,80.45119931836362L103.12445089859197,87.04712998582343L103.70777233937181,79.25846199109205L103.80499257950179,89.06877229915638L103.99943305976173,77.89021094333876L104.0723482398592,100.9097416350967L104.50983932044406,81.73430360745428L104.82580510086646,89.18384156203659L105.0202455811264,93.73267830364446L105.33621136154882,99.63209899396561L105.45773666171127,117.33127689004422L105.84661762223116,89.11507974725274L105.96814292239362,79.84618027023087L106.0167530424586,86.02744197690548L106.25980364278354,78.56637295155483L106.3570238829135,82.31665182114502L107.0618706238558,80.20811435574775L107.15909086398577,81.76194487456681L107.32922628421322,78.48499772723015L108.59308940590283,80.35066669776607L108.76322482613028,88.07258769296695L108.86044506626025,84.57132167219265L109.12780072661768,79.28360555334503L109.27363108681263,84.6661345486618L109.41946144700759,77.90040990484866L109.95417276772243,86.38174141123496L110.22152842807985,92.31961010502769L110.34305372824231,85.98184221185267L110.56179926853474,87.81856278306618L110.58610432856723,73.78000447780221L110.87776504895714,90.03708251911304L111.14512070931457,88.84856631305415L111.21803588941205,117.52207656426648L112.60342431126413,89.56631510718198L112.72494961142658,88.22148420532857L112.74925467145908,81.63646850810507L112.992305271784,94.05487390484565L114.74226959412348,84.13632971953346L115.0096252544809,89.90622776152037L115.0339303145134,82.2397391628361L115.08254043457838,87.61960393963602L115.13115055464337,103.60928602436454L115.20406573474084,93.77663790917283L115.22837079477334,95.11256033036045L115.83599729558566,107.53550322426258L115.95752259574812,89.66630655839329L116.0304377758456,90.50013202302803L116.22487825610554,97.32237140213027L116.71097945675538,92.96758135106212L116.78389463685288,94.1480799245218L116.80819969688535,86.02848268726363L117.17277559737275,116.97488770931558L117.56165655789263,85.64363632250165L117.70748691808758,93.37618921472144L117.80470715821755,108.44471774724191L118.02345269851,89.25617509476963L118.07206281857498,82.09056790293995L118.29080835886741,95.24072589238767L118.38802859899738,81.83820812961223L118.6553842593548,97.52147178216917L119.28731582019961,88.3190279057775L119.50606136049205,88.3043247498375L119.87063726097945,94.17161662998178L120.04077268120689,115.89000127788009L120.18660304140184,106.50594928114936L120.28382328153181,87.32698116397208L120.30812834156431,105.13878889785143L120.76992448218166,82.53460987287363L120.84283966227915,109.25333304416077L121.83934712361135,88.62492181992859L122.25253314416372,105.39797573112861L122.6657191647161,92.01624719846764L122.69002422474858,98.1452152910658L123.15182036536595,88.47128799401665L123.17612542539844,88.17970592871089L123.24904060549592,91.47158935110774L123.46778614578835,84.99782142832933L123.73514180614578,83.62133628022235L124.34276830695809,88.0646533171964L124.41568348705556,122.35483574294413L124.683039147413,90.41737473534774L124.75595432751047,84.51102707688274L124.80456444757544,101.54367577982035L124.85317456764044,94.17434745396156L125.55802130858272,89.49963471311443L126.23856298949251,107.72114097510843L126.43300346975246,103.88917050524468L126.53022370988243,89.88765316304804L126.70035913010987,99.90630535913166L126.72466419014238,104.5084597738084L126.74896925017487,101.88298898499244L126.99201985049979,96.63584391874701L127.6239514113446,89.52287169399126L127.74547671150707,88.63238995745868L128.13435767202694,85.01110089249937L128.49893357251435,82.24314436712798L128.52323863254685,88.43258189437624L128.6933740527743,91.34491408631341L128.83920441296922,94.33457522070275L128.9121195930667,94.1559310434637L129.13086513335915,106.80949535273245L129.2280853734891,95.89823837098564L129.39822079371658,100.23792563333629L129.42252585374905,90.31829078356874L129.568356213944,94.66353127639049L129.71418657413898,107.5878551181191L129.76279669420396,118.70491465461131L129.83571187430144,127.48778158016874L130.6863889754387,103.55169727598582L130.9780496958286,101.13430195333743L131.43984583644595,106.11503349357864L131.99886221719328,89.02284783247183L132.48496341784315,88.8333053363622L133.06828485862297,104.92366990397984L133.45716581914283,83.62404212715354L133.65160629940277,87.78558475323706L133.87035183969522,99.93363857597818L133.9432670197927,107.63805898579638L133.99187713985768,87.99174531234566L134.01618219989018,91.60115362785632L135.2314352015148,92.20049456027498L135.3043503816123,113.71196101192396L135.47448580183973,89.19450676178694L135.76614652222966,87.88447721431015L135.81475664229464,94.46687032143112L135.83906170232711,116.37650423042642L136.00919712255458,108.46540706916198L136.44668820313944,85.51624504898092L137.12722988404926,99.35652721680967L137.6133310846991,96.32955037181841L137.66194120476408,93.36499949695057L137.80777156495904,116.24133676910955L138.43970312580385,93.95708875959363L138.5612284259663,130.5673642523439L138.97441444651867,88.61219185082766L139.41190552710356,94.57862596253098L139.6063460073635,93.16325154976053L140.35980286837076,81.47861356098048L141.01603948924807,106.4461625524942L141.5750558699954,102.3394611994439L142.27990261093768,102.67986506907133L142.5472582712951,93.08838700943646L142.936139231815,104.07320972498039L143.2521050122374,92.56978854944472L143.2764100722699,106.30303573835819L143.76251127291974,104.13112317499086L144.73471367421945,100.89632896000082L145.2694249949343,102.5675016531223L145.39095029509676,99.56419472451687L146.290237516299,92.50457347556144L146.46037293652643,108.83689071292527L146.5575931766564,108.8243189317988L146.70342353685135,105.38246498395071L146.8492538970463,82.86805347162574L147.04369437730625,82.36002030318996L147.09230449737123,92.52470497672955L147.67562593815106,102.02379293360904L147.870066418411,94.4150429455951L148.2832524389634,125.2595582607425L148.45338785919083,101.06773811883L148.74504857958075,94.35339958966101L148.79365869964573,94.11416109252889L148.9394890598407,113.00334549189927L149.2311497802306,112.65701373607182L149.35267508039306,96.07888071211232L149.59572568071798,112.49860929387812L149.83877628104293,92.0638701044567L150.4950129019202,108.23748317504369L150.54362302198518,105.31844880840002L150.64084326211517,99.97833916728155L151.00541916260255,101.96785267043762L152.00192662393476,95.58719918482383L152.07484180403222,111.33601093857865L152.5123328846171,102.86414573361012L152.94982396520197,102.90776398614102L153.36300998575436,88.44686876617297L153.43592516585184,101.86617943128755L153.5574504660143,100.89698668894718L153.67897576617673,123.04494326995945L154.11646684676163,122.89187559048234L154.1407719067941,101.38481342506907L154.55395792734652,85.04904102931617L154.62687310744397,97.13354491474706L154.7970085276714,139.77146077678432L155.45324514854872,145.9222629726965L155.50185526861372,107.86190329531071L155.67199068884113,116.99987308359411L156.10948176942603,131.63675242512576L156.32822730971844,106.79540829732449L156.54697285001092,106.13066912599952L156.7900234503358,103.98383351942223L157.05737911069323,94.83951956079554L157.1789044108557,102.52775484312373L157.61639549144058,93.47171809991697L157.73792079160305,115.09160159383686L157.78653091166802,92.63114050647853L157.883751151798,97.49265659377264L158.10249669209043,101.88573646033795L158.5399877726753,97.28224993640278L159.02608897332516,102.2219691628499L159.14761427348762,102.39784088769483L159.36635981378004,89.08608139383317L159.512190173975,112.70318797324234L159.63371547413746,95.53098417411788L159.70663065423494,100.00604703985701L160.24134197494976,117.54947638657595L160.67883305553465,101.88478733249131L160.7760532956646,133.5355659391481L160.89757859582707,99.09257809293356L161.28645955634695,105.18768563331886L161.33506967641196,119.7965282378019L161.72395063693185,99.48625800721554L161.7725607569968,105.55324139088212L161.9183911171918,124.05996889647284L161.96700123725677,96.9820757663801L162.01561135732175,104.85581558862829L162.30727207771164,111.9287496044852L162.40449231784163,101.0169847560836L162.96350869858895,101.69661857405445L163.18225423888137,98.2814484397894L163.25516941897888,101.37553028867434L163.64405037949874,115.5810934665318L163.9114060398562,99.91683734795616L163.96001615992114,105.58526196718176L164.1058465201161,96.78769604852579L164.4218123005385,108.00356478926244L164.5190325406685,104.7680295884974L164.8349983210909,109.11531819930399L165.78289566235813,105.43243573250777L166.34191204310545,115.71307219131128L166.43913228323544,109.6182227470948L166.4634373432679,100.7795612578161L166.63357276349538,105.20272181657344L167.04675878404774,101.00763501422597L167.31411444440516,141.37964135334752L167.5814701047626,121.2296446807581L167.75160552499,123.7465735420602L167.897435885185,86.88458767924571L168.4807573259648,92.7200088453819L169.81753562775188,148.8261362708426L169.91475586788187,108.32023213704112L170.23072164830427,101.73196109781732L170.59529754879165,112.57827775321542L170.7897380290516,116.01855814700197L170.81404308908412,121.84214851778668L170.91126332921408,112.39587869300415L171.154313929539,106.00038884052454L171.39736452986392,131.70410719950542L171.42166958989642,136.37647209778456L171.4459746499289,108.18384912602595L171.61611007015637,112.53867247982556L172.1022112708062,115.74426852500727L172.68553271158603,112.8834057045429L172.85566813181347,100.15864848109365L172.92858331191096,110.45693538757143L173.17163391223588,108.14084697402707L173.39037945252832,113.773546088078L173.46329463262578,113.97918212916609L173.70634523295072,113.28531971917857L173.82787053311318,101.28595426672743L174.7028526942829,107.14188158976067L174.92159823457536,115.86526567408752L174.97020835464033,117.47928255433925L175.0674285947703,102.67966525268257L175.21325895496528,102.16606220240995L175.28617413506277,130.0549143091481L175.45630955529018,145.28084820191845L175.65075003555012,110.92235771110302L175.7236652156476,121.81757942765142L175.91810569590754,99.39674859073153L176.01532593603753,115.22417144209977L176.67156255691484,110.4322164351446L176.7687827970448,121.16756838931502L177.03613845740222,124.90881389299645L177.30349411775964,117.54667895713322L177.59515483814957,96.45695829670488L178.59166229948175,98.65746125503138L178.93193313993666,105.57223227349769L179.27220398039157,104.33242153530617L179.4666444606515,114.31071914654206L179.8069153011064,119.93246998762521L179.83122036113886,108.94726429066951L180.4631519219837,113.46806013238731L180.8034227624386,115.16189533426792L181.4110492632509,106.99896291769629L182.1158960041932,125.67801540723136L182.18881118429067,108.03808307042165L182.77213262507047,105.3694186389009L182.82074274513548,107.889436328546L183.25823382572034,104.08311728759L183.3554540658503,134.00925566576487L183.96308056666265,146.62813934305854L184.1332159868901,112.40555313649354L184.4491817673125,105.59990684334169L184.59501212750746,103.12016048171567L185.22694368835224,111.37553295513986L185.59151958883965,125.486849402963L185.7859600690996,94.38169858571989L185.81026512913206,109.47037527077421L186.32067138981444,133.7350950918546L186.41789162994442,130.21112909674827L186.7581624703993,124.45026025782867L187.0498231907892,105.95734506011135L187.0741282508217,125.53551301931023L187.24426367104914,119.91989820649874L187.58453451150405,98.95244852462902L187.73036487169898,119.16365978048498L187.94911041199146,111.17037980365795L188.16785595228387,129.8453443829062L188.21646607234888,117.79502575131991L188.24077113238135,113.34950240838657L188.70256727299872,108.75327587990986L188.77548245309617,112.13018117572636L188.99422799338862,110.96545977129627L189.89351521459085,132.4863425702658L190.28239617511073,108.96466496785783L190.54975183546816,103.76280329071635L190.98724291605302,125.81876940175079L191.23029351637794,110.7836851372999L191.25459857641044,98.29382873021L191.40042893660538,103.815454909156L191.57056435683285,121.77252083198485L191.66778459696283,94.33012098036986L191.6920896569953,109.48362143221279L191.71639471702778,131.68588227971344L192.25110603774263,105.8345495635322L192.27541109777513,127.98474991607665L192.3726313379051,100.67038657840445L192.4212414579701,118.76840631214148L192.63998699826251,99.47761594840144L192.7372072383925,120.66996730150936L193.4420539793348,145.62545654139282L193.66079951962723,109.13525820976619L193.73371469972471,111.77580681025108L193.90385011995212,124.52221080914993L194.14690072027707,111.4489654780111L194.17120578030955,124.59049806001048L194.21981590037456,106.00245360987512L194.34134120053702,103.49216864349948L194.58439180086197,119.73822348069675L195.0218828814468,126.49136801770052L195.16771324164176,108.7715091253847L195.19201830167427,123.40340554572153L195.3864587819342,142.32134685370838L195.84825492255158,105.73520751558439L196.26144094310393,169.1352346615657L197.4523888846961,108.04072231188992L197.76835466511847,118.9449274402499L197.84126984521598,115.88905215003345L198.59472670622324,102.3662698982699L198.61903176625572,107.59777100641158L199.03221778680808,107.02891039896248L199.27526838713302,119.81591875319499L199.3481835672305,109.12160408986723L199.39679368729549,122.86903824238306L199.6641493476529,102.21343533791305L199.80997970784787,110.33886055317687L199.9801151280753,109.86786002212558L200.3933011486277,123.15237788165226L200.41760620866017,128.69662077810165L200.51482644879016,112.95466522418633L200.58774162888764,126.91972440111614L200.63635174895262,119.7320624753765L200.97662258940753,100.04480309359462L201.07384282953748,132.00408571598075L201.3411984898949,109.59788310385507L201.41411366999236,107.83176432333862L201.90021487064226,137.85747786858153L202.0946553509022,130.33347500645266L202.3377059512271,109.54846185036712L202.62936667161702,169.16483246415154L203.18838305236434,133.29119882137104L203.3099083525268,109.82679775423432L203.7230943730792,110.1590008262395L204.79251701450886,107.68355051697195L204.81682207454136,115.03890834698288L204.91404231467132,117.00978064620372L205.5945839955811,109.9473120137084L206.6397015769783,107.19643146389359L206.83414205723824,100.5045056729978L207.02858253749818,113.09255518380012L207.05288759753068,129.631066283004L207.75773433847297,110.64353891762963L207.85495457860293,123.03390341448016L208.12231023896035,116.3227203191171L208.41397095935028,111.71168240082316L208.48688613944776,113.06286579870275L208.5354962595127,108.34790670688511L208.6327164996427,134.30148713433414L208.82715697990264,94.81050455601024L210.28546058185222,113.16070922373481L210.45559600207963,126.23774690341872L210.86878202263205,113.90049610040688L211.03891744285949,138.36674323808137L211.59793382360684,111.06316165971964L211.6951540637368,129.45517374395192L212.03542490419167,114.39256893479003L212.44861092474403,125.1975735518109L212.59444128493902,125.05409705899456L212.9104070653614,113.26143333503826L213.39650826601127,124.29896594880188L213.6152538063037,106.41037876753948L214.0041347668236,110.60968669109964L214.27149042718102,131.78948707728824L214.49023596747344,124.3355156965802L214.6603713877009,133.67100814799954L215.14647258835075,114.65279647842539L215.19508270841573,125.15072493432831L215.2679978885132,117.95004164058744L215.3166080085782,131.62639527564144L215.46243836877315,132.30640791218266L215.75409908916305,122.00894524830852L215.948539569423,127.5678788121736L216.02145474952047,114.68917138686353L216.14298004968293,127.02307110252212L216.3131154699104,111.30172577653967L216.36172558997538,102.8474444137825L217.6012836516325,119.01176602229188L217.8686393119899,117.59508447731162L218.06307979224988,153.63996700952617L218.45196075276976,109.26294088218722L218.54918099289972,113.54685439502376L218.57348605293222,119.59485522175765L218.62209617299717,125.40770546164623L218.9623670134521,122.60046836451676L219.05958725358207,101.91128798105132L219.27833279387448,114.54767640656911L219.30263785390702,113.03135308905787L219.42416315406948,122.47554149312411L219.52138339419943,114.74244743151809L219.5456884542319,103.64239726511953L214.87911692799332,161.1195939819834L214.9763371681233,119.31522051136346L215.2679978885132,118.65614280438685L215.43813330874067,106.18635129300212L215.5596586089031,116.49871692920499L215.899929449358,112.86085975534388L216.11867498965046,120.55633005608195L216.48325089013784,114.87890537367906L216.75060655049526,123.7614848400718L216.9207419707227,140.39483379279343L216.9450470307552,112.45807986969022L217.16379257104762,124.10342063534644L218.08738485228236,117.38675924065807L218.16030003237987,119.57877832814489L218.20891015244482,103.01833738027402L218.2818253325423,104.93302797152035L218.3061303925748,140.5803091928234L218.40335063270476,126.95808082207621L219.18111255374453,106.09740802295296L219.52138339419943,121.40088732592997L220.32345037527168,108.36774680915293L220.42067061540163,140.41084408094326L220.85816169598652,118.61497230261833L220.97968699614898,127.04666608776216L221.34426289663637,131.09735224649526L221.41717807673388,132.33597241203705L221.49009325683136,119.24974734131138L221.9275843374162,110.78462593946367L222.19493999777362,114.05909203330648L222.53521083822852,119.78066781194364L222.77826143855344,113.79850648530794L222.85117661865092,128.37500381185959L222.9483968587809,119.62292942437917L223.36158287933327,106.55462122317944L223.41019299939828,111.82848340573935L223.48310817949576,136.31850453083547L223.99351444017807,127.54286429800504L224.04212456024305,124.15737938599594L224.16364986040554,122.86956276040354L224.43100552076294,143.01654553579576L224.6254460010229,106.99815532645836L224.72266624115287,118.73343011842469L225.13585226170525,133.9133646133647L225.5733433422901,139.74939771719147L225.71917370248505,118.00320945136475L225.8406990026475,133.09427144455995L225.96222430281,116.46596369281322L226.03513948290745,112.61595979386341L226.39971538339486,110.93562884959017L226.42402044342734,112.46656374052988L227.08025706430465,119.8422279110491L227.2746975445646,146.5677156996642L227.5177481448895,115.47648126133029L227.78510380524693,140.2819708358725L228.29551006592928,128.03982430823007L228.70869608648164,121.43851108679792L228.73300114651417,108.91165534505495L229.48645800752143,115.25983866749439L229.5107630675539,138.6384976896436L229.65659342774887,108.87816944857104L230.9204565494385,124.45734541394698L230.96906666950346,119.69414731560826L231.2121172698284,115.62573577805512L231.38225269005588,130.91684311629442L232.03848931093313,143.5869463945749L232.5488955716155,118.28617443490502L232.79194617194042,136.9008943729405L233.18082713246034,122.81090832461808L233.2294372525253,124.97722602909997L233.2780473725903,127.20871717905084L233.39957267275275,129.94479050188983L234.17733459379252,121.42133520304697L234.29885989395495,123.98554561734065L234.5662155543124,122.19912882199877L234.59052061434488,130.46898382076702L234.68774085447484,114.78023770604332L235.73285843587203,122.35669237022307L235.8057736159695,107.12051788752851L236.26756975658688,113.50914737732718L236.41340011678184,111.30446492620234L236.43770517681435,108.70367978708174L237.06963673765912,111.18330958914764L237.2397721578866,145.29979329327827L237.40990757811403,107.35337891158588L238.74668587990115,134.84041691188276L238.77099093993363,104.74276114100145L238.98973648022607,140.38207884664394L239.1598719004535,114.61271664111223L239.232787080551,128.24130167072698L239.40292250077843,121.39745714458951L239.47583768087594,127.82170806852702L239.9376338214933,119.7816835452532L240.01054900159076,120.2174664377846L240.27790466194818,108.50932504627602L240.5452603223056,156.31006762134115L240.78831092263053,117.5153494125114L240.8369210426955,140.852721373332L240.86122610272798,132.86482811331877L240.93414128282546,157.51409041173653L241.5174627236053,126.34424071294777L241.63898802376775,115.65257777961259L241.66329308380026,130.70960438125476L241.76051332393024,173.11217608432008L242.2223094645476,125.03364918187759L242.46536006487253,112.61063135682966L242.65980054513244,109.41620005237021L242.95146126552237,130.3437405734255L243.89935860678958,126.02920103616924L244.11810414708202,140.432790580976L244.14240920711453,130.29145944787334L244.28823956730946,117.34333247883308L244.33684968737447,114.83164879773607L244.55559522766688,119.70404655253502L245.40627232880414,135.0832188012812L246.08681400971392,115.48164318470674L246.1597291898114,114.59494130819496L246.23264436990888,118.45112286383078L246.45138991020133,112.32007335051632L247.1319315911111,116.15142771984804L247.71525303189094,134.3220099425969L247.95830363221586,128.2195882898145L249.29508193400295,114.08727446980527L249.44091229419794,117.04904456659611L249.5381325343279,111.52333047736326L249.61104771442535,115.11765265552214L249.87840337478278,111.7104751768077L250.31589445536767,140.28232884023572L250.43741975553013,126.94146692191867L251.16657155650492,120.7123283759276L251.28809685666735,118.44543642243383L251.31240191669986,122.84579293582334L251.36101203676486,126.64906893969211L251.65267275715476,122.94686672580713L251.70128287721974,120.20003245786484L251.99294359760964,129.41647596999437L252.2359941979346,128.01419369352948L252.55195997835696,103.68446694063749L252.67348527851945,120.07326561055898L252.69779033855195,104.17996163067825L253.06236623903933,127.70945704929667L253.20819659923427,121.13191781528616L253.45124719955922,123.03989790614311L254.03456864033905,146.78616080384043L254.4477546608914,106.87876503417108L254.64219514115135,104.70328907853744L254.98246598160625,134.2344404102205L255.73592284261352,151.18509362546L255.906058262841,116.79273009390741L255.97897344293844,101.96598771747581L256.1734139231984,127.31399127604011L256.56229488371827,98.82310904131782L256.6595151238482,120.43181946883259L256.7810404240107,139.97327532943729L256.82965054407566,118.67050460732935L256.87826066414067,105.67902580760988L256.95117584423815,110.28689996641502L257.7775478853429,112.51583513172625L257.94768330557037,109.90868917089664L258.1178187257978,130.61336365017425L258.33656426609025,126.76393838618357L258.8226654667401,127.00954186786615L259.5032071476499,123.18396552244289L259.55181726771485,115.3319141040586L259.5761223277474,108.51630196851708L259.6247324478124,134.2256318377491L259.7705628080073,121.81975243087925L259.86778304813726,129.20995740652256L259.98930834829974,125.42139288427666L260.1351387084947,118.36478553251843L260.25666400865714,122.67380097919362L260.4511044889171,127.26623099628378L260.9615107495995,116.3480220693445L261.30178159005436,112.50609408277394L261.56913725041176,110.38698300013785L261.8121878507367,120.07604638863596L261.9094080908667,133.05823788911928L261.93371315089917,154.97141853901516L262.6142548318089,106.94084965129704L262.83300037210137,146.56617544833415L263.02744085236134,112.34937975420189L263.3920167528487,115.80113293897672L263.4163218128812,120.0805339317003L263.70798253327115,120.49113163356441L264.4614393942784,123.37625549389804L264.68018493457083,114.91068450517561L264.8260152947658,119.0359188282839L264.97184565496076,125.49646556667236L265.04476083505824,117.19659231833356L265.0690658950907,115.80741050385711L265.19059119525315,125.93002550187873L265.4093367355456,117.70997890085167L265.60377721580556,108.26406708043234L265.773912636033,119.08786276368002L265.7982176960655,122.95699075617125L265.8468278161305,146.69611021797022L266.0898784164554,112.03143857694484L266.1627935965529,112.02852458794202L266.2114037166179,124.96027493878638L266.81903021743017,151.99891663701106L266.94055551759266,108.50700218075663L267.0863858777876,133.81577928450145L267.1836061179176,115.1010012897917L268.08289333911983,121.93719451337606L268.22872369931474,124.17318153207412L268.27733381937975,122.85968017484254L268.3016388794122,125.83678617947112L268.3259439394447,139.8786997349298L268.4717742996397,133.58157366266136L268.8606552601596,119.35321060227747L269.0064856203545,112.37803675462399L269.03079068038704,129.00967894235825L269.7113323612968,105.19733509975966L269.73563742132933,129.30942017687192L269.9543829616217,116.717515874903L270.0759082617842,138.73226569291316L270.3432639221416,125.45710173808558L270.56200946243405,114.52946813814287L270.9022803028889,125.22303349001277L271.1696359632464,118.83027446151294L271.82587258412366,126.42834259841081L271.89878776422114,131.48950023513004L272.0932282444811,143.24560172278373L272.7008547452934,106.1490355824002L272.7980749854234,136.2470743346933L273.0168205257158,146.38789760114116L273.3570913661707,104.45092097952687L273.5029217263657,116.66705391105691L273.55153184643063,124.20009846477737L274.3779038875354,128.6632098127635L274.5237342477304,118.47959669922983L274.59664942782786,121.57119749462095L274.66956460792534,104.07819680901666L274.7181747279903,117.24006070857288L274.7424797880228,106.70006257715198L274.98553038834774,115.21123333092723L275.1070556885102,133.878629864451L275.4473265289651,145.01980890420376L275.6660720692575,115.06203709398247L275.9577327896474,111.88933582180125L276.0549530297774,112.71747484503905L276.6625795305897,120.53124477360905L277.1243756712071,126.51891770230154L277.3431212114995,120.06092694855272L277.7806122920844,108.7340185754426L278.21810337266925,117.40107941518625L272.14183836454606,117.20490134983305L272.7008547452934,141.20092640780413L272.7494648653584,121.91539787563491L272.77376992539087,94.57508754731325L273.1383458258783,131.2314040663082" style="fill: none;" fill="none"></path></g></g></g></g></g></g><g transform="translate(29, 177)" clip-path="url(#clip_1)"><clipPath id="clip_1"><rect width="300" height="23"></rect></clipPath><g><g><line x1="13.876270459278857" y1="0" x2="13.876270459278857" y2="5" style="visibility: inherit;" fill="rgb(0, 0, 0)" stroke="rgb(204, 204, 204)" stroke-width="1px"></line><line x1="38.18133049177153" y1="0" x2="38.18133049177153" y2="5" style="visibility: inherit;" fill="rgb(0, 0, 0)" stroke="rgb(204, 204, 204)" stroke-width="1px"></line><line x1="62.486390524264216" y1="0" x2="62.486390524264216" y2="5" style="visibility: inherit;" fill="rgb(0, 0, 0)" stroke="rgb(204, 204, 204)" stroke-width="1px"></line><line x1="86.7914505567569" y1="0" x2="86.7914505567569" y2="5" style="visibility: inherit;" fill="rgb(0, 0, 0)" stroke="rgb(204, 204, 204)" stroke-width="1px"></line><line x1="111.09651058924958" y1="0" x2="111.09651058924958" y2="5" style="visibility: inherit;" fill="rgb(0, 0, 0)" stroke="rgb(204, 204, 204)" stroke-width="1px"></line><line x1="135.40157062174225" y1="0" x2="135.40157062174225" y2="5" style="visibility: inherit;" fill="rgb(0, 0, 0)" stroke="rgb(204, 204, 204)" stroke-width="1px"></line><line x1="159.70663065423494" y1="0" x2="159.70663065423494" y2="5" style="visibility: inherit;" fill="rgb(0, 0, 0)" stroke="rgb(204, 204, 204)" stroke-width="1px"></line><line x1="184.0116906867276" y1="0" x2="184.0116906867276" y2="5" style="visibility: inherit;" fill="rgb(0, 0, 0)" stroke="rgb(204, 204, 204)" stroke-width="1px"></line><line x1="208.3167507192203" y1="0" x2="208.3167507192203" y2="5" style="visibility: inherit;" fill="rgb(0, 0, 0)" stroke="rgb(204, 204, 204)" stroke-width="1px"></line><line x1="232.62181075171299" y1="0" x2="232.62181075171299" y2="5" style="visibility: inherit;" fill="rgb(0, 0, 0)" stroke="rgb(204, 204, 204)" stroke-width="1px"></line><line x1="256.9268707842057" y1="0" x2="256.9268707842057" y2="5" style="visibility: inherit;" fill="rgb(0, 0, 0)" stroke="rgb(204, 204, 204)" stroke-width="1px"></line><line x1="281.23193081669837" y1="0" x2="281.23193081669837" y2="5" style="visibility: inherit;" fill="rgb(0, 0, 0)" stroke="rgb(204, 204, 204)" stroke-width="1px"></line></g><g transform="translate(0, 8)"><text x="13.876270459278857" y="0" dx="0em" dy="0.95em" style="text-anchor: middle; visibility: inherit; font-family: &quot;Helvetica Neue&quot;, sans-serif; font-size: 12px; font-weight: 200;" fill="rgb(50, 49, 63)" stroke="none" stroke-width="1px">0</text><text x="38.18133049177153" y="0" dx="0em" dy="0.95em" style="text-anchor: middle; visibility: inherit; font-family: &quot;Helvetica Neue&quot;, sans-serif; font-size: 12px; font-weight: 200;" fill="rgb(50, 49, 63)" stroke="none" stroke-width="1px">1k</text><text x="62.486390524264216" y="0" dx="0em" dy="0.95em" style="text-anchor: middle; visibility: inherit; font-family: &quot;Helvetica Neue&quot;, sans-serif; font-size: 12px; font-weight: 200;" fill="rgb(50, 49, 63)" stroke="none" stroke-width="1px">2k</text><text x="86.7914505567569" y="0" dx="0em" dy="0.95em" style="text-anchor: middle; visibility: inherit; font-family: &quot;Helvetica Neue&quot;, sans-serif; font-size: 12px; font-weight: 200;" fill="rgb(50, 49, 63)" stroke="none" stroke-width="1px">3k</text><text x="111.09651058924958" y="0" dx="0em" dy="0.95em" style="text-anchor: middle; visibility: inherit; font-family: &quot;Helvetica Neue&quot;, sans-serif; font-size: 12px; font-weight: 200;" fill="rgb(50, 49, 63)" stroke="none" stroke-width="1px">4k</text><text x="135.40157062174225" y="0" dx="0em" dy="0.95em" style="text-anchor: middle; visibility: inherit; font-family: &quot;Helvetica Neue&quot;, sans-serif; font-size: 12px; font-weight: 200;" fill="rgb(50, 49, 63)" stroke="none" stroke-width="1px">5k</text><text x="159.70663065423494" y="0" dx="0em" dy="0.95em" style="text-anchor: middle; visibility: inherit; font-family: &quot;Helvetica Neue&quot;, sans-serif; font-size: 12px; font-weight: 200;" fill="rgb(50, 49, 63)" stroke="none" stroke-width="1px">6k</text><text x="184.0116906867276" y="0" dx="0em" dy="0.95em" style="text-anchor: middle; visibility: inherit; font-family: &quot;Helvetica Neue&quot;, sans-serif; font-size: 12px; font-weight: 200;" fill="rgb(50, 49, 63)" stroke="none" stroke-width="1px">7k</text><text x="208.3167507192203" y="0" dx="0em" dy="0.95em" style="text-anchor: middle; visibility: inherit; font-family: &quot;Helvetica Neue&quot;, sans-serif; font-size: 12px; font-weight: 200;" fill="rgb(50, 49, 63)" stroke="none" stroke-width="1px">8k</text><text x="232.62181075171299" y="0" dx="0em" dy="0.95em" style="text-anchor: middle; visibility: inherit; font-family: &quot;Helvetica Neue&quot;, sans-serif; font-size: 12px; font-weight: 200;" fill="rgb(50, 49, 63)" stroke="none" stroke-width="1px">9k</text><text x="256.9268707842057" y="0" dx="0em" dy="0.95em" style="text-anchor: middle; visibility: inherit; font-family: &quot;Helvetica Neue&quot;, sans-serif; font-size: 12px; font-weight: 200;" fill="rgb(50, 49, 63)" stroke="none" stroke-width="1px">10k</text><text x="281.23193081669837" y="0" dx="0em" dy="0.95em" style="text-anchor: middle; visibility: inherit; font-family: &quot;Helvetica Neue&quot;, sans-serif; font-size: 12px; font-weight: 200;" fill="rgb(50, 49, 63)" stroke="none" stroke-width="1px">11k</text></g><line x1="0" y1="0" x2="300.5625" y2="0" fill="rgb(0, 0, 0)" stroke="rgb(204, 204, 204)" stroke-width="1px"></line></g></g></g></g></svg>