<svg viewBox="0 0 330 200" xmlns="http://www.w3.org/2000/svg"><g><g><g><g><g><line x1="29.40625" y1="177" x2="24.40625" y2="177" style="visibility: inherit;" fill="rgb(0, 0, 0)" stroke="rgb(204, 204, 204)" stroke-width="1px"></line><line x1="29.40625" y1="154.875" x2="24.40625" y2="154.875" style="visibility: inherit;" fill="rgb(0, 0, 0)" stroke="rgb(204, 204, 204)" stroke-width="1px"></line><line x1="29.40625" y1="132.75" x2="24.40625" y2="132.75" style="visibility: inherit;" fill="rgb(0, 0, 0)" stroke="rgb(204, 204, 204)" stroke-width="1px"></line><line x1="29.40625" y1="110.625" x2="24.40625" y2="110.625" style="visibility: inherit;" fill="rgb(0, 0, 0)" stroke="rgb(204, 204, 204)" stroke-width="1px"></line><line x1="29.40625" y1="88.5" x2="24.40625" y2="88.5" style="visibility: inherit;" fill="rgb(0, 0, 0)" stroke="rgb(204, 204, 204)" stroke-width="1px"></line><line x1="29.40625" y1="66.375" x2="24.40625" y2="66.375" style="visibility: inherit;" fill="rgb(0, 0, 0)" stroke="rgb(204, 204, 204)" stroke-width="1px"></line><line x1="29.40625" y1="44.25" x2="24.40625" y2="44.25" style="visibility: inherit;" fill="rgb(0, 0, 0)" stroke="rgb(204, 204, 204)" stroke-width="1px"></line><line x1="29.40625" y1="22.125" x2="24.40625" y2="22.125" style="visibility: inherit;" fill="rgb(0, 0, 0)" stroke="rgb(204, 204, 204)" stroke-width="1px"></line><line x1="29.40625" y1="0" x2="24.40625" y2="0" style="visibility: inherit;" fill="rgb(0, 0, 0)" stroke="rgb(204, 204, 204)" stroke-width="1px"></line></g><g transform="translate(19.40625, 0)"><text x="0" y="177" dx="0em" dy="0.3em" style="text-anchor: end; visibility: hidden; font-family: &quot;Helvetica Neue&quot;, sans-serif; font-size: 12px; font-weight: 200;" fill="rgb(50, 49, 63)" stroke="none" stroke-width="1px">-1</text><text x="0" y="154.875" dx="0em" dy="0.3em" style="text-anchor: end; visibility: inherit; font-family: &quot;Helvetica Neue&quot;, sans-serif; font-size: 12px; font-weight: 200;" fill="rgb(50, 49, 63)" stroke="none" stroke-width="1px">0</text><text x="0" y="132.75" dx="0em" dy="0.3em" style="text-anchor: end; visibility: hidden; font-family: &quot;Helvetica Neue&quot;, sans-serif; font-size: 12px; font-weight: 200;" fill="rgb(50, 49, 63)" stroke="none" stroke-width="1px">1</text><text x="0" y="110.625" dx="0em" dy="0.3em" style="text-anchor: end; visibility: inherit; font-family: &quot;Helvetica Neue&quot;, sans-serif; font-size: 12px; font-weight: 200;" fill="rgb(50, 49, 63)" stroke="none" stroke-width="1px">2</text><text x="0" y="88.5" dx="0em" dy="0.3em" style="text-anchor: end; visibility: hidden; font-family: &quot;Helvetica Neue&quot;, sans-serif; font-size: 12px; font-weight: 200;" fill="rgb(50, 49, 63)" stroke="none" stroke-width="1px">3</text><text x="0" y="66.375" dx="0em" dy="0.3em" style="text-anchor: end; visibility: inherit; font-family: &quot;Helvetica Neue&quot;, sans-serif; font-size: 12px; font-weight: 200;" fill="rgb(50, 49, 63)" stroke="none" stroke-width="1px">4</text><text x="0" y="44.25" dx="0em" dy="0.3em" style="text-anchor: end; visibility: hidden; font-family: &quot;Helvetica Neue&quot;, sans-serif; font-size: 12px; font-weight: 200;" fill="rgb(50, 49, 63)" stroke="none" stroke-width="1px">5</text><text x="0" y="22.125" dx="0em" dy="0.3em" style="text-anchor: end; visibility: inherit; font-family: &quot;Helvetica Neue&quot;, sans-serif; font-size: 12px; font-weight: 200;" fill="rgb(50, 49, 63)" stroke="none" stroke-width="1px">6</text><text x="0" y="0" dx="0em" dy="0.3em" style="text-anchor: end; visibility: hidden; font-family: &quot;Helvetica Neue&quot;, sans-serif; font-size: 12px; font-weight: 200;" fill="rgb(50, 49, 63)" stroke="none" stroke-width="1px">7</text></g><line x1="29.40625" y1="0" x2="29.40625" y2="177" fill="rgb(0, 0, 0)" stroke="rgb(204, 204, 204)" stroke-width="1px"></line></g></g><g transform="translate(29, 0)" clip-path="url(#clip_0)"><clipPath id="clip_0"><rect width="300" height="177"></rect></clipPath><g><g><g><line x1="0" y1="0" x2="0" y2="177" fill="rgb(0, 0, 0)" stroke="rgb(60, 60, 60)" stroke-width="1px" opacity="0.25"></line><line x1="30.059375000000003" y1="0" x2="30.059375000000003" y2="177" fill="rgb(0, 0, 0)" stroke="rgb(60, 60, 60)" stroke-width="1px" opacity="0.25"></line><line x1="60.118750000000006" y1="0" x2="60.118750000000006" y2="177" fill="rgb(0, 0, 0)" stroke="rgb(60, 60, 60)" stroke-width="1px" opacity="0.25"></line><line x1="90.178125" y1="0" x2="90.178125" y2="177" fill="rgb(0, 0, 0)" stroke="rgb(60, 60, 60)" stroke-width="1px" opacity="0.25"></line><line x1="120.23750000000001" y1="0" x2="120.23750000000001" y2="177" fill="rgb(0, 0, 0)" stroke="rgb(60, 60, 60)" stroke-width="1px" opacity="0.25"></line><line x1="150.296875" y1="0" x2="150.296875" y2="177" fill="rgb(0, 0, 0)" stroke="rgb(60, 60, 60)" stroke-width="1px" opacity="0.25"></line><line x1="180.35625" y1="0" x2="180.35625" y2="177" fill="rgb(0, 0, 0)" stroke="rgb(60, 60, 60)" stroke-width="1px" opacity="0.25"></line><line x1="210.41562499999998" y1="0" x2="210.41562499999998" y2="177" fill="rgb(0, 0, 0)" stroke="rgb(60, 60, 60)" stroke-width="1px" opacity="0.25"></line><line x1="240.47500000000002" y1="0" x2="240.47500000000002" y2="177" fill="rgb(0, 0, 0)" stroke="rgb(60, 60, 60)" stroke-width="1px" opacity="0.25"></line><line x1="270.534375" y1="0" x2="270.534375" y2="177" fill="rgb(0, 0, 0)" stroke="rgb(60, 60, 60)" stroke-width="1px" opacity="0.25"></line><line x1="300.59375" y1="0" x2="300.59375" y2="177" fill="rgb(0, 0, 0)" stroke="rgb(60, 60, 60)" stroke-width="1px" opacity="0.25"></line></g><g><line x1="0" y1="177" x2="300.59375" y2="177" fill="rgb(0, 0, 0)" stroke="rgb(60, 60, 60)" stroke-width="1px" opacity="0.25"></line><line x1="0" y1="154.875" x2="300.59375" y2="154.875" fill="rgb(0, 0, 0)" stroke="rgb(60, 60, 60)" stroke-width="1px" opacity="0.25"></line><line x1="0" y1="132.75" x2="300.59375" y2="132.75" fill="rgb(0, 0, 0)" stroke="rgb(60, 60, 60)" stroke-width="1px" opacity="0.25"></line><line x1="0" y1="110.625" x2="300.59375" y2="110.625" fill="rgb(0, 0, 0)" stroke="rgb(60, 60, 60)" stroke-width="1px" opacity="0.25"></line><line x1="0" y1="88.5" x2="300.59375" y2="88.5" fill="rgb(0, 0, 0)" stroke="rgb(60, 60, 60)" stroke-width="1px" opacity="0.25"></line><line x1="0" y1="66.375" x2="300.59375" y2="66.375" fill="rgb(0, 0, 0)" stroke="rgb(60, 60, 60)" stroke-width="1px" opacity="0.25"></line><line x1="0" y1="44.25" x2="300.59375" y2="44.25" fill="rgb(0, 0, 0)" stroke="rgb(60, 60, 60)" stroke-width="1px" opacity="0.25"></line><line x1="0" y1="22.125" x2="300.59375" y2="22.125" fill="rgb(0, 0, 0)" stroke="rgb(60, 60, 60)" stroke-width="1px" opacity="0.25"></line><line x1="0" y1="0" x2="300.59375" y2="0" fill="rgb(0, 0, 0)" stroke="rgb(60, 60, 60)" stroke-width="1px" opacity="0.25"></line></g></g></g><g><g><line x1="0" y1="154.875" x2="300.59375" y2="154.875" fill="rgb(0, 0, 0)" stroke="rgb(153, 153, 153)" stroke-width="1.5px"></line></g></g><g><g><line x1="30.059375000000003" y1="0" x2="30.059375000000003" y2="177" fill="rgb(0, 0, 0)" stroke="rgb(153, 153, 153)" stroke-width="1.5px"></line></g></g><g><g><g><g><g><path stroke="rgb(0, 153, 136)" stroke-width="2px" d="M36.888864999999996,-3.9390512108802795L38.596237499999994,2.577824056148529L40.30361,8.17650979757309L42.0109825,13.13585364818573L43.718355,17.56559693813324L45.4257275,21.014093220233917L47.1331,24.77196890115738L48.840472500000004,28.147838830947876L50.547845,31.03160297870636L52.2552175,33.879982352256775L53.962590000000006,36.13868933916092L55.669962500000004,38.30800598859787L57.377334999999995,40.19959330558777L59.0847075,41.97307312488556L60.79208,43.899317264556885L62.4994525,45.56482815742493L64.20682500000001,47.4919268488884L65.9141975,48.83420616388321L67.62156999999999,49.99701905250549L69.3289425,51.67323821783066L71.036315,53.0720340013504L72.7436875,54.31625086069107L74.45106,55.68047422170639L76.15843249999999,57.0691841840744L77.865805,58.22206950187683L79.5731775,59.623882591724396L81.28054999999999,61.074531733989716L82.9879225,62.25589156150818L84.695295,63.39596915245056L86.40266749999999,64.58937710523605L88.11004,65.60462683439255L89.8174125,66.56176176667213L91.524785,67.56863477826118L93.2321575,68.0931713283062L94.93953,69.37335848808289L96.6469025,69.93214040994644L98.354275,70.793328166008L100.0616475,71.34344324469566L101.76902000000001,71.89041969180107L103.4763925,72.66621029376984L105.18376500000001,73.27765792608261L106.89113750000001,73.83217763900757L108.59850999999999,74.08366379141808L110.3058825,74.79216107726097L112.01325500000002,75.36866176128387L113.72062749999999,75.84694173932076L115.428,75.89624726772308L117.1353725,76.36702090501785L118.842745,77.10387137532234L120.5501175,77.59597715735435L122.25749,77.64889079332352L123.9648625,78.21237802505493L125.672235,78.4950447678566L127.3796075,78.95872351527214L129.08697999999998,78.95872351527214L130.7943525,79.39811083674431L132.50172500000002,79.80181270837784L134.20909749999998,79.9334189593792L135.91647,79.9334189593792L137.6238425,80.3189325928688L139.331215,80.52863538265228L141.0385875,80.69595873355865L142.74596,81.10151740908623L144.4533325,81.10151740908623L146.160705,81.42226973176003L147.8680775,81.70938330888748L149.57545,81.70938330888748L151.28282249999998,81.91857969760895L152.990195,81.91857969760895L154.6975675,82.23129290342331L156.40494,82.30877754092216L158.1123125,82.55052602291107L159.81968500000002,82.62515160441399L161.52705749999998,82.73717701435089L163.23443,82.75833508372307L164.9418025,82.83186873793602L166.649175,83.06662783026695L168.3565475,83.16903162002563L170.06392000000002,83.40896022319794L171.7712925,83.40896022319794L173.47866499999998,83.41940474510193L175.1860375,83.41940474510193L176.89341,83.47766724228859L178.6007825,83.703537940979L180.308155,83.703537940979L182.0155275,83.703537940979L183.72289999999998,83.98283395171165L185.4302725,83.98283395171165L187.137645,83.98283395171165L188.8450175,84.03305733203888L190.55239,84.03305733203888L192.2597625,84.03305733203888L193.96713499999998,84.03305733203888L195.6745075,84.03305733203888L197.38188,84.03305733203888L199.08925250000001,84.03305733203888L200.796625,84.03939262032509L202.5039975,84.03939262032509L204.21137,84.19175603985786L205.9187425,84.20552381873131L207.626115,84.20552381873131L209.33348750000002,84.20552381873131L211.04086,84.20552381873131L212.74823249999997,84.20552381873131L214.455605,84.20552381873131L216.16297749999998,84.20552381873131L217.87035,84.20552381873131L219.5777225,84.20552381873131L221.285095,84.20552381873131L222.9924675,84.20552381873131L224.69984,84.20552381873131L226.40721249999999,84.20552381873131L228.114585,84.20552381873131L229.8219575,84.20552381873131L231.52933000000002,84.20552381873131L233.2367025,84.20552381873131L234.944075,84.20552381873131L236.6514475,84.20552381873131L238.35882,84.20552381873131L240.0661925,84.20552381873131L241.77356500000002,84.20552381873131L243.4809375,84.20552381873131L245.18831,84.20552381873131L246.8956825,84.20552381873131L248.603055,84.20552381873131L250.3104275,84.20552381873131L252.01780000000002,84.20552381873131L253.7251725,84.20552381873131L255.43254499999998,84.20552381873131L257.13991749999997,84.20552381873131L258.84729,84.20552381873131L260.5546625,84.20552381873131L262.262035,84.20552381873131L263.9694075,84.20552381873131L265.67678,84.20552381873131L267.38415249999997,84.20552381873131L269.091525,84.20552381873131L270.7988975,84.20552381873131" style="fill: none;" fill="none"></path></g><g><path stroke="rgb(0, 119, 187)" stroke-width="2px" d="M40.258520937499995,-8.32733291387558L43.65823625,1.366217315196991L47.0579515625,8.445894062519073L50.457666875,14.650404274463654L53.8573821875,19.761594593524933L57.2570975,23.91940051317215L60.6568128125,27.39757400751114L64.056528125,30.07792317867279L67.45624343749999,32.56754904985428L70.85595875,34.61119383573532L74.2556740625,37.22802132368088L77.655389375,40.526717841625214L81.0551046875,44.2423090338707L84.45482,47.572212517261505L87.85453531249999,51.212719202041626L91.25425062500001,54.105946719646454L94.6539659375,56.40760284662247L98.05368125,59.6574422121048L101.45339656249999,62.45917993783951L104.85311187500001,64.68067699670792L108.2528271875,66.35698056221008L111.6525425,68.67039468884468L115.05225781249999,69.92744037508965L118.45197312500001,71.60140183568001L121.8516884375,73.39869305491447L125.25140375,73.66289725899696L128.6511190625,76.22209525108337L132.050834375,76.65867099165916L135.4505496875,79.17649179697037L138.850265,80.06955644488335L142.24998031249999,80.76193329691887L145.64969562500002,81.79488068819046L149.0494109375,82.40042558312416L152.44912625,83.13316681981087L155.84884156249998,83.64403054118156L159.24855687500002,84.2043527662754L162.6482721875,84.56387642025948L166.0479875,84.97173500061035L169.4477028125,84.97173500061035L172.847418125,85.86915680766106L176.2471334375,86.05221024155617L179.64684874999998,86.11997303366661L183.0465640625,86.69539234042168L186.44627937500002,86.86358079314232L189.8459946875,87.11842712759972L193.24571,87.11842712759972L196.6454253125,87.11842712759972L200.045140625,87.28464272618294L203.4448559375,87.28939551115036L206.84457124999997,87.61886215209961L210.2442865625,87.61886215209961L213.64400187500001,87.61886215209961L217.0437171875,87.61886215209961L220.4434325,87.61886215209961L223.8431478125,87.61886215209961L227.24286312499999,87.61886215209961L230.64257843750002,87.61886215209961L234.04229375,87.61886215209961L237.4420090625,87.61886215209961L240.841724375,87.61886215209961L244.2414396875,87.61886215209961L247.641155,87.61886215209961L251.04087031249998,87.61886215209961" style="fill: none;" fill="none"></path></g></g></g></g></g></g><g transform="translate(29, 177)" clip-path="url(#clip_1)"><clipPath id="clip_1"><rect width="300" height="23"></rect></clipPath><g><g><line x1="0" y1="0" x2="0" y2="5" style="visibility: inherit;" fill="rgb(0, 0, 0)" stroke="rgb(204, 204, 204)" stroke-width="1px"></line><line x1="30.059375000000003" y1="0" x2="30.059375000000003" y2="5" style="visibility: inherit;" fill="rgb(0, 0, 0)" stroke="rgb(204, 204, 204)" stroke-width="1px"></line><line x1="60.118750000000006" y1="0" x2="60.118750000000006" y2="5" style="visibility: inherit;" fill="rgb(0, 0, 0)" stroke="rgb(204, 204, 204)" stroke-width="1px"></line><line x1="90.178125" y1="0" x2="90.178125" y2="5" style="visibility: inherit;" fill="rgb(0, 0, 0)" stroke="rgb(204, 204, 204)" stroke-width="1px"></line><line x1="120.23750000000001" y1="0" x2="120.23750000000001" y2="5" style="visibility: inherit;" fill="rgb(0, 0, 0)" stroke="rgb(204, 204, 204)" stroke-width="1px"></line><line x1="150.296875" y1="0" x2="150.296875" y2="5" style="visibility: inherit;" fill="rgb(0, 0, 0)" stroke="rgb(204, 204, 204)" stroke-width="1px"></line><line x1="180.35625" y1="0" x2="180.35625" y2="5" style="visibility: inherit;" fill="rgb(0, 0, 0)" stroke="rgb(204, 204, 204)" stroke-width="1px"></line><line x1="210.41562499999998" y1="0" x2="210.41562499999998" y2="5" style="visibility: inherit;" fill="rgb(0, 0, 0)" stroke="rgb(204, 204, 204)" stroke-width="1px"></line><line x1="240.47500000000002" y1="0" x2="240.47500000000002" y2="5" style="visibility: inherit;" fill="rgb(0, 0, 0)" stroke="rgb(204, 204, 204)" stroke-width="1px"></line><line x1="270.534375" y1="0" x2="270.534375" y2="5" style="visibility: inherit;" fill="rgb(0, 0, 0)" stroke="rgb(204, 204, 204)" stroke-width="1px"></line><line x1="300.59375" y1="0" x2="300.59375" y2="5" style="visibility: inherit;" fill="rgb(0, 0, 0)" stroke="rgb(204, 204, 204)" stroke-width="1px"></line></g><g transform="translate(0, 8)"><text x="0" y="0" dx="0em" dy="0.95em" style="text-anchor: middle; visibility: hidden; font-family: &quot;Helvetica Neue&quot;, sans-serif; font-size: 12px; font-weight: 200;" fill="rgb(50, 49, 63)" stroke="none" stroke-width="1px">-10k</text><text x="30.059375000000003" y="0" dx="0em" dy="0.95em" style="text-anchor: middle; visibility: inherit; font-family: &quot;Helvetica Neue&quot;, sans-serif; font-size: 12px; font-weight: 200;" fill="rgb(50, 49, 63)" stroke="none" stroke-width="1px">0</text><text x="60.118750000000006" y="0" dx="0em" dy="0.95em" style="text-anchor: middle; visibility: inherit; font-family: &quot;Helvetica Neue&quot;, sans-serif; font-size: 12px; font-weight: 200;" fill="rgb(50, 49, 63)" stroke="none" stroke-width="1px">10k</text><text x="90.178125" y="0" dx="0em" dy="0.95em" style="text-anchor: middle; visibility: inherit; font-family: &quot;Helvetica Neue&quot;, sans-serif; font-size: 12px; font-weight: 200;" fill="rgb(50, 49, 63)" stroke="none" stroke-width="1px">20k</text><text x="120.23750000000001" y="0" dx="0em" dy="0.95em" style="text-anchor: middle; visibility: inherit; font-family: &quot;Helvetica Neue&quot;, sans-serif; font-size: 12px; font-weight: 200;" fill="rgb(50, 49, 63)" stroke="none" stroke-width="1px">30k</text><text x="150.296875" y="0" dx="0em" dy="0.95em" style="text-anchor: middle; visibility: inherit; font-family: &quot;Helvetica Neue&quot;, sans-serif; font-size: 12px; font-weight: 200;" fill="rgb(50, 49, 63)" stroke="none" stroke-width="1px">40k</text><text x="180.35625" y="0" dx="0em" dy="0.95em" style="text-anchor: middle; visibility: inherit; font-family: &quot;Helvetica Neue&quot;, sans-serif; font-size: 12px; font-weight: 200;" fill="rgb(50, 49, 63)" stroke="none" stroke-width="1px">50k</text><text x="210.41562499999998" y="0" dx="0em" dy="0.95em" style="text-anchor: middle; visibility: inherit; font-family: &quot;Helvetica Neue&quot;, sans-serif; font-size: 12px; font-weight: 200;" fill="rgb(50, 49, 63)" stroke="none" stroke-width="1px">60k</text><text x="240.47500000000002" y="0" dx="0em" dy="0.95em" style="text-anchor: middle; visibility: inherit; font-family: &quot;Helvetica Neue&quot;, sans-serif; font-size: 12px; font-weight: 200;" fill="rgb(50, 49, 63)" stroke="none" stroke-width="1px">70k</text><text x="270.534375" y="0" dx="0em" dy="0.95em" style="text-anchor: middle; visibility: inherit; font-family: &quot;Helvetica Neue&quot;, sans-serif; font-size: 12px; font-weight: 200;" fill="rgb(50, 49, 63)" stroke="none" stroke-width="1px">80k</text><text x="300.59375" y="0" dx="0em" dy="0.95em" style="text-anchor: middle; visibility: hidden; font-family: &quot;Helvetica Neue&quot;, sans-serif; font-size: 12px; font-weight: 200;" fill="rgb(50, 49, 63)" stroke="none" stroke-width="1px">90k</text></g><line x1="0" y1="0" x2="300.59375" y2="0" fill="rgb(0, 0, 0)" stroke="rgb(204, 204, 204)" stroke-width="1px"></line></g></g></g></g></svg>