<svg viewBox="0 0 330 200" xmlns="http://www.w3.org/2000/svg"><g><g><g><g><g><line x1="39.109375" y1="177" x2="34.109375" y2="177" style="visibility: inherit;" fill="rgb(0, 0, 0)" stroke="rgb(204, 204, 204)" stroke-width="1px"></line><line x1="39.109375" y1="157.33333333333334" x2="34.109375" y2="157.33333333333334" style="visibility: inherit;" fill="rgb(0, 0, 0)" stroke="rgb(204, 204, 204)" stroke-width="1px"></line><line x1="39.109375" y1="137.66666666666669" x2="34.109375" y2="137.66666666666669" style="visibility: inherit;" fill="rgb(0, 0, 0)" stroke="rgb(204, 204, 204)" stroke-width="1px"></line><line x1="39.109375" y1="118" x2="34.109375" y2="118" style="visibility: inherit;" fill="rgb(0, 0, 0)" stroke="rgb(204, 204, 204)" stroke-width="1px"></line><line x1="39.109375" y1="98.33333333333334" x2="34.109375" y2="98.33333333333334" style="visibility: inherit;" fill="rgb(0, 0, 0)" stroke="rgb(204, 204, 204)" stroke-width="1px"></line><line x1="39.109375" y1="78.66666666666666" x2="34.109375" y2="78.66666666666666" style="visibility: inherit;" fill="rgb(0, 0, 0)" stroke="rgb(204, 204, 204)" stroke-width="1px"></line><line x1="39.109375" y1="59" x2="34.109375" y2="59" style="visibility: inherit;" fill="rgb(0, 0, 0)" stroke="rgb(204, 204, 204)" stroke-width="1px"></line><line x1="39.109375" y1="39.33333333333334" x2="34.109375" y2="39.33333333333334" style="visibility: inherit;" fill="rgb(0, 0, 0)" stroke="rgb(204, 204, 204)" stroke-width="1px"></line><line x1="39.109375" y1="19.666666666666686" x2="34.109375" y2="19.666666666666686" style="visibility: inherit;" fill="rgb(0, 0, 0)" stroke="rgb(204, 204, 204)" stroke-width="1px"></line><line x1="39.109375" y1="0" x2="34.109375" y2="0" style="visibility: inherit;" fill="rgb(0, 0, 0)" stroke="rgb(204, 204, 204)" stroke-width="1px"></line></g><g transform="translate(29.109375, 0)"><text x="0" y="177" dx="0em" dy="0.3em" style="text-anchor: end; visibility: hidden; font-family: &quot;Helvetica Neue&quot;, sans-serif; font-size: 12px; font-weight: 200;" fill="rgb(50, 49, 63)" stroke="none" stroke-width="1px">-50</text><text x="0" y="157.33333333333334" dx="0em" dy="0.3em" style="text-anchor: end; visibility: inherit; font-family: &quot;Helvetica Neue&quot;, sans-serif; font-size: 12px; font-weight: 200;" fill="rgb(50, 49, 63)" stroke="none" stroke-width="1px">0</text><text x="0" y="137.66666666666669" dx="0em" dy="0.3em" style="text-anchor: end; visibility: hidden; font-family: &quot;Helvetica Neue&quot;, sans-serif; font-size: 12px; font-weight: 200;" fill="rgb(50, 49, 63)" stroke="none" stroke-width="1px">50</text><text x="0" y="118" dx="0em" dy="0.3em" style="text-anchor: end; visibility: inherit; font-family: &quot;Helvetica Neue&quot;, sans-serif; font-size: 12px; font-weight: 200;" fill="rgb(50, 49, 63)" stroke="none" stroke-width="1px">100</text><text x="0" y="98.33333333333334" dx="0em" dy="0.3em" style="text-anchor: end; visibility: hidden; font-family: &quot;Helvetica Neue&quot;, sans-serif; font-size: 12px; font-weight: 200;" fill="rgb(50, 49, 63)" stroke="none" stroke-width="1px">150</text><text x="0" y="78.66666666666666" dx="0em" dy="0.3em" style="text-anchor: end; visibility: inherit; font-family: &quot;Helvetica Neue&quot;, sans-serif; font-size: 12px; font-weight: 200;" fill="rgb(50, 49, 63)" stroke="none" stroke-width="1px">200</text><text x="0" y="59" dx="0em" dy="0.3em" style="text-anchor: end; visibility: hidden; font-family: &quot;Helvetica Neue&quot;, sans-serif; font-size: 12px; font-weight: 200;" fill="rgb(50, 49, 63)" stroke="none" stroke-width="1px">250</text><text x="0" y="39.33333333333334" dx="0em" dy="0.3em" style="text-anchor: end; visibility: inherit; font-family: &quot;Helvetica Neue&quot;, sans-serif; font-size: 12px; font-weight: 200;" fill="rgb(50, 49, 63)" stroke="none" stroke-width="1px">300</text><text x="0" y="19.666666666666686" dx="0em" dy="0.3em" style="text-anchor: end; visibility: hidden; font-family: &quot;Helvetica Neue&quot;, sans-serif; font-size: 12px; font-weight: 200;" fill="rgb(50, 49, 63)" stroke="none" stroke-width="1px">350</text><text x="0" y="0" dx="0em" dy="0.3em" style="text-anchor: end; visibility: hidden; font-family: &quot;Helvetica Neue&quot;, sans-serif; font-size: 12px; font-weight: 200;" fill="rgb(50, 49, 63)" stroke="none" stroke-width="1px">400</text></g><line x1="39.109375" y1="0" x2="39.109375" y2="177" fill="rgb(0, 0, 0)" stroke="rgb(204, 204, 204)" stroke-width="1px"></line></g></g><g transform="translate(39, 0)" clip-path="url(#clip_0)"><clipPath id="clip_0"><rect width="290" height="177"></rect></clipPath><g><g><g><line x1="0" y1="0" x2="0" y2="177" fill="rgb(0, 0, 0)" stroke="rgb(60, 60, 60)" stroke-width="1px" opacity="0.25"></line><line x1="24.240885416666664" y1="0" x2="24.240885416666664" y2="177" fill="rgb(0, 0, 0)" stroke="rgb(60, 60, 60)" stroke-width="1px" opacity="0.25"></line><line x1="48.48177083333333" y1="0" x2="48.48177083333333" y2="177" fill="rgb(0, 0, 0)" stroke="rgb(60, 60, 60)" stroke-width="1px" opacity="0.25"></line><line x1="72.72265625" y1="0" x2="72.72265625" y2="177" fill="rgb(0, 0, 0)" stroke="rgb(60, 60, 60)" stroke-width="1px" opacity="0.25"></line><line x1="96.96354166666666" y1="0" x2="96.96354166666666" y2="177" fill="rgb(0, 0, 0)" stroke="rgb(60, 60, 60)" stroke-width="1px" opacity="0.25"></line><line x1="121.20442708333334" y1="0" x2="121.20442708333334" y2="177" fill="rgb(0, 0, 0)" stroke="rgb(60, 60, 60)" stroke-width="1px" opacity="0.25"></line><line x1="145.4453125" y1="0" x2="145.4453125" y2="177" fill="rgb(0, 0, 0)" stroke="rgb(60, 60, 60)" stroke-width="1px" opacity="0.25"></line><line x1="169.68619791666669" y1="0" x2="169.68619791666669" y2="177" fill="rgb(0, 0, 0)" stroke="rgb(60, 60, 60)" stroke-width="1px" opacity="0.25"></line><line x1="193.92708333333331" y1="0" x2="193.92708333333331" y2="177" fill="rgb(0, 0, 0)" stroke="rgb(60, 60, 60)" stroke-width="1px" opacity="0.25"></line><line x1="218.16796875" y1="0" x2="218.16796875" y2="177" fill="rgb(0, 0, 0)" stroke="rgb(60, 60, 60)" stroke-width="1px" opacity="0.25"></line><line x1="242.40885416666669" y1="0" x2="242.40885416666669" y2="177" fill="rgb(0, 0, 0)" stroke="rgb(60, 60, 60)" stroke-width="1px" opacity="0.25"></line><line x1="266.6497395833333" y1="0" x2="266.6497395833333" y2="177" fill="rgb(0, 0, 0)" stroke="rgb(60, 60, 60)" stroke-width="1px" opacity="0.25"></line><line x1="290.890625" y1="0" x2="290.890625" y2="177" fill="rgb(0, 0, 0)" stroke="rgb(60, 60, 60)" stroke-width="1px" opacity="0.25"></line></g><g><line x1="0" y1="177" x2="290.890625" y2="177" fill="rgb(0, 0, 0)" stroke="rgb(60, 60, 60)" stroke-width="1px" opacity="0.25"></line><line x1="0" y1="157.33333333333334" x2="290.890625" y2="157.33333333333334" fill="rgb(0, 0, 0)" stroke="rgb(60, 60, 60)" stroke-width="1px" opacity="0.25"></line><line x1="0" y1="137.66666666666669" x2="290.890625" y2="137.66666666666669" fill="rgb(0, 0, 0)" stroke="rgb(60, 60, 60)" stroke-width="1px" opacity="0.25"></line><line x1="0" y1="118" x2="290.890625" y2="118" fill="rgb(0, 0, 0)" stroke="rgb(60, 60, 60)" stroke-width="1px" opacity="0.25"></line><line x1="0" y1="98.33333333333334" x2="290.890625" y2="98.33333333333334" fill="rgb(0, 0, 0)" stroke="rgb(60, 60, 60)" stroke-width="1px" opacity="0.25"></line><line x1="0" y1="78.66666666666666" x2="290.890625" y2="78.66666666666666" fill="rgb(0, 0, 0)" stroke="rgb(60, 60, 60)" stroke-width="1px" opacity="0.25"></line><line x1="0" y1="59" x2="290.890625" y2="59" fill="rgb(0, 0, 0)" stroke="rgb(60, 60, 60)" stroke-width="1px" opacity="0.25"></line><line x1="0" y1="39.33333333333334" x2="290.890625" y2="39.33333333333334" fill="rgb(0, 0, 0)" stroke="rgb(60, 60, 60)" stroke-width="1px" opacity="0.25"></line><line x1="0" y1="19.666666666666686" x2="290.890625" y2="19.666666666666686" fill="rgb(0, 0, 0)" stroke="rgb(60, 60, 60)" stroke-width="1px" opacity="0.25"></line><line x1="0" y1="0" x2="290.890625" y2="0" fill="rgb(0, 0, 0)" stroke="rgb(60, 60, 60)" stroke-width="1px" opacity="0.25"></line></g></g></g><g><g><line x1="0" y1="157.33333333333334" x2="290.890625" y2="157.33333333333334" fill="rgb(0, 0, 0)" stroke="rgb(153, 153, 153)" stroke-width="1.5px"></line></g></g><g><g><line x1="24.240885416666664" y1="0" x2="24.240885416666664" y2="177" fill="rgb(0, 0, 0)" stroke="rgb(153, 153, 153)" stroke-width="1.5px"></line></g></g><g><g><g><g><g><path stroke="rgb(51, 187, 238)" stroke-width="2px" d="M24.240885416666664,129.40666666666667L24.395165185185185,131.76666666666668L24.542657505787037,131.76666666666668L24.618666148726852,131.76666666666668L24.693045265480325,131.76666666666668L24.769484857494216,131.76666666666668L24.842503791232637,131.76666666666668L24.918606704282407,131.76666666666668L24.99308009114583,131.76666666666668L25.067162930410877,131.76666666666668L25.1441277416088,131.76666666666668L25.21725441261574,131.76666666666668L25.290865901331017,131.76666666666668L25.364625528790505,131.76666666666668L25.433402307581023,131.76666666666668L25.509276278935186,131.76666666666668L25.584369155092592,131.76666666666668L25.660296995081016,131.76666666666668L25.72876402922454,131.76666666666668L25.80913603153935,131.76666666666668L25.890639275173612,131.76666666666668L25.965476275318288,131.76666666666668L26.033795170717593,131.76666666666668L26.179604096498842,131.76666666666668L26.405434878472224,131.76666666666668L26.474023117042822,131.76666666666668L26.547917416087962,131.76666666666668L26.617125143952546,131.76666666666668L26.682077249710648,131.76666666666668L26.828586467737264,131.76666666666668L26.97881262152778,131.76666666666668L27.05024243055556,131.76666666666668L27.12538917534722,131.76666666666668L27.275628796296296,131.76666666666668L27.349805905671296,131.76666666666668L27.422380423177085,131.76666666666668L27.494874137731482,131.76666666666668L27.56301796006945,131.76666666666668L27.63448817057292,131.76666666666668L27.776997642505787,131.76666666666668L27.8515518323206,131.76666666666668L28.003515249565975,131.76666666666668L28.077692358940972,131.76666666666668L28.12884062717014,131.76666666666668L28.198883318865743,131.76666666666668L28.27415126808449,131.76666666666668L28.34812637008102,131.76666666666668L28.502688948929396,131.76666666666668L28.570927041377317,131.76666666666668L28.646949151475695,131.76666666666668L28.72400823278356,131.76666666666668L28.795734319299765,131.76666666666668L28.873736101707177,131.76666666666668L28.949583138744213,131.76666666666668L29.019625830439818,131.76666666666668L29.089062499999997,131.76666666666668L29.16528661747685,131.76666666666668L29.237322448640047,131.76666666666668L29.386996448929402,131.76666666666668L29.459153484519675,131.76666666666668L29.531795337818288,131.76666666666668L29.605797374131946,131.76666666666668L29.748131773003472,131.76666666666668L29.818322603443292,131.76666666666668L29.892203435329865,131.76666666666668L29.96698656684028,131.76666666666668L30.11323990885417,131.76666666666668L30.187767164351854,131.76666666666668L30.338168391203705,131.76666666666668L30.414230902777778,131.76666666666668L30.486428339843755,131.76666666666668L30.555595666232637,131.76666666666668L30.63136190031829,131.76666666666668L30.70734360894097,131.76666666666668L30.84959720486111,131.76666666666668L30.923706978443285,131.76666666666668L30.992820436197917,131.76666666666668L31.06477546440972,131.76666666666668L31.216792750289354,131.76666666666668L31.2932862109375,131.76666666666668L31.44057652416088,131.76666666666668L31.518457102141202,131.76666666666668L31.591422167245373,131.76666666666668L31.663942816116897,131.76666666666668L31.736032515914356,131.76666666666668L31.809078383969904,131.76666666666668L31.881383558304403,131.76666666666668L31.953904207175924,131.76666666666668L32.10127532335069,131.76666666666668L32.17595071759259,131.76666666666668L32.24977768084491,131.76666666666668L32.32606913411458,131.76666666666668L32.468363131510415,131.76666666666668L32.538311553096065,131.76666666666668L32.608529317853005,131.76666666666668L32.682760295862266,131.76666666666668L32.757637697482636,131.76666666666668L32.830548893952546,131.76666666666668L32.90910282986111,131.76666666666668L32.98251231119792,131.76666666666668L33.05825161096644,131.76666666666668L33.20621528211805,131.76666666666668L33.28564458333334,131.76666666666668L33.361734029224536,131.76666666666668L33.43098215856482,131.76666666666668L33.50509193214699,131.76666666666668L33.657068816550925,131.76666666666668L33.72705763961227,131.76666666666668L33.94440411168982,131.76666666666668L34.01728837384259,131.76666666666668L34.164538285590275,131.76666666666668L34.24089707465278,131.76666666666668L34.391123228443284,131.76666666666668L34.53624532913773,131.76666666666668L34.610503241464116,131.76666666666668L34.67910494719328,131.76666666666668L34.74936311342593,131.76666666666668L34.818274563802085,131.76666666666668L34.89227660011574,131.76666666666668L35.03745256944444,131.76666666666668L35.112801321614576,131.76666666666668L35.18358470703125,131.76666666666668L35.257990758101855,131.76666666666668L35.401065850694444,131.76666666666668L35.47582204788773,131.76666666666668L35.550739850983796,131.76666666666668L35.69397654947917,131.76666666666668L35.76663186993634,131.76666666666668L35.84655945601852,131.76666666666668L35.992166374421295,131.76666666666668L36.05977151041667,131.76666666666668L36.20634806423611,131.76666666666668L36.27943433376736,131.76666666666668L36.42439482855903,131.76666666666668L36.50041693865741,131.76666666666668L36.57511926721644,131.76666666666668L36.72471246455439,131.76666666666668L36.797206179108805,131.76666666666668L36.874184457465276,131.76666666666668L37.01028356192129,131.76666666666668L37.07771362485533,131.76666666666668L37.15484004195602,131.76666666666668L37.227805107060185,131.76666666666668L37.38099403573496,131.76666666666668L37.45596570746528,131.76666666666668L37.53107205078125,131.76666666666668L37.60869675274884,131.76666666666668L37.682739190538186,131.76666666666668L37.75566385416667,131.76666666666668L37.8344601989294,131.76666666666668L37.905203182870366,131.76666666666668L37.98048459924769,131.76666666666668L38.1221725745081,131.76666666666668L38.189171688368056,131.76666666666668L38.42041626808449,131.76666666666668L38.71087594401042,131.76666666666668L38.78491838179976,131.76666666666668L38.92919205150463,131.76666666666668L38.9972550708912,131.76666666666668L39.07389667028357,131.76666666666668L39.1478313708044,131.76666666666668L39.420043046875,37.366666666666674L39.49419322193287,131.76666666666668L39.56881474754051,131.76666666666668L39.64460791594329,131.76666666666668L39.86591373263889,131.76666666666668L39.93521573061342,131.76666666666668L40.01102236617477,131.76666666666668L40.08169801432292,131.76666666666668L40.22734533420139,131.76666666666668L40.30200726128473,131.76666666666668L40.37609010054977,131.76666666666668L40.45294717447916,131.76666666666668L40.52196636212384,131.76666666666668L40.59552398220487,131.76666666666668L40.668475580150464,131.76666666666668L40.81590056495949,131.76666666666668L40.895491472077545,131.76666666666668L40.97069208550347,131.76666666666668L41.11359210503472,131.76666666666668L41.18883311993634,131.76666666666668L41.26148844039352,131.76666666666668L41.33072310257523,131.76666666666668L41.40608532190394,131.76666666666668L41.48769630280672,131.76666666666668L41.55695789930555,131.76666666666668L41.71537208550347,131.76666666666668L41.784310470196765,131.76666666666668L41.92660446759259,131.76666666666668L42.00323259982639,131.76666666666668L42.07172656828704,131.76666666666668L42.21733348668981,131.76666666666668L42.310324216579865,127.04666666666667L42.39646016276042,127.04666666666667L42.490851477141206,124.68666666666667L42.58922907045718,124.68666666666667L42.68123669777199,127.04666666666667L42.75391895254629,131.76666666666668L42.82654733868634,131.76666666666668L42.919969017650466,127.04666666666667L43.01122248408565,127.04666666666667L43.097802846498844,127.04666666666667L43.19723087818287,124.68666666666667L43.30313661313657,122.32666666666667L43.503945414496535,122.32666666666667L43.58909825810185,127.04666666666667L43.65712087601273,131.76666666666668L43.750973504050926,127.04666666666667L43.93369591145834,127.04666666666667L44.02092269748264,127.04666666666667L44.10436521195023,129.40666666666667L44.28435378616898,124.68666666666667L44.45036344979746,129.40666666666667L44.63151019965277,127.04666666666667L44.71535672887731,129.40666666666667L44.794112672164346,129.40666666666667L44.880060078125,129.40666666666667L44.971609822048606,127.04666666666667L45.13572061631944,129.40666666666667L45.25145737702547,119.96666666666667L45.342939785156254,127.04666666666667L45.43323708333333,127.04666666666667L45.53114332609954,124.68666666666667L45.62653121021412,124.68666666666667L45.72815438874421,124.68666666666667L45.830679866898144,124.68666666666667L46.30682472511574,122.32666666666667L46.49422023654514,127.04666666666667L46.584275125868054,127.04666666666667L46.78694239510996,119.96666666666667L46.902786893084496,119.96666666666667L46.995602549913194,127.04666666666667L47.073550463686345,129.40666666666667L47.159322796585656,129.40666666666667L47.24306158854167,129.40666666666667L47.325749942129626,129.40666666666667L47.41895614655671,127.04666666666667L47.502169719328705,127.04666666666667L47.57739726707176,129.40666666666667L47.65496810040509,129.40666666666667L47.94039105902778,124.68666666666667L48.03357032913773,124.68666666666667L48.143300737123845,122.32666666666667L48.23229172092013,127.04666666666667L48.31080525535301,129.40666666666667L48.531168370949075,122.32666666666667L48.640912246093755,122.32666666666667L48.748218565538195,122.32666666666667L48.85889167462384,117.60666666666667L48.96335642361112,122.32666666666667L49.064440915798606,122.32666666666667L49.159694128327544,124.68666666666667L49.24504897931134,127.04666666666667L49.34603920138889,124.68666666666667L49.44492854673033,122.32666666666667L49.53183212094907,127.04666666666667L49.66316385127315,115.24666666666667L49.76875984157987,122.32666666666667L49.87131225405092,124.68666666666667L49.96516488208912,127.04666666666667L50.07381791739005,122.32666666666667L50.273172265625,127.04666666666667L50.36981259548611,124.68666666666667L50.580533225549765,122.32666666666667L50.77520100260417,124.68666666666667L51.01300408854167,124.68666666666667L51.2440197265625,117.60666666666667L51.37183652850116,115.24666666666667L51.481230257523144,122.32666666666667L51.60829289858218,115.24666666666667L51.70980833984375,124.68666666666667L51.82757864149306,119.96666666666667L51.93440014322917,122.32666666666667L52.05140281684027,119.96666666666667L52.17056023582176,117.60666666666667L52.303359886429405,115.24666666666667L52.418800369646995,119.96666666666667L52.52920413556135,119.96666666666667L52.66340437065972,115.24666666666667L52.77133017939815,122.32666666666667L52.88802310836227,119.96666666666667L53.0116785583044,117.60666666666667L53.14360284360532,115.24666666666667L53.26243705078125,117.60666666666667L53.37053793258102,122.32666666666667L53.457926324508094,127.04666666666667L53.54026453197338,129.40666666666667L53.61949182581019,129.40666666666667L53.70421372034144,127.04666666666667L53.80201222583913,127.04666666666667L53.870182982494214,131.76666666666668L53.96376626736111,127.04666666666667L54.042953159722224,131.76666666666668L54.13570148075811,127.04666666666667L54.23772867404513,124.68666666666667L54.32907641059027,124.68666666666667L54.50661396195024,127.04666666666667L54.61156352864583,124.68666666666667L54.83860635489005,117.60666666666667L54.95028950086805,122.32666666666667L55.03338186921296,129.40666666666667L55.14634439525462,119.96666666666667L55.262835316840274,122.32666666666667L55.33682388599537,122.32666666666667L55.44326830729167,122.32666666666667L55.638097690248834,124.68666666666667L55.7375930577257,122.32666666666667L55.960528400607636,117.60666666666667L56.04661047815394,127.04666666666667L56.14999785445602,124.68666666666667L56.24635537398728,127.04666666666667L56.35455052589699,122.32666666666667L56.565957981047454,119.96666666666667L56.66048396701389,124.68666666666667L56.75973692563658,124.68666666666667L56.866275617042824,122.32666666666667L57.190739868344906,122.32666666666667L57.40933878616898,117.60666666666667L57.5362532884838,117.60666666666667L57.762111004774304,122.32666666666667L57.88693809751158,117.60666666666667L57.99956394458911,119.96666666666667L58.210001764322925,124.68666666666667L58.312204030671296,124.68666666666667L58.5829208521412,108.16666666666667L58.89519732494213,103.44666666666666L58.89548013527199,103.44666666666666L59.22674530164931,4.326666666666682L59.49661369212963,115.24666666666667L59.60307158058449,122.32666666666667L59.71449885054977,119.96666666666667L59.974697821180555,129.40666666666667L60.073560232204855,124.68666666666667L60.15934603226273,127.04666666666667L60.246316942274305,127.04666666666667L60.34811519386573,124.68666666666667L60.4572934483507,122.32666666666667L60.66857969907407,122.32666666666667L60.88734022280092,122.32666666666667L61.104605891927086,122.32666666666667L61.34821332320602,122.32666666666667L61.722681134259254,115.24666666666667L61.8561676099537,115.24666666666667L62.074200907118055,115.24666666666667L62.18108974464699,122.32666666666667L62.30785610821759,115.24666666666667L62.436265465133104,115.24666666666667L62.58540077907986,110.52666666666667L62.842677376302085,122.32666666666667L62.993765428240735,110.52666666666667L63.11394635127315,117.60666666666667L63.259364729456024,112.88666666666667L63.38658897641782,115.24666666666667L63.45502907624422,124.68666666666667L63.573580473090274,119.96666666666667L63.6997273473669,117.60666666666667L63.83752331380209,112.88666666666667L63.982389538483794,110.52666666666667L64.10978885850695,115.24666666666667L64.26157720269097,108.16666666666667L64.53166106770833,110.52666666666667L64.64280552734375,122.32666666666667L64.80140825376158,108.16666666666667L64.9331439988426,115.24666666666667L65.05526419270834,117.60666666666667L65.19132289568866,117.60666666666667L65.32611568576388,112.88666666666667L65.48218658637153,105.80666666666667L65.63758412905092,108.16666666666667L65.79552696469908,110.52666666666667L65.93849432002314,112.88666666666667L66.0532210438368,122.32666666666667L66.2013059194155,110.52666666666667L66.35926222222221,105.80666666666667L66.5041823155382,112.88666666666667L66.66942435112847,105.80666666666667L66.84378365306712,103.44666666666666L66.99411754412614,110.52666666666667L67.15444406684028,108.16666666666667L67.44487680844908,110.52666666666667L67.58900233940972,112.88666666666667L68.16779388020834,110.52666666666667L68.44455745587383,110.52666666666667L68.59324835358797,110.52666666666667L68.73934008969907,108.16666666666667L68.87900799117476,112.88666666666667L69.02355100405092,112.88666666666667L69.14804141782407,115.24666666666667L69.43125576244213,112.88666666666667L69.5733073509838,110.52666666666667L69.72532463686342,108.16666666666667L70.18657481770835,103.44666666666666L70.34447725188079,105.80666666666667L70.63756302372686,115.24666666666667L71.06876797381366,115.24666666666667L71.22660307219329,110.52666666666667L71.38442470341437,108.16666666666667L71.5249141015625,112.88666666666667L71.68988679398147,105.80666666666667L71.84750641782406,108.16666666666667L71.99489100115741,112.88666666666667L72.15385734085648,108.16666666666667L72.32256043619792,103.44666666666666L72.46147417679398,110.52666666666667L72.60468394097222,112.88666666666667L72.920771619647,108.16666666666667L73.07654624276621,110.52666666666667L73.22001188295717,112.88666666666667L73.38533472149884,105.80666666666667L73.56143128689237,103.44666666666666L73.74986376953125,101.08666666666667L73.90166558087385,108.16666666666667L74.2381560047743,105.80666666666667L74.40061033854167,105.80666666666667L74.55375886574073,108.16666666666667L74.70919680989583,108.16666666666667L75.7076519458912,101.08666666666667L76.02667546513311,108.16666666666667L76.16642416956019,115.24666666666667L76.33282438078703,105.80666666666667L76.47305790292245,112.88666666666667L76.61673901765046,112.88666666666667L76.79593302951388,101.08666666666667L76.96346448206017,103.44666666666666L77.13599225043404,103.44666666666666L77.30701169704861,103.44666666666666L77.47642855179397,108.16666666666667L77.66387793185763,101.08666666666667L77.82190157045717,105.80666666666667L77.97164290653936,108.16666666666667L78.1285891724537,108.16666666666667L78.2788961291956,110.52666666666667L78.4483399182581,105.80666666666667L78.62446341796876,101.08666666666667L78.96574815031829,101.08666666666667L79.13015522207753,103.44666666666666L79.29375426432291,103.44666666666666L79.61969990306713,101.08666666666667L79.81113556206597,98.72666666666666L79.99426198423032,98.72666666666666L80.18402771556713,96.36666666666667L80.36831231336805,101.08666666666667L80.54384325810186,101.08666666666667L80.71686931134259,101.08666666666667L81.13620969473381,91.64666666666666L81.34543547019676,94.00666666666666L81.51388268952546,103.44666666666666L81.7157284620949,96.36666666666667L81.90026893590856,101.08666666666667L82.08897076171876,98.72666666666666L82.24963396339699,105.80666666666667L82.40779227358217,110.52666666666667L82.60667527126736,96.36666666666667L82.80149118706598,96.36666666666667L83.01493218315973,91.64666666666666L83.22714766782407,94.00666666666666L83.57538145399306,94.00666666666666L83.75734970052083,103.44666666666666L83.91456530960647,108.16666666666667L84.08946329788772,103.44666666666666L84.27770724030671,98.72666666666666L84.47168819227431,101.08666666666667L84.63025051721644,108.16666666666667L84.78551338831018,105.80666666666667L84.95194053385417,105.80666666666667L85.09964832899306,110.52666666666667L85.2726743822338,103.44666666666666L85.45264948929398,105.80666666666667L85.6411493077257,101.08666666666667L85.81793269820602,103.44666666666666L86.14623508969908,110.52666666666667L86.23993957899306,127.04666666666667L86.39734372829861,108.16666666666667L86.74218379050926,101.08666666666667L86.90493440176505,105.80666666666667L87.06210960937501,103.44666666666666L87.24857588686343,101.08666666666667L87.63438304542824,98.72666666666666L87.80902515769675,103.44666666666666L87.98135091869212,108.16666666666667L88.1461350708912,105.80666666666667L88.31685824001737,103.44666666666666L88.46946808087385,108.16666666666667L88.662008046875,98.72666666666666L88.97225097873265,105.80666666666667L89.3256561537905,105.80666666666667L89.47224617476853,108.16666666666667L89.63957561993635,103.44666666666666L90.11484511284722,108.16666666666667L90.8242815588831,110.52666666666667L91.00047239438658,105.80666666666667L91.1762188136574,103.44666666666666L91.33496967881945,108.16666666666667L91.50601605975116,105.80666666666667L91.64086271846065,117.60666666666667L91.81042771195023,105.80666666666667L92.0096204542824,96.36666666666667L92.57374625940393,105.80666666666667L92.7451966550926,103.44666666666666L92.9277978580729,101.08666666666667L93.13212158781829,96.36666666666667L93.47954734447339,103.44666666666666L93.66438409577546,98.72666666666666L93.85588709056712,96.36666666666667L94.19045171079281,105.80666666666667L94.37748360894096,101.08666666666667L94.58751741391782,96.36666666666667L94.78529610460069,96.36666666666667L94.97811888093172,98.72666666666666L95.17950677010995,98.72666666666666L95.33037934751158,108.16666666666667L95.51839434823496,98.72666666666666L95.67363028501158,110.52666666666667L95.85582747323495,98.72666666666666L96.03168162977431,103.44666666666666L96.21460604456018,101.08666666666667L96.32263959056712,108.16666666666667L96.51334802300347,101.08666666666667L96.67188341362848,105.80666666666667L96.8454481532118,103.44666666666666L97.39540650752316,105.80666666666667L97.58549545066549,101.08666666666667L97.95154628761573,96.36666666666667L98.13557500940392,101.08666666666667L98.34707673466434,91.64666666666666L98.52325410300926,103.44666666666666L98.71307370298034,96.36666666666667L98.95159054832175,84.56666666666666L99.1349459121817,101.08666666666667L99.36382027199075,89.28666666666666L99.58105900679976,91.64666666666666L99.7806557638889,94.00666666666666L99.99499905960647,91.64666666666666L100.40061640842013,98.72666666666666L100.58258465494794,98.72666666666666L100.70792349971065,117.60666666666667L100.90761452690973,96.36666666666667L101.11199212528935,96.36666666666667L101.32822082320601,91.64666666666666L101.52995885850694,96.36666666666667L101.75935843749998,89.28666666666666L101.94272726851851,103.44666666666666L102.15474074580439,94.00666666666666L102.3896349254919,86.92666666666668L102.59403945818867,94.00666666666666L102.80251107277198,94.00666666666666L102.97603541087962,101.08666666666667L103.1507717932581,103.44666666666666L103.34197851056133,96.36666666666667L103.50524087384261,105.80666666666667L103.73266078052661,94.00666666666666L103.91864224030672,96.36666666666667L104.13681020905673,91.64666666666666L104.54147138961225,96.36666666666667L104.9672760091146,91.64666666666666L105.37655642505786,91.64666666666666L105.98379060474535,94.00666666666666L106.16911217375578,101.08666666666667L106.39325956090858,89.28666666666666L106.56419820457175,105.80666666666667L106.75038167173032,101.08666666666667L106.9616679224537,94.00666666666666L107.15699559027776,98.72666666666666L107.3466401171875,96.36666666666667L107.55045209490739,94.00666666666666L107.73491176576965,103.44666666666666L107.95382042824075,89.28666666666666L108.15896565465857,91.64666666666666L108.35868361617476,96.36666666666667L109.0350716550926,89.28666666666666L109.23581312065971,94.00666666666666L109.45130112485532,94.00666666666666L109.85922135778357,94.00666666666666L110.05046847656251,101.08666666666667L110.23618059317128,98.72666666666666L110.41032442057292,105.80666666666667L110.60647358506945,94.00666666666666L110.80235340639466,94.00666666666666L111.02003655743633,94.00666666666666L111.20352659288196,98.72666666666666L111.42270459852432,91.64666666666666L111.88614992621528,86.92666666666668L112.10341559534143,89.28666666666666L112.31699126302084,91.64666666666666L112.5225405041956,96.36666666666667L112.71486499565972,98.72666666666666L113.12286603153936,96.36666666666667L113.34382170211227,91.64666666666666L113.55571397497107,94.00666666666666L113.77350486328126,89.28666666666666L114.02705105758102,82.20666666666666L114.2609486675347,86.92666666666668L114.5290393930845,77.48666666666668L114.77680817635996,84.56666666666666L115.01319721064816,89.28666666666666L115.2088750245949,94.00666666666666L115.42503638671876,89.28666666666666L115.66216611472802,91.64666666666666L115.87714236689816,91.64666666666666L116.08708190176503,91.64666666666666L116.5481166080729,86.92666666666668L116.7868489279514,86.92666666666668L116.99594003182872,91.64666666666666L117.2102833275463,89.28666666666666L117.44201272497105,86.92666666666668L117.67358051649305,86.92666666666668L117.88271202184607,98.72666666666666L118.12101339265045,86.92666666666668L118.82941286747686,91.64666666666666L119.04958744285301,91.64666666666666L119.47049001663774,91.64666666666666L119.7168447482639,86.92666666666668L119.95106557002315,89.28666666666666L120.16812923177083,89.28666666666666L120.4014342867477,89.28666666666666L120.64982255931714,84.56666666666666L121.16978955150464,77.48666666666668L121.40403730758102,86.92666666666668L121.63894495442707,82.20666666666666L121.8436726989294,94.00666666666666L122.02977536313657,98.72666666666666L122.22438927155672,96.36666666666667L122.41780460286459,96.36666666666667L122.6108967223669,96.36666666666667L122.93494349175346,110.52666666666667L123.13642565104166,94.00666666666666L123.337315255353,96.36666666666667L123.53283146339699,96.36666666666667L123.73953888020834,91.64666666666666L123.89964992838541,110.52666666666667L124.08250700737847,98.72666666666666L124.27239394314236,103.44666666666666L124.48522891710068,89.28666666666666L124.68799045645255,96.36666666666667L125.18612718460648,84.56666666666666L125.31585632306133,117.60666666666667L125.53696013237845,86.92666666666668L125.72708947699653,98.72666666666666L125.93973591073497,96.36666666666667L126.14076018663192,96.36666666666667L126.3330308094618,96.36666666666667L126.5076055859375,103.44666666666666L126.6867322620081,101.08666666666667L126.86436408347801,98.72666666666666L127.08829599609376,89.28666666666666L127.28677497902198,96.36666666666667L127.7058460192419,89.28666666666666L128.2147430070891,70.40666666666667L128.43475597656249,91.64666666666666L128.63063579788775,91.64666666666666L128.83288558521411,96.36666666666667L129.01688737268518,98.72666666666666L129.22255781828702,96.36666666666667L129.60852658275462,98.72666666666666L129.77783570023146,105.80666666666667L129.9932025,91.64666666666666L130.20898678168405,89.28666666666666L130.42607737774884,91.64666666666666L130.65232564163773,91.64666666666666L131.036045390625,91.64666666666666L131.5448481083623,84.56666666666666L131.76188483579284,91.64666666666666L132.0936213527199,58.60666666666667L132.57742902416086,-38.153333333333336L132.76555176215277,98.72666666666666L133.41281033709492,86.92666666666668L133.65499024956597,82.20666666666666L133.8799995348669,89.28666666666666L134.11496105034723,86.92666666666668L134.36197567274306,86.92666666666668L134.6327194285301,82.20666666666666L134.8672230606192,84.56666666666666L135.175728729022,68.04666666666667L135.4505395666956,75.12666666666667L135.66761669560185,91.64666666666666L135.9254993149595,77.48666666666668L136.16171327618633,84.56666666666666L136.41734688006366,82.20666666666666L136.88131742693866,89.28666666666666L137.11635974537037,89.28666666666666L137.55323436921296,94.00666666666666L137.74849470124423,96.36666666666667L137.92929130497686,101.08666666666667L138.13248379340277,96.36666666666667L138.5827043713831,79.84666666666666L138.81823150752314,86.92666666666668L139.0615291941551,84.56666666666666L139.2820673828125,91.64666666666666L139.776689182581,79.84666666666666L140.25097557291667,79.84666666666666L140.64299109157986,96.36666666666667L140.81700024739584,105.80666666666667L141.04833909722223,86.92666666666668L141.26661480324074,86.92666666666668L141.50540099175348,84.56666666666666L142.3773725745081,84.56666666666666L142.59187747612847,91.64666666666666L142.79485449001734,98.72666666666666L143.0096018004919,89.28666666666666L143.22622104600697,89.28666666666666L143.65655063078702,86.92666666666668L143.88006506148727,89.28666666666666L144.07844977430557,94.00666666666666L144.29352029658565,89.28666666666666L144.49309011935765,98.72666666666666L144.67693030092593,98.72666666666666L144.90161637442128,89.28666666666666L145.05507464626734,89.28666666666666L145.2938877690972,86.92666666666668L145.5128637673611,89.28666666666666L145.9403248473669,89.28666666666666L146.16598055627892,89.28666666666666L146.3984775817419,84.56666666666666L146.6118647092014,91.64666666666666L146.82812034143518,94.00666666666666L147.05667148943863,84.56666666666666L147.2844280750868,89.28666666666666L147.56447763744214,75.12666666666667L147.85367140046296,68.04666666666667L148.15128213758678,72.76666666666667L148.42400556568288,72.76666666666667L148.69382008752896,77.48666666666668L148.9234082067419,86.92666666666668L149.20670335431137,72.76666666666667L149.476437073206,75.12666666666667L149.7336867361111,79.84666666666666L149.98523979094327,82.20666666666666L150.49618378689237,79.84666666666666L150.76481319878474,75.12666666666667L150.99927642939812,86.92666666666668L151.23058834490743,84.56666666666666L151.47710468243633,79.84666666666666L151.75254847656248,75.12666666666667L152.01036376012732,79.84666666666666L152.21490296440973,96.36666666666667L152.4612980975116,84.56666666666666L152.70458231698495,86.92666666666668L152.92374685546878,84.56666666666666L153.17334717230904,82.20666666666666L153.62991078197336,84.56666666666666L153.86286569082753,86.92666666666668L154.12601396918402,77.48666666666668L154.34532664641205,89.28666666666666L154.88875342881946,77.48666666666668L155.11556731336805,89.28666666666666L155.41403994864004,70.40666666666667L155.69173275824653,75.12666666666667L155.93403387514468,84.56666666666666L156.2365466579861,68.04666666666667L156.75206948784725,75.12666666666667L157.04805069878472,72.76666666666667L157.5916390870949,68.04666666666667L157.85412747468175,79.84666666666666L158.12903258246527,77.48666666666668L158.43800960141783,65.68666666666665L158.6757049500868,86.92666666666668L158.9148547518808,82.20666666666666L159.372845880353,98.72666666666666L159.8087374016204,94.00666666666666L160.54654915075233,82.20666666666666L160.80235782769097,86.92666666666668L161.074030817419,72.76666666666667L161.3443974927662,77.48666666666668L161.86313897352431,79.84666666666666L162.14079138165508,75.12666666666667L162.41743375289352,75.12666666666667L162.9760649573206,70.40666666666667L163.24544853009257,79.84666666666666L163.54700514467592,68.04666666666667L163.8715501989294,58.60666666666667L164.45560739872687,68.04666666666667L164.6884276359954,91.64666666666666L164.96764223451967,75.12666666666667L165.25012935257524,72.76666666666667L165.54023888237847,75.12666666666667L165.83217994574653,72.76666666666667L166.10958994502315,77.48666666666668L166.3772227871817,72.76666666666667L166.69343167028356,65.68666666666665L166.97020871310764,77.48666666666668L167.24738977068867,77.48666666666668L167.50835636935764,75.12666666666667L168.0834848430266,70.40666666666667L168.62965892578123,77.48666666666668L168.91419305193867,68.04666666666667L169.45845479817712,82.20666666666666L169.78246116608796,63.32666666666667L170.07310938223378,68.04666666666667L170.37057198061342,70.40666666666667L170.65577946469907,72.76666666666667L170.91576296079282,75.12666666666667L171.2268408564815,68.04666666666667L171.49203614293984,79.84666666666666L171.80545732421874,65.68666666666665L172.10362021484374,65.68666666666665L172.35326093315973,79.84666666666666L172.66109324363424,68.04666666666667L173.17852841001158,75.12666666666667L173.43146858217594,82.20666666666666L173.70765307002316,75.12666666666667L173.9939244596354,72.76666666666667L174.3099313353588,68.04666666666667L174.65346508318865,56.24666666666667L175.28463040364582,60.96666666666667L175.89766892867476,51.52666666666667L176.19204754774304,70.40666666666667L176.7564022945602,75.12666666666667L177.03964357349537,70.40666666666667L177.63848771339698,72.76666666666667L177.89495628110532,79.84666666666666L178.2062227170139,65.68666666666665L178.45150007595487,79.84666666666666L179.10736416521993,63.32666666666667L179.3551868171296,79.84666666666666L179.68484939163773,60.96666666666667L180.21975146267363,68.04666666666667L180.4987371195023,70.40666666666667L180.78770194082753,70.40666666666667L181.10797790581597,63.32666666666667L181.6125519357639,82.20666666666666L181.87627930193867,75.12666666666667L182.33156353153936,108.16666666666667L182.90939890407986,72.76666666666667L183.20018179181136,68.04666666666667L183.51150209635415,72.76666666666667L183.82414218243633,65.68666666666665L184.09274466001156,75.12666666666667L184.3611181958912,75.12666666666667L184.6371545449942,79.84666666666666L184.87198138888888,84.56666666666666L185.68569404369214,65.68666666666665L185.9622690791377,72.76666666666667L186.1839385091146,89.28666666666666L186.45142321252894,77.48666666666668L186.71094882523147,84.56666666666666L186.98788747395832,70.40666666666667L187.30152412977432,60.96666666666667L187.59601048611108,70.40666666666667L187.88683377531828,65.68666666666665L188.18685513382522,70.40666666666667L188.86089988715278,58.60666666666667L189.17515603226275,65.68666666666665L189.51672357494212,56.24666666666667L189.85685013165508,58.60666666666667L190.7877270659722,68.04666666666667L191.07884663266785,70.40666666666667L191.36633006655094,72.76666666666667L191.7299433478009,46.80666666666667L192.07126848162613,53.886666666666656L192.7366269176794,65.68666666666665L192.90211136212386,84.56666666666666L193.2033986335359,68.04666666666667L193.52394394169562,70.40666666666667L193.89784613208911,51.52666666666667L195.54508163194444,51.52666666666667L195.84859098451966,63.32666666666667L196.18529688295718,58.60666666666667L196.5079834693287,68.04666666666667L196.79904916739005,65.68666666666665L197.14884514395257,56.24666666666667L197.49107257740164,60.96666666666667L197.78281163339122,68.04666666666667L198.09331044126156,63.32666666666667L198.44606919270834,56.24666666666667L198.74493237557874,65.68666666666665L199.09839141927083,53.886666666666656L199.40645267144097,63.32666666666667L199.89913520037615,9.046666666666653L200.25807537760417,53.886666666666656L200.5225838389757,75.12666666666667L200.8215143576389,68.04666666666667L201.09501888093172,75.12666666666667L201.409450099103,68.04666666666667L201.74242559461806,56.24666666666667L202.06701105034722,58.60666666666667L202.4506095949074,46.80666666666667L202.7499845298032,72.76666666666667L203.09724868055554,51.52666666666667L203.74131553891783,58.60666666666667L204.33855708695023,70.40666666666667L204.68102692925345,51.52666666666667L205.0731097837095,39.72666666666666L205.46364391493057,39.72666666666666L205.77276907262734,60.96666666666667L206.4595537579572,53.886666666666656L207.2131759512442,39.72666666666666L207.63271834201387,44.44666666666666L207.98647366319443,46.80666666666667L208.3685100173611,46.80666666666667L209.11254359374996,51.52666666666667L209.4389067144097,60.96666666666667L209.76120275318289,60.96666666666667L210.05894816189235,63.32666666666667L210.38026109809024,63.32666666666667L211.31602661096645,75.12666666666667L211.62294315465857,68.04666666666667L212.634084354022,58.60666666666667L212.92859764467593,65.68666666666665L213.29979293619792,46.80666666666667L214.39272018952548,56.24666666666667L214.70937348885994,63.32666666666667L215.46179710503475,60.96666666666667L215.82332297670717,46.80666666666667L216.11459068214702,72.76666666666667L216.57022505787037,25.566666666666663L216.9986557732928,35.00666666666669L217.42940283998843,32.64666666666665L217.81177587311922,46.80666666666667L218.21682760127314,42.08666666666667L218.69619111038776,20.846666666666664L218.93321310112847,84.56666666666666L219.74069046151618,32.64666666666665L220.1138384910301,44.44666666666666L220.46402501519094,51.52666666666667L221.10453654369212,84.56666666666666L221.47423698061343,44.44666666666666L221.83467201244213,46.80666666666667L222.2421882306134,32.64666666666665L222.675413254485,32.64666666666665L223.10525802155672,32.64666666666665L223.52692822337963,32.64666666666665L223.88162624565973,49.16666666666667L224.48138615234376,-23.99333333333334L224.85279691840276,49.16666666666667L225.2329344032118,46.80666666666667L226.0839510872396,39.72666666666666L226.4649774045139,44.44666666666666L226.83877185763887,42.08666666666667L227.1998667802373,51.52666666666667L227.70970646918403,9.046666666666653L228.0871909237558,51.52666666666667L228.5070161248553,35.00666666666669L228.79234481336803,70.40666666666667L229.16833441333912,51.52666666666667L229.52676283854163,46.80666666666667L230.00022773220485,13.766666666666652L230.5773628125,-9.833333333333343L230.98448848307294,39.72666666666666L231.35672074580438,56.24666666666667L232.15133696976272,37.366666666666674L232.64313066623262,11.406666666666666L233.0744298864294,27.926666666666677L233.49082096209492,37.366666666666674L233.92803226490165,32.64666666666665L234.3777006893808,27.926666666666677L234.7820790596065,42.08666666666667L236.2422961284722,53.886666666666656L237.08318550925927,25.566666666666663L237.60569779441553,9.046666666666653L238.41795599609372,37.366666666666674L238.82524327256945,35.00666666666669L239.31076127314813,18.48666666666668L239.7162708846933,37.366666666666674L240.12951064525464,42.08666666666667L240.89525328124998,42.08666666666667L241.26809156611688,44.44666666666666L241.63212232928242,53.886666666666656L242.1060855078125,25.566666666666663L242.52032183810766,32.64666666666665L243.03596587239582,16.126666666666665L243.40120867983217,46.80666666666667L243.75496400101275,53.886666666666656L244.2383137890625,16.126666666666665L244.70181298538773,23.20666666666665L244.93265355034723,89.28666666666666L245.38653719545718,25.566666666666663L245.82304820601854,35.00666666666669L246.43953432364006,-16.913333333333355L246.83161717809602,35.00666666666669L247.14200824869792,70.40666666666667L250.80687997757522,-892.4733333333334L251.200053671875,44.44666666666666L251.57306702980324,49.16666666666667L251.96967484953703,37.366666666666674L252.90587131148726,32.64666666666665L253.7850882255498,-90.07333333333332L257.4141911812789,-75.91333333333333L257.6873320912905,79.84666666666666L258.4060204752604,-42.873333333333306L263.1643581438079,-57.03333333333333L264.07627331886573,23.20666666666665L264.8923292592592,35.00666666666669L265.27291116030096,44.44666666666666L266.0180086422164,42.08666666666667L266.7360236682581,-49.95333333333332L267.2281944451678,13.766666666666652L267.7404582226563,11.406666666666666L268.4761152264178,-57.03333333333333L269.1665360445602,-40.51333333333335L270.0556917216435,11.406666666666666L270.37323385344325,65.68666666666665L270.7983516478588,39.72666666666666L271.16964120949075,49.16666666666667L271.17009909288197,49.16666666666667L271.8500963302951,-92.43333333333334L272.26165269603587,32.64666666666665" style="fill: none;" fill="none"></path></g></g></g></g></g></g><g transform="translate(39, 177)" clip-path="url(#clip_1)"><clipPath id="clip_1"><rect width="290" height="23"></rect></clipPath><g><g><line x1="0" y1="0" x2="0" y2="5" style="visibility: inherit;" fill="rgb(0, 0, 0)" stroke="rgb(204, 204, 204)" stroke-width="1px"></line><line x1="24.240885416666664" y1="0" x2="24.240885416666664" y2="5" style="visibility: inherit;" fill="rgb(0, 0, 0)" stroke="rgb(204, 204, 204)" stroke-width="1px"></line><line x1="48.48177083333333" y1="0" x2="48.48177083333333" y2="5" style="visibility: inherit;" fill="rgb(0, 0, 0)" stroke="rgb(204, 204, 204)" stroke-width="1px"></line><line x1="72.72265625" y1="0" x2="72.72265625" y2="5" style="visibility: inherit;" fill="rgb(0, 0, 0)" stroke="rgb(204, 204, 204)" stroke-width="1px"></line><line x1="96.96354166666666" y1="0" x2="96.96354166666666" y2="5" style="visibility: inherit;" fill="rgb(0, 0, 0)" stroke="rgb(204, 204, 204)" stroke-width="1px"></line><line x1="121.20442708333334" y1="0" x2="121.20442708333334" y2="5" style="visibility: inherit;" fill="rgb(0, 0, 0)" stroke="rgb(204, 204, 204)" stroke-width="1px"></line><line x1="145.4453125" y1="0" x2="145.4453125" y2="5" style="visibility: inherit;" fill="rgb(0, 0, 0)" stroke="rgb(204, 204, 204)" stroke-width="1px"></line><line x1="169.68619791666669" y1="0" x2="169.68619791666669" y2="5" style="visibility: inherit;" fill="rgb(0, 0, 0)" stroke="rgb(204, 204, 204)" stroke-width="1px"></line><line x1="193.92708333333331" y1="0" x2="193.92708333333331" y2="5" style="visibility: inherit;" fill="rgb(0, 0, 0)" stroke="rgb(204, 204, 204)" stroke-width="1px"></line><line x1="218.16796875" y1="0" x2="218.16796875" y2="5" style="visibility: inherit;" fill="rgb(0, 0, 0)" stroke="rgb(204, 204, 204)" stroke-width="1px"></line><line x1="242.40885416666669" y1="0" x2="242.40885416666669" y2="5" style="visibility: inherit;" fill="rgb(0, 0, 0)" stroke="rgb(204, 204, 204)" stroke-width="1px"></line><line x1="266.6497395833333" y1="0" x2="266.6497395833333" y2="5" style="visibility: inherit;" fill="rgb(0, 0, 0)" stroke="rgb(204, 204, 204)" stroke-width="1px"></line><line x1="290.890625" y1="0" x2="290.890625" y2="5" style="visibility: inherit;" fill="rgb(0, 0, 0)" stroke="rgb(204, 204, 204)" stroke-width="1px"></line></g><g transform="translate(0, 8)"><text x="0" y="0" dx="0em" dy="0.95em" style="text-anchor: middle; visibility: hidden; font-family: &quot;Helvetica Neue&quot;, sans-serif; font-size: 12px; font-weight: 200;" fill="rgb(50, 49, 63)" stroke="none" stroke-width="1px">-0.5</text><text x="24.240885416666664" y="0" dx="0em" dy="0.95em" style="text-anchor: middle; visibility: inherit; font-family: &quot;Helvetica Neue&quot;, sans-serif; font-size: 12px; font-weight: 200;" fill="rgb(50, 49, 63)" stroke="none" stroke-width="1px">0</text><text x="48.48177083333333" y="0" dx="0em" dy="0.95em" style="text-anchor: middle; visibility: inherit; font-family: &quot;Helvetica Neue&quot;, sans-serif; font-size: 12px; font-weight: 200;" fill="rgb(50, 49, 63)" stroke="none" stroke-width="1px">0.5</text><text x="72.72265625" y="0" dx="0em" dy="0.95em" style="text-anchor: middle; visibility: inherit; font-family: &quot;Helvetica Neue&quot;, sans-serif; font-size: 12px; font-weight: 200;" fill="rgb(50, 49, 63)" stroke="none" stroke-width="1px">1</text><text x="96.96354166666666" y="0" dx="0em" dy="0.95em" style="text-anchor: middle; visibility: inherit; font-family: &quot;Helvetica Neue&quot;, sans-serif; font-size: 12px; font-weight: 200;" fill="rgb(50, 49, 63)" stroke="none" stroke-width="1px">1.5</text><text x="121.20442708333334" y="0" dx="0em" dy="0.95em" style="text-anchor: middle; visibility: inherit; font-family: &quot;Helvetica Neue&quot;, sans-serif; font-size: 12px; font-weight: 200;" fill="rgb(50, 49, 63)" stroke="none" stroke-width="1px">2</text><text x="145.4453125" y="0" dx="0em" dy="0.95em" style="text-anchor: middle; visibility: inherit; font-family: &quot;Helvetica Neue&quot;, sans-serif; font-size: 12px; font-weight: 200;" fill="rgb(50, 49, 63)" stroke="none" stroke-width="1px">2.5</text><text x="169.68619791666669" y="0" dx="0em" dy="0.95em" style="text-anchor: middle; visibility: inherit; font-family: &quot;Helvetica Neue&quot;, sans-serif; font-size: 12px; font-weight: 200;" fill="rgb(50, 49, 63)" stroke="none" stroke-width="1px">3</text><text x="193.92708333333331" y="0" dx="0em" dy="0.95em" style="text-anchor: middle; visibility: inherit; font-family: &quot;Helvetica Neue&quot;, sans-serif; font-size: 12px; font-weight: 200;" fill="rgb(50, 49, 63)" stroke="none" stroke-width="1px">3.5</text><text x="218.16796875" y="0" dx="0em" dy="0.95em" style="text-anchor: middle; visibility: inherit; font-family: &quot;Helvetica Neue&quot;, sans-serif; font-size: 12px; font-weight: 200;" fill="rgb(50, 49, 63)" stroke="none" stroke-width="1px">4</text><text x="242.40885416666669" y="0" dx="0em" dy="0.95em" style="text-anchor: middle; visibility: inherit; font-family: &quot;Helvetica Neue&quot;, sans-serif; font-size: 12px; font-weight: 200;" fill="rgb(50, 49, 63)" stroke="none" stroke-width="1px">4.5</text><text x="266.6497395833333" y="0" dx="0em" dy="0.95em" style="text-anchor: middle; visibility: inherit; font-family: &quot;Helvetica Neue&quot;, sans-serif; font-size: 12px; font-weight: 200;" fill="rgb(50, 49, 63)" stroke="none" stroke-width="1px">5</text><text x="290.890625" y="0" dx="0em" dy="0.95em" style="text-anchor: middle; visibility: hidden; font-family: &quot;Helvetica Neue&quot;, sans-serif; font-size: 12px; font-weight: 200;" fill="rgb(50, 49, 63)" stroke="none" stroke-width="1px">5.5</text></g><line x1="0" y1="0" x2="290.890625" y2="0" fill="rgb(0, 0, 0)" stroke="rgb(204, 204, 204)" stroke-width="1px"></line></g></g></g></g></svg>